<svg xmlns="http://www.w3.org/2000/svg" width="60" height="60" viewBox="0 0 60 60">
  <g id="Group_59397" data-name="Group 59397" transform="translate(-233.369 -744.166)">
    <circle id="Ellipse_76" data-name="Ellipse 76" cx="30" cy="30" r="30" transform="translate(233.369 744.166)" fill="#ed1c24"/>
    <g id="CHatBox_WhatsApp-Icon" transform="translate(236.222 747.02)">
      <path id="Path_45220" data-name="Path 45220" d="M730.66,429.067a27.146,27.146,0,1,0,27.147,27.146A27.145,27.145,0,0,0,730.66,429.067Zm.563,42.253a16.086,16.086,0,0,1-7.664-1.954l-8.775,2.352,2.34-8.731a16.111,16.111,0,1,1,14.1,8.333Zm0-29.2a13.053,13.053,0,0,0-11.163,19.853l.339.556-1.306,4.875,4.9-1.314.553.331a13.069,13.069,0,1,0,6.674-24.3Zm7.68,18.012a3.9,3.9,0,0,1-2.921,2.172,6.127,6.127,0,0,1-3.221-.509,13.431,13.431,0,0,1-2.767-1.314,15.8,15.8,0,0,1-4.437-4.121,17.813,17.813,0,0,1-1.023-1.555,8.538,8.538,0,0,1-.98-2.258,4.554,4.554,0,0,1-.126-1.021,4.06,4.06,0,0,1,1.407-3.219,1.846,1.846,0,0,1,2-.3,4.323,4.323,0,0,1,1.344,2.028,3.356,3.356,0,0,1,.424,1.821,3.528,3.528,0,0,1-.948,1.538.64.64,0,0,0-.08.874,10.452,10.452,0,0,0,5.219,4.471.575.575,0,0,0,.743-.16c.388-.48.771-1.419,1.372-1.664a2.712,2.712,0,0,1,2.309.52c.617.37,1.651.823,1.817,1.587A1.878,1.878,0,0,1,738.9,460.135Z" transform="translate(-703.515 -429.067)" fill="#fff"/>
    </g>
  </g>
</svg>
