<svg xmlns="http://www.w3.org/2000/svg" width="39.984" height="39.987" viewBox="0 0 39.984 39.987">
  <g id="Group_56229" data-name="Group 56229" transform="translate(-236.171 -1314.191)">
    <g id="Group_52973" data-name="Group 52973" transform="translate(236.172 1314.191)">
      <g id="Group_234" data-name="Group 234" transform="translate(0 0)">
        <path id="Path_472" data-name="Path 472" d="M167.979,112.845h-.01a19.984,19.984,0,0,0-16.865,30.71,2.508,2.508,0,0,1,.3,2.151l-2.105,6.278,6.616-2.116a2.5,2.5,0,0,1,2.019.252,19.828,19.828,0,0,0,10.048,2.711,20.065,20.065,0,0,0,18.939-26.546A19.777,19.777,0,0,0,167.979,112.845Z" transform="translate(-147.982 -112.845)" fill="#fff"/>
      </g>
    </g>
    <g id="Group_235" data-name="Group 235" transform="translate(245.451 1318.744)">
      <path id="Path_474" data-name="Path 474" d="M172.331,139.353c-.5-.52-2.924-3.039-3.412-3.435a1.225,1.225,0,0,0-1.642-.083,27.392,27.392,0,0,1-2.383,1.556,1.387,1.387,0,0,1-1.54-.292,16.22,16.22,0,0,1-3.769-4.729A19.526,19.526,0,0,1,157.731,127c-.134-.732.308-.972.707-1.2.437-.267.824-.431,1.255-.672a3.848,3.848,0,0,0,1.011-.707,1.311,1.311,0,0,0,.315-1.149c-.037-.357-.184-3.758-.251-5.139-.055-1.1-.345-1.248-.944-1.49-.2-.087-.428-.182-.684-.274a3.177,3.177,0,0,0-2.376-.018,6.989,6.989,0,0,0-3.921,4.266c-1.066,2.963.062,6.608.212,7.114s1.849,8.084,7.015,12.783c4.038,3.675,5.514,4,6.677,4.156,1.7.228,4.1-.228,5.1-1.455a5.443,5.443,0,0,0,1.381-2.74C173.176,140.166,172.828,139.878,172.331,139.353Z" transform="translate(-152.102 -115.838)" fill="#ed1c24"/>
      <path id="Path_475" data-name="Path 475" d="M167.808,145.179a7.2,7.2,0,0,1-.937-.06c-1.356-.186-2.9-.649-6.831-4.227-3.127-2.846-5.627-7.356-7.043-12.7-.025-.1-.044-.175-.055-.212-.486-1.66-1.133-4.725-.207-7.3a7.273,7.273,0,0,1,4-4.4l.069-.032a3.419,3.419,0,0,1,2.6.007c.223.081.424.166.608.244l.088.035c.718.29,1.061.559,1.121,1.743l.076,1.665c.067,1.432.15,3.216.173,3.458a1.571,1.571,0,0,1-.407,1.388,3.705,3.705,0,0,1-.958.688l-.106.06c-.186.106-.366.2-.546.288-.226.115-.456.23-.7.38-.449.256-.665.4-.576.9A19.268,19.268,0,0,0,160,132.4a15.85,15.85,0,0,0,3.546,4.506l.166.15a1.129,1.129,0,0,0,1.216.249,20.714,20.714,0,0,0,1.922-1.241l.431-.295a1.494,1.494,0,0,1,1.989.1c.562.451,3.405,3.428,3.435,3.458l.281.29a2.126,2.126,0,0,1,.7.974,5.462,5.462,0,0,1-1.444,2.975A5.967,5.967,0,0,1,167.808,145.179ZM158,116.578a2.167,2.167,0,0,0-.944.193l-.069.035a6.642,6.642,0,0,0-3.707,4.071c-.87,2.422-.249,5.348.2,6.88.03.09.051.173.083.286,1.384,5.24,3.824,9.652,6.87,12.421,4.13,3.758,5.512,3.949,6.52,4.084,1.662.221,3.921-.226,4.844-1.352a5.592,5.592,0,0,0,1.322-2.51,2.078,2.078,0,0,0-.539-.67l-.29-.3c-.716-.753-2.945-3.055-3.382-3.412a.938.938,0,0,0-1.3-.069l-.428.295a20.642,20.642,0,0,1-1.989,1.282,1.659,1.659,0,0,1-1.865-.341l-.161-.143a16.377,16.377,0,0,1-3.665-4.66,19.823,19.823,0,0,1-1.888-5.452,1.3,1.3,0,0,1,.829-1.492c.272-.166.511-.288.753-.41.173-.087.343-.173.523-.274l.108-.062a3.2,3.2,0,0,0,.84-.6,1,1,0,0,0,.235-.919c-.028-.256-.106-1.973-.175-3.49l-.078-1.662c-.046-.946-.228-1.02-.762-1.236l-.092-.039c-.177-.074-.368-.154-.583-.233A3.589,3.589,0,0,0,158,116.578Z" transform="translate(-152.265 -116.002)" fill="#ed1c24"/>
    </g>
  </g>
</svg>
