<svg id="Departments_Phone_Icon" xmlns="http://www.w3.org/2000/svg" width="115.656" height="115.657" viewBox="0 0 115.656 115.657">
  <path id="Icon_awesome-phone" data-name="Icon awesome-phone" d="M3.5,4.635,23.091.115a4.55,4.55,0,0,1,5.179,2.618l9.041,21.095a4.509,4.509,0,0,1-1.3,5.274L24.6,38.444A69.8,69.8,0,0,0,57.973,71.819L67.315,60.4a4.515,4.515,0,0,1,5.274-1.3l21.095,9.041a4.574,4.574,0,0,1,2.637,5.2L91.8,92.932a4.519,4.519,0,0,1-4.407,3.5A87.383,87.383,0,0,1,0,9.043,4.515,4.515,0,0,1,3.5,4.635Z" transform="translate(21.693 0) rotate(13)" fill="#ed1c24" opacity="0.1"/>
</svg>
