<svg id="Masaha-Explore-All-Button" xmlns="http://www.w3.org/2000/svg" width="36" height="36" viewBox="0 0 36 36">
  <circle id="Ellipse_39" data-name="Ellipse 39" cx="18" cy="18" r="18" fill="#ed1c24"/>
  <g id="Masaha-CHat-Pop-Up-selected-dept-icon" transform="translate(13.743 25.476) rotate(-90)">
    <path id="Path_43875" data-name="Path 43875" d="M2.528.489l6.3,6.3a1.386,1.386,0,0,1,0,1.966l-6.3,6.3a1.3,1.3,0,0,1-1.918.118l-.236-.236A1.03,1.03,0,0,1,.326,13.4c1.539-1.539,3.078-3.1,4.641-4.641a1.387,1.387,0,0,0,0-1.966C3.4,5.226,1.865,3.687.326,2.147-.172,1.7-.054,1.105.373.584L.61.371A1.3,1.3,0,0,1,2.528.489Z" transform="translate(15.544) rotate(90)" fill="#fff" fill-rule="evenodd"/>
  </g>
</svg>
