<svg xmlns="http://www.w3.org/2000/svg" xmlns:xlink="http://www.w3.org/1999/xlink" width="204.744" height="35.153" viewBox="0 0 204.744 35.153">
  <defs>
    <clipPath id="clip-path">
      <rect id="Rectangle_42" data-name="Rectangle 42" width="204.744" height="35.153" fill="#6f7e83"/>
    </clipPath>
  </defs>
  <g id="Group_586" data-name="Group 586" transform="translate(0.001)">
    <g id="Group_585" data-name="Group 585" transform="translate(-0.001)" clip-path="url(#clip-path)">
      <path id="Path_1735" data-name="Path 1735" d="M0,1.487A3.575,3.575,0,0,1,1.94,1.14q7.128.015,14.256,0c.86,0,.991.127.991.974q0,6.077,0,12.154c0,1.076.066,1.149,1.127,1.149q12.52,0,25.04,0c.759,0,.906-.163.906-1.015q0-6.077,0-12.153c0-.941.163-1.111,1.082-1.11H60.26c.864,0,1.014.152,1.014,1.033q0,16.559,0,33.118c0,.751-.069.823-.843.823H45.2c-.9,0-.948-.056-.948-.976q0-6.654,0-13.308c0-.854-.143-.995-.982-.995H18.356c-1.123,0-1.173.052-1.173,1.159,0,4.456-.007,8.913.015,13.369,0,.6-.22.762-.787.761-5.1-.015-10.195,0-15.292-.019A5.876,5.876,0,0,1,0,35.89V1.487" transform="translate(0 -1.001)" fill="#6f7e83"/>
      <path id="Path_1736" data-name="Path 1736" d="M1068.843,0c.038.442.11.884.111,1.327q.01,12.578,0,25.155a2.652,2.652,0,0,0,1.395,2.688,4.742,4.742,0,0,0,1.883.362c1.969.045,3.939.017,5.909.017q13.341,0,26.682-.014c.517,0,.688.179.685.663-.011,1.458-.008,2.916,0,4.375,0,.41-.165.6-.583.576-.283-.016-.568-.005-.853-.005q-18.519,0-37.038,0a33.212,33.212,0,0,1-7.388-.6c-2.531-.575-4.846-1.569-6.2-3.955a9.483,9.483,0,0,1-1.057-2.692,18.828,18.828,0,0,1-.385-3.737c-.038-7.737-.03-15.474-.025-23.211a5.285,5.285,0,0,1,.171-.949Z" transform="translate(-923.686)" fill="#6f7e83"/>
      <path id="Path_1737" data-name="Path 1737" d="M581.979,37.538q-10.328,0-20.655,0A21.634,21.634,0,0,1,554.9,36.6a7.383,7.383,0,0,1-5.522-6.072,30.418,30.418,0,0,1-.416-4.64c-.056-4.051-.007-8.1-.024-12.154a14.393,14.393,0,0,1,.949-5.589,7.046,7.046,0,0,1,3.778-3.84,20.644,20.644,0,0,1,8.576-1.414q20.807-.033,41.615-.01c.826,0,.873.055.872.852,0,1.276-.017,2.553.01,3.828.01.475-.155.681-.626.658-.223-.011-.447,0-.67,0h-34.3c-2.167.008-2.941.776-2.944,2.926q0,2.4,0,4.8c0,.8.156.949.97.949l36.375,0c.2,0,.406,0,.609,0a.515.515,0,0,1,.588.6q-.013,2.127,0,4.254c0,.437-.2.636-.628.619-.142-.006-.284,0-.426,0l-36.436,0c-.923,0-1.051.129-1.051,1.055,0,2.066-.012,4.133.01,6.2a2.179,2.179,0,0,0,.787,2,5.654,5.654,0,0,0,1.7.549,4.342,4.342,0,0,0,.972.02h34.12c.922,0,.944.026.942.968q0,1.793,0,3.585c0,.786-.023.82-.818.82q-6.7,0-13.4,0h-8.53v-.025" transform="translate(-481.996 -2.523)" fill="#6f7e83"/>
      <path id="Path_1738" data-name="Path 1738" d="M1554.36,20.889c0,5.549-.01,11.1.014,16.647,0,.612-.209.75-.769.749-5.238-.015-10.477-.007-15.716-.009-.717,0-.806-.1-.806-.806q0-16.556-.01-33.112c0-.585.178-.792.76-.791q7.919.019,15.838,0c.5,0,.706.106.7.674-.023,5.549-.014,11.1-.014,16.647" transform="translate(-1349.631 -3.131)" fill="#6f7e83"/>
    </g>
  </g>
</svg>
