<svg xmlns="http://www.w3.org/2000/svg" width="259.749" height="68.252" viewBox="0 0 259.749 68.252">
  <g id="Group_52985" data-name="Group 52985" transform="translate(0.001)">
    <path id="Path_2084" data-name="Path 2084" d="M604.973,158.447c6.979,0,6.979,6.659,6.979,6.659v16.829h-6.979l.018-15.521a1.31,1.31,0,0,0-1.335-1.318l-13.418.01v16.829h-7.06V158.447Z" transform="translate(-352.203 -133.411)" fill="#6f7e83"/>
    <path id="Path_2085" data-name="Path 2085" d="M281.35,165.106c0-6.659,6.794-6.659,6.794-6.659H310.1v6.659H289.165s-.846.159-.856.931l.01,3.044h16.342v6.42H288.319v6.364H281.35Zm6.969,0,.008.726-.008,3.25" transform="translate(-196.104 -133.411)" fill="#6f7e83"/>
    <path id="Path_2086" data-name="Path 2086" d="M353.914,165.042c0-6.616,7.056-6.635,7.056-6.635h17.2s7.022.13,7.022,6.621v10.12c0,6.829-7.022,6.765-7.022,6.765h-17.2s-7.038-.031-7.038-6.733c0,0-.018-9.893-.018-10.138m7.082,8.8a1.291,1.291,0,0,0,1.319,1.318h14.521a1.264,1.264,0,0,0,1.32-1.318v-7.452a1.292,1.292,0,0,0-1.32-1.318l-14.562.01a1.248,1.248,0,0,0-1.266,1.308s-.012,6.132-.012,7.452" transform="translate(-233.633 -133.39)" fill="#6f7e83"/>
    <path id="Path_2087" data-name="Path 2087" d="M505.47,165.042c0-6.616,7.055-6.635,7.055-6.635h17.206s7.022.13,7.022,6.621v10.12c0,6.829-7.022,6.765-7.022,6.765H512.525s-7.038-.031-7.038-6.733c0,0-.018-9.893-.018-10.138m7.083,8.8a1.291,1.291,0,0,0,1.318,1.318h14.521a1.264,1.264,0,0,0,1.319-1.318v-7.452a1.292,1.292,0,0,0-1.319-1.318l-14.563.01a1.246,1.246,0,0,0-1.265,1.308s-.012,6.132-.012,7.452" transform="translate(-312.014 -133.39)" fill="#6f7e83"/>
    <path id="Path_2088" data-name="Path 2088" d="M461.162,158.447v6.659H448.7v16.759h-6.91V165.105H429.327l0-6.659" transform="translate(-272.635 -133.411)" fill="#6f7e83"/>
    <g id="Group_52985-2" data-name="Group 52985" transform="translate(-0.001)">
      <path id="Path_1817" data-name="Path 1817" d="M138.914,106.595a34.126,34.126,0,1,0,34.13,34.125,34.123,34.123,0,0,0-34.13-34.125m.169,66.682a32.393,32.393,0,1,1,32.392-32.392,32.394,32.394,0,0,1-32.392,32.392" transform="translate(-104.793 -106.595)" fill="#6f7e83"/>
      <path id="Path_1818" data-name="Path 1818" d="M139.626,107.759A33.673,33.673,0,1,0,173.3,141.433a33.675,33.675,0,0,0-33.676-33.674m.055,66.122a32.394,32.394,0,1,1,32.4-32.393,32.4,32.4,0,0,1-32.4,32.393" transform="translate(-105.392 -107.197)" fill="#6f7e83"/>
      <path id="Path_2077" data-name="Path 2077" d="M107.286,141.489a32.4,32.4,0,1,1,32.4,32.393,32.394,32.394,0,0,1-32.4-32.393m-1.334-.055a33.675,33.675,0,1,0,33.674-33.674,33.676,33.676,0,0,0-33.674,33.674" transform="translate(-105.392 -107.197)" fill="#6f7e83"/>
      <path id="Path_38704" data-name="Path 38704" d="M179.613,150.558c1.16-1.705,3.544-4.657,4.7-6.425,1.28-1.959,2.177-3.071,3.01-3.076.648,0,1.256.75,1.991,1.722,1.436,1.892,4.149,5.343,5.034,6.691.394.6.092,2.009-1.293,4.013-.711,1.026-6.366,8.634-11.657,16.15-4.046,5.343-7.514,10.125-10.213,14.058-2.88,4.192-4.694,2.55-6.653.031-1.9-2.438-4.044-5.3-4.009-6.163.067-1.607,7.48-10.951,11.183-16.217,2.565-3.646,5.463-7.193,7.9-10.783" transform="translate(-133.617 -124.416)" fill="#6f7e83"/>
      <path id="Path_38705" data-name="Path 38705" d="M123.072,155.779c-.683-1.088-3.039-3.863-3.039-5.14s3.758-5.694,5.029-7.427a4.441,4.441,0,0,1,3.578-2.032c.884-.093,5.1-.072,5.1-.072s3.113.05,4.839.072a2.249,2.249,0,0,1,1.872.973c.675,1.631-.773,3.094-2.514,5.4-1.928,2.563-2.35,3.671-4.978,7.058-2.885,4.011-3.658,5.184-5.466,5.208-2,.027-3.734-2.953-4.418-4.043" transform="translate(-112.675 -124.443)" fill="#6f7e83"/>
      <path id="Path_38706" data-name="Path 38706" d="M154.4,143.939c1.533-2.408,2.475-2.768,5.171-2.851,1.2-.036,2.721,0,4.118,0,1.471,0,3.148.027,4.564.007,1.339-.02,3.647.924.6,4.8-2.034,2.595-9.9,13.354-12.325,16.88-1.667,2.418-5.166,7.172-6.86,9.475-1.973,2.685-4.253-.208-5.923-2.649-1.562-2.279-3.229-3.761-3.366-5.431-.116-1.409,2.463-4.071,4.01-6.247,1.9-2.677,7-9.927,10.008-13.989" transform="translate(-123.195 -124.425)" fill="#6f7e83"/>
    </g>
  </g>
</svg>
