<svg xmlns="http://www.w3.org/2000/svg" width="50.495" height="44.086" viewBox="0 0 50.495 44.086">
  <g id="Group_56226" data-name="Group 56226" transform="translate(23.701 285.135)">
    <g id="Group_54703" data-name="Group 54703" transform="translate(-23.701 -285.135)">
      <path id="Path_41252" data-name="Path 41252" d="M-11.78-285.135l26.106.043a28.783,28.783,0,0,1-.571,19.505s-16.127-19.259-33.8-4.671Z" transform="translate(23.893 285.135)" fill="#fff" fill-rule="evenodd"/>
      <path id="Path_41253" data-name="Path 41253" d="M25.751-264.115,12.9-241.391a28.78,28.78,0,0,1-16.713-10.07s24.7-4.6,20.661-27.16Z" transform="translate(24.744 285.477)" fill="#fff" fill-rule="evenodd"/>
      <path id="Path_41254" data-name="Path 41254" d="M-10.852-242.12-23.7-264.846a28.786,28.786,0,0,1,17.245-9.131s-8.788,23.532,12.623,31.7Z" transform="translate(23.701 285.72)" fill="#fff" fill-rule="evenodd"/>
    </g>
    <path id="Path_41255" data-name="Path 41255" d="M-5-273.791a37,37,0,0,1,17.163,10.047" transform="translate(0.981 0.595)" fill="#fff" fill-rule="evenodd"/>
    <path id="Path_41256" data-name="Path 41256" d="M12.173-264.121a37,37,0,0,1-17.314,9.785" transform="translate(0.974 1.102)" fill="#fff" fill-rule="evenodd"/>
    <path id="Path_41257" data-name="Path 41257" d="M-5.2-273.791a37,37,0,0,0,0,19.887" transform="translate(0.9 0.595)" fill="#fff" fill-rule="evenodd"/>
  </g>
</svg>
