<svg xmlns="http://www.w3.org/2000/svg" width="728.222" height="635.832" viewBox="0 0 728.222 635.832">
  <g id="Group_56122" data-name="Group 56122" transform="translate(2.417 2.002)" opacity="0.045">
    <g id="Group_54694" data-name="Group 54694">
      <path id="Path_41226" data-name="Path 41226" d="M98.417-285.135l374.047.619s51.3,133.831-8.188,279.468c0,0-231.063-275.94-484.323-66.923Z" transform="translate(75.133 285.135)" fill="none" stroke="#191f21" stroke-width="4" fill-rule="evenodd"/>
      <path id="Path_41227" data-name="Path 41227" d="M419.784-70.78,235.648,254.8S93.886,233.826-3.814,110.52c0,0,353.825-65.882,296.026-389.141Z" transform="translate(303.7 376.849)" fill="none" stroke="#191f21" stroke-width="4" fill-rule="evenodd"/>
      <path id="Path_41228" data-name="Path 41228" d="M160.39,182.465-23.7-143.147s91.065-110.67,247.078-130.831c0,0-125.914,337.163,180.864,454.255Z" transform="translate(23.701 442.235)" fill="none" stroke="#191f21" stroke-width="4" fill-rule="evenodd"/>
    </g>
    <path id="Path_41229" data-name="Path 41229" d="M-5-273.791s132.4,27.354,245.9,143.949" transform="translate(286.988 444.853)" fill="none" stroke="#191f21" stroke-width="4" fill-rule="evenodd"/>
    <path id="Path_41230" data-name="Path 41230" d="M242.932-264.121S152.711-163.42-5.141-123.927" transform="translate(285.017 581.002)" fill="none" stroke="#191f21" stroke-width="4" fill-rule="evenodd"/>
    <path id="Path_41231" data-name="Path 41231" d="M12.675-273.791s-43.263,128.1.045,284.942" transform="translate(265.33 444.853)" fill="none" stroke="#191f21" stroke-width="4" fill-rule="evenodd"/>
  </g>
</svg>
