<svg id="Group_52933" data-name="Group 52933" xmlns="http://www.w3.org/2000/svg" xmlns:xlink="http://www.w3.org/1999/xlink" width="259.749" height="64.935" viewBox="0 0 259.749 64.935">
  <defs>
    <clipPath id="clip-path">
      <rect id="Rectangle_51382" data-name="Rectangle 51382" width="259.749" height="64.934" fill="#6f7e83"/>
    </clipPath>
  </defs>
  <g id="Group_52932" data-name="Group 52932" clip-path="url(#clip-path)">
    <path id="Path_38093" data-name="Path 38093" d="M157.359,22.24l-29.093-.052c-6.482.942-10.475,5.4-10.588,11.072a5.392,5.392,0,0,0,.079.791,11.516,11.516,0,0,0,11.02,10.043l18.5-.163c.922.11,1.5.534,1.508,1.435.014.589-.389,1-1.447,1.269H119.045l.056,9.628h29.957c6.154-.958,10.514-5.969,9.647-12.21-.72-5.245-4.5-8.713-10-9.584l-19.234.055c-1.1-.049-1.5-.65-1.546-1.278-.064-.9.6-1.26,1.48-1.368l28.061.053Z" transform="translate(-33.934 -6.398)" fill="#6f7e83"/>
    <path id="Path_38094" data-name="Path 38094" d="M193.988,41.865l3.987-9.126,3.931,9.126Zm10.323-19.549-12.675-.056L174.7,56.306l12.732.1,2.511-5.771h15.946l2.563,5.724,12.681-.053Z" transform="translate(-50.377 -6.418)" fill="#6f7e83"/>
    <path id="Path_38095" data-name="Path 38095" d="M255.161,22.346,242.623,22.3l-.057,34h9.582V33.632l16.786,22.66h12.371l.056-33.947h-9.68l.215,22.613Z" transform="translate(-69.946 -6.429)" fill="#6f7e83"/>
    <path id="Path_38096" data-name="Path 38096" d="M311.708,22.31H299.332l17.061,22.306V56.367h12.378l-.054-11.806,17.347-22.2-12.558-.053L322.612,36.695Z" transform="translate(-86.315 -6.433)" fill="#6f7e83"/>
    <path id="Path_38097" data-name="Path 38097" d="M4.424,58.618l18.7-5.307a.525.525,0,0,0,.38-.523.553.553,0,0,0-.464-.527l-2.79-.456-.115-.041a.356.356,0,0,1-.115-.543L30.787,39.576a4,4,0,0,1,4.389-1.556L31.163,26.408,3.407,56.963a.97.97,0,0,0-.142,1.2,1.123,1.123,0,0,0,1.159.453" transform="translate(-0.899 -7.615)" fill="#6f7e83"/>
    <path id="Path_38098" data-name="Path 38098" d="M43.378.707l-4.49,17.948a.526.526,0,0,0,.292.576.6.6,0,0,0,.707-.12l1.818-2.045L41.8,17a.4.4,0,0,1,.561.178l5.406,15.134a3.41,3.41,0,0,1-1.176,4.145L59.5,38.77,45.4.714A1.058,1.058,0,0,0,44.385,0a1.071,1.071,0,0,0-1.006.706" transform="translate(-11.211 0)" fill="#6f7e83"/>
    <path id="Path_38099" data-name="Path 38099" d="M72.491,63.171,58.241,50.546a.606.606,0,0,0-.678-.055.533.533,0,0,0-.246.647l.975,2.5.016.108a.379.379,0,0,1-.44.371l-16.6-3.128a3.676,3.676,0,0,1-3.23-2.964l-8.562,9.345,42,7.442a1.087,1.087,0,0,0,1.173-.478.982.982,0,0,0-.157-1.168" transform="translate(-8.499 -13.849)" fill="#6f7e83"/>
    <path id="Path_38100" data-name="Path 38100" d="M78.379,47.187c4.88-10.219,2.924-22.555-4.141-31.432A33.435,33.435,0,0,0,52.022,3.842c-.933-.045-1.113.959-.263,1.269C70.837,9.97,82.115,25.5,77.095,46.764a.617.617,0,0,0,.418.863c.39.107.642.028.866-.44" transform="translate(-14.767 -1.107)" fill="#6f7e83"/>
    <path id="Path_38101" data-name="Path 38101" d="M9.355,73.177c6.958,9.078,19.266,13.636,30.957,12.277A32.992,32.992,0,0,0,62.217,73.333c.408-.543.154-.954-.2-1.084a.735.735,0,0,0-.882.343C47.143,85.769,27.4,87.026,10.368,72.321a.706.706,0,0,0-.934-.253c-.32.183-.471.615-.079,1.11" transform="translate(-2.63 -20.756)" fill="#6f7e83"/>
    <path id="Path_38102" data-name="Path 38102" d="M29.458,3.759C17.64,4.979,6.949,12.858,2.425,23.116a28.957,28.957,0,0,0,.321,23.91.679.679,0,0,0,1.213.014.642.642,0,0,0-.019-.556C-1.3,28.364,7.723,11.61,29.7,5.025a.644.644,0,1,0-.237-1.266" transform="translate(0 -1.082)" fill="#6f7e83"/>
  </g>
</svg>
