<svg xmlns="http://www.w3.org/2000/svg" xmlns:xlink="http://www.w3.org/1999/xlink" width="317.865" height="55.239" viewBox="0 0 317.865 55.239">
  <defs>
    <clipPath id="clip-path">
      <rect id="Rectangle_43" data-name="Rectangle 43" width="317.865" height="55.239" fill="#6f7e83"/>
    </clipPath>
  </defs>
  <g id="Group_589" data-name="Group 589" transform="translate(0)">
    <g id="Group_588" data-name="Group 588" transform="translate(0)" clip-path="url(#clip-path)">
      <path id="Path_1747" data-name="Path 1747" d="M480.152,41.973c1.479-6.183,1.956-12.725,6.739-17.43a1.209,1.209,0,0,1,.613-.389,1.225,1.225,0,0,1,.856.315,23.745,23.745,0,0,1,6.83,7.828c.981,1.729,1.835,3.522,2.676,5.322.322.688,2.817,4.84,2.545,5.362,2.325-4.448,4.4-8.415,6.472-12.38a45.253,45.253,0,0,1,2.282-4.288c2.383-3.559,6.537-3.425,7.729.644,2.676,9.14,4.7,18.472,6.952,27.582-.631.382-.831.6-1.048.621-7.6.584-7.579.577-8.96-6.895-.513-2.779-1.155-5.534-1.955-9.333-2.429,4.711-4.25,8.719-6.529,12.448-1.073,1.757-3.275,4.35-4.524,4.124-2.01-.364-4.117-2.449-5.354-4.348-2.321-3.56-4.049-7.506-6.466-12.141-1.106,5.1-2.221,9.143-2.782,13.258-.331,2.43-1.2,3.251-3.539,3.036-1.71-.158-3.447-.031-5.683-.031.807-3.509,1.51-6.568,2.283-9.933-1.76,2.254-2.951,4.779-4.94,6.08a26.571,26.571,0,0,1-9.074,3.678c-3,.608-6.212.143-9.331.128a15.052,15.052,0,0,1-15.337-15.447c.022-8.393,5.056-15.037,14.408-15.322,3.487-.107,6.989-.163,10.471.017,8.687.449,13.914,6.067,13.9,14.741q0,1.3,0,2.6l.764.152M459.946,47.51l.007-.152c1.492,0,2.992.1,4.474-.019,4.422-.358,7.108-2.886,7.442-6.885a7.4,7.4,0,0,0-6.219-8.078,42.1,42.1,0,0,0-11.806.354c-3.578.586-5.456,4.047-5.188,7.941a6.741,6.741,0,0,0,6.094,6.454c1.71.268,3.462.265,5.2.384" transform="translate(-205.982 -11.111)" fill="#6f7e83"/>
      <path id="Path_1748" data-name="Path 1748" d="M34.61,34.895c-3.169,1.869-5.962,3.7-8.939,5.156a4.346,4.346,0,0,1-3.4-.414C15.521,35.913,8.849,32.048,2.153,28.227a4.713,4.713,0,0,1-.626-.4c-2.421-1.946-1.7-14.161,1.011-15.731C9.423,8.1,16.325,4.132,23.315.329A4.373,4.373,0,0,1,26.9.453c6.761,3.708,13.367,7.7,20.147,11.373A4.117,4.117,0,0,1,49.5,16.252c-.138,2.691-.034,5.394-.034,8.842-6.418-3.641-12.44-6.586-17.926-10.321-4.354-2.965-7.885-2.991-12.016.125-2.817,2.126-6.1,3.638-9.689,5.728L34.61,34.895" transform="translate(-0.025 0)" fill="#6f7e83"/>
      <path id="Path_1749" data-name="Path 1749" d="M39.953,48.761,15.106,34.55C18.6,32.5,21.6,30.627,24.727,29a3.411,3.411,0,0,1,2.645.441C34.1,33.217,40.828,37.006,47.427,41a4.922,4.922,0,0,1,1.936,3.483c.51,10.687.451,10.688-8.894,15.971-4.225,2.389-8.574,4.592-12.62,7.254-2.273,1.5-3.894,1.245-6.048-.054-5.862-3.534-11.785-6.983-17.828-10.192C1.086,55.931-.393,54.105.09,50.722a51.623,51.623,0,0,0,.05-6.638C2.6,45.438,4.6,46.517,6.577,47.634c3.681,2.079,7.7,3.748,10.941,6.375,4.93,4,9.166,3.348,13.839-.189,2.453-1.856,5.322-3.162,8.6-5.06" transform="translate(0 -13.494)" fill="#6f7e83"/>
      <path id="Path_1750" data-name="Path 1750" d="M301.424,55.686c0-5.976.033-11.442-.015-16.908-.022-2.436,1.578-2.427,3.285-2.423,6.107.013,12.217.1,18.32-.064,1.186-.032,2.346-1.075,3.517-1.651-1.244-.719-2.472-2.022-3.736-2.059-6.95-.2-13.909-.1-20.654-.1-.339-.551-.562-.749-.58-.966-.587-6.679-.584-6.7,5.952-6.678,5.979.02,11.974-.173,17.932.208,8.141.519,11.8,6.386,9.169,13.977a4.544,4.544,0,0,0,0,2.748c2.509,7.4-1.118,13.388-9.054,13.821-7.819.427-15.679.093-24.134.093m15.993-7.948v-.018c2.358,0,4.724.105,7.07-.068.659-.048,1.257-.916,1.883-1.408-.662-.581-1.307-1.64-1.988-1.665-4.34-.157-8.691-.153-13.031-.014-.641.021-1.251,1.034-1.875,1.587.661.528,1.281,1.437,1.99,1.512a56.118,56.118,0,0,0,5.952.073" transform="translate(-140.867 -11.598)" fill="#6f7e83"/>
      <path id="Path_1751" data-name="Path 1751" d="M101.447,55.755V48.341c4.081,0,8.134,0,12.187,0,2.745,0,5.49.052,8.234,0,1.653-.031,4.064.462,3.748-2.135-.106-.874-2.535-1.955-3.976-2.079-3.717-.319-7.481-.042-11.217-.213-6.341-.291-9.482-3.808-9.265-10.136.154-4.474,2.95-8.272,7.311-8.569,6.833-.465,13.71-.276,20.569-.334,1.336-.011,2.672.113,3.994.175a8.3,8.3,0,0,1,.353,1.316c.382,5.92.378,5.928-5.59,5.946-5.24.017-10.483-.085-15.716.1-1.092.039-2.147,1.117-3.219,1.716,1.05.749,2.059,2.061,3.159,2.143,3.722.277,7.481.015,11.219.149,6.968.248,10.509,3.917,10.3,10.484-.175,5.517-4.18,8.834-10.712,8.844-6.975.01-13.949,0-21.38,0" transform="translate(-47.286 -11.629)" fill="#6f7e83"/>
      <path id="Path_1752" data-name="Path 1752" d="M386.368,24.587c7.206.085,15.3,2.391,17.957,9.279a17.379,17.379,0,0,1,.151,11.307A14.88,14.88,0,0,1,390.5,55.617q-4.673.037-9.347-.006a15.328,15.328,0,0,1-14.979-15.455c0-9,7.011-14.229,15.368-15.3a35.044,35.044,0,0,1,4.824-.273M385.747,47.9l.006-.156a43.12,43.12,0,0,0,4.469-.024c4.438-.466,6.98-3.042,7.17-7.1.188-4-2.1-7.379-6.345-7.87a40.153,40.153,0,0,0-11.776.458c-3.52.654-5.367,4.092-5.1,7.669a7.071,7.071,0,0,0,6.384,6.653c1.713.255,3.463.257,5.2.374" transform="translate(-171.186 -11.493)" fill="#6f7e83"/>
      <path id="Path_1753" data-name="Path 1753" d="M196.292,25.189,179.029,40.244l17.4,14.491c-10.374,3.637-16.259-3.417-23.266-9.84V55.1h-8.283V42.181c0-4.488.246-8.995-.08-13.459-.266-3.641,1.209-4.673,4.477-4.236.977.131,1.976.1,3.485.171V35.33c7.409-6.062,12.99-14.132,23.528-10.142" transform="translate(-77.03 -11.278)" fill="#6f7e83"/>
      <path id="Path_1754" data-name="Path 1754" d="M247.66,37.187a88.118,88.118,0,0,0,5.379-7.588c2.2-3.9,5.142-5.839,9.692-5.007a26.419,26.419,0,0,0,3.837.025c-1.524,2.184-2.658,3.848-3.833,5.484-1.6,2.225-3.112,4.525-4.864,6.623-4.4,5.266-8.472,10.6-6.073,18.458h-7.72a7.467,7.467,0,0,1-.352-2.358c.968-5.687-1.52-10.006-5.025-14.158-3.593-4.256-6.827-8.816-10.291-13.339,6.921-1.94,9.352-1.151,13.181,3.984,1.857,2.491,3.79,4.924,6.069,7.875" transform="translate(-106.781 -11.386)" fill="#6f7e83"/>
    </g>
  </g>
</svg>
