<svg id="Group_52781" data-name="Group 52781" xmlns="http://www.w3.org/2000/svg" width="259.802" height="39.566" viewBox="0 0 259.802 39.566">
  <path id="Path_37938" data-name="Path 37938" d="M1065.176,201.936a4.9,4.9,0,0,1,1.922,1.754,4.706,4.706,0,0,1-.015,4.969,5.058,5.058,0,0,1-1.95,1.783,6.017,6.017,0,0,1-5.449,0,5.029,5.029,0,0,1-1.936-1.775,4.657,4.657,0,0,1,0-4.94,5.035,5.035,0,0,1,1.949-1.782,6.142,6.142,0,0,1,5.48-.013m-.328,8.056a4.288,4.288,0,0,0,1.906-5.758c-.048-.095-.1-.188-.153-.279a4.416,4.416,0,0,0-1.714-1.563,5.486,5.486,0,0,0-4.908,0,4.45,4.45,0,0,0-1.738,1.589,4.184,4.184,0,0,0,0,4.427,4.461,4.461,0,0,0,1.73,1.59,5.363,5.363,0,0,0,4.88,0m-.07-3.65a2.037,2.037,0,0,1-1.014.658l1.433,2h-.823l-1.33-1.874c-.116.009-.234.015-.35.013h-1.59V209h-.793v-5.607h2.378a2.877,2.877,0,0,1,1.783.5,1.627,1.627,0,0,1,.657,1.36,1.7,1.7,0,0,1-.36,1.089m-.868-.148a1.105,1.105,0,0,0,.444-.943,1.078,1.078,0,0,0-.444-.924,2.115,2.115,0,0,0-1.258-.326h-1.556v2.53h1.556a2.085,2.085,0,0,0,1.258-.334" transform="translate(-807.997 -201.291)" fill="#ed1c24"/>
  <path id="Path_37939" data-name="Path 37939" d="M820.883,202.163h-13.77l-13.832,28.8v-28.8h-14.01v13.4H766.333v-13.4H752.324v28.8l-13.831-28.8h-13.77L713.312,225.92a7.953,7.953,0,0,0-2.208-4.3,14.125,14.125,0,0,0-5.67-3.434,58.663,58.663,0,0,0-8.013-1.863,36.86,36.86,0,0,1-5.282-1.216q-1.6-.568-1.6-1.7,0-2.377,5.4-2.378a27.752,27.752,0,0,1,11.574,2.81l4.213-9.241a28.009,28.009,0,0,0-7.271-2.458,42.171,42.171,0,0,0-8.4-.837,29.662,29.662,0,0,0-10.6,1.675,14.43,14.43,0,0,0-6.558,4.6,10.523,10.523,0,0,0-2.2,6.484,8.846,8.846,0,0,0,2.374,6.506,13.757,13.757,0,0,0,5.579,3.459,65.52,65.52,0,0,0,8.012,1.971,37.969,37.969,0,0,1,5.372,1.3q1.626.592,1.627,1.784a1.674,1.674,0,0,1-1.247,1.544,11.943,11.943,0,0,1-4.156.513,28.327,28.327,0,0,1-7.062-.947,30.3,30.3,0,0,1-6.655-2.514l-1.751,3.607-13.978-29.118h-13.77L637.2,231.016l-.092-28.859H625.59l-13.177,20.155-13.519-20.149H587.379v37.819h12.762V223.338l9.02,13.239h6.177l9.02-13.833.118,17.238H647.15l2.789-6.592h15.795l2.789,6.592h14.483l-.24-.5c.435.108.887.212,1.338.311a47.724,47.724,0,0,0,10.055,1.053,29.235,29.235,0,0,0,10.6-1.7,19.349,19.349,0,0,0,2.883-1.393l-1.071,2.233h14.244l2.789-6.593h15.79l2.791,6.593h24.166V226.041h12.94v13.94h23.919L806,233.39h15.789l2.795,6.592h14.483ZM653.8,224.2l4.037-9.51,4.037,9.51Zm73.659,0,4.037-9.51,4.037,9.51Zm82.384,0,4.037-9.51,4.036,9.51Z" transform="translate(-587.379 -201.288)" fill="#ed1c24"/>
</svg>
