<svg xmlns="http://www.w3.org/2000/svg" xmlns:xlink="http://www.w3.org/1999/xlink" width="82.437" height="82.387" viewBox="0 0 82.437 82.387">
  <defs>
    <clipPath id="clip-path">
      <rect id="Rectangle_33" data-name="Rectangle 33" width="61.686" height="61.578" rx="3" fill="#455157"/>
    </clipPath>
  </defs>
  <g id="Group_103" data-name="Group 103" transform="matrix(-0.899, 0.438, -0.438, -0.899, 82.437, 55.346)">
    <g id="Group_102" data-name="Group 102" transform="translate(0 0)" clip-path="url(#clip-path)">
      <path id="Path_1730" data-name="Path 1730" d="M58.443,26.224a31.55,31.55,0,0,0-5.489-1.846c-3.555-.7-7.625,1.424-10.693-1.994-.093-.1-.351-.077-.531-.077-5.911-.005-11.821,0-18.011,0,.827,13.141,1.649,26.184,2.476,39.27H9.657c.148-.882.3-1.769.444-2.651,1.539-9.356,2.964-18.729,4.656-28.052.433-2.361.159-4.015-1.83-5.407a34.358,34.358,0,0,1-3.15-2.925C9.159,28.7,8.567,34.134,8.118,39.579a4.454,4.454,0,0,0,.838,2.531,7.7,7.7,0,0,1,.926,5.659c-.614,4.6-1.167,9.2-1.7,13.81H0c.663-5.664,1.222-11.3.17-17.014,1.945-.1,5.872-2.755,6.037-4.278.679-6.415,1.254-12.84,1.862-19.26-.29.11-.581.214-.876.323-.789-1.26-2.065-2.449-2.251-3.8-.246-1.78,1.567-2.125,2.985-2.892a41.762,41.762,0,0,0,9.449-6.431A6.3,6.3,0,0,1,22.525,6.1c1.556.044,3.128.422,4.41-1.3,4.393-5.927,14.029-6.869,19.03-.005Q53.425,15.063,60.8,25.391a10.255,10.255,0,0,1,.882,2,9.841,9.841,0,0,1-3.243-1.167M18.143,13.11l-6.869,4.711c1.5,1.649,2.832,3.106,4.76,5.226,1.134-3.517,2.071-6.431,3.007-9.34-.3-.2-.6-.4-.9-.6" transform="translate(0 0)" fill="#455157"/>
    </g>
  </g>
</svg>
