<svg xmlns="http://www.w3.org/2000/svg" width="33.576" height="29.314" viewBox="0 0 33.576 29.314">
  <g id="Group_55484" data-name="Group 55484" opacity="0.4">
    <g id="Group_54703" data-name="Group 54703" transform="translate(0)">
      <path id="Path_41252" data-name="Path 41252" d="M-14.55-285.135l17.359.029a19.139,19.139,0,0,1-.38,12.97s-10.723-12.806-22.477-3.106Z" transform="translate(22.604 285.135)" fill="#191f21" fill-rule="evenodd"/>
      <path id="Path_41253" data-name="Path 41253" d="M15.844-268.975,7.3-253.866a19.137,19.137,0,0,1-11.113-6.7s16.42-3.057,13.738-18.059Z" transform="translate(17.731 283.18)" fill="#191f21" fill-rule="evenodd"/>
      <path id="Path_41254" data-name="Path 41254" d="M-15.158-252.794-23.7-267.905a19.14,19.14,0,0,1,11.466-6.072S-18.078-258.33-3.841-252.9Z" transform="translate(23.701 281.786)" fill="#191f21" fill-rule="evenodd"/>
    </g>
    <path id="Path_41255" data-name="Path 41255" d="M-5-273.791a24.6,24.6,0,0,1,11.412,6.68" transform="translate(18.087 281.729)" fill="#191f21" fill-rule="evenodd"/>
    <path id="Path_41256" data-name="Path 41256" d="M6.372-264.121a24.6,24.6,0,0,1-11.513,6.506" transform="translate(18.129 278.827)" fill="#191f21" fill-rule="evenodd"/>
    <path id="Path_41257" data-name="Path 41257" d="M-5.648-273.791a24.6,24.6,0,0,0,0,13.224" transform="translate(18.549 281.729)" fill="#191f21" fill-rule="evenodd"/>
  </g>
</svg>
