<svg xmlns="http://www.w3.org/2000/svg" width="57.054" height="49.812" viewBox="0 0 57.054 49.812">
  <g id="Group_55490" data-name="Group 55490" opacity="0.293">
    <g id="Group_55489" data-name="Group 55489">
      <path id="Path_44314" data-name="Path 44314" d="M-10.706-285.135l29.5.049a32.522,32.522,0,0,1-.646,22.039s-18.222-21.761-38.194-5.277Z" transform="translate(24.392 285.135)" fill="#fff" fill-rule="evenodd"/>
      <path id="Path_44315" data-name="Path 44315" d="M29.591-262.23,15.07-236.555A32.519,32.519,0,0,1-3.814-247.933s27.9-5.2,23.345-30.688Z" transform="translate(27.463 286.367)" fill="#fff" fill-rule="evenodd"/>
      <path id="Path_44316" data-name="Path 44316" d="M-9.184-237.982-23.7-263.66A32.525,32.525,0,0,1-4.216-273.977s-9.93,26.589,14.263,35.823Z" transform="translate(23.701 287.246)" fill="#fff" fill-rule="evenodd"/>
    </g>
    <path id="Path_44317" data-name="Path 44317" d="M-5-273.791a41.8,41.8,0,0,1,19.392,11.352" transform="translate(27.237 287.28)" fill="#fff" fill-rule="evenodd"/>
    <path id="Path_44318" data-name="Path 44318" d="M14.422-264.121A41.806,41.806,0,0,1-5.141-253.065" transform="translate(27.211 289.11)" fill="#fff" fill-rule="evenodd"/>
    <path id="Path_44319" data-name="Path 44319" d="M-5.024-273.791a41.8,41.8,0,0,0,0,22.471" transform="translate(26.948 287.28)" fill="#fff" fill-rule="evenodd"/>
  </g>
</svg>
