<svg xmlns="http://www.w3.org/2000/svg" width="258.522" height="255.443" viewBox="0 0 258.522 255.443">
  <g id="Group_54744" data-name="Group 54744" transform="translate(0.291 0.25)">
    <g id="Group_54744-2" data-name="Group 54744" transform="translate(0 0)">
      <path id="Path_43862" data-name="Path 43862" d="M386.992,482.278l133.356.25s18.291,54.007-2.915,112.782c0,0-82.385-111.36-172.681-27.009Z" transform="translate(-325.112 -482.278)" fill="none" stroke="#bac2c4" stroke-miterlimit="10" stroke-width="0.5" fill-rule="evenodd"/>
      <path id="Path_43863" data-name="Path 43863" d="M535.276,582.008,469.624,713.4s-50.547-8.467-85.378-58.23c0,0,126.149-26.586,105.547-157.043Z" transform="translate(-277.328 -458.483)" fill="none" stroke="#bac2c4" stroke-miterlimit="10" stroke-width="0.5" fill-rule="evenodd"/>
      <path id="Path_43864" data-name="Path 43864" d="M401.5,693.622l-65.63-131.4s32.461-44.669,88.089-52.8c0,0-44.9,136.065,64.487,183.32Z" transform="translate(-335.865 -441.52)" fill="none" stroke="#bac2c4" stroke-miterlimit="10" stroke-width="0.5" fill-rule="evenodd"/>
    </g>
    <path id="Path_43865" data-name="Path 43865" d="M381.358,509.875s47.206,11.042,87.671,58.1" transform="translate(-280.822 -440.842)" fill="none" stroke="#bac2c4" stroke-miterlimit="10" stroke-width="0.5" fill-rule="evenodd"/>
    <path id="Path_43866" data-name="Path 43866" d="M469.461,533.4s-32.162,40.645-88.442,56.579" transform="translate(-281.232 -405.52)" fill="none" stroke="#bac2c4" stroke-miterlimit="10" stroke-width="0.5" fill-rule="evenodd"/>
    <path id="Path_43867" data-name="Path 43867" d="M384.465,509.876s-15.424,51.7.019,115" transform="translate(-285.349 -440.84)" fill="none" stroke="#bac2c4" stroke-miterlimit="10" stroke-width="0.5" fill-rule="evenodd"/>
  </g>
</svg>
