<svg xmlns="http://www.w3.org/2000/svg" xmlns:xlink="http://www.w3.org/1999/xlink" width="39" height="48" viewBox="0 0 39 48">
  <defs>
    <clipPath id="clip-path">
      <rect id="Rectangle_52303" data-name="Rectangle 52303" width="39" height="48" transform="translate(-2 -1.944)" fill="#132944"/>
    </clipPath>
  </defs>
  <g id="Group_54259" data-name="Group 54259" transform="translate(1.534 1.55)">
    <g id="Group_54258" data-name="Group 54258" transform="translate(0.466 0.394)" clip-path="url(#clip-path)">
      <path id="Path_41146" data-name="Path 41146" d="M0,40.368V5.079a.517.517,0,0,0,.081-.146A5.62,5.62,0,0,1,2.474,1.091,16.334,16.334,0,0,1,4.723,0h19.6c.152.154.308.305.457.462q5.323,5.58,10.64,11.165a9.85,9.85,0,0,1,.755,1.027V40.011a3.135,3.135,0,0,0-.089.339,5.7,5.7,0,0,1-2.838,4.284,15.2,15.2,0,0,1-2.331.9H5.258a1.029,1.029,0,0,0-.2-.08A5.744,5.744,0,0,1,.828,42.534,14.722,14.722,0,0,1,0,40.368M22.7,2.13h-.553q-7.931,0-15.862,0A3.812,3.812,0,0,0,2.218,6.193q0,16.53,0,33.06a3.811,3.811,0,0,0,4.065,4.065q11.785,0,23.57,0a3.839,3.839,0,0,0,4.092-4.1q0-12.409,0-24.817v-.5H33.4c-2.035,0-4.07.015-6.1-.011a4.736,4.736,0,0,1-4.559-4.445c-.059-2.241-.026-4.485-.033-6.727,0-.175,0-.351,0-.591m9.707,9.556L24.953,3.863c-.016.178-.026.237-.026.3,0,1.632-.02,3.265.007,4.9a2.562,2.562,0,0,0,2.7,2.629c1.321.011,2.641,0,3.962,0h.813" transform="translate(-0.433 -0.48)" fill="#132944"/>
      <path id="Path_41147" data-name="Path 41147" d="M126.579,173.211v1.555q0,4.988,0,9.976a2.216,2.216,0,0,1-.088.742,1.1,1.1,0,0,1-1.087.694,1.135,1.135,0,0,1-.995-.884,2.908,2.908,0,0,1-.049-.618q0-5.5,0-11v-.594c-.188.2-.3.308-.4.422l-3.941,4.24a1.222,1.222,0,0,1-1.295.474,1.091,1.091,0,0,1-.633-1.637,2.728,2.728,0,0,1,.311-.377q3.049-3.276,6.1-6.549a1.144,1.144,0,0,1,1.934,0q3.12,3.332,6.225,6.678a1.132,1.132,0,0,1,0,1.661,1.087,1.087,0,0,1-1.618-.159q-2.026-2.16-4.035-4.336a3.258,3.258,0,0,1-.273-.4l-.148.111" transform="translate(-107.838 -154.53)" fill="#cba560"/>
      <path id="Path_41148" data-name="Path 41148" d="M98.936,400.941q4.477,0,8.954,0a1.116,1.116,0,0,1,1.1.686,1,1,0,0,1-.177,1.12,1.254,1.254,0,0,1-1.033.418c-1.693-.006-3.386,0-5.079,0H90.225a3.843,3.843,0,0,1-.489-.012,1.135,1.135,0,0,1-1.006-1.162,1.094,1.094,0,0,1,1.117-1.039c2.213-.008,4.425,0,6.638,0h2.45" transform="translate(-81.255 -365.69)" fill="#132944"/>
    </g>
  </g>
</svg>
