<svg id="Group_56802" data-name="Group 56802" xmlns="http://www.w3.org/2000/svg" width="14.606" height="12.753" viewBox="0 0 14.606 12.753">
  <g id="Group_54703" data-name="Group 54703">
    <path id="Path_41252" data-name="Path 41252" d="M-17.656-285.135l7.552.012a8.326,8.326,0,0,1-.165,5.642s-4.665-5.571-9.778-1.351Z" transform="translate(21.16 285.135)" fill="#ed1c24" fill-rule="evenodd"/>
    <path id="Path_41253" data-name="Path 41253" d="M4.738-274.425,1.02-267.852a8.325,8.325,0,0,1-4.834-2.913s7.143-1.33,5.976-7.856Z" transform="translate(9.868 280.604)" fill="#ed1c24" fill-rule="evenodd"/>
    <path id="Path_41254" data-name="Path 41254" d="M-19.984-264.762l-3.717-6.574a8.327,8.327,0,0,1,4.988-2.641s-2.542,6.807,3.651,9.171Z" transform="translate(23.701 277.374)" fill="#ed1c24" fill-rule="evenodd"/>
  </g>
  <path id="Path_41255" data-name="Path 41255" d="M-5-273.791a10.7,10.7,0,0,1,4.964,2.906" transform="translate(10.693 277.245)" fill="#ed1c24" fill-rule="evenodd"/>
  <path id="Path_41256" data-name="Path 41256" d="M-.133-264.121a10.7,10.7,0,0,1-5.008,2.83" transform="translate(10.791 270.518)" fill="#ed1c24" fill-rule="evenodd"/>
  <path id="Path_41257" data-name="Path 41257" d="M-6.151-273.791a10.7,10.7,0,0,0,0,5.753" transform="translate(11.764 277.245)" fill="#ed1c24" fill-rule="evenodd"/>
</svg>
