<svg id="Masaha-Product-Deatils-icons" xmlns="http://www.w3.org/2000/svg" xmlns:xlink="http://www.w3.org/1999/xlink" width="48" height="77.302" viewBox="0 0 48 77.302">
  <defs>
    <clipPath id="clip-path">
      <rect id="Rectangle_40" data-name="Rectangle 40" width="48" height="77.303" fill="#455157"/>
    </clipPath>
  </defs>
  <g id="Group_117" data-name="Group 117" clip-path="url(#clip-path)">
    <path id="Path_1731" data-name="Path 1731" d="M1.681,77.3A2.9,2.9,0,0,1,0,74.261C.06,69.782.038,65.3.013,60.824a3.162,3.162,0,0,1,.913-2.3Q9.109,49.7,17.265,40.855c.22-.238.436-.481.631-.7-.556-.64-1.118-1.215-1.6-1.854a2.259,2.259,0,0,1,.319-3.34,2.325,2.325,0,0,1,3.3.642,4.95,4.95,0,0,0,5.738,1.846,5,5,0,0,0,3.287-5.278,5.165,5.165,0,0,0-4.635-4.533c-1.853-.13-2.574-.91-2.574-2.791,0-2.663,0-5.327,0-8.089-1.142,0-2.237,0-3.333,0-1.767,0-2.546-.727-2.723-2.506q-.569-5.705-1.148-11.409A2.323,2.323,0,0,1,17.081,0q6.937,0,13.873,0A2.306,2.306,0,0,1,33.47,2.8Q32.885,8.7,32.293,14.589a2.264,2.264,0,0,1-2.353,2.167c-1.2.019-2.4,0-3.639,0v6.58a9.6,9.6,0,0,1,6.92,7.228c.883,3.77-.321,6.927-3.154,9.557l5.587,6.045c3.737,4.045,7.46,8.1,11.224,12.124A3.9,3.9,0,0,1,48,61.2c-.048,4.352-.057,8.706,0,13.059A2.894,2.894,0,0,1,46.319,77.3Zm5.833-19.23H40.4a.967.967,0,0,0-.091-.182Q33.173,50.163,26.021,42.45a1.323,1.323,0,0,0-.848-.251c-.749-.028-1.508.069-2.249-.012a1.132,1.132,0,0,0-1.105.395q-4.227,4.616-8.487,9.2c-1.909,2.066-3.82,4.131-5.818,6.291" transform="translate(0 -0.001)" fill="#455157"/>
  </g>
</svg>
