<svg id="Masaha-Product-Deatils-icons" xmlns="http://www.w3.org/2000/svg" width="48" height="56.41" viewBox="0 0 48 56.41">
  <g id="Group_119" data-name="Group 119">
    <path id="Path_1732" data-name="Path 1732" d="M6.391,0a4.963,4.963,0,0,1,2.944,1.67A4.423,4.423,0,0,1,7.761,8.453a.667.667,0,0,0-.489.718q.035,2.89,0,5.78a.613.613,0,0,0,.5.7A5.847,5.847,0,1,1,.106,22.19,3.4,3.4,0,0,0,0,21.825v-.992c.095-.154.182-.313.286-.46a1.332,1.332,0,0,1,2.26.006,2.34,2.34,0,0,1,.308,1.029,3.031,3.031,0,1,0,6.01-.75,2.923,2.923,0,0,0-2.64-2.481c-1.464-.12-1.79-.9-1.773-2,.037-2.311,0-4.623.02-6.934a.751.751,0,0,0-.518-.818A4.406,4.406,0,0,1,2.414,1.678,5.08,5.08,0,0,1,5.289,0Zm1.7,4.473A2.234,2.234,0,0,0,5.867,2.228a2.264,2.264,0,0,0-2.218,2.21A2.251,2.251,0,0,0,5.885,6.681,2.226,2.226,0,0,0,8.092,4.474" transform="translate(0 -0.001)" fill="#455157"/>
    <path id="Path_1733" data-name="Path 1733" d="M281.546,308.187H262.54c.524-2.6,1.039-5.166,1.56-7.733.87-4.293,1.75-8.585,2.613-12.88a5.387,5.387,0,0,1,7.794-3.944,5.167,5.167,0,0,1,2.861,3.823q2.1,10.263,4.159,20.535c.01.053.01.108.019.2m-9.561-16.818a3.189,3.189,0,0,0,3.269-3.148,3.2,3.2,0,1,0-6.4-.081,3.2,3.2,0,0,0,3.134,3.229" transform="translate(-233.546 -251.777)" fill="#455157"/>
    <path id="Path_1734" data-name="Path 1734" d="M115.735,72.792a8.692,8.692,0,0,0-6.106,1.435,8.248,8.248,0,0,0-3.442,5.3L85.2,54.049a6.576,6.576,0,0,0,2.714-4.194l27.827,22.937" transform="translate(-75.786 -44.349)" fill="#455157"/>
  </g>
</svg>
