<svg xmlns="http://www.w3.org/2000/svg" width="120.538" height="120.546" viewBox="0 0 120.538 120.546">
  <g id="Group_54693" data-name="Group 54693" transform="translate(-1454.074 -599.227)">
    <g id="Group_54263" data-name="Group 54263" transform="translate(1454.074 599.227)">
      <g id="Group_234" data-name="Group 234" transform="translate(0 0)">
        <path id="Path_472" data-name="Path 472" d="M208.268,112.845h-.032a60.246,60.246,0,0,0-50.842,92.581,7.562,7.562,0,0,1,.9,6.486l-6.347,18.926,19.944-6.378a7.524,7.524,0,0,1,6.087.759,59.776,59.776,0,0,0,30.291,8.173c39.628-.006,70.438-38.458,57.093-80.027C257.5,128.888,233.97,112.845,208.268,112.845Z" transform="translate(-147.982 -112.845)" fill="#ed1c24"/>
      </g>
    </g>
    <g id="Group_54264" data-name="Group 54264" transform="translate(1482.053 612.953)">
      <path id="Path_474" data-name="Path 474" d="M212.505,186.145c-1.5-1.569-8.815-9.162-10.286-10.356a3.694,3.694,0,0,0-4.949-.25,82.581,82.581,0,0,1-7.184,4.692,4.183,4.183,0,0,1-4.644-.881,48.9,48.9,0,0,1-11.362-14.257,58.863,58.863,0,0,1-5.587-16.193c-.4-2.207.93-2.929,2.131-3.616,1.319-.805,2.485-1.3,3.783-2.027a11.6,11.6,0,0,0,3.047-2.131,3.953,3.953,0,0,0,.951-3.463c-.111-1.076-.555-11.328-.757-15.492-.167-3.325-1.041-3.762-2.846-4.491-.611-.264-1.291-.548-2.061-.826a9.578,9.578,0,0,0-7.163-.056,21.07,21.07,0,0,0-11.82,12.862c-3.214,8.933.187,19.92.639,21.448.479,1.534,5.574,24.37,21.149,38.536,12.174,11.078,16.624,12.056,20.129,12.528,5.122.687,12.355-.687,15.388-4.387s4.331-7.337,4.165-8.26S214,187.727,212.505,186.145Z" transform="translate(-151.523 -115.254)" fill="#fff"/>
      <path id="Path_475" data-name="Path 475" d="M199.122,203.961a21.718,21.718,0,0,1-2.825-.18c-4.088-.562-8.732-1.957-20.594-12.744-9.426-8.579-16.964-22.176-21.232-38.286-.076-.312-.132-.527-.166-.639-1.465-5-3.415-14.243-.625-22a21.925,21.925,0,0,1,12.056-13.257l.208-.1a10.308,10.308,0,0,1,7.836.021c.673.243,1.277.5,1.832.736l.264.1c2.165.874,3.2,1.687,3.38,5.254l.229,5.018c.2,4.317.451,9.7.521,10.425a4.737,4.737,0,0,1-1.228,4.185,11.17,11.17,0,0,1-2.887,2.075l-.319.18c-.562.319-1.1.59-1.645.868-.68.347-1.374.694-2.11,1.145-1.354.77-2.006,1.215-1.735,2.721a58.088,58.088,0,0,0,5.5,15.929,47.782,47.782,0,0,0,10.689,13.583l.5.451a3.4,3.4,0,0,0,3.665.75,62.447,62.447,0,0,0,5.8-3.741l1.3-.888a4.5,4.5,0,0,1,6,.3c1.694,1.36,10.266,10.335,10.356,10.425l.847.875c1.11,1.125,1.909,1.937,2.1,2.936.264,1.437-1.423,5.379-4.352,8.968C209.721,202.427,204.057,203.961,199.122,203.961ZM169.54,117.74a6.532,6.532,0,0,0-2.846.583l-.208.1A20.023,20.023,0,0,0,155.311,130.7c-2.624,7.3-.75,16.124.6,20.74.09.271.153.521.25.861,4.172,15.8,11.529,29.1,20.712,37.446,12.452,11.328,16.617,11.9,19.657,12.313,5.011.666,11.82-.68,14.6-4.074,2.95-3.623,4.06-6.927,3.984-7.566a6.263,6.263,0,0,0-1.624-2.02l-.874-.9c-2.159-2.27-8.878-9.211-10.2-10.286a2.829,2.829,0,0,0-3.908-.208l-1.291.889a62.225,62.225,0,0,1-6,3.866,5,5,0,0,1-5.622-1.027l-.486-.43a49.372,49.372,0,0,1-11.05-14.049,59.76,59.76,0,0,1-5.692-16.436c-.5-2.79,1.3-3.825,2.5-4.5.819-.5,1.541-.868,2.27-1.236.52-.264,1.034-.52,1.576-.826l.326-.187a9.65,9.65,0,0,0,2.534-1.8,3.021,3.021,0,0,0,.708-2.77c-.083-.77-.319-5.948-.528-10.522l-.236-5.011c-.139-2.853-.687-3.075-2.3-3.727l-.278-.118c-.535-.222-1.111-.465-1.756-.7A10.819,10.819,0,0,0,169.54,117.74Z" transform="translate(-152.265 -116.001)" fill="#fff"/>
    </g>
  </g>
</svg>
