<svg xmlns="http://www.w3.org/2000/svg" width="35.514" height="31.006" viewBox="0 0 35.514 31.006">
  <g id="Group_56743" data-name="Group 56743" transform="translate(0)">
    <g id="Group_54703" data-name="Group 54703">
      <path id="Path_41252" data-name="Path 41252" d="M-14.233-285.135l18.361.03a20.244,20.244,0,0,1-.4,13.718s-11.342-13.545-23.774-3.285Z" transform="translate(22.752 285.135)" fill="#191f21" fill-rule="evenodd"/>
      <path id="Path_41253" data-name="Path 41253" d="M16.979-268.419,7.941-252.437a20.241,20.241,0,0,1-11.755-7.082s17.368-3.234,14.531-19.1Z" transform="translate(18.535 283.443)" fill="#191f21" fill-rule="evenodd"/>
      <path id="Path_41254" data-name="Path 41254" d="M-14.665-251.572-23.7-267.555a20.245,20.245,0,0,1,12.128-6.422s-6.181,16.55,8.878,22.3Z" transform="translate(23.701 282.236)" fill="#191f21" fill-rule="evenodd"/>
    </g>
    <path id="Path_41255" data-name="Path 41255" d="M-5-273.791A26.021,26.021,0,0,1,7.07-266.725" transform="translate(18.844 282.188)" fill="#191f21" fill-rule="evenodd"/>
    <path id="Path_41256" data-name="Path 41256" d="M7.036-264.121a26.023,26.023,0,0,1-12.177,6.882" transform="translate(18.881 279.676)" fill="#191f21" fill-rule="evenodd"/>
    <path id="Path_41257" data-name="Path 41257" d="M-5.6-273.791a26.021,26.021,0,0,0,0,13.987" transform="translate(19.244 282.188)" fill="#191f21" fill-rule="evenodd"/>
  </g>
</svg>
