<svg id="Group_56801" data-name="Group 56801" xmlns="http://www.w3.org/2000/svg" width="364.146" height="317.924" viewBox="0 0 364.146 317.924">
  <g id="Group_54694" data-name="Group 54694">
    <path id="Path_41226" data-name="Path 41226" d="M39.578-285.135l188.267.311s25.821,67.36-4.121,140.663c0,0-116.3-138.886-243.771-33.684Z" transform="translate(47.774 285.135)" fill="#ed1c24" fill-rule="evenodd"/>
    <path id="Path_41227" data-name="Path 41227" d="M209.393-174.01,116.713-10.138S45.361-20.7-3.814-82.757c0,0,178.089-33.16,149-195.864Z" transform="translate(154.754 328.061)" fill="#ed1c24" fill-rule="evenodd"/>
    <path id="Path_41228" data-name="Path 41228" d="M68.956-44.24-23.7-208.127s45.835-55.7,124.36-65.85c0,0-63.375,169.7,91.033,228.637Z" transform="translate(23.701 358.665)" fill="#ed1c24" fill-rule="evenodd"/>
  </g>
  <path id="Path_41229" data-name="Path 41229" d="M-5-273.791s66.639,13.768,123.768,72.453" transform="translate(146.932 359.89)" fill="#ed1c24" fill-rule="evenodd"/>
  <path id="Path_41230" data-name="Path 41230" d="M119.72-264.121S74.31-213.436-5.141-193.558" transform="translate(146.009 423.613)" fill="#ed1c24" fill-rule="evenodd"/>
  <path id="Path_41231" data-name="Path 41231" d="M3.132-273.791s-21.775,64.476.023,143.417" transform="translate(136.795 359.89)" fill="#ed1c24" fill-rule="evenodd"/>
</svg>
