<svg id="Group_101" data-name="Group 101" xmlns="http://www.w3.org/2000/svg" xmlns:xlink="http://www.w3.org/1999/xlink" width="64.311" height="46.372" viewBox="0 0 64.311 46.372">
  <defs>
    <clipPath id="clip-path">
      <rect id="Rectangle_32" data-name="Rectangle 32" width="64.311" height="46.372" fill="#455157"/>
    </clipPath>
  </defs>
  <g id="Group_100" data-name="Group 100" clip-path="url(#clip-path)">
    <path id="Path_1729" data-name="Path 1729" d="M64.311,34.3c-.42,2.61-1.942,4.722-3.154,6.973a3.751,3.751,0,0,1-3.482,2.061q-1.067.013-2.135,0a2.053,2.053,0,0,1-2.176-2.157c-.012-.879,0-1.758,0-2.637-.01-1.006-.527-1.606-1.366-1.607s-1.362.6-1.368,1.6c-.007,1.235.008,2.47-.005,3.7a4.091,4.091,0,0,1-4.164,4.121c-5.9.007-11.8.049-17.7-.019a8.973,8.973,0,0,1-6.711-3.2c-.448-.5-.828-1.053-1.265-1.56a9.4,9.4,0,0,0-7.137-3.388,13.688,13.688,0,0,1-2.124-.107,3.912,3.912,0,0,1-3.242-3.656c-.085-1.607-.035-3.222-.044-4.833,0-.246,0-.492,0-.775H5.505v.719q0,4.929,0,9.859a5.54,5.54,0,0,1-.015.627c-.113.986-.724,1.3-1.58.793a4.12,4.12,0,0,1-2.161-3.657c-.027-1.883-.011-3.768,0-5.651a5.953,5.953,0,0,1,.614-2.716,5.638,5.638,0,0,0-1.149-6.2,4.135,4.135,0,0,1-1.19-2.953c-.028-1.548-.034-3.1,0-4.646a3.869,3.869,0,0,1,1.7-3.2c.664-.471,1.364-.894,2.068-1.3.95-.553,1.632-.168,1.71.938.013.188.006.377.006.565q0,4.584,0,9.168v.8c.849,0,1.62.024,2.386-.024.123-.008.32-.331.323-.511.026-1.528,0-3.056.019-4.584a4.089,4.089,0,0,1,4.308-4.289c.921-.008,1.842,0,2.762,0,.941,0,.941,0,1.2-.9.114-.4.227-.8.341-1.206a2.885,2.885,0,0,1,2.9-2.221c.873-.007,1.747,0,2.652,0V5.8c-.841,0-1.651.028-2.457-.006a2.879,2.879,0,0,1-2.714-3.622A2.911,2.911,0,0,1,20.163.005Q28.387,0,36.612,0c1.277,0,2.553-.007,3.83,0a2.9,2.9,0,1,1,.067,5.8c-.749.02-1.5,0-2.293,0v2.4c.86,0,1.692,0,2.523,0a2.884,2.884,0,0,1,3.024,2.3c.144.5.321,1,.423,1.508.081.406.257.554.673.532.605-.032,1.214-.02,1.82,0a4.088,4.088,0,0,1,3.942,4.016c.008.335-.011.671.009,1a1.357,1.357,0,0,0,2.714.022c.045-.9.015-1.8.018-2.7a2.076,2.076,0,0,1,2.345-2.353c.712,0,1.423-.014,2.135,0a3.648,3.648,0,0,1,3.241,1.918c.755,1.3,1.544,2.593,2.176,3.954a27.273,27.273,0,0,1,1.052,3.19ZM34.8,12.99l-.1-.068-14.651,15.3,10.2-.275-4.23,9.71.111.056,14.55-15.334-10.113.234L34.8,12.99" transform="translate(0 0)" fill="#455157"/>
  </g>
</svg>
