<svg id="High-Level-Maintenance-Icon" xmlns="http://www.w3.org/2000/svg" xmlns:xlink="http://www.w3.org/1999/xlink" width="29.066" height="29.437" viewBox="0 0 29.066 29.437">
  <defs>
    <clipPath id="clip-path">
      <rect id="Rectangle_51384" data-name="Rectangle 51384" width="29.066" height="29.437" fill="#fff"/>
    </clipPath>
  </defs>
  <g id="Group_52936" data-name="Group 52936">
    <g id="Group_52935" data-name="Group 52935" clip-path="url(#clip-path)">
      <path id="Path_38103" data-name="Path 38103" d="M29.066,19.045q-.943,1.611-1.886,3.223c-.5.858-.992,1.721-1.488,2.581-.057.1-.12.195-.194.313-.655-.377-1.3-.737-1.928-1.117a.337.337,0,0,0-.485.051,12.4,12.4,0,0,1-4.735,2.738.318.318,0,0,0-.271.371c.015.738.006,1.476.006,2.232H10.993c-.006-.08-.017-.17-.018-.26,0-.666-.006-1.333,0-2,0-.181-.037-.276-.232-.336A12.391,12.391,0,0,1,5.931,24.06a.266.266,0,0,0-.381-.045c-.651.388-1.312.761-2,1.155L0,19.017c.658-.381,1.292-.758,1.937-1.114a.347.347,0,0,0,.2-.452,12.227,12.227,0,0,1,0-5.438.346.346,0,0,0-.193-.454C1.295,11.2.661,10.824,0,10.442L3.552,4.289c.673.386,1.324.751,1.965,1.135a.3.3,0,0,0,.432-.042,12.372,12.372,0,0,1,4.788-2.767.283.283,0,0,0,.24-.329c-.01-.761,0-1.523,0-2.284h7.11V2.519c.08.033.127.058.178.073A12.483,12.483,0,0,1,23.133,5.4a.268.268,0,0,0,.382.038c.652-.385,1.31-.76,1.981-1.147.07.112.127.2.179.288.413.713.822,1.428,1.236,2.14q1.075,1.847,2.154,3.69v.063c-.653.365-1.3.738-1.96,1.09-.2.105-.219.221-.19.429a17.457,17.457,0,0,1,.286,2.513c-.007.987-.183,1.972-.275,2.959-.011.115.008.3.079.346.679.4,1.372.783,2.061,1.17ZM5.912,22.64c.071.065.128.112.179.164a11.621,11.621,0,0,0,5.6,3.252c.246.062.311.164.3.407-.018.651-.006,1.3-.006,1.955h5.078c0-.636.023-1.249-.009-1.86-.017-.326.083-.45.4-.529a11.146,11.146,0,0,0,4.432-2.24c.431-.355.834-.746,1.272-1.14l1.973,1.134,2.537-4.4c-.574-.333-1.115-.664-1.674-.961a.384.384,0,0,1-.236-.536,11.328,11.328,0,0,0,0-6.32A.384.384,0,0,1,26,11.032c.564-.3,1.11-.635,1.674-.962L25.134,5.676,23.148,6.82c-.087-.082-.158-.144-.224-.212A11.6,11.6,0,0,0,17.368,3.4.335.335,0,0,1,17.062,3c.018-.652.006-1.3.006-1.957H11.99c0,.677-.009,1.332,0,1.987,0,.214-.046.309-.273.365A10.7,10.7,0,0,0,8.011,5.049C7.275,5.576,6.6,6.183,5.854,6.784L3.924,5.675,1.387,10.07c.583.337,1.135.67,1.7.977a.353.353,0,0,1,.213.49,11.4,11.4,0,0,0,0,6.382.353.353,0,0,1-.214.49c-.571.311-1.128.647-1.7.979l2.538,4.393L5.912,22.64" transform="translate(0 -0.001)" fill="#fff"/>
      <path id="Path_38104" data-name="Path 38104" d="M101.3,95.8a8.633,8.633,0,1,1-8.626,8.583A8.646,8.646,0,0,1,101.3,95.8m-1.516,2.8v.358c0,1.629,0,3.258.007,4.887a.461.461,0,0,0,.166.349,3.578,3.578,0,0,0,1.362.626c.407.018.832-.362,1.249-.567a.207.207,0,0,1,.029-.012c.19-.059.242-.185.239-.383-.011-.9,0-1.8,0-2.7V98.579c.233.1.435.183.635.272a5.576,5.576,0,0,1,1.56,9.316.435.435,0,0,0-.156.253c-.011.895-.007,1.79-.007,2.7a7.53,7.53,0,0,0,3.919-8.166,7.615,7.615,0,0,0-15.067.9,7.4,7.4,0,0,0,4.037,7.251c0-.831-.008-1.656.005-2.48a.634.634,0,0,0-.224-.517,5.391,5.391,0,0,1-1.656-5.369,5.6,5.6,0,0,1,3.906-4.143m-1.016,1.625c-.119.081-.19.123-.255.173a4.55,4.55,0,0,0,.006,7.217.578.578,0,0,1,.254.525c-.012,1.068,0,2.136-.01,3.2,0,.2.05.311.258.35.549.1,1.091.262,1.643.323a6.947,6.947,0,0,0,3.182-.415c0-1.159.007-2.3-.005-3.442a.611.611,0,0,1,.264-.553,4.524,4.524,0,0,0,1.453-5.266,4.431,4.431,0,0,0-1.712-2.12v.36c0,1.3,0,2.6,0,3.9a.364.364,0,0,1-.233.388c-.694.334-1.385.677-2.068,1.034a.475.475,0,0,1-.5-.009c-.666-.344-1.335-.683-2.012-1a.423.423,0,0,1-.28-.454c.012-1.384.006-2.768.006-4.213" transform="translate(-86.783 -89.701)" fill="#fff"/>
    </g>
  </g>
</svg>
