<svg xmlns="http://www.w3.org/2000/svg" width="60.66" height="97.057" viewBox="0 0 60.66 97.057">
  <path id="Icon_metro-location" data-name="Icon metro-location" d="M38.685,1.928a30.33,30.33,0,0,0-30.33,30.33c0,30.33,30.33,66.726,30.33,66.726s30.33-36.4,30.33-66.726a30.33,30.33,0,0,0-30.33-30.33Zm0,48.907A18.577,18.577,0,1,1,57.262,32.258,18.577,18.577,0,0,1,38.685,50.835ZM26.932,32.258A11.753,11.753,0,1,1,38.685,44.011,11.753,11.753,0,0,1,26.932,32.258Z" transform="translate(-8.355 -1.928)" fill="#191f21"/>
</svg>
