<svg xmlns="http://www.w3.org/2000/svg" width="89.868" height="89.868" viewBox="0 0 89.868 89.868">
  <path id="Icon_awesome-phone" data-name="Icon awesome-phone" d="M86.6,4.319,68.349.106a4.24,4.24,0,0,0-4.827,2.44L55.1,22.2a4.2,4.2,0,0,0,1.211,4.915l10.637,8.706a65.05,65.05,0,0,1-31.1,31.1L27.136,56.29a4.208,4.208,0,0,0-4.915-1.211L2.564,63.5A4.263,4.263,0,0,0,.106,68.349L4.319,86.6a4.211,4.211,0,0,0,4.107,3.265A81.432,81.432,0,0,0,89.867,8.426,4.207,4.207,0,0,0,86.6,4.319Z" transform="translate(0.001 0.001)" fill="#191f21"/>
</svg>
