<svg xmlns="http://www.w3.org/2000/svg" width="141.955" height="87.369" viewBox="0 0 141.955 87.369">
    <g data-name="Group 54695">
        <g data-name="Group 54694">
            <path data-name="Path 41226" d="m-9.4-285.135 33.621.056a37.068 37.068 0 0 1-.736 25.12s-20.769-24.8-43.533-6.015z" transform="translate(60.702 285.135)" style="fill-rule:evenodd;fill:#ed1c24"/>
            <path data-name="Path 41227" d="M34.261-259.939 17.71-230.675a37.065 37.065 0 0 1-21.524-12.969s31.8-5.922 26.608-34.977z" transform="translate(66.472 287.45)" style="fill-rule:evenodd;fill:#ed1c24"/>
            <path data-name="Path 41228" d="M-7.154-232.95-23.7-262.217a37.071 37.071 0 0 1 22.208-11.76s-11.318 30.305 16.257 40.83z" transform="translate(59.404 289.101)" style="fill-rule:evenodd;fill:#ed1c24"/>
        </g>
        <path data-name="Path 41229" d="M-5-273.791a47.647 47.647 0 0 1 22.1 12.939" transform="translate(66.05 289.167)" style="fill-rule:evenodd;fill:#ed1c24"/>
        <path data-name="Path 41230" d="M17.157-264.121a47.65 47.65 0 0 1-22.3 12.6" transform="translate(66 292.603)" style="fill-rule:evenodd;fill:#ed1c24"/>
        <path data-name="Path 41231" d="M-4.812-273.791a47.646 47.646 0 0 0 0 25.612" transform="translate(65.503 289.167)" style="fill-rule:evenodd;fill:#ed1c24"/>
    </g>
    <g data-name="Group 54696">
        <path data-name="Path 41232" d="m-35.927-234.359-3.3 10.21-3.3-10.21h-7.515v18.547h5.442v-10.96l3.047 9.415h4.66l3.044-9.415v10.96h5.439v-18.547z" transform="translate(50.043 303.181)" style="fill-rule:evenodd;fill:#ed1c24"/>
        <path data-name="Path 41233" d="M-19.246-223.706h-4.134l2.071-4.923 2.063 4.923zm-6.14 4.778h8.15l1.307 3.109h6.537l-8.641-18.535h-6.553l-8.643 18.535h6.54z" transform="translate(56.019 303.182)" style="fill-rule:evenodd;fill:#ed1c24"/>
        <path data-name="Path 41234" d="M-.04-227.693h-9.172a.725.725 0 0 1-.721-.722.725.725 0 0 1 .721-.725H5.193v-5.218H-9.212a5.953 5.953 0 0 0-5.938 5.943 5.95 5.95 0 0 0 5.938 5.938H-.04a.725.725 0 0 1 .725.724.722.722 0 0 1-.725.721h-14.4v5.22h14.4a5.952 5.952 0 0 0 5.94-5.942 5.952 5.952 0 0 0-5.94-5.939z" transform="translate(62.444 303.18)" style="fill-rule:evenodd;fill:#ed1c24"/>
        <path data-name="Path 41235" d="M14.86-223.706h-4.135l2.072-4.923 2.063 4.923zm-6.14 4.778h8.149l1.307 3.109h6.538l-8.642-18.535H9.518L.875-215.819h6.54z" transform="translate(68.139 303.182)" style="fill-rule:evenodd;fill:#ed1c24"/>
        <path data-name="Path 41236" d="M33.871-234.295v6.772h-9.077v-6.772h-5.416v18.373h5.416v-6.778h9.077v6.774h5.414v-18.373z" transform="translate(74.715 303.203)" style="fill-rule:evenodd;fill:#ed1c24"/>
        <path data-name="Path 41237" d="M48.965-223.706h-4.134l2.071-4.923 2.063 4.923zm-6.14 4.778h8.15l1.307 3.109h6.537l-8.641-18.535h-6.554l-8.643 18.535h6.54z" transform="translate(80.261 303.182)" style="fill-rule:evenodd;fill:#ed1c24"/>
        <path data-name="Path 41238" d="M53.672-235.438a2.136 2.136 0 0 0-2.133 2.135 2.137 2.137 0 0 0 2.133 2.136 2.139 2.139 0 0 0 2.138-2.133 2.138 2.138 0 0 0-2.138-2.138zm0 4.049a1.915 1.915 0 0 1-1.912-1.911 1.916 1.916 0 0 1 1.912-1.912 1.916 1.916 0 0 1 1.914 1.912 1.915 1.915 0 0 1-1.914 1.911zm.556-1.668a.924.924 0 0 0-.206-.129.9.9 0 0 0 .546-.237.655.655 0 0 0 .176-.462.71.71 0 0 0-.108-.384.585.585 0 0 0-.282-.247 1.593 1.593 0 0 0-.52-.068H52.7v2.563h.339v-1.137h.4a1.179 1.179 0 0 1 .186.011.545.545 0 0 1 .156.069.718.718 0 0 1 .171.171c.064.083.148.2.245.354l.339.533h.427l-.445-.7a1.765 1.765 0 0 0-.29-.338zm-.464-.394h-.731v-.848h.812a.61.61 0 0 1 .416.118.374.374 0 0 1 .134.3.418.418 0 0 1-.069.23.385.385 0 0 1-.2.155 1.081 1.081 0 0 1-.361.044z" transform="translate(86.146 302.797)" style="fill:#ed1c24"/>
    </g>
</svg>
