<svg id="Masaha-Logo-Footer" xmlns="http://www.w3.org/2000/svg" width="549.327" height="83.659" viewBox="0 0 549.327 83.659">
  <path id="Path_37938" data-name="Path 37938" d="M1074.245,202.652a10.369,10.369,0,0,1,4.063,3.708,9.951,9.951,0,0,1-.032,10.507,10.694,10.694,0,0,1-4.124,3.77,12.722,12.722,0,0,1-11.522,0,10.637,10.637,0,0,1-4.093-3.753,9.846,9.846,0,0,1,0-10.446,10.645,10.645,0,0,1,4.121-3.767,12.988,12.988,0,0,1,11.588-.028m-.694,17.034a9.067,9.067,0,0,0,4.029-12.174q-.151-.3-.323-.59a9.339,9.339,0,0,0-3.624-3.305,11.6,11.6,0,0,0-10.378,0,9.411,9.411,0,0,0-3.674,3.359,8.846,8.846,0,0,0,0,9.361,9.431,9.431,0,0,0,3.657,3.361,11.339,11.339,0,0,0,10.32,0m-.147-7.717a4.309,4.309,0,0,1-2.144,1.391l3.029,4.228h-1.739l-2.812-3.962c-.245.019-.5.031-.741.028h-3.362v3.928h-1.676V205.728h5.027a6.085,6.085,0,0,1,3.771,1.057,3.439,3.439,0,0,1,1.389,2.876,3.592,3.592,0,0,1-.76,2.3m-1.835-.313a2.338,2.338,0,0,0,.938-1.995,2.28,2.28,0,0,0-.938-1.954,4.473,4.473,0,0,0-2.661-.688h-3.289v5.35h3.289a4.41,4.41,0,0,0,2.661-.706" transform="translate(-530.465 -201.288)" fill="#191f21"/>
  <path id="Path_37939" data-name="Path 37939" d="M1081.1,203.137h-29.115l-29.247,60.892V203.137H993.118V231.47H965.76V203.137H936.14v60.895l-29.244-60.9H877.782L853.653,253.37a16.816,16.816,0,0,0-4.668-9.1A29.867,29.867,0,0,0,837,237.008a124.037,124.037,0,0,0-16.943-3.939,77.946,77.946,0,0,1-11.168-2.571q-3.389-1.2-3.39-3.6,0-5.027,11.425-5.027a58.68,58.68,0,0,1,24.472,5.941l8.908-19.539a59.222,59.222,0,0,0-15.373-5.2,89.167,89.167,0,0,0-17.757-1.769,62.717,62.717,0,0,0-22.4,3.542,30.51,30.51,0,0,0-13.867,9.721,22.249,22.249,0,0,0-4.643,13.711,18.7,18.7,0,0,0,5.021,13.757,29.086,29.086,0,0,0,11.8,7.313,138.539,138.539,0,0,0,16.941,4.169,80.274,80.274,0,0,1,11.359,2.741q3.439,1.251,3.439,3.772a3.539,3.539,0,0,1-2.636,3.264,25.253,25.253,0,0,1-8.787,1.085,59.9,59.9,0,0,1-14.932-2,64.07,64.07,0,0,1-14.071-5.316l-3.7,7.626L751.13,203.124H722.014l-29.3,61.02-.194-61.02H668.173L640.311,245.74l-28.585-42.6H587.379V283.1h26.983V247.911L633.435,275.9H646.5l19.073-29.249.25,36.447h47.941l5.9-13.938h33.4l5.9,13.938h30.622l-.506-1.057c.919.229,1.876.447,2.83.657a100.909,100.909,0,0,0,21.261,2.226,61.813,61.813,0,0,0,22.405-3.6,40.906,40.906,0,0,0,6.1-2.945l-2.264,4.721h30.118l5.9-13.94h33.386l5.9,13.94h51.1V253.626h27.361V283.1h50.574l5.9-13.938h33.383l5.91,13.938h30.623Zm-353.289,46.6,8.535-20.107,8.535,20.107Zm155.746,0,8.536-20.107,8.537,20.107Zm174.194,0,8.535-20.107,8.534,20.107Z" transform="translate(-587.379 -201.288)" fill="#191f21"/>
</svg>
