<svg id="Masaha-Logo" xmlns="http://www.w3.org/2000/svg" xmlns:xlink="http://www.w3.org/1999/xlink" width="64" height="47" viewBox="0 0 64 47">
  <defs>
    <clipPath id="clip-path">
      <rect id="Rectangle_52496" data-name="Rectangle 52496" width="64" height="47" fill="#fff"/>
    </clipPath>
  </defs>
  <g id="Mask_Group_18889" data-name="Mask Group 18889" clip-path="url(#clip-path)">
    <g id="Group_56259" data-name="Group 56259" transform="translate(4.848 3.917)">
      <g id="Group_54706" data-name="Group 54706" transform="translate(0)">
        <g id="Group_54705" data-name="Group 54705">
          <path id="Path_41258" data-name="Path 41258" d="M-15.315-285.135l14.944.025A16.79,16.79,0,0,1-.7-273.835s-9.232-11.132-19.35-2.7Z" transform="translate(22.249 285.135)" fill="#455157" fill-rule="evenodd"/>
          <path id="Path_41259" data-name="Path 41259" d="M13.11-270.236,5.753-257.1a16.431,16.431,0,0,1-9.567-5.821s14.136-2.658,11.827-15.7Z" transform="translate(15.795 282.584)" fill="#455157" fill-rule="evenodd"/>
          <path id="Path_41260" data-name="Path 41260" d="M-16.346-255.563-23.7-268.7a16.447,16.447,0,0,1,9.872-5.278s-5.031,13.6,7.226,18.326Z" transform="translate(23.701 280.765)" fill="#455157" fill-rule="evenodd"/>
        </g>
        <path id="Path_41261" data-name="Path 41261" d="M-5-273.791a21.117,21.117,0,0,1,9.825,5.807" transform="translate(16.267 280.692)" fill="#455157" fill-rule="evenodd"/>
        <path id="Path_41262" data-name="Path 41262" d="M4.77-264.121a21.148,21.148,0,0,1-9.911,5.656" transform="translate(16.323 276.905)" fill="#455157" fill-rule="evenodd"/>
        <path id="Path_41263" data-name="Path 41263" d="M-5.772-273.791a21.586,21.586,0,0,0,0,11.5" transform="translate(16.879 280.692)" fill="#455157" fill-rule="evenodd"/>
      </g>
      <g id="Group_54707" data-name="Group 54707" transform="translate(0 30.234)">
        <path id="Path_41264" data-name="Path 41264" d="M-43.769-234.359l-1.468,4.583-1.466-4.583h-3.34v8.324h2.418v-4.919l1.354,4.226H-44.2l1.353-4.226v4.919h2.418v-8.324Z" transform="translate(50.043 235.015)" fill="#455157" fill-rule="evenodd"/>
        <path id="Path_41265" data-name="Path 41265" d="M-27.014-229.575h-1.838l.921-2.21.917,2.21Zm-2.729,2.144h3.623l.581,1.4h2.906l-3.841-8.319h-2.913l-3.842,8.319h2.907Z" transform="translate(42.39 235.013)" fill="#455157" fill-rule="evenodd"/>
        <path id="Path_41266" data-name="Path 41266" d="M-8.434-231.367h-4.077a.324.324,0,0,1-.321-.324.324.324,0,0,1,.321-.325h6.4v-2.342h-6.4a2.659,2.659,0,0,0-2.639,2.668,2.658,2.658,0,0,0,2.639,2.665h4.077a.324.324,0,0,1,.322.325.322.322,0,0,1-.322.324h-6.4v2.343h6.4A2.659,2.659,0,0,0-5.792-228.7,2.659,2.659,0,0,0-8.434-231.367Z" transform="translate(33.263 235.015)" fill="#455157" fill-rule="evenodd"/>
        <path id="Path_41267" data-name="Path 41267" d="M7.091-229.575H5.253l.921-2.21.917,2.21ZM4.362-227.43H7.984l.581,1.4h2.906L7.63-234.354H4.717L.875-226.035H3.782Z" transform="translate(24.953 235.013)" fill="#455157" fill-rule="evenodd"/>
        <path id="Path_41268" data-name="Path 41268" d="M25.82-234.295v3.039H21.785v-3.039H19.378v8.247h2.408v-3.04H25.82v3.04h2.407v-8.247Z" transform="translate(15.659 234.99)" fill="#455157" fill-rule="evenodd"/>
        <path id="Path_41269" data-name="Path 41269" d="M41.2-229.575H39.359l.921-2.21.917,2.21Zm-2.729,2.144H42.09l.581,1.4h2.906l-3.841-8.319H38.823l-3.842,8.319h2.907Z" transform="translate(7.517 235.013)" fill="#455157" fill-rule="evenodd"/>
        <path id="Path_41270" data-name="Path 41270" d="M52.487-235.438a.954.954,0,0,0-.948.958.955.955,0,0,0,.948.959.955.955,0,0,0,.95-.959A.955.955,0,0,0,52.487-235.438Zm0,1.817a.855.855,0,0,1-.85-.859.856.856,0,0,1,.85-.858.856.856,0,0,1,.851.858A.856.856,0,0,1,52.487-233.621Zm.247-.749a.411.411,0,0,0-.092-.058.4.4,0,0,0,.243-.106.3.3,0,0,0,.078-.207.321.321,0,0,0-.048-.172.261.261,0,0,0-.125-.111.7.7,0,0,0-.231-.03h-.506v1.15H52.2v-.51h.177a.519.519,0,0,1,.083,0,.241.241,0,0,1,.069.031.32.32,0,0,1,.076.077c.028.037.066.089.109.159l.151.239h.19l-.2-.313A.79.79,0,0,0,52.734-234.37Zm-.206-.177H52.2v-.381h.361a.27.27,0,0,1,.185.053.169.169,0,0,1,.06.133.189.189,0,0,1-.031.1.171.171,0,0,1-.089.069A.476.476,0,0,1,52.528-234.547Z" transform="translate(0.935 235.438)" fill="#455157"/>
      </g>
    </g>
  </g>
</svg>
