<svg id="Masaha-Footer-Certifications-icon-6" xmlns="http://www.w3.org/2000/svg" xmlns:xlink="http://www.w3.org/1999/xlink" width="100" height="100" viewBox="0 0 100 100">
  <defs>
    <clipPath id="clip-path">
      <rect id="Rectangle_52504" data-name="Rectangle 52504" width="100" height="100" transform="translate(-0.246)" fill="#fff" stroke="#707070" stroke-width="1"/>
    </clipPath>
  </defs>
  <g id="Mask_Group_18895" data-name="Mask Group 18895" transform="translate(0.246)" clip-path="url(#clip-path)">
    <g id="Group_56278" data-name="Group 56278" transform="translate(13.275 13.38)">
      <g id="JONjD8" transform="translate(0 0)">
        <g id="Group_56277" data-name="Group 56277">
          <path id="Path_44835" data-name="Path 44835" d="M-102.28,129.7a36.131,36.131,0,0,1-36.158,36.386c-19.672-.123-35.635-16.342-35.686-36.292-.051-20.137,16.119-36.553,36.057-36.483A36.139,36.139,0,0,1-102.28,129.7Zm-35.925,35.647a35.431,35.431,0,0,0,35.22-35.841,35.42,35.42,0,0,0-35.376-35.457,35.419,35.419,0,0,0-35.043,35.58A35.422,35.422,0,0,0-138.205,165.346Z" transform="translate(174.124 -93.309)" fill="#165dad"/>
          <path id="Path_44836" data-name="Path 44836" d="M-110.689,130.229a27.033,27.033,0,0,1-27.476,27.208,27.072,27.072,0,0,1-26.309-27.268,27.032,27.032,0,0,1,26.905-27.216A27.015,27.015,0,0,1-110.689,130.229Zm-22.642-3.726c.028.28.077.84.146,1.4a5.078,5.078,0,0,0,.154.669,5.544,5.544,0,0,0,3,3.7,8.667,8.667,0,0,0,3.842.865,9.014,9.014,0,0,0,3.264-.575,5.283,5.283,0,0,0,2.658-2.019,7.335,7.335,0,0,0,1.028-2.834,8.419,8.419,0,0,0,.1-2.181,9.174,9.174,0,0,0-.538-2.6,5.154,5.154,0,0,0-2.768-2.887,9.286,9.286,0,0,0-2.637-.768,8.171,8.171,0,0,0-2.193-.023,9.551,9.551,0,0,0-2.779.793,5,5,0,0,0-2.5,2.439A9.26,9.26,0,0,0-133.331,126.5Zm-9.787,5.432.212.1c.4.187.785.407,1.2.555a8.116,8.116,0,0,0,3.962.471,5.549,5.549,0,0,0,2.174-.721,3.894,3.894,0,0,0,1.964-3.556,4.17,4.17,0,0,0-1.819-3.285,6.185,6.185,0,0,0-2.1-.937c-1.283-.378-2.568-.754-3.849-1.14a2.108,2.108,0,0,1-.571-.275.358.358,0,0,1,.026-.644,1.767,1.767,0,0,1,.7-.212,7.62,7.62,0,0,1,1.127.058,4.521,4.521,0,0,1,3.182,1.679.327.327,0,0,0,.218.12c.818.009,1.636,0,2.454.007.123,0,.169-.046.169-.173q0-2.1,0-4.2c0-.133-.058-.166-.175-.166q-1.248,0-2.5,0c-.123,0-.175.049-.172.173,0,.164,0,.327,0,.523-.1-.046-.167-.081-.235-.108-.6-.249-1.191-.545-1.811-.734a7.627,7.627,0,0,0-2.424-.242,6.2,6.2,0,0,0-2.133.389A4.014,4.014,0,0,0-145.463,121a4.251,4.251,0,0,0-.669,1.62,3.774,3.774,0,0,0,.355,2.627,4.416,4.416,0,0,0,2.38,2.029c.889.342,1.81.6,2.72.885.765.244,1.535.47,2.3.722a1.594,1.594,0,0,1,.512.291.246.246,0,0,1,0,.427,1.307,1.307,0,0,1-.46.254,4.452,4.452,0,0,1-2.4-.045,3.933,3.933,0,0,1-2.607-1.783.315.315,0,0,0-.231-.125c-.77-.009-1.54,0-2.31-.007-.139,0-.2.047-.2.193q.006,2.267,0,4.533c0,.157.065.21.208.21q1.268,0,2.537,0c.146,0,.213-.059.209-.212C-143.124,132.4-143.118,132.187-143.118,131.934Zm-5.611-2.414a.723.723,0,0,1-.014-.092q0-3.259,0-6.517c0-.189.072-.239.244-.236.461.008.922,0,1.383,0,.178,0,.255-.048.253-.25q-.015-1.409,0-2.819c0-.2-.068-.245-.251-.245q-3.969.007-7.941,0c-.2,0-.255.07-.253.265.008.849,0,1.7,0,2.548,0,.537-.092.5.5.5h1.385c0,.062.01.1.01.141q0,3.259,0,6.517c0,.167-.066.2-.209.2-.488-.006-.976,0-1.464,0-.168,0-.228.061-.227.233.006.939.007,1.88,0,2.819,0,.2.076.251.255.25q3.971,0,7.941,0c.182,0,.252-.051.25-.249q-.015-1.4,0-2.8c0-.214-.061-.273-.268-.267C-147.661,129.529-148.19,129.52-148.729,129.52Zm15.518,5.9c.116-.325.231-.636.337-.951a.225.225,0,0,0-.012-.187c-.139-.136-.568,0-.634.185-.071.2-.147.4-.218.607-.049.137-.115.2-.277.139a3.566,3.566,0,0,0-.678-.168q-1.282-.176-2.569-.323c-.158-.018-.212-.064-.211-.226,0-.245-.016-.243-.354-.25-.181,0-.276.044-.247.245.02.133-.007.216-.178.227a15.567,15.567,0,0,0-3.347.507c-.122.035-.181,0-.219-.11-.076-.216-.16-.429-.227-.648a.266.266,0,0,0-.319-.219,1.655,1.655,0,0,1-.206,0c-.142,0-.18.057-.128.2.116.318.222.639.338.977-.066.029-.133.06-.2.087-.646.269-1.3.526-1.937.813a.269.269,0,0,1-.394-.1c-.4-.573-.808-1.141-1.2-1.718a.59.59,0,0,0-.806-.191,13.855,13.855,0,0,0,1.62,2.4c-.449.3-.883.583-1.3.883a.219.219,0,0,1-.321-.018,15.1,15.1,0,0,1-2.826-3.1.638.638,0,0,0-.807-.167,14.94,14.94,0,0,0,15.237,6.935,14.744,14.744,0,0,0,8.452-4.538,13.149,13.149,0,0,0,1.869-2.455,5.663,5.663,0,0,0-.58.006.363.363,0,0,0-.215.13c-.374.48-.7,1-1.116,1.444-.577.623-1.208,1.193-1.823,1.778a.243.243,0,0,1-.227.008c-.195-.116-.373-.259-.563-.385-.256-.17-.516-.334-.789-.509a13.169,13.169,0,0,0,1.629-2.419.609.609,0,0,0-.854.275c-.376.564-.781,1.108-1.17,1.664a.247.247,0,0,1-.378.083,8.119,8.119,0,0,0-.784-.368C-132.294,135.772-132.742,135.6-133.21,135.417Zm-13.731-17.4c.191,0,.327-.009.461,0a.344.344,0,0,0,.345-.192c.4-.6.823-1.181,1.233-1.773a.2.2,0,0,1,.295-.066c.306.155.618.3.935.435.367.153.741.289,1.116.425.139.05.183.112.114.262a5.066,5.066,0,0,0-.2.546c-.121.361-.118.349.248.366a.314.314,0,0,0,.368-.265c.065-.225.154-.442.233-.662a10.317,10.317,0,0,0,1.005.238c.849.114,1.7.2,2.552.3.1.011.183.03.164.155-.032.21.076.253.25.235a1.21,1.21,0,0,1,.185,0c.11,0,.179-.046.166-.159-.026-.217.1-.219.261-.234.7-.066,1.391-.132,2.083-.23.451-.064.894-.186,1.36-.286.067.188.138.374.2.563.132.382.06.345.462.346.289,0,.3-.012.207-.295-.09-.266-.19-.529-.274-.763.749-.326,1.474-.636,2.194-.96.147-.066.235-.058.327.075.383.552.778,1.095,1.151,1.652a.607.607,0,0,0,.831.23,13.362,13.362,0,0,0-1.575-2.348l.221-.146c.344-.229.7-.446,1.029-.693a.283.283,0,0,1,.423.018,15.244,15.244,0,0,1,2.778,3.094c.033.049.084.118.13.121.2.013.4.006.615.006a13.432,13.432,0,0,0-3.442-3.936,14.753,14.753,0,0,0-10.6-3.176,14.706,14.706,0,0,0-9.111,4.159,14.394,14.394,0,0,0-2.384,2.962,4.335,4.335,0,0,1,.453,0,.4.4,0,0,0,.419-.224c.12-.194.262-.373.4-.557a14.816,14.816,0,0,1,2.4-2.519.19.19,0,0,1,.271,0c.381.262.767.515,1.15.771.054.037.107.076.168.118A14.234,14.234,0,0,0-146.941,118.017Zm-5.269,27.3a2.728,2.728,0,0,1-.515,1.436.9.9,0,0,1-1.508-.222c-.048-.123-.064-.3-.154-.355s-.266-.02-.4-.023c-.034,0-.068,0-.1,0-.142-.011-.191.071-.162.193a2.9,2.9,0,0,0,.159.536,1.723,1.723,0,0,0,2.909.053,4.546,4.546,0,0,0,.349-3.817,1.817,1.817,0,0,0-2.792-.777,1.977,1.977,0,0,0-.683,1.644A1.68,1.68,0,0,0-153,145.668,4.967,4.967,0,0,0-152.21,145.314Zm1.3-.285a10.271,10.271,0,0,0,.273,1.375,1.663,1.663,0,0,0,2.166,1.223,1.736,1.736,0,0,0,1.22-1.394,5.258,5.258,0,0,0,.049-2.595,1.852,1.852,0,0,0-1.627-1.649,1.609,1.609,0,0,0-1.516.7A4.527,4.527,0,0,0-150.909,145.029Zm8.147-.379a11.489,11.489,0,0,0-.241-1.325,1.687,1.687,0,0,0-2.039-1.306,1.658,1.658,0,0,0-1.3,1.251,5,5,0,0,0-.091,2.852,1.778,1.778,0,0,0,1.684,1.574,1.587,1.587,0,0,0,1.485-.755A4.6,4.6,0,0,0-142.762,144.65Zm15,.21a4.567,4.567,0,0,0-.368-1.895,1.68,1.68,0,0,0-1.588-.99,1.682,1.682,0,0,0-1.554,1.138,4.2,4.2,0,0,0-.284,1.3,4.565,4.565,0,0,0,.311,2.226,1.571,1.571,0,0,0,1.593,1.065,1.61,1.61,0,0,0,1.558-1.058A4.642,4.642,0,0,0-127.764,144.859Zm5.713-.645c.077-.452.139-.855.221-1.253.009-.045.124-.094.19-.095.536-.008,1.072,0,1.608,0,.575,0,.5.075.512-.529,0-.182-.057-.241-.238-.24q-1.216.013-2.432,0c-.19,0-.256.073-.272.248-.028.29-.064.58-.1.868-.081.584-.17,1.166-.249,1.751-.007.049.041.152.074.155.256.036.494.111.733-.142a1.158,1.158,0,0,1,1.812.207,1.374,1.374,0,0,1-.057,1.376,1.047,1.047,0,0,1-1.118.457.917.917,0,0,1-.784-.532c-.052-.118-.065-.292-.153-.347s-.265-.024-.4-.027c-.048,0-.1,0-.144,0-.13-.009-.177.056-.155.177a1.705,1.705,0,0,0,.4.9,1.787,1.787,0,0,0,1.426.519,2.02,2.02,0,0,0,1.155-.314,1.93,1.93,0,0,0,.754-1.2,1.81,1.81,0,0,0-1.081-2.116A1.955,1.955,0,0,0-122.051,144.215Zm-13.045,2.6c.047-.106.074-.184.113-.254a2.041,2.041,0,0,1,.842-.744c.377-.214.758-.421,1.127-.649a1.743,1.743,0,0,0,.517-2.562,2,2,0,0,0-2.45-.38,1.767,1.767,0,0,0-.855,1.484c-.035.3-.022.326.28.322.5,0,.452.074.532-.446a.879.879,0,0,1,.689-.858,1.065,1.065,0,0,1,1.171.349,1.045,1.045,0,0,1-.225,1.414,12.062,12.062,0,0,1-1.088.676,2.536,2.536,0,0,0-1.487,2.124c-.017.252-.03.253.23.253,1.045,0,2.089,0,3.134,0,.467,0,.417.064.419-.421,0-.307,0-.308-.307-.308Zm-4.628-2.018h.006c0-.842.007-1.684,0-2.526,0-.3-.021-.3-.322-.3-.143,0-.279-.025-.337.18-.19.668-.485.787-1.11.857-.282.031-.284.016-.3.3,0,.034,0,.069-.007.1-.013.168.04.259.23.25.268-.012.537.007.8-.007.181-.009.237.049.235.235-.008,1.017,0,2.033,0,3.05,0,.617,0,.612.612.607.152,0,.2-.046.2-.2C-139.728,146.5-139.725,145.65-139.725,144.8Zm14.2-1.138v3.289c0,.616,0,.612.614.6.14,0,.209-.045.193-.191a.463.463,0,0,1,0-.063q0-2.537,0-5.073c0-.076-.013-.185-.063-.223a.446.446,0,0,0-.6.2.948.948,0,0,1-.7.74,2.354,2.354,0,0,1-.486.068c-.171,0-.24.073-.225.24,0,.048,0,.1,0,.146,0,.256.014.267.273.268C-126.2,143.665-125.878,143.663-125.521,143.663Zm-11.652-.228c-.505.007-.431-.06-.438.439,0,.021,0,.042,0,.063.009.439-.086.431.414.424.462-.006.459.1.461-.471C-136.735,143.436-136.736,143.436-137.172,143.436Zm-.438,3.655c0,.458,0,.458.4.458.492,0,.5,0,.472-.495-.03-.47.059-.411-.418-.411C-137.678,146.643-137.6,146.573-137.61,147.091Z" transform="translate(173.507 -93.811)" fill="#165dad"/>
          <path id="Path_44837" data-name="Path 44837" d="M-139.818,163.11c-.038.08-.082.156-.115.239q-.727,1.792-1.45,3.586c-.053.132-.11.161-.246.121a4.07,4.07,0,0,0-.6-.118c-.131-.016-.171-.076-.177-.2-.017-.334-.05-.665-.066-1-.036-.742-.062-1.485-.1-2.228-.014-.295-.039-.589-.059-.884l-.066-.009c-.035.18-.073.36-.1.541-.194,1.156-.384,2.313-.581,3.468a.169.169,0,0,1-.128.1c-.249-.038-.5-.092-.781-.148.066-.379.133-.744.194-1.111.182-1.1.349-2.206.545-3.3.111-.628-.023-.533.589-.448.258.035.513.091.771.12.143.017.177.082.183.216q.07,1.324.154,2.645c.023.374.055.748.085,1.121,0,.038.015.075.033.16a1.333,1.333,0,0,0,.1-.165c.472-1.148.945-2.295,1.41-3.446a.2.2,0,0,1,.251-.148c.41.075.82.153,1.25.232l-.833,4.956-.881-.16.686-4.125Z" transform="translate(172.217 -96.867)" fill="#165dad"/>
          <path id="Path_44838" data-name="Path 44838" d="M-121.053,160.243l1.757,3.17-.777.453-2.44-4.388c.295-.171.569-.337.853-.487.04-.022.126.018.179.05q1.575.95,3.147,1.9c.055.033.114.062.17.093l.051-.046-1.7-3.06.781-.448,2.439,4.389c-.276.157-.529.31-.79.444a.26.26,0,0,1-.2-.04q-1.1-.653-2.2-1.317c-.372-.224-.742-.45-1.114-.673A.841.841,0,0,0-121.053,160.243Z" transform="translate(170.826 -96.65)" fill="#165dad"/>
          <path id="Path_44839" data-name="Path 44839" d="M-147.08,161.73a3.356,3.356,0,0,1-1.388,2.7,2.035,2.035,0,0,1-2.026.134,2.478,2.478,0,0,1-1.023-.681,2.178,2.178,0,0,1-.493-1.765,3.875,3.875,0,0,1,.847-1.937,2.153,2.153,0,0,1,2.245-.692,2.348,2.348,0,0,1,1.818,1.8.785.785,0,0,1,.02.123C-147.079,161.52-147.08,161.626-147.08,161.73Zm-4,.713a1.364,1.364,0,0,0,.839,1.313,1.226,1.226,0,0,0,1.434-.3,2.662,2.662,0,0,0,.766-1.751,1.23,1.23,0,0,0-.586-1.186,1.2,1.2,0,0,0-1.414-.02A2.688,2.688,0,0,0-151.079,162.443Z" transform="translate(172.713 -96.749)" fill="#165dad"/>
          <path id="Path_44840" data-name="Path 44840" d="M-116.412,108.008-113,104.36c.622.618,1.253,1.2,1.829,1.831a1.561,1.561,0,0,1,.294,1.659,3.4,3.4,0,0,1-2.038,2.08,1.735,1.735,0,0,1-1.912-.381c-.5-.466-.991-.942-1.486-1.415A1,1,0,0,1-116.412,108.008Zm1.246.112c.31.283.6.574.911.827a.864.864,0,0,0,.825.127,2.751,2.751,0,0,0,1.677-1.636.739.739,0,0,0-.141-.819c-.262-.292-.554-.556-.821-.845-.119-.127-.189-.1-.3.011-.666.72-1.338,1.435-2.007,2.153C-115.066,107.987-115.105,108.043-115.166,108.12Z" transform="translate(170.436 -93.884)" fill="#165dad"/>
          <path id="Path_44841" data-name="Path 44841" d="M-145.176,102.47l-.907.27-1.353-4.846c.318-.093.624-.186.932-.271.54-.152,1.079-.313,1.625-.443a1.245,1.245,0,0,1,1.307.409,1.4,1.4,0,0,1,.285,1.436,2.475,2.475,0,0,1-.335.519s0,.02.013.022a1.026,1.026,0,0,1,.828.851c.052.215.132.423.193.636a.7.7,0,0,0,.428.539c-.115.045-.177.074-.242.092-.224.064-.453.112-.673.188a.213.213,0,0,1-.3-.153c-.115-.312-.219-.628-.328-.942-.018-.052-.034-.105-.054-.156a.575.575,0,0,0-.782-.41c-.332.085-.659.187-.989.281-.117.033-.167.082-.125.225C-145.492,101.288-145.341,101.864-145.176,102.47Zm-1.134-4.076c.129.46.238.867.363,1.269a.209.209,0,0,0,.177.1c.416-.114.833-.227,1.238-.373a.578.578,0,0,0,.4-.671c-.036-.438-.338-.772-.7-.7C-145.324,98.108-145.8,98.26-146.31,98.394Z" transform="translate(172.418 -93.508)" fill="#165dad"/>
          <path id="Path_44842" data-name="Path 44842" d="M-118.4,106.551l-3.2-1.97,2.581-4.3,3.1,1.907-.428.707-1.3-.8c-.27-.166-.542-.328-.809-.5-.13-.084-.205-.056-.277.077a6.047,6.047,0,0,1-.364.606c-.11.157-.064.239.081.326.578.349,1.153.7,1.729,1.057.051.032.1.066.162.105-.119.2-.236.388-.343.581-.069.124-.144.068-.222.021-.481-.295-.967-.584-1.443-.89s-.472-.315-.767.15c-.126.2-.241.406-.367.6-.058.092-.046.142.048.2.687.421,1.37.851,2.06,1.266.153.092.195.166.085.32S-118.29,106.363-118.4,106.551Z" transform="translate(170.767 -93.672)" fill="#165dad"/>
          <path id="Path_44843" data-name="Path 44843" d="M-151.742,105.405l-2.323-4.427c.169-.1.32-.191.476-.275.842-.453,1.688-.9,2.527-1.361.14-.077.219-.073.284.081a2.147,2.147,0,0,0,.186.372c.1.143.057.216-.081.289-.5.263-1,.532-1.492.8-.176.095-.348.2-.527.285-.113.055-.132.118-.072.228.133.244.262.489.386.737.072.143.159.089.255.038l1.853-1c.03-.016.061-.03.121-.059l.375.706c-.22.121-.427.24-.637.354-.454.246-.908.492-1.366.73-.125.064-.134.128-.069.245.16.291.318.584.462.884.068.144.135.158.268.085.689-.377,1.385-.739,2.07-1.123.193-.108.275-.059.35.126.066.166.157.322.253.511Z" transform="translate(172.842 -93.62)" fill="#165dad"/>
          <path id="Path_44844" data-name="Path 44844" d="M-128.176,166.746c.018-.4.029-.741.051-1.086.02-.311.055-.621.076-.933.057-.894.11-1.789.165-2.684.011-.173.02-.348.046-.519a.2.2,0,0,1,.115-.134c.28-.093.562-.18.848-.251a.251.251,0,0,1,.212.078c.725,1.023,1.442,2.051,2.161,3.077.261.373.525.745.806,1.141-.328.1-.625.2-.928.276-.047.012-.136-.051-.173-.1-.153-.214-.284-.445-.442-.654a.275.275,0,0,0-.231-.092c-.51.137-1.015.294-1.522.443a.206.206,0,0,0-.17.221c0,.258-.03.515-.034.772,0,.116-.035.173-.151.2C-127.61,166.569-127.868,166.654-128.176,166.746Zm2.387-2.633a19.246,19.246,0,0,0-1.22-1.748,18.407,18.407,0,0,0-.075,2.136Z" transform="translate(171.188 -96.84)" fill="#165dad"/>
          <path id="Path_44845" data-name="Path 44845" d="M-154.981,105.551a1.781,1.781,0,0,1,.317.91,2.041,2.041,0,0,1-1.189,2.122,1.973,1.973,0,0,1-2.308-.232,3.389,3.389,0,0,1-1.342-2.012,1.927,1.927,0,0,1,.345-1.636,2.253,2.253,0,0,1,1.953-1.012,1.7,1.7,0,0,1,1.153.516c-.235.2-.459.4-.695.586-.034.027-.134,0-.183-.027a.977.977,0,0,0-1.3.159,1.112,1.112,0,0,0-.319,1.229,2.785,2.785,0,0,0,1.338,1.624,1.116,1.116,0,0,0,1.622-.717,1.593,1.593,0,0,0-.061-.706.259.259,0,0,1,.09-.318C-155.368,105.887-155.187,105.726-154.981,105.551Z" transform="translate(173.193 -93.849)" fill="#165dad"/>
          <path id="Path_44846" data-name="Path 44846" d="M-134.163,167.478l-.94.062c-.02-.14-.048-.274-.057-.41-.057-.838-.11-1.676-.165-2.514-.041-.624-.081-1.247-.128-1.871-.014-.174.032-.237.221-.245.6-.023,1.192-.082,1.787-.109a3.059,3.059,0,0,1,.756.046,1.28,1.28,0,0,1,1.016,1.3,4.158,4.158,0,0,1-.022.748,1.1,1.1,0,0,1-.88.961,6.372,6.372,0,0,1-.954.137c-.19.023-.383.037-.575.044-.169.006-.2.095-.187.246.029.263.048.526.068.79S-134.185,167.185-134.163,167.478Zm.65-4.3c-.32.028-.538.049-.757.064-.119.008-.174.057-.165.183.03.422.051.846.091,1.266a.208.208,0,0,0,.151.138,9.853,9.853,0,0,0,1-.084.654.654,0,0,0,.549-.55c.061-.453-.049-.793-.349-.921A2.064,2.064,0,0,0-133.514,163.18Z" transform="translate(171.653 -96.905)" fill="#165dad"/>
          <path id="Path_44847" data-name="Path 44847" d="M-154.153,158.608l-.76-.6c.017-.061.03-.127.051-.19a1.006,1.006,0,0,0-.308-1.13,1.042,1.042,0,0,0-1.253-.233,2.7,2.7,0,0,0-1.464,1.864,1.066,1.066,0,0,0,.432,1.1.931.931,0,0,0,1.2.107.37.37,0,0,1,.55.044c.14.139.306.252.481.393-.075.064-.128.116-.187.158a2.054,2.054,0,0,1-2.987-.482,1.93,1.93,0,0,1-.381-1.743,3.409,3.409,0,0,1,1.531-2.121,2.129,2.129,0,0,1,2.977.673,1.912,1.912,0,0,1,.283,1.818,1.318,1.318,0,0,1-.066.175A1.779,1.779,0,0,1-154.153,158.608Z" transform="translate(173.148 -96.542)" fill="#165dad"/>
          <path id="Path_44848" data-name="Path 44848" d="M-125.749,97.487c-.049.2-.1.385-.139.574-.034.146-.1.177-.251.138-.683-.175-1.371-.336-2.058-.5a1.437,1.437,0,0,0-.2-.018c-.088.361-.175.716-.26,1.071-.036.148.083.154.171.175.466.115.933.223,1.4.337.18.045.356.1.551.151-.049.223-.086.441-.15.649-.013.041-.133.082-.192.069-.589-.13-1.177-.263-1.761-.414-.2-.051-.259.023-.3.193-.122.534-.255,1.065-.37,1.6-.039.181-.084.274-.295.2s-.449-.118-.7-.18c.037-.185.069-.358.11-.531q.326-1.386.655-2.772c.11-.465.221-.93.326-1.4.025-.109.052-.186.187-.154l3.2.769A.549.549,0,0,1-125.749,97.487Z" transform="translate(171.324 -93.484)" fill="#165dad"/>
          <path id="Path_44849" data-name="Path 44849" d="M-112.107,158.409c-.393-.436-.765-.856-1.147-1.265a.784.784,0,0,0-.305-.2c-1.018-.355-2.039-.7-3.058-1.049a.836.836,0,0,1-.084-.037c.264-.242.511-.48.774-.7a.3.3,0,0,1,.246,0c.626.248,1.249.506,1.873.76.055.022.112.04.2.071a2.106,2.106,0,0,0-.044-.223c-.2-.642-.4-1.284-.608-1.924a.255.255,0,0,1,.077-.324c.227-.19.439-.4.679-.621.107.413.212.8.309,1.2.171.693.334,1.388.509,2.08a.722.722,0,0,0,.156.285c.328.375.66.746,1,1.109.117.124.128.2-.011.317C-111.727,158.05-111.9,158.224-112.107,158.409Z" transform="translate(170.454 -96.412)" fill="#165dad"/>
          <path id="Path_44850" data-name="Path 44850" d="M-140.335,96.289-136.4,96c.016.253.032.486.044.72.007.134-.085.133-.18.136-.329.015-.658.03-.986.052-.3.021-.3.026-.285.321.061,1.02.12,2.039.183,3.059.014.221.039.443.061.664.011.118-.023.179-.155.182-.2,0-.4.022-.6.043-.151.016-.217-.052-.228-.2-.019-.248-.043-.5-.058-.746-.062-.992-.124-1.983-.177-2.975-.01-.181-.054-.259-.257-.24-.375.037-.754.039-1.131.065-.126.009-.177-.03-.174-.158C-140.331,96.727-140.335,96.527-140.335,96.289Z" transform="translate(171.965 -93.449)" fill="#165dad"/>
          <path id="Path_44851" data-name="Path 44851" d="M-122.018,98.878c-.156.391-.3.752-.443,1.111q-.654,1.632-1.311,3.263c-.119.295-.12.293-.411.166-.2-.085-.391-.168-.611-.262l1.873-4.655Z" transform="translate(170.971 -93.579)" fill="#165dad"/>
          <path id="Path_44852" data-name="Path 44852" d="M-133.363,96.093l.965.093c-.043.481-.085.928-.122,1.377q-.06.737-.113,1.475c-.047.637-.091,1.275-.137,1.912-.012.162-.077.255-.261.23s-.4-.023-.594-.055a.206.206,0,0,1-.13-.151c.01-.292.043-.582.065-.873.058-.775.111-1.552.173-2.328C-133.472,97.222-133.416,96.67-133.363,96.093Z" transform="translate(171.544 -93.454)" fill="#165dad"/>
          <path id="Path_44853" data-name="Path 44853" d="M-121.494,127.14c-.066.747-.122,1.495-.2,2.241a1.4,1.4,0,0,1-1.06,1.268,3.151,3.151,0,0,1-1.765.056,1.422,1.422,0,0,1-1.189-1.262,11.013,11.013,0,0,1-.255-2.481c.063-.712.144-1.424.254-2.129a1.157,1.157,0,0,1,.72-.884,2.837,2.837,0,0,1,2.433-.047,1.42,1.42,0,0,1,.815,1.061A11.448,11.448,0,0,1-121.494,127.14Z" transform="translate(171.047 -94.888)" fill="#165dad"/>
          <path id="Path_44854" data-name="Path 44854" d="M-139.966,137.6c.44-.088.837-.19,1.24-.245.67-.091,1.345-.151,2.017-.228.167-.019.208.049.207.211q-.01,1.554,0,3.107c0,.152-.04.21-.2.21a2.252,2.252,0,0,0-.529.059.553.553,0,0,1-.5-.1,5.99,5.99,0,0,1-1.642-1.9C-139.571,138.362-139.753,138-139.966,137.6Z" transform="translate(171.941 -95.59)" fill="#165dad"/>
          <path id="Path_44855" data-name="Path 44855" d="M-132.221,137.606a8.3,8.3,0,0,1-1.046,1.823c-.249.321-.541.608-.818.906a1.03,1.03,0,0,1-1.161.337l-.02-.006c-.359-.066-.359-.066-.359-.432,0-.954.006-1.906,0-2.859,0-.206.059-.261.257-.251A16.242,16.242,0,0,1-132.221,137.606Z" transform="translate(171.664 -95.59)" fill="#165dad"/>
          <path id="Path_44856" data-name="Path 44856" d="M-139.4,142.448a5.879,5.879,0,0,1,6.442-.015A13.763,13.763,0,0,1-139.4,142.448Z" transform="translate(171.905 -95.817)" fill="#165dad"/>
          <path id="Path_44857" data-name="Path 44857" d="M-129.313,138.729c-.349.309-.667.612-1.008.889a10.106,10.106,0,0,1-2.579,1.5.98.98,0,0,1-.832-.122c.161-.152.3-.28.438-.415a8.956,8.956,0,0,0,1.7-2.567c.071-.152.136-.2.29-.136.6.252,1.206.5,1.809.747C-129.444,138.646-129.4,138.679-129.313,138.729Z" transform="translate(171.543 -95.628)" fill="#165dad"/>
          <path id="Path_44858" data-name="Path 44858" d="M-138.487,141c-.277.108-.492.256-.8.136a9.908,9.908,0,0,1-3.012-1.851c-.185-.166-.365-.337-.546-.508-.014-.013-.018-.036-.036-.076.269-.125.532-.26.8-.372.374-.155.758-.286,1.134-.439.169-.069.244-.029.323.141a8.58,8.58,0,0,0,1.806,2.669C-138.715,140.791-138.612,140.88-138.487,141Z" transform="translate(172.127 -95.628)" fill="#165dad"/>
          <path id="Path_44859" data-name="Path 44859" d="M-144.984,139.947c.447-.282.874-.555,1.31-.815.039-.024.152.027.2.075a10.467,10.467,0,0,0,1.9,1.563c.524.326,1.074.61,1.62.917-.192.134-.4.28-.607.419a.152.152,0,0,1-.114.007,14.4,14.4,0,0,1-4.17-2.042C-144.886,140.043-144.918,140.008-144.984,139.947Z" transform="translate(172.262 -95.694)" fill="#165dad"/>
          <path id="Path_44860" data-name="Path 44860" d="M-132.308,141.687c.538-.3,1.074-.586,1.589-.9a9.546,9.546,0,0,0,1.9-1.562.216.216,0,0,1,.329-.042c.391.256.789.5,1.239.781-.372.244-.688.461-1.015.662a13.654,13.654,0,0,1-3.287,1.467.253.253,0,0,1-.185-.012C-131.935,141.956-132.124,141.816-132.308,141.687Z" transform="translate(171.452 -95.694)" fill="#165dad"/>
          <path id="Path_44861" data-name="Path 44861" d="M-136.508,117.568a13.584,13.584,0,0,1-3.5-.479c.244-.453.452-.883.7-1.289a5.857,5.857,0,0,1,1.514-1.743.46.46,0,0,1,.4-.091c.247.05.5.064.751.11a.2.2,0,0,1,.13.137C-136.506,115.325-136.508,116.437-136.508,117.568Z" transform="translate(171.944 -94.384)" fill="#165dad"/>
          <path id="Path_44862" data-name="Path 44862" d="M-132.178,117.06a11.224,11.224,0,0,1-3.433.491c0-.051-.013-.1-.013-.158,0-1.029,0-2.06,0-3.089,0-.168.051-.237.212-.253.252-.027.5-.082.752-.1a.5.5,0,0,1,.3.1,6.118,6.118,0,0,1,1.653,1.974C-132.526,116.364-132.361,116.707-132.178,117.06Z" transform="translate(171.664 -94.384)" fill="#165dad"/>
          <path id="Path_44863" data-name="Path 44863" d="M-139.543,112.315a14.722,14.722,0,0,1,6.686-.007A5.907,5.907,0,0,1-139.543,112.315Z" transform="translate(171.914 -94.278)" fill="#165dad"/>
          <path id="Path_44864" data-name="Path 44864" d="M-138.568,113.716c-.232.231-.474.447-.685.689a8.83,8.83,0,0,0-1.4,2.271c-.072.164-.152.224-.327.15-.6-.255-1.2-.5-1.8-.753a1.417,1.417,0,0,1-.174-.105c.223-.211.425-.414.638-.6a9.77,9.77,0,0,1,2.742-1.741A.851.851,0,0,1-138.568,113.716Z" transform="translate(172.132 -94.36)" fill="#165dad"/>
          <path id="Path_44865" data-name="Path 44865" d="M-129.236,115.986c-.386.177-.725.343-1.072.49-.3.127-.619.227-.924.35-.166.065-.246.037-.327-.14a8.957,8.957,0,0,0-1.749-2.658c-.106-.108-.221-.206-.344-.32a1.029,1.029,0,0,1,.971-.114,10.478,10.478,0,0,1,2.838,1.824C-129.651,115.594-129.462,115.774-129.236,115.986Z" transform="translate(171.538 -94.361)" fill="#165dad"/>
          <path id="Path_44866" data-name="Path 44866" d="M-132.239,113.022c.212-.155.4-.3.6-.43a.242.242,0,0,1,.177,0,14.55,14.55,0,0,1,4.167,2.091.854.854,0,0,1,.075.08c-.438.274-.864.546-1.3.8-.045.026-.163-.027-.219-.077-.427-.372-.834-.766-1.27-1.125a8.859,8.859,0,0,0-2.1-1.266C-132.144,113.08-132.177,113.058-132.239,113.022Z" transform="translate(171.447 -94.312)" fill="#165dad"/>
          <path id="Path_44867" data-name="Path 44867" d="M-143.672,115.643l-1.382-.9c.281-.193.522-.371.774-.532a15.058,15.058,0,0,1,3.345-1.582.417.417,0,0,1,.486.081,3.52,3.52,0,0,0,.44.315A11.053,11.053,0,0,0-143.672,115.643Z" transform="translate(172.266 -94.313)" fill="#165dad"/>
          <path id="Path_44868" data-name="Path 44868" d="M-151.591,146.013c-.011.118-.022.235-.036.352a1.037,1.037,0,0,1-1.648.649.953.953,0,0,1-.364-.761,1.359,1.359,0,0,1,.233-1.01,1.03,1.03,0,0,1,1.194-.3.953.953,0,0,1,.609.884c0,.063,0,.125,0,.188Z" transform="translate(172.816 -95.993)" fill="#165dad"/>
          <path id="Path_44869" data-name="Path 44869" d="M-149.1,146.911c.042-.308.072-.733.164-1.142a1.014,1.014,0,0,1,.71-.865.855.855,0,0,1,.956.355,2.088,2.088,0,0,1,.319,1,5.768,5.768,0,0,1-.08,1.968,1.093,1.093,0,0,1-.772.938.9.9,0,0,1-.863-.3,1.98,1.98,0,0,1-.358-.985C-149.058,147.6-149.067,147.311-149.1,146.911Z" transform="translate(172.525 -95.993)" fill="#165dad"/>
          <path id="Path_44870" data-name="Path 44870" d="M-142.307,147.035a4.318,4.318,0,0,1-.28,1.586.889.889,0,0,1-.818.57.861.861,0,0,1-.828-.581,3.756,3.756,0,0,1-.189-.679,4.907,4.907,0,0,1,.067-2.148,1.042,1.042,0,0,1,.68-.869.856.856,0,0,1,1.047.44A3.927,3.927,0,0,1-142.307,147.035Z" transform="translate(172.232 -95.993)" fill="#165dad"/>
          <path id="Path_44871" data-name="Path 44871" d="M-126.266,146.886a4.551,4.551,0,0,1-.257,1.678.892.892,0,0,1-.843.626.854.854,0,0,1-.846-.617,3.892,3.892,0,0,1-.233-1.9,6.949,6.949,0,0,1,.212-1.119.842.842,0,0,1,.817-.674.861.861,0,0,1,.9.627,2.056,2.056,0,0,1,.15.453C-126.317,146.313-126.288,146.672-126.266,146.886Z" transform="translate(171.207 -95.993)" fill="#165dad"/>
        </g>
      </g>
      <rect id="Rectangle_52503" data-name="Rectangle 52503" width="39.638" height="7.805" rx="3" transform="translate(16.102 47.429)" fill="#165dad"/>
      <text id="_45001:2018" data-name="45001:2018" transform="translate(17.479 54.084)" fill="#fff" font-size="7" font-family="Helvetica-Bold, Helvetica" font-weight="700"><tspan x="0" y="0">45001:2018</tspan></text>
    </g>
  </g>
</svg>
