<svg id="Masaha-Logo" xmlns="http://www.w3.org/2000/svg" xmlns:xlink="http://www.w3.org/1999/xlink" width="365.451" height="224.922" viewBox="0 0 365.451 224.922">
  <defs>
    <clipPath id="clip-path">
      <rect id="Rectangle_51552" data-name="Rectangle 51552" width="365.451" height="224.922" fill="#ed1c24"/>
    </clipPath>
  </defs>
  <g id="Group_53307" data-name="Group 53307" clip-path="url(#clip-path)">
    <path id="Path_38199" data-name="Path 38199" d="M62.547,0,149.1.143s11.871,30.966-1.892,64.667c0,0-53.469-63.851-112.071-15.488Z" transform="translate(69.53 0.001)" fill="#ed1c24" fill-rule="evenodd"/>
    <path id="Path_38200" data-name="Path 38200" d="M152.169,55.723l-42.608,75.338S76.757,126.2,54.15,97.673c0,0,81.873-15.246,68.5-90.042Z" transform="translate(107.16 15.102)" fill="#ed1c24" fill-rule="evenodd"/>
    <path id="Path_38201" data-name="Path 38201" d="M73.451,118.687l-42.6-75.343s21.07-25.61,57.172-30.275c0,0-29.137,78.019,41.851,105.115Z" transform="translate(61.06 25.864)" fill="#ed1c24" fill-rule="evenodd"/>
    <path id="Path_38202" data-name="Path 38202" d="M52.759,13.287S83.4,19.617,109.66,46.6" transform="translate(104.407 26.295)" fill="#ed1c24" fill-rule="evenodd"/>
    <path id="Path_38203" data-name="Path 38203" d="M110,24.614s-20.876,23.3-57.4,32.441" transform="translate(104.085 48.711)" fill="#ed1c24" fill-rule="evenodd"/>
    <path id="Path_38204" data-name="Path 38204" d="M55.4,13.288s-10.012,29.64.012,65.936" transform="translate(100.842 26.297)" fill="#ed1c24" fill-rule="evenodd"/>
    <path id="Path_38205" data-name="Path 38205" d="M36.34,59.476l-8.5,26.286L19.345,59.476H0v47.747H14V79.009l7.847,24.237H33.841l7.838-24.237v28.214h14V59.476Z" transform="translate(0 117.7)" fill="#ed1c24" fill-rule="evenodd"/>
    <path id="Path_38206" data-name="Path 38206" d="M55.695,86.893H45.051l5.332-12.669ZM39.888,99.2H60.866l3.366,8H81.063L58.816,59.481H41.947L19.694,107.2H36.531Z" transform="translate(38.973 117.71)" fill="#ed1c24" fill-rule="evenodd"/>
    <path id="Path_38207" data-name="Path 38207" d="M79.773,76.638l-23.611,0a1.862,1.862,0,0,1,0-3.724H93.247V59.476H56.162a15.292,15.292,0,0,0,0,30.585H79.773v.006a1.86,1.86,0,1,1,0,3.721H42.7v13.435h37.07a15.292,15.292,0,1,0,0-30.585" transform="translate(80.881 117.701)" fill="#ed1c24" fill-rule="evenodd"/>
    <path id="Path_38208" data-name="Path 38208" d="M95.644,86.893H85l5.332-12.669ZM79.837,99.2h20.978l3.366,8h16.831L98.765,59.481H81.9L59.643,107.2H76.48Z" transform="translate(118.03 117.71)" fill="#ed1c24" fill-rule="evenodd"/>
    <path id="Path_38209" data-name="Path 38209" d="M118.627,59.551V76.984H95.257V59.551H81.316v47.3H95.257V89.412h23.37V106.85h13.938v-47.3Z" transform="translate(160.919 117.849)" fill="#ed1c24" fill-rule="evenodd"/>
    <path id="Path_38210" data-name="Path 38210" d="M135.592,86.893H124.948l5.332-12.669ZM119.785,99.2h20.978l3.366,8H160.96L138.713,59.481h-16.87L99.591,107.2h16.837Z" transform="translate(197.085 117.71)" fill="#ed1c24" fill-rule="evenodd"/>
    <path id="Path_38211" data-name="Path 38211" d="M124.48,58.212a5.5,5.5,0,1,0,5.5,5.5,5.5,5.5,0,0,0-5.5-5.5m0,10.42a4.924,4.924,0,1,1,4.927-4.924,4.93,4.93,0,0,1-4.927,4.924m1.43-4.3a2.312,2.312,0,0,0-.53-.331,2.306,2.306,0,0,0,1.406-.611,1.676,1.676,0,0,0,.453-1.189,1.812,1.812,0,0,0-.28-.989,1.481,1.481,0,0,0-.724-.635,4.054,4.054,0,0,0-1.341-.176h-2.928v6.6h.87V64.081h1.022a3.04,3.04,0,0,1,.48.027,1.386,1.386,0,0,1,.4.176,1.869,1.869,0,0,1,.441.444c.167.212.378.509.632.909l.873,1.37h1.1l-1.144-1.8a4.763,4.763,0,0,0-.727-.873m-1.195-1.016h-1.88V61.137h2.091a1.565,1.565,0,0,1,1.069.3.963.963,0,0,1,.346.766,1.067,1.067,0,0,1-.179.593.982.982,0,0,1-.509.4,2.73,2.73,0,0,1-.938.125" transform="translate(235.469 115.199)" fill="#ed1c24"/>
  </g>
</svg>
