<svg id="Masaha-Footer-Certifications-icon-4" xmlns="http://www.w3.org/2000/svg" xmlns:xlink="http://www.w3.org/1999/xlink" width="100" height="100" viewBox="0 0 100 100">
  <defs>
    <clipPath id="clip-path">
      <rect id="Rectangle_52500" data-name="Rectangle 52500" width="100" height="100" transform="translate(0.252)" fill="#fff" stroke="#707070" stroke-width="1"/>
    </clipPath>
  </defs>
  <g id="Mask_Group_18893" data-name="Mask Group 18893" transform="translate(-0.252)" clip-path="url(#clip-path)">
    <g id="JONjD8" transform="translate(13.314 13.38)">
      <g id="Group_56274" data-name="Group 56274" transform="translate(0 0)">
        <path id="Path_44761" data-name="Path 44761" d="M-101.371,129.7a36.359,36.359,0,0,1-36.616,36.386,36.412,36.412,0,0,1-36.137-36.292A36.412,36.412,0,0,1-137.61,93.309,36.361,36.361,0,0,1-101.371,129.7Zm-36.38,35.647a35.649,35.649,0,0,0,35.666-35.841,35.646,35.646,0,0,0-35.824-35.457,35.638,35.638,0,0,0-35.487,35.58A35.642,35.642,0,0,0-137.751,165.346Z" transform="translate(174.124 -93.309)" fill="#165dad"/>
        <path id="Path_44762" data-name="Path 44762" d="M-110.008,130.229a27.209,27.209,0,0,1-27.824,27.208,27.232,27.232,0,0,1-26.642-27.268,27.2,27.2,0,0,1,27.246-27.216A27.181,27.181,0,0,1-110.008,130.229Zm-22.929-3.726c.028.28.078.84.148,1.4a5.024,5.024,0,0,0,.155.669,5.559,5.559,0,0,0,3.038,3.7,8.87,8.87,0,0,0,3.89.865,9.232,9.232,0,0,0,3.305-.575,5.343,5.343,0,0,0,2.691-2.019,7.277,7.277,0,0,0,1.041-2.834,8.315,8.315,0,0,0,.1-2.181,9.075,9.075,0,0,0-.545-2.6,5.183,5.183,0,0,0-2.8-2.887,9.494,9.494,0,0,0-2.67-.768,8.378,8.378,0,0,0-2.221-.023,9.766,9.766,0,0,0-2.814.793,5.032,5.032,0,0,0-2.532,2.439A9.16,9.16,0,0,0-132.937,126.5Zm-9.911,5.432.214.1c.4.187.8.407,1.212.555a8.316,8.316,0,0,0,4.012.471,5.668,5.668,0,0,0,2.2-.721,3.883,3.883,0,0,0,1.989-3.556,4.158,4.158,0,0,0-1.842-3.285,6.3,6.3,0,0,0-2.123-.938c-1.3-.378-2.6-.754-3.9-1.14a2.147,2.147,0,0,1-.578-.275.356.356,0,0,1,.027-.644,1.806,1.806,0,0,1,.7-.212,7.81,7.81,0,0,1,1.141.058,4.6,4.6,0,0,1,3.222,1.679.332.332,0,0,0,.221.12c.828.009,1.657,0,2.486.007.124,0,.172-.046.172-.173q0-2.1,0-4.2c0-.133-.059-.166-.177-.166q-1.264,0-2.528,0c-.124,0-.177.049-.174.173,0,.164,0,.327,0,.523-.1-.046-.169-.081-.238-.108-.61-.249-1.206-.545-1.834-.734a7.817,7.817,0,0,0-2.455-.242,6.354,6.354,0,0,0-2.16.389A4.064,4.064,0,0,0-145.222,121a4.222,4.222,0,0,0-.678,1.62,3.732,3.732,0,0,0,.359,2.627,4.457,4.457,0,0,0,2.411,2.029c.9.342,1.833.6,2.755.885.774.244,1.555.47,2.327.722a1.62,1.62,0,0,1,.519.291.244.244,0,0,1,0,.427,1.328,1.328,0,0,1-.465.254,4.563,4.563,0,0,1-2.431-.046,3.983,3.983,0,0,1-2.64-1.783.32.32,0,0,0-.234-.125c-.78-.009-1.559,0-2.34-.007-.141,0-.2.047-.2.193q.006,2.267,0,4.533c0,.157.065.21.21.21q1.284,0,2.569,0c.148,0,.216-.059.211-.212C-142.853,132.4-142.848,132.187-142.848,131.934Zm-5.682-2.414a.717.717,0,0,1-.014-.092q0-3.259,0-6.517c0-.189.073-.239.247-.236.466.008.934,0,1.4,0,.18,0,.258-.048.256-.25q-.016-1.409,0-2.819c0-.2-.069-.245-.254-.245q-4.02.007-8.041,0c-.207,0-.258.07-.256.265.009.849,0,1.7,0,2.548,0,.537-.093.5.5.5h1.4c0,.062.01.1.01.141q0,3.259,0,6.517c0,.167-.067.2-.211.2-.494-.006-.989,0-1.483,0-.171,0-.231.061-.23.233.006.939.008,1.88,0,2.819,0,.2.077.251.258.25q4.021,0,8.041,0c.184,0,.255-.051.253-.249q-.016-1.4,0-2.8c0-.214-.062-.273-.271-.267C-147.448,129.529-147.984,129.52-148.53,129.52Zm15.715,5.9c.118-.325.234-.636.341-.951a.223.223,0,0,0-.012-.187c-.14-.136-.575,0-.642.185-.072.2-.149.4-.221.607-.049.137-.117.2-.281.139a3.648,3.648,0,0,0-.686-.168q-1.3-.176-2.6-.323c-.16-.018-.215-.064-.213-.226,0-.245-.016-.243-.358-.25-.183,0-.28.044-.25.245.02.133-.008.216-.18.227a15.949,15.949,0,0,0-3.39.507c-.123.035-.183,0-.222-.11-.077-.216-.162-.429-.23-.648a.269.269,0,0,0-.323-.219,1.694,1.694,0,0,1-.209,0c-.144,0-.182.057-.13.2.118.318.225.639.342.977-.067.029-.135.06-.2.087-.654.269-1.314.526-1.961.813a.274.274,0,0,1-.4-.1c-.406-.574-.818-1.141-1.218-1.718a.6.6,0,0,0-.816-.191,13.847,13.847,0,0,0,1.641,2.4c-.455.3-.894.583-1.319.883a.224.224,0,0,1-.325-.018,15.168,15.168,0,0,1-2.862-3.1.651.651,0,0,0-.817-.167,15.193,15.193,0,0,0,15.43,6.935,14.988,14.988,0,0,0,8.559-4.538,13.168,13.168,0,0,0,1.893-2.455,5.806,5.806,0,0,0-.588.006.369.369,0,0,0-.218.13c-.378.48-.714,1-1.13,1.444-.584.623-1.223,1.193-1.847,1.778a.249.249,0,0,1-.23.008c-.2-.116-.378-.259-.57-.385-.26-.17-.522-.334-.8-.509a13.161,13.161,0,0,0,1.649-2.419.62.62,0,0,0-.865.275c-.381.564-.791,1.108-1.185,1.664a.252.252,0,0,1-.383.083,8.276,8.276,0,0,0-.794-.368C-131.887,135.772-132.341,135.6-132.815,135.417Zm-13.9-17.4c.193,0,.331-.009.467,0a.349.349,0,0,0,.35-.192c.406-.6.833-1.181,1.248-1.773a.2.2,0,0,1,.3-.066c.31.155.626.3.947.435.372.153.751.289,1.13.425.14.05.186.112.116.262a5.027,5.027,0,0,0-.2.546c-.122.361-.119.349.251.366a.318.318,0,0,0,.373-.265c.065-.225.156-.442.236-.662.357.085.683.193,1.018.238.86.114,1.722.2,2.584.3.1.011.185.03.166.155-.032.21.077.253.253.235a1.237,1.237,0,0,1,.188,0c.112,0,.181-.046.168-.159-.027-.217.1-.219.264-.234.7-.066,1.409-.132,2.109-.23.457-.064.905-.186,1.377-.286.068.188.139.374.206.563.134.382.061.345.468.346.293,0,.305-.012.209-.295-.091-.266-.192-.529-.278-.763.758-.326,1.493-.636,2.222-.96.149-.066.238-.058.331.075.388.552.788,1.095,1.166,1.652a.618.618,0,0,0,.842.23,13.351,13.351,0,0,0-1.6-2.348l.224-.146c.349-.229.706-.446,1.042-.693a.289.289,0,0,1,.428.018,15.312,15.312,0,0,1,2.813,3.094c.033.049.085.118.132.121.2.013.41.006.623.006a13.477,13.477,0,0,0-3.486-3.936,15.071,15.071,0,0,0-10.737-3.176A14.976,14.976,0,0,0-148,115.054a14.429,14.429,0,0,0-2.414,2.962,4.443,4.443,0,0,1,.459,0,.4.4,0,0,0,.425-.224c.121-.194.265-.373.4-.557a14.9,14.9,0,0,1,2.429-2.519.2.2,0,0,1,.275,0c.386.262.776.515,1.165.771.055.037.108.076.17.118A14.224,14.224,0,0,0-146.719,118.017Zm-5.336,27.3a2.706,2.706,0,0,1-.521,1.436.919.919,0,0,1-1.527-.222c-.048-.123-.064-.3-.155-.355s-.269-.02-.409-.023c-.034,0-.069,0-.1,0-.144-.011-.193.071-.164.193a2.868,2.868,0,0,0,.161.536,1.757,1.757,0,0,0,2.946.053,4.5,4.5,0,0,0,.354-3.817,1.851,1.851,0,0,0-2.828-.777,1.965,1.965,0,0,0-.692,1.644,1.7,1.7,0,0,0,2.141,1.686A5.063,5.063,0,0,0-152.055,145.314Zm1.318-.285a10.153,10.153,0,0,0,.277,1.375,1.686,1.686,0,0,0,2.194,1.223,1.743,1.743,0,0,0,1.235-1.394,5.2,5.2,0,0,0,.049-2.595,1.864,1.864,0,0,0-1.648-1.649,1.637,1.637,0,0,0-1.535.7A4.481,4.481,0,0,0-150.737,145.029Zm8.25-.379a11.359,11.359,0,0,0-.244-1.325,1.709,1.709,0,0,0-2.065-1.306,1.67,1.67,0,0,0-1.321,1.251,4.939,4.939,0,0,0-.092,2.852A1.792,1.792,0,0,0-144.5,147.7a1.613,1.613,0,0,0,1.5-.755A4.548,4.548,0,0,0-142.488,144.65Zm15.188.209a4.517,4.517,0,0,0-.373-1.895,1.7,1.7,0,0,0-1.608-.99,1.7,1.7,0,0,0-1.574,1.138,4.154,4.154,0,0,0-.287,1.3,4.512,4.512,0,0,0,.315,2.226,1.592,1.592,0,0,0,1.613,1.065,1.63,1.63,0,0,0,1.577-1.058A4.591,4.591,0,0,0-127.3,144.859Zm5.785-.645c.078-.452.141-.855.224-1.253.009-.045.125-.094.192-.095.543-.008,1.085,0,1.629,0,.582,0,.505.075.519-.529,0-.182-.058-.241-.241-.24q-1.231.013-2.463,0c-.192,0-.259.073-.276.248-.028.29-.064.58-.105.868-.082.584-.173,1.166-.252,1.751-.007.049.042.152.075.155.259.036.5.111.742-.142a1.181,1.181,0,0,1,1.835.207,1.359,1.359,0,0,1-.058,1.376,1.066,1.066,0,0,1-1.132.457.929.929,0,0,1-.794-.532c-.053-.118-.065-.292-.155-.347s-.268-.024-.408-.027c-.048,0-.1,0-.146,0-.132-.009-.179.056-.157.177a1.7,1.7,0,0,0,.409.9,1.823,1.823,0,0,0,1.444.519,2.065,2.065,0,0,0,1.17-.314,1.927,1.927,0,0,0,.763-1.2,1.805,1.805,0,0,0-1.095-2.116A2,2,0,0,0-121.514,144.215Zm-13.21,2.6c.047-.106.075-.184.115-.254a2.059,2.059,0,0,1,.853-.744c.382-.214.768-.421,1.141-.649a1.731,1.731,0,0,0,.523-2.562,2.048,2.048,0,0,0-2.481-.38,1.763,1.763,0,0,0-.865,1.484c-.035.3-.023.326.283.322.507,0,.458.074.538-.446a.881.881,0,0,1,.7-.858,1.086,1.086,0,0,1,1.186.349,1.037,1.037,0,0,1-.228,1.414,12.24,12.24,0,0,1-1.1.676,2.537,2.537,0,0,0-1.505,2.124c-.017.252-.03.253.233.253,1.058,0,2.116,0,3.174,0,.473,0,.422.064.425-.421,0-.307,0-.308-.311-.308Zm-4.687-2.018h.006c0-.842.007-1.684,0-2.526,0-.3-.021-.3-.326-.3-.145,0-.282-.025-.341.18-.192.668-.491.787-1.124.857-.285.031-.287.016-.305.3,0,.034,0,.069-.008.1-.013.168.041.259.233.25.271-.012.544.007.814-.007.183-.009.24.049.238.235-.009,1.017,0,2.033,0,3.05,0,.617,0,.612.62.607.154,0,.2-.046.2-.2C-139.414,146.5-139.411,145.65-139.411,144.8Zm14.384-1.138v3.289c0,.616,0,.612.622.6.142,0,.211-.045.2-.191a.457.457,0,0,1,0-.063q0-2.537,0-5.073c0-.076-.013-.185-.063-.223a.454.454,0,0,0-.609.2.954.954,0,0,1-.713.74,2.413,2.413,0,0,1-.492.068c-.173,0-.243.073-.228.24,0,.048,0,.1,0,.146,0,.256.014.267.277.268C-125.716,143.665-125.39,143.663-125.027,143.663Zm-11.8-.228c-.512.007-.436-.06-.444.439,0,.021,0,.042,0,.063.009.439-.087.431.419.424.468-.006.464.1.466-.471C-136.384,143.436-136.385,143.436-136.826,143.436Zm-.444,3.655c0,.458,0,.458.4.458.5,0,.509,0,.478-.495-.03-.47.06-.411-.423-.411C-137.339,146.643-137.262,146.573-137.27,147.091Z" transform="translate(173.622 -93.811)" fill="#165dad"/>
        <path id="Path_44763" data-name="Path 44763" d="M-139.762,163.11c-.039.08-.083.156-.117.239q-.737,1.792-1.468,3.586c-.054.132-.111.161-.249.121a4.164,4.164,0,0,0-.611-.118c-.133-.016-.173-.076-.179-.2-.017-.334-.05-.665-.066-1-.036-.742-.063-1.485-.1-2.228-.014-.295-.04-.589-.06-.883l-.066-.009c-.035.18-.074.36-.1.541-.2,1.156-.389,2.313-.589,3.469a.171.171,0,0,1-.13.1c-.252-.038-.5-.092-.791-.148.067-.379.135-.744.2-1.111.184-1.1.354-2.206.552-3.3.113-.628-.024-.533.6-.448.262.035.519.091.781.12.145.017.179.082.186.216q.071,1.324.155,2.645c.024.374.056.748.086,1.121a1.627,1.627,0,0,0,.033.16,1.328,1.328,0,0,0,.1-.165c.478-1.148.956-2.295,1.428-3.446a.2.2,0,0,1,.254-.148c.415.075.83.153,1.266.232l-.844,4.956-.892-.16.695-4.125Z" transform="translate(172.571 -96.867)" fill="#165dad"/>
        <path id="Path_44764" data-name="Path 44764" d="M-121.034,160.243l1.779,3.17-.787.453-2.471-4.388c.3-.171.576-.337.864-.487.041-.022.128.018.181.05q1.6.95,3.187,1.9c.056.033.116.062.173.093l.052-.046-1.717-3.06.791-.448,2.469,4.389c-.28.157-.536.31-.8.444a.266.266,0,0,1-.2-.04q-1.116-.653-2.225-1.317c-.376-.224-.752-.45-1.128-.673A.857.857,0,0,0-121.034,160.243Z" transform="translate(171.437 -96.65)" fill="#165dad"/>
        <path id="Path_44765" data-name="Path 44765" d="M-147.018,161.73a3.343,3.343,0,0,1-1.406,2.7,2.083,2.083,0,0,1-2.051.134,2.511,2.511,0,0,1-1.036-.681,2.159,2.159,0,0,1-.5-1.765,3.851,3.851,0,0,1,.858-1.937,2.2,2.2,0,0,1,2.273-.692,2.363,2.363,0,0,1,1.841,1.8.773.773,0,0,1,.02.123C-147.016,161.52-147.018,161.626-147.018,161.73Zm-4.05.713a1.364,1.364,0,0,0,.849,1.313,1.253,1.253,0,0,0,1.452-.3,2.646,2.646,0,0,0,.775-1.751,1.225,1.225,0,0,0-.593-1.186,1.226,1.226,0,0,0-1.431-.02A2.678,2.678,0,0,0-151.067,162.443Z" transform="translate(172.974 -96.749)" fill="#165dad"/>
        <path id="Path_44766" data-name="Path 44766" d="M-116.412,108.008l3.451-3.648c.63.618,1.269,1.2,1.852,1.831a1.546,1.546,0,0,1,.3,1.659,3.421,3.421,0,0,1-2.064,2.08,1.773,1.773,0,0,1-1.937-.381c-.506-.466-1-.942-1.5-1.415A1,1,0,0,1-116.412,108.008Zm1.262.112c.314.283.6.574.922.827a.884.884,0,0,0,.835.127,2.769,2.769,0,0,0,1.7-1.636.732.732,0,0,0-.143-.819c-.265-.292-.561-.556-.831-.845-.12-.127-.191-.1-.3.011-.674.72-1.355,1.435-2.032,2.153C-115.049,107.987-115.089,108.043-115.15,108.12Z" transform="translate(171.12 -93.884)" fill="#165dad"/>
        <path id="Path_44767" data-name="Path 44767" d="M-145.148,102.47l-.919.27-1.37-4.846c.322-.093.632-.186.944-.271.547-.152,1.093-.313,1.646-.443a1.27,1.27,0,0,1,1.323.409,1.387,1.387,0,0,1,.288,1.436,2.474,2.474,0,0,1-.339.519s0,.02.013.022a1.033,1.033,0,0,1,.838.851c.053.215.134.423.2.636a.7.7,0,0,0,.433.539c-.117.045-.179.074-.246.092-.227.064-.459.112-.682.188a.216.216,0,0,1-.308-.153c-.117-.312-.222-.628-.332-.942-.018-.052-.034-.105-.055-.156a.583.583,0,0,0-.792-.41c-.337.085-.667.187-1,.281-.118.033-.169.082-.127.225C-145.467,101.288-145.315,101.864-145.148,102.47Zm-1.148-4.076c.131.46.241.867.368,1.269a.213.213,0,0,0,.179.1c.421-.114.844-.227,1.253-.373a.577.577,0,0,0,.4-.671c-.037-.438-.342-.772-.713-.7C-145.3,98.108-145.779,98.26-146.3,98.394Z" transform="translate(172.735 -93.508)" fill="#165dad"/>
        <path id="Path_44768" data-name="Path 44768" d="M-118.364,106.551l-3.239-1.97,2.613-4.3,3.136,1.907-.433.707-1.317-.8c-.273-.166-.549-.328-.819-.5-.132-.084-.208-.056-.281.077a6.032,6.032,0,0,1-.369.606c-.112.157-.064.239.082.326.586.349,1.168.7,1.751,1.057.052.032.1.066.164.105-.12.2-.239.388-.347.581-.07.124-.146.068-.225.021-.487-.295-.979-.584-1.461-.89s-.478-.315-.776.15c-.128.2-.244.406-.372.6-.059.092-.046.142.048.2.7.421,1.387.851,2.086,1.266.155.092.2.166.086.32S-118.248,106.363-118.364,106.551Z" transform="translate(171.39 -93.672)" fill="#165dad"/>
        <path id="Path_44769" data-name="Path 44769" d="M-151.712,105.405l-2.353-4.427c.172-.1.324-.191.482-.275.853-.453,1.709-.9,2.559-1.361.142-.077.222-.073.287.081a2.137,2.137,0,0,0,.189.372c.1.143.058.216-.082.289-.505.263-1.008.532-1.511.8-.178.095-.353.2-.534.285-.115.055-.134.118-.073.228.135.244.265.489.391.737.073.143.161.089.258.038l1.877-1c.03-.016.062-.03.122-.059l.38.706c-.223.121-.432.24-.646.354-.46.246-.92.492-1.383.73-.126.064-.136.128-.07.245.162.291.322.584.467.884.069.144.136.158.271.085.7-.377,1.4-.739,2.1-1.123.2-.108.279-.059.355.126.067.166.159.322.256.511Z" transform="translate(173.08 -93.62)" fill="#165dad"/>
        <path id="Path_44770" data-name="Path 44770" d="M-128.176,166.746c.018-.4.029-.741.051-1.086.02-.311.056-.621.077-.933.058-.894.111-1.789.167-2.684.011-.173.02-.348.046-.519a.2.2,0,0,1,.117-.134c.283-.093.569-.18.859-.251a.256.256,0,0,1,.215.078c.734,1.023,1.46,2.051,2.189,3.077.264.373.532.745.816,1.141-.332.1-.633.2-.939.276-.047.012-.137-.051-.175-.1-.155-.214-.287-.445-.447-.654a.28.28,0,0,0-.234-.092c-.517.137-1.028.294-1.541.443a.207.207,0,0,0-.173.221c0,.258-.03.515-.034.772a.176.176,0,0,1-.153.2C-127.6,166.569-127.864,166.654-128.176,166.746Zm2.417-2.633a19.246,19.246,0,0,0-1.235-1.748,18.17,18.17,0,0,0-.076,2.136Z" transform="translate(171.732 -96.84)" fill="#165dad"/>
        <path id="Path_44771" data-name="Path 44771" d="M-154.923,105.551a1.766,1.766,0,0,1,.321.91,2.036,2.036,0,0,1-1.2,2.122,2.017,2.017,0,0,1-2.338-.232,3.387,3.387,0,0,1-1.359-2.012,1.908,1.908,0,0,1,.35-1.636,2.29,2.29,0,0,1,1.977-1.012,1.733,1.733,0,0,1,1.168.516c-.238.2-.464.4-.7.586-.034.027-.136,0-.185-.027a1,1,0,0,0-1.314.159,1.1,1.1,0,0,0-.323,1.229,2.793,2.793,0,0,0,1.355,1.624,1.133,1.133,0,0,0,1.643-.717,1.574,1.574,0,0,0-.062-.706.257.257,0,0,1,.091-.318C-155.315,105.887-155.132,105.726-154.923,105.551Z" transform="translate(173.366 -93.849)" fill="#165dad"/>
        <path id="Path_44772" data-name="Path 44772" d="M-134.147,167.478l-.952.062c-.02-.14-.048-.274-.058-.41-.058-.838-.111-1.676-.167-2.514-.042-.624-.082-1.247-.13-1.871-.014-.174.032-.237.224-.245.6-.023,1.207-.082,1.81-.109a3.135,3.135,0,0,1,.766.046,1.284,1.284,0,0,1,1.029,1.3,4.106,4.106,0,0,1-.023.748,1.1,1.1,0,0,1-.891.961,6.531,6.531,0,0,1-.966.137c-.192.023-.388.037-.582.044-.172.006-.207.095-.19.246.029.263.048.526.069.79S-134.169,167.186-134.147,167.478Zm.658-4.3c-.324.028-.545.049-.767.064-.12.008-.176.057-.167.183.03.422.052.846.092,1.266a.21.21,0,0,0,.153.138,10.1,10.1,0,0,0,1.016-.084.659.659,0,0,0,.555-.55c.062-.453-.049-.793-.354-.921A2.114,2.114,0,0,0-133.489,163.18Z" transform="translate(172.111 -96.905)" fill="#165dad"/>
        <path id="Path_44773" data-name="Path 44773" d="M-154.094,158.608l-.77-.6c.017-.061.03-.127.052-.19a1,1,0,0,0-.312-1.13,1.065,1.065,0,0,0-1.269-.233,2.706,2.706,0,0,0-1.483,1.864,1.06,1.06,0,0,0,.437,1.1.952.952,0,0,0,1.213.107.378.378,0,0,1,.557.044c.142.139.31.252.487.393-.076.064-.13.116-.19.158a2.1,2.1,0,0,1-3.025-.482,1.911,1.911,0,0,1-.386-1.743,3.411,3.411,0,0,1,1.551-2.121,2.172,2.172,0,0,1,3.014.673,1.892,1.892,0,0,1,.286,1.818,1.306,1.306,0,0,1-.066.175A1.773,1.773,0,0,1-154.094,158.608Z" transform="translate(173.329 -96.542)" fill="#165dad"/>
        <path id="Path_44774" data-name="Path 44774" d="M-125.691,97.487c-.049.2-.1.385-.14.574-.034.146-.1.177-.254.138-.692-.175-1.389-.336-2.084-.5a1.472,1.472,0,0,0-.208-.018c-.089.361-.177.716-.264,1.071-.036.148.084.154.173.175.472.115.945.223,1.416.337.182.045.36.1.558.151-.049.223-.087.441-.152.649-.013.041-.135.082-.194.069-.6-.13-1.192-.263-1.783-.414-.2-.051-.263.023-.3.193-.123.534-.258,1.065-.374,1.6-.04.181-.085.274-.3.2s-.455-.118-.71-.18c.038-.185.07-.358.111-.531q.33-1.386.664-2.772c.111-.465.224-.93.33-1.4.026-.109.053-.186.19-.154l3.238.769A.559.559,0,0,1-125.691,97.487Z" transform="translate(171.843 -93.484)" fill="#165dad"/>
        <path id="Path_44775" data-name="Path 44775" d="M-112.049,158.409c-.4-.436-.774-.856-1.161-1.265a.8.8,0,0,0-.309-.2c-1.03-.355-2.065-.7-3.1-1.049a.855.855,0,0,1-.085-.037c.267-.242.518-.48.784-.7a.309.309,0,0,1,.249,0c.634.248,1.265.506,1.9.76.056.022.114.04.207.071a2.084,2.084,0,0,0-.045-.223c-.2-.642-.4-1.284-.615-1.924a.253.253,0,0,1,.078-.324c.23-.19.445-.4.687-.621.108.413.215.8.313,1.2.173.693.338,1.388.516,2.08a.72.72,0,0,0,.158.285c.332.375.668.746,1.014,1.109.118.124.13.2-.011.317C-111.664,158.05-111.842,158.224-112.049,158.409Z" transform="translate(171.135 -96.412)" fill="#165dad"/>
        <path id="Path_44776" data-name="Path 44776" d="M-140.335,96.289l3.988-.29c.016.253.032.486.045.72.008.134-.086.133-.182.137-.333.015-.666.03-1,.052-.305.021-.306.026-.289.321.062,1.02.121,2.039.185,3.059.014.221.04.443.062.664.011.118-.024.179-.157.182-.2,0-.4.022-.6.043-.153.016-.22-.052-.231-.2-.019-.248-.044-.5-.059-.746-.063-.992-.125-1.983-.179-2.975-.01-.181-.055-.259-.26-.24-.38.037-.763.039-1.145.065-.128.009-.179-.03-.176-.158C-140.331,96.727-140.335,96.527-140.335,96.289Z" transform="translate(172.365 -93.449)" fill="#165dad"/>
        <path id="Path_44777" data-name="Path 44777" d="M-121.982,98.878c-.158.391-.3.752-.448,1.111q-.663,1.632-1.328,3.263c-.12.295-.121.293-.416.166-.2-.085-.4-.168-.619-.262l1.9-4.655Z" transform="translate(171.556 -93.579)" fill="#165dad"/>
        <path id="Path_44778" data-name="Path 44778" d="M-133.358,96.093l.977.093c-.044.481-.086.928-.123,1.377q-.061.737-.115,1.475c-.047.637-.092,1.275-.138,1.912-.012.162-.078.255-.264.23s-.4-.023-.6-.055a.207.207,0,0,1-.132-.151c.01-.292.044-.582.065-.873.059-.775.113-1.552.175-2.328C-133.469,97.222-133.412,96.67-133.358,96.093Z" transform="translate(172.022 -93.454)" fill="#165dad"/>
        <path id="Path_44779" data-name="Path 44779" d="M-121.437,127.14c-.066.747-.123,1.495-.2,2.241a1.408,1.408,0,0,1-1.073,1.268,3.229,3.229,0,0,1-1.788.056,1.43,1.43,0,0,1-1.2-1.262,10.881,10.881,0,0,1-.258-2.481c.064-.712.146-1.424.257-2.129a1.16,1.16,0,0,1,.729-.884,2.906,2.906,0,0,1,2.464-.047,1.423,1.423,0,0,1,.826,1.061A11.312,11.312,0,0,1-121.437,127.14Z" transform="translate(171.618 -94.888)" fill="#165dad"/>
        <path id="Path_44780" data-name="Path 44780" d="M-139.966,137.6c.446-.088.847-.19,1.256-.245.679-.091,1.362-.151,2.043-.228.169-.019.21.049.209.211q-.01,1.554,0,3.107c0,.152-.041.21-.2.21a2.308,2.308,0,0,0-.536.059.566.566,0,0,1-.5-.1,6.013,6.013,0,0,1-1.663-1.9C-139.566,138.362-139.75,138-139.966,137.6Z" transform="translate(172.346 -95.59)" fill="#165dad"/>
        <path id="Path_44781" data-name="Path 44781" d="M-132.178,137.606a8.271,8.271,0,0,1-1.059,1.823c-.252.321-.548.608-.829.906a1.051,1.051,0,0,1-1.175.337l-.02-.006c-.363-.066-.363-.066-.363-.432,0-.954.006-1.906,0-2.859,0-.206.06-.261.26-.251A16.641,16.641,0,0,1-132.178,137.606Z" transform="translate(172.12 -95.59)" fill="#165dad"/>
        <path id="Path_44782" data-name="Path 44782" d="M-139.4,142.448a6.017,6.017,0,0,1,6.524-.015A14.109,14.109,0,0,1-139.4,142.448Z" transform="translate(172.317 -95.817)" fill="#165dad"/>
        <path id="Path_44783" data-name="Path 44783" d="M-129.257,138.729c-.354.309-.676.612-1.021.889a10.265,10.265,0,0,1-2.612,1.5,1,1,0,0,1-.843-.122c.163-.152.307-.28.444-.415a8.948,8.948,0,0,0,1.724-2.567c.072-.152.137-.2.294-.136.609.252,1.221.5,1.831.747C-129.39,138.646-129.345,138.679-129.257,138.729Z" transform="translate(172.021 -95.628)" fill="#165dad"/>
        <path id="Path_44784" data-name="Path 44784" d="M-138.431,141c-.281.108-.5.256-.808.136a10.055,10.055,0,0,1-3.05-1.851c-.188-.166-.37-.337-.553-.508-.014-.013-.018-.036-.036-.076.272-.125.538-.26.813-.372.379-.155.768-.286,1.148-.439.171-.069.247-.029.327.141a8.575,8.575,0,0,0,1.829,2.669C-138.663,140.791-138.558,140.88-138.431,141Z" transform="translate(172.497 -95.628)" fill="#165dad"/>
        <path id="Path_44785" data-name="Path 44785" d="M-144.984,139.947c.453-.282.885-.555,1.326-.815.04-.024.154.027.2.075a10.572,10.572,0,0,0,1.923,1.563c.531.326,1.087.61,1.641.917-.194.134-.4.28-.614.419a.156.156,0,0,1-.116.007,14.656,14.656,0,0,1-4.223-2.042C-144.884,140.043-144.917,140.008-144.984,139.947Z" transform="translate(172.607 -95.694)" fill="#165dad"/>
        <path id="Path_44786" data-name="Path 44786" d="M-132.308,141.687c.545-.3,1.087-.586,1.61-.9a9.642,9.642,0,0,0,1.923-1.562.221.221,0,0,1,.333-.042c.4.256.8.5,1.255.781-.376.244-.7.461-1.028.662a13.914,13.914,0,0,1-3.328,1.467.259.259,0,0,1-.188-.012C-131.931,141.956-132.121,141.816-132.308,141.687Z" transform="translate(171.947 -95.694)" fill="#165dad"/>
        <path id="Path_44787" data-name="Path 44787" d="M-136.464,117.568a13.92,13.92,0,0,1-3.542-.479c.247-.453.458-.883.707-1.289a5.879,5.879,0,0,1,1.533-1.743.471.471,0,0,1,.4-.091c.25.05.508.064.76.11a.2.2,0,0,1,.132.137C-136.462,115.325-136.464,116.437-136.464,117.568Z" transform="translate(172.348 -94.384)" fill="#165dad"/>
        <path id="Path_44788" data-name="Path 44788" d="M-132.134,117.06a11.5,11.5,0,0,1-3.476.491c0-.051-.013-.1-.013-.158,0-1.029,0-2.06,0-3.089,0-.168.052-.237.215-.253.255-.027.507-.082.761-.1a.508.508,0,0,1,.3.1,6.137,6.137,0,0,1,1.674,1.974C-132.487,116.364-132.32,116.707-132.134,117.06Z" transform="translate(172.12 -94.384)" fill="#165dad"/>
        <path id="Path_44789" data-name="Path 44789" d="M-139.543,112.315a15.093,15.093,0,0,1,6.771-.007A6.045,6.045,0,0,1-139.543,112.315Z" transform="translate(172.324 -94.278)" fill="#165dad"/>
        <path id="Path_44790" data-name="Path 44790" d="M-138.512,113.716c-.235.231-.48.447-.694.689a8.812,8.812,0,0,0-1.42,2.271c-.073.164-.154.224-.331.15-.608-.255-1.219-.5-1.828-.753a1.437,1.437,0,0,1-.176-.105c.226-.211.43-.414.646-.6a9.912,9.912,0,0,1,2.777-1.741A.87.87,0,0,1-138.512,113.716Z" transform="translate(172.502 -94.36)" fill="#165dad"/>
        <path id="Path_44791" data-name="Path 44791" d="M-129.181,115.986c-.391.177-.734.343-1.085.49-.307.127-.627.227-.936.35-.168.065-.249.037-.331-.14a8.948,8.948,0,0,0-1.771-2.658c-.107-.108-.224-.206-.349-.32a1.053,1.053,0,0,1,.983-.114,10.629,10.629,0,0,1,2.874,1.824C-129.6,115.594-129.409,115.774-129.181,115.986Z" transform="translate(172.017 -94.361)" fill="#165dad"/>
        <path id="Path_44792" data-name="Path 44792" d="M-132.239,113.022c.214-.155.406-.3.606-.43a.248.248,0,0,1,.179,0,14.808,14.808,0,0,1,4.219,2.091.856.856,0,0,1,.076.08c-.444.274-.875.546-1.317.8-.045.026-.165-.027-.222-.077-.432-.372-.845-.766-1.286-1.125a8.994,8.994,0,0,0-2.123-1.266C-132.143,113.08-132.176,113.058-132.239,113.022Z" transform="translate(171.944 -94.312)" fill="#165dad"/>
        <path id="Path_44793" data-name="Path 44793" d="M-143.655,115.643l-1.4-.9c.284-.193.529-.371.784-.532a15.336,15.336,0,0,1,3.387-1.582.426.426,0,0,1,.492.081,3.564,3.564,0,0,0,.446.315A11.191,11.191,0,0,0-143.655,115.643Z" transform="translate(172.611 -94.313)" fill="#165dad"/>
        <path id="Path_44794" data-name="Path 44794" d="M-151.565,146.013c-.011.118-.022.235-.036.352a1.053,1.053,0,0,1-1.669.649.948.948,0,0,1-.369-.761,1.346,1.346,0,0,1,.236-1.01,1.051,1.051,0,0,1,1.21-.3.953.953,0,0,1,.617.884c0,.063,0,.125,0,.188Z" transform="translate(173.058 -95.993)" fill="#165dad"/>
        <path id="Path_44795" data-name="Path 44795" d="M-149.1,146.911c.043-.308.073-.733.166-1.142a1.017,1.017,0,0,1,.719-.865.872.872,0,0,1,.968.355,2.07,2.07,0,0,1,.323,1,5.7,5.7,0,0,1-.081,1.968,1.1,1.1,0,0,1-.782.938.916.916,0,0,1-.874-.3,1.964,1.964,0,0,1-.362-.985C-149.057,147.6-149.067,147.311-149.1,146.911Z" transform="translate(172.821 -95.993)" fill="#165dad"/>
        <path id="Path_44796" data-name="Path 44796" d="M-142.279,147.035a4.27,4.27,0,0,1-.283,1.586.9.9,0,0,1-.828.57.871.871,0,0,1-.839-.581,3.72,3.72,0,0,1-.191-.679,4.848,4.848,0,0,1,.068-2.148,1.044,1.044,0,0,1,.688-.869.871.871,0,0,1,1.061.44A3.884,3.884,0,0,1-142.279,147.035Z" transform="translate(172.582 -95.993)" fill="#165dad"/>
        <path id="Path_44797" data-name="Path 44797" d="M-126.238,146.886a4.5,4.5,0,0,1-.26,1.678.9.9,0,0,1-.854.626.864.864,0,0,1-.857-.617,3.847,3.847,0,0,1-.236-1.9,6.873,6.873,0,0,1,.214-1.119.851.851,0,0,1,.828-.674.871.871,0,0,1,.907.627,2.038,2.038,0,0,1,.152.453C-126.29,146.313-126.261,146.672-126.238,146.886Z" transform="translate(171.748 -95.993)" fill="#165dad"/>
      </g>
    </g>
  </g>
</svg>
