<svg id="Masaha-MAin-Header-Global-icon" xmlns="http://www.w3.org/2000/svg" xmlns:xlink="http://www.w3.org/1999/xlink" width="30.549" height="30.546" viewBox="0 0 30.549 30.546">
  <defs>
    <clipPath id="clip-path">
      <rect id="Rectangle_51396" data-name="Rectangle 51396" width="30.549" height="30.546" fill="#191f21"/>
    </clipPath>
  </defs>
  <g id="Group_52969" data-name="Group 52969" clip-path="url(#clip-path)">
    <path id="Path_38693" data-name="Path 38693" d="M26.914,5.438A14.993,14.993,0,0,0,17.733.208C17.368.145,16.988.1,16.621.06c-.17-.019-.34-.038-.509-.06H14.447c-.181.024-.362.047-.543.07-.394.049-.8.1-1.195.168A15.116,15.116,0,0,0,3.375,5.756,15.012,15.012,0,0,0,.14,13.267c-.038.27-.069.547-.1.816q-.02.182-.041.363v1.668q.027.21.052.42c.037.309.076.627.122.937a15.035,15.035,0,0,0,4.512,8.77,14.772,14.772,0,0,0,8.588,4.17,14.842,14.842,0,0,0,11.85-3.5,14.7,14.7,0,0,0,5.221-9.21,14.806,14.806,0,0,0-3.43-12.263M12.32,8.977c.032-.143.061-.284.091-.422.064-.3.124-.589.195-.879A16.335,16.335,0,0,1,13.873,4,6.454,6.454,0,0,1,14.7,2.8a.771.771,0,0,1,.593-.319.753.753,0,0,1,.576.326,7.367,7.367,0,0,1,.9,1.366A19.153,19.153,0,0,1,18.2,8.785a.758.758,0,0,1,.01.2c0,.018,0,.038,0,.059v.3H12.24ZM4.268,8.863a13.117,13.117,0,0,1,6.425-5.521l.572-.246-.157.6q-.145.558-.29,1.111c-.246.941-.5,1.913-.74,2.867C10,8,9.947,8.333,9.9,8.66l-.033.217a.514.514,0,0,1-.544.493h0c-1.04,0-2.1,0-3.12-.005H4.666A.454.454,0,0,1,4.5,9.328l-.06-.02L4.074,9.2ZM3.555,18.71a.618.618,0,0,1-.669-.5,11.052,11.052,0,0,1,.008-5.863.571.571,0,0,1,.583-.494h0c1.361.007,2.744.007,4.082.007H9.047a.79.79,0,0,1,.131.013l.048.007.288.039-.024.29a35.848,35.848,0,0,0,0,6.152l.026.309-.309.021-.084.007c-.066.006-.134.012-.207.012H7.39c-1.255,0-2.552,0-3.827.005Zm7.232,8.546a13.311,13.311,0,0,1-6.531-5.582l-.247-.423.489-.035.133-.01c.076-.007.143-.012.212-.012H6.168c1,0,2.035,0,3.053,0h.007a.578.578,0,0,1,.645.55,24.188,24.188,0,0,0,1.244,4.873c.021.054.034.1.052.168.009.031.018.068.031.111l.18.62Zm7.321-5.676q-.081.38-.159.751c-.12.568-.232,1.105-.366,1.651a11.089,11.089,0,0,1-1.1,2.942,5.466,5.466,0,0,1-.651.872.738.738,0,0,1-.551.27h0a.726.726,0,0,1-.543-.266,5.426,5.426,0,0,1-.692-.92,16.059,16.059,0,0,1-1.495-4.247c-.055-.23-.1-.459-.151-.7-.023-.115-.047-.232-.073-.354l-.077-.368h5.942Zm.45-3.158-.035.265H12.006l-.026-.277a36.506,36.506,0,0,1-.01-6.251l.022-.281H18.52l.038.57a30.256,30.256,0,0,1,0,5.973M19.769,3.3a13.391,13.391,0,0,1,6.552,5.606l.271.459h-3.06l-.605,0c-.488,0-.993,0-1.486.008h-.046a.655.655,0,0,1-.727-.637,23.741,23.741,0,0,0-1.244-4.842,1.322,1.322,0,0,1-.04-.13l-.027-.1-.179-.618Zm6.523,18.39a13.265,13.265,0,0,1-6.5,5.56l-.608.262.2-.633c.079-.254.159-.5.237-.744.173-.534.336-1.038.464-1.551.189-.76.345-1.546.5-2.306q.058-.3.118-.592a.534.534,0,0,1,.556-.5h0c1.106,0,2.232.005,3.32.007h1.333a.433.433,0,0,1,.142.027l.066.021.373.109Zm1.375-3.486a.587.587,0,0,1-.605.506h-.005c-1.368-.008-2.76-.007-4.106-.007H21.522a1,1,0,0,1-.125-.01l-.087-.01-.288-.03.015-.289c.016-.311.034-.622.051-.934a27.048,27.048,0,0,0-.042-5.218L21,11.883l.334-.015.123-.006c.074,0,.138-.008.2-.008h1.417c1.28,0,2.6,0,3.9-.007h.008a.634.634,0,0,1,.686.525,11.087,11.087,0,0,1-.01,5.833" fill="#191f21"/>
  </g>
</svg>
