<svg id="Masaha-MAin-Header-Search-icon" xmlns="http://www.w3.org/2000/svg" width="30.547" height="30.547" viewBox="0 0 30.547 30.547">
  <path id="Path_38690" data-name="Path 38690" d="M30.336-551h1.85a1.429,1.429,0,0,0,.229.055,11.428,11.428,0,0,1,3.375.794,12.269,12.269,0,0,1,6.6,16.683c-.376.8-.88,1.548-1.359,2.38a1.5,1.5,0,0,1,.207.158q3.766,3.761,7.531,7.523a2.782,2.782,0,0,1,.776,1.1v.656a1.834,1.834,0,0,1-1.193,1.193H47.7a2.9,2.9,0,0,1-1.121-.8q-3.758-3.771-7.527-7.531c-.069-.069-.142-.136-.219-.209-.05.033-.092.059-.131.087a11.837,11.837,0,0,1-10.8,1.983,11.928,11.928,0,0,1-8.651-9.371c-.11-.48-.164-.974-.244-1.461v-1.909c.019-.065.043-.129.056-.2a18.724,18.724,0,0,1,.445-2.3,12.093,12.093,0,0,1,9.407-8.6C29.378-550.865,29.86-550.921,30.336-551Zm.962,21.526a9.254,9.254,0,0,0,9.23-9.242,9.248,9.248,0,0,0-9.245-9.224,9.268,9.268,0,0,0-9.238,9.238A9.278,9.278,0,0,0,31.3-529.474Z" transform="translate(-19 551)" fill="#191f21"/>
</svg>
