<svg id="Masaha-MAin-Header-Search-icon" xmlns="http://www.w3.org/2000/svg" width="30.547" height="30.547" viewBox="0 0 30.547 30.547">
  <path id="Path_38690" data-name="Path 38690" d="M38.211-551h-1.85a1.422,1.422,0,0,1-.229.055,11.434,11.434,0,0,0-3.375.794,12.269,12.269,0,0,0-6.6,16.683c.376.8.88,1.548,1.359,2.38a1.512,1.512,0,0,0-.207.158q-3.766,3.761-7.531,7.523A2.782,2.782,0,0,0,19-522.3v.656a1.834,1.834,0,0,0,1.193,1.193h.656a2.9,2.9,0,0,0,1.121-.8q3.758-3.771,7.527-7.532c.069-.069.142-.135.219-.208.05.033.092.059.131.087a11.838,11.838,0,0,0,10.8,1.983,11.928,11.928,0,0,0,8.651-9.372c.11-.48.164-.974.244-1.461v-1.909c-.019-.065-.043-.129-.056-.2a18.722,18.722,0,0,0-.445-2.3,12.093,12.093,0,0,0-9.407-8.6C39.169-550.865,38.687-550.921,38.211-551Zm-.962,21.526a9.254,9.254,0,0,1-9.23-9.242,9.249,9.249,0,0,1,9.245-9.224A9.268,9.268,0,0,1,46.5-538.7,9.278,9.278,0,0,1,37.249-529.474Z" transform="translate(-19 551)" fill="#191f21"/>
</svg>
