<svg xmlns="http://www.w3.org/2000/svg" width="12.555" height="21.13" viewBox="0 0 12.555 21.13">
  <g id="Masaha-CHat-Pop-Up-selected-dept-icon" transform="translate(0 21.13) rotate(-90)">
    <path id="Path_43875" data-name="Path 43875" d="M3.436.665,12,9.228A1.884,1.884,0,0,1,12,11.9L3.436,20.464a1.764,1.764,0,0,1-2.608.161L.507,20.3A1.4,1.4,0,0,1,.443,18.21c2.092-2.092,4.184-4.217,6.31-6.309a1.885,1.885,0,0,0,0-2.673C4.627,7.1,2.535,5.012.443,2.919-.233,2.308-.073,1.5.507.794L.829.5a1.765,1.765,0,0,1,2.608.16Z" transform="translate(21.13 0) rotate(90)" fill="#fff" fill-rule="evenodd"/>
  </g>
</svg>
