<svg id="SpareParts-Icon" xmlns="http://www.w3.org/2000/svg" xmlns:xlink="http://www.w3.org/1999/xlink" width="18.891" height="21.451" viewBox="0 0 18.891 21.451">
  <defs>
    <clipPath id="clip-path">
      <rect id="Rectangle_51386" data-name="Rectangle 51386" width="18.89" height="21.451" fill="#191f21"/>
    </clipPath>
  </defs>
  <g id="Group_52940" data-name="Group 52940">
    <g id="Group_52939" data-name="Group 52939" clip-path="url(#clip-path)">
      <path id="Path_38112" data-name="Path 38112" d="M14.978,12.886a5.538,5.538,0,0,0-1.995.124,7.1,7.1,0,0,1-1.375.138,6.476,6.476,0,0,1-3.594-1.1.708.708,0,0,1-.271-.335A6.539,6.539,0,0,1,7.55,7.886a.48.48,0,0,1,.4-.376,6.684,6.684,0,0,1,4.633.6,4.234,4.234,0,0,0,3.857.1A4.315,4.315,0,0,0,15.267.052a4.17,4.17,0,0,0-2.581.41,6.881,6.881,0,0,1-3.461.822A6.494,6.494,0,0,1,6.482.58,4.786,4.786,0,0,0,4.13,0,4.2,4.2,0,0,0,1.357,1.182,4.21,4.21,0,0,0,.04,3.893,4.441,4.441,0,0,0,.523,6.354,6.667,6.667,0,0,1,1.29,9.918,6.036,6.036,0,0,1,.565,12.5a4.3,4.3,0,0,0,3.064,6.375,5.377,5.377,0,0,0,1.932-.119,6.484,6.484,0,0,1,5.63,1.414,5.124,5.124,0,0,0,2.169,1.177c.121.026.246.05.367.073l.149.029h.8c.126-.032.254-.062.377-.09a5.657,5.657,0,0,0,.819-.23,4.306,4.306,0,0,0-.9-8.246M.853,4.508V4.5a3.657,3.657,0,0,1,1.67-3.148A3.369,3.369,0,0,1,5.8,1.188a8.536,8.536,0,0,0,2.864.89,7.546,7.546,0,0,0,4.278-.819,3.386,3.386,0,0,1,3.459.085,3.408,3.408,0,0,1,1.441,1.743A3.547,3.547,0,0,1,17.9,5.363a3.447,3.447,0,0,1-3.513,2.419,3.717,3.717,0,0,1-1.472-.431,7.491,7.491,0,0,0-6.941.008,3.7,3.7,0,0,1-1.693.44,3.325,3.325,0,0,1-1.57-.406A3.3,3.3,0,0,1,.853,4.508m5.7,3.508v2.9l-.325-.153a4.308,4.308,0,0,0-3.8-.024l-.324.149V8.051L2.43,8.2a4.333,4.333,0,0,0,3.8-.029Zm11.19,9.2a3.743,3.743,0,0,1-.313,1.348,3.509,3.509,0,0,1-.774,1.11,3.381,3.381,0,0,1-2.363.948h-.1a3.412,3.412,0,0,1-2.224-.886,7.612,7.612,0,0,0-3.465-1.786,8.285,8.285,0,0,0-3.53.069,3.256,3.256,0,0,1-3.311-1.143A3.309,3.309,0,0,1,1.078,13.4a3.414,3.414,0,0,1,2.372-2.15,3.473,3.473,0,0,1,3.163.778A7.518,7.518,0,0,0,10.567,13.9a8.5,8.5,0,0,0,3.059-.165,3.449,3.449,0,0,1,4.117,3.473" transform="translate(0 0)" fill="#191f21"/>
      <path id="Path_38113" data-name="Path 38113" d="M286.083,58.382a1.693,1.693,0,0,0-1.2-.5h0a1.7,1.7,0,0,0-1.2,2.907,1.688,1.688,0,0,0,1.2.5h0a1.729,1.729,0,0,0,1.7-1.708,1.685,1.685,0,0,0-.5-1.2m-.6,1.824a.871.871,0,0,1-.6.252h-.022a.878.878,0,0,1-.848-.885.858.858,0,0,1,.867-.856h.005a.862.862,0,0,1,.6,1.488" transform="translate(-270.271 -55.245)" fill="#191f21"/>
      <path id="Path_38114" data-name="Path 38114" d="M58.826,57.883h-.037a1.673,1.673,0,0,0-1.165.468,1.706,1.706,0,0,0-.525,1.206,1.7,1.7,0,0,0,3.4.055,1.711,1.711,0,0,0-1.678-1.729m-.015,2.575H58.8a.852.852,0,0,1-.6-.252.886.886,0,0,1-.261-.633.858.858,0,0,1,.867-.856h0a.873.873,0,0,1,.87.863.889.889,0,0,1-.862.877" transform="translate(-54.497 -55.245)" fill="#191f21"/>
      <path id="Path_38115" data-name="Path 38115" d="M277.914,339.323h-.008a1.668,1.668,0,0,0-1.181.5,1.687,1.687,0,0,0,0,2.417,1.681,1.681,0,0,0,1.189.5h.012a1.713,1.713,0,0,0,1.7-1.714,1.694,1.694,0,0,0-1.709-1.7m.874,1.7a.863.863,0,0,1-.845.871h-.023a.859.859,0,0,1-.6-.246.885.885,0,0,1-.269-.624.85.85,0,0,1,.249-.606.87.87,0,0,1,.618-.261h0a.857.857,0,0,1,.866.855Z" transform="translate(-263.628 -323.859)" fill="#191f21"/>
      <path id="Path_38116" data-name="Path 38116" d="M60,284.463a1.691,1.691,0,0,0-1.191-.49h-.018a1.705,1.705,0,0,0,.008,3.41h0a1.7,1.7,0,0,0,1.2-2.92m-.583,1.831a.884.884,0,0,1-.615.254h-.02a.874.874,0,0,1-.841-.888.857.857,0,0,1,.872-.85h0a.87.87,0,0,1,.862.87.86.86,0,0,1-.263.614" transform="translate(-54.502 -271.031)" fill="#191f21"/>
    </g>
  </g>
</svg>
