<svg id="SpareParts-Icon" xmlns="http://www.w3.org/2000/svg" xmlns:xlink="http://www.w3.org/1999/xlink" width="25.923" height="29.437" viewBox="0 0 25.923 29.437">
  <defs>
    <clipPath id="clip-path">
      <rect id="Rectangle_51386" data-name="Rectangle 51386" width="25.923" height="29.437" fill="none"/>
    </clipPath>
  </defs>
  <g id="Group_52940" data-name="Group 52940">
    <g id="Group_52939" data-name="Group 52939" clip-path="url(#clip-path)">
      <path id="Path_38112" data-name="Path 38112" d="M20.554,17.683a7.6,7.6,0,0,0-2.737.169,9.742,9.742,0,0,1-1.887.189A8.887,8.887,0,0,1,11,16.539a.971.971,0,0,1-.371-.46,8.973,8.973,0,0,1-.265-5.258.659.659,0,0,1,.543-.516,9.172,9.172,0,0,1,6.358.826,5.811,5.811,0,0,0,5.293.133A5.921,5.921,0,0,0,20.95.072a5.723,5.723,0,0,0-3.542.562,9.443,9.443,0,0,1-4.749,1.128A8.911,8.911,0,0,1,8.895.8,6.568,6.568,0,0,0,5.668.005,5.767,5.767,0,0,0,1.862,1.622,5.777,5.777,0,0,0,.055,5.342,6.094,6.094,0,0,0,.717,8.719,9.149,9.149,0,0,1,1.77,13.61a8.283,8.283,0,0,1-.994,3.545A5.9,5.9,0,0,0,4.98,25.9a7.379,7.379,0,0,0,2.652-.163,8.9,8.9,0,0,1,7.726,1.941A7.032,7.032,0,0,0,18.334,29.3c.166.035.338.069.5.1l.2.04h1.1c.173-.044.348-.084.518-.123A7.764,7.764,0,0,0,21.788,29a5.91,5.91,0,0,0-1.235-11.315M1.171,6.186v-.01a5.018,5.018,0,0,1,2.291-4.32,4.623,4.623,0,0,1,4.5-.226A11.713,11.713,0,0,0,11.9,2.852a10.355,10.355,0,0,0,5.87-1.123,4.646,4.646,0,0,1,4.747.116,4.677,4.677,0,0,1,1.977,2.392,4.867,4.867,0,0,1,.078,3.123,4.731,4.731,0,0,1-4.821,3.319,5.1,5.1,0,0,1-2.019-.592A10.28,10.28,0,0,0,8.2,10.1a5.071,5.071,0,0,1-2.323.6,4.563,4.563,0,0,1-2.154-.557A4.535,4.535,0,0,1,1.171,6.186M8.993,11v3.978l-.446-.21a5.912,5.912,0,0,0-5.211-.033l-.444.205V11.048l.443.2a5.945,5.945,0,0,0,5.213-.04ZM24.349,23.618a5.137,5.137,0,0,1-.429,1.849,4.815,4.815,0,0,1-1.063,1.523,4.64,4.64,0,0,1-3.243,1.3l-.134,0a4.682,4.682,0,0,1-3.053-1.216,10.445,10.445,0,0,0-4.756-2.45,11.369,11.369,0,0,0-4.844.1,4.469,4.469,0,0,1-4.543-1.568,4.54,4.54,0,0,1-.807-4.761,4.685,4.685,0,0,1,3.255-2.95,4.765,4.765,0,0,1,4.341,1.068,10.316,10.316,0,0,0,5.427,2.57,11.665,11.665,0,0,0,4.2-.226,4.733,4.733,0,0,1,5.65,4.766" transform="translate(0 0)" fill="#fff"/>
      <path id="Path_38113" data-name="Path 38113" d="M287.165,58.567a2.323,2.323,0,0,0-1.649-.684h0a2.331,2.331,0,0,0-1.644,3.989,2.316,2.316,0,0,0,1.645.687h0a2.373,2.373,0,0,0,2.339-2.344,2.312,2.312,0,0,0-.69-1.647m-.822,2.5a1.2,1.2,0,0,1-.827.346h-.03a1.205,1.205,0,0,1-1.163-1.214,1.178,1.178,0,0,1,1.19-1.174h.007a1.183,1.183,0,0,1,.823,2.042" transform="translate(-265.466 -54.263)" fill="#fff"/>
      <path id="Path_38114" data-name="Path 38114" d="M59.469,57.883h-.051a2.3,2.3,0,0,0-1.6.643,2.341,2.341,0,0,0-.72,1.655,2.336,2.336,0,0,0,4.672.075,2.349,2.349,0,0,0-2.3-2.373m-.021,3.533h-.019a1.169,1.169,0,0,1-.829-.345,1.216,1.216,0,0,1-.358-.868,1.177,1.177,0,0,1,1.189-1.175h.006a1.2,1.2,0,0,1,1.194,1.184,1.22,1.22,0,0,1-1.183,1.2" transform="translate(-53.528 -54.263)" fill="#fff"/>
      <path id="Path_38115" data-name="Path 38115" d="M278.546,339.323h-.011a2.29,2.29,0,0,0-1.621.681,2.315,2.315,0,0,0,0,3.316,2.307,2.307,0,0,0,1.631.685h.017a2.351,2.351,0,0,0,2.327-2.352,2.325,2.325,0,0,0-2.345-2.33m1.2,2.339a1.184,1.184,0,0,1-1.159,1.2h-.031a1.179,1.179,0,0,1-.825-.338,1.215,1.215,0,0,1-.37-.857,1.166,1.166,0,0,1,.342-.831,1.194,1.194,0,0,1,.848-.358h.007a1.177,1.177,0,0,1,1.188,1.173Z" transform="translate(-258.942 -318.102)" fill="#fff"/>
      <path id="Path_38116" data-name="Path 38116" d="M61.075,284.646a2.321,2.321,0,0,0-1.635-.673h-.025a2.34,2.34,0,0,0,.011,4.68h.006a2.337,2.337,0,0,0,1.642-4.007m-.8,2.512a1.213,1.213,0,0,1-.844.348H59.4a1.2,1.2,0,0,1-1.154-1.218,1.176,1.176,0,0,1,1.2-1.166h.006a1.2,1.2,0,0,1,1.183,1.193,1.181,1.181,0,0,1-.36.843" transform="translate(-53.533 -266.213)" fill="#fff"/>
    </g>
  </g>
</svg>
