<svg id="weichai-group-vector-logo" xmlns="http://www.w3.org/2000/svg" width="259.75" height="38.962" viewBox="0 0 259.75 38.962">
  <path id="Path_1739" data-name="Path 1739" d="M255.417,315.162H242.3l6.8-38.962h13.117Z" transform="translate(-146.756 -276.2)" fill="#6f7e83"/>
  <path id="Path_1740" data-name="Path 1740" d="M419.809,315.162H406.691l2.468-14.2H396.129l-2.511,14.2H380.5l6.8-38.962h13.117l-2.468,14.156h13.074l2.468-14.156h13.117Z" transform="translate(-225.127 -276.2)" fill="#6f7e83"/>
  <path id="Path_1741" data-name="Path 1741" d="M588.717,315.162H575.6l6.8-38.962h13.117Z" transform="translate(-335.765 -276.2)" fill="#6f7e83"/>
  <path id="Path_1742" data-name="Path 1742" d="M208.509,319.507H186.3l1.818-10.607h22.209Z" transform="translate(-114.999 -294.744)" fill="#6f7e83"/>
  <path id="Path_1743" data-name="Path 1743" d="M185,286.807l1.861-10.606H147.253L140.5,315.162h39.568l1.862-10.607H155.436l3.117-17.749Z" transform="translate(-89.026 -276.2)" fill="#6f7e83"/>
  <g id="Group_587" data-name="Group 587" transform="translate(113.805)">
    <path id="Path_1744" data-name="Path 1744" d="M326.481,286.807l1.862-10.606h-34.85a3.389,3.389,0,0,0-3.334,2.771l-5.628,32.339a3.2,3.2,0,0,0,.736,2.684,3.3,3.3,0,0,0,2.511,1.169h33.767l1.862-10.607h-24.59l3.117-17.749Z" transform="translate(-284.479 -276.2)" fill="#6f7e83"/>
  </g>
  <path id="Path_1745" data-name="Path 1745" d="M516.82,315.119,512.88,276.2h-18.1L475,315.119h13.117L501.1,289.577l2.6,25.542Z" transform="translate(-278.716 -276.2)" fill="#6f7e83"/>
  <path id="Path_1746" data-name="Path 1746" d="M78.312,276.2H65.195l-8.788,17.317L54.718,276.2h-11.3l-8.831,17.317L32.9,276.2H21.6l4.113,38.962h11l8.961-17.62,1.862,17.62h11Z" transform="translate(-21.6 -276.2)" fill="#6f7e83"/>
</svg>
