<svg xmlns="http://www.w3.org/2000/svg" xmlns:xlink="http://www.w3.org/1999/xlink" width="434.875" height="39.714" viewBox="0 0 434.875 39.714">
  <defs>
    <clipPath id="clip-path">
      <rect id="Rectangle_51382" data-name="Rectangle 51382" width="69.563" height="17.39" fill="#191f21"/>
    </clipPath>
  </defs>
  <g id="your-gate" transform="translate(-120.656 -9119)">
    <g id="Group_55483" data-name="Group 55483" transform="translate(-1.969 -1621.319)">
      <g id="Group_55480" data-name="Group 55480" transform="translate(-147.484 10683.711)">
        <rect id="Rectangle_51399" data-name="Rectangle 51399" width="1" height="29" rx="0.5" transform="translate(453.109 61.608)" fill="#191f21" opacity="0.37"/>
      </g>
    </g>
    <g id="Group_56239" data-name="Group 56239" transform="translate(114.793 9003.926)">
      <g id="Masaha-Partners-Footer" transform="translate(203.863 132.273)">
        <g id="Group_52985" data-name="Group 52985" transform="translate(83.656)" opacity="0.37">
          <path id="Path_2084" data-name="Path 2084" d="M589.015,158.447a1.774,1.774,0,0,1,1.869,1.783v4.507h-1.869l0-4.157a.351.351,0,0,0-.358-.353l-3.593,0v4.507h-1.891v-6.29Z" transform="translate(-521.321 -151.742)" fill="#191f21"/>
          <path id="Path_2085" data-name="Path 2085" d="M281.35,160.23a1.771,1.771,0,0,1,1.819-1.783h5.88v1.783h-5.607s-.227.043-.229.249l0,.815h4.377v1.719h-4.377v1.7H281.35Zm1.866,0,0,.194,0,.87" transform="translate(-258.521 -151.742)" fill="#191f21"/>
          <path id="Path_2086" data-name="Path 2086" d="M353.914,160.184c0-1.772,1.89-1.777,1.89-1.777h4.608s1.88.035,1.88,1.773v2.71a1.807,1.807,0,0,1-1.88,1.812H355.8a1.829,1.829,0,0,1-1.885-1.8s0-2.649,0-2.715m1.9,2.357a.346.346,0,0,0,.353.353h3.889a.338.338,0,0,0,.353-.353v-2a.346.346,0,0,0-.353-.353l-3.9,0a.334.334,0,0,0-.339.35s0,1.642,0,2" transform="translate(-321.702 -151.707)" fill="#191f21"/>
          <path id="Path_2087" data-name="Path 2087" d="M505.47,160.184c0-1.772,1.889-1.777,1.889-1.777h4.608s1.881.035,1.881,1.773v2.71a1.807,1.807,0,0,1-1.881,1.812h-4.608a1.829,1.829,0,0,1-1.885-1.8s0-2.649,0-2.715m1.9,2.357a.346.346,0,0,0,.353.353h3.889a.338.338,0,0,0,.353-.353v-2a.346.346,0,0,0-.353-.353l-3.9,0a.334.334,0,0,0-.339.35s0,1.642,0,2" transform="translate(-453.661 -151.707)" fill="#191f21"/>
          <path id="Path_2088" data-name="Path 2088" d="M437.853,158.447v1.783h-3.337v4.488h-1.85V160.23h-3.338v-1.783" transform="translate(-387.364 -151.742)" fill="#191f21"/>
          <g id="Group_52985-2" data-name="Group 52985">
            <path id="Path_1817" data-name="Path 1817" d="M113.931,106.595a9.139,9.139,0,1,0,9.14,9.139,9.138,9.138,0,0,0-9.14-9.139m.045,17.858a8.675,8.675,0,1,1,8.675-8.675,8.675,8.675,0,0,1-8.675,8.675" transform="translate(-104.793 -106.595)" fill="#191f21"/>
            <path id="Path_1818" data-name="Path 1818" d="M114.97,107.759a9.018,9.018,0,1,0,9.019,9.018,9.018,9.018,0,0,0-9.019-9.018m.015,17.708a8.675,8.675,0,1,1,8.676-8.675,8.676,8.676,0,0,1-8.676,8.675" transform="translate(-105.802 -107.608)" fill="#191f21"/>
            <path id="Path_2077" data-name="Path 2077" d="M106.309,116.793a8.676,8.676,0,1,1,8.676,8.675,8.675,8.675,0,0,1-8.676-8.675m-.357-.015a9.018,9.018,0,1,0,9.018-9.018,9.019,9.019,0,0,0-9.018,9.018" transform="translate(-105.802 -107.609)" fill="#191f21"/>
            <path id="Path_38704" data-name="Path 38704" d="M165.638,143.6c.311-.457.949-1.247,1.26-1.721.343-.525.583-.822.806-.824.174,0,.336.2.533.461.385.507,1.111,1.431,1.348,1.792.106.16.025.538-.346,1.075-.19.275-1.7,2.312-3.122,4.325-1.083,1.431-2.012,2.712-2.735,3.765-.771,1.123-1.257.683-1.782.008a6.026,6.026,0,0,1-1.074-1.65c.018-.43,2-2.933,2.995-4.343.687-.977,1.463-1.926,2.117-2.888" transform="translate(-153.32 -136.601)" fill="#191f21"/>
            <path id="Path_38705" data-name="Path 38705" d="M120.847,145.036c-.183-.291-.814-1.035-.814-1.377a8.988,8.988,0,0,1,1.347-1.989,1.189,1.189,0,0,1,.958-.544c.237-.025,1.365-.019,1.365-.019s.834.013,1.3.019a.6.6,0,0,1,.5.261c.181.437-.207.829-.673,1.447-.516.686-.629.983-1.333,1.89-.773,1.074-.98,1.388-1.464,1.395-.537.007-1-.791-1.183-1.083" transform="translate(-118.062 -136.644)" fill="#191f21"/>
            <path id="Path_38706" data-name="Path 38706" d="M144.129,141.841a1.328,1.328,0,0,1,1.385-.763c.322-.01.729,0,1.1,0,.394,0,.843.007,1.222,0,.359-.005.977.247.161,1.286-.545.695-2.651,3.576-3.3,4.52-.446.648-1.383,1.921-1.837,2.538-.528.719-1.139-.056-1.586-.709-.418-.61-.865-1.007-.9-1.455-.031-.377.66-1.09,1.074-1.673.51-.717,1.874-2.658,2.68-3.746" transform="translate(-135.773 -136.615)" fill="#191f21"/>
          </g>
        </g>
        <g id="weichai-group-vector-logo" transform="translate(167.313 3.921)" opacity="0.37">
          <path id="Path_1739" data-name="Path 1739" d="M245.813,286.634H242.3l1.82-10.434h3.513Z" transform="translate(-216.713 -276.2)" fill="#191f21"/>
          <path id="Path_1740" data-name="Path 1740" d="M391.027,286.634h-3.513l.661-3.8h-3.49l-.672,3.8H380.5l1.82-10.434h3.513l-.661,3.791h3.5l.661-3.791h3.513Z" transform="translate(-338.89 -276.2)" fill="#191f21"/>
          <path id="Path_1741" data-name="Path 1741" d="M579.113,286.634H575.6l1.82-10.434h3.513Z" transform="translate(-511.371 -276.2)" fill="#191f21"/>
          <path id="Path_1742" data-name="Path 1742" d="M192.248,311.74H186.3l.487-2.84h5.948Z" transform="translate(-167.205 -305.109)" fill="#191f21"/>
          <path id="Path_1743" data-name="Path 1743" d="M152.418,279.041l.5-2.84H142.309L140.5,286.634h10.6l.5-2.841h-7.1l.835-4.753Z" transform="translate(-126.715 -276.2)" fill="#191f21"/>
          <g id="Group_587" data-name="Group 587" transform="translate(30.478)">
            <path id="Path_1744" data-name="Path 1744" d="M295.728,279.041l.5-2.84h-9.333a.908.908,0,0,0-.893.742l-1.507,8.661a.856.856,0,0,0,.2.719.883.883,0,0,0,.672.313h9.043l.5-2.841h-6.585l.835-4.753Z" transform="translate(-284.479 -276.2)" fill="#191f21"/>
          </g>
          <path id="Path_1745" data-name="Path 1745" d="M486.2,286.623,485.145,276.2H480.3L475,286.623h3.513l3.478-6.84.7,6.84Z" transform="translate(-422.434 -276.2)" fill="#191f21"/>
          <path id="Path_1746" data-name="Path 1746" d="M36.788,276.2H33.275l-2.354,4.637-.452-4.637H27.443l-2.365,4.637-.452-4.637H21.6l1.1,10.434h2.945l2.4-4.719.5,4.719h2.945Z" transform="translate(-21.6 -276.2)" fill="#191f21"/>
        </g>
        <g id="Group_52933" data-name="Group 52933" transform="translate(0 1.481)" opacity="0.37">
          <g id="Group_52932" data-name="Group 52932" clip-path="url(#clip-path)">
            <path id="Path_38093" data-name="Path 38093" d="M128.306,22.2l-7.791-.014a3.053,3.053,0,0,0-2.835,2.965,1.444,1.444,0,0,0,.021.212,3.084,3.084,0,0,0,2.951,2.69l4.953-.044c.247.03.4.143.4.384,0,.158-.1.268-.388.34h-7.576l.015,2.578h8.023a2.9,2.9,0,0,0,2.584-3.27,2.973,2.973,0,0,0-2.677-2.567l-5.151.015c-.295-.013-.4-.174-.414-.342-.017-.241.161-.337.4-.366l7.515.014Z" transform="translate(-95.251 -17.959)" fill="#191f21"/>
            <path id="Path_38094" data-name="Path 38094" d="M179.868,27.51l1.068-2.444,1.053,2.444Zm2.765-5.235-3.394-.015L174.7,31.377l3.41.026.673-1.545h4.27l.686,1.533,3.4-.014Z" transform="translate(-141.408 -18.017)" fill="#191f21"/>
            <path id="Path_38095" data-name="Path 38095" d="M245.939,22.31l-3.358-.013-.015,9.1h2.566V25.333l4.5,6.069h3.313l.015-9.091h-2.592l.058,6.056Z" transform="translate(-196.337 -18.048)" fill="#191f21"/>
            <path id="Path_38096" data-name="Path 38096" d="M302.646,22.31h-3.314l4.569,5.974V31.43h3.315l-.014-3.162,4.646-5.945-3.363-.014-2.917,3.852Z" transform="translate(-242.284 -18.058)" fill="#191f21"/>
            <path id="Path_38097" data-name="Path 38097" d="M3.467,35.034l5.007-1.421a.141.141,0,0,0,.1-.14.148.148,0,0,0-.124-.141L7.7,33.209,7.674,33.2a.1.1,0,0,1-.031-.145l2.884-3.118a1.071,1.071,0,0,1,1.175-.417l-1.075-3.11L3.194,34.591a.26.26,0,0,0-.038.322.3.3,0,0,0,.31.121" transform="translate(-2.523 -21.375)" fill="#191f21"/>
            <path id="Path_38098" data-name="Path 38098" d="M40.085.189,38.882,5a.141.141,0,0,0,.078.154.16.16,0,0,0,.189-.032l.487-.548.025-.019a.108.108,0,0,1,.15.048L41.26,8.652a.913.913,0,0,1-.315,1.11l3.458.621L40.627.191A.283.283,0,0,0,40.354,0a.287.287,0,0,0-.269.189" transform="translate(-31.47 0)" fill="#191f21"/>
            <path id="Path_38099" data-name="Path 38099" d="M40.995,52.084,37.179,48.7A.162.162,0,0,0,37,48.688a.143.143,0,0,0-.066.173l.261.671,0,.029a.1.1,0,0,1-.118.1l-4.446-.838a.985.985,0,0,1-.865-.794l-2.293,2.5,11.248,1.993a.291.291,0,0,0,.314-.128.263.263,0,0,0-.042-.313" transform="translate(-23.858 -38.875)" fill="#191f21"/>
            <path id="Path_38100" data-name="Path 38100" d="M58.487,15.449a8.069,8.069,0,0,0-1.109-8.418,8.954,8.954,0,0,0-5.95-3.19c-.25-.012-.3.257-.071.34,5.11,1.3,8.13,5.461,6.785,11.155a.165.165,0,0,0,.112.231c.1.029.172.007.232-.118" transform="translate(-41.451 -3.109)" fill="#191f21"/>
            <path id="Path_38101" data-name="Path 38101" d="M9.183,72.3a9.222,9.222,0,0,0,8.291,3.288,8.836,8.836,0,0,0,5.866-3.246c.109-.145.041-.256-.053-.29a.2.2,0,0,0-.236.092c-3.748,3.529-9.034,3.865-13.6-.073A.189.189,0,0,0,9.2,72c-.086.049-.126.165-.021.3" transform="translate(-7.382 -58.263)" fill="#191f21"/>
            <path id="Path_38102" data-name="Path 38102" d="M7.889,3.755A9.091,9.091,0,0,0,.649,8.94a7.755,7.755,0,0,0,.086,6.4.182.182,0,0,0,.325,0,.172.172,0,0,0-.005-.149c-1.4-4.853,1.013-9.34,6.9-11.1a.172.172,0,1,0-.063-.339" transform="translate(0 -3.039)" fill="#191f21"/>
          </g>
        </g>
      </g>
      <g id="Group_52986" data-name="Group 52986" transform="translate(204.961 118.074)">
        <text id="authorized_dealer" data-name="authorized dealer" transform="translate(0 9)" fill="#191f21" font-size="9" font-family="Montserrat-Light, Montserrat" font-weight="300" letter-spacing="-0.057em" opacity="0.373"><tspan x="0" y="0">AUTHORIZED</tspan><tspan y="0" xml:space="preserve" font-family="Montserrat-Black, Montserrat" font-weight="800"> DEALER</tspan></text>
      </g>
    </g>
    <g id="Group_56238" data-name="Group 56238" transform="translate(114.314 8963.693)">
      <g id="Group_52900" data-name="Group 52900" transform="translate(6.342 156.307)">
        <g id="Group_52901" data-name="Group 52901">
          <text id="Your_gate" data-name="Your gate" transform="translate(0 16)" fill="#191f21" font-size="17" font-family="Montserrat-Light, Montserrat" font-weight="300" letter-spacing="-0.057em"><tspan x="0" y="0">YOUR</tspan><tspan y="0" xml:space="preserve" font-family="Montserrat-Black, Montserrat" font-weight="800"> GATE</tspan></text>
        </g>
        <g id="Group_54824" data-name="Group 54824" transform="translate(0 16.714)">
          <text id="To_Devel_pment_" data-name="To Devel    pment !" transform="translate(0 16)" fill="#191f21" font-size="17" font-family="Montserrat-Black, Montserrat" font-weight="800" letter-spacing="-0.057em"><tspan x="0" y="0" xml:space="preserve">TO DEVEL    PMENT !</tspan></text>
        </g>
      </g>
      <g id="Group_56802" data-name="Group 56802" transform="translate(90.742 175.963)">
        <g id="Group_54703" data-name="Group 54703">
          <path id="Path_41252" data-name="Path 41252" d="M-17.656-285.135l7.552.012a8.326,8.326,0,0,1-.165,5.642s-4.665-5.571-9.778-1.351Z" transform="translate(21.16 285.135)" fill="#ed1c24" fill-rule="evenodd"/>
          <path id="Path_41253" data-name="Path 41253" d="M4.738-274.425,1.02-267.852a8.325,8.325,0,0,1-4.834-2.913s7.143-1.33,5.976-7.856Z" transform="translate(9.868 280.604)" fill="#ed1c24" fill-rule="evenodd"/>
          <path id="Path_41254" data-name="Path 41254" d="M-19.984-264.762l-3.717-6.574a8.327,8.327,0,0,1,4.988-2.641s-2.542,6.807,3.651,9.171Z" transform="translate(23.701 277.374)" fill="#ed1c24" fill-rule="evenodd"/>
        </g>
        <path id="Path_41255" data-name="Path 41255" d="M-5-273.791a10.7,10.7,0,0,1,4.964,2.906" transform="translate(10.693 277.245)" fill="#ed1c24" fill-rule="evenodd"/>
        <path id="Path_41256" data-name="Path 41256" d="M-.133-264.121a10.7,10.7,0,0,1-5.008,2.83" transform="translate(10.791 270.518)" fill="#ed1c24" fill-rule="evenodd"/>
        <path id="Path_41257" data-name="Path 41257" d="M-6.151-273.791a10.7,10.7,0,0,0,0,5.753" transform="translate(11.764 277.245)" fill="#ed1c24" fill-rule="evenodd"/>
      </g>
    </g>
  </g>
</svg>
