<svg xmlns="http://www.w3.org/2000/svg" width="185.859" height="161.588" viewBox="0 0 185.859 161.588">
  <g id="Group_53785" data-name="Group 53785" transform="translate(14.197 -8.25)">
    <path id="Path_39135" data-name="Path 39135" d="M168.043,147.367l-.07.034-.025.106-.054.065-.011.144v.058l.1-.014.12-.015.158-.01.024.159.027-.258-.06-.034-.085-.12-.1-.025.079-.045.026-.025-.041-.055Zm-6.641-6.119.11.114.1.05.04.089.07.075.109.157.023-.073.06-.05-.038-.084.006-.07-.145-.233Zm-1.608-1.167-.069.164-.175.194.05.247.071-.078-.051-.088.174-.174.049.142.036.06.069.029-.006-.073-.038-.081.01-.077-.015-.139-.019-.046.035-.079.028-.094Zm2.267-.709.011.1.006.109-.1.015-.094.039-.1-.014.133.1.077-.041.164,0,.194,0h.118l.065-.039-.128-.01-.191-.039-.076,0-.028-.07.052-.05v-.035l-.052-.046-.088-.123Zm-7.489-6.478-.064.041-.041.014H154.4l-.188-.033-.141-.061-.112.065h-.136l-.2.04-.134.01-.149.039-.05.006-.039-.024-.055-.007-.05.025.039.045.039.049.036.061-.007.054,0,.025.226.068.125.06.063.009-.04-.078-.132-.045-.09-.088.113.068.061-.092.169-.13.163-.024.133.019.16.036.044.049.04-.024v-.055l.076.024.067,0,.086.075.117.158.081.022.073.1.06.029.153.028.072.089-.017-.1-.125-.12-.123-.153-.039-.055.018-.054.07.044-.063-.12-.025-.013-.026-.061.006-.044-.07-.019Zm7.052-5.732-.01.13.071.134.2-.129.024-.2-.032-.03L161.8,127l-.1-.024-.1-.02ZM129.961,66.3l-.1.029-.095.065-.078.105.056.164.1.188.128.1.318-.154.144.11.134.158.139.084.3.094.337.389.284.044v-.1l-.18-.184-.049-.287-.095-.269-.3-.118-.178-.076-.189-.164-.233-.149-.317-.044ZM109.074,23.031l-.139-.084-.341-.356-.209-.14-.527-.184-.232-.119-.186-.179-.3-.426-.188-.17.129-.451.065-.1-.068-.308.287-.219.65-.246.193.1.1.222.557.746.075.057.066.071.068.128.031.17-.011.138v.124l.073.116-.06.163.135.178.222.149.2.08.53.079.158.1.174.264.029-.041.01-.024.011-.019.048-.035.025.054v.014l.01.021.054.03.006.074-.03.015-.039,0-.025.014.2.124-.095.009-.02.025,0,.075.125.294-.046.352-.132.167-.134-.262,0-.068-.044-.051-.055-.1-.1.1v-.431l-.059-.01-.02.019-.066-.059-.083-.135-.109-.127-.3-.264-.066-.025-.312.289-.05.1-.049.034ZM6.51,0,5.628.7l-.4.561L4.715,2.658,2.432,4.528l-.174.521-.006.6.141,1.376.013,1.34.328,1.745.094.332.5,1.012.178.831L4.119,13.6l.193.657-.088.561-.215.559-.174.651-.148.893-.421,1.12-.049.322-.131.55-.276.555-.819,1.245-.428.436-.382.481-.134.229-.234.556L.232,23.46l-.226.569L0,24.653.128,25l.4.716,1.21,3.027.06.362-.015.322-.234.839.095.67.718,1.21.2.667-.006.39-.123,1.167.029.622.143.554L3.77,38.366l.25.86.1.921v111.5H21.906l1.365.006H57.482l1.363,0h28.73l1.371.006H92.22l.183-.115.7-1.414.679-1.4.369-.4.263-.144.268-.044.273.04.056.029.961-.576,2.025-1.867-.184-.1.178-.085.391-.055.1-.065-.292-.833.229-.063.222.1.219.134.133.006.1-.14.155-.144.11-.049,0-.089-.009-.088-.035-.094-.065-.09.576.278.308.04.079-.318-.172-.14-.933-.436-.968-.918-.183-.333.055-.189.11-.154-.025-.216.12.128.1.178.123.147.19.07.172.029.21.08.2.1.143.1.248.379.14.123.194-.039.188-.095.193-.044.174.039.119.154.158-.12v-.114l-.1-.075-.155-.009.015-.262.125-.195.2-.113.243-.041.148-.078-.153-.358.193-.081.571-.078.343-.219.635-.749-.109-.1.3-.05.373.034.271-.088.025-.411.178.123.2.079.186-.028.157-.184.184-.15.222-.024.2-.094.113-.343.034.144.021.134-.017.119-.038.109.542.118.293-.033.227-.184.125.19.1.407.11.188.078.071.179.1.08.086-.065.138-.024.12.039.107.1.081.2.1.039.073-.018.354.018.071.154.133.2.079.219.03.2-.045.3-.238.179-.348.145-.378.2-.332.321-.232.809-.408.168-.248.418.14.192-.3.06-.477v-.392l.111-.65V138l-.061-.079-.11-.1-.1-.139-.029-.2.243.142.218.049.223-.06.23-.184.172-.227.121-.287.007-.248-.163-.124.068-.133.076-.12.194-.215.025-.1-.125-.243v-.13l.423-.137.116-.1-.3-.074v-.114l.309-.034.173-.243.029-.333-.123-.324.118-.147.037-.18,0-.193.03-.2.27-.026.073-.029.035-.092-.1-.172.009-.1.676-.888.156-.025.132.289.158-.34.134-.1.13.115.164.329.159-.23-.075-.165-.149-.148-.025-.193.115-.144.3-.045.153-.125.121.164.144.387.128.073.174-.082.06-.185-.015-.208-.023-.15-.181-.3-.331-.313-.363-.218-.278-.006.055-.208.142-.209.329-.357.11-.175.144-.292.075-.308-.09-.213-.194.006-.447.327-.178.084-.188-.094-.144-.224-.119-.256-.129-.214-.043.04-.205-.044-.187-.086,0-.068-.112.055-.28.267-.049.109-.011.141-.029.119-.1.047-.109.027-.114.063-.2.169-.451.174-.437-.164-.794-.591.293-.152.635-.105.319-.1.083-.066.121-.138.077-.059.059.01.156.089.08.006.665-.283.067-.014-.048-.03-.155-.144-.124-.046-.178-.015-.161-.034-.067-.113-.109-.219-.209,0-.143.208.073.373-.318-.02-.227-.189-.121-.286,0-.342.351.094.234-.273.16-.362.121-.18.131-.055.128-.1.136-.062.134.047.213.462.029.115.015.188.051.125.087.1.134.119.1.063.158.055.131.081.1.124.093.148.114.12.163.029.145-.058.029-.117-.06-.133-.114-.113.248-.13.12-.084.064-.094.05-.165v-.134l-.01-.119.01-.11.278-.7.008-.232-.177.154-.154-.055-.339-.309.5.058.26-.331.095-.537.014-.544-.028-.259-.1-.253-.153-.223-.308-.258-.084-.19-.09-.082-.134-.036-.3-.015-.149-.055.3-.114.225.089.2.055.232-.24.116-.267.149-.605.128-.284.144.318-.014.24-.081.222-.049.274.046.133.178.175.059.109-.008.128-.06.055-.045.07.024.168.151.242.367.412.147.655.2.134.248.069.241.165-.266.019.035.194.2.243.219.168-.094.055-.084.08-.063.084-.039.1.024.019.059.035.071.046.023.054-.023.068-.059.024-.066.02-.029.044-.106.537v.2H116.4l-.124-.212-.382-.134-.08-.185-.114.209-.128.168-.109.179-.084.487.039.08.161.034.1.051.1.118.142.253.277-.218-.029.1-.039.217-.027.1.071-.027.155-.036.073-.041.06.293.248.182.307.051.248-.109.094.113-.287.169-.321.055-.328-.028-.32-.1-.529-.239-.2.021.054.332.095.119.117.049.121.029.113.062.062.108-.08.07-.1.076-.029.111.173.243.229.169.128.119-.15.1.089.311.175.124.114-.073-.08-.259h.219l.114.129.143.394-.252.1-.175.123-.025.169.171.238.127.134.041.02.044-.034.168-.025.12.055-.015.124-.116.246-.039.146-.07.128-.044.12.017.119.069.092.089.087.069.1.015.144-.121.258-.216.025-.537-.188.036-.081.041-.165.023-.069-.157.014-.149,0-.139-.034-.13-.068-.065.088-.054.1-.051.116-.023.1.193.081.11.2.073.238.1.227.325.4.092.225-.179.1-.452-.13-.47-.232-.411-.1-.259.262v.207l.078.224.208.388.032.123-.006.1.006.094.078.109.11.045.275.013.5.359.156.173-.041.189-.226.147-.076.089.015.135.061.125.055.063h.079l.142-.088.131.235.232.083.263.035.237.065.776.621-.347.055-.545-.091-.531-.173-.31-.2-.059.2.006.084.054.125-.182-.1-.6-.612-1.062-.708-.091-.089-.054-.107-.118-.028-.135.006-.073-.032-.026-.128.026-.491-.517.194-.16.118.169.081.094.117,0,.151-.084.167h.194l-.07.151-.088.068-.1-.014-.12-.1.039.28-.034.284-.192.583-.15-.289-.168-.066-.079.134.1.321-.143,0-.253-.081-.131-.017-.1.028-.224.135-.114.045.1.128.023.088-.023.209-.235-.3-.054-.122-.124.172-.065.209-.019.224.014.222.149-.058.092.038.044.116.013.168-.132.076-.1.078-.066.094v.532l-.024.2-.13.158-.028.164-.268.3-1.091.381-.095.258-.253.034-.2.113-.363.415-.089.211-.14.562-.113.109-.785-.04-.174.04-.073.186-.065.618-.05.232.269.091h.1l-.248.134-.169-.084-.164-.16-.232-.084-.115.055-.193.232-.125.02-.073-.085-.06-.153-.06-.278.389-.044.337-.195.237-.308.1-.382-.139.06-.142.035-.15.009-.154-.009.025-.068.034-.165.036-.079-.238-.054-.333-.284-.2.032.2-.319.091-.1-.433-.115-.094-.1.149-.2-.224-.029-.173-.124-.165-.15-.213-.114-.249-.016-.222.07-.472.3-.07.032-.068.018-.075.01-.1.026.006.055.029.067-.029.061-.11.028-.1,0-.089.013-.078.068-.086.216.04.108.085.125.055.267-.284-.145-.234-.068-.223.055-.267.211-.225.3,0,.224.095.235.079.337-.412-.264-.114.016-.05.248.033-.045.165.551.279.531-.324-.054-.144.119-.088.159-.166.084-.273.1-.124.242-.035.3v.294l-.828-.14-.3.031.172.211-.1.118.186.091.152.179.06.226-.1.211-.216.125-.136-.1-.1-.19-.125-.144-.393-.092-.383.078-.77.436.15.245-.06.117-.174-.038-.2-.229-.01.12-.089.292-.184-.206-.039.162-.076.119-.119.084-.158.045.427.339.055.089.034.189.093.109.155.034.2-.024-.261.094-.268-.046-.274-.1-.253-.054-.211.073-.757.548.036.1v.049l-.025.051-.01.109-.154-.076-.2.111-.363.317-.012.308-.329.966-.446,1.341h24.239l3.271-.006h49.083v-.015l.114-.149.092-.165.012-.188-.11-.267-.169-.244-.65-.481-.208-.194-.124-.183-.194-.451-.073-.1-.115-.1-.243-.165-.114-.024-.048.055-.031.094-.049.089-.215.019-.263-.144-2.079-1.8-.214-.174-.233-.065-.507-.069-.4-.211-1.251-1.544-.015,0-.126-.056-.033-.085.033-.058.052-.054,0-.061-.128-.193-.126-.141-.332-.3-.3-.393-.3-.839-.225-.365-.683-.65-.4-.25-1.082-.361-1.138-.22-.778-.054-.208-.063-.194-.1-.178-.125-.041-.06-.1-.184-.054-.068-.105-.065-.854-.373-.44-.341-.179-.213-.1-.188-.118-.175-.229-.158-.045-.119-.149-.75-.1-.261-.121-.219-.178-.141-.274-.011.4.7.169.238-.378-.2-.552-1.02-.317-.235-.1-.243-.184-1.529-.174-.5-.2-.379-.77-1.388-.077-.205-.1-.966-.041-.084-.1-.239.02-.718-.055-.25-.088-.238-.243-.452-.3-.425-.129-.235-.055-.225.031-.227.137-.425.031-.24.024-1.325.174-.929-.006-.153-.039-.113-.119-.208-.034-.095.009-.214.089-.392v-.226h-.316l-.076-.572.119-1.758.1-.2.218-.25.109-.093.136-.073.139-.03.148.04.076.1-.037.125-.054.108.015.081.145.049.291-.023.094.023.195.215.1.088.129.065.1,0,.481-.089.124.029.223.146.135.033.814-.293.194.031.327.407.173.113.229-.048-.616-.879-.252-.277-.165-.151-.163-.109-.353-.164-.243-.044-.406.055-.215-.011-.353-.188-.171-.321-.13-.379-.218-.36-.58-.5-.354-.192-.312-.044.119.242.075.274-.168-.16-.322-.565-.437-.521-.741-1.385-.3-.359-1.355-1.156-1.239-1.6-.543-.457-.123-.288.118-.209.194-.164.1-.168-.063-.213-.512-.532-.242-.4-.081-.2-.327-1.207-.242-.447-.363-.333-.223-.143-.158-.144-.113-.168-.08-.235-.04-.289-.01-.575-.045-.284-.088-.253-.106-.181-.341-.363-.124-.224-.056-.5L142.9,103.7l-.654-1.122-.171-.665-.417-.64-.083-.214-.134-.447-.091-.2-.608-.765-.253-.432-.145-.788L140,97.778l-.194-.735-1.221-2.412-.119-.167-.511-.558-.944-1.4-.132-.442-.1-.2-1.112-1.534-.528-1.334-.55-.81-1.185-2.73-.344-.507-.183-.391-.287-.436-.209-.413-.482-1.379-.2-.428-.456-.6-.139-.482-.149-.22-.22-.134-.455-.137-.2-.165-.129-.456.278-.947,0-.407-.056-.209-.024-.273v-.277l.034-.213.153-.293.13.055.158.149.229-.015.1-.174-.01-.248-.094-.5-.071-.173-.173-.114-.2-.109-.179-.144-.135-.214-.177-.465-.12-.24-.284-.384-.094-.22-.006-.248.209.027-.1-.261-.257-.346-.239-.224-.268-.189-.144-.213-.06-.273-.014-.348-.015-.091-.076-.136-.006-.091.031-.06.127-.1.033-.055.028-.6-.028-.164-.186-.267-.273-.2-.594-.29-.548-.366-.461-.441-.1-.219-.1-.7-.091-.316-.1-.155-.242-.257-.091-.134-.041-.154-.022-.348-.04-.143-.208-.194-.616-.279-.233-.172-.011-.169.018-.147.032-.13.054-.1-.4-.706-.234-.308-.332-.175.154-.266.273-.219.247-.03.087.314h.109l-.055-.144-.054-.084V64h.109l.332.428.143.123v-.109l-.059-.083-.138-.293L124.93,64l-.088-.023-.258-.188-.055-.052-.081-.1-.054-.054.131-.168.087-.209.061-.229.02-.213-.094-.03-.2.1-.2.059-.088-.124-.066-.243-.15-.194-.266-.278-.091-.174-.029-.112.034-.137.086-.223h.095l.3.174.373.14.333.2.163.352h.282v-.1l-.063-.12-.054-.308-.072-.123v-.1l-.028-.189-.309-.724-.1-.164-.168-.153-.317-.676-1-.913-.636-.169-.309-.133-.123-.24-.148.046-.164-.04-.11-.1.03-.13v-.093l-.019-.128.019-.107-.3-.172-.465-.567-.239-.123-.239-.045-.049-.12.015-.175-.07-.211-.119-.092-.16-.068-.142-.084-.16-.337-.665-.709-.325-.446-.054-.05-.028-.145-.066-.2-.095-.177-.109-.089.021-.338-.269-.342-.623-.51.049-.01h.039l.02-.02,0-.068-.124-.116-.4-.778-.1-.323-.044-.1-.129-.073-.161-.036-.133-.055-.132-.282-.172-.214-.335-.325-.671-.379L115,49.776l-.049-.332-.627-2.363-.192-.481-.313-.337-.5-.089-.585-.824-.055-.034-.317-.352-.056-.161-.008-.321-.047-.175-.147-.2-.43-.446-.089-.171.024-.564.07-.472-.11-.167.051-.146.153-.07.074-.183.139-.129.079-.133-.014-.345-.422-1.731.05-.288v-.1l-.19-.292-.188-.49-.139-.533-.059-.391-.145-.318-.337-.462-.4-.413-.437-.262-.646-.759-.179-.155-.718-.461-.149-.169-.12-.337-.125-.229-.157-.222-.154-.12v-.119l.2-.22.084-.271,0-.665.083-.264.407-.744.144-.154.07-.129,1.177-1.647.248-.2-.314-.081-.2-.162-.088-.245.018-.292.124-.278.24-.3.278-.173.227.083.185-.1.158.008.1.109.036.208h.1l-.014-.215-.07-.117-.08-.091-.035-.128.085.065.079.08.066.089.059.093.079.03.026.03-.026.03-.079.029.079.088.016.075-.06.075-.124.083.575.57.186.315v.444l-.08.055-.149.15-.071.153.3.145.321.332.06.1.049.179.348.426.08.146.057.128.033.172.009.273-.025.155-.124.327-.03.237.019.229.05.24.016.227-.085.193v.1l.44.312.165.66-.018.75-.109.59h.192l-.079-.08-.02-.1.03-.125.069-.137h.088l.007.1-.025.054-.041.034-.029.035.1.019.075.031.059.055.055.113h-.1l.686.492.375.183.055.273-.055.6.026.01.287.684.095.13.13.048.178.124.1.289.065.332.078.253.183.194.293.213.313.174.227.074.632.655.024.044.039.131.026.044.039.029.115.05.044.03.238.362.042.024.043.078.21.164.044.086.024.092.175.407.143.14.383.209.147.188.141-.055.124.05.08.119.035.172.084-.013.164.178.095.214-.1.107-.068.109.03.24.055.234.024.084.061.365-.025.141-.12.144v.1l.054.2.044.714.095.295.1.089.125.044.1.079.073.322.081.126.173.212-.145.362-.189.736-.139.318.253.475.091.273.06.64.073.294.153.2.235.082-.258-.228.118-.216.234.041.1.52h-.1V50.21l-.089.117.162.086.155.183.118.193.046.134.065.12.145.154.9.665v.091l.164.188.271.253.324.575.065.019.089.169,1.835,1.1.14.258.328.491.108.215.1-.071.08.12.208.775.025.048.12.143.044.082h.1V56.2h.091l.03.092.044.051.059.029.064.055-.024.228.164.341.237.328.2.175.006.277.679.418-.008.394.222.052.106.046.1.075.044.062.05.141.051.068.038.02.115.059.492.412.124.155.1-.1.188.422.165-.125.184.01.178.095.8.739.121-.014.073.053.939,1.141.337.219,1.353.15.215.068.139.076.125.1.266.277.244.33.068.137h.1v-.115l-.068-.009-.015-.01V63.1l-.021-.06.055.041.141.068-.077-.188-.049-.068-.071-.071v-.1h.1v-.1l-.511-.006-.039-.094-.054-.25.034,0,.13.009.187-.044.278-.12.178-.174-.112-.194.122-.179.095-.352.1-.092.095.068.119.04.044.083h.094l.137-.142.142-.481.105-.238-.061-.035-.01-.006,0-.014-.029-.065.144-.02.188-.065.108-.014.121-.05.084-.227.182-.115.062-.134.045-.149.044-.089.114-.055.367-.055-.1-.118.2-.284-.015-1.771.1-.507.007-.2.026-.05.035-.044.033-.07,0-.113-.038-.092-.135-.124-.125-.257-.182-.219-.114-.238.1-.263v-.1l-.078-.173-.06-.179-.039-.2-.011-.269.043-.192.2-.391.046-.179.025-.011.162-.267.055-.175.134-.7.107-.209.185-.094-.032-.081-.01,0-.039-.035.276-.278.318-.237.169-.314-.184-.487.07.01.013-.024v-.041l.015-.044.181-.452.564-.853.194-.733.328-.467.075-.283.034-.08.066-.081.063-.108.03-.165-.025-.119-.029-.095.024-.089.124-.084-.083-.192-.045-.07-.05-.055.079-.19V45.98l-.04-.218-.039-.145v-.1l.372-.27-.014-.951-.07-.326-.01-.1.039-.208.05-.084.314-.2.13-.05.1-.089.044-.184-.03-.193-.139-.2-.029-.155.033-.967-.033-.183.128-.2.089-.248.049-.252.015-.23.08-.094.164-.109.164-.149.073-.2v-.825l.076-.2.109-.224.047-.229-.126-.224v-.1l.121-.068.063-.089.05-.1.056-.093.067-.061.153-.08.065-.067.329-.512.161-.158-.087-.078-.016-.062.066-.044.133-.024-.054-.088.035-.1.093-.084.121-.06,0-.078L142.6,36.2h-.04l-.048-.014.176-.071.081-.13.044-.162.079-.19.1-.147.1-.114.124-.09.16-.084-.13-.234-.322-.666-.1-.383.029-1.112-.362-1.655-.551-1.519-.616-1.682-.088-.879.006-.1-.011-.1-.025-.095-.035-.089-.544-1.559-.829-2.386-.468-1.335-.157-.235-.765-.67-.1-.153-.032-.184.027-.287.134-.485.006-.22-.145-.2-.223-.3-.084-.276-.03-.67-.307-1.295-.864-2.281-.714-1.891-.543-1.419-.441-1.376-.555-1.723-.144-.446-.253-.783-.078-.27-.343-.624-.014.013-2.134,1.379-2.712,1.073-2.9.756-.467.031-.324-.1v.11l-.271-.117-1.024-.107-.262-.086-.567-.291-.183.052h-.1l-.05-.044-.149-.076v.294l-.224.017-.178.06.119.3-1.533.121.162.034.131.018.144-.021.128.072-.2.014.014.028.006.163-.011.139h-.1l-.059-.144-.1-.07-.113.01-.1.092-.1-.113.1-.119h-.1l-.2.153-.751.291v.123h.089V9.553h.095l.193.123v.1l-.129-.019-.065,0-.095.021-.19-.03-.256.06-.505.2.153-.279,0-.251-.123-.21-.232-.162v-.1l.068-.01.014.027v.044l.019.042.2-.147.179-.044.056-.09-.149-.279-.507-.662-.174-.13v-.1h.391v-.11l-.239,0-.162.081-.272.257-.16.078-.347.061-.175.083-.222.282-.173.33-.244.251-.421.04.223.091.333.049.317,0,.187-.041-.088-.065V8.992l.044-.049.044-.06.294-.224.1-.112h.093l-.061.179-.075.139-.034.118.076.124-.141.092-.54.14v.112l.066.022.132.079v.123l-.187.158-.219.009-.468-.167h.2l-.026-.084-.029-.161-.036-.091-.129-.2-.219-.155-.237-.063-.188.078v.1h.38v.119l-.331.173-.146.052V9.34l.1-.013.044-.082-.2-.052-.054-.086h-.091l-.143.116-.728.228-.863.557L113.526,10l-.06.013-.044-.014-.014-.1h-.086l-.089.16-.158.062h-.431l.2-.11V9.9h-.681l1.21-.311.765-.359.456-.128.785-.59.452-.174v-.12h-.1l-.154.116-.581.295-.244.188-1.25.612-1.042.275-.59.076-.621-.019-.506-.157-.418-.262-.37-.333-.4-.684-.263-.2-.6-.577-.263-.341-.165-.153-.426-.114-.213-.137-.145-.21-.034-.272-.161-.02H107.2l-.187-.144-.955-.188-.183-.014-.173-.019.1.273.167-.061.289.046.3.108.209.12-.175.126.039.144.234.3.073.28,0,.23-.069.485-.049-.012-.333.012.252.24.041.3-.159.29-.339.195-.2.034-.218-.006-.178-.066-.154-.27-.153.014-.11.116.056.177L105.243,9,105.179,9l-.041-.023-.01-.1-.168.108-.019.019.019.041v.024l.009.013.065.018v.119l-.074-.007-.224.007.114.225-.19-.035-.282-.144-.208-.046.044.173.089.162.14.108.2.006v.1l-.174.112-.188-.008L104.11,9.8l-.142-.121V9.553h.1v-.1l-.1-.079-.115-.031-.124.023-.134.087-.113-.081-.07-.031.05-.136.07-.1.1-.065.143-.038V8.884l-.135-.047-.085-.093-.044-.133-.021-.173h-.083l-.045.121-.079.076-.118.032-.15-.007V8.549l.288-.252,0-.174-.095-.142v-.1l.1-.044.055-.062.027-.093.023-.136-.05.039-.154.072.022-.219.023-.052.059-.075v-.1l-.2-.112-.065.075-.089.071-.039.066-.2-.1V7.1h.2l-.319-.109-.268.19-.218.23-.165.023-.078.257-.12.006-.066-.153.071-.231h-.095v.122l-.065-.018-.015-.036V7.337l-.015-.027-.055.043-.035.039-.034.029-.07.011-.014-.11.024-.05.039-.027.05-.036h-.194V7.1h.194l-.063-.115L101.4,6.9l.018-.1.061-.151-.109.081-.069.109-.114.267-.134-.159-.213-.147-.22-.109-.153-.041-.06-.068V6.422l-.019-.15-.115-.069-.128-.006-.1-.022-.2-.085.024.061.014.017.019,0,.027.029-.171.081L99.6,6.243,99.515,6.1l.03-.23.12-.1.164-.037.095-.06-.079-.156v-.1l.173-.078L100,5.277l-.1-.058-.052-.082.024-.165.075-.1.094-.007.093.1h.085l.114-.108.134.009.153.062.184.036V4.843l-.3-.008-.126-.107.04-.188.193-.249-.084-.122-.049-.052-.065-.048.046-.021.039,0,.029-.019-.009-.087h.094l.1.105.142.034.139-.038.1-.1-.149-.007-.109-.041-.079-.068-.054-.1V3.611h.1V3.5l-.109.009-.079-.031-.1-.08-.059.1-.046.02-.089-.014.089-.252.1-.11.059.018-.054.123.2.015.147.091.089.151.049.2h.095l-.022-.084-.043-.076-.03-.076h.095V3.4h-.095l.041-.224-.215-.387L100.9,2.6h-.289l.069-.114L100.7,2.4l0-.13.05.034.1.035.045.033.01-.051-.01-.109V2.154l.193.114.055-.165.094-.058.238.109,0-.07.155.095.2.267.155.264.708.881-.174.021h-.177l.125.109.118.156.089.194.041.222h.1l.058-.006.149.129.378.2.065.067.039.075.066.056.287.035.1.033.065.073.035.118-.11-.091-.04-.02-.065.008-.073-.008,1.388.872.433.095-.144-.1-.562-.441-.2-.093-.086-.065-.353-.393-.167-.081-.342-.08-.15-.065-.453-.409-.221-.279-.189-.469-.442-.6-.074-.2-.2-.437L101.57,2l-.546-.009-.511.166-1.26.719-2.12.608-.575.017-.46-.1-1.464-.681-.577-.448-2.213-1.01-1.3-.41L90.107.8l-1.2.18-.346.131-.136.078.637.02.669.289.566.422.273.374-.093-.016-.09.031-.089.061.258.13-.06.107-.083.08-.115.03-.132-.022-.026-.062,0-.078-.034-.06-.237-.155-.13-.05-.517-.038-.079.019-.078.077v.077l.018.084-.044.1-.224.195-.05.109.086.134-.159.332-.1.13-.13.109-.093-.123-.48-.213-.031.052-.006.019,0,.014L87.8,3.4l-.007.075.023.013.034,0,.037.017-.189.171-.24.15-.237.079-.189-.052-.009-.077.018-.021.041,0,.045-.017-.171-.089-.2.018-.18.052-.134.019-.209-.092-.182-.121L85.9,3.447l-.124.051-.213.108-.258.227-.219.288L85,4.405h-.094l-.165-.229-.293-.243-.284-.076-.123.264-.174.158-.382.118-.393.022-.212-.126h-.1l-.088.082-.1,0L82.3,4.292v-.12l.214-.325.066,0,.117-.07.561-.041.243-.085.537-.373.108-.044.194-.031.079-.038.6-.407L85.77,2.4l1.085-.624,1.3-.489.214-.031v-.11L84.186,2.633l-1.981.53-.6.078-.507-.059L80.661,3l-.382-.287-.512-.287-.094.287.214.486.392.3L80,3.446l-.2-.221-.129-.308L79.6,2.6h-.094l.12.573-.055.685-.193.66-.308.5-.858.772-.493.278L77.2,6.2v.113l.829-.043.228-.07v.113l-.045.007-.1-.017-.039.009v.1l.248-.058.208-.1.2-.047.213.11-.145.441-.052.107-.1-.048-.065-.091-.031-.133.006-.176h-.084l-.02.131-.019.067-.03.055-.04.094L78.3,6.725l-.011-.006-.039-.078-.423.4-.054.108-.064.014-.124-.024-.079-.094.073-.187L77,7.21l-.149-.09L76.7,7l-.05-.126.169-.113-.051-.015-.044,0L76.7,6.724l.011-.082.112-.072.165-.181.114-.072-.516-.055-.577-.178-.4-.314.039-.469-.382.212-.01.083.021.019.04,0,.044.019-.134.1-.089.109-.115.093-.193.037-.114.088-.284.39-.183.09-.194.126-.654.589-.16.178h-.1l-.084-.171-.114,0-.1.114-.079.167.114-.062.055-.012.124.185-.649.58L72,8.428,71.6,8.335l-.216.431-2.07,1.507-.109.119-.1.165-.67.342-.744.559L65.62,12.464l-1.921.929-.422.079-2.262.1-2.442-1.284-.263-.08-.094-.072-.054-.151-.1-.436-.083-.09-.343-.047-.272-.115-.5-.283-2.5-.894-.232-.125-.155-.059L53.792,9.9l-.505.007-.124-.068L53,9.66,52.78,9.5l-.253-.114-.272-.05-.322.06-.611.306-.283.071-.273-.035-.6-.153-.317-.036-.421.047-.174-.047-.115-.081-.109-.107L48.9,9.27l-.163-.043-2.521.006-.681-.1-.415-.252-.045-.133-.055-.535-.248-.592-.036-.133-.024-.321-.07-.232-.149-.111-.237.039-1.633.8-.836.149-.707-.377-.313.164-.314-.062-.346-.143-.885-.135-.442-.149-.407-.231-.337-.285-.14-.228-.139-.487-.1-.184-.04-.1-.02-.247L37.553,5.3l-.069-.038-.064-.089-.1-.209-.03-.115.025-.06,0-.057-.1-.114-.1-.066-.1-.031-.884.018-.165-.021-.058.065-.134.081-.089.076-.228-.172-.349-.1-.952-.1-.888-.3-.383-.224-.16-.036L32.6,3.8l-.139-.059-.2-.184L32.017,3.4l-.245.025-.512.19-.644,0-.575-.18-1.009-.487-.283-.027-.7.05-.225-.078-.232-.129-4.056-.544L17.98.657,16.6.587l-.626.1-2.638.893-2.283.656-.407.049-.348.088-.258.15-.169-.032L9.7,2.41l-.129-.041-.644.1-.294,0-.54-.281-.716-.044-.3-.084-.258-.33L6.665,1.2,6.493.126Z" transform="translate(0 9.628)" fill="#ed1c24"/>
    <g id="Group_54795" data-name="Group 54795" transform="translate(-349.458 -473.527)">
      <g id="Group_54794" data-name="Group 54794" transform="translate(335.865 482.278)">
        <path id="Path_43883" data-name="Path 43883" d="M374.863,482.278l95.066.157s13.039,34.013-2.078,71.03c0,0-58.729-70.134-123.1-17.011Z" transform="translate(-330.752 -482.278)" fill="none" stroke="#191f21" stroke-miterlimit="10" stroke-width="1" fill-rule="evenodd"/>
        <path id="Path_43884" data-name="Path 43884" d="M491.91,550.952l-46.8,82.749s-36.034-5.333-60.866-36.672c0,0,89.93-16.746,75.241-98.9Z" transform="translate(-308.027 -473.159)" fill="none" stroke="#191f21" stroke-miterlimit="10" stroke-width="1" fill-rule="evenodd"/>
        <path id="Path_43885" data-name="Path 43885" d="M382.651,625.432l-46.786-82.756s23.143-28.13,62.8-33.253c0,0-32.006,85.694,45.969,115.455Z" transform="translate(-335.865 -466.659)" fill="none" stroke="#191f21" stroke-miterlimit="10" stroke-width="1" fill-rule="evenodd"/>
      </g>
      <path id="Path_43886" data-name="Path 43886" d="M381.358,509.875s33.654,6.954,62.5,36.589" transform="translate(26.177 15.879)" fill="none" stroke="#191f21" stroke-miterlimit="10" stroke-width="1" fill-rule="evenodd"/>
      <path id="Path_43887" data-name="Path 43887" d="M444.068,533.4S421.14,559,381.019,569.034" transform="translate(25.981 29.415)" fill="none" stroke="#191f21" stroke-miterlimit="10" stroke-width="1" fill-rule="evenodd"/>
      <path id="Path_43888" data-name="Path 43888" d="M382.5,509.876s-11,32.557.011,72.423" transform="translate(24.023 15.88)" fill="none" stroke="#191f21" stroke-miterlimit="10" stroke-width="1" fill-rule="evenodd"/>
    </g>
  </g>
</svg>
