<svg xmlns="http://www.w3.org/2000/svg" width="157.022" height="201.349" viewBox="0 0 157.022 201.349">
  <g id="Group_53785" data-name="Group 53785" transform="translate(0.604)">
    <path id="Path_39136" data-name="Path 39136" d="M14.5,40.105l-1.23.376-.19.146.062.318.22.316.293.149.1-.03.238-.128.168-.028.136.054.211.249.141.087-.113-.264-.116-.16-.137-.1-.181-.069v-.172l.3-.073.563-.244.362-.053-.216-.424Zm2-.825-.068.03-.028.083.009.292.2.18.254.1.449-.508-.074-.118-.356-.141-.292,0Zm.65-.956-.6.3,3.422-.391-.62-.194Zm4.342-1.1-.737.437.647.181,1.984-.262.751-.3h.044l.024-.03-.006-.131-1.835-.041Zm3.3-.294-.263.186.235-.01.65.2.121-.038.053-.044.054-.108-.209-.167-.312-.073Zm12.136.024-.2.353v.185l.17-.113.1.011.089.064.142.038.077-.059.259-.252.157-.064h.234l-.341-.246-.367-.057Zm-9.957-.77-.5.018-.195.128-.084.312.054.367.146.132.474-.024.039-.48.552-.131,1.176.035.043-.025.045.006.02-.03,0-.118-.327-.2Zm2.731-.515-.411.515.128.116h.136l.142-.107.146-.211.4.264.47-.029.455-.192.359-.229h.231V35.6l-1.372-.09Zm3.086-.379-.293.107-.068.172.313.229.024-.331.289-.016.684.157.169-.019.157.028-.428-.264-.244-.074-.264-.029ZM90.26,29.031l-.586.506-.242.626.251.215.257.155.259.017.24-.2-.074-.38.089-.229h.136l.069.322-.113.48.014.19.2-.006.174-.259.481-1.43-.487-.226ZM45.687,27.454l-.133.116-.063.082-.053.242.01.13.054.167.17.244.2.069.054-.158.01-.116.049-.125-.011-.085-.087-.057-.064-.119-.028-.122.022-.122-.009-.145ZM93.1,26.8l-1.1.529-.086.2L91.9,27.6l.093.5h.088l.214-.445.749-.687.272-.391Zm35.225-1.928-.253.265-.147.313.2.311.662.693.143.426-.094.722-.436.905-.13.532.326.128.226-.226.239-.318.521-.229.139-.1.122.039.083.331-.047.181-.13.162-.121.229-.03.367.563-.215.1-.059.049-.205.117-.21.148-.169.14-.08v-.2l-.146-.347.165-.212.322-.073.322.079.254.2.221.293.179.37.129.444.374-.157.227.46.028.734-.206.673.129.357-.552-.172.029-.157.043-.1.063-.073.085-.064-.656-.005-.2.117-.255.451.018-.435.134-.539-.041-.151.108-.2-.287-.122-.816-.05-.039.71.6,1.138-.12.794-.152.162-.562.322-.518.112-.336.259-.21.08.3.4.567.175,1.025-.021.929-.249.472-.273.378-.429.273.2.361.048,1.829-.209-.135-.434-.282-.347.153-.049.133-.095.277-.736-.277-.206-2.848-3.123L131.7,27.7l-.609-.236-1.07-.625-.424-.435-.2-.357-.327-.9-.148-.268-.3-.126Zm-79.3-9.844-.578.265-.506.494.126.13.077.167-.029.16-.174.1.174.311.332.118.709-.054.377-.2.234-.313.211-.34.292-.289-.02-.156.01-.123.034-.081.074-.035-.709-.19Zm35.5-.054-.635.622-.454,1.123.043.386.2-.122.088,0,.059.111.049.205H84l.115-.161.178-.057.425.013.23.089.073.215-.03.567.18.23.43.068.649-.04-.071-.048-.071-.113.293-.17,2.035.34-.947-1.8-.251-.467-.129-.172-.416-.356-1.382-.6Zm-39.485-.326-.118.074-.118.058L44.519,15l-.1.447.167.4.21.187.361.005.459-.265.377-.6.131-.678-.034-.3ZM117.769,12.9l-.261.069-.118.2-.113.7-.5,1.831-.052.645v.376h.113l.02-.592.034-.277.059-.27.092-.218.229-.2.119-.151.161-.581.014-.535.094-.461.4-.322v.571h.1v-.385l.061.009.052.058.008.035-.005.072.01-.039-.005-.033v-.318l-.1-.161-.181-.029Zm4.288-2.3-2.22.644-.19.142-.179.184-.086.192-.011.323.1.034.239-.167.724-.191.049.118-.04.263-.067.264-.051.116-.227.212-.211.467-.113.512.055.332.328.1.293-.22.272-.3.382-.229.258-.362.125-.132.215-.18.04.111.184.279.109.195.052.186.1.131.243.059.157.089.111.195.089.195.082.087.557.034.173-.034.119-.1.1-.149.127-.121.206-.014v.175l-.127.031-.068.047-.054.058-.094.069v.19l.127.16.089.2.127.391v.206l-.108.082-.076.118-.159.37.124.206-.835.02-.4-.142-.321-.465.1-.421-.19-.385-.29-.362-.174-.371-.221.206v.19l.14.044.155.126.136.04-.1.307-.143.177-.191.069-.235-.016.152-.41.082-.127-.076-.13-.075-.064-.088-.015h-.107l.141-.157.122-.243.181-.568-.273.1-.3.232-.3.31-.23.322.132.434-.059.319-.125.107-.069-.2-.088-.366-.19-.14-.187-.08-.086-.165-.27-.064-1.241.185-.37.181h.146l.1.064.066.142.017.242.034.215.074.064.079.019.035.088.126.128.286-.031.481-.189.014.194-.023.093-.053.043-.056.065.129.248.193.132.451.176-.1.126-.1.054-.02.005v.191l-.332.058-.488.264-.44.108-.121.146-.28.581.719-.189.165.068.1.155.122.131.221.025v.17l-.079.289.083.272.191.182.26.033-.49.327-.219.044-.187-.179-.111.185-.5-.328-.406.186-.324.492-.218.6,1,.772v.17l-.249-.1-.216.083-.1.186.113.214.16-.018.5-.246.235.074-.092.35.174.241.289.141.234.04.1.083.152.162.162.111.139-.077.123-.1.167-.036.327.036-.044-.1-.069-.077.1-.142.108-.107.238-.142-.17.42-.082.327-.128.146.571.376.513.186.463.07.255-.123.034-.292-.12-.631-.109-.047-.773.136.026.025h.044l.031.037,0,.141-.221.188.065-.739.354-.185.4-.083.188-.425.183-.286.856-.757.286-.185,1.619-.192.18.107.125.182.14.062.217-.253.157-.118.226-.019.434.039v.192l-.3.126-.892.629.322-.22.372-.116.846-.059-.138.316-.249.2-.6.252v.192l.2.088h.26l.249-.092.164-.187h.115l.062.3-.062.185-.153.087h-.191l.357.122.164.02.05-.176v-.44l.062-.453.163-.356.21-.265.22-.155-.4-.152-.278-.366-.425-.791L126.7,18.6l-.765-.186-.331-.177-.167-.249-.182-.409-.146-.488-.059-.465.155-.409.353-.344.722-.482.419-.675L126.589,14l-.482-.542-.727-.161-2.1.405-.68-.23-.272-.229-.215-.307-.131-.4-.056-.493.127-.4.3-.259.332-.2.251-.2v-.172l-.427-.229Zm-81.8-.615-.292.317-.47.889.322.44.3.557.381.343.551-.195.219-.192-.306-.175-.806-1.526.16-.214.182-.185.044-.029.043,0,.031-.029-.01-.137Zm2.031-1.244-.439.17-.366.357-.322.585.947.59.522.162.426-.162.136.118.25.1.272.03.225-.071.131-.2.185-.535.133-.226v-.19l-.287-.5-.367-.23-.9-.054Zm5.446-4.19-1.1.414-.6-.028-.557-.17-.22.814-.079.65.093.737.221.488.311.563.216.565-.093.508v.192l.547.273.878.767.464.3.211.387.562,1.518-.551.382.111.21.181-.128.342-.1.332-.011.151.128.08.3.185.3,1.327,1.425.4.644v.675l-.107.449-.267.206-.632.306-.683.605-.342.216-.411.111H46.937l-1.313.363-.347-.158-.162.23-.146.288-.049.313.137.308.259-.353.215.068.22.21.293.074v.19l-.387-.025-.493.1-.444.2-.224.286.044.724.331.605.466.424.428.152.19-.058.539-.524.248-.1.58.1.5-.058.845-.263.493-.061-.034.094-.043.2-.036.089.347-.152.61-.533.368-.072-.157.419-.254.436L49.7,22.1l-.166.136-.283.029-.683.2-.2.151V22.8l.118.426-.172.433-.249.472-.126.558.044.13.288.621.438.772h.113l.288-.328.527-.26.566-.1.4.122v.17l-.05.312.227.283.3.27.191.283V27.4l-.087.585-.133.548-.127.3L50.57,29l-.347-.118-.634-.423-.387-.115-.308.025-.619.287,1.337,2.721.537.674.572.435.375.127.172-.278.184-.122.41.113.619.287,2.057.049.605.141.611.371,1.024.89.586.234.025.542.259.888.375.822.4.36.239.084.763.431.167.145.062.479.046.743.19.868.532.6,1.168.761.6.236,1.451.164.609.357.2.357-.214.087-1.978-.444-.967-.66-.2-.1-.382-.048-.3-.137-.249-.226-1.108-1.639-.226-.826L58.6,37.86l-.46-.372-.645-.766-1.58-2.793-.357-.474-.139-.092-.551.028-.262-.047-.226-.168-.268.2-1.286-.014-1.289.318-.3.356-.65-.051-1.176.293-.694.02-1.264-.316-.614-.318-.572-.49-.4-.453-.19-.082-.336-.025-.368.082-.361.215-.318.3-.229.353-.273.732-.435,1.645-.6,1.518-.1.4-.034.461.048.452.229.621.118.519.142.408.166.368.121.159.421,1.065.083.133-.152.776-.341.329-.367.263-.249.59-.016.8L43,46.5l-.049.665-.22-.5L42.63,46l-.014-1.525.1-.791.263-.586.352-.429.391-.338v-.2l-.625-.3-1.381-.271-.655-.339-.195-.265-.2-.374-.239-.332-.313-.142-.675.034-.278.108-.211.229-.137.386-.117.926-.142.445-.028.4.341.057.635-.17.47.552L39.88,44l-.36.932-.341.572-.2.2-.171.1-.2.044-.27.01-.233-.116-.17-.25-.133-.259-.131-.112-.112-.08-.308-.356-.19-.108-.273-.008-.187.079-.2.1-.219-.234-.146-.347-.3-.9.287-.182.635-.053.293-.151.352-.264.151-.25.049-.493-.181-.284-.357-.1-.253-.124.141-.341v-.172l-.542-.38-.673-.858-.449-.988.108-.766v-.2l-1.3-.38-4.86.682-2.387.5-.381-.092-.171-.235-.176-.121-2.49.283-1.281.5-.6.625-.31.219-.586.659-.524.361-.229.3.034.357.209.221.473.239.142.19.031.346-.118.265-.156.082-.088.221-.649-.143-.322,0-.132.244-.068.41-.313.82-.074.46.005,2.008.239.751.6.3,3.686.127.645.239.392.572-.312-.123-.557-.357-.347-.088-.38.005-.215.113-.411.619.118.3-.053.321-.146.287-.142.2-.182.2-.16.088.038.756.016.435-.049.419-.112.463-.231.6-.038.213.015.323.059.173.078.141.064.233.146,1.924-.025.962-.146.855-.352.9-1.328,2.1-.293.809-.137.9-.151,2.88-.118.938-.3.569-.576-.18-.244-.1-.8.118-.86-.259-1.538.023-.542.167-.572.416.136.277-.029.241-.079.218.005.22.117.171.527.455-.9.454-.263.024.2.416.059.473.023.469.1.4.318.372.429.21,1.28.179.84.323.455.074.424-.031.406-.115.151-.146.1-.175.1-.05.986,1.606.229.678-.136.962-.326.757-.118.4-.01.482.146.562.139.249-.05.137-.717.44-.176.206-.382.613-.321.289-.694.3-.313.333-.362.731-.2.187-1.05.115-.26.148-.278.289-.082.146-.133.337-.131.167-.2.1-.172.009-.141.07-.113.273.034.4.255.185.355.1,1.061.591.415.444.083.128.044.176-.019.322-.08.079-.125.022-.133.148-.371.67-.377.449-.434.239-1.436.043-1.611.552-.8.616-.269.118H9.556L8.516,87l.132.59-.063.264-.61.168-.049-.407-.264-.152-.619-.1-.074-.088-.175-.322-.118-.112-.136-.014-.5.106-.546-.224-.523-.42-.521-.249-.547.3.2.151.605.636.215.341-.258-.064-.382-.1-.527-.142-.659.177-.234.128-.333.248-.313.132-.664.116-.268.193-.054.233.366.283.215.509-.024.526-.362.358-.014.279.16.068.47-.015.185.092.362.274.16.166-.214.739.371.474,1.094.478-.185.587-.088.372.068.317,1.079,1.484.649.756.118.848.078.47-.059.514-.122.551L5.509,99l.244.293-.093.229-.048.566-.089.323-.161.224-.41.288-.172.165-.829,1.534-.344.415-.161.288-.14.512-.045.578.112.473.382.21.8-.553.371.127-.128.072-.371.3.342.318-.243.32-.924.506-1.494,1.17-.22.249-.312.655-.195.22-.3.034-.216-.2-.195-.249-.224-.128-.455.24.094.6.248.736.019.649.22-.042.42-.21.219-.064.225.031.425.14.581-.069.034.135-.1.212-.059.214.019.373.043.2.124.132.379.24.533.185-.034.1-.083.142-.029.167.136.526-.005.2-.1.265-.181.215-.362-.029-.224.127-.142.253.015.221.034.235-.083.308-.234.215-.244-.058.068.326.121.21.161.114.107.155-.033.332-.005,0-.01.019-.014.026-.01.044v.049l.013.029.01.02.175.089.093.053.01.186v.057l-.059.27.04.138.024.077.214.023.64-.18.269.029.312.307.181.277.8,1.228.005,0-.221.137.19.367.332.178,1.119.022.039.155-.083.168-.034.057-.181.226v.092l-.362.214-.312.259-.2.166-.3.464,0,.006.263.337-.126.194.023.112v.007l.127.053.187.014h0l-.126.219.092.084.034.034h.005l.039.1.1.2.088.069.04.035.048,0,.112,0,.47-.147.077-.023.03-.025.01-.009.039-.016.035.016.039.034.249.116.7.163.293.017-.18.177-.01.055-.029.15.01.044.038.18.089.26.044.076.093.152.092.02h.026l.034.05.029.036v.008l0,.08-.01.339-.106.567-.005.029-.112.337.019.3.562.977.034.35v.006l-.133.143-.067.067-.005.005-.424.071-.22-.037-.122-.044-.065-.025-.179-.016-.089.05-.127.071-.107.135-.054.067-.108.241-.034.257.074.224H6.788L6.5,128.2l-.411.113L5.8,128.4l-.338.16-.112.173L5.3,128.8l-.282.2-.084.06-.165.212-.005.006.214.239.025.064.068.224-.009.284-.1.239-.034.019-.088.059-.322.025-.025.017-.113.07-.019.048-.01.035-.033.161-.02.122-.04.123.166.132.058.154v.008l-.013.042-.035.123-.146.172-.113.367-.077.346-.1.7.028.02.1-.01.034.005-.058.084-.151.294.175.1.107.205.1.529-.043.277.068.205.283.424.244.705.128.218.175-.344.278.452L6,137.5l.253.258L6.8,138l.235.152.079.138.16.433.021.084.125.01.245-.148.141.007.274.174.468.439.274.176.283.078h.776l.5.146.063,0,.083.088-.035.035,0,.215-.025.015-.074.541-.005.182.045.106-.005.1-.156.137-.015.224.04.2.078.18.112.152-.142-.054-.073.041-.054.121.107.128.035.055-1.192.77-.248.352.029.082.1.068.1.1.014.167-.044.111-.121.182-.161.335-.425.518-.245.384-.093.274v.786l-.136,1.046.054.75v.183l.136.014.172-.034.307-.21.132-.049.182.029,1.485.743.277.268.1.205.043.2.005.143-.03.01.112.165.786.836.054.146-.073.2-.283.015-.093.226.1.285.274.335,1.073,1.034.025.109-.029.249.014.1.088.062.225.082.068.074.128.455.054.106.018.054.031.2.044.088.073-.011.214-.14h.07l.1.389-.083.315-.044.3.205.346.191.079.724.009.629.235.205-.048.278-.372-.057-.41-.123-.4.093-.34.161-.04.677.152.471-.043.179.022,1.011.577.347.016,0,.873.184.675.357.283.5-.313.025-.128-.053-.127-.011-.137.147-.146.088.008.621.452.253.136.254.083,1.4.015.434.206.1.014.092-.1.172-.353.1-.122.148-.049.327-.043.123-.054.082-.137.118-.361.076-.122.269-.153.381-.115.313.029.067.274.7.048.293.107.108.357-.122.078-.041.055-.029.082.224.24.368.591.215.271.352.221.708.127.361.185.117.147.157.322.152.127.224.049.2-.049.19-.077.2-.046.182.03.341.123.156.025.2-.055.379-.2.177-.049,1.348.389.923-.1.292.036,2.564,1.368,1.591.331.191.175-.341.392-.5.957-.737,2.021-.2.342-.1.083-.6.316-.143.01-.034.06-.072.072-.08.132-.034.231-.034.131-.094.084-.121.045-.459,0-.18.063-.089.215-.018.469-.074.195-.17.232-.216.209-.2.126-.439.526-.249.217-.269.088-.191.138-.683,1.061-.137.8v.85l.191.519v.163l-.405.324-.2.2-.083.219-.035.463-.077.235-.108.157-.112.233-.083.274-.118.644-.019.318.054.293.1.314.085.32-.02.342-.221.358-.3.16-.263.217-.113.505-.032.5-.1.409-.171.351-1.021,1.436-.107.295-.035.35-.083.192-.107.146-.117.214-.107.372-.1.469.048,1,.7,1.236.034.752-.152.287-.434.46-.083.32.019.391-.028.107-.1.245-.068.117-.108.1-.049.109-.014.1,0,.064.014.056-.005.108.088.449-.04.269-.219.118L27.37,188l-.23.775-.043.338.2.841-.009.39-.093.16-.268.283-.059.147.044.514.053.26.063.112.24.121.219.308.367.727.1.122.1.094.083.12.035.23-.035.088-.067.241.823-.245.368-.04-.211.6-.176.164-.419,0,.835.443.357.046,1.347-.28.309-.172.253-.312.3-.46.223.118,1.045.065.1.1.054.225.028.226.047.1h2.108l.728-.161.155-.106.074-.1.064-.121.137-.156.13-.1.353-.19.3-.09.112-.116.078-.117.084-.054.874-.147.293,0,.42.131.185.021.087.1.089.229.111.231.162.108.616.159,1.035.006.5-.082.02-.113.19-.41.492-.327.488-.05.25.235.189.322.182.22.215-.074.107-.184.02-.178-.01-.169.02-.166L44.2,192.9l-.038-.094-.032-.106.04-.133.059-.049.082-.032.074-.006.015.038.009.148.1.054.094-.567-.146-.017-.259-.106-.225-.038-.786.136-.244.123-.226.16-.239.123-.287.015-.332-.192-.416-.316-.082-.015-.255-.091.1-.259-.039-.207L41.1,191.3l.02-.176.154-.18.41-.224.177-.163.121-.484.074-.175.219-.322.128-.074.18.006.87-.177.248-.12-.151-.382.254-.146.4.025.3.132.031.176.014.311.054.295.16.116.2-.133.084-.522.146-.156.208.067.157.24.128.28.122.189.165.039.181-.039.156.028.108.243-.044.1-.215.322-.053.156.068.2.127.161.045.18.029.157.855-.01-.133-.15.146-.469.436.019.527.308.42.4-.3.069v.17l.244.241.468.35.4.1.636-.057.591-.193.254-.277.308-.123,1.805.207h.894l.221.341h.6l.63.146,4.478,2.789,1.015.279,1.04-.021.439-.208.234-.367.2-.434.357-.409.236-.125.238-.028.229.082.19.2.053.283-.028.295.059.252.331.167.127-.009.2-.128.085-.02.488.183.478.032.244-.049.2-.155.043.395.167.225.2.207.147.316v.073l.005.072.025.142.181.1.141-.059.142-.126.185-.083.8,1.165.143.281-.074.249-.37.288.18.2.038.249.021.26.081.223.162.152.108,0,.122-.088.216-.1.077.011.166.1h.088l.069-.052.19-.212.714-.131.3.16-.014.431-.293.881.039.155.01.146-.044.157-.079.077-.214.063-.064.045-.146.269-.069.15.074.04,1.284-.156.357-.137.721-.444.319-.289.288-.392.362-.721.1-.152.166-.113.342-.121.141-.094.269-.355.234-.485.146-.536v-.508l-.068-.3-.088-.208-.136-.157-.23-.122.167-.952.02-.22-.109-.27-.14-.263-.026-.21.244-.093.268-.049.127-.05.054.045.074.224-.02.092-.078.113-.059.156.024.205.089.106.131.1.254.117.688.107.191-.034.2-.167.328-.458.225-.158.39.005,2.139.812.064.073.054.122.083.119.138.037.477-.058.655-.3.229-.063.226.014.17.1.372.277-.136.164-.523.359.112.183.835.394.807.868.049.108,0,.16-.035.166-.052.107-.041,0,.169.324.224.131,1.69.025.316-.1,1.055-.734.41-.111.349.142-.037.649.388.044.357-.16.228-.249.215-.289.312-.287.3-.1.7-.013.265-.113.141-.238-.064-.178-.176-.114-.2-.054.762-.883.371-.086.4.059.368.112.761-.129.352-.135.293-.326.082-.221.126-.557.115-.255.448-.39.059-.067.3.009.709.141,1.317.006.91.187.171-.054.16-.406.182-.113,1.358-.273,3.719.161.131-.029.46-.591.058-.152.019-.226-.028-.64-.046-.13-.08-.059-.135-.132-.115-.157-.053-.133-.032-.194.255-.1.391-.327.143-.086.234-.1.038-.01-.048.114-.043.254-.056.19-.106.14-.054.172.092.262.162.142.172-.023.364-.19.352-.049.934.2.277-.045.635-.243.265.054.078.136.166.513.088.2.131.155.485.392.224.106.339.01.34-.061.251-.114.722-.644.307-.155.575-.137h.581l.909.232.274-.038-.167.419.255.312.421.279.32.308-.439.22-.2.557.086.59.4.322.249.041.152.057.136.107.739.817.8.6.175.072.137-.043.137-.073.164,0,.157.082.092.093.1.065.176-.011.113-.1.458-.545,0-.2-.041-.142-.052-.127-.035-.127-.016-.152V194.9l.042-.06.155-.386.014-.035-.032.014-.016-.546.044.017.264-.341.011-.068.189-.473.044-.054.034-.289.01-.293-.043-.308-.131-.346-.318-.542-.2-.238-.2-.152-.25-.038-.41.181-.244.038-.9-.165-.263-.269.3-.464.005-.006.1-.17.029-.161.006-.152.032-.151.088-.191,1.046-1.674-.078-.079-.347-.522-.552-1.27-.274-.27-.126-.071-.327-.337-.391-.23-.132-.192-.083-.253-.049-.292-.243-.542-1.139-1.192-.15-.239-.149-.286-.077-.323.028-.322.1-.176.107-.034.1.005.1-.044.235-.361.063-.085.644-.449.209-.244.3-.467.147-.163.243-.124.9-.177-.023-.059.255-.2.515-.293.607-.582.259-.183,1.679-.667,2.23-.389.544-.3,1.581-1.388.23-.375.086-.519.035-.122.073-.126.074-.167.034-.255-.034-.687.034-.224.074-.226.219-.464.044-.233-.034-.215-.153-.234-.063-.442-.048-.11-.009-.088.088-.172.144-.13.526-.2.545-.071,1.682.466.283.152.262.2.245.379.663.3.035.034.147-.651.136-.277.054.015.336-.055.129-.058.136-.131.078-.118.274-.6.1-.316.052-.357.014-.411-.088-.786.042-.294.216-.2-.2-.1-.082-.071-.173-.343-.082.031.035-.232.482-1.019-.316-.327-.781-1.559-.378-.593-.224-.126-.6-.094-.3-.145-.28-.274-.254-.385-.171-.444-.038-.464-.3.029-.276-.151-.272-.22-.29-.171-.37-.084-.226.1-.151.274-.165.43-.383-.187-.511-.364-.463-.437-.235-.374-.012-.694-.178-.429-.686-.7-.493-.658-.2-.172-.322-.122-.984-.049-.457-.269-.253-.412-.216-.488-1.514-2.06-.2-.112h0v-.005l-.518-.616-.075-.23-.023-.238-.088-.2-.286-.117-.454-.483-.233-.19-.274-.147-.619-.169-.22.073.069.317-.3.044-.953-.143-.32-.116-.256-.264-.529-1.186-.33-.337-.741-.35-.318-.263-.185-.361-.077-.4-.049-.814-.02-.421-.124-.1-.169.025-.18-.054-.178-.186-.125-.184-.1-.225-.107-.3-.063-.295-.072-.551-.118-.269-.172-.185-.386-.215-.165-.2.013-.064.075-.195-.128-.063-.039-.031.136-.307-.013-.332-.133-.265-.224-.115-.536-.26-.249-.167-.236-.209-.332-.484-.17-.317-.078-.263.191-.376.669-.289.257-.259.051-.41.009-.526.1-.353.328.1.118-.389.377-.69.125-.38.055-.488-.1-.182-.23-.091-.663-.388.019-.272.112-.335-.043-.367-.274-.266-.595-.058-.244-.245h-.02l-2.446-1.312-.056-.162,0-.223-.035-.258-.141-.249-.235-.207-.259-.146-.229-.209-.142-.38-.009-.378.11-.575-.043-.378-.128-.3-.181-.277-.395-.439-.8-.5-.166-.3.2-.306.169-.107.108-.118.031-.327-.058-.356-.134-.226-.375-.391,1.185.089.313.22.092.233-.006.434.066.2.178.159.24.075.465.01.117.063.054.091-.01.119-.075.14-.022.008-.023,0-.021.015-.021.019-.044.05-.016.049.016.06.044.056.283.283.068.1.07.161.028.148.017.133.195.692.165.259.273.034.224-.165v-.226l-.092-.27-.049-.311.055-.449.083-.236.323-.41.042-.4.133-.2.182-.128.178-.19.5-.915.175-.168.473-.269.2-.172.059-.035.143.006.069-.034.034-.094-.01-.1-.023-.085v-.054l.044-.111.032-.131.056-.123.121-.108.45-.381.65-.2,1.211-.087.869.157.211-.026.18-.175.355-.552.211-.206.262-.1.26-.014.289.039.1-.039.226-.152.145-.031.137.04,1.5.911.552.035.481-.479.232-.269.106-.46.107-1.036.132-.094.137-.034.131.031.128.089.142.046.151.014.152-.014.146-.038.005-.008.46-.153.849.048.4-.3.234-.421.536-1.441.314.031.263.184.267.119.343-.173.171-.518.093-.161.606-.429.1-.107.011-.094.043-.028.2.073.088.1.224.382.107.137.361.175.3-.073.273-.249.284-.352.161-.093.094-.118.013-.155-.092-.206.27-.2.218-.284.063-.341-.189-.392.664-.4.732-.14,1.455.007.312-.058.617-.23.352-.035.741.085.293-.062.47-.29.1,0,.092-.035.112-.155.006-.136-.04-.177-.02-.22.068-.247.152-.182.138,0,.156.05.2-.035.166-.124.251-.316.171-.122.316-.069.59.074.314-.019L135,113.181l.2-.185.3-.45.176-.17.58-.121,1.27.1.479-.4.093-.64-.43-.25-.6-.176-.414-.411.014-.268.136-.092.026-.054-.323-.13-.548-.075-.189-.121.179-.264.232-.738.389-.392.514-.086.6.2.122.111.086.143.108.14.176.1.175,0,.454-.2.586.034.188-.1.14-.356.094.218.032.157.058.151.152.209.2.143.436.107.2.156.2.239.127.206.049.248-.029.386-.126.307-.2.365-.088.313.186.148.892-.372.2.006.088.286-.094.342-.272.644-.058.46.079.189.561.157.233.131.621.469.6.133.35.014.258-.067.156-.182.157-.3.254-.688.005-.476.226-.374.576-.645.819-1.944.723-1.832.048-.293v-.5l.03-.249.089-.182.126-.116.108-.172.028-.332.019-.65.132-.722.221-.688.277-.544-.068-.071-.059-.083.084-.746-.234-.509-.368-.429-.3-.529-.049-.175-.07-.464v-.023l-.154-1.784.136-.322-.167-.356-.3-.311-.249-.2-.364-.175-.762-.226-.372-.209v-.005l-.343-.243-1.051-.356-.362-.378-.089-.458.133-.505.318-.5.19-.522-.032-.682-.156-.661-.209-.454-.786-.654-.367-.425-.165-.664-.064-.688-.224-.3-.293-.2-.263-.411-.05-.552.211-.454.927-.946.3-.4.249-.473.137-.513.059-1.6.088-.252.352-.636.069-.25.031-.238.047-.235.127-.224.3-.371-1.055-.793-.161-.373.1-.686L143.3,79l.063-.376-.234-.365V78.1l.313-.42.005-.537-.25-.462-.454-.2-.458-.108-.553-.284-.36-.4.1-.484-.342-.767-.38-1.151-.094-1.057.84-.737.389-.624.271-.622-.079-.282-.3-.278.124-.616.454-.953-.5-.415-1.03-1.161-.972-.387-.464-.633-.307-.148L138.9,65.2l-.551-1.093-.253-.292-1.719-1.269-.44-.239-.533-.626-.321-.142-.361-.03-.337-.1-.286-.224-.184-.377.43-.372.166-.326.069-.5-.034-.338-.2-.945-.1-.274v-.167l.784-.58.986-.517.952-.763.5-.515.215-.49.041-.224.49-1.525-.034-.386-.1-.385-.058-.434.044-.364.115-.326.163-.239.172-.092.116-.18.425-.832-.215-.2-.062-.151-.245-.208-.1-.171-.049-.264-.009-.493-.023-.229-.45-2.087-.171-1.4-.337-.577-.169-.567-.39-.606-.118-.56-.017-.606.044-.991-.028-.269-.338-1.058-.244-.533.063-.424-.02-.763-.116.015-.26-.034-.239-.084-.2-.118.733-.531.02-.013.131-.2-.048-.444-.074-.073-.16-.152-.259-.053-.122.083-.191.382-.457.136-1.3-.1-.2-.077-.4-.246-.121-.033-.392.033-.064-.062-.258-.328-.538-.121-1.191-1-.175.039-.264-.234-.234-.347-.1-.3-.137-.1-.3-.075-.3-.146-.141-.336.166-.352,1.163-.958.179-.255.1-.312-.027-.257-.2-.113-.092-.013-.1-.041-.1-.057-.082-.074-.059-.024-.231.024-.062-.049,0-.108.02-.122-.014-.1-.048-.126-.05-.2-.071-.187-.113-.077-.454-.2-.1-.067-.17-.284-.47-.6-.193-.152.433-.268.2-.482.13-.533.236-.406v-.19L127.528,25.7l-.49-.254v-.17l.155-.046.108-.088.026-.123-.067-.141-.461.156-.83.563-.479.224-2,.4v.189l.136.122.18.313.139.127v.191l-.382-.01-.3-.195-.238-.334-.205-.4-.234-.636-.091-.136-.148-.038-.1.087-.123.067-.191-.115.127-.113.079-.127.127-.327-.316-.122-.6.307-.406.007.191-.2.247-.174-.432-.391-.539-1.1-.416-.223-.561-.138-.844-.479-.533.049.181-.123.109-.049.149,0v-.2h-.724l-.179-.1-.043-.229v-.3l-.044-.3-.464-.748-.064-.425.3-.545-.189-.185-.705-.367-.19-.269-.121-.352.009-.331.206-.2-.409-.124-.646.239-.645.421-.408.41-.146.272-.166.45-.143.226-.176.16-.165.05-.314-.02-.166.033-.058.03-.058-.05-.278-.35-.1-.182-.078-.195-.044-.218-.146.2-.155.132-.177,0-.187-.167-.178.211-.183-.083-.17-.245-.142-.263-.053.219-.073.184-.206.354.039-.347.1-.317.166-.221.24-.063v-.205l-.206-.019-.2.026-.19.072-.164.127.027.1.043.206.04.094-.883.508-.483.121-.3-.263v.185l-.132-.105-.111-.007-.3.113v.191l.1.023.214.167-1.051.507-.272.229-.035.118-.013.347-.056.136-.069.048-.174.059-.1.062-.406.4-.151.235-.109.327.333.3.2.091.251-.01-.348.216-.4-.1-.7-.494.18-.215-.035-.243-.138-.3-.11-.375.267-.059.2-.244.079-.329-.1-.329.107-.192.117.1.092.043.234.046-.092-.442.106-.421.22-.321.261-.126.588.057.316.161.266.334.145-.318.293-.195.347-.035.313.171-.006-.121.025-.035h.045l.053-.019-.133-.02-.1-.034-.064-.1-.031-.24.1-.028.142-.124.084-.053.1.205.1-.37.152-.088.419.083h.334l.092-.072.168-.256.129-.052.424.059L111.9,18l1.735.152.415-.089.4-.375-.207-.313-.466-.113-.372.211-.608-.293h-3.686l-.7-.29-.347-.55h.112v-.176l-.331.166-.187.244-.254.727-.669,1.163-.107.267-.973,1.414-.584,1.13-.241.29-.615.512-1.22.669-.211.059-.224.151-.386.644-.327.3-.55.722-.127.259.156-.1.167-.074.177-.029.178.02-.143.37-.462.264-.17.323.088.267.077.719.155.332-.374-.444-.04-.649.063-.768-.082-.791-.607.391-3.859.831L95.147,25.3l-.63.087L94,25.749l-.4.722-.063.074-.071.1-.048.137v.146l.118.094-.011.142-.068.2-.084.177-.106.122-.132.044-.215.154-.293.728-.322.244-.142.005-.416-.177v.172h.113v.206l-.553.562.03.131.039.307.031.127-.133.035-.161.121-.121.2.074.439-.124.552-.165.439-.024.29h-.183l-.12-.085-.621-.785-.009-.083H89.15l-.1-.088-.166-.392-.121-.083-.655.563-.132.033-.484-.033-.2-.118-.035-.287.069-.624-.082-.139-.578-.16-.115-.191-.1-.391-.113-.157-.141-.053-1.97.264-.864.463-.306.064-.263.1-.479.5-.2.167-.085.014-.25-.014-.243-.073-.059-.25-.013-.325-.118-.29-.155-.062-.624.062-.446-.135-.312-.263L79.561,29l-.215-.535v-.177l.167-.187.624-.971.063-.073.127-.084.151.015.107.122.113.078.137-.121.127,0,.653-.224.286-.187.648-.834,1.88-1.22.073-.244.155-.178.153-.247.068-.474-.1-.8-.017-.47.118-.346-.129-.528-.145-1.1-.175-.448.249.107.091.077.172-.269.6-.673-.51-.194-1.132.7-.38-.264-.278.1-.284-.128.4-.005.294-.008V19.01l-1.352.175-.557.236-.533.347-.926.864-.548.337L79,21.105l-.67-.167-1.441-1.361-2.552-1.139-.983-.785L73,17.472l-.688-.06-.186.06-.151.151-.082.157-.108.152-.221.13-.61.065-.166.106-.112.236-.22.919-.38.862-.265.329-.354.131.16-.263.058-.259-.048-.235-.169-.185.1-.186,0-.088-.055-.043-.042-.064.277-.084.293-.25.229-.346.094-.371-.084-.445-.131-.347,0-.3.316-.321-.976-.86-.3-.108-3.905.932-.7-.365V16.34l.684-.08.7-.229.65-.367.522-.483.2-.3.157-.323.113-.39.077-.493.1-1.156-.009-.559-.089-.38.117-.4-.087-.17-.187.014-.17.151-.249-.326-.42.023-.424.128-.234-.02.008-.253.036-.06.068.006.107-.071.054,0,.4-.317-.009-.059.151.04.2.093.22.023.2-.155-.3-.332-.146-.214-.1-.22-.22-.958-.37-.475-.53-.321-.381.025.065.58-.74.283-.424.073-.184-.257-.167-.484-.385-.278-.42-.181-.283-.215-.674-.3-1-.053-.785-.293L60.36,5.6l-.21.17-.2.372-.4.155-.307.387-.962.488-.245-.005-.238.083-.274-.034L57.2,6.91l-.293.068-.177.155-.234.069-.156.161-.245.044L54.911,7.4l-.284-.111-.116-.338-.049-.39-.079-.285-.267-.239L50.683,5.23l-1.276-.523-1.294-.224ZM41.512,0l-.685.854L39.607,4.3l-.156.6-.19,3.042.014.737.107.4.1-.087.084-.382.043-.5-.059-1.528.049-.113.026-.552.043-.206.083-.082.487-.343.108-.044.157,0,.136.067.136.245.108.054H42l.25-.07.443-.35.254-.139,2.021.113.405-.321-3.529.179-.776-.195L40.521,4.3l.093-1-.142-.522.169-.567.3-.453.659-.371L41.751,1,41.62.655,41.165.611,41.3.47l.986-.054Z" transform="translate(0 -0.001)" fill="#ed1c24"/>
    <g id="Group_54797" data-name="Group 54797" transform="translate(-335.865 -439.853)">
      <g id="Group_54796" data-name="Group 54796" transform="translate(335.865 482.278)">
        <path id="Path_43889" data-name="Path 43889" d="M370.27,482.278l80.566.133s11.051,28.825-1.761,60.2c0,0-49.772-59.437-104.325-14.417Z" transform="translate(-332.887 -482.278)" fill="none" stroke="#191f21" stroke-miterlimit="10" stroke-width="1" fill-rule="evenodd"/>
        <path id="Path_43890" data-name="Path 43890" d="M475.489,542.9l-39.661,70.128s-30.538-4.519-51.582-31.079c0,0,76.214-14.192,63.765-83.819Z" transform="translate(-319.652 -476.967)" fill="none" stroke="#191f21" stroke-miterlimit="10" stroke-width="1" fill-rule="evenodd"/>
        <path id="Path_43891" data-name="Path 43891" d="M375.515,607.738,335.865,537.6s19.613-23.84,53.22-28.182c0,0-27.124,72.624,38.957,97.846Z" transform="translate(-335.865 -473.181)" fill="none" stroke="#191f21" stroke-miterlimit="10" stroke-width="1" fill-rule="evenodd"/>
      </g>
      <path id="Path_43892" data-name="Path 43892" d="M381.358,509.875s28.521,5.893,52.967,31.008" transform="translate(15.246 9.248)" fill="none" stroke="#191f21" stroke-miterlimit="10" stroke-width="1" fill-rule="evenodd"/>
      <path id="Path_43893" data-name="Path 43893" d="M434.452,533.4s-19.431,21.693-53.433,30.2" transform="translate(15.132 17.132)" fill="none" stroke="#191f21" stroke-miterlimit="10" stroke-width="1" fill-rule="evenodd"/>
      <path id="Path_43894" data-name="Path 43894" d="M381.755,509.876s-9.319,27.591.009,61.377" transform="translate(13.991 9.249)" fill="none" stroke="#191f21" stroke-miterlimit="10" stroke-width="1" fill-rule="evenodd"/>
    </g>
  </g>
</svg>
