<svg xmlns="http://www.w3.org/2000/svg" width="215.863" height="173.297" viewBox="0 0 215.863 173.297">
  <g id="Group_53785" data-name="Group 53785" transform="translate(0.256 0.229)">
    <path id="Path_39127" data-name="Path 39127" d="M620.7,232.582s-15.762-2.013-18.18-2.013-8.473-.807-12.113-4.046S569,209.962,565.768,208.347s-16.561-11.305-20.2-11.711-4.038,0-8.485,0-2.418,2.82-10.494,3.226-12.532,5.665-10.1,6.46,10.1,7.674,7.674,8.891-2.82,4.849-6.059,4.849-6.46.406-6.46,2.82-4.435,6.46-8.075,6.059c-2.072-.228-6.625-2.558-10.164-4.515l-1.061,2.934-.406,2.769c.718,2.135-.342,10.963,1.729,11.656,2.262.748,3.463,4.828,8.308,10.126s14.667,19.52,14.819,22.987c.152,3.488,1.81,7.255,7.86,11.335,6.059,4.1,6.059,9.081,9.234,11.508s2.427,5.285,2.562,11.343c.152,6.05,2.883,13.906,8.333,17.258,5.437,3.31,9.216,6.938,11.8,13.462,2.558,6.486,5.894,12.088,9.369,15.563s1.518,5.285,3.475,7.864a27.678,27.678,0,0,1,3.365,5.944c2.693-1.289,4.574-2.287,4.727-2.583.583-1.175-1.163-4.4-.288-5.56s2.613-3.226,4.385-3.809c1.746-.579,3.792,1.771,7.585,1.18s11.707.288,12.578,1.163,11.695.3,14.324,2.351,5.26,1.454,7.018-2.643c1.742-4.084,14.024-12.857,15.779-13.741s14.9,0,20.163-1.167,39.768-12.261,41.218-13.436c1.467-1.167,7.018-19.283,7.018-21.343,0-2.038-2.634-7.6-5.264-7.31s-24.26-2.046-25.727-2.917c-1.175-.71-6.913-5.035-7.712-10.988a13.29,13.29,0,0,1-4.249-6.549c-2.49.33-6.372-.237-8.532-5.877-2.013-1.378-7.323-8.917-5.471-11.026,2.275-2.566-1.2-8.016-4.54-11.039s-10.126-8.621-10.43-12.1a20.782,20.782,0,0,0-1.289-4.351l-8.13-.414Z" transform="translate(-491.936 -196.45)" fill="#ed1c24" stroke="#fff" stroke-width="0.5"/>
    <g id="Group_54799" data-name="Group 54799" transform="translate(-318.639 -464.557)">
      <g id="Group_54798" data-name="Group 54798" transform="translate(335.865 482.278)">
        <path id="Path_43895" data-name="Path 43895" d="M370.5,482.278l81.295.135s11.151,29.086-1.777,60.741c0,0-50.222-59.974-105.268-14.547Z" transform="translate(-332.78 -482.278)" fill="none" stroke="#191f21" stroke-miterlimit="10" stroke-width="1" fill-rule="evenodd"/>
        <path id="Path_43896" data-name="Path 43896" d="M476.314,543.3l-40.019,70.762s-30.814-4.56-52.049-31.36c0,0,76.9-14.321,64.342-84.576Z" transform="translate(-319.068 -476.776)" fill="none" stroke="#191f21" stroke-miterlimit="10" stroke-width="1" fill-rule="evenodd"/>
        <path id="Path_43897" data-name="Path 43897" d="M375.874,608.627l-40.009-70.768s19.79-24.055,53.7-28.436c0,0-27.369,73.28,39.31,98.73Z" transform="translate(-335.865 -472.854)" fill="none" stroke="#191f21" stroke-miterlimit="10" stroke-width="1" fill-rule="evenodd"/>
      </g>
      <path id="Path_43898" data-name="Path 43898" d="M381.358,509.875s28.779,5.947,53.445,31.288" transform="translate(15.794 9.581)" fill="none" stroke="#191f21" stroke-miterlimit="10" stroke-width="1" fill-rule="evenodd"/>
      <path id="Path_43899" data-name="Path 43899" d="M434.935,533.4s-19.607,21.889-53.916,30.472" transform="translate(15.677 17.749)" fill="none" stroke="#191f21" stroke-miterlimit="10" stroke-width="1" fill-rule="evenodd"/>
      <path id="Path_43900" data-name="Path 43900" d="M381.792,509.876s-9.4,27.841.009,61.931" transform="translate(14.495 9.582)" fill="none" stroke="#191f21" stroke-miterlimit="10" stroke-width="1" fill-rule="evenodd"/>
    </g>
  </g>
</svg>
