<svg id="Group_54624" data-name="Group 54624" xmlns="http://www.w3.org/2000/svg" xmlns:xlink="http://www.w3.org/1999/xlink" width="227.599" height="107.466" viewBox="0 0 227.599 107.466">
  <defs>
    <radialGradient id="radial-gradient" cx="0.5" cy="0.5" r="0.5" gradientUnits="objectBoundingBox">
      <stop offset="0"/>
      <stop offset="1" stop-color="#19304c" stop-opacity="0"/>
    </radialGradient>
    <clipPath id="clip-path">
      <rect id="Rectangle_52200" data-name="Rectangle 52200" width="186.281" height="102.371" fill="#ed1c24"/>
    </clipPath>
  </defs>
  <ellipse id="Ellipse_29" data-name="Ellipse 29" cx="113.799" cy="5.095" rx="113.799" ry="5.095" transform="translate(0 97.275)" fill="url(#radial-gradient)"/>
  <g id="Group_53916" data-name="Group 53916" transform="translate(21.392 0)">
    <g id="Group_53916-2" data-name="Group 53916" clip-path="url(#clip-path)">
      <path id="Path_41039" data-name="Path 41039" d="M0,79.261V5.454C.923,1.639,2.662.218,6.446.186q73.387,0,146.766-.01A4.336,4.336,0,0,0,155.356,0h.364a13.579,13.579,0,0,1,10.133,4.85,18.817,18.817,0,0,1,3.706,7.6c1.375,5.013.986,4,5.456,4.108,1.09.027,2.181-.007,3.271.008,2.782.039,3.6.591,4.536,3.263a89.252,89.252,0,0,1,3.46,11.8v2.182a2.633,2.633,0,0,1-2.683,2.235,3.249,3.249,0,0,1-3.145-2.336c-1.133-2.941-2.013-5.971-3.051-8.946-.261-.749-.508-1.449-1.479-1.637-2.69-.522-3.209.016-2.445,2.671,1.929,6.695,4.094,13.321,5.91,20.048a52.918,52.918,0,0,1,1.6,13.135c.078,5.816.041,11.634.012,17.452-.028,5.656-3.173,8.789-8.823,8.826-3.092.02-6.185,0-9.278.005-2.551,0-2.545.009-3.295,2.384a21.273,21.273,0,0,1-12.347,13.726,14.963,14.963,0,0,1-5.868.969h-4.122c-7.485.392-14.867-6.157-17.3-12.383-.11-.282-.21-.568-.31-.854-1.335-3.829-1.335-3.829-5.49-3.829q-26.822,0-53.644,0c-2.786,0-2.756.014-3.606,2.645a21.091,21.091,0,0,1-12.846,13.691,14.085,14.085,0,0,1-5.183.73H34.842c-7.166.478-15.042-5.89-17.5-12.58-.1-.284-.2-.571-.3-.857-1.248-3.669-1.248-3.667-5.225-3.669-1.453,0-2.907.033-4.36-.013C3.283,85.093.938,83.208,0,79.261" fill="#191f21"/>
      <path id="Path_41040" data-name="Path 41040" d="M116.053,151.305c.742,2.174,1.384,2.615,3.921,2.616q27.65.005,55.3-.014a4.554,4.554,0,0,1,3.294,1.112,10.784,10.784,0,0,0,7.359,2.6c4.366-.016,8.732.029,13.1-.027,1.1-.014,1.458.3,1.443,1.424-.059,4.544-.04,9.089-.018,13.634.008,1.685-.775,2.4-2.45,2.386-3.759-.04-7.52-.066-11.277.021-1.165.027-1.567-.418-1.8-1.453-1.9-8.409-7.138-13.721-15.41-15.822C158.571,155,147.033,162.5,144.924,173.62c-.232,1.225-.715,1.423-1.776,1.422q-29.56-.032-59.12.013c-1.1,0-1.515-.389-1.686-1.363a20.481,20.481,0,0,0-20.57-16.455,20.879,20.879,0,0,0-19.1,14.714c-.259.918-.531,1.833-.8,2.749-.819.431-1.247.031-1.5-.715a5.057,5.057,0,0,1-.187-1.617q-.026-7.989,0-15.978A3.143,3.143,0,0,1,40.836,154c.725-.026,1.449-.074,2.174-.074q30.977-.007,61.953.015c1.99,0,3.432-.567,3.967-2.632a11.571,11.571,0,0,1,7.123,0" transform="translate(-25.539 -95.811)" fill="#ed1c24"/>
      <path id="Path_41041" data-name="Path 41041" d="M390.425,73.149c-1.862-.761-2.344-2.1-2.307-4.108.137-7.508.083-15.019.027-22.529-.009-1.267.177-1.77,1.636-1.75,6.6.091,13.212.048,19.817.03.89,0,1.561.01,1.884,1.123,2.817,9.689,5.74,19.347,8.527,29.045a30.321,30.321,0,0,1,1.313,9.458,57.87,57.87,0,0,1-8.847.144,3.856,3.856,0,0,1-2.2-1.2c-2.881-2.313-5.846-4.53-8.632-6.952a11.207,11.207,0,0,0-7.688-2.7,7.048,7.048,0,0,1-3.532-.557" transform="translate(-246.68 -28.45)" fill="#fff"/>
      <path id="Path_41042" data-name="Path 41042" d="M40.546,15.685c.663-.035,1.326-.1,1.989-.1q67.886-.007,135.772-.031c3.759,0,6.918.929,9.082,4.192a3.622,3.622,0,0,1,.274.665,4.089,4.089,0,0,1-2.139.187q-71.12.016-142.24.01c-3.459,0-4.4-1.691-2.738-4.924" transform="translate(-25.262 -9.886)" fill="#ed1c24"/>
      <path id="Path_41043" data-name="Path 41043" d="M115.8,138.307l-7.123,0a3.114,3.114,0,0,0-2.285-2.866,7.247,7.247,0,0,0-1.988-.094q-30.621-.008-61.242,0c-3.291,0-4.223-1.751-2.595-4.872.786-.025,1.571-.071,2.357-.071,38.9,0,77.792.074,116.687-.109,4.48-.021,7.038,2.393,10.331,5.147h-2.2q-24.083,0-48.165,0c-2.647,0-3.343.544-3.778,2.862" transform="translate(-25.288 -82.813)" fill="#ed1c24"/>
      <path id="Path_41044" data-name="Path 41044" d="M284.406,53.979c2.676-1,2.86-1.275,2.879-4.06.012-1.747-.6-4.091.28-5.084,1.018-1.145,3.412-.337,5.2-.361,3.94-.053,7.881.013,11.821-.037,1-.012,1.344.251,1.338,1.3q-.062,11.541,0,23.082c.006,1.069-.231,1.472-1.4,1.458-5.273-.063-10.549-.055-15.823,0-1.077.01-1.532-.219-1.451-1.393.1-1.508-.022-3.029.037-4.541a2.828,2.828,0,0,0-2.635-3.264c-.261-.156-.567-.33-.6-.633-.271-2.173-.8-4.367.353-6.464" transform="translate(-180.311 -28.105)" fill="#818080"/>
      <path id="Path_41045" data-name="Path 41045" d="M198.856,57.688c0-3.749.047-7.5-.027-11.248-.024-1.216.23-1.676,1.566-1.656q7.9.118,15.794,0c1.256-.017,1.474.435,1.467,1.559q-.064,11.339.005,22.678c.01,1.3-.4,1.629-1.651,1.614-5.143-.062-10.288-.071-15.431,0-1.336.02-1.79-.314-1.755-1.705.093-3.747.032-7.5.032-11.248" transform="translate(-126.368 -28.464)" fill="#818080"/>
      <path id="Path_41046" data-name="Path 41046" d="M104.658,57.752c0-3.872.032-7.743-.022-11.614-.014-1.016.271-1.335,1.308-1.325q7.989.072,15.98,0c.962-.007,1.369.166,1.362,1.263q-.071,11.614-.005,23.228c0,.993-.232,1.355-1.294,1.345-5.327-.051-10.654-.061-15.98.006-1.2.015-1.384-.434-1.37-1.473.051-3.81.02-7.622.02-11.433" transform="translate(-66.505 -28.482)" fill="#818080"/>
      <path id="Path_41047" data-name="Path 41047" d="M31.631,70.256c-.312.722-.95.358-1.417.361-4.6.029-9.2-.027-13.8.036-1.178.016-1.525-.3-1.516-1.5q.081-11.429,0-22.86c-.009-1.2.334-1.536,1.512-1.494,2.779.1,5.564.067,8.346.088.75.793.6,1.8.6,2.744.02,6.144.006,12.289.011,18.434,0,3.9-.091,3.559,3.5,3.607.95.013,1.95-.137,2.757.584" transform="translate(-9.469 -28.471)" fill="#606060"/>
      <path id="Path_41048" data-name="Path 41048" d="M24.789,159.519q-.008,9.537-.011,19.074c0,.749-.239,1.7,1.055,1.625-.37.634-.98.308-1.468.315-2.418.036-4.837.027-7.255.01-1.337-.009-2.173-.542-2.168-2.043q.029-8.972-.008-17.944c0-.881.306-1.145,1.155-1.127,2.9.062,5.8.065,8.7.091" transform="translate(-9.492 -101.33)" fill="#d81d24"/>
      <path id="Path_41049" data-name="Path 41049" d="M48.761,70.278c-1.693.006-3.393-.077-5.078.045-1.46.106-1.844-.427-1.832-1.845.064-7.856.034-15.712.036-23.568,1.939-.021,3.878-.013,5.816-.077.829-.027,1.172.185,1.165,1.1-.06,8.116-.077,16.233-.107,24.349" transform="translate(-26.599 -28.494)" fill="#818080"/>
      <path id="Path_41050" data-name="Path 41050" d="M93.738,183.708a15.037,15.037,0,0,1,14.952,16.019c-.622,8.444-8.253,14.531-15.678,13.7a7.949,7.949,0,0,1-2.965-2.539c-.409-.489-.689-1.064.235-1.379,2.584.117,5.15.459,7.686-.585a11.108,11.108,0,0,0-5.718-21.287,4.98,4.98,0,0,1-1.263.093c-1-.173-1.228-.709-.591-1.48.91-1.1,1.809-2.247,3.342-2.544" transform="translate(-56.989 -116.76)" fill="#818080"/>
      <path id="Path_41051" data-name="Path 41051" d="M375.288,183.709a15.034,15.034,0,0,1,14.952,16.018c-.634,8.491-8.3,14.535-15.68,13.7a7.928,7.928,0,0,1-2.966-2.539c-.409-.489-.688-1.064.236-1.379,2.584.117,5.15.458,7.686-.585a11.108,11.108,0,0,0-5.711-21.288,5.047,5.047,0,0,1-1.262.1c-.987-.168-1.228-.677-.609-1.475a6.579,6.579,0,0,1,3.354-2.549" transform="translate(-235.936 -116.76)" fill="#818080"/>
      <path id="Path_41052" data-name="Path 41052" d="M364.538,57.935c0,3.746-.03,7.492.018,11.238.014,1.089-.323,1.491-1.452,1.46-4.139-.116-3.574.407-3.587-3.583-.022-6.767.034-13.534-.037-20.3-.015-1.469.344-2,1.9-1.957,3.158.1,3.161.01,3.161,3.174q0,4.985,0,9.969" transform="translate(-228.479 -28.467)" fill="#e5e5e5"/>
      <path id="Path_41053" data-name="Path 41053" d="M356.422,183.714c-1.013.933-2.035,1.858-3.036,2.8-.3.285-.733.66.128.787.03.851-.72.863-1.225,1.088-4.33,1.936-6.827,5.311-6.926,9.986a10.593,10.593,0,0,0,5.93,10.068c.6.324,1.443.426,1.545,1.344-.253,1.11.874,1.308,1.322,1.949a17.092,17.092,0,0,0,1.532,1.692c-5.941.216-11.781-4.408-13.6-10.771-2.692-9.41,4.624-19.084,14.33-18.948" transform="translate(-217.07 -116.764)" fill="#606060"/>
      <path id="Path_41054" data-name="Path 41054" d="M74.87,183.711c-1.013.934-2.034,1.86-3.035,2.807-.3.288-.723.66.13.785.031.851-.719.863-1.223,1.088-4.257,1.9-6.731,5.2-6.922,9.8a10.673,10.673,0,0,0,5.264,9.9c.772.49,1.874.618,2.205,1.7-.251,1.11.873,1.308,1.323,1.95a17.31,17.31,0,0,0,1.532,1.692c-5.945.213-11.781-4.408-13.6-10.77-2.694-9.409,4.615-19.076,14.327-18.951" transform="translate(-38.121 -116.763)" fill="#606060"/>
      <path id="Path_41055" data-name="Path 41055" d="M80.66,44.952c.625.448.354,1.111.355,1.674.019,7.382-.025,14.764.044,22.145.014,1.488-.376,2.165-1.918,1.9a4.543,4.543,0,0,0-.726-.008c-2.418-.011-2.422-.011-2.422-2.375q0-10.437,0-20.875c0-2.559,0-2.561,2.53-2.528.362,0,.724.04,1.086.062.648.628.52,1.445.521,2.22q.009,10.789,0,21.579c.006-7.132,0-14.264.009-21.4,0-.829-.177-1.714.519-2.4" transform="translate(-48.299 -28.526)" fill="#e7e8e8"/>
      <path id="Path_41056" data-name="Path 41056" d="M24.732,15.756c-.008,4.747-.008,4.747,4.7,4.747h139.5c.97,0,1.94-.013,2.91-.02-.444.832-1.206.338-1.774.339q-35.454.052-70.908.03-41.181,0-82.361-.018c-.836,0-1.943.5-1.939-1.229.008-3.295.142-3.889,1.877-3.922,2.661-.05,5.326.043,7.988.075" transform="translate(-9.449 -9.957)" fill="#d81d24"/>
      <path id="Path_41057" data-name="Path 41057" d="M394.453,122.659c1.813.031,3.629.012,5.439.1,2.8.142,4.914,1.706,6.982,3.427,2.912,2.424,5.936,4.713,8.868,7.113a2.85,2.85,0,0,0,1.985.662c2.54-.027,5.081-.025,7.622-.035-.3.731-.943.37-1.41.373-4.288.028-8.576-.013-12.864.02a5.914,5.914,0,0,1-3.852-1.3c-4.276-3.428-8.517-6.9-12.771-10.358" transform="translate(-250.708 -77.96)" fill="#e7e8e8"/>
      <path id="Path_41058" data-name="Path 41058" d="M270.2,70.3c-1.294.757-2.689.235-4.034.285-.655.024-.633-.613-.633-1.1,0-7.8.009-15.609-.018-23.414,0-.99.427-1.269,1.316-1.212.784.05,1.573.04,2.359.056.69.684.513,1.564.524,2.392q.133,10.385.011,20.77c-.008.765-.179,1.586.475,2.219" transform="translate(-168.759 -28.511)" fill="#e5e5e5"/>
      <path id="Path_41059" data-name="Path 41059" d="M175.386,70.308c-1.3.741-2.7.232-4.044.282-.657.024-.635-.609-.636-1.093,0-7.805.009-15.611-.018-23.416,0-.987.415-1.274,1.309-1.216.784.051,1.572.041,2.359.058.692.684.522,1.565.523,2.392.011,6.928,0,13.855.011,20.783,0,.766-.176,1.588.5,2.211" transform="translate(-108.486 -28.511)" fill="#e5e5e5"/>
      <path id="Path_41060" data-name="Path 41060" d="M24.747,130.665c-.006,4.687-.006,4.687,4.74,4.687q29.49,0,58.98.011c.7,0,1.458-.229,2.1.273q-37.015,0-74.029.034c-1.46,0-1.673-.492-1.649-1.766.065-3.31.008-3.319,3.311-3.307,2.181.008,4.362.045,6.542.07" transform="translate(-9.465 -83.004)" fill="#d81d24"/>
      <path id="Path_41061" data-name="Path 41061" d="M276.545,70.339c-1.32.064-1.019-.918-1.019-1.641q-.011-11.871.009-23.741c.982-.206,1.1.365,1.084,1.142-.028,1.452.085,2.912-.03,4.356-.163,2.052.615,3.38,2.606,3.966.194,2.362-.238,4.747.253,7.1-2.08.366-2.811,1.2-2.837,3.221q-.035,2.8-.066,5.6" transform="translate(-175.101 -28.547)" fill="#e5e5e5"/>
      <path id="Path_41062" data-name="Path 41062" d="M181.727,70.348c-1.3.068-1.04-.893-1.04-1.631q-.007-11.878.01-23.755c.942-.194,1.122.31,1.118,1.118q-.061,12.134-.088,24.268" transform="translate(-114.828 -28.551)" fill="#e5e5e5"/>
      <path id="Path_41063" data-name="Path 41063" d="M86.87,45.071q.007,11.873,0,23.746c0,.535.319,1.476-.524,1.475s-.526-.939-.527-1.477q-.023-11.873,0-23.746l1.052,0" transform="translate(-54.509 -28.644)" fill="#e5e5e5"/>
      <path id="Path_41064" data-name="Path 41064" d="M77.079,215.551c-4.08-1.711-6.838-4.515-7.77-8.992A11.5,11.5,0,0,1,76.3,193.724c.5-.187.973-.438,1.458-.66A12.1,12.1,0,0,1,88.29,195.6a11.7,11.7,0,0,1,3.415,12.518,11.477,11.477,0,0,1-10.5,7.861,16.136,16.136,0,0,1-4.13-.426" transform="translate(-43.911 -122.524)" fill="#191f21"/>
      <path id="Path_41065" data-name="Path 41065" d="M358.629,215.552c-4.061-1.728-6.844-4.508-7.772-8.992a11.514,11.514,0,0,1,6.989-12.835c.5-.187.973-.438,1.458-.66a12.059,12.059,0,0,1,10.393,2.426,11.649,11.649,0,0,1,3.562,12.625,11.472,11.472,0,0,1-10.681,7.864,16.656,16.656,0,0,1-3.95-.429" transform="translate(-222.86 -122.525)" fill="#191f21"/>
      <path id="Path_41066" data-name="Path 41066" d="M92.84,219.534a5.878,5.878,0,0,1-7.509-1.865,6.121,6.121,0,0,1,.289-7.534,5.952,5.952,0,0,1,7.641-1.276,2.949,2.949,0,0,1-.615,1.278,7.888,7.888,0,0,0-.332,7.572c.257.58.8,1.09.525,1.825" transform="translate(-53.499 -132.211)" fill="#e7e8e8"/>
      <path id="Path_41067" data-name="Path 41067" d="M104.679,221.008a8.446,8.446,0,0,1-1.059-8.945,2.944,2.944,0,0,1,1.481-1.729,5.48,5.48,0,0,1,3.129,5.563,5.416,5.416,0,0,1-3.551,5.111" transform="translate(-65.338 -133.685)" fill="#e7e8e8"/>
      <path id="Path_41068" data-name="Path 41068" d="M374.4,219.536a5.878,5.878,0,0,1-7.507-1.866,6.135,6.135,0,0,1,.29-7.534,5.958,5.958,0,0,1,7.641-1.276,2.973,2.973,0,0,1-.617,1.277,7.886,7.886,0,0,0-.334,7.574c.258.581.8,1.09.528,1.826" transform="translate(-232.459 -132.212)" fill="#e7e8e8"/>
      <path id="Path_41069" data-name="Path 41069" d="M386.23,221.005a8.445,8.445,0,0,1-1.06-8.949,2.927,2.927,0,0,1,1.484-1.727,5.491,5.491,0,0,1,3.127,5.566,5.412,5.412,0,0,1-3.551,5.11" transform="translate(-244.286 -133.682)" fill="#e7e8e8"/>
    </g>
  </g>
</svg>
