<svg id="Group_53927" data-name="Group 53927" xmlns="http://www.w3.org/2000/svg" xmlns:xlink="http://www.w3.org/1999/xlink" width="196.727" height="120.839" viewBox="0 0 196.727 120.839">
  <defs>
    <radialGradient id="radial-gradient" cx="0.5" cy="0.5" r="0.5" gradientUnits="objectBoundingBox">
      <stop offset="0"/>
      <stop offset="1" stop-color="#19304c" stop-opacity="0"/>
    </radialGradient>
    <clipPath id="clip-path">
      <rect id="Rectangle_51387" data-name="Rectangle 51387" width="170.623" height="117.315" fill="none"/>
    </clipPath>
  </defs>
  <ellipse id="Ellipse_21" data-name="Ellipse 21" cx="98.364" cy="4.404" rx="98.364" ry="4.404" transform="translate(0 112.031)" fill="url(#radial-gradient)"/>
  <g id="Group_52951" data-name="Group 52951" transform="translate(12.801 0)" style="isolation: isolate">
    <g id="Group_52943" data-name="Group 52943" style="mix-blend-mode: luminosity;isolation: isolate">
      <g id="Group_52943-2" data-name="Group 52943" clip-path="url(#clip-path)">
        <path id="Path_38118" data-name="Path 38118" d="M.044,51.231C.033,50.063.013,48.9.012,47.728q0-19.844.007-39.687A7.759,7.759,0,0,1,4.168,1a7.7,7.7,0,0,1,8.086.3A7.674,7.674,0,0,1,15.81,6.937a.43.43,0,0,0,.142.33q.027,6.611.058,13.222a1.55,1.55,0,0,0,.214,1.155l1.805-5.075c.362-.806.574-1.669.936-2.475.542-1.467,1.068-2.94,1.63-4.4a7.867,7.867,0,0,1,5.963-5.06,16.527,16.527,0,0,1,4.024-.28c5.983-.039,11.954-.493,17.938-.527a24.4,24.4,0,0,0,4.144-.221c.633-.112,1.206.326,1.835.369a9.43,9.43,0,0,0,2.4,1c2.718.941,5.44,1.871,8.151,2.832A2.3,2.3,0,0,1,66.4,9.056a3.524,3.524,0,0,1-.046,2.875,2.641,2.641,0,0,1-3.309,1.049c-3.322-1.091-6.608-2.292-9.909-3.444a4.138,4.138,0,0,0-1.942-.2c-1.687.212-3.4,0-5.086.311q-2.7.016-5.4.005a27.64,27.64,0,0,0-5.459.2c-1.824.22-3.647.122-5.471.159-.441.009-.881.01-1.321.04A3.1,3.1,0,0,0,25.516,12.4a45.028,45.028,0,0,1-1.9,5.029,1.979,1.979,0,0,0-.442,1.017c-.135.62-.452,1.179-.6,1.8-.024.088-.054.173-.086.257-.314,1.038-.841,2-1.1,3.055a15.73,15.73,0,0,0-.567,1.524c-.13.293-.272.58-.4.874a18.367,18.367,0,0,0-1.23,3.688,11.3,11.3,0,0,1-.63,1.743,19.7,19.7,0,0,0-1.253,3.529,2.479,2.479,0,0,0,.779,2.724c1.73,1.742,3.672,3.25,5.418,4.973a2.825,2.825,0,0,1,.525.535,2.957,2.957,0,0,0,1.313,1.129c1.49,1.218,2.907,2.52,4.333,3.81,1.987,1.8,4.05,3.515,5.986,5.372a4.578,4.578,0,0,0,1.929.973c.576.173,1.124.417,1.684.633a5.648,5.648,0,0,0,1.133.36,8.305,8.305,0,0,1,.988.423,2.419,2.419,0,0,0,1.157.311,32.032,32.032,0,0,1,3.757,1.386,8.415,8.415,0,0,0,2.648.87,29.843,29.843,0,0,1,2.844,1,29.15,29.15,0,0,0,3.753,1.256,6.1,6.1,0,0,1,1.157.468c.8.374,1.661.6,2.49.905.086.024.169.056.252.088a6.846,6.846,0,0,0,1.161.338c6.846,2.394,13.7,4.765,20.541,7.173,1.939.682,2.81.413,4.124-1.193,1.52-1.857,2.827-3.868,4.24-5.8a9.053,9.053,0,0,0,1.247-4.294,1.787,1.787,0,0,1,.08-.416,4.333,4.333,0,0,0,.379-1.311,1.5,1.5,0,0,1,.1-.263,16.341,16.341,0,0,0,.746-3.62,6.446,6.446,0,0,1,.47-1.9,22.548,22.548,0,0,0,1.229-5.269,15.434,15.434,0,0,1,.636-2.857,53.546,53.546,0,0,0,1.262-5.467,12.465,12.465,0,0,1,1.379-4.887,19.213,19.213,0,0,1,2.519-3.275,2.994,2.994,0,0,0-.012-2.694,1.988,1.988,0,0,0-.8-1.025,53.552,53.552,0,0,0-7.206-2.489,76.7,76.7,0,0,1-7.533-2.657,2.464,2.464,0,0,0-1.1-.463,1.54,1.54,0,0,1-.25-.1,10.7,10.7,0,0,0-2.592-.763c-2.171-.66-4.32-1.393-6.424-2.234a2.524,2.524,0,0,1-1.539-3.635,3.143,3.143,0,0,1,2.2-1.744.526.526,0,0,1,.758.007l4.912,1.7c1.294.364,2.53.895,3.8,1.33q7.166,2.513,14.331,5.029c.918.323,1.823.687,2.733,1.032a15.371,15.371,0,0,1,1.355.871,2.75,2.75,0,0,0,.751.624A7.173,7.173,0,0,1,105.242,26c.123.641.359.722.925.7a10.507,10.507,0,0,1,10.44,6.911,14.849,14.849,0,0,1,.662,4.459q-.035,20.415-.013,40.829c0,1.075,0,1.109,1.067,1.068a23.987,23.987,0,0,0,4.313-.129q0-27.743,0-55.486a7.934,7.934,0,0,1,5.7-7.986,10.244,10.244,0,0,1,2.431-.277q10.943.009,21.886,0a13.149,13.149,0,0,1,2.806.286,7.7,7.7,0,0,1,5.114,4.743c.483,1.694.832,3.424,1.344,5.11q2.819,11.2,5.638,22.4c.253,1.005.514,2.008.772,3.013.433,1.369.748,2.768,1.058,4.168a26.39,26.39,0,0,0,.743,3.172c.082.48.182.974.292,1.457.063.479-.12.992.2,1.435V93.9a1.18,1.18,0,0,0-.191.851,3.226,3.226,0,0,1-.028.54,7.071,7.071,0,0,1-.741,1.825,8.155,8.155,0,0,1-7.624,4.185c-2.272-.043-4.545.008-6.817-.019-.607-.007-.854.143-.969.807a18.565,18.565,0,0,1-3.934,8.466,13.7,13.7,0,0,1-3.006,2.875l-1.334.941a9.539,9.539,0,0,1-2.471,1.322h0a1.2,1.2,0,0,1-.844.3,25.111,25.111,0,0,1-6.121,1.313,12.78,12.78,0,0,1-4.023-.306,18.921,18.921,0,0,1-10.815-6.409c-.468-.55-.806-1.2-1.3-1.725a20.063,20.063,0,0,1-2.477-5.488,1.572,1.572,0,0,1-.264-.989c.089-.918-.405-1.016-1.151-1.014q-12.477.025-24.953.011c-1.088,0-1.079,0-1.239,1.1a1.6,1.6,0,0,1-.287.886,18.351,18.351,0,0,1-6.576,9.887c-.5.292-.925.675-1.4,1a23.582,23.582,0,0,1-4.136,2.01,18.309,18.309,0,0,1-13.45-.578A12.04,12.04,0,0,1,62,114.378l-.4-.346c-.332-.323-.772-.494-1.123-.79a18.107,18.107,0,0,1-6.785-11.21c-.105-.543-.271-.757-.83-.746-1.451.028-2.9.033-4.355,0-.605-.014-.766.224-.88.8A17.97,17.97,0,0,1,40.8,113.26c-.5.293-.93.692-1.415,1.009a16.417,16.417,0,0,1-4.067,1.9,18.187,18.187,0,0,1-5.115.947c-.152.007-.315-.028-.429.116a17.866,17.866,0,0,1-7.956-1.543,12.039,12.039,0,0,1-2.476-1.315l-.4-.346c-.332-.323-.772-.494-1.123-.79a18.06,18.06,0,0,1-6.781-11.207c-.12-.626-.368-.754-.925-.749-1.761.015-3.539.154-5.207-.631A7.751,7.751,0,0,1,.033,93.422c-.076-3.752,0-7.508.012-11.262.135-.253.185-.54.329-.789a2.654,2.654,0,0,1,2.576-1.4q5.058.007,10.115,0a2.347,2.347,0,0,0,1.23-.161l-4.974-9.8c-.482-.87-.923-1.76-1.334-2.666l-.587-1.3a16.341,16.341,0,0,0-1.33-2.654h0c-.1-.236-.165-.488-.277-.72-.384-.628-.611-1.34-1.051-1.937L1.332,53.91C.934,53,.4,52.159.044,51.231" transform="translate(0 0)" fill="#191f21"/>
        <path id="Path_38119" data-name="Path 38119" d="M157.255,58.709l7.566,2.653c2.407.817,4.809,1.645,7.188,2.542.327.349.8.578.9,1.116a3.913,3.913,0,0,1-.136,2.915,1.946,1.946,0,0,1-.718.769c-3.352,1.392-4.931,3.966-5.306,7.523a48.434,48.434,0,0,1-1.4,6.274c-.3,1.226-.567,2.459-.859,3.686a5.745,5.745,0,0,1-1.861,2.992,33.609,33.609,0,0,1-10.452,6.544,32.7,32.7,0,0,1-14.966,1.95A44.752,44.752,0,0,1,126.251,94.8c-6.6-2.335-13.229-4.609-19.837-6.933a10.013,10.013,0,0,1-3.559-2.575,9.634,9.634,0,0,0-1.927-1.787,1.153,1.153,0,0,1-.3-.242,4.564,4.564,0,0,0-1.3-1.185c-1.758-1.334-3.28-2.937-4.958-4.362-1.055-.9-2.034-1.877-3.1-2.762-.427-.355-.931-.7-.812-1.386.317-1.206.867-2.332,1.2-3.534l.584-1.687c.306-1.115.807-2.162,1.143-3.266a6.174,6.174,0,0,0,.521-1.108c.261-.588.4-1.226.71-1.793.2-1.088.835-2.031,1.041-3.117h0a7.546,7.546,0,0,0,.671-1.914,3.737,3.737,0,0,1,.294-.923c.659-1.767,1.335-3.528,1.972-5.3s1.292-2.3,3.17-2.414c.755-.048,1.513-.078,2.269-.073,2.9.02,5.79-.252,8.685-.387.343-.016.688.027,1.032.043-.022.609-.522.389-.807.408a20.059,20.059,0,0,0-2.83.177,2.1,2.1,0,0,0-1.861,2.057,2.2,2.2,0,0,0,1.687,2.416,7.963,7.963,0,0,0,3.015.116,48.735,48.735,0,0,1,5.012-.153,3.793,3.793,0,0,0,1.568-.3,2.371,2.371,0,0,0,.621-3.991c-.237-.216-.659-.306-.592-.764,1.978-.1,3.958-.3,5.935-.279a11.494,11.494,0,0,1,3.4,1.061c2.5.844,4.989,1.719,7.476,2.6a2.542,2.542,0,0,0,3.092-.905c.193-.181.269-.482.568-.552,1.459.489,2.917.982,4.379,1.465.325.107.66.183.989.273-.316,1.673.114,2.8,1.5,3.344,2.158.838,4.367,1.542,6.555,2.3.884.324,1.8.565,2.656.958h0a8.188,8.188,0,0,1,1.15.376" transform="translate(-73.271 -38.717)" fill="#ed1c24"/>
        <path id="Path_38120" data-name="Path 38120" d="M620.265,223.272c-.032.194-.175.249-.34.25-1.515,0-3.03,0-4.545.011-.456,0-.617-.218-.6-.642.012-.252,0-.5,0-.757q0-20.025.006-40.05a14.833,14.833,0,0,0-.547-4.484,1.938,1.938,0,0,1-.006-.555,6.508,6.508,0,0,1,.738,3.267q.015,8.142.011,16.284c0,8.584.015,17.168-.022,25.752,0,.863.238,1.074,1.05,1.017,1.413-.1,2.837.077,4.252-.092" transform="translate(-497.629 -143.438)" fill="#4b4b4b"/>
        <path id="Path_38121" data-name="Path 38121" d="M349.252,49.92c-.148.227-.217.535-.568.552A3.477,3.477,0,0,0,348.9,47.7c.65.656.26,1.477.353,2.22" transform="translate(-282.498 -38.646)" fill="#b78d3c"/>
        <path id="Path_38122" data-name="Path 38122" d="M695.45,146.915l.533.036c1.247.227,2.518.32,3.747.652.572.177,1.168.241,1.751.371a1.592,1.592,0,0,1,.447.041c1.219.248,2.444.7,3.635-.1a1.308,1.308,0,0,0,.46-.318c.179-.18.266-.6.615-.422.274.136.253.5.235.775a42.638,42.638,0,0,1-.909,7.2,34.933,34.933,0,0,1-6.872,14.073c-.457.564-.993,1.057-1.436,1.633a.959.959,0,0,1-.807.423q-10.567,0-21.129,0c-1.024,0-1.027,0-1.027-1.026q0-27.332,0-54.663a2.563,2.563,0,0,1,2.836-2.877c7.011,0,14.021-.01,21.031.006.34.132.421.449.51.748.318,1.055.6,2.121.823,3.2.214,1.029.092,1.157-.945,1.158-3.526,0-7.051.008-10.576,0a8.087,8.087,0,0,0-4.158,1,4.487,4.487,0,0,1-1.1.8,7.2,7.2,0,0,0-2.454,3.045,11.131,11.131,0,0,0-.677,4.7c.077,2.416-.12,4.836.107,7.249a19.793,19.793,0,0,0,.558,2.652l.58,1.5a12.3,12.3,0,0,0,3.591,4.56c2.522,2.1,5.558,2.82,8.708,3.231.629.175,1.321,0,1.918.351" transform="translate(-546.624 -91.32)" fill="#e7e8e8"/>
        <path id="Path_38123" data-name="Path 38123" d="M101.871,173.636c.495.438,1,.864,1.483,1.315,1.687,1.575,3.967,1.816,5.987,2.619,2.685,1.067,5.446,1.948,8.192,2.852,5.015,1.651,9.883,3.748,15.032,4.993a31.624,31.624,0,0,0,10.4.572,30.889,30.889,0,0,0,15.933-6.281c1.081-.808,2.072-1.735,3.1-2.606,1.191-1.006,1.258-2.507,1.609-3.848q1.036-3.96,1.841-7.978a16.887,16.887,0,0,1,.832-3.751,7.4,7.4,0,0,1,4.77-4.375c-.308.942-1.185,1.539-1.5,2.474a14.894,14.894,0,0,0-1.336,4.918c-.5,1.823-.975,3.651-1.312,5.512l-.6,2.8c-.344,1.8-.786,3.58-1.293,5.343l-.4,1.879c-.334,1.263-.5,2.567-.936,3.8h0a9.893,9.893,0,0,1-.349,1.338q-.016.182-.033.364c-.222,1.163-.515,2.31-.782,3.462a2.8,2.8,0,0,1-.557,1.083c-1.4,2.093-2.85,4.154-4.435,6.114-1.107,1.369-1.961,1.663-3.646,1.085-5.619-1.93-11.226-3.895-16.836-5.851-1.425-.5-2.844-1.009-4.265-1.514a3.623,3.623,0,0,0-1.142-.379l0,0a21.049,21.049,0,0,0-2.655-.952l-1.13-.384a32.249,32.249,0,0,0-3.8-1.325l-2.84-.95c-.856-.4-1.819-.491-2.652-.95l-3.784-1.334a5.861,5.861,0,0,1-1.143-.375l-.95-.373c-.326-.292-.773-.217-1.143-.377-3.26-.564-5.246-3.045-7.547-5.04-2.184-1.894-4.323-3.841-6.482-5.765-.47-.348-.851-.8-1.314-1.152-1.952-1.768-3.895-3.546-5.86-5.3a2.791,2.791,0,0,1-.988-3.027q.108-.166.2.011c.053.5.468.739.784,1.025,2.447,2.217,4.913,4.412,7.361,6.626.254.23.632.316.775.67.495.318.821.832,1.322,1.142l.191.189c.714.477,1.178,1.233,1.9,1.7" transform="translate(-72.285 -127.317)" fill="#d81d24"/>
        <path id="Path_38124" data-name="Path 38124" d="M93.552,238.45c2.456,2.167,4.967,4.276,7.353,6.518,2.52,2.368,5.072,4.624,8.576,5.4a15.893,15.893,0,0,0,1.956.691,3.255,3.255,0,0,1,1.065.288l6.431,2.28a5.259,5.259,0,0,1,1.153.372c4.39,1.552,8.776,3.115,13.172,4.652,6.206,2.171,12.425,4.306,18.626,6.492a7.876,7.876,0,0,0,6.49-.428c.112-.058.226-.113.344-.16a2.068,2.068,0,0,1,.3-.053c-.237,1.8-.794,3.5-1.151,5.235-.047.226-.26.251-.452.262s-.379.01-.568.01q-16.156,0-32.312.011a1.808,1.808,0,0,1-1.412-.57q-14.691-14.723-29.406-29.422c-.132-.132-.239-.288-.358-.433a4.975,4.975,0,0,0-1.33-1.331l0,0a4.993,4.993,0,0,0-1.329-1.329l0,0a3.969,3.969,0,0,0-1.372-1.309l-.352-.358c-.028-.219-.367-.437-.091-.641.253-.186.438.091.609.25a6.375,6.375,0,0,0,.617.54l.4.379a29.812,29.812,0,0,0,3.037,2.649" transform="translate(-71.927 -190.044)" fill="#818080"/>
        <path id="Path_38125" data-name="Path 38125" d="M29.381,75.549c-1.407-2.043-1.343-4.355-1.336-6.7.037-12.541.016-25.082.019-37.623,0-1.775.937-2.975,2.418-3.071a2.392,2.392,0,0,1,2.492,1.336,5.64,5.64,0,0,1,.278,1.951q-.008,18,0,36.006a3.881,3.881,0,0,0,.178,1.489,1.4,1.4,0,0,1-.045,1.107,3.286,3.286,0,0,0,.937,3.94q6.746,6.722,13.472,13.462a7.152,7.152,0,0,1,2.139,3.289,5.564,5.564,0,0,1-5.327,6.9c-.947.006-1.9-.038-2.842.012a1.452,1.452,0,0,1-1.7-1.124.99.99,0,0,0-.3-.47q-1.995-3.906-3.988-7.812c-.441-.869-.857-1.751-1.284-2.627a70.1,70.1,0,0,0-3.291-6.476c-.3-.24-.28-.644-.481-.935l0,0c-.481-.869-.923-1.758-1.332-2.662" transform="translate(-22.72 -22.804)" fill="#818080"/>
        <path id="Path_38126" data-name="Path 38126" d="M59.919,101.8c.058.023.157.034.169.071.435,1.371,1.518,1.333,2.647,1.252a8.781,8.781,0,0,1,1.8,0c1.992.271,4.272-1.344,5.072-3.248a5.34,5.34,0,0,0-1.254-5.905Q61.295,86.9,54.219,79.848a3.406,3.406,0,0,1-.878-4.267,1.069,1.069,0,0,0,.146-.727,16.582,16.582,0,0,1-.155-3.957q-.023-16.474.007-32.948c0-.919-.212-1.807-.2-2.718a2.356,2.356,0,0,1,.432,1.873c0,11.907.022,23.815-.021,35.722a4.78,4.78,0,0,0,1.517,3.684q15.626,15.548,31.184,31.164c.212.212.516.366.57.715a1.768,1.768,0,0,1-1.025.122c-7.2.005-14.4-.007-21.6.021a1.33,1.33,0,0,1-1.438-.9c-.882-1.975-2.027-3.824-2.834-5.837" transform="translate(-42.884 -28.543)" fill="#606060"/>
        <path id="Path_38127" data-name="Path 38127" d="M488.313,268.578l1.33-5.878c.573-1.866.945-3.779,1.337-5.688l.007.007a43.113,43.113,0,0,0,1.164-5.159,19.746,19.746,0,0,1,.751-3.176l1.109-4.559a30.552,30.552,0,0,0,.953-3.984c.006-.687.231-.886.827-.4a8.949,8.949,0,0,0,2.768,1.557c.848.315,1.758.4,2.609.7,1.459.125,1.471.131,1.472,1.661,0,4.391.036,8.783-.012,13.173a12.163,12.163,0,0,1-1.765,6.972,10.549,10.549,0,0,1-9.021,5.058c-.821,0-1.643.011-2.464,0a1.341,1.341,0,0,1-1.065-.279" transform="translate(-395.623 -194.016)" fill="#818080"/>
        <path id="Path_38128" data-name="Path 38128" d="M483.608,273.639a32.461,32.461,0,0,0,5.367-.163,10.461,10.461,0,0,0,7.912-6.7,12.4,12.4,0,0,0,.74-4.609c.07-4.35.025-8.7.025-13.052,0-1.553,0-1.553-1.324-2.007a4.165,4.165,0,0,1,1.647-.085,7.234,7.234,0,0,0,2.086-.391,6.951,6.951,0,0,0,2.207-.8c.4-.224.591-.12.6.335,0,.126,0,.253,0,.379q0,15.921,0,31.843a1.43,1.43,0,0,1-.056.562,1.77,1.77,0,0,1-.929.088c-6.159.005-12.318-.016-18.476.026-.848.005-1.022-.218-.827-.985q.37-1.458.658-2.938a3.9,3.9,0,0,1,.372-1.5" transform="translate(-390.919 -199.077)" fill="#606060"/>
        <path id="Path_38129" data-name="Path 38129" d="M792.943,313.649a39.726,39.726,0,0,0,5.26-7.33,35.114,35.114,0,0,0,3.5-9.684,57.176,57.176,0,0,0,.786-6.878c-.465.233-.6.693-1.015.8a.219.219,0,0,1,.026-.335,5.706,5.706,0,0,0,.924-1.389,4.476,4.476,0,0,1,3.263.25c.593.2.589.891.721,1.426a21.51,21.51,0,0,1,1.3,5.964c.042,5.514.017,11.029.012,16.543,0,.237.1.509-.137.7a1.893,1.893,0,0,1-.837.071q-6.454.005-12.909,0c-.3,0-.631.135-.891-.139" transform="translate(-642.43 -233.829)" fill="#818080"/>
        <path id="Path_38130" data-name="Path 38130" d="M86.3,469.493l-.345-.392a2.164,2.164,0,0,1-.375-.774c-2.47-5.911-1.349-11.576,3.37-15.734a12.8,12.8,0,0,1,12.732-2.639,8.109,8.109,0,0,1,2.267.957h0a3.288,3.288,0,0,1,1.207.793,2.074,2.074,0,0,1,.737,1.481,15.564,15.564,0,0,1-.4,5.055c-.083.344-.214.667-.631.732-.432-.049-.619-.4-.84-.7a7.615,7.615,0,0,0-10.06-2.387c-3.059,1.7-4.4,4.44-3.9,8.12a9.022,9.022,0,0,1,.127.936,6.467,6.467,0,0,0,2.531,3.946c.385.336,1.12.5.977,1.132s-.874.495-1.371.626a15.693,15.693,0,0,1-4.139.211,2.173,2.173,0,0,1-1.883-1.365" transform="translate(-68.303 -364.019)" fill="#818080"/>
        <path id="Path_38131" data-name="Path 38131" d="M310.285,468.327c-2.47-5.912-1.349-11.577,3.37-15.734a12.8,12.8,0,0,1,12.733-2.639,8.129,8.129,0,0,1,2.267.957h0a3.292,3.292,0,0,1,1.207.793,2.074,2.074,0,0,1,.737,1.481,15.568,15.568,0,0,1-.4,5.056c-.083.344-.214.667-.631.732-.431-.049-.619-.4-.84-.7a7.615,7.615,0,0,0-10.06-2.387c-3.058,1.7-4.4,4.439-3.9,8.12a9.038,9.038,0,0,1,.127.936,6.468,6.468,0,0,0,2.531,3.946c.385.336,1.12.5.977,1.131s-.875.495-1.371.625a15.675,15.675,0,0,1-4.139.211,2.174,2.174,0,0,1-1.883-1.364l-.345-.392a2.168,2.168,0,0,1-.375-.774" transform="translate(-250.356 -364.019)" fill="#818080"/>
        <path id="Path_38132" data-name="Path 38132" d="M648.53,470.039c-3.421-4.473-3.293-10.888.364-15.8a12.725,12.725,0,0,1,6.476-4.508,11.311,11.311,0,0,1,6.617-.341,6.88,6.88,0,0,1,1.535.36,10.329,10.329,0,0,1,3.242,1.661,2,2,0,0,1,.816,1.809,23.236,23.236,0,0,1-.2,4.152c-.027.123-.033.251-.068.372-.1.361-.157.809-.595.886-.408.071-.578-.334-.751-.617a6.922,6.922,0,0,0-2.431-2.336,2.2,2.2,0,0,0-.955-.378,12.354,12.354,0,0,0-3.151-.582,7.711,7.711,0,0,0-5.3,13.389,4.6,4.6,0,0,1,.734.736c.183.373.862.486.654,1.031-.18.472-.727.426-1.142.535a16.2,16.2,0,0,1-4.407.245,2.555,2.555,0,0,1-1.445-.616" transform="translate(-523.423 -363.805)" fill="#818080"/>
        <path id="Path_38133" data-name="Path 38133" d="M449.63,450.317l-.137-.032a3.661,3.661,0,0,1-.73-1.022c12.474,0,24.8,0,37.129,0,.423-.013.505.184.225.468a8.687,8.687,0,0,1-.831.947l-1.1,1.345a10.914,10.914,0,0,0-.958,1.519l0,0c-.243.2-.275.5-.384.76l-.03,0a1.247,1.247,0,0,1-1.172.655q-.567.011-1.134.012-13,0-25.994,0a5.687,5.687,0,0,1-1.78-.139,1.6,1.6,0,0,1-.835-.98,20.688,20.688,0,0,0-1.508-2.495,2.71,2.71,0,0,0-.761-1.035" transform="translate(-363.581 -363.982)" fill="#ed1c24"/>
        <path id="Path_38134" data-name="Path 38134" d="M659.1,480.17a12.468,12.468,0,0,0,6.336,0c.213-.047.5.006.559-.249.061-.278-.256-.311-.431-.42-.191-.119-.393-.217-.371-.491a1.123,1.123,0,0,1,.973.243,7.646,7.646,0,0,0,10.248-2.425,6.078,6.078,0,0,0,1.21-3.756q0-.665,0-1.329a4.036,4.036,0,0,0-.776-2.639,8,8,0,0,0-3.124-3.269c-.249-.143-.607-.231-.592-.639a5.537,5.537,0,0,1,3.224,2.243c.31.388.565.818.9,1.311a5.117,5.117,0,0,0,.609-2.544c.09-1.059-.009-2.134.034-3.2a3.047,3.047,0,0,0-.566-1.459,11.731,11.731,0,0,1,5.2,6.617c1.679,5.362.6,10.177-3.493,14.135a13.315,13.315,0,0,1-19.653-1.639,4.849,4.849,0,0,1-.284-.489" transform="translate(-533.989 -373.936)" fill="#606060"/>
        <path id="Path_38135" data-name="Path 38135" d="M94.811,479.2c1.429,1.857,3.428.962,5.214,1.055a4.512,4.512,0,0,0,1.275-.279c.28-.072.736.107.785-.309.041-.345-.4-.428-.646-.61a6.538,6.538,0,0,1-2.989-4.437c.536.06.551.549.712.9a7.693,7.693,0,0,0,14.213-5.875c-.128-.338-.414-.663-.162-1.063a.541.541,0,0,0,.511-.482,17.754,17.754,0,0,0,.411-5.341,2.12,2.12,0,0,0-.711-1.4.247.247,0,0,1,.364.02,17.956,17.956,0,0,1,3.386,3.421,9.377,9.377,0,0,1,1.34,2.474,12.975,12.975,0,0,1,.6,7.939,19.2,19.2,0,0,1-1.711,4.188,13.251,13.251,0,0,1-13.338,6.1,13.809,13.809,0,0,1-8.9-5.54,1.212,1.212,0,0,1-.354-.755" transform="translate(-76.814 -373.723)" fill="#606060"/>
        <path id="Path_38136" data-name="Path 38136" d="M337.92,468.575a.541.541,0,0,0,.511-.482,17.748,17.748,0,0,0,.411-5.341,2.121,2.121,0,0,0-.712-1.4.247.247,0,0,1,.364.02,17.961,17.961,0,0,1,3.386,3.421,9.383,9.383,0,0,1,1.339,2.474,12.978,12.978,0,0,1,.6,7.939,19.219,19.219,0,0,1-1.711,4.188,13.066,13.066,0,0,1-7.216,5.666,11.047,11.047,0,0,1-6.525.38,5.493,5.493,0,0,1-1.623-.391,14.025,14.025,0,0,1-6.692-4.882,1.908,1.908,0,0,1-.538-.971c1.429,1.857,3.428.963,5.214,1.055a4.514,4.514,0,0,0,1.275-.279c.28-.072.736.107.785-.309.041-.344-.4-.428-.646-.61a6.537,6.537,0,0,1-2.989-4.437c.536.06.551.549.712.9a7.693,7.693,0,0,0,14.213-5.875c-.128-.339-.414-.663-.162-1.063" transform="translate(-258.868 -373.723)" fill="#606060"/>
        <path id="Path_38137" data-name="Path 38137" d="M755.531,193.119c-.334-1.8-1.9-1.332-3.043-1.638a4.183,4.183,0,0,0-.941-.037c.209-2.043-.944-3.07-2.994-3.406-4.187-.687-8.355-1.492-12.531-2.249a5.784,5.784,0,0,1-1.134-.384l-1.535-.928a10.99,10.99,0,0,1-1.692-1.72,8.741,8.741,0,0,1-1.506-5.171c.057-2.08,0-4.163.017-6.245a2.692,2.692,0,0,1,2.939-2.937c5.173,0,10.345.02,15.518,0,.631,0,.879.2,1,.806.225,1.108.533,2.2.807,3.3.173.5.034,1.072.374,1.529l.012-.01c.39,1.723.763,3.45,1.3,5.136v0c.166.347.093.759.3,1.1a11.908,11.908,0,0,1,.468,1.931q1.267,5,2.535,10a2.02,2.02,0,0,1,.105.922" transform="translate(-591.557 -136.438)" fill="#606060"/>
        <path id="Path_38138" data-name="Path 38138" d="M468.253,476.019a3.611,3.611,0,0,0,1.211.147q13.909-.006,27.818,0a1.856,1.856,0,0,0,1.321-.365l-1.3,3.586a1.547,1.547,0,0,0-.277.986c.06.811-.295,1.015-1.062,1.013-8.395-.022-16.789-.013-25.184-.016a1.469,1.469,0,0,1-.831-.1c-.417-.947-.51-2-.933-2.943a13.555,13.555,0,0,1-.764-2.313" transform="translate(-379.371 -385.489)" fill="#d81d24"/>
        <path id="Path_38139" data-name="Path 38139" d="M817.553,449.3c0,2.52,0,5.041-.007,7.561a2.7,2.7,0,0,1-2.974,2.99c-2.363.008-4.725-.011-7.088.012-.6.006-.883-.126-.972-.806a22.372,22.372,0,0,0-1.442-4.663,3.2,3.2,0,0,1,1.394-.071,5.394,5.394,0,0,0,5.43-4.086c.114-.383-.007-.931.583-1.07,1.4,0,2.794-.008,4.189.008.3,0,.622-.123.888.125" transform="translate(-652.255 -363.892)" fill="#d81d24"/>
        <path id="Path_38140" data-name="Path 38140" d="M540.711,168.762a5.4,5.4,0,0,1,3.543,5.284,5.332,5.332,0,0,1-4.547,4.985,4.942,4.942,0,0,1-4.938-1.956,5.112,5.112,0,0,1-.732-5.513c.034-.078.136-.126.207-.188.373.391-.087.847.131,1.334a6.862,6.862,0,0,0,3.465-3.423c-.438-.334-.954.238-1.338-.173a.778.778,0,0,1,.6-.374,5.357,5.357,0,0,1,3.609.024" transform="translate(-432.269 -136.464)" fill="#5a6972"/>
        <path id="Path_38141" data-name="Path 38141" d="M194.111,49.05a3.163,3.163,0,0,1,1.681,2.14,2.719,2.719,0,0,1-2.634,3.143c-2.584.106-5.169.175-7.755.224a2.623,2.623,0,0,1-2.685-1.563,2.532,2.532,0,0,1,.34-2.755,2.319,2.319,0,0,1,1.512-.856c1.238-.22,2.509.049,3.73-.3,1.936-.027,3.872-.146,5.81-.029" transform="translate(-147.827 -39.699)" fill="#fefefe"/>
        <path id="Path_38142" data-name="Path 38142" d="M225.2,450.317l-.137-.032a2.43,2.43,0,0,1-.664-1.022c5.321,0,10.574,0,15.826,0,.431-.013.529.188.225.474-.565.531-.963,1.2-1.516,1.738-.9.963-1.23,2.3-2.155,3.254a.681.681,0,0,1-.261.11,51.114,51.114,0,0,1-8.284-.042,2.559,2.559,0,0,1-.854-1.168,21.05,21.05,0,0,0-1.422-2.281,2.7,2.7,0,0,0-.758-1.029" transform="translate(-181.808 -363.982)" fill="#ed1c24"/>
        <path id="Path_38143" data-name="Path 38143" d="M796.739,449.368a5.655,5.655,0,0,1-7.18,5.125,22.16,22.16,0,0,0-2.283-3.43,15.657,15.657,0,0,1-1.351-1.591c.123-.237.295-.2.443-.2q4.962-.006,9.924,0a.64.64,0,0,1,.448.1" transform="translate(-636.743 -363.988)" fill="#ed1c24"/>
        <path id="Path_38144" data-name="Path 38144" d="M243.545,476.784a11.278,11.278,0,0,0,2.987.136c1.6.029,3.193,0,4.789.015a3.852,3.852,0,0,0,1.1-.186c.065.792-.471,1.381-.7,2.074a11.926,11.926,0,0,0-.726,2.721c-.058.453-.208.682-.694.677-1.54-.014-3.081-.03-4.621.007-.732.017-.669-.5-.762-.938-.355-1.533-.982-2.983-1.371-4.505" transform="translate(-197.316 -386.253)" fill="#d81d24"/>
        <path id="Path_38145" data-name="Path 38145" d="M34.5,456.851a13.085,13.085,0,0,0-.745,2.825c-.036.266-.088.543-.407.542a11.364,11.364,0,0,1-3.384-.125,2.549,2.549,0,0,1-1.868-2.651c-.016-2.588-.011-5.176-.015-7.763a.177.177,0,0,1,.284.053,11.989,11.989,0,0,1,.173,3.455c.044,1.479.014,1.482,1.451,1.484,1.694,0,3.388.01,5.082-.028.23.069.275.212.181.426a13.865,13.865,0,0,1-.752,1.783" transform="translate(-22.751 -364.281)" fill="#d81d24"/>
        <path id="Path_38146" data-name="Path 38146" d="M696.385,170.615q6.706.014,13.412.03c.408,0,.816.027,1.224.042-.306.251-.669.126-1,.127q-17.535.017-35.07.037c-.865,0-1.189-.152-1.187-1.114q.044-27.2.012-54.4a3.111,3.111,0,0,1,.9-2.58,2.425,2.425,0,0,1,1.62-.686q11.658.022,23.316.04a.192.192,0,0,1-.073.284,1.7,1.7,0,0,1-1.63-.084l-17.53-.036c-1.169,0-2.338-.01-3.506,0a2.614,2.614,0,0,0-2.864,2.891c-.014,1.169,0,2.337,0,3.506q0,25.4-.02,50.793c0,.927.183,1.218,1.176,1.21,7.075-.06,14.151-.048,21.226-.059" transform="translate(-545.872 -90.795)" fill="#949494"/>
        <path id="Path_38147" data-name="Path 38147" d="M737.96,113.246l1.708-.017c1.083-.053,1.44.794,1.891,1.525.217.854.388,1.723.663,2.558.285.867.067,1.1-.858,1.1-4.514-.039-9.028.006-13.542-.013a9.576,9.576,0,0,0-3.872.721c-.245.087-.437.369-.75.207a5.54,5.54,0,0,1,3.741-1.153c3.727-.049,7.456-.037,11.183,0,.807.008,1.077-.135.815-1-.391-1.289-.66-2.615-.98-3.925" transform="translate(-585.926 -91.734)" fill="#606060"/>
        <path id="Path_38148" data-name="Path 38148" d="M538.265,170.777c.4-.066.8-.129,1.193-.2.17-.029.36-.2.494.034.087.151-.021.29-.094.432a8.032,8.032,0,0,1-3.582,3.582c-.142.073-.278.183-.431.1-.236-.133-.067-.323-.037-.493.069-.4.134-.795.2-1.192a3.982,3.982,0,0,1,2.257-2.262" transform="translate(-434.033 -138.129)" fill="#758089"/>
        <path id="Path_38149" data-name="Path 38149" d="M485.631,448.868c-1.229-.011-2.458-.032-3.687-.033q-16.268,0-32.535,0a2.031,2.031,0,0,0-1.042.1l.518.854c-.372.052-.447-.3-.64-.482-.4-.385-.255-.588.237-.647a3.957,3.957,0,0,1,.473-.01H485.16c.158,0,.315.014.473.022q.086.065.056.128c-.02.042-.039.063-.059.063" transform="translate(-362.972 -363.489)" fill="#413113"/>
        <path id="Path_38150" data-name="Path 38150" d="M574.589,278.018c.029-.311.084-.621.084-.932q.006-15.576,0-31.151c0-1.136,0-1.133-1.07-.658a4.577,4.577,0,0,1-1.789.557.6.6,0,0,1-.646-.052,11.228,11.228,0,0,0,3.072-1.105c.326-.219.537-.028.575.333a6.336,6.336,0,0,1,.014.661q0,15.752-.01,31.5c0,.336.211.771-.257,1a.1.1,0,0,1,.024-.16" transform="translate(-462.754 -198.157)" fill="#313131"/>
        <path id="Path_38151" data-name="Path 38151" d="M476.179,496.374a1.486,1.486,0,0,0,1.083.213c8.253,0,16.506-.009,24.76.016.848,0,1.345-.156,1.229-1.124a.661.661,0,0,1,.389-.78c-.089.555-.18,1.11-.265,1.666a.47.47,0,0,1-.53.422c-.221,0-.441.008-.662.008q-12.486,0-24.972-.005c-.365,0-.761.121-1.088-.162a.151.151,0,0,1,.058-.253" transform="translate(-385.709 -400.796)" fill="#c58114"/>
        <path id="Path_38152" data-name="Path 38152" d="M501.9,404.522a.633.633,0,0,1-.024.16c-6.47,0-12.94-.007-19.409.014-.827,0-1.251-.065-.878-1.081a25.634,25.634,0,0,1,.794-2.888,5.99,5.99,0,0,1-.412,2.383c-.417,1.24-.323,1.4.922,1.4l19.008.012" transform="translate(-390.064 -324.662)" fill="#969696"/>
        <path id="Path_38153" data-name="Path 38153" d="M795.656,448.763H784.922c.387.677,1.035,1.039,1.27,1.695-.646-.3-.967-.949-1.478-1.4-.249-.218-.1-.411.162-.468a3.633,3.633,0,0,1,.752-.047q7.2,0,14.394.009c.317,0,.71-.172.935.238a49.632,49.632,0,0,0-5.3-.031" transform="translate(-635.66 -363.382)" fill="#33260f"/>
        <path id="Path_38154" data-name="Path 38154" d="M239.669,448.909c-1.388-.022-2.775-.061-4.163-.064q-5.447-.014-10.895,0a1.692,1.692,0,0,0-.949.1l.516.851c-.372.052-.447-.3-.64-.481-.4-.384-.256-.585.236-.649a2.174,2.174,0,0,1,.284-.008l15.632.024c.09.084.083.158-.021.224" transform="translate(-180.919 -363.497)" fill="#413113"/>
        <path id="Path_38155" data-name="Path 38155" d="M702.841,179.776a7,7,0,0,1-.723-3.1c-.058-2.967-.045-5.937-.017-8.9a4.762,4.762,0,0,1,.752-2.593c-.8,2.928-.522,5.925-.57,8.9a16.547,16.547,0,0,0,.538,4.951,2.9,2.9,0,0,1,.02.746" transform="translate(-568.812 -133.823)" fill="#383838"/>
        <path id="Path_38156" data-name="Path 38156" d="M28.24,448.854a.506.506,0,0,0-.159-.013c.172-.333.488-.23.754-.23q4.719-.01,9.438,0c.3,0,.716-.108.839.247.1.289-.28.45-.46.655-.475.541-.96,1.073-1.441,1.608a.355.355,0,0,1-.139-.276c.1-.657.7-1.022.972-1.594-.265-.286-.6-.155-.885-.156-2.548-.012-5.1,0-7.643-.009a2.025,2.025,0,0,1-1.275-.231" transform="translate(-22.751 -363.443)" fill="#251c0b"/>
        <path id="Path_38157" data-name="Path 38157" d="M234,462.7a16.084,16.084,0,0,1,1.371,4.506c-.69-.406-.45-1.191-.64-1.773a19.418,19.418,0,0,0-2.86-5.646,1.126,1.126,0,0,1-.108-.35q.087-.134.2-.019A30.946,30.946,0,0,1,234,462.7" transform="translate(-187.77 -372.166)" fill="#462d08"/>
        <path id="Path_38158" data-name="Path 38158" d="M489.49,121.962q-3.221-1.146-6.442-2.288a1.54,1.54,0,0,1-.74-.376,10.106,10.106,0,0,1,3.106.939c1.341.416,2.659.9,3.982,1.377.135.048.233.2.348.3a.156.156,0,0,1-.253.044" transform="translate(-390.758 -96.653)" fill="#4b3916"/>
        <path id="Path_38159" data-name="Path 38159" d="M357.607,586.492c1.138.19,2.272.42,3.416.561a16.241,16.241,0,0,0,4.732-.549,2.974,2.974,0,0,1-2.134.7,14.193,14.193,0,0,1-5.479-.359.807.807,0,0,1-.535-.353" transform="translate(-289.728 -475.165)" fill="#1a1e21"/>
        <path id="Path_38160" data-name="Path 38160" d="M703.28,449.315c-1.107-.189-2.21-.416-3.323-.559a17.244,17.244,0,0,0-4.829.54,3.151,3.151,0,0,1,2.154-.672,13.52,13.52,0,0,1,5.548.378,1.769,1.769,0,0,1,.449.313" transform="translate(-563.182 -363.367)" fill="#2f3336"/>
        <path id="Path_38161" data-name="Path 38161" d="M458.706,462.7l.825,2.214c.116.312.4.594.161.966-.663-1.223-.913-2.624-1.674-3.809-.55-.856-1.035-1.755-1.549-2.634.058-.089.124-.1.2-.02a31.055,31.055,0,0,1,2.039,3.283" transform="translate(-369.824 -372.166)" fill="#462d08"/>
        <path id="Path_38162" data-name="Path 38162" d="M44.582,296.165c.366.1.394.472.527.731.847,1.653,1.663,3.321,2.489,4.983.138.279.347.538.249.883-1.227-2.007-2.113-4.19-3.23-6.254a.275.275,0,0,1-.036-.344" transform="translate(-36.084 -239.948)" fill="#a9a9a9"/>
        <path id="Path_38163" data-name="Path 38163" d="M523.344,140.9c.06-1.016.538-2,.216-3.045.063-.077.122-.074.177.009.423,1.016.751,2.031-.036,3.032a.228.228,0,0,1-.357,0" transform="translate(-424.005 -111.643)" fill="#e59d1d"/>
        <path id="Path_38164" data-name="Path 38164" d="M712.747,254.557a8.544,8.544,0,0,1-3.591-4.56,22.37,22.37,0,0,0,3.591,4.56" transform="translate(-574.547 -202.543)" fill="#8e8e8e"/>
        <path id="Path_38165" data-name="Path 38165" d="M547.773,249.332l.645.051c-1.168.629-2.438.215-3.653.357a7.723,7.723,0,0,1-2.474-.755,5.951,5.951,0,0,1,2.021.373,8.37,8.37,0,0,0,3.462-.027" transform="translate(-439.355 -201.707)" fill="#4a4a4a"/>
        <path id="Path_38166" data-name="Path 38166" d="M498.447,201.6a12.33,12.33,0,0,1,.792-3.905c.152-.529-.167-1.251.521-1.607a38.01,38.01,0,0,1-1.313,5.512" transform="translate(-403.83 -158.869)" fill="#b77912"/>
        <path id="Path_38167" data-name="Path 38167" d="M64.572,460.791c.012.07.025.14.038.21a20.562,20.562,0,0,0-2.425,4.675c-.031.094-.187.146-.285.218a16.219,16.219,0,0,1,.7-2.071c.386-1.187.738-2.4,1.971-3.033" transform="translate(-50.15 -373.324)" fill="#3a2c11"/>
        <path id="Path_38168" data-name="Path 38168" d="M286.607,465.893a16.258,16.258,0,0,1,.7-2.074,18.471,18.471,0,0,1,1.97-3.029.13.13,0,0,1,.07.128c-.008.051-.019.076-.034.076a20.868,20.868,0,0,0-2.423,4.681c-.031.094-.187.146-.285.218" transform="translate(-232.204 -373.324)" fill="#3a2c11"/>
        <path id="Path_38169" data-name="Path 38169" d="M790.681,293.571a25.549,25.549,0,0,1-3.819-.754,6.6,6.6,0,0,1,2.942.339c.8.222,1.727-.093,2.4.578-.543.269-1.023-.055-1.525-.164" transform="translate(-637.503 -237.186)" fill="#303030"/>
        <path id="Path_38170" data-name="Path 38170" d="M496.655,331.874a13.71,13.71,0,0,1-.772,3.952c-.136.572.061,1.309-.565,1.735a40.037,40.037,0,0,1,1.337-5.688" transform="translate(-401.299 -268.878)" fill="#a1a1a1"/>
        <path id="Path_38171" data-name="Path 38171" d="M488.469,245.2a41.463,41.463,0,0,1,1.293-5.343,15.9,15.9,0,0,1-1.293,5.343" transform="translate(-395.75 -194.331)" fill="#3e2807"/>
        <path id="Path_38172" data-name="Path 38172" d="M840.356,203.161c-.631-.336-.374-1.015-.525-1.516a12.024,12.024,0,0,1-.776-3.62,31.192,31.192,0,0,1,1.3,5.136" transform="translate(-679.788 -160.436)" fill="#437885"/>
        <path id="Path_38173" data-name="Path 38173" d="M503.7,304.8a11.972,11.972,0,0,1-.77,3.537c-.174.532.163,1.256-.531,1.608.012-1.04.507-1.984.595-3.008.142-.508.233-1.028.352-1.542h0c.229-.132-.083-.587.354-.595" transform="translate(-407.036 -246.946)" fill="#afafaf"/>
        <path id="Path_38174" data-name="Path 38174" d="M438.546,538.828a13.387,13.387,0,0,1,1.119-2.688c.182-.495.026-1.155.592-1.5a8.324,8.324,0,0,1-1.711,4.187" transform="translate(-355.303 -433.156)" fill="#455159"/>
        <path id="Path_38175" data-name="Path 38175" d="M213.84,538.828a13.373,13.373,0,0,1,1.119-2.688c.182-.495.026-1.155.592-1.5a8.326,8.326,0,0,1-1.711,4.187" transform="translate(-173.25 -433.156)" fill="#455159"/>
        <path id="Path_38176" data-name="Path 38176" d="M472.352,311.458c.716-1.436.7-3.086,1.338-4.546-.188,1.592-.226,3.227-1.338,4.546" transform="translate(-382.692 -248.655)" fill="#563909"/>
        <path id="Path_38177" data-name="Path 38177" d="M100.964,243.706a8.357,8.357,0,0,1-3.036-2.649,15.227,15.227,0,0,1,3.036,2.649" transform="translate(-79.339 -195.3)" fill="#e2e2e2"/>
        <path id="Path_38178" data-name="Path 38178" d="M514.493,154.12l.357,0-2.43,3.049c.091-1.074,1.041-1.626,1.5-2.474l.569-.572" transform="translate(-415.155 -124.863)" fill="#c78314"/>
        <path id="Path_38179" data-name="Path 38179" d="M519.282,243a9.174,9.174,0,0,1-.953,3.984,19.449,19.449,0,0,1,.953-3.984" transform="translate(-419.942 -196.872)" fill="#a6a6a6"/>
        <path id="Path_38180" data-name="Path 38180" d="M86.5,231.652c-.523.021-.649-.624-1.135-.69v.541l-.927-.8c-.075-.3-.31-.641.207-.784l-.022.04c.358.193.6.528.937.75.351.277.761.5.94.945" transform="translate(-68.312 -186.275)" fill="#e2e2e2"/>
        <path id="Path_38181" data-name="Path 38181" d="M90.049,168.654l-.2-.011a16.129,16.129,0,0,1,1.325-3.63c-.056,1.313-.826,2.4-1.127,3.641" transform="translate(-72.796 -133.691)" fill="#b48833"/>
        <path id="Path_38182" data-name="Path 38182" d="M481.415,281.71a16.268,16.268,0,0,1,.936-3.8,9.34,9.34,0,0,1-.936,3.8" transform="translate(-390.035 -225.154)" fill="#583a0a"/>
        <path id="Path_38183" data-name="Path 38183" d="M272.677,313.954a9.724,9.724,0,0,1,3.8,1.325,19.09,19.09,0,0,1-3.8-1.325" transform="translate(-220.919 -254.36)" fill="#b97a12"/>
        <path id="Path_38184" data-name="Path 38184" d="M821.746,297.093c-.009.111-.017.223-.026.335a4.143,4.143,0,0,1-3.782.038c.545-.294,1.027.058,1.534.148a3.17,3.17,0,0,0,2.274-.521" transform="translate(-662.68 -240.699)" fill="#aaa"/>
        <path id="Path_38185" data-name="Path 38185" d="M507.742,291.19l-.354.6a10.613,10.613,0,0,1,.968-3.784c0,1.1-.545,2.1-.613,3.189" transform="translate(-411.078 -233.333)" fill="#3f3f3f"/>
        <path id="Path_38186" data-name="Path 38186" d="M101.2,136.687a31.626,31.626,0,0,1-1.291,3.249,11.777,11.777,0,0,1,1.324-3.793c.121.189.179.375-.033.544" transform="translate(-80.941 -110.301)" fill="#574119"/>
        <path id="Path_38187" data-name="Path 38187" d="M112.856,107.212a8.45,8.45,0,0,1-.784,2.609c-.061.2-.117.408-.176.612a.136.136,0,0,1-.222-.013,14.891,14.891,0,0,1,1.182-3.209" transform="translate(-90.477 -86.861)" fill="#bd8e36"/>
        <path id="Path_38188" data-name="Path 38188" d="M300.721,451.269l-.036-.2,1.675-2.054.021-.224c.317.124.373.285.12.552-.6.635-1.188,1.286-1.781,1.931" transform="translate(-243.61 -363.599)" fill="#251c0b"/>
        <path id="Path_38189" data-name="Path 38189" d="M555.9,168.365a8.822,8.822,0,0,0-3.609-.024,4.209,4.209,0,0,1,3.609.024" transform="translate(-447.455 -136.067)" fill="#282c2f"/>
        <path id="Path_38190" data-name="Path 38190" d="M35.092,277.872a8.679,8.679,0,0,1,1.332,2.662,5.791,5.791,0,0,1-1.332-2.662" transform="translate(-28.431 -225.127)" fill="#3c3c3c"/>
        <path id="Path_38191" data-name="Path 38191" d="M472.758,489.563l-.161-.966a6.587,6.587,0,0,1,.764,2.833l-.057.253-.545-2.12" transform="translate(-382.89 -395.852)" fill="#9f6910"/>
        <path id="Path_38192" data-name="Path 38192" d="M298.627,322.96a5.092,5.092,0,0,1,2.655.952,8.6,8.6,0,0,1-2.655-.952" transform="translate(-241.943 -261.656)" fill="#a86f11"/>
        <path id="Path_38193" data-name="Path 38193" d="M438.673,482.256l-1.339-2.474a3.838,3.838,0,0,1,1.339,2.474" transform="translate(-354.321 -388.711)" fill="#161a1d"/>
        <path id="Path_38194" data-name="Path 38194" d="M213.966,482.256l-1.339-2.474a3.838,3.838,0,0,1,1.339,2.474" transform="translate(-172.267 -388.711)" fill="#161a1d"/>
        <path id="Path_38195" data-name="Path 38195" d="M425.071,99.257a8.115,8.115,0,0,1-2.656-.958,5.224,5.224,0,0,1,2.656.958" transform="translate(-342.234 -79.64)" fill="#483615"/>
        <path id="Path_38196" data-name="Path 38196" d="M811.83,113.987a3.3,3.3,0,0,0-1.891-1.525.683.683,0,0,0,0-.182,2.048,2.048,0,0,1,1.9,1.707" transform="translate(-656.196 -90.967)" fill="#454545"/>
        <path id="Path_38197" data-name="Path 38197" d="M243.742,303.944a8.6,8.6,0,0,1,2.652.95,5.364,5.364,0,0,1-2.652-.95" transform="translate(-197.476 -246.25)" fill="#5e3d0a"/>
        <path id="Path_38198" data-name="Path 38198" d="M402.821,453.685a11.911,11.911,0,0,1-2.267-.957,3.088,3.088,0,0,1,2.267.957" transform="translate(-324.523 -366.792)" fill="#303538"/>
        <path id="Path_38199" data-name="Path 38199" d="M178.115,453.685a11.918,11.918,0,0,1-2.267-.957,3.088,3.088,0,0,1,2.267.957" transform="translate(-142.469 -366.792)" fill="#303538"/>
        <path id="Path_38200" data-name="Path 38200" d="M738.107,244.018a11.091,11.091,0,0,1,1.691,1.72,3.021,3.021,0,0,1-1.691-1.72" transform="translate(-598.003 -197.699)" fill="#2d5058"/>
        <path id="Path_38201" data-name="Path 38201" d="M847.1,230.467a9.283,9.283,0,0,1-.566-1.9.449.449,0,0,1,.012-.579,4.528,4.528,0,0,1,.554,2.477" transform="translate(-685.772 -184.713)" fill="#213a40"/>
        <path id="Path_38202" data-name="Path 38202" d="M199.937,318.577a3.674,3.674,0,0,1-2.092-.767,9.368,9.368,0,0,1,2.065.6q.089.041.071.1t-.045.063" transform="translate(-160.291 -257.484)" fill="#b4b4b4"/>
        <path id="Path_38203" data-name="Path 38203" d="M118.653,96.943a2.732,2.732,0,0,1-.753,1.9,9.024,9.024,0,0,1,.587-1.879q.063-.15.166-.024" transform="translate(-95.521 -78.495)" fill="#bd8e36"/>
        <path id="Path_38204" data-name="Path 38204" d="M642.129,448.978q0-.1,0-.191c.17.08.423.209.239.388-.389.379-.607.951-1.194,1.117.154-.557.749-.794.953-1.314" transform="translate(-519.47 -363.599)" fill="#3b2c11"/>
        <path id="Path_38205" data-name="Path 38205" d="M98.895,247.049a1.929,1.929,0,0,1,1.329,1.329,4.726,4.726,0,0,1-1.329-1.329" transform="translate(-80.123 -200.155)" fill="#e2e2e2"/>
        <path id="Path_38206" data-name="Path 38206" d="M105.884,254.041a1.926,1.926,0,0,1,1.33,1.331,4.765,4.765,0,0,1-1.33-1.331" transform="translate(-85.786 -205.819)" fill="#e2e2e2"/>
        <path id="Path_38207" data-name="Path 38207" d="M775.867,291.132a6.408,6.408,0,0,1-1.918-.351c.654.037,1.379-.314,1.918.351" transform="translate(-627.041 -235.537)" fill="#383838"/>
        <path id="Path_38208" data-name="Path 38208" d="M91.679,240.162a1.793,1.793,0,0,1,1.372,1.309,6.709,6.709,0,0,1-1.372-1.309" transform="translate(-74.277 -194.575)" fill="#e2e2e2"/>
        <path id="Path_38209" data-name="Path 38209" d="M125.927,228a2.923,2.923,0,0,1,1.314,1.152A2.153,2.153,0,0,1,125.927,228" transform="translate(-102.024 -184.721)" fill="#4b3009"/>
        <path id="Path_38210" data-name="Path 38210" d="M109.148,124.117l.222.013-.7,1.757a.179.179,0,0,1-.063-.287,3.575,3.575,0,0,1,.545-1.484" transform="translate(-87.951 -100.557)" fill="#c19138"/>
        <path id="Path_38211" data-name="Path 38211" d="M630.317,465.321a2.166,2.166,0,0,1,.958-1.519,4,4,0,0,1-.958,1.519" transform="translate(-510.673 -375.764)" fill="#bc8e36"/>
        <path id="Path_38212" data-name="Path 38212" d="M719.868,144.466l.751-.207a2.966,2.966,0,0,1-1.532.925c.1-.41.588-.405.781-.718" transform="translate(-582.593 -116.876)" fill="#505050"/>
        <path id="Path_38213" data-name="Path 38213" d="M817.644,298.227c-.53.141-1.007-.266-1.534-.148l-.336-.049c-.067-.01-.1-.035-.091-.073s.02-.068.038-.068a2.459,2.459,0,0,1,1.924.338" transform="translate(-660.852 -241.313)" fill="#3e3e3e"/>
        <path id="Path_38214" data-name="Path 38214" d="M808.671,297.239q.029.07.053.142c-.611.045-1.238.171-1.744-.333l1.526.164a.3.3,0,0,0,.165.027" transform="translate(-653.802 -240.663)" fill="#aaa"/>
        <path id="Path_38215" data-name="Path 38215" d="M837.229,191.552c-.633-.385-.34-1-.374-1.529a3.2,3.2,0,0,1,.374,1.529" transform="translate(-677.975 -153.953)" fill="#4f8e9d"/>
        <path id="Path_38216" data-name="Path 38216" d="M413.827,458.524l-.364-.02-.964-.738a1.633,1.633,0,0,1,1.328.758" transform="translate(-334.2 -370.874)" fill="#303538"/>
        <path id="Path_38217" data-name="Path 38217" d="M189.12,458.524l-.364-.02-.964-.738a1.633,1.633,0,0,1,1.328.758" transform="translate(-152.146 -370.874)" fill="#303538"/>
        <path id="Path_38218" data-name="Path 38218" d="M229.415,455.74l-.2.02c-.142-.347-.54-.531-.6-.933.512.089.654.5.794.913" transform="translate(-185.225 -368.493)" fill="#c29238"/>
        <path id="Path_38219" data-name="Path 38219" d="M42.558,292.69l.036.344a1.163,1.163,0,0,1-.543-1.158c.36.152.277.581.507.815" transform="translate(-34.06 -236.472)" fill="#3c3c3c"/>
        <path id="Path_38220" data-name="Path 38220" d="M454.121,455.74l-.2.02c-.142-.347-.54-.531-.6-.933.512.089.654.5.794.913" transform="translate(-367.278 -368.493)" fill="#c29238"/>
        <path id="Path_38221" data-name="Path 38221" d="M521.147,134.058l-.089,0-.088-.013-.823-.9.253-.044c.33.256.724.461.747.957" transform="translate(-421.415 -107.836)" fill="#6f5320"/>
        <path id="Path_38222" data-name="Path 38222" d="M505.778,307.939a2.436,2.436,0,0,1-.352,1.542,2.365,2.365,0,0,1,.352-1.542" transform="translate(-409.467 -249.487)" fill="#3f3f3f"/>
        <path id="Path_38223" data-name="Path 38223" d="M107.1,131.932q.031.143.062.287c-.2.331-.092.8-.461,1.056q.016-.272.033-.544a1.7,1.7,0,0,1,.366-.8" transform="translate(-86.451 -106.889)" fill="#b58834"/>
        <path id="Path_38224" data-name="Path 38224" d="M84.073,228.6c-.4.173-.206.5-.207.784a.673.673,0,0,1-.139-.908c.168-.342.311-.157.346.124" transform="translate(-67.742 -184.953)" fill="#5f5f5f"/>
        <path id="Path_38225" data-name="Path 38225" d="M206.759,290.9c.426-.012.888-.134,1.142.377a1.857,1.857,0,0,1-1.142-.377" transform="translate(-167.513 -235.662)" fill="#b57613"/>
        <path id="Path_38226" data-name="Path 38226" d="M437.541,103.581a1.437,1.437,0,0,1-1.149-.376,1.079,1.079,0,0,1,1.149.376" transform="translate(-353.558 -83.589)" fill="#483615"/>
        <path id="Path_38227" data-name="Path 38227" d="M479.575,299.284a2.965,2.965,0,0,1,.349-1.338,1.435,1.435,0,0,1-.349,1.338" transform="translate(-388.544 -241.39)" fill="#583a0a"/>
        <path id="Path_38228" data-name="Path 38228" d="M86.853,230.878c-.47-.054-.7-.408-.937-.75.455.072.68.432.937.75" transform="translate(-69.608 -186.446)" fill="#c9c9c9"/>
        <path id="Path_38229" data-name="Path 38229" d="M312.593,327.885a1.1,1.1,0,0,1,1.142.378,1.688,1.688,0,0,1-1.142-.378" transform="translate(-253.258 -265.626)" fill="#a06811"/>
        <path id="Path_38230" data-name="Path 38230" d="M248.794,335.195a1.708,1.708,0,0,1-1.152-.372,1.054,1.054,0,0,1,1.152.372" transform="translate(-200.636 -271.237)" fill="#484848"/>
        <path id="Path_38231" data-name="Path 38231" d="M121.1,93.2a1.068,1.068,0,0,0-.166.024.943.943,0,0,1,.379-.958,1.481,1.481,0,0,1-.212.934" transform="translate(-97.966 -74.755)" fill="#554019"/>
        <path id="Path_38232" data-name="Path 38232" d="M217.785,294.89a1.611,1.611,0,0,1,1.143.375,1.132,1.132,0,0,1-1.143-.375" transform="translate(-176.446 -238.905)" fill="#65410c"/>
        <path id="Path_38233" data-name="Path 38233" d="M755.1,257.946a1.669,1.669,0,0,1,1.135.384,1.105,1.105,0,0,1-1.135-.384" transform="translate(-611.773 -208.979)" fill="#325962"/>
        <path id="Path_38234" data-name="Path 38234" d="M208.753,321.08a.593.593,0,0,0-.027-.163.918.918,0,0,1,.956.376c-.354.124-.621-.133-.929-.213" transform="translate(-169.106 -259.988)" fill="#525252"/>
        <path id="Path_38235" data-name="Path 38235" d="M846.008,225.643q-.006.289-.012.579c-.333-.329-.2-.74-.2-1.129.194.136.156.361.211.55" transform="translate(-685.228 -182.366)" fill="#437885"/>
        <path id="Path_38236" data-name="Path 38236" d="M315.654,549.518a1.088,1.088,0,0,1,.375.774c-.37-.139-.426-.431-.375-.774" transform="translate(-255.725 -445.21)" fill="#222528"/>
        <path id="Path_38237" data-name="Path 38237" d="M90.948,549.518a1.087,1.087,0,0,1,.375.774c-.369-.139-.426-.431-.375-.774" transform="translate(-73.672 -445.21)" fill="#222528"/>
        <path id="Path_38238" data-name="Path 38238" d="M628.219,472.537a.587.587,0,0,1,.384-.76.919.919,0,0,1-.384.76" transform="translate(-508.956 -382.225)" fill="#bc8e36"/>
        <path id="Path_38239" data-name="Path 38239" d="M147.76,236.756c-.865-.308-1.32-1.075-1.9-1.7.865.309,1.32,1.073,1.9,1.7" transform="translate(-118.175 -190.437)" fill="#feb32c"/>
        <path id="Path_38240" data-name="Path 38240" d="M139.21,229.18c-.642-.148-.954-.677-1.322-1.142.642.148.955.676,1.322,1.142" transform="translate(-111.715 -184.752)" fill="#feb32c"/>
        <path id="Path_38241" data-name="Path 38241" d="M706.977,304.559a2.556,2.556,0,0,1-2.988.778,2.665,2.665,0,0,1-1.737-2.756q.016-2.367,0-4.735a2.674,2.674,0,0,1,1.72-2.768,2.569,2.569,0,0,1,3,.759,2.771,2.771,0,0,1,.671,1.893c-.023,1.611-.028,3.222,0,4.832a2.977,2.977,0,0,1-.663,2" transform="translate(-568.954 -238.897)"/>
        <path id="Path_38242" data-name="Path 38242" d="M727.1,308.689a16.446,16.446,0,0,0-.009-8.722,1.532,1.532,0,0,1,.751,1.474q0,2.883,0,5.766a1.565,1.565,0,0,1-.742,1.482" transform="translate(-589.081 -243.027)" fill="#8f8f8f"/>
        <path id="Path_38243" data-name="Path 38243" d="M127.628,481.708a7.967,7.967,0,1,1-14.387,6.794c-.1-.26-.25-.5-.376-.752a8.656,8.656,0,0,1,.285-5.2,7.975,7.975,0,0,1,13.961-1.637c.188.253.346.528.518.793" transform="translate(-91.23 -386.855)" fill="#191f21"/>
        <path id="Path_38244" data-name="Path 38244" d="M352.335,481.708a7.967,7.967,0,1,1-14.387,6.794c-.1-.26-.25-.5-.376-.752a8.656,8.656,0,0,1,.285-5.2,7.975,7.975,0,0,1,13.961-1.637c.188.253.346.528.518.793" transform="translate(-273.284 -386.855)" fill="#191f21"/>
        <path id="Path_38245" data-name="Path 38245" d="M688.833,489.878a7.753,7.753,0,0,1-10.2,2.665c-.383-.216-.782-.407-1.173-.609a8.1,8.1,0,0,1-3.218-6.358,7.979,7.979,0,0,1,10.708-7.591c.146.053.3.091.448.135a8.285,8.285,0,0,1,3.826,3.758,8.809,8.809,0,0,1,.932,2.677q0,.758.01,1.516a11.377,11.377,0,0,1-1.33,3.808" transform="translate(-546.258 -386.861)" fill="#191f21"/>
        <path id="Path_38246" data-name="Path 38246" d="M751.126,526.458c.6-1.215.8-2.569,1.33-3.808a5.984,5.984,0,0,1-1.33,3.808" transform="translate(-608.55 -423.441)" fill="#111415"/>
        <path id="Path_38247" data-name="Path 38247" d="M754.107,503.237c-.534-.814-.508-1.824-.932-2.677a3.734,3.734,0,0,1,.932,2.677" transform="translate(-610.211 -405.545)" fill="#1c2023"/>
        <path id="Path_38248" data-name="Path 38248" d="M740,169.137c2.053,0,4.107.022,6.159-.015a.794.794,0,0,1,.925.7c.756,3.111,1.613,6.2,2.246,9.336a5.2,5.2,0,0,1-3.136,5.395,5.8,5.8,0,0,1-3.6.329c-2.017-.456-4.061-.8-6.1-1.149a9.665,9.665,0,0,1-4.587-2.305,3.524,3.524,0,0,1-.857-2.721c-.078-2.208-.078-4.423-.01-6.632a2.726,2.726,0,0,1,2.989-2.921c1.988-.062,3.979-.014,5.97-.014" transform="translate(-592.234 -137.017)" fill="#fff"/>
        <path id="Path_38249" data-name="Path 38249" d="M37.852,451.583a18.431,18.431,0,0,0-1.971,3.032,21.439,21.439,0,0,1-4.683.165c-2.262.045-2.262.011-2.264-2.24,0-1-.009-2.009-.015-3.013,1.914-.191,3.832-.047,5.749-.078,1.569-.025,3.139-.005,4.864-.005l-1.681,2.139" transform="translate(-23.431 -364.117)" fill="#ed1c24"/>
        <path id="Path_38250" data-name="Path 38250" d="M142.574,510.875c-1.764-.745-2.552-2.108-2.024-3.5a2.659,2.659,0,1,1,4.825,2.18c-.1.193-.242.367-.364.551a2.558,2.558,0,0,1-2.437.768" transform="translate(-113.74 -409.598)" fill="#e7e8e8"/>
        <path id="Path_38251" data-name="Path 38251" d="M151.9,530.266a4.827,4.827,0,0,0,2.437-.768,1.977,1.977,0,0,1-2.437.768" transform="translate(-123.069 -428.99)" fill="#4f4f4f"/>
        <path id="Path_38252" data-name="Path 38252" d="M367.281,510.874c-1.764-.745-2.552-2.107-2.024-3.5a2.659,2.659,0,1,1,4.825,2.179c-.1.193-.242.367-.364.551a2.559,2.559,0,0,1-2.437.768" transform="translate(-295.795 -409.598)" fill="#e7e8e8"/>
        <path id="Path_38253" data-name="Path 38253" d="M376.609,530.266a4.832,4.832,0,0,0,2.437-.768,1.977,1.977,0,0,1-2.437.768" transform="translate(-305.123 -428.99)" fill="#4f4f4f"/>
        <path id="Path_38254" data-name="Path 38254" d="M703.779,505.96a2.172,2.172,0,0,1,1.515-.38c.525.211,1.156.19,1.547.7.557.377.66,1.022.924,1.572.09,1.93-1,3.016-3.031,3.027a3.275,3.275,0,0,1-1.512-.766l0,0a2.1,2.1,0,0,1-.676-1.372,2.866,2.866,0,0,1,1.23-2.784" transform="translate(-569.173 -409.593)" fill="#e7e8e8"/>
        <path id="Path_38255" data-name="Path 38255" d="M703.385,507.684a3.861,3.861,0,0,0-1.152,2.854c-.065.074-.121.067-.167-.02a2.467,2.467,0,0,1,1.319-2.834" transform="translate(-568.779 -411.316)" fill="#9f9f9f"/>
        <path id="Path_38256" data-name="Path 38256" d="M706.208,529.557l1.512.766a1.367,1.367,0,0,1-1.512-.766" transform="translate(-572.158 -429.038)" fill="#535353"/>
        <path id="Path_38257" data-name="Path 38257" d="M726,510.88c-.438-.429-.479-1.115-.972-1.508a.156.156,0,0,1,.251-.023,1.752,1.752,0,0,1,.72,1.531" transform="translate(-587.405 -412.622)" fill="#9a9a9a"/>
        <path id="Path_38258" data-name="Path 38258" d="M718.871,506.3l-.251.023c-.413-.425-1.057-.4-1.5-.762a1.85,1.85,0,0,1,1.752.739" transform="translate(-580.998 -409.577)" fill="#999"/>
        <path id="Path_38259" data-name="Path 38259" d="M702.188,522.613c.055.009.111.016.167.02.009.521.539.8.6,1.3a1.323,1.323,0,0,1-.765-1.322" transform="translate(-568.901 -423.411)" fill="#505050"/>
      </g>
    </g>
  </g>
</svg>
