<svg xmlns="http://www.w3.org/2000/svg" xmlns:xlink="http://www.w3.org/1999/xlink" width="197.152" height="150.482" viewBox="0 0 197.152 150.482">
  <defs>
    <radialGradient id="radial-gradient" cx="0.5" cy="0.5" r="0.5" gradientUnits="objectBoundingBox">
      <stop offset="0"/>
      <stop offset="1" stop-color="#19304c" stop-opacity="0"/>
    </radialGradient>
    <clipPath id="clip-path">
      <rect id="Rectangle_52202" data-name="Rectangle 52202" width="153.381" height="146.068" fill="none"/>
    </clipPath>
  </defs>
  <g id="Group_53929" data-name="Group 53929" transform="translate(21.594 10.103)">
    <ellipse id="Ellipse_25" data-name="Ellipse 25" cx="98.576" cy="4.414" rx="98.576" ry="4.414" transform="translate(-21.594 131.552)" fill="url(#radial-gradient)"/>
    <g id="Group_53925" data-name="Group 53925" transform="translate(22.177 -10.103)">
      <g id="Group_53925-2" data-name="Group 53925" transform="translate(0 0)" clip-path="url(#clip-path)">
        <path id="Path_41071" data-name="Path 41071" d="M4.085,121.244c.474-.465.42-.821-.012-1.253a13.381,13.381,0,0,1-3.92-11V86.8c.051-2.41.818-3.3,3.114-3.548l.183-.018c2.335.533,3.222,1.543,3.285,3.932.072,2.745.012,5.49.03,8.236,0,.357-.228.794.291,1.109,3.093-1.855,6.53-2.218,10.076-2.149,2.493.048,4.99.015,7.486.006,2.122-.006,2.173-.054,2.173-2.188q.009-15.424,0-30.845c0-3.345.045-6.689-.015-10.034A10.362,10.362,0,0,0,20.3,41.546,9.957,9.957,0,0,0,6.764,51.01c-.036,2.9.054,5.793-.033,8.685-.078,2.547-1.2,3.686-3.632,3.785-.1,0-.195.006-.3.006C.7,62.932.21,62.3.153,60.1V51.058a16.056,16.056,0,0,1,.914-6.611,16.864,16.864,0,0,1,20.421-9.818,7.323,7.323,0,0,0,3.815.045q13.239-3.2,26.469-6.426,33.945-8.29,67.908-16.51c2-.492,2.038-.5,2.113-2.574.162-4.364,4.13-9.578,9.56-9.138.776,0,1.555,0,2.332,0A7.859,7.859,0,0,1,140.1,3.29a11.588,11.588,0,0,1,2.173,4.391c1.127,4.187,2.2,8.392,3.443,12.545A31.748,31.748,0,0,1,147,29.648c-.078,13.8-.03,27.614-.036,41.421,0,2.832.1,2.574,2.475,2.682,1.732.078,3.408.459,3.944,2.514V86.45a6.92,6.92,0,0,1-1.807,2.874c-2.119,2.182-4.16,4.436-6.171,6.722a6.163,6.163,0,0,1-3.5,2.413c-1.013.168-1.25.716-1.283,1.648-.114,3.479-.587,4.049-4,5.131a2.956,2.956,0,0,0-.423.153,2.048,2.048,0,0,0-.965,2.55,2,2,0,0,0,2.58,1.148,8.23,8.23,0,0,0,1.175-.659,3.487,3.487,0,0,1,4.8.749,3.437,3.437,0,0,1-.8,4.8,8.924,8.924,0,0,1-5.437,2.251,9.043,9.043,0,0,1-5.613-16.459c.372-.279.935-.381,1.073-1.154-2.688.222-4.145-1.678-5.694-3.345-2.035-2.191-4-4.454-6.072-6.608a6.272,6.272,0,0,1-1.837-4.436c-.033-1.747-.024-3.494-.006-5.239.036-3.776,1.4-5.161,5.137-5.254,2.038-.054,2.047-.054,2.047-2.146q0-18.193,0-36.383c0-.2-.012-.4,0-.6.057-.872-.336-1-1.106-.773-5.206,1.567-10.423,3.114-15.626,4.693a1.792,1.792,0,0,0-1.376,1.561c-1.01,5.574-4.289,8.964-9.851,10.094a2.026,2.026,0,0,0-1.735,1.594q-4.361,15.5-8.805,30.965a2.52,2.52,0,0,0,.521,2.493c1.355,1.663,2.688,3.345,4.028,5.02a5.228,5.228,0,0,1,1.241,3.3q.067,13.248.006,26.5a3.43,3.43,0,0,1-1.238,2.937c-1.019.734-.848,1.406-.393,2.395a14.1,14.1,0,0,1-1.972,15.818,12.787,12.787,0,0,1-9.4,4.861h-1.2a3.538,3.538,0,0,0-1.765-.147q-32.115-.013-64.24-.009c-1.843,0-3.7.081-5.41-.794C3.713,142.79.56,139.409,0,134.083v-4.492a12.532,12.532,0,0,1,4.085-8.347M140.366,51.7c0-7.04-.021-14.077.024-21.117.009-1.121-.144-1.5-1.349-1.088a47.757,47.757,0,0,1-4.747,1.274c-.935.213-1.208.656-1.2,1.633q.058,20.288,0,40.582c0,1.055.294,1.385,1.34,1.328a42.028,42.028,0,0,1,4.639,0c1.082.063,1.322-.33,1.319-1.352-.042-7.088-.024-14.176-.024-21.264M88.989,55.815c.638-2.245,1.241-4.5,1.933-6.728a1.009,1.009,0,0,0-.435-1.367,4.751,4.751,0,0,1-1.546-1.388c-.908-1.615-2.047-1.415-3.569-.95q-25.291,7.7-50.628,15.243a1.8,1.8,0,0,0-1.54,2.113q.081,15.347,0,30.7c0,1.148.252,1.507,1.448,1.469,3.042-.093,6.09-.069,9.135-.006.944.018,1.148-.273,1.142-1.178-.039-6.989.138-13.981-.075-20.961a8.777,8.777,0,0,1,9.255-9.237c3.59.123,7.187.042,10.78.018A11.18,11.18,0,0,1,74.2,68.06c2.565,3.249,5.188,6.452,7.786,9.674.153.186.324.357.59.647,2.167-7.618,4.289-15.093,6.413-22.567" transform="translate(0 0)" fill="#191f21"/>
        <path id="Path_41072" data-name="Path 41072" d="M264.374,280.261c11.927,0,23.854-.018,35.781.03,1.214,0,1.593-.248,1.578-1.53-.073-6.287-.059-12.576-.008-18.864.009-1.106-.27-1.459-1.411-1.434-3.442.075-6.886.037-10.329.025-7.055-.025-12.042-3.53-14.448-10.133-1.768-4.851-3.663-9.662-5.248-14.573-.563-1.743-1.588-1.6-2.8-1.482a2.251,2.251,0,0,0-2.135,2.277,11.644,11.644,0,0,0-.011,1.2q0,11.753,0,23.505c0,3.407-.844,4.267-4.2,4.268q-15.794,0-31.589.007c-4.46.008-7.934,2.61-8.877,6.559a8.228,8.228,0,0,0,7.921,10.137c11.927.034,23.854.01,35.781.012" transform="translate(-214.418 -162.637)" fill="#ed1c24"/>
        <path id="Path_41073" data-name="Path 41073" d="M420.592,170.653q-.009,3.6-.017,7.2c2.516.76,3.02,1.458,3.021,4.188,0,3.187,0,6.374,0,9.814,5.335-3.665,11.249-2.358,16.948-2.612,1.281-.057,2.945.551,3.74-.258s.235-2.466.237-3.748q.026-19.758.006-39.515a10.56,10.56,0,0,0-7.635-10.565,10.431,10.431,0,0,0-13.281,9.7c-.06,2.993-.011,5.987-.015,8.98,0,2.477-.785,3.384-3.231,3.777.495,2.3.136,4.617.2,6.924.158.453.614.453.956.625a2.533,2.533,0,0,1,.251,4.635c-.407.268-.944.358-1.181.86" transform="translate(-417.309 -94.361)" fill="#ed1c24"/>
        <path id="Path_41074" data-name="Path 41074" d="M93.948,95.921c5-1.5,9.849-2.946,14.692-4.4q18.338-5.5,36.675-11.009c.764-.229,1.366-.4,1.416-1.515a10.975,10.975,0,0,1,19.216-6.377,2.3,2.3,0,0,0,2.969.8c5.636-1.779,11.3-3.469,16.977-5.115,1.053-.305,1.257-.685.941-1.708-.688-2.23-1.285-4.491-1.842-6.758-.255-1.038-.655-1.258-1.74-.99Q164.73,63.429,146.179,67.9,118.87,74.527,91.556,81.129c-.927.224-1.459.267-.633,1.406a17.028,17.028,0,0,1,3.029,10.872c-.025.788,0,1.577,0,2.515" transform="translate(-60.717 -41.138)" fill="#d81d24"/>
        <path id="Path_41075" data-name="Path 41075" d="M261.174,428.755q16.018,0,32.036-.006c3.942-.006,6.934-2.047,8.087-5.43,1.787-5.242-1.921-10.46-7.659-10.765-.747-.04-1.5-.015-2.245-.015q-30.988,0-61.977,0c-4.749,0-7.893,2.405-8.806,6.676-.975,4.561,2.523,9.322,7.183,9.459,5.484.161,10.976.068,16.465.075q8.458.011,16.916,0" transform="translate(-214.435 -288.897)" fill="#606060"/>
        <path id="Path_41076" data-name="Path 41076" d="M253.924,252.5c-5.109-6.327-10.012-12.415-14.938-18.485a4.335,4.335,0,0,0-3.511-1.689c-1.24.005-2.479,0-3.9,0,1.946,5.25,3.709,10.409,5.779,15.441a7.434,7.434,0,0,0,7.04,4.711c3.081.1,6.167.021,9.531.021" transform="translate(-169.944 -162.698)" fill="#e7e8e8"/>
        <path id="Path_41077" data-name="Path 41077" d="M30.07,268.233c-3.191,0-6.384.024-9.574-.016-.816-.01-1.07.2-1.133,1.065a5.437,5.437,0,0,0,1.847,4.889,55.094,55.094,0,0,1,4.568,4.936,2.576,2.576,0,0,0,1.789.835c4.126.594,7.463-.433,9.782-4.156a24.05,24.05,0,0,1,2.788-3.115,1.841,1.841,0,0,0,.6-.986c.48-3.092.192-3.453-2.885-3.453H30.07" transform="translate(106.666 -187.833)" fill="#606060"/>
        <path id="Path_41078" data-name="Path 41078" d="M50.006,20.322a3.746,3.746,0,0,0-3.735,4.835c1.135,4.316,2.295,8.625,3.419,12.944.23.883.465,1.343,1.575.941a48.459,48.459,0,0,1,5.3-1.471c.733-.174.99-.357.758-1.178C56.083,32,54.937,27.586,53.7,23.2a3.634,3.634,0,0,0-3.694-2.874" transform="translate(82.155 -14.232)" fill="#d81d24"/>
        <path id="Path_41079" data-name="Path 41079" d="M176.2,112.51a5.022,5.022,0,0,0-5,5.032,5.057,5.057,0,1,0,5-5.032" transform="translate(-79.238 -78.791)" fill="#818080"/>
        <path id="Path_41080" data-name="Path 41080" d="M493.846,240.267c2.04-.539,3.026-1.558,2.99-3.085-.039-1.626-1.09-2.683-3.015-3.035-1.932.359-2.905,1.309-2.961,2.891-.059,1.679.836,2.648,2.987,3.229" transform="translate(-490.563 -163.974)" fill="#191f21"/>
        <path id="Path_41081" data-name="Path 41081" d="M354.517,360.306c1.743,0,3.487.025,5.23-.007a3.15,3.15,0,0,0,3.295-2.971c.042-1.726-1.342-3.008-3.342-3.021q-5.23-.033-10.46,0c-1.994.014-3.217,1.152-3.237,2.92a3.013,3.013,0,0,0,3.284,3.073c1.743.029,3.487.006,5.23.006" transform="translate(-313.357 -248.11)" fill="#191f21"/>
        <path id="Path_41082" data-name="Path 41082" d="M445.892,163.518a2.945,2.945,0,0,0,2.918,2.969,3.088,3.088,0,0,0,3.053-3.034,3.015,3.015,0,0,0-3.117-2.942,2.893,2.893,0,0,0-2.854,3.008" transform="translate(-432.113 -112.405)" fill="#191f21"/>
        <path id="Path_41083" data-name="Path 41083" d="M250.685,435.327c.9,0,1.8.03,2.693-.007a2.983,2.983,0,0,0,.206-5.955c-1.991-.09-3.993-.1-5.983,0a2.983,2.983,0,0,0,.241,5.951c.946.035,1.895.006,2.843.006" transform="translate(-176.33 -300.638)" fill="#191f21"/>
        <path id="Path_41084" data-name="Path 41084" d="M313.5,435.323c.948,0,1.9.035,2.843-.007a2.983,2.983,0,0,0,.239-5.94,57.506,57.506,0,0,0-6.132,0,2.98,2.98,0,0,0,.207,5.94c.946.045,1.895.008,2.843.009" transform="translate(-258.05 -300.636)" fill="#191f21"/>
        <path id="Path_41085" data-name="Path 41085" d="M438.821,435.34c.947,0,1.9.032,2.842-.009a2.981,2.981,0,0,0,.133-5.956c-1.941-.083-3.891-.079-5.832-.005a2.984,2.984,0,0,0,.165,5.966c.9.031,1.795.005,2.693,0" transform="translate(-421.02 -300.65)" fill="#191f21"/>
        <path id="Path_41086" data-name="Path 41086" d="M376.344,435.332c.9,0,1.8.029,2.692-.006a2.983,2.983,0,0,0,.233-5.953c-1.99-.1-3.99-.091-5.98,0a2.981,2.981,0,0,0,.213,5.954c.946.037,1.894.007,2.842.007" transform="translate(-339.635 -300.642)" fill="#191f21"/>
      </g>
    </g>
  </g>
</svg>
