<svg id="Masaha-Services-MegaMenu-Rent-Earthmoving_Equipment-icon" data-name="Masaha-Services-MegaMenu-Rent-Earthmoving Equipment-icon" xmlns="http://www.w3.org/2000/svg" xmlns:xlink="http://www.w3.org/1999/xlink" width="104" height="104" viewBox="0 0 104 104">
  <defs>
    <clipPath id="clip-path">
      <rect id="Rectangle_52536" data-name="Rectangle 52536" width="104" height="104" transform="translate(969 236)" fill="#fff" stroke="#707070" stroke-width="1"/>
    </clipPath>
    <radialGradient id="radial-gradient" cx="0.5" cy="0.5" r="0.5" gradientUnits="objectBoundingBox">
      <stop offset="0"/>
      <stop offset="1" stop-color="#19304c" stop-opacity="0"/>
    </radialGradient>
    <clipPath id="clip-path-2">
      <rect id="Rectangle_51389" data-name="Rectangle 51389" width="90.496" height="72.46" fill="none"/>
    </clipPath>
  </defs>
  <g id="Mask_Group_18904" data-name="Mask Group 18904" transform="translate(-969 -236)" clip-path="url(#clip-path)">
    <g id="Group_53928" data-name="Group 53928" transform="translate(582.633 -177.176)">
      <ellipse id="Ellipse_25" data-name="Ellipse 25" cx="47.954" cy="2.55" rx="47.954" ry="2.55" transform="translate(386 508.086)" fill="url(#radial-gradient)"/>
      <g id="Group_52953" data-name="Group 52953" transform="translate(397.53 438.176)" style="isolation: isolate">
        <g id="Group_52945" data-name="Group 52945" style="mix-blend-mode: luminosity;isolation: isolate">
          <g id="Group_52945-2" data-name="Group 52945" clip-path="url(#clip-path-2)">
            <path id="Path_38346" data-name="Path 38346" d="M67.089,53.311a11.532,11.532,0,0,1,2.1,4.929,11.342,11.342,0,0,1,.08,3.941,1.5,1.5,0,0,0-.034.423,14.258,14.258,0,0,0-.4,1.5c-.023.182-.171.306-.217.477-.306.636-.585,1.286-.931,1.9a11.331,11.331,0,0,1-4.218,4.22c-.622.346-1.275.626-1.915.934-.175.053-.308.207-.5.214-.742.164-1.471.373-2.231.474A11.617,11.617,0,0,1,52.306,71.3a10.58,10.58,0,0,1-2.016-1.194c-.406-.319-.779-.68-1.2-.983a5.77,5.77,0,0,1-.616-.627l-.577-.619a10.324,10.324,0,0,1-1.712-2.922c-.134-.41-.274-.819-.4-1.232a.449.449,0,0,0-.5-.368q-6.8.015-13.592,0c-.433,0-.465.271-.555.56A11.519,11.519,0,0,1,28,69c-.328.2-.544.527-.864.735-.182.085-.29.259-.449.373h0a3.6,3.6,0,0,0-.631.465,13.434,13.434,0,0,1-2.732,1.286c-.466.169-.97.19-1.424.4-.652.01-1.285.2-1.939.2a12.514,12.514,0,0,1-7.442-2.341A10.448,10.448,0,0,0,11.289,69,11.9,11.9,0,0,1,8.505,64.97,4.534,4.534,0,0,1,8.138,64a.642.642,0,0,0-.744-.6c-1.89.036-3.781.016-5.672.014A1.6,1.6,0,0,1,0,61.7q0-7.58,0-15.161A3.544,3.544,0,0,1,.157,45.4a5.2,5.2,0,0,0,.2-.808,5.008,5.008,0,0,1,.6-1.422l.093-.1a6.893,6.893,0,0,0,.591-.848,7.56,7.56,0,0,1,2.417-2.033.747.747,0,0,0,.2-.143,4.167,4.167,0,0,1,1-.4,11.3,11.3,0,0,1,3.114-.4c2.508.021,5.017.008,7.526.005A1.473,1.473,0,0,0,16.5,39.2c.13-.121.084-.281.084-.426,0-2.025,0-4.05.007-6.074a.837.837,0,0,0-.276-.661c-.517-.5-1.02-1.015-1.529-1.523a2.131,2.131,0,0,1-.4-.353c-.324-.374-.141-.636.193-.864.171-.179.348-.351.523-.526.209-.2.405-.416.617-.615.224-.279.441-.595.807-.161l.115.089c.5.432.938.922,1.409,1.381.208.2.412.409.617.616a6.575,6.575,0,0,1,.774.831l.2.5a.918.918,0,0,1,.053.538c0,2.26.012,4.521-.006,6.781,0,.378.1.48.476.475,1.808-.02,3.616-.012,5.425-.005.256,0,.391-.024.481-.335.26-.906.44-1.833.718-2.733a.11.11,0,0,0,.006-.09c.143-.816.424-1.6.558-2.419.255-.715.38-1.466.595-2.191a8.582,8.582,0,0,1,.341-1.234c.057-.074-.1-.144,0-.218a16.034,16.034,0,0,1,.531-1.933c.067-.16.231-.23.334-.355a2.161,2.161,0,0,1,.346-.309,1.422,1.422,0,0,1,.813-.2q5.912,0,11.825,0a1.546,1.546,0,0,1,1.643,1.363c.117.52.259,1.034.389,1.551.258,1.019.521,2.036.773,3.057.17.689.325,1.382.52,2.063.086.3.136.609.214.911h0c.27.916.458,1.854.733,2.77.065.218.117.3.347.3.651-.013,1.3-.03,1.953,0,.438.023.433-.409.683-.566.5-.748,1.02-1.486,1.5-2.247a9.1,9.1,0,0,1,1.638-2.011.789.789,0,0,0,.288-.651q-.016-3.792,0-7.584c0-.376-.1-.493-.477-.477-.7.03-1.407.028-2.109,0-.362-.014-.447.113-.445.457.014,2.176-.009,4.353.02,6.529.006.482-.146.592-.591.568-.668-.035-1.339-.024-2.008,0-.319.01-.436-.072-.435-.415.013-2.846,0-5.692.01-8.538a1.484,1.484,0,0,1,1.632-1.6q7.609,0,15.217.007a1.309,1.309,0,0,0,1.05-.43c.724-.763,1.471-1.506,2.231-2.234.288-.276.273-.456-.008-.727-.972-.941-1.913-1.915-2.883-2.858a2.085,2.085,0,0,1-.669-1.6c.016-4.319.007-8.638.009-12.958a1.572,1.572,0,0,1,1.8-1.81q1.984,0,3.968,0a1.576,1.576,0,0,1,1.787,1.438c.18.764.386,1.521.58,2.281.252.633.31,1.318.529,1.962.07.207.11.305.347.3q2.608-.014,5.217,0a.735.735,0,0,0,.543-.308c1.668-1.666,3.341-3.327,5-5A2.258,2.258,0,0,1,84.865,0c1.32.022,2.642,0,3.962.008A1.528,1.528,0,0,1,90.34,1,2.929,2.929,0,0,1,90.5,2.123c-.007,2.235-.01,4.47,0,6.705a1.87,1.87,0,0,1-.572,1.388c-.434.438-.869.876-1.31,1.307-.294.3-.593.6-.893.892-.235.248-.484.481-.723.725-.265.271-.537.534-.8.8q-.352.355-.707.707l-.8.8q-.351.355-.706.707c-.269.265-.531.537-.8.8l-.706.706c-.264.27-.536.532-.8.8-.231.239-.473.468-.706.706-.264.27-.536.532-.8.8-.232.239-.473.468-.706.706-.264.27-.536.532-.8.8-.232.239-.473.468-.706.706-.264.27-.536.532-.8.8q-.351.355-.706.707c-.269.265-.531.538-.8.8l-.706.706c-.264.27-.536.533-.8.8q-.352.356-.708.708c-.27.272-.543.542-.814.815-.256.252-.5.512-.765.759a2.365,2.365,0,0,0-1.012,2.5,5.479,5.479,0,0,1,.007.847,1.457,1.457,0,0,1-.484,1.164c-.47.476-.946.947-1.418,1.421-.279.273-.552.552-.829.826-.233.241-.477.472-.711.711-.264.271-.537.533-.8.8-.232.24-.475.47-.708.709-.3.3-.6.605-.906.905q-.7.7-1.394,1.394-.354.36-.714.715c-.276.271-.542.552-.822.82-.258.265-.525.522-.784.788a2.3,2.3,0,0,0-.947,2.235c.094,1.475-.023,2.958.053,4.437.3.349.785.266,1.157.469a1.342,1.342,0,0,0,.584.226,11.688,11.688,0,0,1,2.741,1.666l.619.576a5.735,5.735,0,0,1,.627.616c.3.42.664.792.983,1.2" transform="translate(0 0)" fill="#191f21"/>
            <path id="Path_38347" data-name="Path 38347" d="M58.1,433.9a12.544,12.544,0,0,0-3.909-5.03,9.632,9.632,0,0,0-3.056-1.657,7.479,7.479,0,0,0-1.988-.474,7.374,7.374,0,0,0-3.222-.236,11.914,11.914,0,0,0-9.029,5.38,11.591,11.591,0,0,0-1.985,6.167c-.014.371-.109.487-.486.48-1.189-.023-2.378-.021-3.567,0-.357.006-.5-.069-.495-.465.014-4.4.008-8.809.012-13.214a4.418,4.418,0,0,1,.9-2.609,5.1,5.1,0,0,1,.9-.906l.5-.3a6.829,6.829,0,0,1,3.22-.557q19.509.017,39.018.008c.688,0,.621-.077.624.61,0,.619-.019,1.24.008,1.858.015.353-.1.452-.45.45-2.561-.013-5.122-.007-7.683-.007-.753,0-1.506,0-2.26,0a1.567,1.567,0,0,0-1.674,1.551q0,6.48,0,12.96c0,.561,0,.562-.575.562-1.139,0-2.277-.01-3.416.007-.32,0-.437-.076-.437-.417a10.639,10.639,0,0,0-.343-2.225A6.712,6.712,0,0,0,58.1,433.9" transform="translate(-27.305 -378.168)" fill="#ed1c24"/>
            <path id="Path_38348" data-name="Path 38348" d="M678.772,30.446c.652,0,1.306.013,1.957-.014.356-.015.456.106.451.455-.018,1.656-.011,3.313-.013,4.969a10.716,10.716,0,0,1-1.067,1.129q-.305.312-.617.617c-.193.189-.379.385-.574.571-.1.117-.222.208-.321.324-.076.077-.15.156-.231.229-.152.158-.311.31-.464.466-.162.172-.337.331-.5.5-.1.112-.217.2-.313.314-.076.077-.149.155-.23.227-.153.161-.315.313-.469.472-.166.177-.348.338-.514.515-.236.236-.469.474-.708.707q-.54.543-1.083,1.083c-.2.207-.406.409-.611.613s-.4.4-.606.606c-.113.12-.239.226-.348.35-.094.1-.2.187-.288.286-.348.285-.553.753-1.139.711-.4-.028-.518-.156-.515-.541.015-1.641.006-3.281.006-4.922,0-.58,0-.58-.555-.581H668.21c-.552,0-.554,0-.554.534q0,2.461,0,4.922c0,.549-.024.572-.562.573q-1.507,0-3.013,0c-.13,0-.27.041-.387-.057l0,0c-.7-.564-1.288-1.252-1.936-1.876-.468-.451-.918-.92-1.382-1.375a.621.621,0,0,1-.256-.563q0-5.323,0-10.642c0-.557,0-.557.576-.558h.452c.778,0,.81-.006.947.778.087.5.269.961.4,1.442.268.853.451,1.728.672,2.594a1.459,1.459,0,0,0,1.425,1.114c2.469.005,4.938,0,7.407,0a1.539,1.539,0,0,0,.68-.13,1.683,1.683,0,0,0,.643-.461q2.476-2.482,4.957-4.958a2.07,2.07,0,0,1,.489-.426" transform="translate(-593.697 -27.369)" fill="#ed1c24"/>
            <path id="Path_38349" data-name="Path 38349" d="M118.267,510.837a9.37,9.37,0,0,1,3.815,3.418,6.1,6.1,0,0,1,.6,1.207,9.042,9.042,0,0,1-16.478,7.433,7.6,7.6,0,0,1-.853-3.282.324.324,0,0,0-.051-.236,9.042,9.042,0,0,1,7.356-9.273,11.406,11.406,0,0,1,2.089-.172,14.573,14.573,0,0,1,2,.318,9.285,9.285,0,0,1,1.519.586" transform="translate(-94.703 -458.626)" fill="#606060"/>
            <path id="Path_38350" data-name="Path 38350" d="M496.753,524.642a8.76,8.76,0,0,1-6.048,3.714,8.91,8.91,0,0,1-5.661-1.03,9.92,9.92,0,0,1-2.867-2.46.872.872,0,0,1-.1-.223,9.545,9.545,0,0,1-1.5-3.54,9.857,9.857,0,0,1-.14-2.329c.011-.248.018-.5.041-.745a7.811,7.811,0,0,1,.8-2.534,5.3,5.3,0,0,1,.8-1.309,9.306,9.306,0,0,1,2.667-2.453,8.7,8.7,0,0,1,6.122-1.18c.36.061.72.117,1.073.213a8.383,8.383,0,0,1,4.109,2.529,8.966,8.966,0,0,1,2.4,6.728,7.92,7.92,0,0,1-.387,2,1.491,1.491,0,0,0-.188.523,12.76,12.76,0,0,1-1.117,2.093" transform="translate(-432.086 -459.062)" fill="#606060"/>
            <path id="Path_38351" data-name="Path 38351" d="M398.3,485.937a12.955,12.955,0,0,0-.983,1.928,10.13,10.13,0,0,0-.852,3.462c-.07,1.01-.068,1.01-1.07,1.01-1.506,0-3.013-.011-4.519.008-.359,0-.446-.113-.445-.456q.016-5.523,0-11.047c0-.389.12-.471.485-.469q3.992.022,7.984,0c.421,0,.5.146.489.518-.02,1.121-.007,2.243-.007,3.363a.554.554,0,0,1-.12.417c-.344.4-.653.835-.959,1.268" transform="translate(-351.145 -432.037)" fill="#818080"/>
            <path id="Path_38352" data-name="Path 38352" d="M554.723,257.732c0-.7.016-1.4-.007-2.1-.012-.356.072-.5.467-.5,1.453.022,2.907.007,4.36.012.123,0,.3-.068.355.092.046.123-.093.2-.173.28q-2.319,2.323-4.644,4.642c-.076.076-.147.217-.282.151s-.074-.209-.074-.318c0-.752,0-1.5,0-2.255" transform="translate(-498.901 -229.456)" fill="#bac2c4"/>
            <path id="Path_38353" data-name="Path 38353" d="M84.149,424.4a1.544,1.544,0,0,1,1.572-1.614c3.315,0,6.63-.007,9.944.008.406,0,.566-.092.541-.525-.036-.617-.023-1.239,0-1.858.01-.315-.074-.481-.417-.437a2.839,2.839,0,0,1-.351,0q-19.688,0-39.376,0a5.119,5.119,0,0,0-2.328.464,1.01,1.01,0,0,1-.343.036,3.413,3.413,0,0,1,1.725-.6,6.526,6.526,0,0,1,.8-.017H95.644c.671,0,.671,0,.672.679,0,.586-.03,1.174.009,1.757.032.475-.107.623-.6.62-3.231-.022-6.462-.013-9.693-.011a1.572,1.572,0,0,0-1.789,1.492c-.029.045-.059.045-.092,0" transform="translate(-48.015 -377.607)" fill="#d39620"/>
            <path id="Path_38354" data-name="Path 38354" d="M398.638,483.758c0-1.206-.013-2.412,0-3.617,0-.327-.1-.432-.429-.431q-4.019.016-8.039,0c-.3,0-.412.082-.411.4q.013,5.552,0,11.1c0,.321.126.393.417.391,1.674-.009,3.349-.012,5.024,0,.333,0,.414-.113.43-.434a12.232,12.232,0,0,1,.785-3.8c.037-.1.078-.185.191-.21a15.034,15.034,0,0,0-.852,4.193c-.013.286-.131.367-.4.366-1.775-.008-3.551-.014-5.325,0-.433,0-.382-.259-.382-.528q0-4.7,0-9.4c0-.586.012-1.173,0-1.758-.009-.307.061-.453.413-.452q4.145.017,8.29,0c.3,0,.418.085.414.4-.019,1.255-.018,2.511-.024,3.767a.055.055,0,0,1-.1,0" transform="translate(-350.437 -431.335)" fill="#a28548"/>
            <path id="Path_38355" data-name="Path 38355" d="M672.989,210c.348.146.025.263-.038.331-.545.586-1.149,1.113-1.7,1.7-1,1.054-2.043,2.061-3.071,3.085-.5.5-.556.511-1.025,0-.556-.6-1.138-1.174-1.74-1.728-.247-.227-.3-.47-.024-.713.969-.845,1.777-1.856,2.772-2.674a.083.083,0,0,1,.122,0c.025.259-.183.381-.329.53-.7.715-1.406,1.433-2.132,2.126-.29.277-.279.468.006.735.513.479,1.009.978,1.49,1.49.262.278.445.244.7-.014,1.605-1.635,3.25-3.23,4.845-4.876a.1.1,0,0,1,.128.013" transform="translate(-598.272 -188.846)" fill="#060a0e"/>
            <path id="Path_38356" data-name="Path 38356" d="M359.583,300.034l4.6-.033a.271.271,0,0,1,.311.248c.051.261.128.516.194.774.016.207.3.4.027.622-.315-.126-.265-.437-.336-.681-.193-.667-.2-.684-.89-.686-1.036,0-2.073.008-3.109,0-.407,0-.565.156-.565.562q.008,3.711,0,7.421c0,.417.169.555.568.553,1.8-.009,3.61,0,5.415,0a1.138,1.138,0,0,0,.625-.15.187.187,0,0,1,.177,0v0a.309.309,0,0,1-.009.4h0a.42.42,0,0,1-.288.052q-3.2,0-6.4,0c-.112,0-.236.037-.329-.067l0,0c-.1-.093-.067-.217-.067-.33q0-4.177,0-8.355c0-.112-.038-.237.069-.328" transform="translate(-323.335 -269.816)" fill="#6897bc"/>
            <path id="Path_38357" data-name="Path 38357" d="M695.675,126.141c1.12,0,2.241-.025,3.361,0,.405.008.548-.091.542-.523-.025-1.672,0-3.345-.019-5.017-.005-.4.116-.524.512-.507.7.029,1.405.025,2.107,0,.355-.012.458.11.455.459-.015,1.672-.01,3.345,0,5.017,0,.182-.114.466.134.525a.833.833,0,0,0,.85-.113c.225-.222.461-.432.693-.648a.069.069,0,0,1,.008.123c-.364.4-.651.883-1.334.808-.373-.041-.485-.163-.482-.52.012-1.655-.008-3.311.014-4.965.006-.425-.083-.6-.547-.57a15.424,15.424,0,0,1-1.8,0c-.375-.018-.487.1-.483.479.019,1.655-.006,3.31.017,4.965.007.463-.137.615-.6.6-1.036-.03-2.073-.009-3.109-.01-.115,0-.239.018-.311-.108" transform="translate(-625.679 -108.006)" fill="#44300c"/>
            <path id="Path_38358" data-name="Path 38358" d="M290.837,299.051a4.353,4.353,0,0,1,1.771-.08c.3.008.232.319.232.526q0,3.818,0,7.636c0,1.2.139,1.052-1.082,1.058-.887,0-1.775,0-2.663,0-.6,0-.6-.055-.442-.627s.28-1.157.443-1.731c.144-.51.232-1.036.344-1.555.118-.007.151.08.185.167a6.131,6.131,0,0,1-.33,1.763c-.082.427-.237.837-.315,1.266-.051.278.01.459.342.46.937,0,1.874.006,2.811,0,.4,0,.451-.262.452-.574,0-1.088,0-2.175,0-3.263q0-2.058,0-4.116c0-.754-.027-.773-.8-.781a2.929,2.929,0,0,1-.8-.049.591.591,0,0,1-.152-.1" transform="translate(-259.53 -268.843)" fill="#1b2731"/>
            <path id="Path_38359" data-name="Path 38359" d="M661.808,32.356c-.287-.347-.246-.8-.391-1.2a1.492,1.492,0,0,1-.108-.432c-.028-.609-.414-.617-.887-.6-.919.03-.92.009-.92.939q0,5.219,0,10.438a.058.058,0,0,1-.1,0q-.008-5.55-.022-11.1c0-.316.121-.414.416-.4a3.372,3.372,0,0,0,.8,0c.557-.1.781.172.874.666.074.393.175.782.263,1.172.066.165.227.315.076.512" transform="translate(-593.033 -26.969)" fill="#b37f1d"/>
            <path id="Path_38360" data-name="Path 38360" d="M682.859,48.972l-.077-.512c.332.23.26.643.34.948.158.6.34,1.207.451,1.825a1.487,1.487,0,0,0,1.592,1.348c2.359,0,4.719,0,7.078.007a3.576,3.576,0,0,0,.971-.217.078.078,0,0,1,.033.078c-.007.028-.015.042-.023.042a.91.91,0,0,1-.653.207c-2.542,0-5.083.006-7.625,0A1.481,1.481,0,0,1,683.5,51.59c-.235-.867-.429-1.745-.641-2.619" transform="translate(-614.083 -43.584)" fill="#37270a"/>
            <path id="Path_38361" data-name="Path 38361" d="M506.682,510.095c-.594-.069-1.193-.111-1.781-.213a7.5,7.5,0,0,0-3.819.481,9.1,9.1,0,0,0-3.6,2.436c-.222.236-.289.617-.657.716a6.329,6.329,0,0,1,1.972-2.077,8.938,8.938,0,0,1,6.305-1.722,3.668,3.668,0,0,1,1.584.38" transform="translate(-446.833 -458.391)" fill="#273c48"/>
            <path id="Path_38362" data-name="Path 38362" d="M511.018,401.681c-.387.195-.776.384-1.159.586-.285.15-.392.066-.389-.245.006-.819,0-1.638,0-2.458,0-1.722.017-3.444-.01-5.166a2.09,2.09,0,0,1,.422-1.394c.264-.341.483-.717.723-1.078a.092.092,0,0,1,.14.047c.03.394-.25.65-.454.92a2.791,2.791,0,0,0-.556,1.822c.031,2.208.01,4.418.013,6.627,0,.582.034.6.547.378a.96.96,0,0,1,.576-.133.283.283,0,0,1,.146.094" transform="translate(-458.201 -352.479)" fill="#a69c1e"/>
            <path id="Path_38363" data-name="Path 38363" d="M786.467,36.4q0-.06-.009-.121c.246-.224.5-.438.736-.673q2.366-2.357,4.728-4.72c.136-.135.236-.341.481-.318-1.571,1.585-3.135,3.176-4.716,4.751a4.1,4.1,0,0,1-1.219,1.08" transform="translate(-707.328 -27.49)" fill="#422e0c"/>
            <path id="Path_38364" data-name="Path 38364" d="M538.167,425.843c.006,1.69.008,3.38.021,5.07,0,.269-.073.389-.365.4a11.908,11.908,0,0,0-2.574.372c-.205.045-.394.191-.622.1a.228.228,0,0,1,.036-.164,2.338,2.338,0,0,1,1.128-.367,7.728,7.728,0,0,1,1.689-.228c.379.016.428-.231.428-.528,0-1.289,0-2.579,0-3.868a1.454,1.454,0,0,1,.1-.738.119.119,0,0,1,.158-.042" transform="translate(-480.833 -382.983)" fill="#bfb422"/>
            <path id="Path_38365" data-name="Path 38365" d="M525.77,387.743l-.1,0c-.233-.044-.355-.236-.505-.386q-1.574-1.564-3.14-3.137c-.448-.447-.448-.446-.9.018a.324.324,0,0,1-.171.095l-.1,0a1.672,1.672,0,0,1,.5-.819.293.293,0,0,1,.314,0l3.958,3.934a.385.385,0,0,1,.158.3" transform="translate(-468.436 -344.883)" fill="#433f0d"/>
            <path id="Path_38366" data-name="Path 38366" d="M550.124,358.831c-.456.526-.515.531-.978.069q-1.563-1.561-3.125-3.125c-.462-.462-.456-.526.071-.977a.081.081,0,0,1,.12-.009c-.269.514,0,.839.361,1.183q1.216,1.158,2.376,2.376c.344.362.67.628,1.184.361a.084.084,0,0,1-.008.122" transform="translate(-490.781 -319.07)" fill="#442f0b"/>
            <path id="Path_38367" data-name="Path 38367" d="M480.044,585.825a17.946,17.946,0,0,0-.026,2.384,9.369,9.369,0,0,0,1.307,3.76,1.053,1.053,0,0,1,.224.492,7.588,7.588,0,0,1-1.516-3.257,11.024,11.024,0,0,1-.189-2.876c.164-.129-.121-.436.2-.5" transform="translate(-431.559 -526.881)" fill="#273b46"/>
            <path id="Path_38368" data-name="Path 38368" d="M359.148,300.334q0,4.507,0,9.013c-.171-.1-.112-.264-.112-.4q0-4.1,0-8.2c0-.14-.058-.308.114-.4" transform="translate(-322.901 -270.115)" fill="#293b4a"/>
            <path id="Path_38369" data-name="Path 38369" d="M659.594,144.461l.1,0q1.6,1.614,3.208,3.229c.116.117.217.248.325.373-.156.028-.244-.079-.337-.172l-3.132-3.131a.423.423,0,0,1-.164-.3" transform="translate(-593.228 -129.923)" fill="#422e0c"/>
            <path id="Path_38370" data-name="Path 38370" d="M360.2,389.879l7.016.015c-.113.143-.274.1-.417.1q-3.1,0-6.194,0c-.14,0-.307.059-.4-.112" transform="translate(-323.961 -350.65)" fill="#293b4a"/>
            <path id="Path_38371" data-name="Path 38371" d="M411.1,310.765l-.092-.606c.3.217.214.583.288.87a32.282,32.282,0,0,1,.809,3.355c-.22,0-.219-.2-.3-.334-.316-.953-.5-1.941-.761-2.908a.367.367,0,0,1,.053-.378" transform="translate(-369.65 -278.952)" fill="#293b4a"/>
            <path id="Path_38372" data-name="Path 38372" d="M297.4,322.651l-.1-.13q.4-1.6.8-3.205c.011-.043.059-.077.089-.115a.454.454,0,0,1,.128.309,23.047,23.047,0,0,1-.688,2.9.3.3,0,0,1-.229.24" transform="translate(-267.382 -287.084)" fill="#1b2731"/>
            <path id="Path_38373" data-name="Path 38373" d="M105.209,603.8a9.549,9.549,0,0,1,.285,1.64c.148.649.453,1.239.619,1.878a4.783,4.783,0,0,1-.785-2.04,4.236,4.236,0,0,1-.118-1.478" transform="translate(-94.607 -543.047)" fill="#162228"/>
            <path id="Path_38374" data-name="Path 38374" d="M666.595,282.891c.286.249.7.466.752.827a6.393,6.393,0,0,1,0,1.78c-.04.315-.4.506-.652.719a.078.078,0,0,1-.13-.009.369.369,0,0,1,.153-.349c.666-.539.411-1.27.406-1.944,0-.188-.18-.308-.3-.444-.149-.17-.37-.3-.36-.567a.077.077,0,0,1,.13-.011" transform="translate(-599.408 -254.4)" fill="#44300c"/>
            <path id="Path_38375" data-name="Path 38375" d="M202.75,510.751c-.639-.166-1.229-.471-1.878-.619a9.631,9.631,0,0,1-1.64-.285,7.283,7.283,0,0,1,3.35.732c.068.029.113.113.168.172" transform="translate(-179.186 -458.539)" fill="#162228"/>
            <path id="Path_38376" data-name="Path 38376" d="M694.715,209.384l-.111-.005c.1-.122.238-.1.369-.1h4.09c.13,0,.27-.023.37.1l-.108,0a.785.785,0,0,1-.562.158q-1.744.009-3.488,0a.713.713,0,0,1-.559-.155" transform="translate(-624.716 -188.221)" fill="#060a0d"/>
            <path id="Path_38377" data-name="Path 38377" d="M419,349.15l.2.3.617,2.6c.05.174.22.332.066.531-.184-.015-.251-.145-.287-.3-.2-.844-.432-1.678-.637-2.519-.05-.2-.132-.424.042-.619" transform="translate(-376.747 -314.02)" fill="#5a82a2"/>
            <path id="Path_38378" data-name="Path 38378" d="M590.659,293.406q1.114-1.2,2.318-2.319a.211.211,0,0,1,.058.128.788.788,0,0,1-.3.442q-.75.757-1.507,1.507a.8.8,0,0,1-.442.3.208.208,0,0,1-.129-.058" transform="translate(-531.229 -261.799)" fill="#422e0c"/>
            <path id="Path_38379" data-name="Path 38379" d="M570.65,314.135l.131.01a8.937,8.937,0,0,1-2.294,2.327c-.009.007-.032-.005-.048-.009a.078.078,0,0,1-.024-.083c.01-.027.02-.04.029-.04q1.058-1.147,2.2-2.2" transform="translate(-511.22 -282.528)" fill="#422e0c"/>
            <path id="Path_38380" data-name="Path 38380" d="M480.109,563.372c-.185.121-.013.383-.2.5a5.909,5.909,0,0,1,.9-3.015c-.157.623-.482,1.191-.6,1.829a2.787,2.787,0,0,0-.1.683" transform="translate(-431.623 -504.428)" fill="#162229"/>
            <path id="Path_38381" data-name="Path 38381" d="M551.642,336.049c0,.043.007.087.01.13.03.174-.092.275-.193.378q-.606.62-1.225,1.225c-.1.1-.2.224-.379.19l-.126-.009q.911-1,1.913-1.915" transform="translate(-494.418 -302.237)" fill="#422e0c"/>
            <path id="Path_38382" data-name="Path 38382" d="M613.7,274.832l-.01-.132,1.8-1.8a.085.085,0,0,1,.125-.005c0,.016.016.038.009.047a6.087,6.087,0,0,1-1.925,1.893" transform="translate(-551.947 -245.412)" fill="#422e0c"/>
            <path id="Path_38383" data-name="Path 38383" d="M642.713,632.812l1.1-2.122a.073.073,0,0,1,.036.077c-.008.028-.016.042-.026.042a5.212,5.212,0,0,1-1.108,2" transform="translate(-578.046 -567.232)" fill="#243945"/>
            <path id="Path_38384" data-name="Path 38384" d="M642.407,262.023a.657.657,0,0,1,.673.219c.337.369.692.721,1.04,1.08a.08.08,0,0,1,.03.081c-.008.028-.016.042-.024.042-.279.037-.4-.2-.558-.345a3.867,3.867,0,0,0-1.173-.951.093.093,0,0,1,.012-.127" transform="translate(-577.742 -235.642)" fill="#44300c"/>
            <path id="Path_38385" data-name="Path 38385" d="M306.024,553.9a3.679,3.679,0,0,1,.639,1.783l-.045.039c-.036.024-.06.015-.073-.026-.08-.626-.4-1.183-.521-1.8" transform="translate(-275.233 -498.166)" fill="#b6821d"/>
            <path id="Path_38386" data-name="Path 38386" d="M469.7,521.011h.1a6.3,6.3,0,0,1-1.142,1.477,7.559,7.559,0,0,1,1.046-1.477" transform="translate(-421.503 -468.587)" fill="#5e4d2a"/>
            <path id="Path_38387" data-name="Path 38387" d="M632.71,262.2c0,.04,0,.08.005.119a1.607,1.607,0,0,1-.989,1l-.132-.012a9,9,0,0,1,1.116-1.1" transform="translate(-568.045 -235.815)" fill="#412d0b"/>
            <path id="Path_38388" data-name="Path 38388" d="M634.682,339.118a7.9,7.9,0,0,1-1,1,.081.081,0,0,1-.123,0,1.854,1.854,0,0,1,1.129-1.128.081.081,0,0,1,.025.085c-.01.027-.019.041-.029.041" transform="translate(-569.811 -304.884)" fill="#44300c"/>
            <path id="Path_38389" data-name="Path 38389" d="M658.167,316.1l.129.011-1.112,1.113a.206.206,0,0,1-.059-.127,1.9,1.9,0,0,1,1.042-1" transform="translate(-591.008 -284.297)" fill="#422e0c"/>
            <path id="Path_38390" data-name="Path 38390" d="M858.273,85.464a7.916,7.916,0,0,1,1.114-1.11c-.181.5-.64.763-.988,1.12a.072.072,0,0,1-.126-.009" transform="translate(-771.917 -75.867)" fill="#44300c"/>
            <path id="Path_38391" data-name="Path 38391" d="M798.348,145.359a8.309,8.309,0,0,1,1.116-1.114.07.07,0,0,1,.009.124,8.232,8.232,0,0,1-1,1,.072.072,0,0,1-.126-.009" transform="translate(-718.021 -129.731)" fill="#44300c"/>
            <path id="Path_38392" data-name="Path 38392" d="M272.716,554.094a4.675,4.675,0,0,1-.6-1.207,1.72,1.72,0,0,1,.6,1.207" transform="translate(-244.733 -497.257)" fill="#0f171b"/>
            <path id="Path_38393" data-name="Path 38393" d="M589.719,385.6c0-.042-.006-.084-.01-.126a1.571,1.571,0,0,1,.895-.945.205.205,0,0,1,.127.06l-1.012,1.011" transform="translate(-530.375 -345.836)" fill="#422e0c"/>
            <path id="Path_38394" data-name="Path 38394" d="M40.335,429a6.439,6.439,0,0,1-.9.906,1.474,1.474,0,0,1,.9-.906" transform="translate(-35.465 -385.839)" fill="#5b400f"/>
            <path id="Path_38395" data-name="Path 38395" d="M523.754,484.72l-.133-.034a.953.953,0,0,1,1.1-.406l.039.048c.023.039.014.063-.031.071l-.978.321" transform="translate(-470.936 -435.518)" fill="#c0b423"/>
            <path id="Path_38396" data-name="Path 38396" d="M598.679,377.4l-.133-.011a1.344,1.344,0,0,1,.806-.853.208.208,0,0,1,.129.059l-.8.8" transform="translate(-538.323 -338.653)" fill="#432f0c"/>
            <path id="Path_38397" data-name="Path 38397" d="M659.629,275.238l.009-.123a5.429,5.429,0,0,1,.809.809l-.125.009a.843.843,0,0,1-.693-.7" transform="translate(-593.26 -247.434)" fill="#422e0c"/>
            <path id="Path_38398" data-name="Path 38398" d="M309,300.233l.126.018a1.4,1.4,0,0,1-.236,1.086.093.093,0,0,1-.132-.033,2.746,2.746,0,0,1,.241-1.071" transform="translate(-277.697 -270.024)" fill="#32485a"/>
            <path id="Path_38399" data-name="Path 38399" d="M809.453,137.861c0-.041-.006-.083-.009-.124a3.058,3.058,0,0,1,.694-.7.072.072,0,0,1,.125.008l-.81.811" transform="translate(-728.001 -123.223)" fill="#432f0c"/>
            <path id="Path_38400" data-name="Path 38400" d="M306.145,312.028q0-.155,0-.309c.125-.268.021-.607.264-.837l.06.048c.049.411.151.838-.32,1.1" transform="translate(-275.338 -279.602)" fill="#32485a"/>
            <path id="Path_38401" data-name="Path 38401" d="M644.657,332.463c0-.042-.006-.083-.009-.124a1.017,1.017,0,0,1,.691-.746.206.206,0,0,1,.128.059l-.81.811" transform="translate(-579.786 -298.229)" fill="#432f0c"/>
            <path id="Path_38402" data-name="Path 38402" d="M627.8,350.065l.126.009a4.176,4.176,0,0,1-.708.712.2.2,0,0,1-.059-.127.793.793,0,0,1,.641-.594" transform="translate(-564.058 -314.842)" fill="#43300c"/>
            <path id="Path_38403" data-name="Path 38403" d="M852.681,95.387l.126.009-.709.711q-.08-.057-.008-.123a2.294,2.294,0,0,1,.592-.6" transform="translate(-766.325 -85.789)" fill="#422e0c"/>
            <path id="Path_38404" data-name="Path 38404" d="M792.756,155.313l.126.009-.709.711q-.08-.057-.008-.123a2.283,2.283,0,0,1,.591-.6" transform="translate(-712.429 -139.686)" fill="#422e0c"/>
            <path id="Path_38405" data-name="Path 38405" d="M846.91,101.325c0,.041.005.082.008.123l-.5.495a.071.071,0,0,1-.125-.009,2.387,2.387,0,0,1,.614-.609" transform="translate(-761.145 -91.13)" fill="#44300c"/>
            <path id="Path_38406" data-name="Path 38406" d="M786.984,161.251c0,.041.005.082.008.123l-.5.495a.071.071,0,0,1-.125-.009,2.381,2.381,0,0,1,.613-.609" transform="translate(-707.248 -145.026)" fill="#44300c"/>
            <path id="Path_38407" data-name="Path 38407" d="M622.184,356.015c0,.041,0,.082.007.123l-.5.495a.083.083,0,0,1-.125,0,.664.664,0,0,1,.615-.62" transform="translate(-559.029 -320.194)" fill="#44300c"/>
            <path id="Path_38408" data-name="Path 38408" d="M651.664,326.66l-.125-.008a.667.667,0,0,1,.614-.609l.008.123-.5.494" transform="translate(-585.984 -293.237)" fill="#44300c"/>
            <path id="Path_38409" data-name="Path 38409" d="M311.07,571.747a.212.212,0,0,1,.073.026c.03.265.176.514.106.793a1.169,1.169,0,0,1-.179-.818" transform="translate(-279.758 -514.219)" fill="#4e370d"/>
            <path id="Path_38410" data-name="Path 38410" d="M816.466,132.556l-.125-.008a1.886,1.886,0,0,1,.5-.5.079.079,0,0,1,.133.012l-.5.5" transform="translate(-734.204 -118.73)" fill="#44300c"/>
            <path id="Path_38411" data-name="Path 38411" d="M428.122,378.552l-.075-.517c.3.211.168.527.2.8a.236.236,0,0,1-.089-.012.183.183,0,0,1-.032-.275" transform="translate(-384.979 -339.998)" fill="#293b4a"/>
            <path id="Path_38412" data-name="Path 38412" d="M606.72,372.1l-.125-.008c.016-.321.232-.461.5-.553a.207.207,0,0,1,.13.06l-.5.5" transform="translate(-545.561 -334.158)" fill="#44300c"/>
            <path id="Path_38413" data-name="Path 38413" d="M831.315,117.567a1.9,1.9,0,0,1,.5-.505.079.079,0,0,1,.133.011l-.505.5a.071.071,0,0,1-.125-.009" transform="translate(-747.671 -105.256)" fill="#44300c"/>
            <path id="Path_38414" data-name="Path 38414" d="M821.41,127.777l-.133-.011a1.974,1.974,0,0,1,.517-.509.069.069,0,0,1,.008.123l-.393.4" transform="translate(-738.643 -114.453)" fill="#44300c"/>
            <path id="Path_38415" data-name="Path 38415" d="M611.662,367.47l-.133-.011a.527.527,0,0,1,.529-.511.076.076,0,0,1,0,.126l-.394.4" transform="translate(-549.999 -330.027)" fill="#44300c"/>
            <path id="Path_38416" data-name="Path 38416" d="M836.392,112.8l-.133-.011a1.98,1.98,0,0,1,.517-.509.069.069,0,0,1,.008.123l-.393.4" transform="translate(-752.118 -100.979)" fill="#44300c"/>
            <path id="Path_38417" data-name="Path 38417" d="M534.656,484.055a.238.238,0,0,1,.031-.071c.2-.023.375-.171.59-.112a.627.627,0,0,1-.621.183" transform="translate(-480.861 -435.174)" fill="#3c390d"/>
            <path id="Path_38418" data-name="Path 38418" d="M653.632,626.4c0-.04-.007-.08-.01-.12.008-.19-.025-.4.208-.494a1.051,1.051,0,0,1-.2.613" transform="translate(-587.857 -562.818)" fill="#243842"/>
            <path id="Path_38419" data-name="Path 38419" d="M429.914,386.449q0-.2.009-.4c.186.138.331.275-.009.4" transform="translate(-386.658 -347.205)" fill="#293b4a"/>
            <path id="Path_38420" data-name="Path 38420" d="M618.866,362.056l.125.009-.3.3a.085.085,0,0,1-.125,0c-.016-.216.084-.322.3-.315" transform="translate(-556.325 -325.626)" fill="#432f0c"/>
            <path id="Path_38421" data-name="Path 38421" d="M843.6,107.374l.125.009-.3.3a.07.07,0,0,1-.124-.008.649.649,0,0,1,.3-.3" transform="translate(-758.445 -96.57)" fill="#432f0c"/>
            <path id="Path_38422" data-name="Path 38422" d="M783.67,167.3l.125.009-.3.3a.07.07,0,0,1-.124-.008.649.649,0,0,1,.3-.3" transform="translate(-704.549 -150.467)" fill="#432f0c"/>
            <path id="Path_38423" data-name="Path 38423" d="M828.615,122.356l.125.009-.3.3a.07.07,0,0,1-.124-.008.649.649,0,0,1,.3-.3" transform="translate(-744.971 -110.045)" fill="#432f0c"/>
            <path id="Path_38424" data-name="Path 38424" d="M841.592,110.37l.124.008-.306.306-.008-.123a.3.3,0,0,1,.191-.192" transform="translate(-756.742 -99.265)" fill="#432f0c"/>
            <path id="Path_38425" data-name="Path 38425" d="M781.666,170.3l.124.008-.306.306-.008-.123a.3.3,0,0,1,.19-.192" transform="translate(-702.846 -153.161)" fill="#432f0c"/>
            <path id="Path_38426" data-name="Path 38426" d="M616.845,365.033l.126.009-.307.307-.009-.125c-.017-.144.048-.207.19-.191" transform="translate(-554.607 -328.303)" fill="#432f0c"/>
            <path id="Path_38427" data-name="Path 38427" d="M526.108,382.443h-.314c.1-.126.209-.3.314,0" transform="translate(-472.891 -343.815)" fill="#1a1905"/>
            <path id="Path_38428" data-name="Path 38428" d="M826.61,125.351l.124.008-.306.306-.008-.123a.3.3,0,0,1,.191-.192" transform="translate(-743.268 -112.739)" fill="#432f0c"/>
            <path id="Path_38429" data-name="Path 38429" d="M141.308,551.885a6.032,6.032,0,1,1,6.034-5.928,6.069,6.069,0,0,1-6.034,5.928" transform="translate(-121.668 -485.505)"/>
            <path id="Path_38430" data-name="Path 38430" d="M521.9,545.946a6.03,6.03,0,1,1-5.961-6.045,6.07,6.07,0,0,1,5.961,6.045" transform="translate(-458.54 -485.578)"/>
            <path id="Path_38431" data-name="Path 38431" d="M422.938,511.348c0,.384-.011.768,0,1.151.01.264-.051.4-.355.392-.767-.017-1.535-.011-2.3,0-.241,0-.37-.05-.366-.33q.02-1.176,0-2.352c0-.27.1-.344.356-.34.767.011,1.535.014,2.3,0,.292-.006.379.107.366.382-.017.366,0,.734,0,1.1" transform="translate(-377.667 -458.563)" fill="#010100"/>
            <path id="Path_38432" data-name="Path 38432" d="M670.244,210.312l4.609,0c.015.2-.142.293-.257.408-1.537,1.541-3.084,3.072-4.609,4.625-.283.288-.449.282-.717-.007-.535-.576-1.094-1.132-1.668-1.669-.271-.253-.282-.413-.008-.681.9-.876,1.768-1.781,2.649-2.674" transform="translate(-600.244 -189.149)" fill="#606060"/>
            <path id="Path_38433" data-name="Path 38433" d="M367.82,309.4l.032.275c-.012.212-.091.324-.337.323q-3.085-.013-6.17,0c-.267,0-.345-.1-.344-.357q.008-4.063,0-8.126c0-.292.114-.369.386-.367,1.321.009,2.642.007,3.963,0,.235,0,.31.078.4.318.143.394.058.86.377,1.193l.807,3.317a15.456,15.456,0,0,0,.617,2.551c.085.287-.055.662.274.872" transform="translate(-324.677 -270.842)" fill="#fff"/>
            <path id="Path_38434" data-name="Path 38434" d="M292,302.507c.253-.323.187-.739.32-1.1l.307-1.1c.452,0,.9.01,1.355-.011.3-.013.411.076.41.393q-.015,4.117,0,8.234c0,.318-.116.4-.411.392q-1.606-.02-3.213,0c-.326,0-.408-.09-.324-.408.237-.9.447-1.815.676-2.722a1.462,1.462,0,0,0,.087-.539,25.7,25.7,0,0,0,.793-3.141" transform="translate(-261.196 -270.081)" fill="#606060"/>
            <path id="Path_38435" data-name="Path 38435" d="M512.732,395.869a2.3,2.3,0,0,0-1.1.407,2.7,2.7,0,0,0-.782.326c-.513.249-.512.253-.512-.34q0-2.483,0-4.965a7.454,7.454,0,0,0,0-.752,4.475,4.475,0,0,1,1.066-3.8c.04-.042.038-.124.056-.187.542-.8.543-.806,1.215-.128q1.755,1.768,3.506,3.538,0,2.335,0,4.67c0,.659,0,.658-.636.663a13.91,13.91,0,0,0-2.648.448c-.058.012-.106.078-.158.12" transform="translate(-458.945 -347.106)" fill="#818080"/>
            <path id="Path_38436" data-name="Path 38436" d="M554.995,273.253a.3.3,0,0,0-.19.192,1.988,1.988,0,0,0-.518.51,1.88,1.88,0,0,0-.5.5,4.559,4.559,0,0,0-.81.8,6.057,6.057,0,0,0-.889.9c-.523.425-.524.426-1.024-.074q-1.4-1.4-2.8-2.8c-.5-.5-.5-.5-.072-1.023a23.149,23.149,0,0,0,1.8-1.794c.808-.743,1.58-1.521,2.326-2.325.761-.7,1.5-1.432,2.2-2.2q1.008-.915,1.924-1.923a6.938,6.938,0,0,0,.989-1c.227-.109.371.022.52.168.39.382.786.757,1.179,1.136a3.045,3.045,0,0,0,.693.7.613.613,0,0,0,.116.159,1.883,1.883,0,0,1,.714,1.672,1.972,1.972,0,0,1-.733,1.475,6.417,6.417,0,0,0-.99,1,2.388,2.388,0,0,0-.614.609,3.05,3.05,0,0,0-.693.7,8.575,8.575,0,0,0-1.118,1.113,2.323,2.323,0,0,0-.589.6,2.353,2.353,0,0,0-.614.608.654.654,0,0,0-.3.3" transform="translate(-492.757 -236.523)" fill="#d81d24"/>
            <path id="Path_38437" data-name="Path 38437" d="M184.131,569.009a2.924,2.924,0,0,1,3.23.66.1.1,0,0,1-.007.142c-.19.043-.309-.093-.447-.179a2.606,2.606,0,0,0-2.355-.468.464.464,0,0,1-.389-.021.093.093,0,0,1-.032-.134" transform="translate(-165.59 -511.557)" fill="#4a4a45"/>
            <path id="Path_38438" data-name="Path 38438" d="M165.031,591.843a2.924,2.924,0,0,1-.579-3.138.092.092,0,0,1,.134.033.4.4,0,0,1,.032.336,2.625,2.625,0,0,0,.38,2.305.644.644,0,0,1,.1.326.209.209,0,0,1-.072.138" transform="translate(-147.707 -529.457)" fill="#4b4b46"/>
            <path id="Path_38439" data-name="Path 38439" d="M166.527,572.789l-.048,0h-.048a3.011,3.011,0,0,1,1.8-1.8q0,.048,0,.1c.008.034.014.078-.009.094a5.819,5.819,0,0,0-1.6,1.6c-.015.023-.059.017-.094.01" transform="translate(-149.685 -513.539)" fill="#444440"/>
            <path id="Path_38440" data-name="Path 38440" d="M172.182,618.747l.011-.133c.153-.044.256.051.353.14a2.887,2.887,0,0,0,1.351.724c.131.028.358.026.275.287a.571.571,0,0,1-.309-.025,2.75,2.75,0,0,1-1.682-.993" transform="translate(-154.858 -556.361)" fill="#4c4c48"/>
            <path id="Path_38441" data-name="Path 38441" d="M222.572,588.73a2.705,2.705,0,0,1,.139,1.745.3.3,0,0,1-.137-.209c.035-.5-.248-.979-.142-1.49a.1.1,0,0,1,.14-.045" transform="translate(-200.03 -529.482)" fill="#4a4a46"/>
            <path id="Path_38442" data-name="Path 38442" d="M219.519,603.378l.045.283a2.606,2.606,0,0,1-.525,1.167.081.081,0,0,1-.13-.015,3.154,3.154,0,0,1,.61-1.435" transform="translate(-196.883 -542.668)" fill="#4c4c48"/>
            <path id="Path_38443" data-name="Path 38443" d="M217.023,578.692h-.048l-.048,0a1.5,1.5,0,0,1-.689-1.016l.013-.122a2.28,2.28,0,0,1,.771,1.136" transform="translate(-194.481 -519.444)" fill="#43433f"/>
            <path id="Path_38444" data-name="Path 38444" d="M210.645,617.752l.11,0a2.8,2.8,0,0,1-1,.9.174.174,0,0,1-.053-.127,1.748,1.748,0,0,1,.947-.778" transform="translate(-188.599 -555.596)" fill="#43433f"/>
            <path id="Path_38445" data-name="Path 38445" d="M200.341,625.62q0,.052,0,.1a2.2,2.2,0,0,1-.866.318.3.3,0,0,1-.239.005,1.022,1.022,0,0,1,1.1-.428" transform="translate(-179.192 -562.662)" fill="#4c4c48"/>
            <path id="Path_38446" data-name="Path 38446" d="M189.9,628.634l.283.037a2.254,2.254,0,0,1-1.279,0l.374-.032a.519.519,0,0,1,.622,0" transform="translate(-169.895 -565.291)" fill="#4a4a46"/>
            <path id="Path_38447" data-name="Path 38447" d="M539.639,588.253a2.978,2.978,0,0,1-.47-3.633.082.082,0,0,1,.13.02,1.087,1.087,0,0,1-.141.717,2.644,2.644,0,0,0,.333,2.279c.107.2.327.343.289.61a.1.1,0,0,1-.142.007" transform="translate(-484.549 -525.776)" fill="#4b4b46"/>
            <path id="Path_38448" data-name="Path 38448" d="M551.588,569.462a2.876,2.876,0,0,1,2.451-.523.3.3,0,0,1-.2.134,4.4,4.4,0,0,0-1.943.494.325.325,0,0,1-.285.031.084.084,0,0,1-.023-.135" transform="translate(-496.068 -511.624)" fill="#4c4c47"/>
            <path id="Path_38449" data-name="Path 38449" d="M564.952,624.9a2.927,2.927,0,0,1-2.424.42.315.315,0,0,1,.2-.129,3.843,3.843,0,0,0,1.771-.336.578.578,0,0,1,.235-.051.3.3,0,0,1,.216.095" transform="translate(-505.929 -561.937)" fill="#3e3e39"/>
            <path id="Path_38450" data-name="Path 38450" d="M573.35,569.677l.283-.045a2.634,2.634,0,0,1,1.484.8.106.106,0,0,1-.005.139.339.339,0,0,1-.319-.093,3.118,3.118,0,0,0-1.148-.566.343.343,0,0,1-.3-.234" transform="translate(-515.662 -512.317)" fill="#4e4e49"/>
            <path id="Path_38451" data-name="Path 38451" d="M590.547,577.7c.005-.041.01-.081.015-.122a2.852,2.852,0,0,1,.9,1.507.5.5,0,0,1,.022.308c-.161.1-.224-.04-.248-.135a5.056,5.056,0,0,0-.7-1.416.152.152,0,0,1,.011-.142" transform="translate(-531.106 -519.461)" fill="#43433f"/>
            <path id="Path_38452" data-name="Path 38452" d="M549.293,621.683l-.259.032a2.81,2.81,0,0,1-1.51-.9l.122-.014c.374-.021.555.332.862.441.223.216.64.091.784.445" transform="translate(-492.434 -558.334)" fill="#444440"/>
            <path id="Path_38453" data-name="Path 38453" d="M584.872,615.833h-.2a2.661,2.661,0,0,1,1.134-1.108.171.171,0,0,1-.006.141,3.279,3.279,0,0,1-.932.968" transform="translate(-525.848 -552.872)" fill="#4b4b46"/>
            <path id="Path_38454" data-name="Path 38454" d="M543.753,574.835l0,.107a1.312,1.312,0,0,1-.8.9l-.1,0a2.8,2.8,0,0,1,.9-1.006" transform="translate(-488.232 -516.997)" fill="#444440"/>
            <path id="Path_38455" data-name="Path 38455" d="M595.712,604.242c-.007-.049-.013-.1-.02-.148.007-.444-.031-.906.435-1.181a.672.672,0,0,1-.016.411,2.738,2.738,0,0,1-.4.918" transform="translate(-535.756 -542.25)" fill="#4a4a46"/>
            <path id="Path_38456" data-name="Path 38456" d="M598.612,594.008q-.013-.225-.027-.45a.516.516,0,0,1,0-.639q.015-.182.031-.363a2.674,2.674,0,0,1,0,1.453" transform="translate(-538.256 -532.934)" fill="#3f3f3b"/>
            <path id="Path_38457" data-name="Path 38457" d="M169.047,576.231l-.622,0a3.633,3.633,0,0,1-2.045-1.093,3.242,3.242,0,0,1-.494-3,3.67,3.67,0,0,1,1.7-1.7,3.1,3.1,0,0,1,2.473.182c.259.147.495.335.741.5l.689,1.016a2.97,2.97,0,0,1-.4,2.907l-.9.8-1.147.386" transform="translate(-149.044 -512.888)" fill="#fff"/>
            <path id="Path_38458" data-name="Path 38458" d="M546.24,572.667q0,.319,0,.639l-.391,1.22a5.757,5.757,0,0,1-1.109,1.116l-.172.017a2.935,2.935,0,0,1-2.652,0,2.634,2.634,0,0,1-.792-.513,3.124,3.124,0,0,1-.488-3.617l.8-.9a3.919,3.919,0,0,1,2.166-.585,3.119,3.119,0,0,1,2.638,2.625" transform="translate(-485.914 -512.682)" fill="#fff"/>
            <path id="Path_38459" data-name="Path 38459" d="M556.613,625.9a3.941,3.941,0,0,0,2.652,0,2.719,2.719,0,0,1-1.8.372c-.261-.179-.634-.1-.854-.372" transform="translate(-500.609 -562.926)" fill="#cbcbbe"/>
          </g>
        </g>
      </g>
    </g>
  </g>
</svg>
