<svg id="Group_53932" data-name="Group 53932" xmlns="http://www.w3.org/2000/svg" xmlns:xlink="http://www.w3.org/1999/xlink" width="182.897" height="144.062" viewBox="0 0 182.897 144.062">
  <defs>
    <radialGradient id="radial-gradient" cx="0.5" cy="0.5" r="0.5" gradientTransform="matrix(-1, 0, 0, 1, 1, 0)" gradientUnits="objectBoundingBox">
      <stop offset="0"/>
      <stop offset="1" stop-color="#19304c" stop-opacity="0"/>
    </radialGradient>
    <clipPath id="clip-path">
      <rect id="Rectangle_51388" data-name="Rectangle 51388" width="134.733" height="139.461" fill="none"/>
    </clipPath>
  </defs>
  <ellipse id="Ellipse_21" data-name="Ellipse 21" cx="91.448" cy="4.6" rx="91.448" ry="4.6" transform="translate(0 134.863)" fill="url(#radial-gradient)"/>
  <g id="Group_52952" data-name="Group 52952" transform="translate(25.252 0)" style="isolation: isolate">
    <g id="Group_52944" data-name="Group 52944" style="mix-blend-mode: luminosity;isolation: isolate">
      <g id="Group_52944-2" data-name="Group 52944" clip-path="url(#clip-path)">
        <path id="Path_38260" data-name="Path 38260" d="M99.708,6.443Q95.08,7.787,90.453,9.134c-1.425.418-2.842.861-4.263,1.293a8.058,8.058,0,0,1-1.862.556l-2.875.8a14.992,14.992,0,0,0-1.847.552c-4.815,1.06-8.945,3.765-13.291,5.949a2.142,2.142,0,0,0-1.083,1.452c-.3,1.18-.55,2.375-.821,3.564a17.51,17.51,0,0,1-.574,2.214,4.4,4.4,0,0,0-.3,1.073c-.123.578-.206,1.17-.379,1.733a2.57,2.57,0,0,0,.7,2.738c.945.971,1.869,1.965,2.831,2.917a.928.928,0,0,1,.237,1.294,19.712,19.712,0,0,0-.859,2.064c-.135.44-.2.9-.355,1.335-.528,1.825-.528,1.825-2.426,1.825q-8.545,0-17.089,0c-4.377,0-7.074,2.778-7.076,7.289,0,9.211-.013,18.421.018,27.632,0,.863-.2,1.166-1.049,1.086a17.848,17.848,0,0,0-2.557-.007c-.578.029-.8-.125-.779-.779.046-1.86.02-3.722.015-5.583,0-1.49-.39-2.123-1.767-2.591-.493-.168-.408-.464-.4-.782A13.835,13.835,0,0,0,31.789,61,10.822,10.822,0,0,0,26.4,55.118c-.405-.26-.9-.3-1.306-.553a9.028,9.028,0,0,0-3.041-.573c-1.554-.012-3.109-.03-4.662,0A2.151,2.151,0,0,0,15.23,56.2q-.05,3.407,0,6.816a2.161,2.161,0,0,0,2.178,2.2c1.188.032,2.378.043,3.565,0,.6-.024.85.156.768.788a2.931,2.931,0,0,0,0,.756c.08.6-.175.742-.723.732-1.858-.032-3.718-.023-5.577-.009a2.232,2.232,0,0,0-2.395,2.464c-.015,1.925-.021,3.85.006,5.775.008.541-.095.757-.683.8-7.1.5-12.292,6.205-12.358,13.563-.019,2.146-.014,4.292,0,6.438A6.629,6.629,0,0,0,6.7,103.463q10.285.029,20.57-.015c.8,0,1.079.183,1,1.031a13.944,13.944,0,0,0,0,2.458c.065.8-.129,1.069-.975,1.055-3.412-.057-6.827-.074-10.239-.006a15.236,15.236,0,0,0-14.3,11.537c-.261,1.066-.325,2.167-.528,3.243A15.6,15.6,0,0,0,15.071,139.25a17.55,17.55,0,0,0,2.82.208q36.439,0,72.878,0a15.226,15.226,0,0,0,14.962-11.029,14.957,14.957,0,0,0,.4-7.746,10.565,10.565,0,0,1-.523-1.947A15.209,15.209,0,0,0,90.5,107.96c-3.109.025-6.219-.012-9.327.023-.654.008-.838-.2-.8-.852.051-.976.046-1.958,0-2.934-.027-.591.169-.746.724-.741,2.652.027,5.3.033,7.956,0a6.606,6.606,0,0,0,6.512-7.1,6.325,6.325,0,0,0-3.446-5.526,1.493,1.493,0,0,1-.883-1.589c.025-7.891,0-15.782.019-23.673a25.026,25.026,0,0,0-4.917-15.311c-.475-.643-.3-.91.19-1.339q11.381-9.942,22.741-19.91c.686-.6.735-.576.971.4q1.329,5.5,2.662,11,1.65,6.826,3.3,13.653a1.636,1.636,0,0,1,.018.282,17.352,17.352,0,0,0,.525,2.115l.569,2.436a5.445,5.445,0,0,0,.311,1.063,18.019,18.019,0,0,1,.561,2.225q1.662,6.966,3.326,13.932.968,4.032,1.967,8.055a.883.883,0,0,1-.268,1.005,1.607,1.607,0,0,0-.324.331,3.179,3.179,0,0,1-4.411,1.354,13.283,13.283,0,0,0-2.728-.751c-.509-.1-.608-.344-.614-.826A14.016,14.016,0,0,0,114.952,82a5.931,5.931,0,0,0-2.8-3.9,2.375,2.375,0,0,1-1.352-2.533,4.2,4.2,0,0,0-1.547-3.9c-1.152-1.024-2.154-2.225-3.246-3.323-1.359-1.365-2.936-1.095-3.808.65-.657,1.314-1.279,2.646-1.916,3.97a3.679,3.679,0,0,0-.356,1.64q.018,7.809.006,15.617a6.881,6.881,0,0,0,1.943,4.942c2.978,3.11,5.928,6.251,8.979,9.283,6.424,6.384,16.556,3.775,19.452-4.967.374-1.13.719-2.27,1.078-3.406a7.95,7.95,0,0,1,.55-1.712l1.095-3.4a8.509,8.509,0,0,1,.548-1.713,16.615,16.615,0,0,0,1.143-6.432q-.079-28.1.012-56.208a26.584,26.584,0,0,0-1.474-9.031c-1.33-3.815-2.516-7.684-3.736-11.54-1.671-5.279-7.265-7.6-11.87-4.9a10.938,10.938,0,0,1-1.873.563Q111.69,2.878,107.6,4.059c-.23.066-.468.1-.7.155-.534.27-1.166.208-1.685.531l-1.652.559c-.462.225-.983.219-1.457.4l-.546.193c-.586.292-1.262.263-1.85.55" transform="translate(0.001 0.001)" fill="#191f21"/>
        <path id="Path_38261" data-name="Path 38261" d="M32.872,79.382q1.152,4.861,2.305,9.721c.284,1.192.6,2.376.863,3.574.106.489.305.668.8.653,1.157-.036,2.317-.043,3.474,0,.587.023.767-.209.7-.768a5.826,5.826,0,0,1,0-.662q0-23.53.023-47.06a17.176,17.176,0,0,0-.867-5.638c-1.384-4.1-2.7-8.231-4-12.365a4.673,4.673,0,0,0-2.359-2.972,3.939,3.939,0,0,0-2.079-.3,2.473,2.473,0,0,0-.838.289A4.517,4.517,0,0,0,28.506,26.8q-2.185,6.914-4.444,13.8a3.692,3.692,0,0,0-.107,2.113q3.35,13.743,6.681,27.491.857,3.529,1.71,7.059a15.319,15.319,0,0,1,.526,2.117" transform="translate(89.331 -19.09)" fill="#d81d24"/>
        <path id="Path_38262" data-name="Path 38262" d="M273.224,304.443c4.386.016,8.771.027,13.157.057.467,0,.545-.2.544-.624-.019-6.247.107-12.5-.082-18.738a18.152,18.152,0,0,0-4.282-11.2,2.038,2.038,0,0,0-1.949-.857q-8.776.059-17.551,0c-.836-.006-1.136.369-1.309,1.089a28.3,28.3,0,0,0-.728,9.372,29.4,29.4,0,0,0,3.88,12.206,28.082,28.082,0,0,0,7.183,8.112,10.97,10.97,0,0,0,1.138.588" transform="translate(-200.018 -221.268)" fill="#818080"/>
        <path id="Path_38263" data-name="Path 38263" d="M270.226,243.541a6.253,6.253,0,0,1,6.031-4.092c5.362-.047,10.725-.014,16.088-.014h.973a13.842,13.842,0,0,0-4.968-1.947,18.03,18.03,0,0,0-2.985-.283q-10.973.024-21.947,0a2.591,2.591,0,0,0-1.406.3,2.621,2.621,0,0,0-1.047,2.286q.012,20.741-.008,41.482c0,.68.137.918.85.917q20.9-.034,41.8.006c1.064,0,.775-.643.821-1.221.054-.669.017-1.079-.869-1.076-8.9.038-17.806-.072-26.706.065a7.07,7.07,0,0,1-7.227-7.526c.141-8.49.041-16.984.043-25.476,0-.378.019-.756.029-1.135a11.716,11.716,0,0,1,.529-2.291" transform="translate(-217.521 -192.202)" fill="#d81d24"/>
        <path id="Path_38264" data-name="Path 38264" d="M522.221,443.652l.57.732a2.177,2.177,0,0,0,1.522.5q15.729-.019,31.457.008c.755,0,.963-.2.958-.991q-.052-8.049,0-16.1c0-.766-.217-.936-.921-.934q-12.94.036-25.879.015a5.143,5.143,0,0,0-2.206.485,9.13,9.13,0,0,0-5.487,6.238,4.191,4.191,0,0,0-.276,1.555c0,2.474,0,4.948-.005,7.422a1.731,1.731,0,0,0,.267,1.064" transform="translate(-517.625 -345.886)" fill="#d81d24"/>
        <path id="Path_38265" data-name="Path 38265" d="M127.606,96.736c-.482,1.391-.472,1.33.976,1.569a22.533,22.533,0,0,1,10.843,4.878c.719.593,1.1.5,1.748-.065q12.172-10.731,24.4-21.4a1.552,1.552,0,0,0,.636-1.5c-.116-1.25.555-2.362.9-3.527.547-1.828,1.156-3.636,1.824-5.716-1.337.677-2.461,1.236-3.577,1.814Q149.693,80.9,134.031,89.007a11.942,11.942,0,0,0-5.875,6.193,12.772,12.772,0,0,1-.549,1.535" transform="translate(-57.526 -57.508)" fill="#ed1c24"/>
        <path id="Path_38266" data-name="Path 38266" d="M29.9,406.726c2.929,3.032,5.847,6.075,8.789,9.094,4.364,4.477,10.826,2.76,12.651-3.312.9-2.977,1.913-5.915,2.872-8.872.33-1.016.3-.967-.73-1.07a2.762,2.762,0,0,0-2.623,1.11c-.728.886-1.584,1.659-2.373,2.493a2.508,2.508,0,0,1-2.738.752c-2.64-.739-5.306-1.382-7.959-2.071a2.247,2.247,0,0,1-1.924-2.563c-.01-1.136-.007-2.272,0-3.408a2.457,2.457,0,0,0-1.266-2.328,6.058,6.058,0,0,1-3.078-5.712c.027-1.093-.813-1.476-1.32-2.136-.2-.255-.381-.039-.5.152a2.254,2.254,0,0,0-.384,1.236q.026,7.668.029,15.336c.235.41.216.938.557,1.3" transform="translate(74.967 -314.863)" fill="#ed1c24"/>
        <path id="Path_38267" data-name="Path 38267" d="M301.565,304a51.5,51.5,0,0,1-4.611-4.107,28.481,28.481,0,0,1-6.4-11.7,29.26,29.26,0,0,1-1.054-8.559,25.749,25.749,0,0,1,.94-6.209.8.8,0,0,1,.9-.692c6.034.022,12.069.037,18.1-.017.715-.006.922.63,1.457.774a1.4,1.4,0,0,0-1.552-.962c-7.282.033-14.564.023-21.846.029-1.864,0-2.65.822-2.651,2.772q0,12.967,0,25.935c0,1.953.786,2.786,2.641,2.782q7.035-.015,14.071-.047" transform="translate(-228.358 -220.827)" fill="#606060"/>
        <path id="Path_38268" data-name="Path 38268" d="M260.563,502.438q11.015,0,22.03,0a2.359,2.359,0,0,0,1.861-.592,2.124,2.124,0,0,0,.608-2.316A2.1,2.1,0,0,0,283.171,498c-.273-.023-.548-.012-.822-.012q-21.938,0-43.876-.021c-.874,0-1.2.221-1.109,1.145a13.445,13.445,0,0,1,0,2.458c-.078.861.366.882.986.881q11.106-.02,22.213-.009" transform="translate(-193.946 -403.489)" fill="#e7e8e8"/>
        <path id="Path_38269" data-name="Path 38269" d="M341.768,549.825c6.887,0,13.774-.015,20.661.02.851,0,1.136-.251,1.074-1.121-.065-.91-.024-1.829-.012-2.744.006-.475-.178-.71-.651-.675-.182.013-.365,0-.549,0H321.153c-1.16,0-1.16,0-1.16,1.242a20.7,20.7,0,0,1-.014,2.081c-.094.926.16,1.231,1.129,1.223,6.033-.053,12.067-.027,18.1-.027h2.56" transform="translate(-287.4 -441.847)" fill="#606060"/>
        <path id="Path_38270" data-name="Path 38270" d="M153.216,39.949l-.711.207a13.527,13.527,0,0,1-1.843.554.2.2,0,0,0-.166.026,16.647,16.647,0,0,1-1.682.527L142.1,43.2a13.728,13.728,0,0,0-1.848.552q-8.714,2.568-17.427,5.141c-.272.08-.678.1-.613.535s.384.566.812.559c1.37-.023,2.742.039,4.11-.022a2.535,2.535,0,0,1,2.665,1.7c.506,1.146.536,1.136,1.595.589q11.239-5.807,22.476-11.617c.162-.084.312-.194.468-.292.166-.124.353-.214.522-.33.146-.1.478-.108.362-.392-.1-.238-.349-.12-.541-.061l.009,0a8.221,8.221,0,0,1-1.468.395" transform="translate(-42.897 -31.985)" fill="#e7e8e8"/>
        <path id="Path_38271" data-name="Path 38271" d="M293.138,103.378a1.657,1.657,0,0,0-.274,0c-2.4.414-4.016-.507-4.723-2.975-.206-.721-.593-.685-1.156-.379q-2.176,1.186-4.4,2.278a1.587,1.587,0,0,0-.89,1.2q-.589,2.618-1.25,5.219a1.026,1.026,0,0,0,.286,1.169c.615.559,1.111,1.5,1.8,1.667s1.2-.884,1.817-1.356c2.347-1.783,5.056-2.862,7.6-4.267,1.151-.636,2.346-1.186,3.5-1.811.233-.126.722-.149.6-.56-.105-.36-.53-.175-.811-.184-.7-.022-1.4-.007-2.1-.007" transform="translate(-212.705 -80.881)" fill="#d81d24"/>
        <path id="Path_38272" data-name="Path 38272" d="M602.7,636.969a3.185,3.185,0,0,1-1.807-1.332,1.38,1.38,0,0,0-1.314-.609c-1.823.03-3.647-.015-5.469.026-.611.014-.785-.184-.753-.8a25.29,25.29,0,0,0,0-2.83c-.042-.691.132-.925.841-.9,1.791.057,3.585,0,5.378.03a1.377,1.377,0,0,0,1.315-.608,3.2,3.2,0,0,1,1.8-1.338c.133-.119.14-.232-.017-.335q-4.524.009-9.05.02a4.5,4.5,0,1,0,0,9c3.016.015,6.033.017,9.049.025.152-.106.146-.221.02-.344" transform="translate(-575.983 -509.076)" fill="#e7e8e8"/>
        <path id="Path_38273" data-name="Path 38273" d="M213.741,637.312c3.106-.005,6.212,0,9.319-.021a4.447,4.447,0,0,0,4.384-3.881,4.54,4.54,0,0,0-3.3-4.992,4.877,4.877,0,0,0-1.36-.118q-4.522-.012-9.044-.018c-.168.1-.164.212,0,.322a3.329,3.329,0,0,1,1.954,1.435,1.161,1.161,0,0,0,1.079.519c1.887-.021,3.774.013,5.66-.022.569-.011.738.175.715.75-.04,1.006-.04,2.017,0,3.024.023.574-.144.762-.714.751-1.856-.035-3.713.005-5.569-.025a1.326,1.326,0,0,0-1.238.585,3.233,3.233,0,0,1-1.89,1.374c-.158.108-.161.214,0,.318" transform="translate(-131.888 -509.084)" fill="#e7e8e8"/>
        <path id="Path_38274" data-name="Path 38274" d="M575.809,383.848c1.886,0,3.772-.023,5.658.013.611.012.874-.127.834-.823-.056-1-.029-2.015-.007-3.023.009-.447-.063-.685-.585-.682q-5.931.029-11.864,0c-.5,0-.611.2-.6.668.025,1.039.038,2.08,0,3.117-.024.59.176.749.727.741,1.947-.03,3.894-.012,5.841-.012" transform="translate(-551.866 -307.366)" fill="#ed1c24"/>
        <path id="Path_38275" data-name="Path 38275" d="M582.94,308.223H582.6c-1.45,0-1.725.378-1.433,1.87.07.357.26.366.51.368.548,0,1.1,0,1.642.014a4.414,4.414,0,0,1,4.362,4.488,6.844,6.844,0,0,1-.006,1.132c-.133.907.19,1.149,1.077,1.161.934.013,1.146-.257,1.133-1.2-.054-3.879-1.359-6.226-4.24-7.4a6.229,6.229,0,0,0-2.709-.438" transform="translate(-561.618 -249.737)" fill="#e7e8e8"/>
        <path id="Path_38276" data-name="Path 38276" d="M508.681,665.825a3.57,3.57,0,0,1-1.934-1.475,1.014,1.014,0,0,0-.92-.462c-2.862.013-5.723.017-8.584,0a1.117,1.117,0,0,0-.991.515,3.465,3.465,0,0,1-1.955,1.443c-.156.109-.159.215,0,.319l14.362.008c.151-.106.145-.222.02-.345" transform="translate(-464.583 -537.933)" fill="#e7e8e8"/>
        <path id="Path_38277" data-name="Path 38277" d="M399.447,666.163l14.362.008c.151-.106.145-.222.02-.344a3.572,3.572,0,0,1-1.934-1.476,1.017,1.017,0,0,0-.92-.462q-4.292.019-8.584,0a1.119,1.119,0,0,0-.992.515,3.466,3.466,0,0,1-1.955,1.443c-.157.108-.159.214,0,.319" transform="translate(-352.352 -537.933)" fill="#e7e8e8"/>
        <path id="Path_38278" data-name="Path 38278" d="M318.977,665.825a3.571,3.571,0,0,1-1.934-1.475,1.015,1.015,0,0,0-.92-.462c-2.861.013-5.723.017-8.584,0a1.117,1.117,0,0,0-.991.515,3.468,3.468,0,0,1-1.955,1.443c-.157.109-.159.215,0,.319l14.362.008c.151-.106.145-.222.02-.345" transform="translate(-240.122 -537.933)" fill="#e7e8e8"/>
        <path id="Path_38279" data-name="Path 38279" d="M494.3,628.593a3.33,3.33,0,0,1,1.954,1.436,1.165,1.165,0,0,0,1.079.519q4.2-.026,8.4,0a1.176,1.176,0,0,0,1.071-.536,3.435,3.435,0,0,1,1.872-1.409c.132-.119.139-.232-.016-.336l-14.355,0c-.166.106-.163.213,0,.323" transform="translate(-464.588 -509.073)" fill="#e7e8e8"/>
        <path id="Path_38280" data-name="Path 38280" d="M399.451,628.593a3.331,3.331,0,0,1,1.954,1.436,1.165,1.165,0,0,0,1.079.519q4.2-.026,8.4,0a1.177,1.177,0,0,0,1.071-.536,3.433,3.433,0,0,1,1.872-1.409c.132-.119.139-.232-.017-.336l-14.355,0c-.166.106-.163.213,0,.323" transform="translate(-352.357 -509.073)" fill="#e7e8e8"/>
        <path id="Path_38281" data-name="Path 38281" d="M318.959,628.268l-14.355,0c-.167.106-.163.213,0,.323a3.33,3.33,0,0,1,1.954,1.436,1.165,1.165,0,0,0,1.079.519q4.2-.026,8.4,0a1.174,1.174,0,0,0,1.071-.535,3.431,3.431,0,0,1,1.872-1.409c.132-.119.139-.232-.017-.336" transform="translate(-240.128 -509.073)" fill="#e7e8e8"/>
        <path id="Path_38282" data-name="Path 38282" d="M526.244,426.851a17.042,17.042,0,0,1,4.7-.464q11.606.025,23.211-.011c.813,0,1.08.187,1.073,1.081-.043,5.3-.034,10.6-.006,15.9,0,.732-.174.954-.9.952q-15.581-.037-31.161-.005a4.746,4.746,0,0,1-1.843-.439c.357.7,1,.606,1.6.606q14.985,0,29.97,0a13.16,13.16,0,0,1,1.552.012c.82.1.942-.315.938-1.047-.025-4.541-.013-9.083-.013-13.625,0-.915-.025-1.83.009-2.743.022-.595-.147-.839-.767-.838-8.832.02-17.665.014-26.5.035a2.4,2.4,0,0,0-1.856.588" transform="translate(-516.148 -345.364)" fill="#3d2f0d"/>
        <path id="Path_38283" data-name="Path 38283" d="M25.654,414.868c-1.86,0-1.861,0-1.415,1.86.073.3.168.6.242.908.447,1.854.7,2.019,2.587,1.748.287-.041.45-.114.448-.442q-.008-1.79,0-3.581c0-.368-.166-.5-.5-.493-.455.01-.91,0-1.365,0" transform="translate(102.818 -336.158)" fill="#d81d24"/>
        <path id="Path_38284" data-name="Path 38284" d="M645.989,695.971c.17-.773-.243-.982-1.008-1a7.958,7.958,0,0,1-2.935-.912c-.464-.2-1.913.836-1.838,1.329a.7.7,0,0,0,.329.413,10.41,10.41,0,0,0,4.272,1.448c1.186.114,1.189.085,1.18-1.278" transform="translate(-628.59 -562.361)" fill="#818080"/>
        <path id="Path_38285" data-name="Path 38285" d="M645.85,594.095c.2-.917-.137-1.194-.949-1.107a11.4,11.4,0,0,0-4.388,1.408c-.505.283-.459.544-.107,1.015a1.479,1.479,0,0,0,2.288.482,3.949,3.949,0,0,1,2.078-.589c.891-.023,1.373-.26,1.077-1.209" transform="translate(-628.488 -480.474)" fill="#818080"/>
        <path id="Path_38286" data-name="Path 38286" d="M205.672,594.221c-.132.667.091,1.01.942,1.034a6.132,6.132,0,0,1,2.855.88c.513.293,1.983-.713,1.974-1.312,0-.289-.252-.331-.424-.43a10.716,10.716,0,0,0-4.117-1.426c-1.189-.14-1.231-.092-1.229,1.254" transform="translate(-114.385 -480.426)" fill="#818080"/>
        <path id="Path_38287" data-name="Path 38287" d="M209.207,693.578a6,6,0,0,1-2.785.769c-.551.027-.783.215-.72.784a2.211,2.211,0,0,1,0,.565c-.127.848.286,1.018,1,.936a10.539,10.539,0,0,0,3.485-.989c.273-.134.555-.246.833-.368.624-.318.539-.669.108-1.133-.989-1.06-.981-1.076-1.919-.564" transform="translate(-114.419 -561.726)" fill="#818080"/>
        <path id="Path_38288" data-name="Path 38288" d="M547.718,701.38h.908c1.249,0,1.21,0,1.253-1.248.026-.764-.192-1.084-.968-1.034-.9.057-1.816.025-2.724.01-.5-.008-.681.206-.7.728-.068,1.545-.088,1.544,1.418,1.544h.818" transform="translate(-515.084 -566.461)" fill="#818080"/>
        <path id="Path_38289" data-name="Path 38289" d="M452.4,701.455h.818c1.383,0,1.637-.349,1.362-1.78-.079-.412-.318-.487-.646-.487-1.029,0-2.059.006-3.088,0-.466,0-.615.225-.644.69-.1,1.58-.113,1.579,1.382,1.579h.818" transform="translate(-402.427 -566.536)" fill="#818080"/>
        <path id="Path_38290" data-name="Path 38290" d="M358.023,701.382h.908c1.237,0,1.2,0,1.24-1.261.027-.782-.224-1.068-.981-1.021-.875.055-1.756.028-2.633.008-.514-.011-.763.147-.783.743-.052,1.531-.077,1.53,1.432,1.53h.817" transform="translate(-290.621 -566.463)" fill="#818080"/>
        <path id="Path_38291" data-name="Path 38291" d="M452.693,593.028h-.908c-1.24,0-1.2,0-1.243,1.258-.027.778.217,1.071.978,1.023.875-.056,1.756-.027,2.633-.008.511.011.766-.141.786-.74.053-1.534.079-1.533-1.429-1.533h-.817" transform="translate(-402.771 -480.518)" fill="#818080"/>
        <path id="Path_38292" data-name="Path 38292" d="M262.7,701.455h.817c1.384,0,1.637-.346,1.363-1.779-.079-.412-.317-.488-.645-.488-1.03,0-2.059.006-3.088,0-.466,0-.616.224-.645.689-.1,1.581-.114,1.58,1.381,1.58h.818" transform="translate(-177.967 -566.536)" fill="#818080"/>
        <path id="Path_38293" data-name="Path 38293" d="M358.05,593h-.817c-1.5,0-1.481,0-1.382,1.578.029.465.179.695.644.69q1.544-.014,3.088,0c.458,0,.67-.2.648-.679a8.229,8.229,0,0,1,0-.94c.035-.492-.174-.676-.639-.654-.514.024-1.029.005-1.544.005" transform="translate(-290.694 -480.491)" fill="#818080"/>
        <path id="Path_38294" data-name="Path 38294" d="M262.979,593.028h-.908c-1.247,0-1.208,0-1.25,1.248-.026.766.2,1.082.969,1.033.905-.058,1.816-.025,2.724-.01.5.008.679-.208.7-.729.067-1.543.086-1.542-1.419-1.542h-.818" transform="translate(-178.292 -480.518)" fill="#818080"/>
        <path id="Path_38295" data-name="Path 38295" d="M547.546,593.028h-.908c-1.24,0-1.2,0-1.243,1.258-.027.778.216,1.071.978,1.023.875-.056,1.756-.027,2.633-.008.511.011.766-.141.786-.74.053-1.534.079-1.533-1.429-1.533h-.817" transform="translate(-515.001 -480.518)" fill="#818080"/>
        <path id="Path_38296" data-name="Path 38296" d="M595.372,699.159h-.638c-1.425,0-1.7.371-1.408,1.838.075.385.288.427.578.427,1.032,0,2.065-.011,3.1.005.426.006.611-.171.589-.612a7.177,7.177,0,0,1,0-.943c.042-.521-.149-.753-.673-.721s-1.032.007-1.548.007" transform="translate(-571.554 -566.507)" fill="#818080"/>
        <path id="Path_38297" data-name="Path 38297" d="M500.49,701.35h.911c1.182,0,1.132,0,1.2-1.223.043-.822-.184-1.133-1.007-1.061a19.855,19.855,0,0,1-2.548.007c-.557-.023-.783.189-.728.763a5.2,5.2,0,0,1,0,.848c-.032.477.146.695.627.67.515-.027,1.032-.005,1.548-.005" transform="translate(-459.165 -566.432)" fill="#818080"/>
        <path id="Path_38298" data-name="Path 38298" d="M405.138,701.426h.729c1.392,0,1.694-.421,1.392-1.853-.082-.39-.312-.41-.594-.411-1,0-2,.02-3.006-.01-.531-.016-.706.216-.667.729a7.34,7.34,0,0,1,0,.942c-.023.448.173.62.6.605.516-.018,1.032,0,1.548,0" transform="translate(-346.466 -566.508)" fill="#818080"/>
        <path id="Path_38299" data-name="Path 38299" d="M310.384,701.449h.638c1.442,0,1.7-.343,1.42-1.826-.071-.38-.273-.44-.571-.439-1.032,0-2.064.009-3.1,0-.416-.005-.625.148-.6.6a8.5,8.5,0,0,1,0,1.037c-.035.514.218.652.662.634.515-.021,1.032-.005,1.548-.005" transform="translate(-234.269 -566.531)" fill="#818080"/>
        <path id="Path_38300" data-name="Path 38300" d="M500.46,595.067a7.753,7.753,0,0,1,1,.008c.815.11,1.1-.176,1.1-1.076-.005-.879-.251-1.163-1.086-1.093a19.7,19.7,0,0,1-2.557.008c-.83-.038-.663.563-.639,1.028s-.29,1.17.629,1.129c.517-.023,1.036,0,1.553,0" transform="translate(-459.114 -480.411)" fill="#818080"/>
        <path id="Path_38301" data-name="Path 38301" d="M595.3,595.08a6.785,6.785,0,0,1,1,.008c.893.135,1.143-.245,1.114-1.149-.024-.758-.18-1.081-.968-1.02a23.786,23.786,0,0,1-2.649.008c-.522-.018-.671.2-.685.72-.038,1.435-.059,1.434,1.361,1.434h.822" transform="translate(-571.358 -480.424)" fill="#818080"/>
        <path id="Path_38302" data-name="Path 38302" d="M310.305,595.146h.822c1.27,0,1.616-.492,1.3-1.77-.1-.4-.355-.373-.626-.374-1.005,0-2.011.023-3.015-.01-.765-.025-.646.528-.6.966s-.348,1.175.57,1.184c.518.005,1.035,0,1.553,0" transform="translate(-234.258 -480.49)" fill="#818080"/>
        <path id="Path_38303" data-name="Path 38303" d="M405.568,595.053a8.2,8.2,0,0,1,1.1.009c.791.108,1.038-.181,1.047-1.033.009-.924-.261-1.217-1.136-1.138a22.98,22.98,0,0,1-2.557.014c-.85-.018-.588.637-.587,1.073s-.265,1.1.584,1.077c.518-.013,1.036,0,1.554,0" transform="translate(-346.885 -480.397)" fill="#818080"/>
        <path id="Path_38304" data-name="Path 38304" d="M682.945,663.889c-1.266,0-1.3.012-.932,1.122.233.709.561,1.385.862,2.069.266.6.617.756,1.062.164.289-.387.944-.633.852-1.133a6.464,6.464,0,0,0-.834-2.05c-.217-.369-.74-.093-1.01-.17" transform="translate(-674.983 -537.914)" fill="#818080"/>
        <path id="Path_38305" data-name="Path 38305" d="M683.23,624.162c1.1.345,1.355-.209,1.624-.986.5-1.45.548-1.416-.534-2.4-.326-.3-.566-.348-.8.051a7.9,7.9,0,0,0-1.145,2.944c-.123.94.713.265.856.392" transform="translate(-675.482 -502.811)" fill="#818080"/>
        <path id="Path_38306" data-name="Path 38306" d="M181.512,624.362c1.283,0,1.28,0,.911-1.21a10.233,10.233,0,0,0-.934-2.148c-.264-.458-.47-.43-.829-.086a2.2,2.2,0,0,0-.212,3.231c.309.4.744.123,1.063.212" transform="translate(-80.852 -502.908)" fill="#818080"/>
        <path id="Path_38307" data-name="Path 38307" d="M181.682,664c-1.028,0-1.658.607-1.841,2.024-.108.836.758,1.124,1.2,1.637.213.245.358-.04.477-.22a8.277,8.277,0,0,0,1.185-2.944c.1-.489.061-.5-1.025-.5" transform="translate(-80.958 -538.027)" fill="#818080"/>
        <path id="Path_38308" data-name="Path 38308" d="M348.791,237.057a8.808,8.808,0,0,1,2.617-.232c6.513,0,13.025.021,19.538-.013,1.4-.007,2.784.259,4.183.225a4.17,4.17,0,0,0-1.848-.371q-11.672-.012-23.344-.017c-.421,0-.864-.031-1.145.407" transform="translate(-304.3 -191.752)" fill="#685016"/>
        <path id="Path_38309" data-name="Path 38309" d="M710.59,472.43a11.112,11.112,0,0,1-.187-3.178,49.558,49.558,0,0,1,.2-6.863,1.4,1.4,0,0,0-.374,1.209q-.006,3.925-.006,7.85c0,.369-.066.779.366.982" transform="translate(-705.995 -374.664)" fill="#43330f"/>
        <path id="Path_38310" data-name="Path 38310" d="M204.615,692.735a1.737,1.737,0,0,1,2.065.912c.241.416-.168.527-.253.786.767-.13.808-.516.34-1.064-.2-.232-.44-.426-.629-.665-.529-.668-1.028-.659-1.523.031" transform="translate(-109.827 -560.884)" fill="#181613"/>
        <path id="Path_38311" data-name="Path 38311" d="M119.444,38.7l.429.094c-.186.322-.673.273-.772.688a4.691,4.691,0,0,0,1.475-.737c-.135-.531-.488-.264-.778-.229a.345.345,0,0,0-.355.183" transform="translate(-7.665 -31.132)" fill="#ccc"/>
        <path id="Path_38312" data-name="Path 38312" d="M448.261,270.6a3.528,3.528,0,0,0-.529,2.29,7.326,7.326,0,0,0,.529-2.29" transform="translate(-395.557 -219.263)" fill="#46360f"/>
        <path id="Path_38313" data-name="Path 38313" d="M68.917,308.749a3.435,3.435,0,0,0-.526-2.117,5.364,5.364,0,0,0,.526,2.117" transform="translate(53.286 -248.458)" fill="#b68b24"/>
        <path id="Path_38314" data-name="Path 38314" d="M63.365,23.14a8.287,8.287,0,0,1,2.187.2c-.64-.681-1.444-.334-2.187-.376-.063.038-.084.076-.064.114s.042.057.063.057" transform="translate(57.585 -18.568)" fill="#4e3c11"/>
        <path id="Path_38315" data-name="Path 38315" d="M137.13,43.621a2.679,2.679,0,0,0,1.843-.553,4.194,4.194,0,0,0-1.843.553" transform="translate(-29.364 -34.897)" fill="#b8b8b8"/>
        <path id="Path_38316" data-name="Path 38316" d="M148.1,46.648c.592-.069,1.225.006,1.682-.526a3.642,3.642,0,0,0-1.682.526" transform="translate(-42.178 -37.372)" fill="#b7b7b7"/>
        <path id="Path_38317" data-name="Path 38317" d="M116.29,37.513c.255.091.591-.112.778.229.327,0,.507-.163.515-.546a2.245,2.245,0,0,0-1.293.317" transform="translate(-4.156 -30.125)" fill="#ababab"/>
        <path id="Path_38318" data-name="Path 38318" d="M193.945,59.647a5.326,5.326,0,0,0,1.848-.552,2.5,2.5,0,0,0-1.848.552" transform="translate(-96.594 -47.882)" fill="#545454"/>
        <path id="Path_38319" data-name="Path 38319" d="M349.882,200.21a2.184,2.184,0,0,0,.549-1.535,2.636,2.636,0,0,0-.549,1.535" transform="translate(-279.802 -160.982)" fill="#c8a95a"/>
        <path id="Path_38320" data-name="Path 38320" d="M125.237,40.244a1.65,1.65,0,0,0,1.468-.395,2.654,2.654,0,0,0-1.468.395" transform="translate(-14.917 -32.28)" fill="#ccc"/>
        <path id="Path_38321" data-name="Path 38321" d="M163.579,478.653a2.944,2.944,0,0,0-.557-1.3,1.381,1.381,0,0,0,.557,1.3" transform="translate(-58.714 -386.79)" fill="#595349"/>
        <path id="Path_38322" data-name="Path 38322" d="M301.628,673.962c-.007.115-.014.23-.02.344.248.018.631.188.639-.2,0-.247-.385-.171-.619-.141" transform="translate(-222.773 -546.069)" fill="#2c2c2a"/>
        <path id="Path_38323" data-name="Path 38323" d="M384.109,674.335l0-.319c-.235-.048-.629-.106-.626.116.005.4.385.216.629.2" transform="translate(-319.636 -546.106)" fill="#343331"/>
        <path id="Path_38324" data-name="Path 38324" d="M478.948,628.386l0-.323c-.244,0-.633-.2-.636.206,0,.23.4.154.632.117" transform="translate(-431.854 -508.866)" fill="#272625"/>
        <path id="Path_38325" data-name="Path 38325" d="M478.962,674.335l0-.319c-.234-.048-.629-.106-.626.116.005.4.385.216.629.2" transform="translate(-431.867 -546.106)" fill="#343331"/>
        <path id="Path_38326" data-name="Path 38326" d="M491.332,673.962l-.02.345c.248.018.631.188.639-.2,0-.248-.386-.171-.619-.141" transform="translate(-447.234 -546.069)" fill="#2c2c2a"/>
        <path id="Path_38327" data-name="Path 38327" d="M573.814,674.335c0-.107,0-.213,0-.319-.234-.048-.629-.106-.626.116.005.4.386.216.63.2" transform="translate(-544.098 -546.106)" fill="#343331"/>
        <path id="Path_38328" data-name="Path 38328" d="M586.185,673.962q-.01.172-.02.344c.248.018.632.188.639-.2,0-.248-.386-.172-.619-.141" transform="translate(-559.466 -546.068)" fill="#2d2c2a"/>
        <path id="Path_38329" data-name="Path 38329" d="M289.252,674.334l0-.318c-.235-.049-.63-.106-.627.115.005.4.386.216.63.2" transform="translate(-207.399 -546.106)" fill="#343331"/>
        <path id="Path_38330" data-name="Path 38330" d="M301.647,628.037c.006.112.011.224.017.336.233.037.623.1.619-.135-.008-.389-.388-.222-.635-.2" transform="translate(-222.816 -508.842)" fill="#333230"/>
        <path id="Path_38331" data-name="Path 38331" d="M289.239,628.385l0-.322c-.244,0-.633-.2-.637.206,0,.23.4.155.633.117" transform="translate(-207.387 -508.866)" fill="#272625"/>
        <path id="Path_38332" data-name="Path 38332" d="M396.5,628.037q.008.168.017.336c.234.037.624.1.618-.135-.008-.389-.387-.222-.635-.2" transform="translate(-335.046 -508.842)" fill="#333230"/>
        <path id="Path_38333" data-name="Path 38333" d="M384.1,628.386l0-.323c-.244,0-.633-.2-.636.206,0,.23.4.154.632.117" transform="translate(-319.624 -508.866)" fill="#272625"/>
        <path id="Path_38334" data-name="Path 38334" d="M586.2,628.038c.006.112.011.223.017.334.234.038.624.105.62-.135-.008-.389-.388-.223-.636-.2" transform="translate(-559.509 -508.842)" fill="#333230"/>
        <path id="Path_38335" data-name="Path 38335" d="M573.8,628.386l0-.323c-.244,0-.633-.2-.636.206,0,.23.4.154.632.117" transform="translate(-544.085 -508.866)" fill="#272625"/>
        <path id="Path_38336" data-name="Path 38336" d="M491.351,628.037c.006.112.011.224.017.336.233.037.623.1.618-.135-.008-.389-.388-.222-.635-.2" transform="translate(-447.277 -508.842)" fill="#333230"/>
        <path id="Path_38337" data-name="Path 38337" d="M396.479,673.962q-.01.172-.02.344c.248.018.631.188.639-.2,0-.247-.386-.171-.619-.141" transform="translate(-335.003 -546.069)" fill="#2c2c2a"/>
        <path id="Path_38338" data-name="Path 38338" d="M75.958,23.363c0-.057,0-.115,0-.172a.8.8,0,0,0-.73.364.979.979,0,0,0,.729-.192" transform="translate(44.991 -18.791)" fill="#4c3a10"/>
        <path id="Path_38339" data-name="Path 38339" d="M47.639,50.767a3.26,3.26,0,1,0,3.2-3.379,3.281,3.281,0,0,0-3.2,3.379" transform="translate(71.85 -38.398)" fill="#191f21"/>
        <path id="Path_38342" data-name="Path 38342" d="M538.057,455c0-1.293-.018-2.587.009-3.879.01-.5-.153-.664-.63-.651q-1.553.043-3.107,0c-.482-.014-.63.163-.627.653q.027,3.88,0,7.759c0,.452.15.615.582.607,1.036-.019,2.072-.028,3.107,0,.521.016.687-.174.674-.708-.031-1.261-.01-2.523-.01-3.785" transform="translate(-501.117 -365.007)" fill="#010100"/>
        <path id="Path_38343" data-name="Path 38343" d="M296.661,181.19a3.254,3.254,0,1,0,3.224-3.347,3.283,3.283,0,0,0-3.224,3.347" transform="translate(-222.786 -144.102)" fill="#191f21"/>
        <path id="Path_38344" data-name="Path 38344" d="M59.565,60.474A1.181,1.181,0,0,0,60.626,61.6a1.137,1.137,0,0,0,1.1-1.146,1.071,1.071,0,0,0-1.085-1.061c-.628.005-.955.467-1.077,1.086" transform="translate(62.088 -48.121)" fill="#e7e8e8"/>
        <path id="Path_38345" data-name="Path 38345" d="M308.6,190.874c.1.628.424,1.084,1.05,1.1a1.054,1.054,0,0,0,1.09-1.042,1.129,1.129,0,0,0-1.077-1.161c-.637.05-.946.483-1.063,1.1" transform="translate(-232.555 -153.766)" fill="#e7e8e8"/>
      </g>
    </g>
  </g>
</svg>
