<svg xmlns="http://www.w3.org/2000/svg" xmlns:xlink="http://www.w3.org/1999/xlink" width="229.034" height="156.847" viewBox="0 0 229.034 156.847">
  <defs>
    <radialGradient id="radial-gradient" cx="0.5" cy="0.5" r="0.5" gradientUnits="objectBoundingBox">
      <stop offset="0"/>
      <stop offset="1" stop-color="#19304c" stop-opacity="0"/>
    </radialGradient>
    <clipPath id="clip-path">
      <rect id="Rectangle_51393" data-name="Rectangle 51393" width="151.716" height="151.718" fill="none"/>
    </clipPath>
  </defs>
  <g id="Group_53931" data-name="Group 53931" transform="translate(25)">
    <ellipse id="Ellipse_27" data-name="Ellipse 27" cx="114.517" cy="5.128" rx="114.517" ry="5.128" transform="translate(-25 146.591)" fill="url(#radial-gradient)"/>
    <g id="Group_52949" data-name="Group 52949" transform="translate(41.955 0)" style="isolation: isolate">
      <g id="Group_52950" data-name="Group 52950" transform="translate(0)">
        <g id="Group_52949-2" data-name="Group 52949" clip-path="url(#clip-path)">
          <path id="Path_38669" data-name="Path 38669" d="M27.294,111.963a22.722,22.722,0,0,1,3.722-1.111,19.785,19.785,0,0,0,9.863-29.944c-.662-.979-.832-1.6.207-2.378a15.8,15.8,0,0,0,1.994-1.958,4.35,4.35,0,0,0-.485-6.785,2.693,2.693,0,0,1-1.177-2.44q.058-21.964,0-43.928c0-1.356.225-1.773,1.7-1.767,16.754.063,33.51.03,50.264.06a3.3,3.3,0,0,0,3.246-1.5,11.279,11.279,0,0,1-6.671,1.033h-46.3c-2.4.018-2.635.225-2.638,2.59V66.9a4.117,4.117,0,0,0,1.452,3.36,3.982,3.982,0,0,1,.177,6.106c-.6.653-1.216,1.288-1.869,1.883a1.907,1.907,0,0,0-.416,2.668,1.476,1.476,0,0,0,.15.183,19.492,19.492,0,0,1-3.249,25.641,19.4,19.4,0,0,1-8.477,4.309c-.557.144-1.338.06-1.5.9" transform="translate(53.734 40.315)" fill="#fefefe"/>
          <path id="Path_38670" data-name="Path 38670" d="M4.012,37.754A7.576,7.576,0,0,1,0,33.158V30.205a8.2,8.2,0,0,1,3.593-4.4,7.286,7.286,0,0,1,3.27-.746c12.241,0,24.491-.225,36.723.129A32.591,32.591,0,0,1,74.129,48.522c.683,2.126,1.075,4.342,1.62,6.588.4-.542.222-1.084.222-1.581q.022-11.5,0-23.012c0-3.893,1.575-5.477,5.441-5.486,2.9,0,5.8-.054,8.7.027,1.075.03,1.392-.21,1.38-1.344-.069-5.8.066-11.606-.075-17.406A5.59,5.59,0,0,1,94.712.4H101.5a5.66,5.66,0,0,1,3.294,5.911c-.087,16.323-.027,32.639-.075,48.974,0,1.231.3,1.5,1.5,1.5,13.864-.051,27.731-.021,41.6-.051a3.3,3.3,0,0,1,3.246,1.5v1.476a3.3,3.3,0,0,1-3.246,1.5c-16.754-.03-33.51,0-50.264-.06-1.476,0-1.7.41-1.7,1.767q.081,21.964,0,43.928a2.693,2.693,0,0,0,1.177,2.44,4.355,4.355,0,0,1,.473,6.806,15.624,15.624,0,0,1-1.994,1.961c-1.039.773-.868,1.4-.207,2.378a19.783,19.783,0,0,1-9.863,29.944,22.727,22.727,0,0,0-3.722,1.111H77.584a2.406,2.406,0,0,0-1.368-.135h-.087a.272.272,0,0,0-.057-.123,19.518,19.518,0,0,1-16.143-13.846c-.437-1.282-.919-1.587-2.18-1.569-5.09.078-10.211.054-15.313,0-.937,0-1.318.177-1.5,1.219A17.736,17.736,0,0,1,26.006,151.23a.48.48,0,0,1,0,.093h-.162a2.373,2.373,0,0,0-1.374.135H22.718c-.437-.281-.919-.114-1.377-.138a.959.959,0,0,1-.132,0h-.027a.45.45,0,0,1,0-.09,17.231,17.231,0,0,1-13.5-9.926,13.28,13.28,0,0,1-1.5-4.737c-.048-.539-.278-.8-.844-.746A5.074,5.074,0,0,1,0,132.593V106.922a12.729,12.729,0,0,1,4.1-7.085c.428-.335.323-.788.323-1.216V38.88c0-.407.177-.9-.407-1.126M71.664,102.49Q68.5,86.837,65.343,71.184C64.235,65.7,63.157,60.212,62.01,54.739A19.85,19.85,0,0,0,42.325,38.35c-7.863-.135-15.732,0-23.6-.051-.859,0-1.048.258-1.042,1.072q.049,9.284,0,18.583c0,.868.275,1.051,1.081,1.036a21.409,21.409,0,0,1,6.01.338,11.079,11.079,0,0,1,8.492,11.295c.039,3.345.054,6.689-.021,10.028-.021,1.069.243,1.542,1.356,1.7a34.752,34.752,0,0,1,13.355,5.105,11,11,0,0,1,4.231,14.6c-.94,1.877-1.776,2.186-3.788,1.4l-2.869,2.89a21.953,21.953,0,0,1,2.994,8.684c.057.686.392.883,1.06.862,1.422-.048,2.851-.06,4.273,0a1.653,1.653,0,0,0,1.566-.806,27.822,27.822,0,0,1,15.481-11.079c.973-.281.9-.782.761-1.5" transform="translate(-0.701 0.802)" fill="#191f21"/>
          <path id="Path_38671" data-name="Path 38671" d="M15.207,37.71l2.869-2.89a5.74,5.74,0,0,0-2.869,2.89" transform="translate(29.628 69.445)" fill="#fefefe"/>
          <path id="Path_38672" data-name="Path 38672" d="M10.312,46.818V17.758c0-2.506.707-3.348,3.189-3.363,8.112-.048,16.227-.09,24.338,0a26.439,26.439,0,0,1,14.328,3.7A24.353,24.353,0,0,1,63.414,34.47q4.236,20.944,8.441,41.892c.407,2.015.862,4.021,1.2,6.046.141.823.521.991,1.282,1,3.494.036,3.45.069,2.743-3.426-3.105-15.4-6.243-30.8-9.25-46.225A29.065,29.065,0,0,0,43.741,10.4a24.765,24.765,0,0,0-4.105-.249q-17.7-.027-35.4,0c-.832,0-1.674-.063-2.261.755a2.137,2.137,0,0,0,1.1,3.423c2.791.976,2.791.976,2.791,3.947V76.1c0,2.024,0,2.03,1.988,1.916a10.107,10.107,0,0,1,1.162-.15c1.177.066,1.3-.578,1.294-1.56-.03-9.834-.018-19.67-.018-29.5" transform="translate(2.265 20.214)" fill="#606060"/>
          <path id="Path_38673" data-name="Path 38673" d="M53.246,57.149a20.034,20.034,0,0,1,11.741-11.7,19.022,19.022,0,0,1,17.966,2.141c1.2.808,1.812.686,2.734-.3,1.94-2.1,1.994-2.048-.4-3.593a24.185,24.185,0,0,0-33.5,6.929l-.072.111a4.046,4.046,0,0,1-3.98,2.1c-2.5-.132-5.013-.018-7.519-.039-2.186-.018-2.857-.716-2.908-2.937a15.6,15.6,0,0,0-15.6-15.6h-.042c-5.689-.024-11.4,0-17.1,0A2.628,2.628,0,0,0,4,34.389a2.674,2.674,0,0,0-.5,1.946c0,5.105-.024,10.214,0,15.319,0,.719-.234,1.62.785,1.973a17.435,17.435,0,0,1,17.936-4.111,17.772,17.772,0,0,1,9.555,7.633,3.244,3.244,0,0,0,1.83.455H51.578a2.443,2.443,0,0,0,1.671-.443" transform="translate(6.244 68.307)" fill="#ed1c24"/>
          <path id="Path_38674" data-name="Path 38674" d="M33.425,10.184c-1.668,0-3.345.069-5.007-.042-1.288-.084-1.533.44-1.527,1.608.042,8.935.024,17.874.024,26.809,0,5.794.129,11.591-.042,17.368a60.479,60.479,0,0,0,1.874,12.891c.9,4.758,1.934,9.483,2.845,14.235a1.52,1.52,0,0,0,1.264,1.365A20.51,20.51,0,0,1,37,85.894c.791.407.9.066.883-.638-.036-2.1-.03-4.222-.042-6.333a4.126,4.126,0,0,0-2.473-1.2,1.725,1.725,0,0,1-1.44-1.916c.024-.6,0-1.18,0-1.77V12.849a3.763,3.763,0,0,0-.485-2.695" transform="translate(52.894 20.21)" fill="#606060"/>
          <path id="Path_38675" data-name="Path 38675" d="M5.914,22.749V53.286c0,1.946,0,1.943,2.015,1.946a100.813,100.813,0,0,1,11.334.275,19.463,19.463,0,0,1,13.55,7.738c.3.383.62.743.931,1.117l2.869-2.89c-1.2-1.5-.419-2.857.24-4.234a25.522,25.522,0,0,0-15.825-8.594,27.265,27.265,0,0,0-3.659-.38A3.9,3.9,0,0,1,13.13,43.9c-.021-6.63,0-13.259,0-19.889a2.993,2.993,0,0,0-.4-2.12,20.349,20.349,0,0,0-6.144-.335c-.85-.024-.65.713-.653,1.2" transform="translate(11.094 42.79)" fill="#606060"/>
          <path id="Path_38676" data-name="Path 38676" d="M29.077,10.213q0,32.721-.024,65.443c0,1.629.449,2.434,2.027,2.695a24.25,24.25,0,0,1,2.4.623q.013-14.454.03-28.908,0-19.175.027-38.349c0-1.2-.252-1.719-1.527-1.575-.97.111-1.961.057-2.943.075" transform="translate(57.242 20.18)" fill="#818080"/>
          <path id="Path_38677" data-name="Path 38677" d="M32.713,39.233a15.6,15.6,0,0,0-11.5,16.092A15.828,15.828,0,0,0,35.473,69.584a15.6,15.6,0,0,0,16.092-11.5c-1.356-1.2-2.9-.6-4.4-.467-.545.165-.68.665-.9,1.1a10.642,10.642,0,0,1-19.463-8.543c.919-2.273,1.446-2.587,3.857-2.464a1.482,1.482,0,0,0,.805-.5A9.683,9.683,0,0,0,33.4,40.922a1.865,1.865,0,0,0-.674-1.686" transform="translate(41.539 78.247)" fill="#606060"/>
          <path id="Path_38678" data-name="Path 38678" d="M36.478,27.713c0-8.115-.021-16.227.024-24.342,0-1.132-.261-1.53-1.464-1.5-2.994.063-2.994,0-2.994,2.911,0,15.736.021,31.471-.033,47.207,0,1.458.3,1.967,1.845,1.883,2.608-.138,2.614-.036,2.614-2.695V27.713" transform="translate(63.139 3.734)" fill="#606060"/>
          <path id="Path_38679" data-name="Path 38679" d="M14.323,40.614a13.277,13.277,0,0,0-10.7,10.879A13.444,13.444,0,0,0,13.23,66.372,13.26,13.26,0,0,0,29.414,56.9c.084-.323.156-.647.216-.976a4.248,4.248,0,0,0-4.252-.255c-.6.281-.758.865-1.015,1.389A8.447,8.447,0,0,1,8.289,54.709,5.915,5.915,0,0,1,8.37,52.37c.386-1.674.832-2.054,2.605-2.192a6.152,6.152,0,0,0,2.264-2.189,10.513,10.513,0,0,0,1.695-4.62,3.17,3.17,0,0,0-.6-2.752" transform="translate(6.234 81.001)" fill="#606060"/>
          <path id="Path_38680" data-name="Path 38680" d="M8.2,21.6c0,7.57-.036,15.14-.021,22.71a4.14,4.14,0,0,0,4.174,4.1,27.786,27.786,0,0,1,16.87,5.947c1.075.829,1.713,2.174,3.111,2.605a6.7,6.7,0,0,0-3.252-8.148,33.693,33.693,0,0,0-14.074-4.791c-1.931-.237-2.44-.883-2.446-2.8V28.4A6.776,6.776,0,0,0,8.21,21.6" transform="translate(15.607 43.077)" fill="#818080"/>
          <path id="Path_38681" data-name="Path 38681" d="M8.3,53.533c-.47-.434-.3-1-.3-1.521Q7.988,43.15,8,34.294a6.357,6.357,0,0,0-6.48,6.228v.168c-.1,7.408-.033,14.816-.03,22.224,0,.41-.144.949.6.9.509-.033,1.051.162,1.2-.683a18.589,18.589,0,0,1,5.028-9.6" transform="translate(2.228 68.393)" fill="#d81d24"/>
          <path id="Path_38682" data-name="Path 38682" d="M26.028,39.663a9.791,9.791,0,0,1-1.5,7.881c1.335.036,2.282-.871,3.39-1.389C28.9,43.882,29.529,43.669,32,44.1a10.666,10.666,0,0,1,8.423,12.514c-.024.12-.051.243-.078.362a1.2,1.2,0,0,0,.117,1.252c1.467.27,2.994-.3,4.432.3a14.145,14.145,0,0,0-2.291-12.846,15.1,15.1,0,0,0-15.87-6.288,3.7,3.7,0,0,0-.683.263" transform="translate(48.223 77.817)" fill="#606060"/>
          <path id="Path_38683" data-name="Path 38683" d="M34.392,41.9H12.934a18.763,18.763,0,0,1,2.228,5.851c.12.788.452.925,1.144.922q8-.031,16.008,0c.536,0,.931,0,.94-.74a24.683,24.683,0,0,1,1.138-6.022" transform="translate(25.095 83.558)" fill="#d81d24"/>
          <path id="Path_38684" data-name="Path 38684" d="M8.07,40.749a9.538,9.538,0,0,1-1.458,7.405c.788.3,1.324-.156,1.862-.6.841-2.237,1.56-2.605,3.911-2.009a8.458,8.458,0,0,1,6.438,9.142c-.045.473-.266.97.162,1.392a9.8,9.8,0,0,1,4.393,0A13.107,13.107,0,0,0,8.07,40.773" transform="translate(12.486 80.866)" fill="#606060"/>
          <path id="Path_38685" data-name="Path 38685" d="M44.164,55.223a10.971,10.971,0,0,0-3.692-12.367,10.462,10.462,0,0,0-6.5-2.336c-1.6-.057-2.318.764-2.458,2.6.1,1.3.644,1.9,2.075,2.12a10.2,10.2,0,0,1,2.56.629,6.237,6.237,0,0,1,3.641,6.983A6.387,6.387,0,0,1,33.321,57.8a6.452,6.452,0,0,1-5.827-5.707,9.863,9.863,0,0,1,1.057-4.243,2.1,2.1,0,0,0-.761-2.866l-.09-.048c-2.192-.6-2.833-.3-3.869,1.731A11.013,11.013,0,0,0,41.253,59.583a12.934,12.934,0,0,0,2.911-4.354" transform="translate(44.512 80.81)"/>
          <path id="Path_38686" data-name="Path 38686" d="M24.778,43.195A3.218,3.218,0,0,1,24.871,47a6.119,6.119,0,0,0,.85,7.019,6.187,6.187,0,0,0,6.459,2.249,6.4,6.4,0,0,0,5.09-5.138,6.588,6.588,0,0,0-5.129-7.776,6.685,6.685,0,0,0-.841-.117A2.737,2.737,0,0,1,28.6,41.386a8.181,8.181,0,0,0-3.294,1.434l-.53.371" transform="translate(47.434 82.541)" fill="#e7e8e8"/>
          <path id="Path_38687" data-name="Path 38687" d="M22.306,53.184a8.949,8.949,0,0,0-6.393-10.924,8.319,8.319,0,0,0-1.048-.21c-2.141-.3-3.162.5-3.252,2.617.048,1.279.491,1.749,2.1,2.063a4.626,4.626,0,0,1,3.261,1.752,3.854,3.854,0,0,1,.015,4.662,4.1,4.1,0,0,1-4.141,1.581,4.366,4.366,0,0,1-3.114-3.71c-.066-.683.021-1.374-.069-2.051-.117-.874-.422-1.617-1.464-1.719a2.164,2.164,0,0,0-2.857,1.1,2.2,2.2,0,0,0-.177.692,8.652,8.652,0,0,0,5.884,10.181,8.836,8.836,0,0,0,10.9-5.09c.126-.317.243-.638.365-.958" transform="translate(9.165 83.747)"/>
          <path id="Path_38688" data-name="Path 38688" d="M6.031,45.461c1.306.734,1.285,1.9,1.171,3.2a4.406,4.406,0,0,0,3.68,4.758,4.466,4.466,0,0,0,4.992-3.375,4.407,4.407,0,0,0-3.3-5.285,4.36,4.36,0,0,0-.71-.1,2.435,2.435,0,0,1-2.413-1.767l-1.68.6-1.74,1.973" transform="translate(11.327 85.532)" fill="#e7e8e8"/>
        </g>
      </g>
    </g>
  </g>
</svg>
