<svg id="Group_54621" data-name="Group 54621" xmlns="http://www.w3.org/2000/svg" xmlns:xlink="http://www.w3.org/1999/xlink" width="216.539" height="153.96" viewBox="0 0 216.539 153.96">
  <defs>
    <radialGradient id="radial-gradient" cx="0.5" cy="0.5" r="0.5" gradientUnits="objectBoundingBox">
      <stop offset="0"/>
      <stop offset="1" stop-color="#19304c" stop-opacity="0"/>
    </radialGradient>
    <clipPath id="clip-path">
      <rect id="Rectangle_52192" data-name="Rectangle 52192" width="184.475" height="149.112" fill="none"/>
    </clipPath>
  </defs>
  <ellipse id="Ellipse_29" data-name="Ellipse 29" cx="108.269" cy="4.848" rx="108.269" ry="4.848" transform="translate(0 144.264)" fill="url(#radial-gradient)"/>
  <g id="Group_53894" data-name="Group 53894" transform="translate(21.878 0)">
    <g id="Group_53894-2" data-name="Group 53894" transform="translate(0 0)" clip-path="url(#clip-path)">
      <path id="Path_40897" data-name="Path 40897" d="M79.054,333.583a14.861,14.861,0,1,0-14.926-14.848,15.008,15.008,0,0,0,14.926,14.848" transform="translate(66.768 -190.838)" fill="#050605"/>
      <path id="Path_40898" data-name="Path 40898" d="M.138,124.909v6.319c.1.651.2,1.231.3,1.759A21.215,21.215,0,0,0,19.625,148.7h2.611a21.181,21.181,0,0,0,16.734-10.02A21.181,21.181,0,0,0,55.7,148.7h2.983a21.142,21.142,0,0,0,14.439-6.963c.762-1.35,1.618-2.481,2.418-3.634a1.5,1.5,0,0,1,.48-.458,3.967,3.967,0,0,1,2.087-.268q13.747-.022,27.491-.007,9.2,0,18.393,0a5.8,5.8,0,0,1,4.039,1.949,5.6,5.6,0,0,1,.911,1.309v0a21.177,21.177,0,0,0,12.8,8.071h.372a21.177,21.177,0,0,1-12.8-8.071v0c-.32-.424-.625-.859-.911-1.309a21.026,21.026,0,0,1-3.158-8.707c-.019-.153-.037-.305-.052-.458a21.246,21.246,0,0,1-.119-2.243c0-.2,0-.391.007-.584a21.077,21.077,0,0,1,3.061-10.4,1.487,1.487,0,0,1,.1-.164,21.2,21.2,0,0,1,38.947,7.662c.015.1.033.2.048.3a21.4,21.4,0,0,1,.238,3.188,21.055,21.055,0,0,1-.383,4.021,1.942,1.942,0,0,1,1.577-.554c2.351.026,4.7.037,7.049-.007a9.457,9.457,0,0,0,7.5-3.805c.915-1.138.975-2.481,1.313-3.772V102.231c-.16-2.793-1.8-4.661-4-6.063a3.032,3.032,0,0,1-1.462-2.942c.041-5.5.067-11.014.007-16.518a58.338,58.338,0,0,0-14.588-38.56c-9.734-11.292-22.079-17.9-36.753-20.227a31.654,31.654,0,0,0-6.271-.569c-1.339.056-1.912-.454-1.878-1.834q.084-3.431,0-6.866A9.325,9.325,0,0,0,115.5,1.112C114.443.324,113.2.331,112.04,0h-4.832c0,.744,0,1.488,0,2.228,0,1.116-.357,2.429.112,3.3.558,1.041,2,.253,3.05.435a3.144,3.144,0,0,1,2.775,3.377c.041,2.414-.052,4.835.037,7.246.045,1.127-.391,1.291-1.376,1.283-4.954-.045-9.913.019-14.867-.052-1.231-.015-1.774.19-1.663,1.57.115,1.4.495,3.318-.227,4.1-.855.937-2.79.257-4.255.294q-3.069.078-6.133,0c-.911-.026-1.28.153-1.272,1.194q.073,10.684,0,21.369c-.007,1.149.428,1.283,1.395,1.265,3.095-.052,6.193.011,9.291-.037.922-.015,1.246.179,1.272,1.2.108,4.765.149,4.765-4.568,4.765-1.982,0-3.965.067-5.944-.026-1.12-.052-1.469.219-1.451,1.406.078,4.832.033,9.663.033,14.5,0,12.018-.022,24.036.03,36.053,0,1.265-.253,1.651-1.592,1.64-6.323-.056-12.646-.052-18.97-.041h-.372q-2.873.006-5.747.007a20.236,20.236,0,0,0-16.983,8.659c-.015.022-.033.041-.048.063a2.862,2.862,0,0,1-.684.736.416.416,0,0,1-.2.067c-.275.03-.558-.234-1.008-.829-5.349-7.075-12.52-10.046-21.186-8.22C8.34,109.3,3.05,114.64.7,122.867c-.193.677.115,1.506-.565,2.042" transform="translate(-0.113)" fill="#191f21"/>
      <path id="Path_40899" data-name="Path 40899" d="M37.988,191.473a30.823,30.823,0,0,1,12.157-5.387,31.439,31.439,0,0,1,5.895-.569c9.289.026,18.578-.024,27.867.049,1.418.011,1.756-.367,1.7-1.735-.112-2.906-.1-5.822,0-8.729.045-1.272-.4-1.5-1.558-1.495-8.794.046-17.588-.023-26.381.068-1.606.017-1.972-.449-1.863-1.947.241-3.325-.307-6.681.356-10a14.781,14.781,0,0,1,14.374-11.885c3.879-.027,7.759,0,11.772,0a34.488,34.488,0,0,0-2.081-5.3c-.279-.667-.781-.651-1.352-.651q-22.852.009-45.7-.013c-.882,0-1.165.236-1.151,1.137q.076,4.829,0,9.66c-.015.9.274,1.253,1.153,1.118a1.066,1.066,0,0,1,.186,0c1.476.036,3.51-.5,4.287.251,1.016.986.322,3.031.327,4.615.03,10.154.016,20.309.016,30.819" transform="translate(86.951 -90.36)" fill="#d81d24"/>
      <path id="Path_40900" data-name="Path 40900" d="M101.173,87.64A53.485,53.485,0,0,0,78.96,68.792a54.745,54.745,0,0,0-20.571-4.85c-1.342-.064-1.625.329-1.612,1.612.065,6.866.048,13.734.013,20.6-.006,1.072.07,1.625,1.435,1.619,14.043-.058,28.088-.036,42.131-.04.176,0,.351-.039.818-.093" transform="translate(62.184 -40.154)" fill="#d81d24"/>
      <path id="Path_40901" data-name="Path 40901" d="M49.4,271.774c-3.906.22-8.671-.317-13.426.342-9.625,1.333-18.265,10-19.6,19.634-.394,2.844-.227,5.68-.343,8.518-.038.934.176,1.334,1.205,1.269,1.541-.1,3.466.5,4.529-.221.979-.667.163-2.715.231-4.154.464-9.785,8.545-18.182,18.725-19.385a20.717,20.717,0,0,1,22.09,15.314c.534,2.116,1.326,2.731,3.376,2.519,1.9-.2,3.833-.026,5.752-.046,2.483-.026,3.571-1.134,3.589-3.657.017-2.29-.075-4.584.035-6.869.059-1.22-.386-1.462-1.472-1.386a10.844,10.844,0,0,1-4.571-.493c-3.805-1.4-5.966-4.673-5.84-9.34.046-1.71-.436-2.144-2.107-2.085-3.772.132-7.551.041-12.175.041" transform="translate(102.936 -170.658)" fill="#fff"/>
      <path id="Path_40902" data-name="Path 40902" d="M191.977,203.323a23.078,23.078,0,0,1,3.69,5.141,1.352,1.352,0,0,0,1.453.821c9.852-.021,19.7-.047,29.555.021,1.471.01,1.205-.817,1.205-1.647,0-16.543.029-33.085-.038-49.627-.007-1.757.25-2.455,2.242-2.35,3.738.2,3.746.056,3.746-3.66,0-2.292-.055-4.587.024-6.876.038-1.076-.325-1.347-1.356-1.325-2.973.064-5.952.119-8.92-.018-1.487-.069-1.678.471-1.673,1.775.047,13.073.029,26.146.029,39.219,0,5.576-.048,11.153.033,16.728.021,1.418-.3,1.853-1.8,1.839-8.674-.079-17.349-.039-26.023-.039Z" transform="translate(-120.788 -90.31)" fill="#ed1c24"/>
      <path id="Path_40903" data-name="Path 40903" d="M64.128,318.734A14.863,14.863,0,1,0,79.021,303.86a15.011,15.011,0,0,0-14.893,14.874" transform="translate(66.768 -190.838)" fill="#606060"/>
      <path id="Path_40904" data-name="Path 40904" d="M304.016,318.723a14.863,14.863,0,1,0,14.9-14.866,15.009,15.009,0,0,0-14.9,14.866" transform="translate(-262.346 -190.836)" fill="#606060"/>
      <path id="Path_40905" data-name="Path 40905" d="M414.787,333.58a14.862,14.862,0,1,0-14.816-14.959,15,15,0,0,0,14.816,14.959" transform="translate(-393.991 -190.836)" fill="#606060"/>
      <path id="Path_40906" data-name="Path 40906" d="M239.972,183.72c0,7.364.032,14.727-.031,22.091-.01,1.272.272,1.667,1.606,1.651,4.372-.052,4.373.008,4.373-4.423,0-13.8-.021-27.6.032-41.4.006-1.411-.292-1.877-1.793-1.841-4.185.1-4.187.024-4.187,4.241Z" transform="translate(-150.723 -100.361)" fill="#818080"/>
      <path id="Path_40907" data-name="Path 40907" d="M44.073,187.643c3.462,0,6.925-.058,10.384.03,1.257.032,1.571-.378,1.494-1.561a81.694,81.694,0,0,0-1.154-9.353,1.076,1.076,0,0,0-1.245-1.025c-4.45.036-8.925-.263-13.345.111-5.265.446-8.672,4.833-8.067,11.066.1,1.045.833.715,1.362.718,3.523.026,7.047.013,10.57.013" transform="translate(116.584 -110.319)" fill="#606060"/>
      <path id="Path_40908" data-name="Path 40908" d="M176.523,239.384a30.662,30.662,0,0,1,5.1-11.381,2.4,2.4,0,0,0,.3-1.594c.007-11.023-.015-22.045.033-33.068.006-1.224-.334-1.532-1.537-1.529-4.439.014-4.439-.033-4.439,4.357v43.161l.543.052" transform="translate(-62.938 -120.468)" fill="#818080"/>
      <path id="Path_40909" data-name="Path 40909" d="M209.89,335.776c-5.388,0-10.777.032-16.165-.024-1.262-.013-1.942.093-1.688,1.661.222,1.367-.457,3.521.222,4.019.979.718,2.826.285,4.3.286,9.847.01,19.7-.027,29.543.042,1.408.01,1.741-.36,1.717-1.736-.074-4.248-.01-4.249-4.182-4.249Z" transform="translate(-114.743 -210.868)" fill="#818080"/>
      <path id="Path_40910" data-name="Path 40910" d="M191.715,101.595c.058,1.888-.953,4.412.254,5.491,1.044.932,3.52.33,5.361.285,2.016-.05,4.707.883,5.847-.369,1-1.094.337-3.751.3-5.716-.036-1.892.822-4.415-.358-5.49-1.027-.935-3.517-.331-5.357-.286-2.015.05-4.716-.883-5.844.37-.977,1.086-.2,3.749-.2,5.714" transform="translate(-90.453 -59.804)" fill="#ed1c24"/>
      <path id="Path_40911" data-name="Path 40911" d="M197.984,69.885c1.605,0,3.212-.035,4.816.014.791.025,1.172-.209,1.049-1.036a.991.991,0,0,1,0-.185c.189-4.742.189-4.742-4.552-4.742-2.1,0-4.2.03-6.3-.015-.791-.017-1.172.21-1.049,1.037a.993.993,0,0,1,0,.185c-.189,4.741-.189,4.741,4.551,4.741h1.482" transform="translate(-90.805 -40.146)" fill="#ed1c24"/>
      <path id="Path_40912" data-name="Path 40912" d="M245.517,85.532c0-.494.03-.989-.006-1.481-.1-1.393.635-3.5-.306-4.015-1.289-.706-3.222-.222-4.878-.277-.721-.024-.764.4-.762.946.009,3.332.019,6.665-.007,10-.006.7.222.909.939.977,5.022.479,5.02.5,5.02-4.481V85.532" transform="translate(-150.32 -50.023)" fill="#818080"/>
      <path id="Path_40913" data-name="Path 40913" d="M15.271,273.493c.006,3.362,2.632,5.255,5.476,4.144a.869.869,0,0,0,.422-.291c1.25-2.087-.569-5.47-3.018-5.623a8.2,8.2,0,0,1-.925-.013c-1.635-.295-2.308.334-1.956,1.783" transform="translate(157.254 -170.602)" fill="#818080"/>
      <path id="Path_40914" data-name="Path 40914" d="M89.048,337.672a8.921,8.921,0,1,0-8.942-8.949,8.871,8.871,0,0,0,8.942,8.949" transform="translate(56.731 -200.869)" fill="#050605"/>
      <path id="Path_40915" data-name="Path 40915" d="M319.991,328.746a8.921,8.921,0,1,0,8.971-8.915,8.874,8.874,0,0,0-8.971,8.915" transform="translate(-272.379 -200.869)" fill="#050605"/>
      <path id="Path_40916" data-name="Path 40916" d="M424.874,337.672a8.921,8.921,0,1,0-8.93-8.962,8.872,8.872,0,0,0,8.93,8.962" transform="translate(-404.024 -200.869)" fill="#050605"/>
      <path id="Path_40917" data-name="Path 40917" d="M96.12,338.881a2.965,2.965,0,1,0,2.888-3.04,3.043,3.043,0,0,0-2.888,3.04" transform="translate(46.675 -210.923)" fill="#e7e8e8"/>
      <path id="Path_40918" data-name="Path 40918" d="M336.007,338.8a2.964,2.964,0,1,0,2.97-2.957,3.04,3.04,0,0,0-2.97,2.957" transform="translate(-282.438 -210.925)" fill="#e7e8e8"/>
      <path id="Path_40919" data-name="Path 40919" d="M435.012,341.769a2.966,2.966,0,1,0-3.054-2.876,3.038,3.038,0,0,0,3.054,2.876" transform="translate(-414.079 -210.923)" fill="#e7e8e8"/>
      <path id="Path_40920" data-name="Path 40920" d="M46.005,307.507a21.077,21.077,0,0,1,3.061-10.4,1.487,1.487,0,0,1,.1-.164A21.2,21.2,0,0,1,88.114,304.6c.015.1.033.2.048.3a21.4,21.4,0,0,1,.238,3.188,21.055,21.055,0,0,1-.383,4.021,2.279,2.279,0,0,0-.5,1.075,22.046,22.046,0,0,1-3.4,7.365c-.324.491-.87.867-.967,1.5a21.158,21.158,0,0,1-11.8,6.833h-.007a21.2,21.2,0,0,1-21.1-8.075v0c-.32-.424-.625-.859-.911-1.309a21.026,21.026,0,0,1-3.158-8.707c-.019-.152-.037-.305-.052-.457A21.25,21.25,0,0,1,46,308.091c0-.2,0-.391.007-.584m20.852,15.418a14.862,14.862,0,1,0-14.926-14.848,15.008,15.008,0,0,0,14.926,14.848" transform="translate(78.965 -180.18)" fill="#050605"/>
      <path id="Path_40921" data-name="Path 40921" d="M48,363.14c-.324.491-.87.867-.967,1.5A21.069,21.069,0,0,0,51.9,354.7a2.279,2.279,0,0,0-.5,1.075A22.046,22.046,0,0,1,48,363.14" transform="translate(115.086 -222.768)" fill="#050605"/>
    </g>
  </g>
</svg>
