<svg id="Group_53882" data-name="Group 53882" xmlns="http://www.w3.org/2000/svg" xmlns:xlink="http://www.w3.org/1999/xlink" width="135.371" height="135.364" viewBox="0 0 135.371 135.364">
  <defs>
    <clipPath id="clip-path">
      <rect id="Rectangle_52184" data-name="Rectangle 52184" width="135.371" height="135.364" fill="none"/>
    </clipPath>
  </defs>
  <g id="Group_53882-2" data-name="Group 53882" clip-path="url(#clip-path)">
    <path id="Path_40861" data-name="Path 40861" d="M0,238.1c1.777-4.1,5.277-6.07,9.208-7.561,1.123-.426,1.726-.3,1.852.981a3.047,3.047,0,0,0,.223.662c1.29,1.642,1.1,2.392-.765,3.143a14.685,14.685,0,0,0-4.3,2.362c-1.656,1.441-1.623,2.828.072,4.224a17.308,17.308,0,0,0,7.408,3.274,38.057,38.057,0,0,0,20.556-.8,15.765,15.765,0,0,0,4.026-2c2.42-1.66,2.4-3.544-.038-5.215a18.126,18.126,0,0,0-3.633-1.848c-1.871-.737-2.056-1.5-.766-3.139.7-2.161.709-2.18,2.859-1.331a16.6,16.6,0,0,1,6.357,4.013,7.377,7.377,0,0,1,1.88,3.4,1.885,1.885,0,0,1,.59,1.658c.021,1.22.042,2.442.006,3.663.063,3.44.036,6.88.023,10.32q.044,8.432.005,16.864c-.006,3.457.043,6.915-.023,10.372.043,1.73.011,3.46.01,5.189a24.67,24.67,0,0,0-.032,2.953,7.709,7.709,0,0,1-3.376,6.764c-3.539,2.689-7.677,3.842-12.022,4.365a27.491,27.491,0,0,0-3.045.288H24.818a2.152,2.152,0,0,0-1.692,0H22a2.881,2.881,0,0,0-1.974,0H17.767a34.553,34.553,0,0,1-9.957-2.032A19.117,19.117,0,0,1,2.9,295.99,6.723,6.723,0,0,1,0,291.4Z" transform="translate(0 -165.339)" fill="#191f21"/>
    <path id="Path_40862" data-name="Path 40862" d="M161.329,0c2.554.922,4.5,2.431,5.186,5.225a8.132,8.132,0,0,1,.17,1.957q.005,15.366,0,30.732c0,4.4-2.812,7.2-7.23,7.2q-15.508.011-31.015-.02a2.125,2.125,0,0,0-1.973.988c-1.613,2.251-3.3,4.45-4.969,6.662q-2.186,2.9-4.405-.048c-1.639-2.175-3.3-4.335-4.886-6.546a2.26,2.26,0,0,0-2.082-1.057c-10.244.038-20.489.026-30.734.023-4.72,0-7.458-2.717-7.46-7.4,0-10.056.032-20.112-.019-30.168C71.893,3.986,73.35,1.531,76.727.273,76.838.232,76.913.093,77,0Z" transform="translate(-51.623)" fill="#191f21"/>
    <path id="Path_40863" data-name="Path 40863" d="M366.835,191.707c.116-2.255.117-2.246,2.445-2.258,1.4-.007,3.279.5,4.075-.21.913-.808.251-2.725.283-4.159.047-2.109.006-4.22.014-6.33.007-2.056.753-2.824,2.764-2.831q4.009-.015,8.019,0c1.95.008,2.741.782,2.749,2.707.012,3.235.042,6.472-.021,9.706-.018.949.28,1.164,1.175,1.141,2.343-.06,4.691.042,7.033-.044a3.227,3.227,0,0,1,3.1,1.434V246.7a2.373,2.373,0,0,1-2.636,1.821c-2.2.036-4.4-.006-6.6.021-1.472.018-1.6.139-1.61,1.618-.025,2.9.007,5.807-.015,8.711-.01,1.319-.361,2.415-1.827,2.776H375.06c-1.462-.361-1.818-1.454-1.828-2.771-.023-2.853-.016-5.706,0-8.559,0-.956-.09-1.648-1.283-1.936-1.378-.333-.869-1.646-.963-2.612-.043-2.344.194-2.606,2.523-2.612,5.964-.014,11.927,0,17.89-.008,2.047,0,2.1-.07,2.112-2.158.005-1.409.013-2.817,0-4.226-.018-1.624-.12-1.733-1.792-1.74-3.8-.015-7.607,0-11.41-.01a3.635,3.635,0,0,1-2.187-.361,6.467,6.467,0,0,1-.053-4.623,3.205,3.205,0,0,1,2.161-.407c3.8-.015,7.594,0,11.392-.011,1.8-.006,1.883-.1,1.893-1.923.008-1.547-.038-3.1.014-4.64.039-1.146-.418-1.587-1.564-1.578-3.891.028-7.782.02-11.673,0a3.56,3.56,0,0,1-2.18-.368,6.481,6.481,0,0,1-.033-4.625,3.3,3.3,0,0,1,2.171-.4c3.806-.015,7.613,0,11.42-.011,1.743-.006,1.829-.1,1.842-1.835.012-1.5.017-3.007,0-4.511-.02-1.621-.151-1.768-1.783-1.773-6.2-.017-12.406-.005-18.61-.007-.8,0-1.6.011-2.4-.008a2.688,2.688,0,0,1-1.624-.361,6.354,6.354,0,0,1-.032-4.643,3.625,3.625,0,0,1,2.315-.39c6.673-.012,13.347,0,20.02-.009,2.075,0,2.1-.04,2.111-2.144,0-1.034,0-2.068,0-3.1,0-2.876,0-2.877-2.81-2.877H369.971c-.517,0-1.034.013-1.551-.013-1.879-.094-2.332-.867-1.585-2.694" transform="translate(-263.097 -126.283)"/>
    <path id="Path_40864" data-name="Path 40864" d="M174.05,217.761c1.63-2.3,1.629-2.3,4.059-.8.638.395,1.273.795,1.922,1.171a5.457,5.457,0,0,0,8.382-3.483c.393-1.543.741-3.1,1.127-4.644a2.333,2.333,0,0,1,2.685-2.1q4.369-.018,8.738,0c1.6.007,2.266.55,2.66,2.135.385,1.546.733,3.1,1.127,4.644a5.458,5.458,0,0,0,8.285,3.51c1.423-.816,2.8-1.72,4.206-2.561a2.356,2.356,0,0,1,3.4.393c1.749,1.7,3.482,3.412,5.221,5.119,2.083,1.047,2.6,2.695,1.5,4.807-.462.675-.853,1.394-1.262,2.1a13.444,13.444,0,0,0-1.656,3.077,5.1,5.1,0,0,0,1.741,5.668,10.192,10.192,0,0,0,3.933,1.428,17.807,17.807,0,0,1,3.911,1.11,3.483,3.483,0,0,1,1.3,3.216c0,.513,0,1.025,0,1.538.044,2.057.023,4.113.012,6.169a3.314,3.314,0,0,1-1.213,2.852c-1.739.856-3.672,1.051-5.507,1.586a6.115,6.115,0,0,0-2.434,1.014,5.216,5.216,0,0,0-1.116,7.03c.344.608.731,1.19,1.085,1.793.684,1.382,1.947,2.523,1.79,4.259a2.6,2.6,0,0,1-.946,1.822c-1.99,1.995-3.974,4-5.981,5.974a2.86,2.86,0,0,1-3.939.588c-1.369-.725-2.63-1.638-3.98-2.4-3.554-2.007-7.05-.522-8.07,3.435-.375,1.455-.71,2.921-1.106,4.371a2.426,2.426,0,0,1-1.708,2.024H190.939a2.406,2.406,0,0,1-1.711-2.02c-.424-1.539-.766-3.1-1.179-4.642a5.126,5.126,0,0,0-7.751-3.3c-1.115.607-2.136,1.365-3.24,1.99-1.41.8-1.683.738-2.622-.633a9.109,9.109,0,0,1-.734-1.2c-.715-1.609-.638-1.9.877-2.829q1.621-1,3.27-1.948a10.336,10.336,0,0,1,15.108,6.047,18.6,18.6,0,0,1,.577,2.178c.187,1.162.835,1.5,1.962,1.5,3.574,0,3.663.064,4.588-3.349a10.43,10.43,0,0,1,15.672-6.139c2.815,1.735,2.263,1.81,4.739-.645,1.635-1.622,1.717-1.687.415-3.622a10.842,10.842,0,0,1,.442-12.877,10.133,10.133,0,0,1,4.1-2.891,15.445,15.445,0,0,1,3.106-.914c1.141-.2,1.522-.786,1.519-1.936-.011-3.613.055-3.706-3.306-4.61a10.425,10.425,0,0,1-6.212-15.641c1.753-2.887,1.984-2.153-.664-4.824-1.581-1.6-1.648-1.676-3.524-.4a10.852,10.852,0,0,1-12.993-.459,11.348,11.348,0,0,1-3.5-6.136c-.693-2.673-.239-2.514-3.233-2.512-3.161,0-2.664-.2-3.4,2.674-.892,3.473-2.715,6.188-6.133,7.582a10.354,10.354,0,0,1-8.222-.046,34.228,34.228,0,0,1-4.4-2.52c-1.514-.928-1.55-1.278-.436-2.714" transform="translate(-124.382 -149.243)" fill="#191f21"/>
    <path id="Path_40865" data-name="Path 40865" d="M70.975,478.956a1.627,1.627,0,0,1,1.974,0Z" transform="translate(-50.951 -343.592)" fill="#2b3e51"/>
    <path id="Path_40866" data-name="Path 40866" d="M81.971,478.987a1.274,1.274,0,0,1,1.692,0Z" transform="translate(-58.845 -343.623)" fill="#2b3e51"/>
    <path id="Path_40867" data-name="Path 40867" d="M164.014,286.244l-4.51-4.288q0-2.637,0-5.274c.267-.544.421-1.13.7-1.676a7.226,7.226,0,0,0-.157-7.713,10.2,10.2,0,0,1-.546-1.137q0-8.406,0-16.812c.41-1.144,1.273-2.067,1.526-3.3a7.484,7.484,0,0,0-.751-5.426c-.331-.576-.5-1.206-.773-1.8-.139-1.716.139-3.449-.223-5.153,1.808-1.22,3.045-3.054,4.732-4.406-.868,1.193-.476,1.939.785,2.522a26.184,26.184,0,0,1,2.535,1.514c6.346,3.87,13.653.924,15.492-6.246.805-3.139.805-3.139,3.964-3.139,2.766,0,2.873-.02,3.377,2.655a10.11,10.11,0,0,0,15.775,6.637c2.375-1.6,2.434-1.51,4.488.546,2.164,2.166,2.164,2.166.545,4.83-3.917,6.448-.785,13.817,6.591,15.506,2.821.646,2.821.646,2.821,3.53,0,3.079,0,3.079-3.107,3.848-7.1,1.758-10.136,9.068-6.378,15.351,1.672,2.8,1.672,2.8-.577,5.047-1.949,1.951-1.949,1.951-4.4.453-4.321-2.64-8.7-2.444-12.4.6a10.731,10.731,0,0,0-3.532,6.852c-.253,1.487-.843,2.049-2.362,1.857-1.294-.163-2.861.34-3.859-.233-.963-.552-.755-2.28-1.114-3.476a9.961,9.961,0,0,0-14.957-5.919c-.973.566-1.888,1.247-2.9,1.727-1.257.6-1.648,1.334-.779,2.526" transform="translate(-114.344 -160.739)" fill="#ed1c24"/>
    <path id="Path_40868" data-name="Path 40868" d="M45.445,234.651a2.346,2.346,0,0,1-.137.54c-.651,1.235-.38,1.913,1.058,2.295a12.738,12.738,0,0,1,3.877,1.957c2.463,1.7,2.483,3.933.027,5.615a20.974,20.974,0,0,1-7.633,3.108,39.014,39.014,0,0,1-10.6.838c-4.4-.286-8.742-.992-12.682-3.165a6.1,6.1,0,0,1-2.955-2.694,1.984,1.984,0,0,1,.135-2.1c1.169-1.838,3.094-2.538,4.9-3.391,2.021-.954,2.049-.893,1.451-3.006l4.491-.892a2.117,2.117,0,0,1,.443,1.713c.028,1.643.027,3.286.005,4.929-.013,1,.387,1.467,1.416,1.433.89-.029,1.783-.032,2.675.015,1.492-.04,2.983-.043,4.474,0,.929-.049,1.859-.036,2.788-.019.957.018,1.327-.432,1.322-1.355-.009-1.627-.019-3.255.008-4.881.011-.637-.1-1.319.445-1.835l4.491.893" transform="translate(-11.603 -167.81)" fill="#e7e8e8"/>
    <path id="Path_40869" data-name="Path 40869" d="M360.888,243.042c1.379-2.034.175-3.433-1.179-4.795.015-1.673.137-3.354.012-5.018-.1-1.3.384-1.65,1.547-1.463a4.38,4.38,0,0,0,.7,0c.117,2.258.117,2.258,2.356,2.258,7.793,0,15.586.021,23.378-.024,1.082-.006,1.469.239,1.413,1.382-.1,2.014-.1,4.039,0,6.053.058,1.234-.232,1.66-1.58,1.648-7.745-.067-15.491-.024-23.237-.019a3.281,3.281,0,0,1-3.406-.027" transform="translate(-258.226 -166.347)" fill="#ed1c24"/>
    <path id="Path_40870" data-name="Path 40870" d="M69.463,192.249c-.007,2.287-.076,4.577,0,6.862.044,1.231-.238,1.822-1.6,1.662a25.368,25.368,0,0,0-2.939-.023,3.036,3.036,0,0,1-.428-2.157c-.011-4.838,0-9.675-.008-14.513a5.752,5.752,0,0,0-.162-1.816,1.715,1.715,0,0,0-3.315,0,5.752,5.752,0,0,0-.163,1.816c0,4.838,0,9.675-.008,14.513a3.038,3.038,0,0,1-.428,2.157,25.316,25.316,0,0,0-2.939.023c-1.362.16-1.643-.431-1.6-1.662.081-2.284.011-4.574,0-6.862.007-3.145,0-6.29.025-9.436a6.765,6.765,0,1,1,13.529,0c.025,3.145.018,6.29.025,9.435" transform="translate(-40.112 -126.301)" fill="#191f21"/>
    <path id="Path_40871" data-name="Path 40871" d="M52.068,289.068v22.069c0,2.724-.056,5.45.02,8.173a4.246,4.246,0,0,1-2.082,3.879,21.809,21.809,0,0,1-8.755,3.281,39.277,39.277,0,0,1-17.932-.854,16.527,16.527,0,0,1-5.779-2.823,3.8,3.8,0,0,1-1.581-3.132q.028-14.726,0-29.451c0-.905-.011-1.3,1.092-.691a31.728,31.728,0,0,0,12.759,3.5,43.164,43.164,0,0,0,17.2-1.718,49.024,49.024,0,0,0,5.061-2.236" transform="translate(-11.457 -207.516)" fill="#ed1c24"/>
    <path id="Path_40872" data-name="Path 40872" d="M54.751,441.28c0,3.292,0,3.292-3.245,3.014-.093-.008-.187-.008-.279-.022-3.244-.491-3.244-.491-3.244-3.792V439.5c0-2.706.016-2.772,2.6-2.154,1.057.253,2.122.147,3.181.386.882.2,1.036.558,1,1.3s-.008,1.5-.008,2.245" transform="translate(-34.446 -313.731)" fill="#f7f7f7"/>
    <path id="Path_40873" data-name="Path 40873" d="M94.73,440.259v.28c0,3.494,0,3.5-3.567,3.766a9.165,9.165,0,0,0-2.358.22c-.593.2-.847-.159-.844-.749.008-1.683.01-3.367,0-5.05,0-.544.14-.845.765-.919,1.795-.213,3.581-.5,5.371-.753.534-.076.631.259.631.68q0,1.262,0,2.525Z" transform="translate(-63.144 -313.744)" fill="#f7f7f7"/>
    <path id="Path_40874" data-name="Path 40874" d="M20.425,433.917a9.678,9.678,0,0,1-3.8-2.4c-.881-.887-.739-1.969-.7-3.027a9.5,9.5,0,0,1,.158-3.029,15.355,15.355,0,0,0,2.612,1.177c1.551.386,1.888,1.306,1.759,2.759-.128,1.434-.028,2.887-.028,4.516" transform="translate(-11.401 -305.432)" fill="#f7f7f7"/>
    <path id="Path_40875" data-name="Path 40875" d="M127.974,433.736c0-2.087,0-4.032,0-5.978a.672.672,0,0,1,.366-.7,29.742,29.742,0,0,0,3.64-1.775c.463-.275.491.242.493.555.009,1.355.036,2.71-.013,4.064a3.1,3.1,0,0,1-1.449,2.142,8.808,8.808,0,0,1-3.038,1.691" transform="translate(-91.869 -305.247)" fill="#f7f7f7"/>
    <path id="Path_40876" data-name="Path 40876" d="M130.867,15.994h39.765c2.4,0,3.071.678,3.071,3.1q0,15.017,0,30.033c0,2.226-.726,2.96-2.932,2.96-10.67,0-21.34.031-32.009-.03a3.9,3.9,0,0,0-3.658,1.834c-1.095,1.636-2.409,3.125-3.508,4.758-.663.986-.982.76-1.549-.052-1.1-1.578-2.36-3.047-3.428-4.645a4.029,4.029,0,0,0-3.776-1.9c-10.575.065-21.151.033-31.727.032-2.5,0-3.148-.648-3.148-3.167q0-14.946,0-29.893c0-2.334.692-3.037,2.992-3.037h39.906" transform="translate(-63.15 -11.481)" fill="#ed1c24"/>
    <path id="Path_40877" data-name="Path 40877" d="M365.274,393.96l-4.914.014c.053-1.711-1.374-2.778-1.85-4.259a13.691,13.691,0,0,1-.01-7.117,2.33,2.33,0,0,1,1.475-.362c3.516-.025,7.031-.017,10.546,0a2.359,2.359,0,0,1,1.595.43c4.786.006,9.574.039,14.359-.005,1.044-.01,1.494.177,1.437,1.359-.1,2.153-.083,4.318-.006,6.474.037,1.016-.309,1.241-1.271,1.235-6.335-.041-12.671-.021-19.006-.021-2.238,0-2.238,0-2.354,2.258" transform="translate(-257.024 -274.387)" fill="#ed1c24"/>
    <path id="Path_40878" data-name="Path 40878" d="M366.447,295.635c-1.926-.471-3.856-.927-5.776-1.419a3.569,3.569,0,0,1-2.157-1.132,11.883,11.883,0,0,1-.034-6.53,5.939,5.939,0,0,1,4.616.037c7.8.006,15.591.029,23.385-.005,1.047,0,1.492.182,1.435,1.361-.1,2.155-.084,4.321-.006,6.478.038,1.027-.329,1.235-1.28,1.228-4.836-.039-9.673-.01-14.51,0a8.244,8.244,0,0,1-5.673-.012" transform="translate(-257.028 -205.388)" fill="#ed1c24"/>
    <path id="Path_40879" data-name="Path 40879" d="M387.848,343.6A3.215,3.215,0,0,0,389,340.887c-.043-2.1.014-4.2.03-6.3a5.368,5.368,0,0,1,4.492-.016c4.836.005,9.671.035,14.507,0,.946-.008,1.32.192,1.283,1.224-.079,2.2-.079,4.414,0,6.618.037,1.031-.337,1.231-1.284,1.224-4.835-.039-9.671-.009-14.507,0a7.936,7.936,0,0,1-5.671-.031" transform="translate(-278.428 -239.834)" fill="#ed1c24"/>
    <path id="Path_40880" data-name="Path 40880" d="M366.859,367.8l5.672.031v4.479l-13.517.009c-.651-.624-.385-1.289-.088-1.956a3.6,3.6,0,0,1,2.159-1.131c1.92-.495,3.849-.957,5.775-1.432" transform="translate(-257.438 -264.035)" fill="#d81d24"/>
    <path id="Path_40881" data-name="Path 40881" d="M412.347,196.263v1.263c0,3.588-.2,3.741-3.82,3.28-.561-.071-.7-.291-.7-.79.012-2.479.018-4.958,0-7.437-.005-.6.2-.88.809-.81a.867.867,0,0,0,.14,0c3.571-.183,3.571-.183,3.571,3.372Z" transform="translate(-292.77 -137.622)" fill="#d81d24"/>
    <path id="Path_40882" data-name="Path 40882" d="M407.855,435.689v-1.123c0-3.568.223-3.742,3.828-3.272.568.074.69.3.688.8-.011,2.479-.018,4.958,0,7.436.006.61-.217.868-.818.8a.9.9,0,0,0-.14,0c-3.563.179-3.563.179-3.563-3.38Z" transform="translate(-292.79 -309.481)" fill="#d81d24"/>
    <path id="Path_40883" data-name="Path 40883" d="M393.514,324.376l-4.493.016c-.2-1.554.422-3.322-1.181-4.508l5.673.012v4.479" transform="translate(-278.423 -229.638)" fill="#d81d24"/>
    <path id="Path_40884" data-name="Path 40884" d="M363.427,276.359l-4.492.009c-.8-.81-.29-1.667-.091-2.513a6.261,6.261,0,0,1,1.178-2l3.405.027v4.479" transform="translate(-257.359 -195.157)" fill="#d81d24"/>
    <path id="Path_40885" data-name="Path 40885" d="M231.517,303.617a15.789,15.789,0,1,1-15.844-15.73,15.9,15.9,0,0,1,15.844,15.73" transform="translate(-143.532 -206.668)" fill="#191f21"/>
    <path id="Path_40886" data-name="Path 40886" d="M71.973,212.229q0-8.73,0-17.46c0-1.907.808-2.883,2.325-2.84,1.445.041,2.184.991,2.185,2.84q.005,8.73,0,17.46H71.973" transform="translate(-51.667 -137.78)" fill="#606060"/>
    <path id="Path_40887" data-name="Path 40887" d="M31.94,324.22c0-3.712.028-7.423-.019-11.135-.012-.956.235-1.3,1.251-1.3,3.281,0,3.281-.046,3.281,3.2,0,6.765-.02,13.531.021,20.3.006,1.024-.238,1.382-1.324,1.374-3.21-.025-3.21.023-3.21-3.131v-9.3" transform="translate(-22.915 -223.823)" fill="#191f21"/>
    <path id="Path_40888" data-name="Path 40888" d="M116.419,324.264c0,3.712-.023,7.423.017,11.135.009.888-.214,1.223-1.171,1.235-3.358.043-3.358.08-3.358-3.262,0-6.718.02-13.437-.021-20.156-.006-1.062.218-1.474,1.388-1.453,3.145.055,3.145,0,3.145,3.2v9.3" transform="translate(-80.32 -223.807)" fill="#191f21"/>
    <path id="Path_40889" data-name="Path 40889" d="M76.429,332.275c0,3.712-.024,7.423.017,11.135.01.9-.24,1.213-1.183,1.224-3.347.04-3.347.076-3.347-3.272,0-6.719.022-13.437-.022-20.155-.007-1.082.252-1.46,1.4-1.441,3.134.052,3.134,0,3.134,3.067v9.443" transform="translate(-51.611 -229.552)" fill="#191f21"/>
    <path id="Path_40890" data-name="Path 40890" d="M130.021,31.9c2.216.158,4.463-.127,6.714.249a13.558,13.558,0,0,1,11.331,13.28A13.227,13.227,0,0,1,136.643,58.7a41.768,41.768,0,0,1-14.692-.279,13.314,13.314,0,0,1-9.963-13.636A13.621,13.621,0,0,1,123.11,32.174c2.295-.406,4.59-.13,6.911-.275" transform="translate(-80.385 -22.9)" fill="#191f21"/>
    <path id="Path_40892" data-name="Path 40892" d="M146.006,57a9.023,9.023,0,1,1-9.025-9.019A9,9,0,0,1,146.006,57" transform="translate(-91.86 -34.447)" fill="#fff"/>
    <path id="Path_40893" data-name="Path 40893" d="M196.188,48.518a8.653,8.653,0,0,1,7.479,6.613h-3.881a.5.5,0,0,1-.581-.449,14.566,14.566,0,0,0-3.017-6.164" transform="translate(-140.839 -34.83)" fill="#e7e8e8"/>
    <path id="Path_40894" data-name="Path 40894" d="M203.671,87.959a8.667,8.667,0,0,1-7.479,6.615,14.334,14.334,0,0,0,2.98-6.027c.126-.591.462-.592.9-.59,1.166.006,2.332,0,3.6,0" transform="translate(-140.842 -63.143)" fill="#e7e8e8"/>
    <path id="Path_41070" data-name="Path 41070" d="M215.4,295.589a7.731,7.731,0,1,1-7.758-7.7,7.787,7.787,0,0,1,7.758,7.7" transform="translate(-135.472 -198.608)" fill="#fff"/>
  </g>
</svg>
