<svg id="Masaha-Services-MegaMenu-Rent-Lifting-Solution-icon" xmlns="http://www.w3.org/2000/svg" xmlns:xlink="http://www.w3.org/1999/xlink" width="104" height="104" viewBox="0 0 104 104">
  <defs>
    <clipPath id="clip-path">
      <rect id="Rectangle_52534" data-name="Rectangle 52534" width="104" height="104" transform="translate(502 242)" fill="#fff"/>
    </clipPath>
    <radialGradient id="radial-gradient" cx="0.5" cy="0.5" r="0.5" gradientTransform="matrix(-1, 0, 0, 1, 1, 0)" gradientUnits="objectBoundingBox">
      <stop offset="0"/>
      <stop offset="1" stop-color="#19304c" stop-opacity="0"/>
    </radialGradient>
  </defs>
  <g id="Mask_Group_18902" data-name="Mask Group 18902" transform="translate(-502 -242)" clip-path="url(#clip-path)">
    <g id="Group_56472" data-name="Group 56472">
      <ellipse id="Ellipse_48" data-name="Ellipse 48" cx="41.899" cy="1.57" rx="41.899" ry="1.57" transform="translate(502.061 338.581)" fill="url(#radial-gradient)"/>
      <g id="Group_56464" data-name="Group 56464" transform="translate(510.175 246)">
        <path id="Path_44921" data-name="Path 44921" d="M134.948,428.568H133.8q-10.6,0-21.2,0c-3.169,0-5.008,1.836-5.011,5,0,4.176.016,8.352-.024,12.528a2.486,2.486,0,0,1-.525,1.437,10.66,10.66,0,0,0,10.064,17.361,11.083,11.083,0,0,0,5.051-2.388,2.077,2.077,0,0,1,1.213-.451q10.041-.042,20.082,0a2.367,2.367,0,0,1,1.357.523c5.886,4.771,14.73,2.3,16.967-4.763a10.632,10.632,0,0,0-7.985-13.838c-.534-.114-.76-.31-.817-.877q-1.013-10.066-2.075-20.128c-.146-1.391-.265-2.789-.5-4.165a7.635,7.635,0,0,0-4.192-5.517q-9.744-5.381-19.463-10.806c-.1-.055-.187-.129-.425-.3l23.778-16.548c.79,1.124,1.56,2.2,2.316,3.3q5.075,7.324,10.132,14.659a1.489,1.489,0,0,0,1.412.7q10.9-.033,21.8,0a4.848,4.848,0,0,0,4.815-2.894c.645-1.336,1.342-2.647,1.983-3.984a2.348,2.348,0,0,0,.207-.981q.017-11.2.006-22.4a3.089,3.089,0,0,0-3.225-3.254q-10.513-.01-21.026,0a3.057,3.057,0,0,0-3.176,3.2q-.015,7.38,0,14.759v.9l-.183.045c-.676-1.325-1.361-2.644-2.024-3.975-.994-1.992-2.007-3.976-2.941-6a14.6,14.6,0,0,1-1.07-3.026,7.833,7.833,0,0,0-7.4-5.911,1.872,1.872,0,0,0-.732.173q-9.982,4.826-19.956,9.665c-4.291,2.072-8.6,4.111-12.893,6.175-3.42,1.644-6.825,3.32-10.257,4.938a8.907,8.907,0,0,1-1.967.513,9.008,9.008,0,0,0-7.389,9.188,1.305,1.305,0,0,0,.506.93q5.7,3.644,11.445,7.221,8.021,5.022,16.053,10.03c2.614,1.634,5.222,3.28,7.849,4.893a1.09,1.09,0,0,1,.59,1.1C134.922,426.564,134.948,427.506,134.948,428.568Zm-23.922-34.851c2.77-1.354,5.35-2.631,7.941-3.881q9.675-4.668,19.359-9.316,6.633-3.194,13.266-6.389a1.374,1.374,0,0,1,.8-.192,4.774,4.774,0,0,1,3.518,2.84.93.93,0,0,1-.407,1.347c-1.67,1.095-3.3,2.256-4.933,3.4q-7.092,4.948-14.182,9.9c-4.17,2.9-8.351,5.794-12.51,8.713a1.014,1.014,0,0,1-1.239.1c-3.134-1.761-6.278-3.505-9.416-5.259C112.529,394.6,111.85,394.194,111.026,393.717Zm32.013,21.4a1.972,1.972,0,0,1-.187.31c-2.073,2.088-4.14,4.182-6.241,6.241a.92.92,0,0,1-.854.059c-1.042-.588-2.046-1.242-3.061-1.878l-18.354-11.5c-4.063-2.546-8.122-5.1-12.2-7.62a.734.734,0,0,1-.379-.974,5.94,5.94,0,0,1,4.293-4.36,2.185,2.185,0,0,1,1.862.158c5.246,2.953,10.514,5.864,15.776,8.787q7.783,4.323,15.568,8.644C140.507,413.675,141.742,414.383,143.039,415.116ZM122.87,446.772V431.725c.232-.023.4-.053.57-.053q6.733,0,13.467,0c1.1,0,1.5.391,1.795,1.557.821,3.292,1.66,6.578,2.488,9.868.3,1.206.59,2.415.9,3.673Zm22.21-.987a3.775,3.775,0,0,1-.134-.39c-1.1-4.367-2.213-8.731-3.284-13.106a4.557,4.557,0,0,0-3.148-3.515.791.791,0,0,1-.459-.551c-.046-1.056-.049-2.116,0-3.171a1.357,1.357,0,0,1,.393-.8q2.707-2.742,5.453-5.445c.659-.654,1.334-1.291,2-1.929a4.039,4.039,0,0,1,1.536,2.8c.3,2.639.566,5.282.843,7.923q.621,5.921,1.234,11.843c.151,1.469.277,2.94.4,4.22ZM115.219,461.9a7.474,7.474,0,0,1-7.528-7.492,7.506,7.506,0,1,1,7.528,7.492Zm43.953-7.456a7.437,7.437,0,0,1-7.558,7.453,7.491,7.491,0,1,1,7.558-7.453Zm21.476-71.513v-9h9v9Zm-12.174,0v-9.026h8.979v9.026Zm21.176,12.152h-9v-8.992h9Zm-12.209-9v8.986h-8.987v-8.986Zm-13.821,13.6-10.953-15.816,4.51-3.146c.889,1.786,1.719,3.472,2.563,5.15,1.667,3.316,3.347,6.625,5,9.947a1.616,1.616,0,0,1,.235,1.091C164.63,397.807,164.143,398.646,163.621,399.687Zm25.012-1.457c-.255.554-.481.976-.646,1.42a2.241,2.241,0,0,1-2.437,1.554c-6.028-.048-12.056-.021-18.084-.021h-1.1a21.428,21.428,0,0,0,1.025-2.084c.279-.764.775-.887,1.514-.885,6.228.027,12.456.016,18.684.016Zm-77.841,46.292c0-2.131-.016-4.181.031-6.229,0-.175.435-.484.671-.488,2.458-.036,4.916-.01,7.374-.031.552-.005.769.174.758.737-.026,1.256-.007,2.514-.007,3.772v2.21A11.487,11.487,0,0,0,110.792,444.522Zm4.439-9.969h-3.682c-.029,0-.064.011-.084,0-.225-.146-.6-.262-.646-.451a1.725,1.725,0,0,1,1.889-2.333c1.655-.009,3.312-.027,4.966,0,2.248.043,1.907-.5,1.948,2.1.008.52-.2.7-.71.694C117.686,434.535,116.458,434.553,115.231,434.553Z" transform="translate(-98.514 -370.784)" fill="#191f21"/>
        <path id="Path_44922" data-name="Path 44922" d="M149.871,394.969c.824.477,1.5.881,2.193,1.267,3.139,1.753,6.282,3.5,9.416,5.259a1.014,1.014,0,0,0,1.239-.1c4.159-2.92,8.34-5.809,12.51-8.713q7.1-4.944,14.182-9.9c1.638-1.142,3.264-2.3,4.933-3.4a.93.93,0,0,0,.407-1.347,4.774,4.774,0,0,0-3.518-2.84,1.374,1.374,0,0,0-.8.192q-6.638,3.185-13.266,6.389-9.679,4.66-19.359,9.316C155.22,392.338,152.64,393.615,149.871,394.969Z" transform="translate(-137.359 -372.036)" fill="#ed1c24"/>
        <path id="Path_44923" data-name="Path 44923" d="M209.387,424.867c-1.3-.733-2.532-1.442-3.777-2.134q-7.782-4.326-15.568-8.644c-5.262-2.923-10.53-5.834-15.776-8.787a2.185,2.185,0,0,0-1.862-.158,5.94,5.94,0,0,0-4.293,4.36.734.734,0,0,0,.379.974c4.079,2.521,8.138,5.074,12.2,7.62l18.354,11.5c1.015.636,2.019,1.29,3.061,1.878a.92.92,0,0,0,.854-.059c2.1-2.059,4.168-4.153,6.241-6.241A1.971,1.971,0,0,0,209.387,424.867Z" transform="translate(-164.862 -380.535)" fill="#ed1c24"/>
        <path id="Path_44924" data-name="Path 44924" d="M169.388,471.029H188.6c-.307-1.259-.594-2.468-.9-3.673-.827-3.29-1.667-6.577-2.488-9.868-.29-1.166-.692-1.555-1.795-1.557q-6.733-.013-13.467,0c-.169,0-.338.03-.57.053Zm12.074-2.995c-.9,0-1.7.029-2.495-.02-.2-.013-.541-.274-.543-.426-.038-1.844-.025-3.69-.025-5.575h3.063Zm-6.025-.071H172.4v-5.938h3.041v5.938Z" transform="translate(-145.032 -395.041)" fill="#e7e8e8"/>
        <path id="Path_44925" data-name="Path 44925" d="M165.522,464.148l4.82-2.127c-.119-1.281-.245-2.752-.4-4.22q-.608-5.922-1.234-11.843c-.277-2.641-.547-5.283-.843-7.923a4.039,4.039,0,0,0-1.536-2.8c-.661.639-1.336,1.276-2,1.929q-2.736,2.712-5.453,5.445a1.357,1.357,0,0,0-.393.8c-.045,1.055-.041,2.115,0,3.171a.792.792,0,0,0,.459.551,4.557,4.557,0,0,1,3.148,3.515c1.072,4.375,2.185,8.739,3.284,13.106A3.775,3.775,0,0,0,165.522,464.148Z" transform="translate(-118.956 -389.147)" fill="#d81d24"/>
        <path id="Path_44926" data-name="Path 44926" d="M204.023,492.227a7.495,7.495,0,1,0-7.528-7.492A7.452,7.452,0,0,0,204.023,492.227Zm.067-2.865a4.612,4.612,0,0,1-4.737-4.6,4.653,4.653,0,0,1,9.306-.069A4.6,4.6,0,0,1,204.089,489.361Z" transform="translate(-187.318 -401.113)" fill="#606060"/>
        <path id="Path_44927" data-name="Path 44927" d="M160.457,484.772a7.365,7.365,0,0,0-7.5-7.53,7.492,7.492,0,0,0-.058,14.983A7.437,7.437,0,0,0,160.457,484.772Zm-12.089-.016a4.562,4.562,0,0,1,4.578-4.648,4.686,4.686,0,0,1,4.678,4.594,4.625,4.625,0,0,1-4.668,4.661A4.489,4.489,0,0,1,148.368,484.756Z" transform="translate(-99.799 -401.115)" fill="#606060"/>
        <path id="Path_44928" data-name="Path 44928" d="M102.883,384.182h9v-9h-9Z" transform="translate(-20.749 -372.038)" fill="#818080"/>
        <path id="Path_44929" data-name="Path 44929" d="M119.931,384.175h8.979v-9.026h-8.979Z" transform="translate(-49.971 -372.028)" fill="#606060"/>
        <path id="Path_44930" data-name="Path 44930" d="M111.87,401.182V392.19h-9v8.992Z" transform="translate(-20.734 -376.883)" fill="#606060"/>
        <path id="Path_44931" data-name="Path 44931" d="M128.934,392.183h-8.987v8.986h8.987Z" transform="translate(-50.007 -376.881)" fill="#818080"/>
        <path id="Path_44932" data-name="Path 44932" d="M148.283,403.648c.523-1.041,1.01-1.881,1.355-2.774a1.616,1.616,0,0,0-.235-1.091c-1.653-3.322-3.333-6.631-5-9.947-.844-1.678-1.674-3.364-2.563-5.15l-4.51,3.146Z" transform="translate(-83.176 -374.745)" fill="#ed1c24"/>
        <path id="Path_44933" data-name="Path 44933" d="M126.564,409.159H125.52c-6.228,0-12.456.011-18.684-.016-.739,0-1.235.12-1.514.885a21.422,21.422,0,0,1-1.025,2.084h1.1c6.028,0,12.056-.026,18.084.021a2.241,2.241,0,0,0,2.437-1.554C126.083,410.135,126.309,409.713,126.564,409.159Z" transform="translate(-36.445 -381.713)" fill="#d81d24"/>
        <path id="Path_44934" data-name="Path 44934" d="M200.8,471.211a11.487,11.487,0,0,1,8.826-.029v-2.21c0-1.258-.019-2.516.007-3.772.011-.563-.206-.742-.758-.737-2.459.021-4.916,0-7.374.031-.236,0-.666.313-.671.488C200.784,467.03,200.8,469.08,200.8,471.211Z" transform="translate(-188.523 -397.474)" fill="#ed1c24"/>
        <path id="Path_44935" data-name="Path 44935" d="M205.29,458.842c1.227,0,2.455-.017,3.681.008.514.01.718-.174.71-.694-.041-2.6.3-2.054-1.948-2.1-1.655-.031-3.311-.013-4.966,0a1.725,1.725,0,0,0-1.889,2.333c.041.19.42.305.646.451.02.014.056,0,.084,0Z" transform="translate(-188.573 -395.074)" fill="#d81d24"/>
        <path id="Path_44936" data-name="Path 44936" d="M182.441,470.46v-6.021h-3.063c0,1.885-.013,3.731.025,5.575,0,.152.346.413.543.426C180.739,470.489,181.536,470.46,182.441,470.46Z" transform="translate(-146.01 -397.467)"/>
        <path id="Path_44937" data-name="Path 44937" d="M190.842,470.394v-5.938H187.8v5.938Z" transform="translate(-160.437 -397.472)"/>
        <path id="Path_44938" data-name="Path 44938" d="M205.215,490.5a4.6,4.6,0,0,0,4.569-4.669,4.653,4.653,0,0,0-9.306.069A4.612,4.612,0,0,0,205.215,490.5Zm-1.562-4.639a1.486,1.486,0,0,1,1.5-1.43,1.541,1.541,0,0,1,1.5,1.447,1.574,1.574,0,0,1-1.558,1.489A1.521,1.521,0,0,1,203.653,485.865Z" transform="translate(-188.444 -402.256)"/>
        <path id="Path_44939" data-name="Path 44939" d="M149.457,485.9a4.489,4.489,0,0,0,4.588,4.607,4.625,4.625,0,0,0,4.668-4.661,4.686,4.686,0,0,0-4.678-4.594A4.562,4.562,0,0,0,149.457,485.9Zm3.133-.038a1.438,1.438,0,0,1,1.5-1.424,1.46,1.46,0,0,1,1.433,1.494,1.491,1.491,0,0,1-1.505,1.439A1.475,1.475,0,0,1,152.59,485.86Z" transform="translate(-100.888 -402.256)"/>
        <path id="Path_44940" data-name="Path 44940" d="M204.863,487.134a1.521,1.521,0,0,0,1.437,1.505,1.574,1.574,0,0,0,1.558-1.489,1.541,1.541,0,0,0-1.5-1.447A1.486,1.486,0,0,0,204.863,487.134Z" transform="translate(-189.654 -403.525)" fill="#fff"/>
        <path id="Path_44941" data-name="Path 44941" d="M153.919,487.13a1.475,1.475,0,0,0,1.427,1.509,1.491,1.491,0,0,0,1.505-1.439,1.46,1.46,0,0,0-1.433-1.494A1.438,1.438,0,0,0,153.919,487.13Z" transform="translate(-102.217 -403.526)" fill="#fff"/>
        <path id="Path_44943" data-name="Path 44943" d="M16.447.052H0L.487,2.16H16.934Z" transform="translate(26.431 84.753)" fill="#ed1c24"/>
        <path id="Path_44944" data-name="Path 44944" d="M16.447.052H0L.487,2.16H16.934Z" transform="translate(25.716 81.072)" fill="#ed1c24"/>
      </g>
    </g>
  </g>
</svg>
