<svg id="Group_53899" data-name="Group 53899" xmlns="http://www.w3.org/2000/svg" xmlns:xlink="http://www.w3.org/1999/xlink" width="208.574" height="117.385" viewBox="0 0 208.574 117.385">
  <defs>
    <radialGradient id="radial-gradient" cx="0.5" cy="0.5" r="0.5" gradientUnits="objectBoundingBox">
      <stop offset="0"/>
      <stop offset="1" stop-color="#19304c" stop-opacity="0"/>
    </radialGradient>
    <clipPath id="clip-path">
      <rect id="Rectangle_52193" data-name="Rectangle 52193" width="178.142" height="112.715" fill="none"/>
    </clipPath>
  </defs>
  <ellipse id="Ellipse_31" data-name="Ellipse 31" cx="104.287" cy="4.67" rx="104.287" ry="4.67" transform="translate(0 108.046)" fill="url(#radial-gradient)"/>
  <g id="Group_53898" data-name="Group 53898" transform="translate(15.083 0)">
    <g id="Group_53897" data-name="Group 53897" transform="translate(0 0)">
      <g id="Group_53896" data-name="Group 53896">
        <g id="Group_53895" data-name="Group 53895" clip-path="url(#clip-path)">
          <path id="Path_40922" data-name="Path 40922" d="M151,112.715h-4.871c-7.61-.612-12.072-5.167-14.824-11.85a14.632,14.632,0,0,1-.84-3.725,1.628,1.628,0,0,0-1.985-1.633c-.345.029-.7,0-1.043,0q-28.008,0-56.016,0c-2.63,0-2.6.01-3.1,2.588-1.219,6.315-4.858,10.762-10.553,13.63-1.552.781-3.275.572-4.885.989H47.319C38.946,111.137,33.882,106,32.376,97.559c-.365-2.045-.365-2.057-2.428-2.064-3.707-.011-7.414.021-11.121-.01-4.976-.042-7.471-2.569-7.519-7.524-.047-4.9.608-4.236-4.4-4.3-1.158-.014-2.318.042-3.474-.043A3.621,3.621,0,0,1,0,81.405V78.97c.665-1.954,2.259-2.3,4.031-2.307,5.85-.025,11.7-.014,17.55-.007,2.316,0,4.633-.063,6.948.044,1.917.126,3.488.778,4.174,2.766.121,2.562-.965,3.794-3.517,3.853-3.014.07-6.03-.006-9.044.031-1.984.024-2.155.223-2.2,2.217-.072,3.271-.054,3.292,3.226,3.294,3.3,0,6.61-.05,9.913.023a2.892,2.892,0,0,0,2.966-1.828C37.5,80.5,43.042,76.816,50.422,76.842A17.284,17.284,0,0,1,66.4,86.524,3.912,3.912,0,0,0,70.455,88.9c16.987-.064,33.973-.037,50.96-.038.464,0,.928-.021,1.391-.009,1.1.029,1.554-.5,1.558-1.585.009-2.434-.048-4.869.029-7.3-.089-3.625-.072-7.249-.015-10.872.036-2.288.857-3.309,3.011-4.065,2.249.2,2.861.683,3.527,2.752.11,6.807-.046,13.621.144,20.591.959-.339,1.1-1.068,1.4-1.63,3.47-6.446,8.984-9.938,16.171-9.9a17.144,17.144,0,0,1,16.045,10.034c.8,1.594,1.73,2.373,3.466,2.047,1.245-.234,2.661.6,3.74-.6a74.1,74.1,0,0,0-.025-10.36c-1.022-1.123-2.337-.386-3.508-.554a9.159,9.159,0,0,1-8.073-8.17c-.162-2.242-.077-4.5-.023-6.746a3.539,3.539,0,0,1,1.5-2.974,4.7,4.7,0,0,1,2.509-.559c1.389-.02,2.781.03,4.168-.023.779-.03,1.927.393,2.246-.376.384-.926-.645-1.627-1.277-2.262a8.132,8.132,0,0,0-5.92-2.5c-10.191-.03-20.382,0-30.573-.024-1.292,0-1.938.435-1.9,1.8a3.708,3.708,0,0,1-1.659,3.6,3.368,3.368,0,0,1-1.921.441c-1.867-.217-2.645-1.484-2.984-3.14a13.727,13.727,0,0,1-.127-2.774q0-21.468,0-42.935c0-.521,0-1.043,0-1.565-.01-3.017-.01-3.026-2.943-3.027q-50.242,0-100.485,0c-.406,0-.812.026-1.216.01-1.173-.048-1.7.5-1.667,1.669.017.636-.01,1.274-.01,1.912q0,21.989,0,43.978c0,.811.028,1.624-.046,2.432-.193,2.109-1.052,3.022-3.212,3.445-2.233-.273-3.219-1.243-3.434-3.388a15.592,15.592,0,0,1-.046-1.562q0-23.71,0-47.421c0-.29,0-.579.009-.868.111-3.5,1.446-5.292,4.743-6.367H126.3c3.189.8,4.592,2.575,4.679,5.932.03,1.158.068,2.32-.005,3.473-.091,1.426.486,1.943,1.914,1.929,5.211-.049,10.423-.023,15.634-.018a25.36,25.36,0,0,1,5.7.38,11.972,11.972,0,0,1,9.467,11.739c0,1.042.023,2.084-.024,3.126a2.46,2.46,0,0,1-.512,1.8c-1.543,1.329-1.076,2.834-.654,4.44q1.636,6.215,3.119,12.469a3.078,3.078,0,0,0,2.3,2.492,15.507,15.507,0,0,1,8.308,6.243,12.484,12.484,0,0,1,1.91,5.831v33.4a3.292,3.292,0,0,1-3.368,2.213c-1.908.058-3.818.009-5.727.024-2.065.016-2.178.052-2.466,2.039a18.342,18.342,0,0,1-6.732,11.757A15.008,15.008,0,0,1,151,112.715" fill="#191f21"/>
          <path id="Path_40923" data-name="Path 40923" d="M42.1,75.71q0-3.081,0-6.163c2.258-.537,2.775-1.195,2.776-3.638q.007-23.991-.028-47.982c0-1.51.271-2.053,1.955-2.05q51.9.084,103.8.007c1.46,0,1.8.373,1.792,1.807-.054,16.052-.036,32.1-.032,48.156,0,2.352.587,3.11,2.786,3.7a7.63,7.63,0,0,1-.009,6.173c-2.241.749-2.767,1.453-2.781,3.739q-.032,5.46-.061,10.921c-2.04.985-4.123.653-6.211.2-1.408-2.137-3.471-2.483-5.877-2.467-12.136.079-24.274.049-36.411.021-1.908,0-3.563.341-4.626,2.1-1.716.929-2.624.814-4.147-.674a27.977,27.977,0,0,0-7.307-5.23,23.362,23.362,0,0,0-25.829,4.1c-.586.566-1.036,1.465-2.111,1.244a3.833,3.833,0,0,0-3.574-2.083c1.019-2.079,1.221-4.135-.173-6.146.62-.85,1.554-.66,2.391-.668,4.054-.035,8.109,0,12.163-.023,2.265-.014,3.378-.741,3.377-2.138,0-1.317-1.309-2.256-3.365-2.267-8.572-.043-17.145,0-25.718-.031-.954,0-1.995.229-2.787-.6" transform="translate(-27.446 -10.35)" fill="#e7e8e8"/>
          <path id="Path_40924" data-name="Path 40924" d="M64.933,212.818c1.733-1.241,3.079-2.9,4.9-4.1a23.833,23.833,0,0,1,27.68,1.015,17.758,17.758,0,0,1,2.594,2.276,3.792,3.792,0,0,0,3.79,1.507c1.273,2.025,3.2,2.257,5.4,2.245q18.223-.1,36.445,0c2.24.013,4.26-.1,5.554-2.236h6.156c.019,2.721.016,5.443.07,8.164.016.811-.227,1.16-1.08,1.118-1.1-.055-2.2-.013-3.3-.013q-25.724,0-51.447.023a2.5,2.5,0,0,1-2.728-1.659c-3.176-6.667-8.649-10.252-15.972-10.257s-12.777,3.6-15.981,10.253A2.49,2.49,0,0,1,64.3,222.83c-4.227-.088-8.458-.065-12.687-.011-1.164.015-1.61-.272-1.614-1.541-.017-4.863-.064-4.863,4.858-4.863,2.2,0,4.4.014,6.6-.006,2.638-.024,3.486-.916,3.471-3.592" transform="translate(-32.594 -133.505)" fill="#d81d24"/>
          <path id="Path_40925" data-name="Path 40925" d="M366.881,175.61q0-3.086.009-6.173l1.392-.328c10.042.075,20.084,0,30.126.064.917.006,2.161-.465,2.606.972a3.755,3.755,0,0,0-1.154,3.1c.064,1.9.088,3.8.021,5.7-.125,3.52,3.485,8.076,7.752,8.244,1.328.341,2.71-.132,4.034.263.155,3.956.185,7.911-.016,11.867a39.182,39.182,0,0,1-5.868.141c-1.112.031-1.088-.88-1.118-1.6-.09-2.138-.107-4.283-.012-6.419a4.585,4.585,0,0,0-1.945-4.007,23.386,23.386,0,0,0-30.431.462c-.13.114-.251.24-.386.349-.528.424-1.049,1.232-1.727.914s-.292-1.238-.314-1.887c-.107-3.057.144-6.121-.136-9.176a3.088,3.088,0,0,0-2.832-2.482" transform="translate(-239.183 -110.245)" fill="#ed1c24"/>
          <path id="Path_40926" data-name="Path 40926" d="M134.076,250.684A12.034,12.034,0,0,1,122.1,262.749a12.319,12.319,0,0,1-12.061-12.1,12.041,12.041,0,0,1,12.109-11.927,11.653,11.653,0,0,1,11.924,11.962" transform="translate(-71.741 -155.631)" fill="#606060"/>
          <path id="Path_40927" data-name="Path 40927" d="M404.242,238.694a11.842,11.842,0,0,1,12.07,11.941A12.165,12.165,0,0,1,404.26,262.72c-6.474.011-12.224-5.732-12.091-12.075a11.938,11.938,0,0,1,12.072-11.951" transform="translate(-255.668 -155.603)" fill="#606060"/>
          <path id="Path_40928" data-name="Path 40928" d="M374.951,194.927c.623,1.445.226,2.961.277,4.441.074,2.118.019,4.24.019,6.7a33.12,33.12,0,0,1,5.957-4.594,23.586,23.586,0,0,1,20.683-1.42,24.272,24.272,0,0,1,7.283,4.586,3.316,3.316,0,0,1,1.243,2.873c-.088,2.43.006,4.866-.041,7.3-.019.974.323,1.339,1.305,1.315,1.737-.043,3.475.012,5.213.026-2.158.5-4.344.146-6.516.2-.864.022-.9-.753-1.159-1.3-2.861-5.962-7.472-9.561-14.1-10.461a17.613,17.613,0,0,0-18.149,10.056c-.146.313-.26.641-.393.96-.192.463-.467.788-1.043.706-.678-.1-.586-.6-.588-1.055-.013-3.012-.032-6.025-.03-9.038,0-3.765.023-7.53.036-11.3" transform="translate(-244.42 -127.08)" fill="#d81d24"/>
          <path id="Path_40929" data-name="Path 40929" d="M411.837,101.111c1,3.81,2.1,7.6,2.8,11.48a1.851,1.851,0,0,1-1.177.17c-6.769,0-13.539-.039-20.307.037-1.474.017-1.993-.549-2.008-1.892-.024-2.314-.09-4.63.024-6.94a3.6,3.6,0,0,1,3.467-3.673c5.2-.258,10.409-.136,15.615-.059a1.692,1.692,0,0,1,1.591.877" transform="translate(-254.972 -65.283)" fill="#818080"/>
          <path id="Path_40930" data-name="Path 40930" d="M403.639,159.525c-.537-.656-1.285-.4-1.944-.4q-14.383-.025-28.766-.018c-.723,0-1.54.22-2.022-.614,1.535-.959,1.53-2.488,1.395-4-.109-1.226.175-1.682,1.559-1.673,10.532.066,21.065.023,31.6.044a8.723,8.723,0,0,1,8.294,6.257c-2.517,0-4.961.022-7.4-.011a6.864,6.864,0,0,0-2.71.422" transform="translate(-241.808 -99.624)" fill="#d81d24"/>
          <path id="Path_40931" data-name="Path 40931" d="M401.24,90.925a3.067,3.067,0,0,0-1.842-.346c-4.861,0-9.721-.005-14.582,0-2.529.005-3.7,1.181-3.7,3.677,0,2.2.06,4.4-.024,6.595-.047,1.231.392,1.582,1.594,1.574,7.117-.047,14.235-.024,21.352-.025-.317.646-.908.322-1.354.323-8.749.022-17.5-.006-26.246.036-1.143.006-1.609-.188-1.59-1.482.079-5.1.063-10.2.008-15.293-.012-1.11.254-1.484,1.431-1.476q11.037.081,22.074,0c1.086-.007,1.511.314,1.7,1.387.293,1.692.78,3.351,1.184,5.024" transform="translate(-244.375 -55.097)" fill="#606060"/>
          <path id="Path_40932" data-name="Path 40932" d="M388.462,56.5c-4,0-8-.06-11.991.033-1.344.032-1.724-.392-1.605-1.667a23.552,23.552,0,0,0,.007-3.473c-.051-.925.311-1.191,1.2-1.188,6.6.028,13.208-.031,19.812.038a6.13,6.13,0,0,1,5.987,4.638c.3,1.126.145,1.675-1.249,1.647-4.054-.082-8.11-.029-12.165-.029" transform="translate(-244.375 -32.73)" fill="#d81d24"/>
          <path id="Path_40933" data-name="Path 40933" d="M481.028,186.965c3,0,3,0,3,2.926,0,.058.022.129,0,.172-.6,1.016,1.438,3.231-1.518,3.2-3.664-.04-4.732-.8-4.763-3.648-.029-2.649-.029-2.649,3.281-2.649" transform="translate(-311.457 -121.889)" fill="#fff"/>
          <path id="Path_40934" data-name="Path 40934" d="M488,221.237c-1.345-.1-2.723.32-4.035-.263,1.344.113,2.723-.322,4.035.263" transform="translate(-315.512 -144.028)" fill="#ee9018"/>
          <path id="Path_40935" data-name="Path 40935" d="M25.754,187.78l28.51.065a10.755,10.755,0,0,1,1.562.035,2.986,2.986,0,0,1,2.539,2.865A2.72,2.72,0,0,1,55.5,193.4c-4.637.033-9.273.011-13.91.019-.634,0-1.268.056-1.9.086l-18.356-.039c-.52,0-1.041.021-1.558-.016a2.752,2.752,0,0,1-2.751-2.74,2.793,2.793,0,0,1,2.843-2.853c1.959-.071,3.922-.054,5.883-.075" transform="translate(-11.101 -122.421)" fill="#191f21"/>
          <path id="Path_40936" data-name="Path 40936" d="M252.247,224.833c-.474,2.249-1.156,2.875-3.378,2.878q-20.311.022-40.621,0c-2.216,0-2.778-.526-3.4-2.886.854-2.229,1.489-2.7,3.839-2.7q19.878-.01,39.757,0c2.363,0,3.1.545,3.805,2.7" transform="translate(-133.546 -144.81)" fill="#191f21"/>
          <path id="Path_40937" data-name="Path 40937" d="M139.544,262.38a5.737,5.737,0,0,1-5.823,5.807,6.037,6.037,0,0,1-5.713-5.852,5.739,5.739,0,0,1,5.941-5.685,5.445,5.445,0,0,1,5.6,5.73" transform="translate(-83.452 -167.319)" fill="#050605"/>
          <path id="Path_40938" data-name="Path 40938" d="M415.846,256.651a5.722,5.722,0,0,1,5.888,5.76,5.86,5.86,0,0,1-11.718.059,5.722,5.722,0,0,1,5.83-5.819" transform="translate(-267.304 -167.32)" fill="#050605"/>
          <g id="Group_54839" data-name="Group 54839" transform="translate(44.961 15.39)">
            <g id="Group_54837" data-name="Group 54837">
              <path id="Path_43905" data-name="Path 43905" d="M353.444,482.278l27.445.045a30.261,30.261,0,0,1-.6,20.506s-16.955-20.247-35.539-4.911Z" transform="translate(-340.71 -482.278)" fill="#606060" fill-rule="evenodd"/>
              <path id="Path_43906" data-name="Path 43906" d="M415.329,513.377l-13.511,23.89a30.26,30.26,0,0,1-17.572-10.587s25.963-4.835,21.722-28.553Z" transform="translate(-362.242 -490.918)" fill="#606060" fill-rule="evenodd"/>
              <path id="Path_43907" data-name="Path 43907" d="M349.372,542.915l-13.507-23.891a30.258,30.258,0,0,1,18.13-9.6s-9.24,24.74,13.271,33.332Z" transform="translate(-335.865 -497.077)" fill="#606060" fill-rule="evenodd"/>
            </g>
            <path id="Path_43908" data-name="Path 43908" d="M381.358,509.875A38.894,38.894,0,0,1,399.4,520.438" transform="translate(-360.667 -497.323)" fill="#606060" fill-rule="evenodd"/>
            <path id="Path_43909" data-name="Path 43909" d="M399.221,533.4a38.889,38.889,0,0,1-18.2,10.287" transform="translate(-360.482 -510.149)" fill="#606060" fill-rule="evenodd"/>
            <path id="Path_43910" data-name="Path 43910" d="M379.026,509.876a38.9,38.9,0,0,0,0,20.908" transform="translate(-358.627 -497.324)" fill="#606060" fill-rule="evenodd"/>
          </g>
        </g>
      </g>
      <path id="Path_40939" data-name="Path 40939" d="M433.9,339.614a1.888,1.888,0,1,0-1.944-1.831,1.934,1.934,0,0,0,1.944,1.831" transform="translate(-383.595 -242.724)" fill="#e7e8e8"/>
      <path id="Path_40940" data-name="Path 40940" d="M433.9,339.614a1.888,1.888,0,1,0-1.944-1.831,1.934,1.934,0,0,0,1.944,1.831" transform="translate(-285.407 -242.724)" fill="#e7e8e8"/>
    </g>
  </g>
</svg>
