<svg id="Masaha-Services-MegaMenu-Rent-Logistic-icon" xmlns="http://www.w3.org/2000/svg" xmlns:xlink="http://www.w3.org/1999/xlink" width="104" height="104" viewBox="0 0 104 104">
  <defs>
    <clipPath id="clip-path">
      <rect id="Rectangle_52537" data-name="Rectangle 52537" width="104" height="104" transform="translate(499 479)" fill="#fff" stroke="#707070" stroke-width="1"/>
    </clipPath>
    <radialGradient id="radial-gradient" cx="0.5" cy="0.5" r="0.5" gradientUnits="objectBoundingBox">
      <stop offset="0"/>
      <stop offset="1" stop-color="#19304c" stop-opacity="0"/>
    </radialGradient>
    <clipPath id="clip-path-2">
      <rect id="Rectangle_52195" data-name="Rectangle 52195" width="86.543" height="61.157" fill="none"/>
    </clipPath>
  </defs>
  <g id="Mask_Group_18905" data-name="Mask Group 18905" transform="translate(-499 -479)" clip-path="url(#clip-path)">
    <g id="Group_54623" data-name="Group 54623" transform="translate(495.718 486.662)">
      <ellipse id="Ellipse_28" data-name="Ellipse 28" cx="49.653" cy="2.581" rx="49.653" ry="2.581" transform="translate(7.873 74.976)" fill="url(#radial-gradient)"/>
      <g id="Group_53902" data-name="Group 53902" transform="translate(14.046 16.4)">
        <g id="Group_53902-2" data-name="Group 53902" clip-path="url(#clip-path-2)">
          <path id="Path_40972" data-name="Path 40972" d="M73.528,61.157H70.992a7.827,7.827,0,0,1-4.415-1.643A9.387,9.387,0,0,1,63.2,54.6c-.4-1.294-.411-1.291-1.8-1.291H46.815a7.525,7.525,0,0,1-1.095-.035A1.336,1.336,0,0,1,44.4,52.088c.02-1.287.563-1.831,1.963-1.849,2.844-.036,5.688-.009,8.533-.013,1.613,0,1.614,0,1.615-1.618q0-4.729,0-9.457c0-1.332-.024-1.355-1.38-1.356q-23.317,0-46.634,0a9.107,9.107,0,0,1-1.264-.031c-.841.019-1.683.007-2.526.008-1.806,0-1.878.032-1.894.818-.016.825.036.851,1.931.847a5.316,5.316,0,0,1,2.475.368,3.75,3.75,0,0,1-.107,6.839,8.835,8.835,0,0,1-3.162.228c-1.155.039-1.306.225-.851,1.275A3.344,3.344,0,0,0,6.175,50.25c.866.052,1.737.016,2.606.014s1.748-.041,2.617.014a1.174,1.174,0,0,0,1.372-1.018,8.624,8.624,0,0,1,7.014-6.426c4.954-.972,9.707,1.619,11.03,6.569a1.031,1.031,0,0,0,1.2.872q4.1-.031,8.191,0c1.245.01,1.813.474,2.03,1.572-.279,1.166-.6,1.443-1.8,1.449-2.73.015-5.46.024-8.189-.008a1.154,1.154,0,0,0-1.354,1.006A9.224,9.224,0,0,1,25.2,60.749a12.01,12.01,0,0,1-2.215.408h-2.7c-4.141-.622-6.582-3.1-7.661-7.04a.987.987,0,0,0-1.139-.836c-1.659.025-3.319.009-4.978.008A6.138,6.138,0,0,1,0,47.98V2.2A2.477,2.477,0,0,1,2.2,0H10.48a1.322,1.322,0,0,1,1.061,1.348A1.517,1.517,0,0,1,9.883,2.789c-.9.031-1.8.027-2.7,0-1.041.072-2.083.016-3.124.033C2.9,2.84,2.829,2.9,2.825,4.084c-.009,2.814,0,5.628,0,8.441q0,10.13,0,20.259c0,.31.013.62.005.928-.013.572.261.8.822.8,1.154.011,2.308-.04,3.462.03a9.429,9.429,0,0,1,1.1-.034H54.852c1.651,0,1.652,0,1.652-1.671q0-14.146,0-28.293c0-.056,0-.113,0-.169,0-1.549,0-1.554-1.535-1.554q-19.224,0-38.447,0c-.366,0-.732-.005-1.1-.005a1.624,1.624,0,0,1-1.729-1.2C13.654.609,13.8.38,14.705,0H57.132a3.065,3.065,0,0,1,2.619,3.346c.042,2.129.006,4.26.014,6.39,0,1.1.045,1.136,1.127,1.149.533.006,1.067-.024,1.6.022a1.705,1.705,0,0,1,1.764,1.665,1.554,1.554,0,0,1-1.725,1.382c-.618.028-1.238-.006-1.856.029-.571.032-.885.3-.885.893,0,.281-.01.562-.01.843q0,16.494,0,32.988c0,.169,0,.338,0,.506.023.928.089.993,1.023,1.02,1.947.056,1.947.056,2.7-1.763a6.1,6.1,0,0,1,.36-.761,14.5,14.5,0,0,1,1.1-1.678,9.459,9.459,0,0,1,16.273,3.075c.2.541.245,1.212,1.1,1.113a1.636,1.636,0,0,0,1.387-1.479,6.49,6.49,0,0,0,.022-.759q0-8.232,0-16.464c0-1.166-.016-1.183-1.175-1.183q-7.1-.005-14.191,0a4.215,4.215,0,0,1-3.439-1.293,3.872,3.872,0,0,1-.96-2.706c.041-2.3,0-4.611.015-6.916A3.494,3.494,0,0,1,67.6,15.795c1.547-.017,3.094,0,4.641-.006.193,0,.449.059.552-.115.14-.237-.1-.41-.241-.575a3.183,3.183,0,0,0-2.444-1.144c-.731-.031-1.464.017-2.194-.026-1.008-.06-1.358-.393-1.547-1.424A1.55,1.55,0,0,1,68,10.941a23.189,23.189,0,0,1,2.7,0,5.934,5.934,0,0,1,4.32,2.34q5.062,6.154,10.168,12.271a5.211,5.211,0,0,1,1.352,3V49.669a4.063,4.063,0,0,1-4.16,3.6c-.6.028-.814.287-.953.824a9.582,9.582,0,0,1-5.469,6.54,11.906,11.906,0,0,1-2.433.528" fill="#191f21"/>
          <path id="Path_40973" data-name="Path 40973" d="M44.736,6.978a17.851,17.851,0,0,0,2.491.122c.336,1.049.583,1.232,1.7,1.232H88.979c1.245,0,1.246,0,1.246,1.259,0,9.995-.011,19.99.02,29.985,0,.848-.2,1.08-1.067,1.078q-23.873-.042-47.746-.022c-.309,0-.619-.019-.928-.029a1.54,1.54,0,0,1-.285-1.117q-.007-14.778.005-29.556a1.971,1.971,0,0,1,.46-1.572c.871-.009,1.742-.016,2.612-.028.95-.013,1.344-.385,1.44-1.354" transform="translate(-33.406 -5.797)" fill="#e7e8e8"/>
          <path id="Path_40974" data-name="Path 40974" d="M78.009,236.09c-.173-.355-.484-.367-.826-.36-.576.011-1.152-.01-1.727-.018-.288-1.015-.631-1.3-1.658-1.3-2.868-.006-5.737-.044-8.6.024-.8.019-1.028-.262-1.2-.958a8.785,8.785,0,0,0-7.682-6.671c-4.217-.394-7.789,1.52-9.431,5.06a7.341,7.341,0,0,0-.643,1.99.564.564,0,0,1-.669.56c-1.123-.037-2.248-.029-3.372-.04a3.862,3.862,0,0,1-1.7-4.048c2.753-1.657,2.833-4.543.177-6.407a2.264,2.264,0,0,1-.162-2.512c.309-.014.617-.039.926-.039q23.9,0,47.8-.02c.8,0,1.039.166,1.028,1-.05,3.769-.034,7.54-.009,11.31,0,.585-.153.763-.75.758-3.293-.027-6.587-.016-9.88-.011-1.249,0-1.673.451-1.618,1.676" transform="translate(-33.407 -183.886)" fill="#ed1c24"/>
          <path id="Path_40975" data-name="Path 40975" d="M379.861,170.211a4.1,4.1,0,0,0,3.14,1.14c4.957-.02,9.913,0,14.87-.023.7,0,.955.109.949.9-.04,5.855-.02,11.71-.023,17.565a1.848,1.848,0,0,1-2.069,2.077c-.523.013-.668-.213-.779-.637a8.773,8.773,0,0,0-7.149-6.875,9.019,9.019,0,0,0-8.962,3.256c-.453.236-.679-.007-.823-.4a1.676,1.676,0,0,1-.061-.582q-.01-4.956,0-9.911a1.255,1.255,0,0,1,.4-1.138c1.5.145,3.007.117,4.513.115a3.153,3.153,0,0,0,1-.09.908.908,0,0,0,.734-.908.96.96,0,0,0-.726-.927,2.911,2.911,0,0,0-.917-.092,33.935,33.935,0,0,0-4.524.147,1,1,0,0,1-.45-.849,11.546,11.546,0,0,1,0-2.163c.05-.487.254-.885.878-.605" transform="translate(-314.791 -141.323)" fill="#ed1c24"/>
          <path id="Path_40976" data-name="Path 40976" d="M355.811,73.578l1,.043a.5.5,0,0,1-.081.482,4.534,4.534,0,0,0-.664,2.809q-.346,5.394-.152,10.793c.076,2.158.093,4.318.09,6.47q-.01,6.119-.037,12.24a8.056,8.056,0,0,1-.058,2.332,9.145,9.145,0,0,0-.861,2.358c-.069.378-.208.575-.652.555-.87-.04-1.744-.038-2.615,0-.507.021-.649-.191-.593-.643a2.767,2.767,0,0,0,0-.337q0-17.246,0-34.493c0-1.273.047-1.317,1.347-1.32.534,0,1.07-.024,1.6,0a1.437,1.437,0,0,0,1.67-1.291" transform="translate(-291.734 -61.124)" fill="#d81d24"/>
          <path id="Path_40977" data-name="Path 40977" d="M19.633,14.914a18.667,18.667,0,0,0-.173,3.864q-.01,14.191-.007,28.382c-1.21.006-2.423-.031-3.63.033-.738.039-.952-.176-.949-.933.031-6.3.018-12.606.018-18.91,0-3.8.018-7.6-.015-11.4-.007-.79.2-1.127,1.042-1.081,1.235.067,2.476.033,3.714.042" transform="translate(-12.356 -12.351)" fill="#818080"/>
          <path id="Path_40978" data-name="Path 40978" d="M420.053,109.631c1.291-.013,2.581-.021,3.872-.043a.744.744,0,0,1,.648.3q3.4,4.168,6.819,8.326c.021.393-.286.274-.472.275-3.451.008-6.9,0-10.353.015a.737.737,0,0,1-.822-.65,1.506,1.506,0,0,1-.055-.246,55,55,0,0,1,0-7.14,1.251,1.251,0,0,1,.364-.832" transform="translate(-348.552 -91.038)" fill="#818080"/>
          <path id="Path_40979" data-name="Path 40979" d="M96.4,268.474a6.348,6.348,0,0,1,6.574,6.531,6.646,6.646,0,0,1-6.654,6.639,6.57,6.57,0,0,1-6.521-6.732,6.252,6.252,0,0,1,6.6-6.438" transform="translate(-74.6 -223.03)" fill="#606060"/>
          <path id="Path_40980" data-name="Path 40980" d="M394.365,268.417a6.44,6.44,0,0,1,6.611,6.62,6.625,6.625,0,0,1-13.249-.1,6.485,6.485,0,0,1,6.638-6.522" transform="translate(-322.095 -222.98)" fill="#606060"/>
          <path id="Path_40981" data-name="Path 40981" d="M399.189,109.671a61.547,61.547,0,0,0-.169,6.883c0,.14,0,.281,0,.421.041,1.413.085,1.456,1.457,1.456,3.033,0,6.065,0,9.1-.006.321,0,.682.126.953-.176.162.1.193.226,0,.278a2.373,2.373,0,0,1-.589.018q-7.056-.007-14.113-.017c-1.2,0-1.361-.163-1.362-1.373q0-3.167,0-6.335c0-.983.208-1.187,1.181-1.184,1.182,0,2.364.023,3.546.035" transform="translate(-327.689 -91.078)" fill="#606060"/>
          <path id="Path_40982" data-name="Path 40982" d="M378.476,108.638a1.636,1.636,0,0,1-.109-.987c-.006-10.387.01-20.774-.025-31.16a3.732,3.732,0,0,1,1.036-2.979l1.446-.066c.248,1.047.524,1.271,1.622,1.285.675.009,1.35.018,2.024,0,1.617-.044,2.528.958,3.422,2.3h-2.522c-1.18,0-2.361-.016-3.542.007a3.257,3.257,0,0,0-3.291,3.3c-.015,2.416.009,4.833-.011,7.249a4.04,4.04,0,0,0,.845,2.32c-.3,0-.647.047-.635.387.038,1.06-.331,2.169.318,3.168a9.681,9.681,0,0,0-.006,1.848,1.21,1.21,0,0,0-.349,1.071q0,5,0,10.009c0,.463-.044.946.647.918l-.87,1.334" transform="translate(-314.3 -61.014)" fill="#ed1c24"/>
          <path id="Path_40983" data-name="Path 40983" d="M19.567,274.4a9.536,9.536,0,0,1,.246,1.645,5.257,5.257,0,0,0,1.454,2.4c-.925.007-1.851.041-2.776.016a3.79,3.79,0,0,1-3.47-3.32c-.036-.436.159-.528.535-.521.813.014,1.627,0,2.441,0a4.713,4.713,0,0,0,1.57-.227" transform="translate(-12.475 -227.949)" fill="#d81d24"/>
          <path id="Path_40984" data-name="Path 40984" d="M19.479,221.53a8.251,8.251,0,0,0,.162,2.512,10.137,10.137,0,0,0-4-.32c-.6,0-.759-.175-.751-.761.022-1.467-.007-1.472,1.465-1.466,1.04,0,2.08.023,3.12.035" transform="translate(-12.372 -184.002)" fill="#d81d24"/>
          <path id="Path_40985" data-name="Path 40985" d="M16.735,249.573c.42,0,.843-.031,1.259.008.563.052.957.336.947.959s-.383.887-.979.89c-.84,0-1.68-.01-2.519.02-.448.016-.557-.157-.566-.586-.027-1.3-.047-1.3,1.27-1.3h.588Z" transform="translate(-12.353 -207.318)" fill="#e40028"/>
          <path id="Path_40986" data-name="Path 40986" d="M380.759,191.79a1.364,1.364,0,0,1,.006-1.848,1.866,1.866,0,0,1,1.175-.351c1.233.021,2.466,0,3.7.009.933.006,1.542.546,1.51,1.315-.031.744-.6,1.21-1.517,1.215-1.233.007-2.467-.013-3.7.009a1.818,1.818,0,0,1-1.174-.35" transform="translate(-316.011 -157.499)" fill="#050605"/>
          <path id="Path_40987" data-name="Path 40987" d="M103.762,277.358a5,5,0,0,1,5.11,5.041,5.162,5.162,0,0,1-5.1,5.111,5.068,5.068,0,0,1-5.065-5.108,4.879,4.879,0,0,1,5.056-5.044" transform="translate(-81.998 -230.41)" fill="#191f21"/>
          <path id="Path_40988" data-name="Path 40988" d="M401.795,277.365a4.985,4.985,0,0,1,5.133,5,5.124,5.124,0,0,1-10.247.1,4.935,4.935,0,0,1,5.114-5.1" transform="translate(-329.535 -230.411)" fill="#191f21"/>
          <path id="Path_40989" data-name="Path 40989" d="M113.831,294.861a2.417,2.417,0,0,1,2.462-2.43,2.52,2.52,0,0,1,2.6,2.433,2.648,2.648,0,0,1-2.572,2.606,2.459,2.459,0,0,1-2.49-2.608" transform="translate(-94.562 -242.931)" fill="#e7e8e8"/>
          <path id="Path_40990" data-name="Path 40990" d="M417.291,295a2.461,2.461,0,1,1-4.917-.134,2.4,2.4,0,0,1,2.525-2.438A2.428,2.428,0,0,1,417.291,295" transform="translate(-342.572 -242.93)" fill="#e7e8e8"/>
          <g id="Group_54838" data-name="Group 54838" transform="translate(15.201 5.873)">
            <g id="Group_54837" data-name="Group 54837" transform="translate(0 0)">
              <path id="Path_43905" data-name="Path 43905" d="M349.557,482.278l15.173.025a16.73,16.73,0,0,1-.332,11.337s-9.373-11.193-19.647-2.715Z" transform="translate(-342.517 -482.278)" fill="#606060" fill-rule="evenodd"/>
              <path id="Path_43906" data-name="Path 43906" d="M401.429,506.557l-7.469,13.207a16.729,16.729,0,0,1-9.714-5.853s14.353-2.673,12.009-15.785Z" transform="translate(-372.081 -494.141)" fill="#606060" fill-rule="evenodd"/>
              <path id="Path_43907" data-name="Path 43907" d="M343.332,527.938l-7.467-13.208a16.727,16.727,0,0,1,10.023-5.307s-5.108,13.677,7.337,18.427Z" transform="translate(-335.865 -502.598)" fill="#606060" fill-rule="evenodd"/>
            </g>
            <path id="Path_43908" data-name="Path 43908" d="M381.358,509.875a21.5,21.5,0,0,1,9.975,5.84" transform="translate(-369.919 -502.936)" fill="#606060" fill-rule="evenodd"/>
            <path id="Path_43909" data-name="Path 43909" d="M391.082,533.4a21.5,21.5,0,0,1-10.063,5.687" transform="translate(-369.666 -520.546)" fill="#606060" fill-rule="evenodd"/>
            <path id="Path_43910" data-name="Path 43910" d="M378.4,509.876a21.5,21.5,0,0,0,0,11.559" transform="translate(-367.118 -502.937)" fill="#606060" fill-rule="evenodd"/>
          </g>
        </g>
      </g>
    </g>
  </g>
</svg>
