<svg id="MASAHA-Services-Rent-MaterialHandling-Icon" xmlns="http://www.w3.org/2000/svg" xmlns:xlink="http://www.w3.org/1999/xlink" width="120.51" height="90.598" viewBox="0 0 120.51 90.598">
  <defs>
    <radialGradient id="radial-gradient" cx="0.5" cy="0.5" r="0.5" gradientUnits="objectBoundingBox">
      <stop offset="0"/>
      <stop offset="1" stop-color="#19304c" stop-opacity="0"/>
    </radialGradient>
    <clipPath id="clip-path">
      <rect id="Rectangle_51393" data-name="Rectangle 51393" width="87.869" height="87.87" fill="none"/>
    </clipPath>
  </defs>
  <ellipse id="Ellipse_27" data-name="Ellipse 27" cx="55.568" cy="4.395" rx="55.568" ry="4.395" transform="translate(0 81.809)" fill="url(#radial-gradient)"/>
  <g id="Group_52949" data-name="Group 52949" transform="translate(32.641)" style="isolation: isolate">
    <g id="Group_52950" data-name="Group 52950" transform="translate(0 0)">
      <g id="Group_52949-2" data-name="Group 52949" clip-path="url(#clip-path)">
        <path id="Path_38669" data-name="Path 38669" d="M27.294,73.352a13.161,13.161,0,0,1,2.156-.643,11.459,11.459,0,0,0,5.713-17.343c-.383-.567-.482-.928.12-1.377a9.152,9.152,0,0,0,1.155-1.134,2.519,2.519,0,0,0-.281-3.93,1.559,1.559,0,0,1-.682-1.413q.034-12.721,0-25.442c0-.786.13-1.027.985-1.023,9.7.036,19.408.017,29.111.035a1.909,1.909,0,0,0,1.88-.867,6.533,6.533,0,0,1-3.864.6H36.773c-1.387.01-1.526.13-1.528,1.5v24.94a2.385,2.385,0,0,0,.841,1.946,2.306,2.306,0,0,1,.1,3.536c-.347.378-.7.746-1.082,1.091a1.1,1.1,0,0,0-.241,1.545.855.855,0,0,0,.087.106,11.289,11.289,0,0,1-1.882,14.851,11.237,11.237,0,0,1-4.91,2.5c-.323.083-.775.035-.867.52" transform="translate(19.635 14.842)" fill="#fefefe"/>
        <path id="Path_38670" data-name="Path 38670" d="M2.324,22.035A4.388,4.388,0,0,1,0,19.373v-1.71a4.749,4.749,0,0,1,2.081-2.551,4.22,4.22,0,0,1,1.894-.432c7.09,0,14.184-.13,21.269.075A18.876,18.876,0,0,1,42.933,28.272c.4,1.231.623,2.515.938,3.815.232-.314.128-.628.128-.916q.013-6.662,0-13.328c0-2.255.912-3.172,3.151-3.177,1.68,0,3.361-.031,5.04.016.623.017.806-.121.8-.779-.04-3.359.038-6.722-.043-10.081A3.238,3.238,0,0,1,54.854.4h3.93a3.278,3.278,0,0,1,1.908,3.423c-.05,9.453-.016,18.9-.043,28.364,0,.713.173.867.867.867,8.03-.029,16.061-.012,24.092-.029a1.909,1.909,0,0,1,1.88.867v.855a1.909,1.909,0,0,1-1.88.867c-9.7-.017-19.408,0-29.111-.035-.855,0-.987.238-.985,1.023q.047,12.721,0,25.442a1.559,1.559,0,0,0,.682,1.413,2.523,2.523,0,0,1,.274,3.942,9.047,9.047,0,0,1-1.155,1.136c-.6.447-.5.808-.12,1.377A11.458,11.458,0,0,1,49.48,87.258a13.162,13.162,0,0,0-2.156.643h-2.39a1.393,1.393,0,0,0-.793-.078h-.05a.158.158,0,0,0-.033-.071,11.3,11.3,0,0,1-9.349-8.019c-.253-.742-.532-.919-1.263-.909-2.948.045-5.914.031-8.869,0-.543,0-.763.1-.867.706a10.272,10.272,0,0,1-8.649,8.227.278.278,0,0,1,0,.054h-.094a1.374,1.374,0,0,0-.8.078H13.158c-.253-.163-.532-.066-.8-.08a.559.559,0,0,1-.076,0h-.016a.261.261,0,0,1,0-.052,9.979,9.979,0,0,1-7.821-5.749,7.692,7.692,0,0,1-.867-2.744c-.028-.312-.161-.461-.489-.432A2.939,2.939,0,0,1,0,76.963V62.1a7.372,7.372,0,0,1,2.372-4.1c.248-.194.187-.456.187-.7v-34.6c0-.236.1-.52-.236-.652M41.506,59.528Q39.672,50.462,37.845,41.4c-.642-3.175-1.266-6.354-1.93-9.525a11.5,11.5,0,0,0-11.4-9.492c-4.554-.078-9.112,0-13.668-.029-.5,0-.607.149-.6.621q.029,5.377,0,10.763c0,.5.16.609.626.6a12.4,12.4,0,0,1,3.481.2,6.417,6.417,0,0,1,4.918,6.542c.023,1.937.031,3.874-.012,5.808-.012.619.14.893.786.985a20.127,20.127,0,0,1,7.735,2.957,6.373,6.373,0,0,1,2.45,8.455c-.545,1.087-1.028,1.266-2.194.812l-1.661,1.674a12.715,12.715,0,0,1,1.734,5.029c.033.4.227.512.614.5.824-.028,1.651-.035,2.475,0a.957.957,0,0,0,.907-.467,16.113,16.113,0,0,1,8.966-6.417c.564-.163.52-.453.44-.867" transform="translate(-0.406 0.295)" fill="#191f21"/>
        <path id="Path_38671" data-name="Path 38671" d="M15.207,36.494l1.661-1.674a3.324,3.324,0,0,0-1.661,1.674" transform="translate(10.76 25.567)" fill="#fefefe"/>
        <path id="Path_38672" data-name="Path 38672" d="M6.6,31.381V14.55c0-1.452.409-1.939,1.847-1.948,4.7-.028,9.4-.052,14.1,0a15.313,15.313,0,0,1,8.3,2.144,14.1,14.1,0,0,1,6.514,9.483q2.453,12.13,4.889,24.262c.236,1.167.5,2.329.694,3.5.082.477.3.574.742.578,2.024.021,2,.04,1.589-1.984-1.8-8.921-3.616-17.839-5.357-26.772a16.834,16.834,0,0,0-13.95-13.527,14.343,14.343,0,0,0-2.378-.144q-10.252-.016-20.5,0c-.482,0-.969-.036-1.309.437a1.238,1.238,0,0,0,.64,1.982c1.616.565,1.616.565,1.616,2.286V48.341c0,1.172,0,1.176,1.152,1.11a5.854,5.854,0,0,1,.673-.087c.682.038.751-.335.749-.9-.017-5.7-.01-11.392-.01-17.088" transform="translate(0.686 7.442)" fill="#606060"/>
        <path id="Path_38673" data-name="Path 38673" d="M32.3,47.512a11.6,11.6,0,0,1,6.8-6.776,11.017,11.017,0,0,1,10.405,1.24,1,1,0,0,0,1.583-.173c1.124-1.214,1.155-1.186-.229-2.081a14.007,14.007,0,0,0-19.4,4.013l-.042.064a2.343,2.343,0,0,1-2.3,1.214c-1.448-.076-2.9-.01-4.355-.023-1.266-.01-1.654-.414-1.684-1.7a9.036,9.036,0,0,0-9.037-9.034h-.024c-3.3-.014-6.6,0-9.906,0a1.522,1.522,0,0,0-.328.075A1.549,1.549,0,0,0,3.5,35.457c0,2.957-.014,5.916,0,8.873,0,.416-.135.938.454,1.143a10.1,10.1,0,0,1,10.388-2.381,10.293,10.293,0,0,1,5.534,4.421,1.879,1.879,0,0,0,1.06.264H31.338a1.415,1.415,0,0,0,.968-.257" transform="translate(2.151 25.148)" fill="#ed1c24"/>
        <path id="Path_38674" data-name="Path 38674" d="M30.668,10.162c-.966,0-1.937.04-2.9-.024-.746-.049-.888.255-.884.931.024,5.175.014,10.352.014,15.527,0,3.356.075,6.713-.024,10.059a35.028,35.028,0,0,0,1.086,7.466c.52,2.756,1.12,5.492,1.648,8.245a.88.88,0,0,0,.732.791,11.879,11.879,0,0,1,2.4.855c.458.236.52.038.512-.369-.021-1.214-.017-2.445-.024-3.668a2.389,2.389,0,0,0-1.432-.694,1,1,0,0,1-.834-1.11c.014-.347,0-.683,0-1.025V11.706a2.179,2.179,0,0,0-.281-1.561" transform="translate(19.326 7.44)" fill="#606060"/>
        <path id="Path_38675" data-name="Path 38675" d="M5.914,22.2V39.89c0,1.127,0,1.126,1.167,1.127a58.387,58.387,0,0,1,6.564.16,11.272,11.272,0,0,1,7.847,4.481c.173.222.359.43.539.647l1.661-1.674c-.694-.867-.243-1.654.139-2.452A14.782,14.782,0,0,0,14.667,37.2a15.793,15.793,0,0,0-2.119-.22,2.257,2.257,0,0,1-2.454-2.53c-.012-3.84,0-7.679,0-11.519A1.734,1.734,0,0,0,9.863,21.7,11.786,11.786,0,0,0,6.3,21.511c-.493-.014-.376.413-.378.694" transform="translate(3.937 15.754)" fill="#606060"/>
        <path id="Path_38676" data-name="Path 38676" d="M29.067,10.173q0,18.951-.014,37.9c0,.943.26,1.41,1.174,1.561A14.045,14.045,0,0,1,31.614,50q.008-8.371.017-16.743,0-11.105.016-22.211c0-.694-.146-1-.884-.912-.562.064-1.136.033-1.7.043" transform="translate(20.926 7.429)" fill="#818080"/>
        <path id="Path_38677" data-name="Path 38677" d="M27.859,39.233a9.033,9.033,0,0,0-6.66,9.32,9.167,9.167,0,0,0,8.258,8.259,9.033,9.033,0,0,0,9.32-6.66c-.786-.694-1.68-.347-2.546-.271-.316.1-.394.385-.52.635a6.164,6.164,0,0,1-11.273-4.948c.532-1.316.838-1.5,2.234-1.427a.858.858,0,0,0,.467-.288,5.608,5.608,0,0,0,1.115-3.642,1.08,1.08,0,0,0-.39-.976" transform="translate(15.145 28.808)" fill="#606060"/>
        <path id="Path_38678" data-name="Path 38678" d="M34.6,16.838c0-4.7-.012-9.4.014-14.1,0-.656-.151-.886-.848-.867-1.734.036-1.734,0-1.734,1.686,0,9.114.012,18.227-.019,27.341,0,.845.173,1.139,1.068,1.091,1.511-.08,1.514-.021,1.514-1.561V16.838" transform="translate(23.097 1.375)" fill="#606060"/>
        <path id="Path_38679" data-name="Path 38679" d="M9.758,40.614a7.69,7.69,0,0,0-6.2,6.3,7.786,7.786,0,0,0,5.565,8.618A7.68,7.68,0,0,0,18.5,50.047c.049-.187.09-.375.125-.565a2.46,2.46,0,0,0-2.463-.147c-.347.163-.439.5-.588.8a4.892,4.892,0,0,1-9.309-1.361,3.426,3.426,0,0,1,.047-1.354c.224-.969.482-1.19,1.509-1.269a3.563,3.563,0,0,0,1.311-1.268,6.089,6.089,0,0,0,.982-2.676,1.836,1.836,0,0,0-.347-1.594" transform="translate(2.147 29.822)" fill="#606060"/>
        <path id="Path_38680" data-name="Path 38680" d="M8.191,21.6c0,4.384-.021,8.768-.012,13.153A2.4,2.4,0,0,0,10.6,37.124a16.093,16.093,0,0,1,9.771,3.444c.623.48.992,1.259,1.8,1.509a3.878,3.878,0,0,0-1.883-4.719,19.514,19.514,0,0,0-8.151-2.775c-1.119-.137-1.413-.512-1.417-1.623V25.538A3.924,3.924,0,0,0,8.2,21.6" transform="translate(5.598 15.859)" fill="#818080"/>
        <path id="Path_38681" data-name="Path 38681" d="M5.425,45.436c-.272-.251-.173-.581-.173-.881q-.008-5.133,0-10.262A3.682,3.682,0,0,0,1.5,37.9V38c-.055,4.291-.019,8.581-.017,12.872,0,.238-.083.55.347.52.295-.019.609.094.694-.4a10.766,10.766,0,0,1,2.912-5.562" transform="translate(0.672 25.18)" fill="#d81d24"/>
        <path id="Path_38682" data-name="Path 38682" d="M25.4,39.391a5.671,5.671,0,0,1-.867,4.565c.773.021,1.322-.5,1.963-.8.565-1.316.931-1.439,2.364-1.19a6.177,6.177,0,0,1,4.878,7.248c-.014.069-.029.14-.045.21a.694.694,0,0,0,.068.725c.85.156,1.734-.173,2.567.173A8.192,8.192,0,0,0,35,42.877a8.748,8.748,0,0,0-9.192-3.642,2.143,2.143,0,0,0-.4.153" transform="translate(17.606 28.649)" fill="#606060"/>
        <path id="Path_38683" data-name="Path 38683" d="M25.362,41.9H12.934a10.867,10.867,0,0,1,1.29,3.389c.069.456.262.536.662.534q4.636-.018,9.271,0c.31,0,.539,0,.545-.428a14.3,14.3,0,0,1,.659-3.488" transform="translate(9.091 30.763)" fill="#d81d24"/>
        <path id="Path_38684" data-name="Path 38684" d="M7.457,40.664a5.524,5.524,0,0,1-.845,4.289c.456.173.767-.09,1.079-.347.487-1.3.9-1.509,2.265-1.164a4.9,4.9,0,0,1,3.729,5.295c-.026.274-.154.562.094.806a5.676,5.676,0,0,1,2.544,0,7.591,7.591,0,0,0-8.865-8.866" transform="translate(4.449 29.772)" fill="#606060"/>
        <path id="Path_38685" data-name="Path 38685" d="M35.118,49.035a6.354,6.354,0,0,0-2.138-7.163,6.059,6.059,0,0,0-3.763-1.353c-.93-.033-1.342.442-1.424,1.507.055.754.373,1.1,1.2,1.228a5.908,5.908,0,0,1,1.483.364,3.612,3.612,0,0,1,2.109,4.044,3.7,3.7,0,0,1-3.748,2.862,3.737,3.737,0,0,1-3.375-3.306,5.713,5.713,0,0,1,.612-2.457,1.215,1.215,0,0,0-.441-1.66l-.052-.028c-1.269-.347-1.641-.173-2.241,1a6.378,6.378,0,0,0,10.09,7.483,7.491,7.491,0,0,0,1.686-2.522" transform="translate(16.24 29.751)"/>
        <path id="Path_38686" data-name="Path 38686" d="M24.508,42.433a1.864,1.864,0,0,1,.054,2.2,3.544,3.544,0,0,0,.493,4.065,3.583,3.583,0,0,0,3.741,1.3,3.707,3.707,0,0,0,2.948-2.976,3.816,3.816,0,0,0-2.971-4.5,3.874,3.874,0,0,0-.487-.068,1.585,1.585,0,0,1-1.561-1.072,4.738,4.738,0,0,0-1.908.831l-.307.215" transform="translate(17.316 30.388)" fill="#e7e8e8"/>
        <path id="Path_38687" data-name="Path 38687" d="M15,48.474a5.183,5.183,0,0,0-3.7-6.327,4.818,4.818,0,0,0-.607-.121c-1.24-.173-1.831.291-1.883,1.516.028.741.284,1.013,1.214,1.195a2.679,2.679,0,0,1,1.889,1.015,2.232,2.232,0,0,1,.009,2.7,2.372,2.372,0,0,1-2.4.916,2.529,2.529,0,0,1-1.8-2.149c-.038-.4.012-.8-.04-1.188-.068-.506-.245-.937-.848-1a1.253,1.253,0,0,0-1.654.64,1.275,1.275,0,0,0-.1.4,5.011,5.011,0,0,0,3.408,5.9,5.118,5.118,0,0,0,6.313-2.948c.073-.184.14-.369.212-.555" transform="translate(3.226 30.832)"/>
        <path id="Path_38688" data-name="Path 38688" d="M6.031,44.377c.756.425.744,1.1.678,1.852A2.552,2.552,0,0,0,8.84,48.985a2.587,2.587,0,0,0,2.891-1.955,2.552,2.552,0,0,0-2.32-3.122,1.41,1.41,0,0,1-1.4-1.023l-.973.347L6.033,44.376" transform="translate(4.022 31.49)" fill="#e7e8e8"/>
      </g>
    </g>
  </g>
</svg>
