<svg id="Group_54623" data-name="Group 54623" xmlns="http://www.w3.org/2000/svg" xmlns:xlink="http://www.w3.org/1999/xlink" width="209.27" height="115.678" viewBox="0 0 209.27 115.678">
  <defs>
    <radialGradient id="radial-gradient" cx="0.5" cy="0.5" r="0.5" gradientUnits="objectBoundingBox">
      <stop offset="0"/>
      <stop offset="1" stop-color="#19304c" stop-opacity="0"/>
    </radialGradient>
    <clipPath id="clip-path">
      <rect id="Rectangle_52195" data-name="Rectangle 52195" width="157.067" height="110.995" fill="none"/>
    </clipPath>
  </defs>
  <ellipse id="Ellipse_28" data-name="Ellipse 28" cx="104.635" cy="4.685" rx="104.635" ry="4.685" transform="translate(0 106.308)" fill="url(#radial-gradient)"/>
  <g id="Group_53902" data-name="Group 53902" transform="translate(25.722 0)">
    <g id="Group_53902-2" data-name="Group 53902" clip-path="url(#clip-path)">
      <path id="Path_40972" data-name="Path 40972" d="M133.446,110.995h-4.6a14.2,14.2,0,0,1-8.012-2.981,17.036,17.036,0,0,1-6.126-8.92c-.719-2.348-.747-2.342-3.267-2.343q-13.238,0-26.475,0a13.657,13.657,0,0,1-1.987-.063,2.424,2.424,0,0,1-2.4-2.152c.037-2.337,1.021-3.324,3.562-3.356,5.162-.065,10.324-.016,15.486-.023,2.928,0,2.93,0,2.93-2.937q0-8.582,0-17.164c0-2.417-.043-2.459-2.5-2.46q-42.318-.005-84.636,0a16.526,16.526,0,0,1-2.295-.056c-1.526.035-3.055.013-4.584.015-3.278,0-3.409.058-3.437,1.485-.029,1.5.065,1.545,3.5,1.537a9.648,9.648,0,0,1,4.491.669,6.806,6.806,0,0,1-.195,12.412c-1.866.758-3.822.348-5.738.414-2.1.072-2.37.409-1.545,2.314A6.069,6.069,0,0,0,11.207,91.2c1.572.095,3.153.03,4.73.026s3.172-.074,4.749.025a2.131,2.131,0,0,0,2.49-1.848A15.652,15.652,0,0,1,35.905,77.738C44.9,75.975,53.523,80.676,55.923,89.66A1.872,1.872,0,0,0,58.1,91.243q7.432-.056,14.865,0c2.26.019,3.29.86,3.684,2.854-.506,2.115-1.094,2.618-3.272,2.63-4.954.027-9.909.044-14.863-.014a2.1,2.1,0,0,0-2.457,1.825,16.741,16.741,0,0,1-10.317,11.719,21.8,21.8,0,0,1-4.021.741H36.813c-7.515-1.128-11.946-5.634-13.9-12.778A1.792,1.792,0,0,0,20.843,96.7c-3.011.045-6.023.016-9.034.015C5.448,96.712,1.147,93.2,0,87.079V3.986A4.5,4.5,0,0,1,3.988,0H19.02a2.4,2.4,0,0,1,1.926,2.447C20.552,4.282,19.766,5,17.937,5.062c-1.633.057-3.268.049-4.9,0-1.889.131-3.78.028-5.669.06-2.1.035-2.23.142-2.238,2.293-.017,5.107-.006,10.214-.006,15.32q0,18.384,0,36.769c0,.562.023,1.124.01,1.685-.024,1.039.474,1.447,1.492,1.456,2.094.02,4.189-.073,6.282.055a17.112,17.112,0,0,1,1.992-.062q42.327,0,84.653,0c3,0,3,0,3-3.032q0-25.674,0-51.348c0-.1,0-.2,0-.307-.006-2.811-.006-2.82-2.786-2.821q-34.889,0-69.777,0c-.665,0-1.329-.009-1.994-.01a2.947,2.947,0,0,1-3.138-2.169C24.781,1.1,25.039.689,26.689,0h77c3.211.774,4.685,2.6,4.753,6.073.076,3.865.01,7.731.025,11.6.007,2,.081,2.063,2.046,2.085.967.011,1.936-.043,2.9.04,1.973.17,2.865,1.024,3.2,3.022-.542,1.863-1.232,2.421-3.131,2.508-1.122.052-2.246-.01-3.369.053-1.036.059-1.606.537-1.607,1.62,0,.51-.018,1.02-.018,1.531q0,29.935,0,59.87c0,.306,0,.613,0,.919.042,1.684.162,1.8,1.857,1.851,3.534.1,3.534.1,4.9-3.2a11.069,11.069,0,0,1,.653-1.382,26.312,26.312,0,0,1,1.994-3.045,16.656,16.656,0,0,1,16.488-5.91c6.516,1.185,10.762,5.321,13.046,11.491.364.983.445,2.2,2,2.02a2.969,2.969,0,0,0,2.517-2.684,11.774,11.774,0,0,0,.04-1.378q0-14.94,0-29.88c0-2.116-.029-2.146-2.132-2.147q-12.878-.009-25.756,0c-2.372,0-4.586-.436-6.242-2.347a7.028,7.028,0,0,1-1.742-4.912c.074-4.183.008-8.368.028-12.552a6.342,6.342,0,0,1,6.547-6.572c2.808-.031,5.616,0,8.424-.011.351,0,.815.107,1-.209.254-.431-.19-.744-.437-1.043a5.777,5.777,0,0,0-4.435-2.075c-1.327-.057-2.656.031-3.981-.048-1.829-.109-2.465-.714-2.807-2.584.257-1.864,1.127-2.742,2.963-2.838a42.084,42.084,0,0,1,4.9.007,10.769,10.769,0,0,1,7.84,4.247q9.187,11.169,18.454,22.271a9.457,9.457,0,0,1,2.454,5.437V90.145c-.757,4.059-3.333,6.332-7.551,6.527-1.087.05-1.476.521-1.73,1.5a17.389,17.389,0,0,1-9.925,11.87c-1.429.671-2.954.6-4.416.958" fill="#191f21"/>
      <path id="Path_40973" data-name="Path 40973" d="M48.422,6.978c1.491.4,3.019.033,4.52.222C53.552,9.1,54,9.436,56.02,9.436l72.7,0c2.259,0,2.262,0,2.262,2.286,0,18.14-.02,36.279.036,54.419,0,1.539-.364,1.959-1.937,1.957q-43.327-.076-86.655-.039c-.562,0-1.123-.034-1.685-.052a2.8,2.8,0,0,1-.518-2.028q-.012-26.821.009-53.641a3.577,3.577,0,0,1,.836-2.853c1.58-.016,3.161-.029,4.741-.05,1.724-.023,2.439-.7,2.614-2.457" transform="translate(-27.859 -4.834)" fill="#e7e8e8"/>
      <path id="Path_40974" data-name="Path 40974" d="M108.808,248.1c-.315-.644-.879-.666-1.5-.654-1.045.02-2.09-.019-3.135-.033-.523-1.842-1.146-2.35-3.009-2.355-5.205-.011-10.412-.079-15.614.044-1.448.034-1.866-.476-2.177-1.738a15.944,15.944,0,0,0-13.941-12.107c-7.653-.715-14.136,2.759-17.116,9.184a13.322,13.322,0,0,0-1.166,3.612,1.024,1.024,0,0,1-1.215,1.017c-2.039-.067-4.08-.053-6.12-.072a7.01,7.01,0,0,1-3.086-7.346c5-3.007,5.141-8.245.32-11.628a4.109,4.109,0,0,1-.294-4.559c.56-.025,1.121-.071,1.681-.071q43.374-.006,86.748-.037c1.447,0,1.887.3,1.867,1.819-.091,6.841-.062,13.685-.017,20.527.007,1.061-.278,1.385-1.36,1.375-5.977-.05-11.954-.03-17.932-.02-2.266,0-3.036.819-2.936,3.043" transform="translate(-27.86 -153.353)" fill="#ed1c24"/>
      <path id="Path_40975" data-name="Path 40975" d="M380.618,170.287a7.432,7.432,0,0,0,5.7,2.068c9-.036,17.992.009,26.987-.041,1.265-.007,1.732.2,1.723,1.632-.073,10.626-.036,21.252-.042,31.878,0,2.524-1.271,3.709-3.755,3.77-.949.023-1.213-.386-1.415-1.157-1.78-6.8-6.114-11.109-12.976-12.478-6.492-1.295-11.924.966-16.266,5.91-.823.429-1.233-.013-1.494-.723a3.042,3.042,0,0,1-.111-1.057q-.018-8.994,0-17.988a2.277,2.277,0,0,1,.724-2.065c2.723.263,5.458.212,8.191.209a5.722,5.722,0,0,0,1.817-.164,1.649,1.649,0,0,0,1.332-1.648,1.742,1.742,0,0,0-1.317-1.683,5.284,5.284,0,0,0-1.664-.167,61.6,61.6,0,0,0-8.211.267,1.811,1.811,0,0,1-.817-1.541,20.958,20.958,0,0,1,0-3.925c.091-.884.461-1.606,1.593-1.1" transform="translate(-262.522 -117.857)" fill="#ed1c24"/>
      <path id="Path_40976" data-name="Path 40976" d="M359.586,73.578l1.817.078a.91.91,0,0,1-.147.875c-1.222,1.515-1.09,3.305-1.2,5.1q-.628,9.79-.276,19.588c.138,3.916.169,7.837.163,11.742q-.018,11.106-.067,22.214c-.005,1.412.311,2.831-.1,4.233a16.6,16.6,0,0,0-1.563,4.28c-.126.686-.377,1.043-1.183,1.006-1.579-.072-3.166-.069-4.745,0-.921.038-1.178-.347-1.077-1.167a5.02,5.02,0,0,0,0-.612q0-31.3,0-62.6c0-2.31.086-2.39,2.444-2.4.97,0,1.942-.043,2.909.006a2.608,2.608,0,0,0,3.03-2.344" transform="translate(-243.294 -50.974)" fill="#d81d24"/>
      <path id="Path_40977" data-name="Path 40977" d="M23.512,14.951a33.88,33.88,0,0,0-.314,7.013q-.018,25.755-.013,51.51c-2.2.01-4.4-.057-6.589.059-1.34.071-1.729-.32-1.722-1.693.057-11.439.032-22.88.032-34.319,0-6.895.033-13.79-.027-20.684-.012-1.434.358-2.045,1.892-1.962,2.242.122,4.493.06,6.741.076" transform="translate(-10.304 -10.3)" fill="#818080"/>
      <path id="Path_40978" data-name="Path 40978" d="M420.443,109.666c2.342-.024,4.685-.039,7.028-.078a1.349,1.349,0,0,1,1.177.536q6.176,7.565,12.376,15.11c.038.714-.519.5-.857.5-6.263.015-12.526,0-18.789.027a1.338,1.338,0,0,1-1.492-1.179,2.74,2.74,0,0,1-.1-.446,99.829,99.829,0,0,1,0-12.958,2.27,2.27,0,0,1,.661-1.51" transform="translate(-290.678 -75.922)" fill="#818080"/>
      <path id="Path_40979" data-name="Path 40979" d="M101.78,268.474c6.761.057,11.757,4.64,11.932,11.853a12.062,12.062,0,0,1-12.076,12.05A11.924,11.924,0,0,1,89.8,280.159c.013-6.871,4.948-11.686,11.98-11.685" transform="translate(-62.213 -185.997)" fill="#606060"/>
      <path id="Path_40980" data-name="Path 40980" d="M399.776,268.421a11.688,11.688,0,0,1,12,12.016,12.023,12.023,0,0,1-24.046-.179c.164-6.637,5.281-12.063,12.047-11.836" transform="translate(-268.613 -185.955)" fill="#606060"/>
      <path id="Path_40981" data-name="Path 40981" d="M403.044,109.7c-.561,4.153-.211,8.327-.306,12.491-.006.255-.007.51,0,.764.075,2.565.154,2.643,2.645,2.643,5.5,0,11.008.007,16.512-.01.583,0,1.237.229,1.729-.32.294.175.35.41-.008.5a4.306,4.306,0,0,1-1.069.033q-12.806-.013-25.613-.03c-2.183,0-2.469-.3-2.472-2.492q-.006-5.749,0-11.5c.006-1.784.378-2.154,2.143-2.149,2.145.006,4.29.041,6.435.064" transform="translate(-273.279 -75.955)" fill="#606060"/>
      <path id="Path_40982" data-name="Path 40982" d="M378.585,137.316a2.969,2.969,0,0,1-.2-1.792c-.01-18.851.018-37.7-.046-56.552-.007-2.109.316-3.928,1.88-5.406l2.625-.119c.449,1.9.951,2.306,2.943,2.332,1.224.016,2.449.032,3.673,0,2.935-.08,4.588,1.738,6.21,4.172h-4.578c-2.142,0-4.286-.029-6.428.012a5.912,5.912,0,0,0-5.974,5.985c-.028,4.385.017,8.771-.019,13.156a7.332,7.332,0,0,0,1.534,4.21c-.538-.008-1.174.084-1.152.7.068,1.925-.6,3.936.578,5.749a17.565,17.565,0,0,0-.012,3.353,2.2,2.2,0,0,0-.633,1.945q.007,9.083,0,18.166c0,.84-.08,1.718,1.174,1.667l-1.579,2.42" transform="translate(-262.113 -50.883)" fill="#ed1c24"/>
      <path id="Path_40983" data-name="Path 40983" d="M23.275,274.4c.423.954.2,2.007.447,2.985a9.541,9.541,0,0,0,2.639,4.361c-1.679.013-3.36.074-5.037.028a6.878,6.878,0,0,1-6.3-6.026c-.065-.791.288-.958.971-.946,1.476.025,2.953-.005,4.429.009a8.553,8.553,0,0,0,2.85-.411" transform="translate(-10.404 -190.1)" fill="#d81d24"/>
      <path id="Path_40984" data-name="Path 40984" d="M23.216,221.559c.127,1.518-.3,3.071.294,4.559-2.353-.976-4.827-.571-7.253-.58-1.083,0-1.378-.318-1.362-1.382.039-2.663-.013-2.671,2.659-2.66,1.887.008,3.775.041,5.662.064" transform="translate(-10.318 -153.45)" fill="#d81d24"/>
      <path id="Path_40985" data-name="Path 40985" d="M18.255,249.583c.762,0,1.529-.057,2.285.014,1.022.095,1.738.609,1.718,1.74s-.695,1.611-1.777,1.614c-1.524.005-3.05-.018-4.572.037-.813.029-1.011-.286-1.027-1.063-.049-2.354-.085-2.353,2.306-2.353h1.067Z" transform="translate(-10.302 -172.894)" fill="#e40028"/>
      <path id="Path_40986" data-name="Path 40986" d="M381.05,193.582a2.476,2.476,0,0,1,.012-3.353,3.386,3.386,0,0,1,2.132-.637c2.238.037,4.476,0,6.714.017,1.693.012,2.8.991,2.741,2.386-.056,1.35-1.1,2.2-2.754,2.206-2.238.012-4.477-.023-6.714.017a3.3,3.3,0,0,1-2.131-.635" transform="translate(-263.54 -131.347)" fill="#050605"/>
      <path id="Path_40987" data-name="Path 40987" d="M107.882,277.358a9.08,9.08,0,0,1,9.273,9.15,9.369,9.369,0,0,1-9.257,9.275,9.2,9.2,0,0,1-9.192-9.27,8.855,8.855,0,0,1,9.176-9.154" transform="translate(-68.383 -192.152)" fill="#191f21"/>
      <path id="Path_40988" data-name="Path 40988" d="M405.962,277.369a9.048,9.048,0,0,1,9.316,9.081,9.3,9.3,0,0,1-18.6.173c.093-5.541,4.218-9.484,9.281-9.254" transform="translate(-274.818 -192.153)" fill="#191f21"/>
      <path id="Path_40989" data-name="Path 40989" d="M113.831,296.842a4.386,4.386,0,0,1,4.469-4.411,4.574,4.574,0,0,1,4.717,4.416,4.806,4.806,0,0,1-4.667,4.729,4.463,4.463,0,0,1-4.519-4.734" transform="translate(-78.861 -202.594)" fill="#e7e8e8"/>
      <path id="Path_40990" data-name="Path 40990" d="M421.3,297.1a4.466,4.466,0,1,1-8.923-.243,4.361,4.361,0,0,1,4.583-4.425A4.407,4.407,0,0,1,421.3,297.1" transform="translate(-285.69 -202.593)" fill="#e7e8e8"/>
      <g id="Group_54838" data-name="Group 54838" transform="translate(27.587 10.659)">
        <g id="Group_54837" data-name="Group 54837">
          <path id="Path_43905" data-name="Path 43905" d="M353.473,482.278l27.537.046a30.362,30.362,0,0,1-.6,20.575s-17.012-20.315-35.657-4.927Z" transform="translate(-340.696 -482.278)" fill="#606060" fill-rule="evenodd"/>
          <path id="Path_43906" data-name="Path 43906" d="M415.432,513.428,401.876,537.4a30.362,30.362,0,0,1-17.63-10.623s26.049-4.851,21.794-28.649Z" transform="translate(-362.168 -490.894)" fill="#606060" fill-rule="evenodd"/>
          <path id="Path_43907" data-name="Path 43907" d="M349.417,543.027l-13.552-23.971a30.359,30.359,0,0,1,18.19-9.632s-9.271,24.822,13.315,33.443Z" transform="translate(-335.865 -497.036)" fill="#606060" fill-rule="evenodd"/>
        </g>
        <path id="Path_43908" data-name="Path 43908" d="M381.358,509.875a39.024,39.024,0,0,1,18.1,10.6" transform="translate(-360.598 -497.282)" fill="#606060" fill-rule="evenodd"/>
        <path id="Path_43909" data-name="Path 43909" d="M399.282,533.4a39.019,39.019,0,0,1-18.263,10.322" transform="translate(-360.414 -510.071)" fill="#606060" fill-rule="evenodd"/>
        <path id="Path_43910" data-name="Path 43910" d="M379.031,509.876a39.025,39.025,0,0,0,0,20.978" transform="translate(-358.564 -497.282)" fill="#606060" fill-rule="evenodd"/>
      </g>
    </g>
  </g>
</svg>
