<svg id="Group_53933" data-name="Group 53933" xmlns="http://www.w3.org/2000/svg" xmlns:xlink="http://www.w3.org/1999/xlink" width="223.482" height="167.632" viewBox="0 0 223.482 167.632">
  <defs>
    <radialGradient id="radial-gradient" cx="0.5" cy="0.5" r="0.5" gradientUnits="objectBoundingBox">
      <stop offset="0"/>
      <stop offset="1" stop-color="#19304c" stop-opacity="0"/>
    </radialGradient>
    <clipPath id="clip-path">
      <rect id="Rectangle_51390" data-name="Rectangle 51390" width="164.499" height="164.524" fill="none"/>
    </clipPath>
  </defs>
  <ellipse id="Ellipse_26" data-name="Ellipse 26" cx="111.741" cy="5.003" rx="111.741" ry="5.003" transform="translate(0 157.625)" fill="url(#radial-gradient)"/>
  <g id="Group_53855" data-name="Group 53855" transform="translate(29.085)" style="isolation: isolate">
    <g id="Group_52946" data-name="Group 52946" clip-path="url(#clip-path)">
      <path id="Path_38460" data-name="Path 38460" d="M158.173,115.144q.9,3.7,1.793,7.393c.066.272.1.55.154.826a15.639,15.639,0,0,0,.655,2.305,12.367,12.367,0,0,1,.367,1.363l2.343,9.527a22.924,22.924,0,0,1,.619,2.368c.655,3.218.3,6.473.31,9.71a5.192,5.192,0,0,1-5.2,5.2c-3.851.048-7.7.033-11.553,0a1.381,1.381,0,0,0-1.4.819c-3.6,6.317-9.046,9.759-16.314,9.752s-12.709-3.459-16.3-9.781a1.3,1.3,0,0,0-1.306-.79c-4.169.032-8.339.016-12.508.017-.453,0-.85-.034-1.137.514a18.827,18.827,0,0,1-10.53,9.142,17.675,17.675,0,0,1-10.374.452,4.779,4.779,0,0,1-1.706-.488,20.19,20.19,0,0,1-8.325-5.972c-.5-.61-.782-1.746-1.514-1.7-.508.032-.932,1.123-1.427,1.713A18.317,18.317,0,0,1,48.976,164.4c-7.541-.427-14.791-6.442-16.414-13.589-.367-1.472-.417-2.993-.7-4.479a5.1,5.1,0,0,1,.166-1.884c.214-1.13.121-1.206-1.022-1.207q-7.1,0-14.208.006a8.863,8.863,0,0,1-2.081-.265,5.457,5.457,0,0,1-4.082-5.282c-.057-1.341.018-2.686-.016-4.029a5.923,5.923,0,0,1,2.849-5.635c.781-.309.885-.754.458-1.5-.7-1.218-1.328-2.48-1.909-3.759a1.117,1.117,0,0,0-1.205-.762c-1.762.033-3.525.027-5.288.007a5.309,5.309,0,0,1-5.507-5.544c-.014-1.481.038-2.963-.013-4.442a5.593,5.593,0,0,1,2.889-5.364,2.6,2.6,0,0,1,2.147-.7,3.466,3.466,0,0,0,2.9-1.222Q21.174,91.454,34.456,78.206c1.267-1.267,1.266-1.268-.036-2.571-.624-.625-1.264-1.235-1.87-1.877a.838.838,0,0,0-1.427.012c-.212.236-.449.45-.674.675L7.066,97.828c-.2.2-.4.4-.6.6-1.208,1.2-1.41,1.241-2.506-.033-.76-.883-1.654-1.641-2.35-2.579-.023-.5.379-.733.671-1.024q38.2-38.212,76.425-76.405A3.672,3.672,0,0,0,79.8,16.2C81,8.456,85.376,3.239,92.782.865a18.25,18.25,0,0,1,21.868,9.308,18.21,18.21,0,0,1-2.673,20.72,2.137,2.137,0,0,0-.586,1.515q.032,7.213,0,14.426c0,.609.079.9.814,1.016A5.234,5.234,0,0,1,116.7,53.19c.027,3.748.014,7.5.005,11.244a5.372,5.372,0,0,1-3.14,5.113c-2.2,1.115-4.393,2.239-6.62,3.293a1.279,1.279,0,0,0-.86,1.366c.036,3.253-.006,6.506.033,9.759.009.737-.182,1.02-.939.943a11.485,11.485,0,0,0-1.8,0,2.649,2.649,0,0,0-2.56,2.375,2.68,2.68,0,0,0,2.04,2.844,2.518,2.518,0,0,0,3.02-1.692c.238-.8.633-.93,1.342-.9a32.184,32.184,0,0,0,3.287,0c.8-.048.941.262.854.981A7.963,7.963,0,0,1,96.187,90.8a7.876,7.876,0,0,1,3.659-10.29,1.485,1.485,0,0,0,.964-1.616c-.062-1.589-.039-3.182-.007-4.772a1.135,1.135,0,0,0-.742-1.223c-2.162-1.034-4.274-2.172-6.436-3.208a5.88,5.88,0,0,1-3.118-3.151,4.309,4.309,0,0,1-.325-1.845q.016-5.9,0-11.8a3.643,3.643,0,0,1,.316-1.63A5.346,5.346,0,0,1,94.936,47.8c.31-.044.551-.093.551-.478,0-2.03,0-4.061,0-6.124l-43.6,43.618c.212.244.662.071,1.045.072q15,.017,30.008-.014a1.392,1.392,0,0,1,1.573,1.106c.974,2.866,2.011,5.711,3.024,8.564a15.617,15.617,0,0,0,.636,1.7l1.7,4.455c.381.979.766,1.957,1.058,2.967,1.433,3.978,2.854,7.96,4.312,11.928a4.353,4.353,0,0,1,.248,1.55c0,3.041.024,6.082-.018,9.123-.011.793.141,1.14,1.026,1.079,1.2-.082,2.4-.036,3.605-.013.474.01.644-.134.739-.633a5.285,5.285,0,0,1,5.613-4.677c1.343-.009,2.689-.046,4.03.015.766.035.932-.234.93-.958q-.038-10.078-.007-20.155a5.243,5.243,0,0,1,4.072-5.265,6.352,6.352,0,0,1,1.575-.154q14.851-.013,29.7,0a7.909,7.909,0,0,1,8.105,6.511c.191.822.39,1.642.585,2.463a21.423,21.423,0,0,0,.656,2.486,6.358,6.358,0,0,1,.364,1.186l.684,3.32c.152.789.424,1.543.652,2.311a13.085,13.085,0,0,1,.37,1.361" transform="translate(0 0)" fill="#191f21"/>
      <path id="Path_38461" data-name="Path 38461" d="M7.571,366.279a19.72,19.72,0,0,1,2.766,2.754c.647.709,1.02.642,1.67-.012q11.208-11.275,22.469-22.5c.9-.9,1.823-1.776,2.686-2.709.482-.522.818-.495,1.288.009.892.955,1.8,1.9,2.772,2.772.65.585.66.959.019,1.594-4.946,4.9-9.856,9.83-14.776,14.752q-6.444,6.446-12.879,12.9a2,2,0,0,1-1.754.74,6.213,6.213,0,0,0-2.979.549,2.393,2.393,0,0,0,.426-1.571c-.03-1.935-.065-3.873.01-5.806a2.751,2.751,0,0,0-1.028-2.484c-.3-.245-.725-.481-.692-.992" transform="translate(-5.961 -270.462)" fill="#e5e5e5"/>
      <path id="Path_38462" data-name="Path 38462" d="M74.737,461.538q-16.863,0-33.726.019a1.6,1.6,0,0,1-1.705-1.023c-1.416-2.958-2.932-5.868-4.365-8.818a1.231,1.231,0,0,0-1.3-.8c-2.58.032-5.162-.008-7.742.027-.7.01-1.022-.129-.978-.919a31.228,31.228,0,0,0,0-3.5c-.043-.778.257-.939.97-.927,2.368.04,4.737.015,7.106.015,12.8,0,25.6-.017,38.392.029,1.114,0,1.317-.32,1.309-1.352-.048-6.257-.009-12.515-.042-18.772,0-.838.149-1.148,1.079-1.144q12.621.058,25.242.009a1.206,1.206,0,0,1,1.372.935q4.591,12.79,9.27,25.548a3.53,3.53,0,0,1,.194,1.244c0,2.793-.043,5.586.025,8.378.023.953-.337,1.067-1.158,1.065q-16.969-.037-33.938-.017" transform="translate(-19.619 -334.205)" fill="#ed1c24"/>
      <path id="Path_38463" data-name="Path 38463" d="M586.988,496.062q1.774,7.076,3.545,14.153c.3,1.215.277,1.227-.942,1.228-3.146,0-6.292-.016-9.438.014a1.472,1.472,0,0,1-1.5-.849c-3.986-6.887-9.991-10.176-17.927-9.675a17.532,17.532,0,0,0-10.6,4.567c-.26.228-.454.545-.828.645-.324-.329-.179-.738-.179-1.1-.008-9.863.006-19.726-.029-29.589,0-.92.207-1.186,1.161-1.182,9.439.038,18.878.022,28.316.025,2.446,0,3.161.624,3.723,2.985.752,3.155,1.573,6.293,2.364,9.437.456.721.288,1.607.622,2.36l1.073,4.431a12.353,12.353,0,0,1,.636,2.554" transform="translate(-432.419 -373.497)" fill="#d81d24"/>
      <path id="Path_38464" data-name="Path 38464" d="M399.517,38.346A13.252,13.252,0,1,1,412.754,51.64a13.265,13.265,0,0,1-13.237-13.294" transform="translate(-314.628 -19.795)" fill="#d81d24"/>
      <path id="Path_38465" data-name="Path 38465" d="M562.62,650.782a13.24,13.24,0,1,1,13.211-13.219,13.224,13.224,0,0,1-13.211,13.219" transform="translate(-432.627 -491.65)" fill="#606060"/>
      <path id="Path_38466" data-name="Path 38466" d="M351.164,637.549a13.24,13.24,0,1,1-13.18-13.246,13.226,13.226,0,0,1,13.18,13.246" transform="translate(-255.696 -491.65)" fill="#606060"/>
      <path id="Path_38467" data-name="Path 38467" d="M201.387,637.574A13.24,13.24,0,1,1,188.231,624.3a13.226,13.226,0,0,1,13.155,13.272" transform="translate(-137.743 -491.65)" fill="#606060"/>
      <path id="Path_38468" data-name="Path 38468" d="M282.058,114.3a17.564,17.564,0,0,0,2.44,4.794c.49.638.078.922-.3,1.3q-8.693,8.689-17.38,17.385c-2.048,2.048-4.114,4.078-6.134,6.153-.545.56-.889.607-1.437.007-.927-1.016-1.928-1.967-2.919-2.923-.408-.393-.474-.7-.033-1.136q12.677-12.647,25.337-25.31a2.7,2.7,0,0,1,.426-.271" transform="translate(-201.6 -90.015)" fill="#e7e8e8"/>
      <path id="Path_38469" data-name="Path 38469" d="M323.625,160.867a3.486,3.486,0,0,1-.99,1.207q-12.092,12.11-24.183,24.219c-.689.692-1.135.841-1.83.027a28.409,28.409,0,0,0-2.614-2.626c-.608-.547-.528-.888.022-1.435q9.765-9.715,19.488-19.472c1.4-1.4,2.813-2.783,4.189-4.2.39-.4.683-.475,1.152-.13a17.878,17.878,0,0,0,4.767,2.412" transform="translate(-231.203 -124.613)" fill="#e7e8e8"/>
      <path id="Path_38470" data-name="Path 38470" d="M68.766,405.919q4.837-4.811,9.673-9.624,7.383-7.368,14.744-14.758c.575-.58.934-.676,1.518-.028.9.995,1.871,1.923,2.841,2.848.437.417.542.72.054,1.206q-10.125,10.092-20.223,20.211c-.2.2-.381.424-.7.424q-3.907,0-7.815,0l-.089-.279" transform="translate(-54.155 -300.093)" fill="#e7e8e8"/>
      <path id="Path_38471" data-name="Path 38471" d="M457.17,249.679c2.4,0,4.809.018,7.213-.012.639-.008.861.17.855.836-.031,3.358-.023,6.718-.006,10.077a1.032,1.032,0,0,1-.658,1.07q-3.379,1.644-6.723,3.356a1.143,1.143,0,0,1-1.178-.017q-3.344-1.71-6.72-3.358a1.027,1.027,0,0,1-.648-1.074c.015-3.359.025-6.718-.007-10.077-.007-.688.26-.82.872-.813,2.333.028,4.667.011,7,.011" transform="translate(-353.831 -196.617)" fill="#818080"/>
      <path id="Path_38472" data-name="Path 38472" d="M187.223,259.829a.9.9,0,0,1-.406.712q-6.775,6.783-13.55,13.566c-.464.466-.791.579-1.292.043-.964-1.031-1.969-2.026-2.994-3-.475-.45-.446-.759.006-1.209q6.834-6.8,13.639-13.627c.327-.327.612-.566,1.052-.111,1.081,1.116,2.193,2.2,3.294,3.3.127.126.258.245.252.326" transform="translate(-132.803 -201.569)" fill="#e7e8e8"/>
      <path id="Path_38473" data-name="Path 38473" d="M224.646,297.222c.038.358-.187.509-.355.677q-6.849,6.856-13.7,13.713c-.439.441-.729.386-1.129-.028q-1.507-1.563-3.07-3.071c-.429-.413-.418-.719,0-1.136q6.867-6.838,13.711-13.7c.3-.3.564-.529.966-.12,1.113,1.134,2.245,2.248,3.365,3.375a1.83,1.83,0,0,1,.207.289" transform="translate(-162.29 -231.008)" fill="#e7e8e8"/>
      <path id="Path_38474" data-name="Path 38474" d="M96.348,624.117a19.9,19.9,0,0,0-3.511,4.854c-.224.454-.568.459-.962.459-5.4,0-10.8-.011-16.2.013-.66,0-.854-.2-.829-.844.045-1.163.062-2.332,0-3.493-.046-.79.189-1.014.993-1.008,5.294.037,10.589.019,15.884.019Z" transform="translate(-58.934 -491.489)" fill="#e7e8e8"/>
      <path id="Path_38475" data-name="Path 38475" d="M204.8,417.905a1.4,1.4,0,0,1,.232,1.006c0,5.123-.011,10.246.019,15.369,0,.726-.168,1-.931.955-1.2-.063-2.4-.042-3.6-.006-.579.017-.8-.138-.8-.761.026-3.6.016-7.208.008-10.812a1.234,1.234,0,0,1,.35-.952c1.559-1.572,3.108-3.156,4.723-4.8" transform="translate(-157.283 -329.108)" fill="#fdfdfd"/>
      <path id="Path_38476" data-name="Path 38476" d="M479.625,173.381c0,1.732-.019,3.463.011,5.194.01.6-.091.907-.8.877-1.27-.054-2.544-.039-3.815,0-.566.015-.724-.191-.721-.736.02-3.109.015-6.219.005-9.329,0-.518.085-.835.721-.917a12.4,12.4,0,0,0,3.74-1.106c.821-.39.873-.069.865.614-.023,1.8-.008,3.6-.008,5.406" transform="translate(-373.524 -131.667)" fill="#e7e8e8"/>
      <path id="Path_38477" data-name="Path 38477" d="M703.817,674.069c1.484,0,2.968.023,4.451-.011.606-.014.9.1.872.8-.053,1.269-.039,2.543,0,3.814.016.572-.2.72-.74.717q-4.61-.03-9.22,0c-.639,0-.882-.164-.779-.857a11.837,11.837,0,0,0,0-3.592c-.127-.8.229-.888.864-.879,1.519.023,3.038.007,4.557.007" transform="translate(-549.982 -530.833)" fill="#e7e8e8"/>
      <path id="Path_38478" data-name="Path 38478" d="M479.171,679.389c-1.552,0-3.1-.018-4.656.009-.637.011-.884-.16-.78-.855a12.716,12.716,0,0,0,.007-3.587c-.087-.641.053-.894.741-.889q4.655.035,9.312,0c.64,0,.878.166.778.856a12.14,12.14,0,0,0,0,3.587c.119.771-.2.9-.853.888-1.516-.029-3.033-.009-4.55-.009" transform="translate(-373.059 -530.841)" fill="#e7e8e8"/>
      <path id="Path_38479" data-name="Path 38479" d="M504.578,604.491c0,1.481-.022,2.962.011,4.441.013.606-.115.9-.808.874-1.267-.05-2.538-.036-3.806,0-.556.013-.732-.187-.728-.735q.029-4.6,0-9.2c0-.47.109-.718.644-.708,1.339.024,2.679.031,4.018,0,.614-.015.678.3.672.788-.017,1.516-.006,3.032-.006,4.547" transform="translate(-393.168 -471.846)" fill="#e7e8e8"/>
      <path id="Path_38480" data-name="Path 38480" d="M143.2,474.819l6.613-6.631a15.411,15.411,0,0,1,.1,2.927c.025,1.023,0,2.047.007,3.07,0,.334.006.639-.472.637-2.036-.009-4.071,0-6.249,0" transform="translate(-112.773 -368.707)" fill="#fafafa"/>
      <path id="Path_38481" data-name="Path 38481" d="M449.545,624.2q2.415,0,4.829,0c.477,0,.452.336.452.66,0,1.232.018,2.465-.011,3.7-.008.332.246.909-.357.922-.572.013-1.285.36-1.691-.427a31.945,31.945,0,0,0-3.221-4.85" transform="translate(-354.026 -491.566)" fill="#e7e8e8"/>
      <path id="Path_38482" data-name="Path 38482" d="M298.75,624.455h5.66a33.547,33.547,0,0,0-2.533,3.23c-.227.349-.467.191-.649-.094a27.534,27.534,0,0,0-2.477-3.136" transform="translate(-235.272 -491.77)" fill="#e7e8e8"/>
      <path id="Path_38483" data-name="Path 38483" d="M725.1,567.359a8.921,8.921,0,0,1-.635-2.554,3.565,3.565,0,0,1,.635,2.554" transform="translate(-570.532 -444.795)" fill="#4c221d"/>
      <path id="Path_38484" data-name="Path 38484" d="M717.112,535.208a7.4,7.4,0,0,1-.622-2.36c.695.658.526,1.543.622,2.36" transform="translate(-564.251 -419.628)" fill="#3f1b17"/>
      <path id="Path_38485" data-name="Path 38485" d="M296.132,460.35c.007.132.014.265.02.4.325.6.258,1.337.649,1.917.824,2.435,1.637,4.875,2.483,7.3.162.466.1.669-.41.653-.176-.005-.353,0-.53,0-7.56,0-15.121-.012-22.681.018-.817,0-1.074-.193-1.069-1.045q.055-9.592,0-19.184c0-.775.181-1.021.992-1.015q7.948.055,15.9,0a1.119,1.119,0,0,1,1.27.92c.671,2.078,1.392,4.14,2.093,6.208.38.584.3,1.323.649,1.918a.252.252,0,0,0,.026.193c.291.541.329,1.172.608,1.717" transform="translate(-216.248 -353.906)" fill="#191f21"/>
      <path id="Path_38487" data-name="Path 38487" d="M174.79,551.85c0-2.553,0-2.553,2.576-2.553,2.738,0,2.738,0,2.738,2.708,0,2.606,0,2.606-2.629,2.606-2.686,0-2.686,0-2.686-2.655v-.106" transform="translate(-127.022 -432.588)" fill="#191f21"/>
      <path id="Path_38488" data-name="Path 38488" d="M370.571,484.859a3.966,3.966,0,0,1-.649-1.919,2.751,2.751,0,0,1,.649,1.919" transform="translate(-291.322 -380.325)" fill="#c5a346"/>
      <path id="Path_38489" data-name="Path 38489" d="M373.707,494.593a2.985,2.985,0,0,1-.608-1.717c.557.447.523,1.1.608,1.717" transform="translate(-293.823 -388.149)" fill="#af913f"/>
      <path id="Path_38490" data-name="Path 38490" d="M376.7,504.747a2.777,2.777,0,0,1-.649-1.918,3.944,3.944,0,0,1,.649,1.918" transform="translate(-296.15 -395.987)" fill="#3a3015"/>
      <path id="Path_38491" data-name="Path 38491" d="M599.093,506.006c.717,2.835,1.428,5.672,2.158,8.5.127.494.05.747-.515.724-.458-.019-.919,0-1.378,0-7.987,0-15.973-.013-23.959.018-.912,0-1.273-.157-1.258-1.19.063-4.558.047-9.117.008-13.675-.007-.833.222-1.067,1.059-1.063,6.927.033,13.853.047,20.779-.01,1.132-.009,1.745.248,1.8,1.436a3.43,3.43,0,0,0,.239.81c.366,1.481.769,2.953,1.069,4.449" transform="translate(-452.148 -393.216)" fill="#191f21"/>
      <path id="Path_38492" data-name="Path 38492" d="M687.612,514.332a19.939,19.939,0,0,1-1.069-4.449,13.775,13.775,0,0,1,1.069,4.449" transform="translate(-540.668 -401.543)" fill="#a1483d"/>
      <path id="Path_38493" data-name="Path 38493" d="M432.443,66a7.945,7.945,0,1,1,7.939-7.953A7.969,7.969,0,0,1,432.443,66" transform="translate(-334.297 -39.463)" fill="#191f21"/>
      <path id="Path_38494" data-name="Path 38494" d="M582.311,649.271a7.935,7.935,0,1,1-7.991,7.876,7.919,7.919,0,0,1,7.991-7.876" transform="translate(-452.289 -511.313)" fill="#191f21"/>
      <path id="Path_38495" data-name="Path 38495" d="M349.652,657.115a7.935,7.935,0,1,1,7.845,8.025,7.919,7.919,0,0,1-7.845-8.025" transform="translate(-275.359 -511.313)" fill="#191f21"/>
      <path id="Path_38496" data-name="Path 38496" d="M207.77,649.271a7.935,7.935,0,1,1-7.895,7.973,7.917,7.917,0,0,1,7.895-7.973" transform="translate(-157.406 -511.314)" fill="#191f21"/>
      <path id="Path_38497" data-name="Path 38497" d="M479.726,277.538a2.632,2.632,0,1,1-2.515-2.721,2.625,2.625,0,0,1,2.515,2.721" transform="translate(-373.65 -216.422)" fill="#191f21"/>
      <path id="Path_38498" data-name="Path 38498" d="M305.564,484.977c-1.73,0-3.461-.026-5.19.014-.654.015-.845-.194-.839-.842.03-3,.026-6,0-9,0-.583.15-.809.769-.8,2.4.03,4.8.023,7.2,0a.892.892,0,0,1,.995.716c.979,3.015,1.967,6.027,3,9.022.256.739.078.913-.649.9-1.765-.03-3.531-.01-5.3-.01" transform="translate(-235.89 -373.555)" fill="#606060"/>
      <path id="Path_38499" data-name="Path 38499" d="M606.611,529.6c-2.226,0-4.453-.019-6.678.012-.631.009-.881-.155-.854-.827.049-1.235.037-2.474,0-3.709-.016-.578.14-.81.766-.806,4.134.024,8.268.018,12.4.006a.725.725,0,0,1,.854.678c.263,1.241.581,2.472.936,3.689.216.742.05.987-.75.971-2.225-.044-4.451-.015-6.678-.015" transform="translate(-471.786 -412.872)" fill="#606060"/>
      <path id="Path_38500" data-name="Path 38500" d="M452.065,80.35a2.642,2.642,0,1,1,2.677-2.578,2.646,2.646,0,0,1-2.677,2.578" transform="translate(-353.962 -59.116)" fill="#e7e8e8"/>
      <path id="Path_38501" data-name="Path 38501" d="M601.938,674.2a2.638,2.638,0,1,1-2.687,2.559,2.639,2.639,0,0,1,2.687-2.559" transform="translate(-471.922 -530.943)" fill="#e7e8e8"/>
      <path id="Path_38502" data-name="Path 38502" d="M379.86,676.814a2.636,2.636,0,1,1-2.633-2.614,2.645,2.645,0,0,1,2.633,2.614" transform="translate(-294.996 -530.945)" fill="#e7e8e8"/>
      <path id="Path_38503" data-name="Path 38503" d="M230.078,676.882a2.637,2.637,0,1,1-2.561-2.686,2.647,2.647,0,0,1,2.561,2.686" transform="translate(-177.038 -530.942)" fill="#e7e8e8"/>
    </g>
  </g>
</svg>
