<svg id="Group_53901" data-name="Group 53901" xmlns="http://www.w3.org/2000/svg" xmlns:xlink="http://www.w3.org/1999/xlink" width="190.155" height="82.559" viewBox="0 0 190.155 82.559">
  <defs>
    <clipPath id="clip-path">
      <rect id="Rectangle_52194" data-name="Rectangle 52194" width="190.155" height="82.559" fill="none"/>
    </clipPath>
  </defs>
  <g id="Group_53900" data-name="Group 53900" transform="translate(0)" clip-path="url(#clip-path)">
    <path id="Path_40942" data-name="Path 40942" d="M125.777,0H68.843c-5,1.209-7.457,4.226-7.642,9.483-.1,2.784-.022,5.572-.028,8.359-.006,3.5,0,3.5-3.42,3.5q-21.84,0-43.681,0a16.382,16.382,0,0,0-3.879.322c-3.889.938-5.918,3.4-5.943,7.428q-.065,10.588.013,21.176c.016,1.807-.2,3.258-2.093,4.084C.651,55.016.31,56.545,0,58.014v9.669c1.016,3.083,2.571,4.247,5.882,4.28,4.338.043,8.678.048,13.016-.009A3.085,3.085,0,0,1,22,73.775c3.653,6.719,9.476,9.189,16.915,8.568,5.709-.477,9.7-3.476,12.418-8.279a3.7,3.7,0,0,1,3.7-2.116q19.617.072,39.235.019c2.732,0,3.363-.428,4.1-2.556,0-2.588-.97-3.743-3.475-4.1a19.547,19.547,0,0,0-2.774-.1q-12.871-.005-25.742-.007c-2.34,0-2.4-.078-2.939-2.378a8.966,8.966,0,0,0-.16-1.475c-.1-.8.29-1.141,1.037-1.2.371-.029.743-.04,1.114-.04q22.5,0,44.994.006c2.111,0,2.129.054,2.1,2-.017.3-.066.609-.085.912-.1,1.63-.82,2.5-2.569,2.243a3.772,3.772,0,0,0-.92.037c-2.713.275-3.767,1.456-3.749,4.194.409,1.852,1.718,2.426,3.441,2.433,4.088.017,8.177.057,12.264-.019a3.178,3.178,0,0,1,3.343,2.033,15.785,15.785,0,0,0,8.365,7.8c1.28.563,2.679.335,3.955.8h4.838c6.108-.417,10.117-3.821,12.772-9.063.689-1.359,1.751-1.539,3.064-1.536q12.9.028,25.8.009c.742,0,1.486.029,2.227-.022,2.352-.162,4.159-1.093,4.882-3.519V56.9a4.592,4.592,0,0,0-4.177-3.416c-1.3-.172-1.63-.79-1.623-1.965q.041-6.785.007-13.571c-.02-5.4-2.446-9.094-7.51-11.02A74.134,74.134,0,0,0,151.1,21.783c-1.987-.02-3.936-.488-5.93-.418-1.077.037-1.619-.764-2.175-1.53-3.529-4.867-7.062-9.732-10.519-14.65-1.7-2.424-3.558-4.623-6.7-5.184" fill="#191f21"/>
    <path id="Path_40943" data-name="Path 40943" d="M83.014,65.744a3.309,3.309,0,0,1-2.288,2.7,8.507,8.507,0,0,1-2.033.083q-21.525.008-43.051,0c-1.97,0-2.311.287-2.352,1.939-.045,1.8.529,2.4,2.409,2.484a26.959,26.959,0,0,1,2.956.1c1.207.306,2.291.886,2.358,2.241.073,1.475-1.049,2.1-2.318,2.469a25.842,25.842,0,0,1-3.342.1,1.833,1.833,0,0,0-2.041,1.9,34.68,34.68,0,0,0,.04,5.928,4.968,4.968,0,0,0,4.075,4.474,15.608,15.608,0,0,0,3.684.368H75.264a5.148,5.148,0,0,0,3.047-.578,26.781,26.781,0,0,1,13.767-8.175c9.576-2.069,17.912.369,24.9,7.271.3.3.627.581.941.87,2.1,1.02,4.309.608,6.489.432a1.266,1.266,0,0,0,1.1-.864c-1.251-6.42,4.016-12.523,11.352-13.06-.433-1.9-1.914-2.6-3.5-3.175a80.027,80.027,0,0,0-27.582-4.77c-4.09-.006-8.18-.048-12.269.017-2.026.033-3.353-.668-3.719-2.764a8.47,8.47,0,0,0-6.787,0" transform="translate(40.928 -40.824)" fill="#ed1c24"/>
    <path id="Path_40944" data-name="Path 40944" d="M207.764,78.471a7.652,7.652,0,0,0-3.832-.24c-1.644.11-1.749-.708-1.789-2-.044-1.4.437-1.784,1.811-1.78q20.067.068,40.135.007c1.648,0,3.328.337,4.951-.252l-57.436.033c-2.381,0-2.381,0-2.382,2.425,0,4.458-.071,8.918.03,13.374.046,2.055-.7,3.305-2.7,3.783-.5,1.082-1.668,1.26-2.535,1.847.937,1.361,1.939,2.684,2.788,4.1.554.922,1.346.724,2.116.725q20.713.012,41.426.006c3.653,0,7.308-.055,10.959.028,1.421.032,2.415-.214,3.094-1.638a21.829,21.829,0,0,1,2.231-3.168c-12.741-.016-25.482-.005-38.224-.07-2.434-.012-5-.237-5.887-3.116-.777-2.514-.264-5.146-.264-7.725,0-.766.777-.608,1.31-.661,1.4-.139,2.836.316,4.2-.274-.559-.787-1.416-.632-2.191-.655-1.785-.054-3.572.031-5.357-.045-1.3-.055-2.414-.573-2.417-2s1.11-1.948,2.41-2.006c1.785-.078,3.573.007,5.357-.046.777-.023,1.632.128,2.2-.647" transform="translate(-127.386 -46.581)" fill="#d81d24"/>
    <path id="Path_40945" data-name="Path 40945" d="M386.06,95.763c1.279-.02,2.712.17,2.535-1.847-2.331-.8-2.822-1.43-2.833-3.874-.021-4.5,0-8.995-.017-13.492a3.331,3.331,0,0,0-.222-1.981,3.425,3.425,0,0,0-1.817-.173q-14.644-.016-29.289-.007c-2.245,0-2.5.19-2.532,2.345-.057,3.952-.043,7.9,0,11.856a2.479,2.479,0,0,0,.651,2.049,30.713,30.713,0,0,1,10.778-3.524,25.9,25.9,0,0,1,20.856,6.926c.633.571,1.26,1.148,1.891,1.722" transform="translate(-329.434 -46.678)" fill="#ed1c24"/>
    <path id="Path_40946" data-name="Path 40946" d="M162.8,34.267l6.787,0c.709-3.651,3.642-2.516,5.968-2.758.27-.745-.41-1.1-.726-1.543-3.072-4.331-6.213-8.613-9.27-12.955a4.449,4.449,0,0,0-4.022-2.117c-5.51.073-11.021.057-16.531,0-1.163-.012-1.6.226-1.571,1.5q.126,6.773,0,13.55c-.026,1.362.45,1.637,1.7,1.619,4.643-.065,9.289.037,13.931-.054,2.066-.04,3.3.746,3.735,2.757" transform="translate(-38.859 -9.347)" fill="#606060"/>
    <path id="Path_40947" data-name="Path 40947" d="M266.419,31.323c.359-5.179.051-10.365.17-15.547.02-.868-.485-.827-1.071-.824q-9.739.04-19.479.068a3.116,3.116,0,0,0-1.33,2.724c-.1,3.962-.073,7.925-.018,11.888.017,1.205.422,1.918,1.876,1.9,6.32-.064,12.64-.026,18.961-.028a1.429,1.429,0,0,0,.89-.185" transform="translate(-167.515 -9.385)" fill="#e7e8e8"/>
    <path id="Path_40948" data-name="Path 40948" d="M372.94,90.529c-.01-4.708.041-9.418-.063-14.124-.034-1.561.459-1.983,1.993-1.974,10.352.06,20.705.03,31.058.029-.55-.435-1.194-.223-1.79-.224q-20.622-.021-41.245-.01c-2.671,0-2.68.016-2.684,2.69,0,.619.052,1.243-.01,1.856-.207,2.051.018,3.278,2.582,4.094,4.223,1.344,3.868,5.372,3.731,8.931a6.026,6.026,0,0,1-4.586,5.8c-.691.2-1.949-.09-1.707,1.343.091.535-.372,1.482.576,1.472,1.067-.012,2.354.68,3.181-.694a25.28,25.28,0,0,1,6.314-7.2c.878-.67,1.766-1.325,2.65-1.986" transform="translate(-349.839 -46.569)" fill="#d81d24"/>
    <path id="Path_40949" data-name="Path 40949" d="M397.963,167.348a10.531,10.531,0,1,0-13.77-15.932c-.951,1.408-.615,3-.491,4.493.484,5.833,6.114,11.376,11.942,11.89a3.967,3.967,0,0,0,2.32-.451" transform="translate(-354.401 -93.329)" fill="#818080"/>
    <path id="Path_40950" data-name="Path 40950" d="M123.1,168.349A10.532,10.532,0,1,0,109.349,152.4c-.98,1.609-.649,3.376-.43,5.048.736,5.6,6.059,10.684,11.677,11.339a5.044,5.044,0,0,0,2.507-.439" transform="translate(22.777 -93.967)" fill="#818080"/>
    <path id="Path_40951" data-name="Path 40951" d="M276.662,31.345c-6.45-.009-12.9-.052-19.349,0-1.356.012-1.849-.33-1.814-1.759.093-3.841.08-7.686,0-11.527-.023-1.127.569-2,.781-3.02-2.477-.02-4.954-.07-7.431-.051a3.4,3.4,0,0,0-3.68,3.548c-.086,3.961-.018,7.926-.039,11.889,0,.714.1,1.182.98,1.18q15.15-.024,30.3-.023c.083,0,.166-.156.25-.239" transform="translate(-177.759 -9.408)" fill="#606060"/>
    <path id="Path_40952" data-name="Path 40952" d="M242.139,174.439c.333-.31.469-.8,1.117-.781q2.754.084,5.512,0c.655-.022.761.5,1.113.784-.1-2.616.8-3.59,3.411-3.663,3.422-.1,3.422-.1,3.969-3.424a3.947,3.947,0,0,0-2-.267q-22.439.018-44.879.016c-1.086,0-2.249-.236-3.188.608.007.367.023.734.019,1.1-.02,1.516.593,2.027,2.221,2.011,9.269-.1,18.54-.047,27.81-.047.433,0,.865,0,1.3,0,2.76.043,3.678.98,3.6,3.662" transform="translate(-144.237 -104.877)" fill="#606060"/>
    <path id="Path_40953" data-name="Path 40953" d="M82.107,133.752c7.957-9.794,22.092-7.771,27.394,2.543a13.374,13.374,0,0,1,1.609,5.65c.033.984.356,1.228,1.3,1.26,3.663.124,3.788,0,2.949-3.706a20.784,20.784,0,0,0-24.39-16.093,2.927,2.927,0,0,0-.666.31c-3.991,1.75-6.372,5.088-8.5,8.657-.274.459-.657,1.114.306,1.378" transform="translate(44.035 -77.229)" fill="#818080"/>
    <path id="Path_40954" data-name="Path 40954" d="M207.267,163.059q24.048,0,48.1.009a3.174,3.174,0,0,0,1.967-.366c.509-3.039.509-3.039-2.58-3.039H206.52l.747,3.4" transform="translate(-144.308 -100.227)" fill="#818080"/>
    <path id="Path_40955" data-name="Path 40955" d="M356.594,132.544c6.481-6.409,14.837-7.454,21.638-2.6a15.13,15.13,0,0,1,6.723,11.807c.085,1.452.793,1.4,1.771,1.37,3.707-.107,3.169.577,2.632-3.01-1.7-11.334-13.51-19.237-24.73-16.715a2.04,2.04,0,0,0-.488.262c-3.383,1.43-5.549,4.158-7.492,7.1-.331.5-1.087,1.172-.053,1.792" transform="translate(-332.136 -77.164)" fill="#818080"/>
    <path id="Path_40956" data-name="Path 40956" d="M136.358,172.918a13.308,13.308,0,0,1-13.588-10.43c-.417-1.824-.116-3.678-.166-5.518a10.53,10.53,0,0,0,13.754,15.948" transform="translate(9.523 -98.536)" fill="#606060"/>
    <path id="Path_40957" data-name="Path 40957" d="M411.211,171.971a13.294,13.294,0,0,1-13.537-10.247c-.463-1.9-.146-3.791-.233-5.684a10.529,10.529,0,0,0,13.77,15.932" transform="translate(-367.649 -97.952)" fill="#606060"/>
    <path id="Path_40958" data-name="Path 40958" d="M157.654,134.913c-.635-.683.065-1.119.333-1.593a27.408,27.408,0,0,1,7.862-8.442c-7.881,1.8-12.715,6.831-15.221,14.324a12.881,12.881,0,0,0-.424,1.976c-.539,3.241-.534,3.2,2.8,3.175.988-.007,1.425-.248,1.506-1.287a17.128,17.128,0,0,1,3.148-8.153" transform="translate(-31.512 -78.391)" fill="#606060"/>
    <path id="Path_40959" data-name="Path 40959" d="M433.32,133.78c.007-2.1,1.727-3.194,2.784-4.655,1.262-1.743,3.187-2.8,4.761-4.232-7.869,1.824-12.722,6.845-15.21,14.358a10.521,10.521,0,0,0-.411,1.8c-.554,3.845-1.2,3.207,3.011,3.306.88.02,1.168-.277,1.227-1.143a17.1,17.1,0,0,1,3.839-9.43" transform="translate(-408.862 -78.4)" fill="#606060"/>
    <path id="Path_40960" data-name="Path 40960" d="M34.353,163.058c.209-3.4.209-3.4-3.077-3.4h-17.3c.292,1.251.542,2.323.793,3.4a3.045,3.045,0,0,0,2.419.64q7.375.034,14.749,0a3.043,3.043,0,0,0,2.419-.64" transform="translate(150.524 -100.227)" fill="#818080"/>
    <path id="Path_40961" data-name="Path 40961" d="M39.445,130.739c-2.487.9-5.066.185-7.59.432a6.854,6.854,0,0,1,1,1.322c1.345,3.137,3.746,3.845,6.961,3.552,3.129-.285,6.3-.037,9.46-.079.851-.011,2,.525,2.027-1.24.032-1.89-1.214-1.287-2.11-1.323-1.544-.062-3.094-.063-4.639-.007a5.234,5.234,0,0,1-5.1-2.658" transform="translate(126.997 -82.07)" fill="#d81d24"/>
    <path id="Path_40962" data-name="Path 40962" d="M33.591,168.784H14c-.033,3.066-.033,3.066,2.961,3.066H30.7c3.082,0,3.082,0,2.9-3.066" transform="translate(151.286 -105.952)" fill="#606060"/>
    <path id="Path_40963" data-name="Path 40963" d="M485.828,159.752c-3.73-.226-3.751-.226-3.714,3.536.009.9-.478,2.232.289,2.622,1.176.6,2.661.215,4.015.17.5-.017.487-.453.524-.825.1-.981.208-1.961.314-2.941a11.325,11.325,0,0,0-1.428-2.563" transform="translate(-476.52 -100.232)" fill="#606060"/>
    <path id="Path_40964" data-name="Path 40964" d="M31.837,115.184c.678.02,1.357.057,2.035.059,2.408.008,2.263-.008,2.453-2.423.152-1.938-.6-2.362-2.269-1.966a5.678,5.678,0,0,0-2.219,4.33" transform="translate(141.959 -69.502)" fill="#818080"/>
    <path id="Path_40965" data-name="Path 40965" d="M39.433,115.411l2.219-4.33c-2.423.361-2.83,2.452-3.669,4.2a1.961,1.961,0,0,0,1.45.131" transform="translate(134.364 -69.73)" fill="#606060"/>
    <path id="Path_40966" data-name="Path 40966" d="M480.779,159.807a2.794,2.794,0,0,0,1.428,2.563c.054-.239.1-.478.162-.715.51-1.977.511-1.977-1.59-1.848" transform="translate(-471.471 -100.287)" fill="#818080"/>
    <path id="Path_40967" data-name="Path 40967" d="M483.354,124.113c4.391-4.317,4.024-8.648.225-12.989-3.686,4.318-3.475,8.649-.225,12.989" transform="translate(-471.288 -74.137)" fill="#e7e8e8"/>
    <path id="Path_40968" data-name="Path 40968" d="M197.575,91.024c1.3,0,2.608.077,3.9-.019a2.51,2.51,0,0,0,2.514-2.685,2.476,2.476,0,0,0-2.547-2.644c-2.6-.079-5.208-.084-7.807,0a2.658,2.658,0,0,0-.147,5.3c1.352.118,2.723.025,4.085.025,0,.008,0,.016,0,.025" transform="translate(-84.983 -53.743)" fill="#050605"/>
    <path id="Path_40969" data-name="Path 40969" d="M299.868,85.648c-2.525,0-5.05-.027-7.574.006-1.867.024-3.135,1.1-3.2,2.606-.064,1.562,1.258,2.776,3.2,2.805,2.524.039,5.049-.008,7.574-.018a2.768,2.768,0,0,0,0-5.4" transform="translate(-219.489 -53.758)" fill="#050605"/>
    <path id="Path_40970" data-name="Path 40970" d="M401.86,170.679a3.738,3.738,0,0,0,3.626,3.884,3.838,3.838,0,0,0,3.868-3.689,3.92,3.92,0,0,0-3.682-3.9,3.739,3.739,0,0,0-3.813,3.7" transform="translate(-368.798 -104.815)" fill="#e7e8e8"/>
    <path id="Path_40971" data-name="Path 40971" d="M127,171.754a3.745,3.745,0,0,0,3.716,3.8,3.845,3.845,0,0,0,3.8-3.765,3.933,3.933,0,0,0-3.777-3.817A3.739,3.739,0,0,0,127,171.754" transform="translate(8.365 -105.441)" fill="#e7e8e8"/>
  </g>
</svg>
