<svg id="Group_53935" data-name="Group 53935" xmlns="http://www.w3.org/2000/svg" xmlns:xlink="http://www.w3.org/1999/xlink" width="210.585" height="141.376" viewBox="0 0 210.585 141.376">
  <defs>
    <radialGradient id="radial-gradient" cx="0.5" cy="0.5" r="0.5" gradientUnits="objectBoundingBox">
      <stop offset="0"/>
      <stop offset="1" stop-color="#19304c" stop-opacity="0"/>
    </radialGradient>
    <clipPath id="clip-path">
      <rect id="Rectangle_51391" data-name="Rectangle 51391" width="180.353" height="139.496" fill="#191f21"/>
    </clipPath>
  </defs>
  <ellipse id="Ellipse_28" data-name="Ellipse 28" cx="105.293" cy="4.715" rx="105.293" ry="4.715" transform="translate(0 131.947)" fill="url(#radial-gradient)"/>
  <g id="Group_53856" data-name="Group 53856" transform="translate(15.226 0)" style="isolation: isolate">
    <g id="Group_52947" data-name="Group 52947" style="mix-blend-mode: luminosity;isolation: isolate">
      <g id="Group_52947-2" data-name="Group 52947" clip-path="url(#clip-path)">
        <path id="Path_38504" data-name="Path 38504" d="M31.013,60.871,32.5,62.948c.538.979,1.395,1.075,2.426,1.057,3.568-.062,7.138-.045,10.707-.007.747.008.978-.216.975-.952q-.033-7.983,0-15.967c0-.72-.2-1-.962-.968-1.626.058-3.256,0-4.884.024a2.714,2.714,0,0,1-1.983-.676c-1.294-1.765-1.041-3.5.63-4.34a2.457,2.457,0,0,1,1.084-.248c.555-.066.367-.5.368-.8.013-2.6-.01-5.192.015-7.788a2.826,2.826,0,0,1,1.785-2.9,2.338,2.338,0,0,1,.907-.15c2.346,0,4.692-.014,7.038,0a2.434,2.434,0,0,1,2.461,1.519,4,4,0,0,1,.333,1.994,2.706,2.706,0,0,1-2.719,1.9c-1.061.07-2.127.036-3.189.019-.716-.012-1.017.27-1,1,.03,1.25,0,2.5.011,3.753a1.213,1.213,0,0,0,.217.886,1.457,1.457,0,0,0,1.08.207q23.091,0,46.181,0c1.282,0,2.565-.048,3.847-.023.743.015,1.092-.242,1.073-1.026-.03-1.219.013-2.441-.015-3.66-.021-.939-.158-1.08-1.113-1.092-1.439-.019-2.878-.044-4.316-.045q-15.675-.01-31.35,0a3.469,3.469,0,0,1-3.054-1.307,1.631,1.631,0,0,1-.324-1.742c.161-.386.107-.854.452-1.169a3.02,3.02,0,0,1,1.177-1.029,2.175,2.175,0,0,1,1.189-.188q20.092,0,40.185-.007a2.537,2.537,0,0,1,1.993.833,4.377,4.377,0,0,1,.726,2.653q.027,3.568,0,7.137c-.006.638.107.977.846,1.164a2.527,2.527,0,0,1,1.348,4.146c-.533.672-1.344.571-1.991.9-1.456.014-2.913.02-4.369.046-.3.005-.623-.118-.886.133.628,3.272,1.294,6.535,2.123,9.763.213,1.137.52,2.257.667,3.407l.383,2.042a4.115,4.115,0,0,1,.306,1.617,6.029,6.029,0,0,0,.355,1.442c.539,2.015.956,4.057,1.32,6.11a19.166,19.166,0,0,0,.708,3.366,1.562,1.562,0,0,0,.232.71c.289,1.484.655,2.951.94,4.438a1.893,1.893,0,0,0,.065.464c.43,1.838.43,1.841,2.306,2.06.441.052.834.263,1.263.347.485.1.8-.037.782-.609-.01-.312,0-.626,0-.939q0-31.121.007-62.241c0-.984-.1-2.024.737-2.8a3.6,3.6,0,0,1,2.676-.885c2.436-.007,4.872-.029,7.307.013.761.013,1.022-.186,1.013-.987-.041-3.559-.032-7.12-.009-10.679A2.625,2.625,0,0,1,125.314,0a4.62,4.62,0,0,1,1.7.753l0,0a4.685,4.685,0,0,1,.844,2.713q-.017,53.147-.007,106.294c0,1.349-.163,1.183,1.213,1.183q21.316.005,42.631-.008a2.817,2.817,0,0,1,2.292,1.032c.964,1.486,1.618,3.133,2.437,4.694a2.061,2.061,0,0,0,.371.76l1.879,3.755a24.023,24.023,0,0,1,1.686,3.573v.939c-.243.3-.21.742-.524,1.006a3.63,3.63,0,0,1-2.935,1.162q-25.518-.022-51.037,0a1.991,1.991,0,0,0-1.1.1h0a25.923,25.923,0,0,1-3.229,4.294l-2.05,1.882a24.277,24.277,0,0,1-7.906,4.269,22.09,22.09,0,0,1-11.054.662,13.061,13.061,0,0,1-3.389-.965,28.5,28.5,0,0,1-5.092-2.417c-.95-1.014-2.166-1.71-3.163-2.666l-.761-.744a28.164,28.164,0,0,1-2.9-3.869,1.179,1.179,0,0,0-1.181-.559c-3.148.016-6.3.005-9.444.011a8.642,8.642,0,0,1-1.3-.091q-6.132-.008-12.259,0a1.273,1.273,0,0,0-.3.052c-.424.031-.518.417-.687.69a25.36,25.36,0,0,1-2.343,3.217,9.956,9.956,0,0,1-2.078,2.049,6.97,6.97,0,0,0-.92.777v-.005a27.51,27.51,0,0,1-4.009,2.5,38.315,38.315,0,0,1-4.35,1.695c-.653.024-1.211.5-1.892.388-1.039.261-2.114.195-3.163.361a14.288,14.288,0,0,1-4.5-.348,33.255,33.255,0,0,1-3.978-1.131,8.409,8.409,0,0,1-.821-.2,4.631,4.631,0,0,1-1.582-.707,7.532,7.532,0,0,0-.982-.62,24.223,24.223,0,0,1-3.873-2.7,24.56,24.56,0,0,1-2.99-3.018,17.732,17.732,0,0,1-1.658-2.362,1.086,1.086,0,0,0-1.066-.559c-1.651.025-3.3.009-4.953.01a4.507,4.507,0,0,1-3.144-1.6c-1.444-1.5-2.946-2.954-4.414-4.435-2.024-2.014-4.033-4.043-6.065-6.05a5.637,5.637,0,0,1-1.209-1.739c-.012-.219-.036-.437-.036-.656Q0,93.04.013,72.708a8.32,8.32,0,0,1,4.123-7.32,7.717,7.717,0,0,1,2.312-1.039,14.92,14.92,0,0,1,4.1-.264c.748.028,1.054-.177,1.028-1-.056-1.718-.033-3.439-.009-5.159A2.782,2.782,0,0,1,14.5,55.352c3.751-.036,7.5-.012,11.254-.012a5.172,5.172,0,0,1,.646.1,3.5,3.5,0,0,1,1.965,1.49c.923,1.288,1.769,2.628,2.653,3.942" transform="translate(0)"/>
        <path id="Path_38505" data-name="Path 38505" d="M245.4,177.627c-.022-1.872-.037-3.744-.07-5.616-.009-.494.277-.548.663-.546,1.219.007,2.439.036,3.656-.009a2.653,2.653,0,0,0,2.716-1.731c.181-.293,0-.737.394-.941l5,.007a2.929,2.929,0,0,0,3.154,2.74q15.812-.015,31.625-.007c1.376,0,1.433.045,1.445,1.391.012,1.22.037,2.44-.014,3.659-.04.96-.244,1.141-1.2,1.141q-23.367,0-46.734,0a1.066,1.066,0,0,1-.639-.088" transform="translate(-199.184 -137.035)" fill="#ed1c24"/>
        <path id="Path_38506" data-name="Path 38506" d="M245.706,177.033l46.929,0c1.352,0,1.352,0,1.353-1.336,0-1.251-.057-2.506.019-3.753.054-.886-.378-.929-1.066-.928q-14.689.024-29.378.011h-2.44a2.689,2.689,0,0,1-3.059-2.828c0-.1.039-.161.152-.14.363,2.069,1.246,2.81,3.375,2.811q17.927.005,35.854.006c1.266,0,1.267,0,1.267,1.3,0,1.408-.025,2.816.011,4.223.017.643-.186.894-.853.878-1.5-.036-3-.008-4.505-.008q-23.277,0-46.554-.011c-.366,0-.813.226-1.105-.216" transform="translate(-199.489 -136.44)" fill="#d81d24"/>
        <path id="Path_38507" data-name="Path 38507" d="M281.851,163.822l.188,0,.372.934c-.149.306-.126.685-.394.942q-.083-.936-.166-1.871" transform="translate(-228.835 -133.003)" fill="#493825"/>
        <path id="Path_38508" data-name="Path 38508" d="M115.194,397.2a3.968,3.968,0,0,0-.766.535c-1.268,1.424-2.886,1.549-4.674,1.534-7.732-.066-15.464-.037-23.2-.014a1.592,1.592,0,0,1-1.525-.807c-3.208-4.879-6.452-9.735-9.685-14.6a3.675,3.675,0,0,0-3.571-2.2c-8.2.064-16.4.029-24.6.028-1.126,0-1.111,0-1.139-1.143-.019-.778-.017-1.553-.087-2.335a2.985,2.985,0,0,0-3.06-2.449c-4.381.032-8.762.013-13.143.011-1.269,0-1.269,0-1.269-1.3,0-.469,0-.939,0-1.408a3.262,3.262,0,0,1,3.454-3.487c1.439-.03,2.879-.007,4.318-.006,10.17,0,20.34-.011,30.508.008.632.042.857.569,1.151,1,2.406,3.5,4.709,7.068,7.071,10.6.07.1-.005-.032.05.079a4.721,4.721,0,0,0,5.2,2.929,1.175,1.175,0,0,1,.643.1,3.032,3.032,0,0,1,.955,1.423,2.611,2.611,0,0,0,2.625,1.436q11.171,0,22.342,0h20.747c1.306,0,1.592.18,1.844,1.473a8.945,8.945,0,0,1,.143,4.622,4.839,4.839,0,0,1-1.834.085c-.717.011-1.429.065-2.141.108a3.066,3.066,0,0,0-1.368.255,14.188,14.188,0,0,0-2.989.694v0a19.7,19.7,0,0,0-6,2.834" transform="translate(-23.125 -300.04)" fill="#ed1c24"/>
        <path id="Path_38509" data-name="Path 38509" d="M278.593,268.269c-.691-1-1.386-2-2.068-3a1.855,1.855,0,0,1-.219-1.088c0-6.1.01-12.209-.012-18.313,0-.66.2-.858.856-.857q15.778.025,31.555,0c.565,0,.786.158.912.758.9,4.31,1.863,8.607,2.8,12.908a18.4,18.4,0,0,1,.652,3.082c.044.515.4.919.389,1.43a42.348,42.348,0,0,0,.988,4.972,19.992,19.992,0,0,0,.428,2.159l.361,1.7c.426,1.548.638,3.145,1.053,4.694a23.009,23.009,0,0,0,.726,3.25.485.485,0,0,1-.152.465,1.5,1.5,0,0,1-.913.126c-5.1,0-10.2-.016-15.3.022-.778.006-.915-.254-.913-.958q.033-12.434.011-24.869a3.267,3.267,0,0,0-1.371-2.913,2.375,2.375,0,0,0-1.413-.4q-5.772.008-11.543,0a2.445,2.445,0,0,0-1.352.3,3.075,3.075,0,0,0-1.376,2.973c.018,6.067.008,12.134.008,18.2v1.069c-.61,0-.648-.531-.894-.84-.977-1.687-2.146-3.248-3.22-4.871" transform="translate(-224.324 -198.923)" fill="#606060"/>
        <path id="Path_38510" data-name="Path 38510" d="M36.388,475.98l-.57-.558a3.775,3.775,0,0,0-2-.556c-1.47-.009-2.94-.031-4.409.009-.743.02-1.07-.17-1.03-.994.067-1.4.066-2.816,0-4.22-.037-.808.26-1.012,1.017-1.008,4.409.025,8.819.014,13.228.012,2.3,0,3.291-.981,3.336-3.307,0-.062,0-.125,0-.188.014-2.232.014-2.232,2.2-2.232,7.255,0,14.511.008,21.766-.013a1.637,1.637,0,0,1,1.6.822c.887,1.356,1.714,2.753,2.66,4.07a2.39,2.39,0,0,1,.7.85l3.829,5.8-.182.19A23.74,23.74,0,0,0,68.88,469.8a11.928,11.928,0,0,0-3.449-.628,25.684,25.684,0,0,0-5.486.26,27.09,27.09,0,0,0-6.606,2.111A23.524,23.524,0,0,0,50.852,473a26.617,26.617,0,0,0-6.387,6.376,17.82,17.82,0,0,0-2.069,3.759L41.65,485.2a18.056,18.056,0,0,0-1.029,4.6,37.633,37.633,0,0,0-.01,4.946,28.039,28.039,0,0,0,.532,2.834c.069.506-.038.648-.547.687a3.71,3.71,0,0,1-3.479-1.29c-1.179-1.406-2.578-2.627-3.875-3.934a2.144,2.144,0,0,1-.669-.845c.861-.376,1.87.152,2.683-.415,1.744-.771,2.209-2.171,1.313-3.953a2.8,2.8,0,0,0-2.688-1.124c-1.528-.011-3.056-.023-4.583.006-.674.013-.937-.2-.914-.912q.074-2.289,0-4.582c-.022-.711.234-.924.915-.91,1.558.033,3.118.013,4.677.009a2.458,2.458,0,0,0,1.276-.19.76.76,0,0,0,.579-.346c1.332-1.154,1.485-2.195.557-3.795" transform="translate(-23.04 -375.849)" fill="#818080"/>
        <path id="Path_38511" data-name="Path 38511" d="M472.485,557.9a25.06,25.06,0,0,1-5.245-3.752,15.887,15.887,0,0,1-3.2-4.7,18.765,18.765,0,0,1-1.673-8.732,18.51,18.51,0,0,1,3.413-9.272,17.054,17.054,0,0,1,7.274-5.855,16.157,16.157,0,0,1,10.515-1.111,17.751,17.751,0,0,1,7.947,8.831c.194.72.553,1.378.772,2.088a1.957,1.957,0,0,1,.128.819c-.022.184-.046.395-.249.461-.221.072-.327-.127-.425-.273a13.466,13.466,0,0,1-.651-1.232,4.915,4.915,0,0,0-1.628-1.866,26.74,26.74,0,0,0-3.378-2.515,12.538,12.538,0,0,0-18.423,9.814c-.483,5.566,1.918,9.655,6.694,12.426.24.149.482.294.733.423a12.5,12.5,0,0,0,12.214-1.212,12.267,12.267,0,0,0,4.469-5.521c.173-.4.325-.811.508-1.208a1.538,1.538,0,0,0,.265-.593.6.6,0,0,1,.359-.549,1.415,1.415,0,0,1,.21,1.474,20.8,20.8,0,0,1-8.13,12.643,6.688,6.688,0,0,1-1.741.9,13.824,13.824,0,0,1-6,.066,4.122,4.122,0,0,1-1.786-.472,9.478,9.478,0,0,0-1.23-.4,1.433,1.433,0,0,1-.792-.2c-.259-.267-.7-.164-.941-.473" transform="translate(-375.35 -425.465)" fill="#606060"/>
        <path id="Path_38512" data-name="Path 38512" d="M142.352,559.461a16.4,16.4,0,0,1-11.76-1.793,17.623,17.623,0,0,1-4.916-27.3,18.163,18.163,0,0,1,5.778-4.353,17.628,17.628,0,0,1,4.652-1.414,14.191,14.191,0,0,1,5.839.016,6.111,6.111,0,0,1,2.832,1.538,28.4,28.4,0,0,1,4.142,4.56,22.051,22.051,0,0,1,1.483,2.806,20.56,20.56,0,0,1,1.268,3.794c.1.412.636,1.078-.277,1.347a.733.733,0,0,1-.265-.5,12.3,12.3,0,0,0-5.833-7.172,3.1,3.1,0,0,0-.875-.3c-1.006-.337-2.011-.661-3.045-.912a11.575,11.575,0,0,0-5.1.026,7.1,7.1,0,0,0-3.082,1.067,12.06,12.06,0,0,0-6.648,8.885,11.431,11.431,0,0,0,1.683,8.872,12.555,12.555,0,0,0,21.27.285,7.534,7.534,0,0,1,.59-.843,5.35,5.35,0,0,0,1.023-1.971c.112-.267.1-.725.546-.57.38.131.25.532.172.821a28.468,28.468,0,0,1-.781,2.789,18.677,18.677,0,0,1-4.12,6.723,19.912,19.912,0,0,1-3.016,2.787,9.819,9.819,0,0,1-1.56.813" transform="translate(-98.387 -425.684)" fill="#606060"/>
        <path id="Path_38513" data-name="Path 38513" d="M214.549,533.041a21.63,21.63,0,0,0-2.635-4.143c-1.543-1.711-3.018-3.584-5.2-4.46a9.253,9.253,0,0,0-4.591-.349,13.954,13.954,0,0,1-1.668.112q-.085-.063-.054-.122c.02-.039.04-.058.06-.058h0a12.636,12.636,0,0,1,5.636,0,23.174,23.174,0,0,1,5.534,1.931,17.25,17.25,0,0,1,8.062,8.888,16.672,16.672,0,0,1,.329,12.5c-.2.551-.395,1.107-.592,1.66A15.109,15.109,0,0,1,217,552.768h0a9.057,9.057,0,0,1-1.891,2.054,19.918,19.918,0,0,1-7.884,4.107,2.8,2.8,0,0,1-.558.043,23.871,23.871,0,0,0,4.578-3.927,19.953,19.953,0,0,0,4.775-9.67c.013-.062-.068-.145-.142-.287-.459.911-.48,1.977-1.329,2.6-.233-.351-.024-.66.108-.965a12.705,12.705,0,0,0,.7-8.116,1.325,1.325,0,0,1,.041-1,.192.192,0,0,1,.275-.06q.008.271.016.543c.16.144.418.242.437.466.1,1.219.566,2.41.407,3.331-.208-2.839-.484-5.969-1.987-8.849" transform="translate(-162.7 -425.195)" fill="#818080"/>
        <path id="Path_38514" data-name="Path 38514" d="M582.2,535.213a18.7,18.7,0,0,0-7.313-8.451,2.639,2.639,0,0,1-.39-.381,17.819,17.819,0,0,1,7.82,3.743,17.433,17.433,0,0,1,5.3,7.326,17.072,17.072,0,0,1,.352,11.511,18.075,18.075,0,0,1-4.622,7.55,19.756,19.756,0,0,1-4.719,3.306,22.606,22.606,0,0,1-3.88,1.393.451.451,0,0,1-.439-.071,21.793,21.793,0,0,0,4.015-3.151,20.07,20.07,0,0,0,5.18-9.218,4.031,4.031,0,0,0,.326-2.285c-.307.247.116.872-.492.945-.253-.273-.066-.595-.1-.892.569-2.107.108-4.21-.03-6.313.438-.061.438-.061.694.438-.634-1.8-.606-3.8-1.7-5.451" transform="translate(-466.286 -427.369)" fill="#818080"/>
        <path id="Path_38515" data-name="Path 38515" d="M344.756,318.852c0,3.63-.02,7.26.016,10.89.008.792-.257,1.03-1.024,1.007-1.469-.044-2.942-.03-4.412.014-.7.021-1.008-.158-1.005-.935q.035-11.078,0-22.156c0-.687.211-.948.916-.927q2.3.067,4.6.016c.692-.015.925.219.919.919-.027,3.724-.013,7.448-.013,11.172" transform="translate(-274.692 -249.046)" fill="#606060"/>
        <path id="Path_38516" data-name="Path 38516" d="M488.5,273.353l-1.864-8.647a39.4,39.4,0,0,1-1.043-5.039c-.327-1.9-.793-3.775-1.181-5.663-.244-1.187-.614-2.339-.838-3.527a5.461,5.461,0,0,1-.422-1.893,3.559,3.559,0,0,0-.3-1.711v.005c-.229-1.609-.229-1.609,1.36-1.609h.187c1.387,0,1.34.011,1.64,1.317.672,2.924,1.247,5.869,1.891,8.8.345,1.57.75,3.132.99,4.725a17.166,17.166,0,0,1,.6,2.2,21.016,21.016,0,0,1,.787,3.738c.309,1.623.677,3.233.957,4.864.25,1.458.613,2.906.939,4.355.387,1.723.768,3.45,1.08,5.19a.386.386,0,0,1-.088.26c-.836.108-1.676.007-2.513.053-.419.023-.648-.136-.7-.553-.13-1.111-.55-2.153-.764-3.243.059-.932-.493-1.758-.468-2.683-.1-.308,0-.673-.253-.942" transform="translate(-391.94 -199.135)" fill="#d81d24"/>
        <path id="Path_38517" data-name="Path 38517" d="M622.944,187.44q0,17.744-.006,35.487c0,.388.2.958-.184,1.12s-.645-.385-.906-.662a22.9,22.9,0,0,0-4.893-4.047,1.578,1.578,0,0,1-.814-1.541q.022-32.953,0-65.905c0-.894.254-1.224,1.172-1.187,1.562.063,3.13.055,4.693,0,.757-.026.962.233.956.963-.031,3.5-.014,7.01-.014,10.515V187.44" transform="translate(-500.244 -122.356)" fill="#252526"/>
        <path id="Path_38518" data-name="Path 38518" d="M692.764,616.806c.405.018.81.05,1.215.05,7.758.012,15.518.035,23.277.011.9,0,1.516.176,1.734,1.112a4.073,4.073,0,0,0,.4.913,6.51,6.51,0,0,0,.785,1.393c.125.161.179.364.3.53v0c.2.213.206.526.371.759v0c1.017,1.93,1.033,1.773-1,1.772q-21.587-.007-43.174,0c-1.543,0-1.66-.154-1.238-1.668.054-.194.016-.459.3-.526a.855.855,0,0,1,.279.849c-.06.6.261.772.781.766.219,0,.438,0,.657,0H715c1.718,0,1.728-.011.951-1.54-.525-1.032-1-2.088-1.55-3.108a1.294,1.294,0,0,0-1.278-.768c-.344.012-.689,0-1.033,0q-17.085,0-34.169,0a3.741,3.741,0,0,1-1.665-.169.194.194,0,0,1-.081-.3l-.011.009a.484.484,0,0,1,.249-.11c5.45.009,10.9-.048,16.35.032" transform="translate(-548.213 -500.75)" fill="#818080"/>
        <path id="Path_38519" data-name="Path 38519" d="M358.628,462a17.592,17.592,0,0,0-.366-4.643c-.324-1.3-.386-1.359-1.682-1.359H313.407a2.568,2.568,0,0,1-2.662-1.73c.322-.033.392.243.53.434a2.776,2.776,0,0,0,2.548,1.071q19.69-.009,39.379,0c2.125,0,4.251.019,6.376,0a3.6,3.6,0,0,1,2.438.785c1.225,1.335,1.239,2.98,1.217,4.647-.024,1.743,0,1.723-1.718,1.378a19.474,19.474,0,0,1-2.889-.575" transform="translate(-252.295 -368.816)" fill="#d81d24"/>
        <path id="Path_38520" data-name="Path 38520" d="M33.993,437.2c-1.721,0-3.441-.017-5.161.009-.614.009-.924-.147-.91-.836.034-1.626.026-3.253,0-4.88-.008-.6.2-.83.819-.825q5.255.04,10.51.023c.674,0,.95.255.934.949-.035,1.532-.038,3.066,0,4.6.018.71-.285.947-.942.943-1.752-.013-3.5,0-5.255,0v.024" transform="translate(-22.669 -349.658)" fill="#d81d24"/>
        <path id="Path_38521" data-name="Path 38521" d="M66.583,368.923q-17.509,0-35.017-.005c-2.282,0-3.462,1.2-3.488,3.467-.027,2.353-.027,2.353,2.328,2.353q5.868,0,11.735,0a3.25,3.25,0,0,1,3.583,3.511c0,.032,0,.063,0,.094.036,2.387.036,2.387,2.39,2.387q11.923,0,23.845.008a2.927,2.927,0,0,1,2.885,2.275,4.741,4.741,0,0,1-.43-.481,3.525,3.525,0,0,0-3.168-1.629c-8.232.032-16.465,0-24.7.037-.962,0-1.316-.273-1.2-1.219a10.667,10.667,0,0,0,.009-1.407c-.019-2.218-.988-3.213-3.188-3.225-2.723-.015-5.447,0-8.17,0-1.753,0-3.506-.019-5.259.01-.643.011-.916-.2-.879-.867.04-.717,0-1.439.012-2.159a3.35,3.35,0,0,1,3.386-3.506c.312-.018.626-.006.939-.006,12.052,0,24.1.03,36.155-.032,1.518-.008,2.688.193,3.318,1.7.188.18.409.354.1.615-.464-.064-.655-.45-.852-.784a1.79,1.79,0,0,0-1.7-.892,5.4,5.4,0,0,1-2.641-.236" transform="translate(-22.62 -299.205)" fill="#c4a66a"/>
        <path id="Path_38522" data-name="Path 38522" d="M620.477,105.232c.811,0,1.624.02,2.434-.006.569-.018.785.22.762.779-.027.685-.028,1.374,0,2.059.02.5-.2.655-.664.651q-2.529-.019-5.056,0c-.467,0-.646-.154-.68-.645-.2-2.841-.21-2.841,2.641-2.841h.562" transform="translate(-501.105 -85.432)" fill="#e7e8e8"/>
        <path id="Path_38523" data-name="Path 38523" d="M342.239,560c-.186,1.543-.377,3.085-.558,4.628a22.707,22.707,0,0,0,.264,4.565c.054.645.2,1.292.317,1.931.135.739-.125.887-.759.874-1-.02-2,0-3,0h-14.93c-1.3,0-1.193.015-1-1.264.175-1.153.439-2.287.5-3.477a23.266,23.266,0,0,0-2.97-12.9c-.426-.761-.178-.956.555-.956q11.6,0,23.194.012c.547,0,1.269.006.8.941a1.282,1.282,0,0,1-.307-.118,4.285,4.285,0,0,0-1.574-.186H322.04c-.156,0-.313,0-.469,0-.809.046-.905.169-.535.9a24.074,24.074,0,0,1,2.279,6.627,7.95,7.95,0,0,1,.188,1.766c.035,1.571.073,3.142,0,4.713a8.934,8.934,0,0,1-.309,2.316c-.174.95-.035,1.132.923,1.134q8.26.022,16.521,0c1.016,0,1.186-.156.935-1.188a24.12,24.12,0,0,1-.418-5.692,12.538,12.538,0,0,1,.778-4.589.221.221,0,0,1,.3-.038" transform="translate(-259.722 -449.305)" fill="#232325"/>
        <path id="Path_38524" data-name="Path 38524" d="M73.945,467.41a8.2,8.2,0,0,1-1.4-1.953c-.585-.921-1.229-1.8-1.812-2.725a.888.888,0,0,0-.883-.387q-11.693,0-23.387-.008c-.6,0-.733.242-.735.783a16.4,16.4,0,0,1-.106,2.427,3.019,3.019,0,0,1-3.2,2.64c-4.414-.016-8.829.015-13.243-.023-.831-.007-1.172.171-1.113,1.075a29.628,29.628,0,0,1,0,3.755c-.054.871.275,1.056,1.071,1.023,1.438-.059,2.88-.036,4.32-.008a2.626,2.626,0,0,1,1.952.735,8.93,8.93,0,0,0-3.425-.345c-1.127-.008-2.253-.02-3.379.006-.525.012-.73-.185-.726-.708.015-1.69.029-3.38,0-5.069-.016-.81.468-.8,1.043-.8q6.618.012,13.237,0a4,4,0,0,0,1.666-.189,2.672,2.672,0,0,0,1.542-2.577,16.712,16.712,0,0,0,0-2.064c-.053-.716.236-.907.922-.9,4.443.024,8.887.013,13.33.013,3.348,0,6.7.023,10.045-.018a1.573,1.573,0,0,1,1.522.823c.885,1.4,1.822,2.759,2.738,4.136a.253.253,0,0,1,.021.363" transform="translate(-22.636 -375.169)" fill="#6d6c73"/>
        <path id="Path_38525" data-name="Path 38525" d="M92.725,325.466c-.688,0-1.378-.024-2.065.007-.659.03-.9-.259-.867-.9.033-.687.021-1.377,0-2.064-.014-.56.235-.794.791-.777q3.229.1,6.459.167a.836.836,0,0,1,.713.382q.815,1.2,1.607,2.416c.284.437.121.606-.371.6-2.09-.009-4.181,0-6.271,0q0,.083,0,.166" transform="translate(-72.901 -261.217)" fill="#606060"/>
        <path id="Path_38527" data-name="Path 38527" d="M675.814,617.362a1.106,1.106,0,0,1,.02.183,6.693,6.693,0,0,1-.428,4.11c-.745,1.973-.675,2.077,1.384,2.077q19.246,0,38.493,0c1.659,0,3.318-.033,4.976-.02.637.006,1.013-.045.54-.793a1.348,1.348,0,0,1-.317-.862c.506.25.568.8.744,1.231.2.486-.152.644-.613.64-1.44-.009-2.879,0-4.319,0H675.921c-1.182,0-1.275-.022-1.052-1.137.308-1.534.325-3.093.572-4.627.045-.279.013-.648.373-.8" transform="translate(-547.85 -501.237)" fill="#343335"/>
        <path id="Path_38528" data-name="Path 38528" d="M52.259,587.92c-.318.594-.882.319-1.347.366-.366.037-.738.008-1.349.008.544.553.945.965,1.35,1.371,1.325,1.328,2.686,2.622,3.966,3.992.857.918,1.9.6,2.9.61.3,0,.289-.259.222-.494a20.7,20.7,0,0,1-.615-5.063,17.634,17.634,0,0,1,.318-4.268c.182-.84.39-1.676.561-2.519.054-.264.121-.481.391-.582a31.971,31.971,0,0,0-.988,6.527,22.066,22.066,0,0,0,.632,5.741c.193.682.053.891-.708.961A3.986,3.986,0,0,1,53.91,593.1c-1.308-1.5-2.8-2.843-4.209-4.263-.16-.161-.485-.294-.347-.588.127-.272.445-.173.679-.166a11.39,11.39,0,0,0,2.226-.165" transform="translate(-40.044 -471.99)" fill="#616066"/>
        <path id="Path_38529" data-name="Path 38529" d="M34.745,554.344c-.309.409-.758.376-1.194.376-1.594,0-3.188.024-4.781-.01-.609-.013-.823.178-.807.8.037,1.468.044,2.939,0,4.406-.021.686.25.825.876.836a35.817,35.817,0,0,1,5.7.156,1.647,1.647,0,0,1,1.525,1.143,3.626,3.626,0,0,0-2.885-.994c-1.492.08-2.993,0-4.489.03-.684.016-.947-.22-.932-.917.034-1.621.039-3.243,0-4.863-.019-.765.307-.959,1.007-.95,1.994.025,3.989,0,5.984-.01" transform="translate(-22.533 -450.072)" fill="#535257"/>
        <path id="Path_38530" data-name="Path 38530" d="M487.624,259.836c-.5-2.3-1.015-4.589-1.5-6.888-.52-2.453-1.016-4.911-1.526-7.367-.067-.323-.2-.6-.6-.6-.688,0-1.377,0-2.066,0-.271,0-.381.071-.335.386a7.978,7.978,0,0,1,.016,1.119c-.648-1.7-.645-1.7,1.109-1.7,1.9,0,1.924-.006,2.322,1.8.86,3.9,1.695,7.805,2.53,11.71a7,7,0,0,1,.075.934.511.511,0,0,1-.021.608" transform="translate(-390.698 -198.739)" fill="#b86300"/>
        <path id="Path_38531" data-name="Path 38531" d="M529.66,471.872a17.641,17.641,0,0,1,3.54.649c.634.185.958.049.935-.668a17,17,0,0,0-.279-3.795c-.163-.636-.711-1.012-.808-1.635a2.99,2.99,0,0,1,1.26,2.564c.088,1.021,0,2.056.03,3.083.02.655-.286.832-.864.72-1.068-.208-2.139-.379-3.217-.534a21.774,21.774,0,0,0-8.489.758,1.533,1.533,0,0,1-.368,0,6.616,6.616,0,0,1,3.012-.809c.329-.267.763-.164,1.125-.318l4.122-.018" transform="translate(-423.327 -378.689)" fill="#a84e00"/>
        <path id="Path_38532" data-name="Path 38532" d="M147.864,499.16a10.7,10.7,0,0,1,3.891-2.261,22.656,22.656,0,0,1,11.361-1.632c.891.082,1.984-.046,2.775.69-1.516-.161-3.005-.533-4.539-.562a23,23,0,0,0-12.732,3.427,1.355,1.355,0,0,1-.757.337" transform="translate(-120.051 -402.009)" fill="#67666d"/>
        <path id="Path_38533" data-name="Path 38533" d="M535.383,705.471a40.62,40.62,0,0,0,4.318-1.321c-.595.78-1.571.77-2.372,1.095a16.063,16.063,0,0,1-7.245.754,7.306,7.306,0,0,1-3.72-1.094c.369-.232.646.019.941.18a15.136,15.136,0,0,0,8.078.386" transform="translate(-427.357 -571.7)" fill="#131314"/>
        <path id="Path_38534" data-name="Path 38534" d="M525.234,369.971c-.374-1.82-.742-3.641-1.123-5.459q-.931-4.447-1.871-8.893a.977.977,0,0,1,.023-.278c.067-.084.124-.075.175.017l0-.007c.419,1.359.592,2.773.936,4.148.29,2.094.872,4.128,1.259,6.2a29.15,29.15,0,0,1,.806,4.292c-.077.083-.144.071-.2-.022" transform="translate(-424.004 -288.454)" fill="#b56100"/>
        <path id="Path_38535" data-name="Path 38535" d="M696.844,616.345a2.2,2.2,0,0,1-.451.1q-8.074,0-16.148-.017c.146-.293.422-.22.661-.22q7.607-.005,15.215,0a1.158,1.158,0,0,1,.723.144" transform="translate(-552.293 -500.289)" fill="#343335"/>
        <path id="Path_38536" data-name="Path 38536" d="M260.983,378.108l-.195-.56c.856.531,1.175,1.481,1.716,2.249,1.213,1.721,2.352,3.493,3.512,5.251a1.645,1.645,0,0,1,.435.909l-.1.1c-.33-.007-.481-.259-.637-.486-1.566-2.282-3.039-4.626-4.559-6.939a.842.842,0,0,1-.177-.52" transform="translate(-211.734 -306.531)" fill="#331701"/>
        <path id="Path_38537" data-name="Path 38537" d="M486.989,272.725c.705.658.463,1.614.7,2.413.551,1.894.841,3.863,1.265,5.8a2.94,2.94,0,0,1,.095,1.011c-.064.073-.123.065-.178-.012l-1.7-7.891a1.484,1.484,0,0,1-.177-1.316" transform="translate(-395.31 -221.426)" fill="#be6700"/>
        <path id="Path_38538" data-name="Path 38538" d="M294.839,428.711l-.531-.435a2.321,2.321,0,0,0-.734-1.1c-1.028-.887-1.49-2.175-2.274-3.237-.35-.475-.861-.912-.794-1.61.023-.024.046-.048.068-.073a10.275,10.275,0,0,1,1.75,2.375c.735,1.033,1.312,2.174,2.133,3.155a1.323,1.323,0,0,1,.382.929" transform="translate(-235.859 -342.827)" fill="#341801"/>
        <path id="Path_38541" data-name="Path 38541" d="M440.052,557.047l.056.267a48.341,48.341,0,0,0-2.413,5.65l-.074-.06a.771.771,0,0,1-.089-.794,20.926,20.926,0,0,1,1.96-4.62.773.773,0,0,1,.56-.444" transform="translate(-355.179 -452.267)" fill="#242426"/>
        <path id="Path_38542" data-name="Path 38542" d="M489.478,504.289a8.074,8.074,0,0,1,3.033-1.862,6.484,6.484,0,0,1,2.971-.972,48.585,48.585,0,0,0-6,2.834" transform="translate(-397.409 -407.13)" fill="#a85b00"/>
        <path id="Path_38544" data-name="Path 38544" d="M520.891,417.071l.2.022a7.608,7.608,0,0,1-3.174.141c-.188,0-.3-.2-.34-.4q-.223-1.182-.445-2.364a2.122,2.122,0,0,1-.246-1,.174.174,0,0,1,.143-.18,8.1,8.1,0,0,1,.642,2.6c.178.9.456,1.344,1.435,1.206a13.948,13.948,0,0,1,1.781-.034" transform="translate(-419.661 -335.554)" fill="#975100"/>
        <path id="Path_38545" data-name="Path 38545" d="M471.368,659.127a45.651,45.651,0,0,0,3.2,4.7,9.926,9.926,0,0,1-2.806-3.6c-.181-.329-.526-.648-.4-1.106" transform="translate(-382.682 -535.146)" fill="#0e0e0f"/>
        <path id="Path_38546" data-name="Path 38546" d="M518.131,333.719a1.477,1.477,0,0,1-.175-.016q-.377-1.877-.754-3.754c-.113-.432-.426-.837-.179-1.318.746.495.415,1.377.6,2.037a6.445,6.445,0,0,1,.507,3.051" transform="translate(-419.698 -266.816)" fill="#2c1700"/>
        <path id="Path_38547" data-name="Path 38547" d="M497.32,321.664a.6.6,0,0,1,.178.012c.293,1.444.58,2.889.884,4.33a1.5,1.5,0,0,1,.081.723c-.743-.452-.352-1.261-.54-1.884a8.455,8.455,0,0,1-.6-3.181" transform="translate(-403.763 -261.158)" fill="#512b00"/>
        <path id="Path_38549" data-name="Path 38549" d="M68.561,532.332A2.312,2.312,0,0,1,68,536.126a3.137,3.137,0,0,0,.558-3.794" transform="translate(-55.212 -432.201)" fill="#29292b"/>
        <path id="Path_38550" data-name="Path 38550" d="M180.494,525.184a1.637,1.637,0,0,1-.006.18,26.508,26.508,0,0,0-4.246,1.206c-.148.038-.295.079-.442.119.663-.795,1.7-.741,2.561-1.07a3.64,3.64,0,0,1,2.133-.436" transform="translate(-142.733 -426.359)" fill="#272629"/>
        <path id="Path_38551" data-name="Path 38551" d="M206.4,523.51a20.52,20.52,0,0,0-5.636,0,9.3,9.3,0,0,1,5.636,0" transform="translate(-162.997 -424.682)" fill="#272629"/>
        <path id="Path_38552" data-name="Path 38552" d="M288.673,661.961l2.433-3.767a7.768,7.768,0,0,1-2.433,3.767" transform="translate(-234.374 -534.388)" fill="#161617"/>
        <path id="Path_38553" data-name="Path 38553" d="M102.908,554.144a8.175,8.175,0,0,1,2.069-3.759l-2.069,3.759" transform="translate(-83.551 -446.858)" fill="#5e5d63"/>
        <path id="Path_38554" data-name="Path 38554" d="M524.24,359.791a20.572,20.572,0,0,1-.936-4.149c.564.38.339,1.018.476,1.531a7.915,7.915,0,0,1,.46,2.618" transform="translate(-424.872 -288.746)" fill="#2c1700"/>
        <path id="Path_38555" data-name="Path 38555" d="M485,264.368l.177,1.316a6.186,6.186,0,0,1-.715-3.229c.071-.042.122-.027.149.054l.389,1.859" transform="translate(-393.321 -213.068)" fill="#2c1800"/>
        <path id="Path_38556" data-name="Path 38556" d="M513.733,396.858c-.032.953.518,1.81.455,2.768q-.048.04-.094.081l-.091.02-.034-.086-.587-3.163c.372-.109.212.273.35.38" transform="translate(-416.817 -321.885)" fill="#975100"/>
        <path id="Path_38557" data-name="Path 38557" d="M278.616,680.273a19.961,19.961,0,0,1,1.891-2.055,3.71,3.71,0,0,1-1.891,2.055" transform="translate(-226.209 -550.646)" fill="#161617"/>
        <path id="Path_38558" data-name="Path 38558" d="M515.695,322.9c-.078.458.3.854.18,1.318-.641-.552-.211-1.408-.58-2.037q.01-.3.021-.608a3.111,3.111,0,0,1,.379,1.327" transform="translate(-418.37 -261.089)" fill="#b05f00"/>
        <path id="Path_38559" data-name="Path 38559" d="M483.55,255.5q-.075-.025-.149-.054c.028-.564-.382-1.066-.23-1.648.559.471.393,1.1.379,1.7" transform="translate(-392.26 -206.055)" fill="#bc6500"/>
        <path id="Path_38560" data-name="Path 38560" d="M910.353,628.733a3.989,3.989,0,0,1-.776-1.467.173.173,0,0,1,.046-.272q.351.6.7,1.195a.388.388,0,0,1,.026.545" transform="translate(-738.45 -509.056)" fill="#79797b"/>
        <path id="Path_38561" data-name="Path 38561" d="M272.688,488.815c-.007-.121-.014-.242-.021-.363a.888.888,0,0,1,.563.94,1.335,1.335,0,0,1-.542-.578" transform="translate(-221.379 -396.574)" fill="#2f2e31"/>
        <path id="Path_38562" data-name="Path 38562" d="M516.362,413.378a.538.538,0,0,1,.124.066q.1.549.2,1.1c-.47-.288-.346-.739-.321-1.163" transform="translate(-419.208 -335.622)" fill="#2d1801"/>
        <path id="Path_38563" data-name="Path 38563" d="M913.789,633.888c-.009-.182-.018-.364-.027-.545a.919.919,0,0,1,.387.935l-.36-.39" transform="translate(-741.886 -514.212)" fill="#343436"/>
        <path id="Path_38564" data-name="Path 38564" d="M520.478,705.888l.741.192c.056.032.078.068.066.108s-.028.064-.045.064c-.378.036-.753.058-.981-.341.063-.1.136-.109.219-.024" transform="translate(-422.4 -573.063)" fill="#131314"/>
        <path id="Path_38565" data-name="Path 38565" d="M525.385,707.31a1.149,1.149,0,0,1-.021-.172c.408.023.877-.137,1.129.368l-.941-.18a1.228,1.228,0,0,0-.167-.016" transform="translate(-426.545 -574.12)" fill="#414145"/>
        <path id="Path_38566" data-name="Path 38566" d="M908.242,623.94c-.016.09-.031.181-.046.272a.827.827,0,1,1,.046-.272" transform="translate(-737.069 -506.002)" fill="#7e7e81"/>
        <path id="Path_38567" data-name="Path 38567" d="M517.353,704.472l-.219.024c-.313-.011-.609-.052-.724-.411a2.167,2.167,0,0,1,.943.387" transform="translate(-419.275 -571.647)" fill="#161618"/>
        <path id="Path_38569" data-name="Path 38569" d="M916.14,639.056a.734.734,0,0,1-.371-.759.585.585,0,0,1,.371.759" transform="translate(-743.508 -518.234)" fill="#343436"/>
        <path id="Path_38570" data-name="Path 38570" d="M513.717,395.324l-.35-.38c0-.125,0-.25,0-.375a.616.616,0,0,1,.354.755" transform="translate(-416.801 -320.351)" fill="#ba6400"/>
        <path id="Path_38571" data-name="Path 38571" d="M244.409,380.28l3.067,4.847a15.522,15.522,0,0,1-3.355-.175c-.761-.121-1.144-.74-1.536-1.278-1.359-1.865-2.6-3.81-3.852-5.749-1.62-2.508-3.336-4.954-5.011-7.427.872,0,1.747.045,2.614-.023a1.8,1.8,0,0,1,1.971,1.053c.154.3.286.709.7.828q2.339,3.478,4.679,6.953c.225.333.481.646.722.969" transform="translate(-189.76 -300.781)" fill="#d81d24"/>
        <path id="Path_38572" data-name="Path 38572" d="M538.54,495.426a2.6,2.6,0,0,1-1.125.318c.274-.462.725-.3,1.125-.318" transform="translate(-436.329 -402.226)" fill="#fd7900"/>
        <path id="Path_38573" data-name="Path 38573" d="M513.831,559.74a15.372,15.372,0,0,1,.191,6.568,17.233,17.233,0,0,1-1.506,3.578,12.746,12.746,0,0,1-15.213,5.489,2.175,2.175,0,0,0-.637-.148,2.865,2.865,0,0,0-.864-.453,11.961,11.961,0,0,1-6.383-7.444,12.786,12.786,0,0,1,10.289-16.609,12.961,12.961,0,0,1,8.944,1.971,19.676,19.676,0,0,1,2.369,1.978,14.14,14.14,0,0,1,2.662,3.987,1.4,1.4,0,0,1,.148,1.084" transform="translate(-396.807 -447.007)"/>
        <path id="Path_38574" data-name="Path 38574" d="M529.555,643.058c1.285.212,2.539.571,3.822.807a9.49,9.49,0,0,0,4.144-.328,12.112,12.112,0,0,0,9.127-8.877.666.666,0,0,1,.347-.419q-.081.381-.161.762a12.77,12.77,0,0,1-15.3,8.826,7.921,7.921,0,0,1-2.188-.754.126.126,0,0,1,.208-.017" transform="translate(-429.778 -514.941)" fill="#151516"/>
        <path id="Path_38575" data-name="Path 38575" d="M610.018,577.435a16.137,16.137,0,0,0-2.81-5.071,4.393,4.393,0,0,1,1.783,2.038l.813,1.579c.148-1.43-.69-2.347-.894-3.434a3.224,3.224,0,0,1,.905,1.766c.37,1.164.662,2.354.958,3.539a.707.707,0,0,1-.217.781c-.306-.372.068-1.012-.538-1.2" transform="translate(-492.994 -464.703)" fill="#4a494f"/>
        <path id="Path_38576" data-name="Path 38576" d="M527.079,679.546l-.208.017-.573-.368a.7.7,0,0,1,.781.351" transform="translate(-427.302 -551.429)" fill="#131315"/>
        <path id="Path_38577" data-name="Path 38577" d="M173.1,559.333a10.438,10.438,0,0,0,.43,2.282,14.12,14.12,0,0,1-1.348,7.851,12.8,12.8,0,0,1-19.574,3.614,10.178,10.178,0,0,1-2.593-3.041,13.076,13.076,0,0,1-1.731-5.085,12.539,12.539,0,0,1,2.892-9.74,14.182,14.182,0,0,1,4.052-3.232,13.1,13.1,0,0,1,2.871-1.113,12.856,12.856,0,0,1,8.44.951,12.122,12.122,0,0,1,6.563,7.513" transform="translate(-120.335 -446.971)"/>
        <path id="Path_38578" data-name="Path 38578" d="M154.728,558.115c-.695.618-1.56.978-2.281,1.578a12.391,12.391,0,0,0-4.661,10.691,11.574,11.574,0,0,0,1.471,5.066,1.145,1.145,0,0,1,.2.7,11.166,11.166,0,0,1-1.932-6.964,11.81,11.81,0,0,1,2.022-6.7,11.359,11.359,0,0,1,4.958-4.4.149.149,0,0,1,.227.021" transform="translate(-119.773 -453.083)" fill="#151517"/>
        <path id="Path_38579" data-name="Path 38579" d="M275.653,573.343a3.737,3.737,0,0,1,1.067,2.09,21.327,21.327,0,0,1,1,6.883.744.744,0,0,1-.089.372,16.05,16.05,0,0,0-.838-4.293c.391-.449.168-.924.031-1.374-.376-1.23-.78-2.452-1.173-3.677" transform="translate(-223.803 -465.497)" fill="#424146"/>
        <path id="Path_38580" data-name="Path 38580" d="M252.2,564.922a19.975,19.975,0,0,0-2-3.637,12.729,12.729,0,0,0-4.052-3.487,3.989,3.989,0,0,1-.515-.39,6.348,6.348,0,0,1,3.185,1.962,12.647,12.647,0,0,1,3.589,5.544l-.21.008" transform="translate(-199.43 -452.56)" fill="#424146"/>
        <path id="Path_38581" data-name="Path 38581" d="M184.856,553.489l-.226-.022a6.013,6.013,0,0,1,3.034-1.114c-.847.6-1.919.642-2.808,1.135" transform="translate(-149.902 -448.457)" fill="#1b1b1d"/>
        <path id="Path_38582" data-name="Path 38582" d="M339.59,320.175c0-3.564.007-7.129-.007-10.693,0-.559.018-.94.77-.939.787,0,.739.445.738.972q-.008,10.693,0,21.387c0,.512.078.973-.722.987-.845.015-.782-.466-.782-1.02q.01-5.346,0-10.693" transform="translate(-275.709 -250.506)" fill="#fff"/>
        <path id="Path_38583" data-name="Path 38583" d="M624.152,224.861a29.147,29.147,0,0,0-3.736-3.482,5.144,5.144,0,0,0-.982-.715c-1.4-.544-1.592-1.581-1.589-2.962q.062-32.216.029-64.432c0-1.358,0-1.358,1.368-1.358,1.284,0,2.571.061,3.85-.021.914-.059,1.173.3,1.066,1.123a5.875,5.875,0,0,0,0,.751v71.1Z" transform="translate(-501.63 -123.316)" fill="#e7e8e8"/>
        <path id="Path_38584" data-name="Path 38584" d="M677.981,622.447q.214-2.054.428-4.109l36.055.005c2,0,2.01-.006,2.882,1.725.563,1.116,1.044,2.273,1.633,3.374.394.737.059.871-.566.884-.219,0-.438,0-.657,0h-38.59c-1.293,0-1.289,0-1.173-1.225a5.538,5.538,0,0,0-.012-.656" transform="translate(-550.425 -502.029)" fill="#e7e8e8"/>
        <path id="Path_38585" data-name="Path 38585" d="M32.711,438.335c-1,0-2-.015-3,.007-.486.01-.758-.092-.748-.665.028-1.5.022-3,0-4.506-.006-.486.173-.662.659-.658,1.971.017,3.943.009,5.915.005.641,0,.972.238.952.951-.039,1.376-.034,2.754,0,4.13.014.588-.215.762-.771.745-1-.031-2-.009-3-.009" transform="translate(-23.511 -351.157)" fill="#ed1c24"/>
        <path id="Path_38586" data-name="Path 38586" d="M346.444,555.84a17.8,17.8,0,0,0-2.43,5.858,21.53,21.53,0,0,0-.255,10.545c.268,1.261.266,1.294-.966,1.294-5.747,0-11.493-.009-17.24.012-.742,0-1.1-.1-.905-.982a9.338,9.338,0,0,0,.433-2.762,12.551,12.551,0,0,0,0-4.707,21.544,21.544,0,0,0-2.616-8.6c-.466-.885-.439-.93.52-.93q11.158,0,22.315,0c.4,0,.823-.072,1.143.273" transform="translate(-261.571 -451.06)" fill="#818080"/>
        <path id="Path_38587" data-name="Path 38587" d="M337.642,606.266a7.509,7.509,0,0,1,0,4.708q0-2.354,0-4.708" transform="translate(-274.133 -492.228)" fill="#545459"/>
        <path id="Path_38588" data-name="Path 38588" d="M93.451,326.68c-.626,0-1.252,0-1.878,0-.187,0-.461.055-.546-.043-.622-.718-.2-1.588-.284-2.388-.046-.439.292-.573.686-.572q1.08,0,2.16,0a1.128,1.128,0,0,1,1.012.56c.378.572.808,1.11,1.177,1.687.12.188.435.36.258.64-.132.208-.4.112-.612.115-.657.01-1.315,0-1.972,0" transform="translate(-73.623 -262.791)" fill="#818080"/>
        <path id="Path_38589" data-name="Path 38589" d="M530.843,589.951a7.523,7.523,0,0,1-13.341-.761c-.283-.323-.2-.769-.378-1.126a7.527,7.527,0,0,1,9.189-9.3c4,.846,6.723,5.682,5.363,9.424a18.9,18.9,0,0,1-.832,1.759" transform="translate(-419.618 -469.7)" fill="#e7e8e8"/>
        <path id="Path_38590" data-name="Path 38590" d="M572.244,588.889a7.563,7.563,0,0,0-5.228-9.393c-.062-.038-.083-.077-.063-.115s.041-.058.062-.058a7.136,7.136,0,0,1,5.011,4.043,7.447,7.447,0,0,1,.369,6.028.626.626,0,0,1-.334.427c-.189-.36.063-.632.183-.931" transform="translate(-460.305 -470.352)" fill="#383839"/>
        <path id="Path_38591" data-name="Path 38591" d="M530.8,578.09c0,.058,0,.115,0,.173a7.77,7.77,0,0,0-6.767,1.544c-.668.529-1.062,1.294-1.687,1.856-.083-.717.533-1.022.909-1.423a6.908,6.908,0,0,1,5.047-2.37,2.166,2.166,0,0,1,1.049,0,3.191,3.191,0,0,1,1.448.222" transform="translate(-424.085 -469.12)" fill="#424143"/>
        <path id="Path_38592" data-name="Path 38592" d="M592.03,630.183l-.183.931-.532.783a3.462,3.462,0,0,1,.714-1.713" transform="translate(-480.091 -511.646)" fill="#878689"/>
        <path id="Path_38593" data-name="Path 38593" d="M518.265,629.26a1.991,1.991,0,0,1,.378,1.126c-.52-.243-.4-.7-.378-1.126" transform="translate(-420.76 -510.897)" fill="#4c4c4e"/>
        <path id="Path_38594" data-name="Path 38594" d="M555.09,577.526l-1.048,0a1.029,1.029,0,0,1,1.048,0" transform="translate(-449.828 -468.778)" fill="#383839"/>
        <path id="Path_38595" data-name="Path 38595" d="M177.856,580.942l.933-.949a7.452,7.452,0,0,1,8.771-.5c.183.115.367.233.547.354a9.506,9.506,0,0,1,1.381,1.485,7.561,7.561,0,0,1,.956,7.5,2.341,2.341,0,0,0-.378.751h0c-.254.32-.373.738-.72.991-.509.49-.972,1.027-1.526,1.469l-.394.342c-.233.159-.542.172-.744.39-3.485,1.336-6.585.676-8.828-1.881a7.655,7.655,0,0,1,0-9.953" transform="translate(-142.909 -469.526)" fill="#e7e8e8"/>
        <path id="Path_38596" data-name="Path 38596" d="M200.1,579.381c-3.108-2.191-6.224-2.053-9.346-.033a4.1,4.1,0,0,1,2.816-1.58,7.216,7.216,0,0,1,6.788,1.579.163.163,0,0,1-.257.034" transform="translate(-154.871 -468.882)" fill="#323234"/>
        <path id="Path_38597" data-name="Path 38597" d="M177.38,592.322c-.339,1-1.079,1.774-1.383,2.822a7.29,7.29,0,0,0,.969,6.323c.162.248.469.442.415.808a6.375,6.375,0,0,1-1.948-5.071,6.288,6.288,0,0,1,1.948-4.882" transform="translate(-142.434 -480.907)" fill="#8c8c8f"/>
        <path id="Path_38598" data-name="Path 38598" d="M238.769,644.683a7.285,7.285,0,0,1,1.474-1.542q.16.092.028.221a3.456,3.456,0,0,1-1.5,1.321" transform="translate(-193.857 -522.167)" fill="#959497"/>
        <path id="Path_38599" data-name="Path 38599" d="M240.44,587.3l.257-.033c.434.391,1.007.669,1.1,1.341L240.44,587.3" transform="translate(-195.214 -476.805)" fill="#3f3e40"/>
        <path id="Path_38600" data-name="Path 38600" d="M246.633,639.4l-.028-.222c.3-.271.35-.751.772-.918a1.6,1.6,0,0,1-.744,1.14" transform="translate(-200.219 -518.203)" fill="#737275"/>
        <path id="Path_38601" data-name="Path 38601" d="M232.724,653.508a.668.668,0,0,1,.743-.39.728.728,0,0,1-.743.39" transform="translate(-188.949 -530.259)" fill="#4e4e50"/>
        <path id="Path_38602" data-name="Path 38602" d="M250.64,635.021a.613.613,0,0,1,.378-.751.771.771,0,0,1-.378.751" transform="translate(-203.482 -514.964)" fill="#737275"/>
        <path id="Path_38603" data-name="Path 38603" d="M545.05,596.737a2.384,2.384,0,0,1,2.427-1.257,2.417,2.417,0,0,1,2.3,1.916,13.43,13.43,0,0,1,.008,4.934,2.193,2.193,0,0,1-.359.639.191.191,0,0,1-.266-.012,16.99,16.99,0,0,0,.352-3.8,6.66,6.66,0,0,0-.242-1.568,2.112,2.112,0,0,0-3.321-1.111c-.276.189-.48.509-.872.5a.14.14,0,0,1-.025-.244" transform="translate(-442.479 -483.459)" fill="#343335"/>
        <path id="Path_38604" data-name="Path 38604" d="M546.964,608.435l.241.018a2.327,2.327,0,0,1-2.413,1.253,2.373,2.373,0,0,1-2.238-1.732,12.436,12.436,0,0,1-.023-5.29c.031-.167.2-.31.3-.464.01.083.021.165.031.248.078,1.146-.263,2.27-.158,3.422a6.5,6.5,0,0,0,.23,1.565,2.181,2.181,0,0,0,3.357,1.291,1.731,1.731,0,0,1,.672-.312" transform="translate(-440.261 -488.944)" fill="#343335"/>
        <path id="Path_38605" data-name="Path 38605" d="M203.037,603.945a1.651,1.651,0,0,1-1.27-1.336,11.561,11.561,0,0,1,.159-5.774,2.5,2.5,0,0,1,3.911-.609c.87.9.759,2.06.845,3.165a16.471,16.471,0,0,1-.1,2.613,2.4,2.4,0,0,1-2.9,2.056,3.128,3.128,0,0,0-.639-.115" transform="translate(-163.581 -483.519)"/>
        <path id="Path_38606" data-name="Path 38606" d="M209.76,606.637c.244-.319.506-.068.763-.027a2.233,2.233,0,0,0,2.637-2.187,21.149,21.149,0,0,1,.008-2.9,3.516,3.516,0,0,0-.769-2.6c.13-.09.25-.11.34.054a3.462,3.462,0,0,1,.853,2.3,11.625,11.625,0,0,1-.234,3.9,2.5,2.5,0,0,1-3.6,1.46" transform="translate(-170.305 -486.212)" fill="#2b2b2c"/>
        <path id="Path_38607" data-name="Path 38607" d="M207.94,595.556l-.34-.054c-1.247-.9-2.354-.724-3.75.6a2.4,2.4,0,0,1,4.09-.549" transform="translate(-165.506 -482.79)" fill="#909093"/>
        <path id="Path_38608" data-name="Path 38608" d="M547.808,604.312a2.309,2.309,0,0,1-2.653.831,2.372,2.372,0,0,1-1.76-2.372,10.016,10.016,0,0,1,.312-4.426,3,3,0,0,1,1.548-1.137,2.279,2.279,0,0,1,2.913,1.89,8.109,8.109,0,0,1-.36,5.213" transform="translate(-441.105 -484.82)"/>
      </g>
    </g>
  </g>
</svg>
