<svg xmlns="http://www.w3.org/2000/svg" xmlns:xlink="http://www.w3.org/1999/xlink" width="216.318" height="120.519" viewBox="0 0 216.318 120.519">
  <defs>
    <clipPath id="clip-path">
      <rect id="Rectangle_52182" data-name="Rectangle 52182" width="173.202" height="115.676" fill="none"/>
    </clipPath>
    <radialGradient id="radial-gradient" cx="0.5" cy="0.5" r="0.5" gradientUnits="objectBoundingBox">
      <stop offset="0"/>
      <stop offset="1" stop-color="#19304c" stop-opacity="0"/>
    </radialGradient>
  </defs>
  <g id="Group_56051" data-name="Group 56051" transform="translate(4650.593 -4180.267)">
    <g id="Group_53880" data-name="Group 53880" transform="translate(-4636.774 4180.267)">
      <g id="Group_53880-2" data-name="Group 53880" clip-path="url(#clip-path)">
        <path id="Path_39149" data-name="Path 39149" d="M0,62.235V51.412c1.284-3.742,3.89-6.674,6.087-9.851A3.3,3.3,0,0,1,8.97,40.413c3.605-.03,7.212-.072,10.815.014,2.517.06,3.682,1.257,3.723,3.822.075,4.618,0,9.237.039,13.856.006.742-.285,1.76.684,2.062a4.979,4.979,0,0,0,3.479-.072c.708-.312.5-1.191.5-1.844.023-4.055.008-8.111.012-12.166a16.308,16.308,0,0,1,.068-2.025c.3-2.393,1.623-3.626,4.026-3.652,3.943-.042,7.892-.132,11.828.034a4.867,4.867,0,0,0,4.813-2.622c2.572-4.1,5.383-8.055,8.008-12.125a5.871,5.871,0,0,1,5.357-2.89c4.337.014,8.675.022,13.013-.013.641-.005,1.516.193,1.753-.636a4.216,4.216,0,0,0-.138-3.286c-.331-.583-1.122-.4-1.727-.406-4.788-.015-9.577-.006-14.365-.008-.676,0-1.353.016-2.027-.024-3.227-.193-4.535-1.553-4.554-4.807s-.072-6.535.026-9.8c.07-2.351.932-3.205,3.108-3.314h58.335c2.088.09,3.031.867,3.116,2.936.155,3.773.139,7.552.005,11.326a3.438,3.438,0,0,1-2.806,3.381,9.927,9.927,0,0,1-3.016.3c-4.961,0-9.922-.014-14.883.016-.737,0-1.739-.3-2.06.682a4.388,4.388,0,0,0,.07,3.147c.294.659,1.083.489,1.682.493,3.89.024,7.786.142,11.668-.029a7.38,7.38,0,0,1,7.406,3.9c2.33,3.92,5.073,7.591,7.522,11.443a4.448,4.448,0,0,0,4.288,2.326c4.846-.115,9.7-.056,14.544-.03,3.28.018,4.374,1.1,4.393,4.375.032,5.467-.006,10.935.026,16.4,0,.734-.311,1.762.688,2.048a5.034,5.034,0,0,0,3.479-.11c.639-.291.489-1.084.494-1.687.024-3.326.005-6.651.013-9.977a8.93,8.93,0,0,1,.24-2.516,3.468,3.468,0,0,1,3.413-2.755c2.76-.1,5.524-.048,8.286-.018a4.26,4.26,0,0,1,2.786,1.068c1.844,1.578,3.493,3.357,5.183,5.093.5.511.537,1.233.919,1.791v48.367a5.585,5.585,0,0,1-1.712,2.652,6.5,6.5,0,0,0-1.187,1.2c-3.624,5.452-9.1,4.773-14.441,4.275-2.255-.211-3.36-1.7-3.458-4.1-.106-2.59-.028-5.183-.035-7.776-.006-2.817,0-5.635,0-8.452,0-2.72-.967-3.435-3.636-2.746a1.123,1.123,0,0,0-.959,1.014,14.464,14.464,0,0,0-.079,2.025c-.007,7.269.025,14.538-.018,21.807-.014,2.39-.684,3.162-2.769,3.46H60.186a3.168,3.168,0,0,1-3.022-1.754c-2.869-4.315-5.775-8.607-8.6-12.949A3.643,3.643,0,0,0,45.1,99.265c-3.716.083-7.435.038-11.153.023-4.419-.017-5.7-1.308-5.712-5.78-.015-4.055.012-8.111-.017-12.166-.005-.751.3-1.8-.576-2.126A4.913,4.913,0,0,0,24,79.27c-.642.275-.462,1.09-.464,1.69-.018,4.393,0,8.787-.01,13.18-.005,3.809-1.2,5.058-5,5.136q-4.139.084-8.28,0C6.513,99.2,5.23,97.858,5.226,94.09c-.008-6.927-.037-13.856.022-20.783a7.722,7.722,0,0,0-1.4-4.569c-1.4-2.091-3.1-4.02-3.851-6.5" transform="translate(0 -0.338)" fill="#050605"/>
        <path id="Path_39150" data-name="Path 39150" d="M262.067,340.846a1.38,1.38,0,0,0-.069.211c-.006.034.027.074.042.111H176.791q-.041-.146-.075-.294c.9-.015,1.8-.042,2.7-.042q41.325,0,82.651.014" transform="translate(-116.914 -225.493)" fill="#373535"/>
        <path id="Path_39151" data-name="Path 39151" d="M168.674.285a.613.613,0,0,1,.09-.284h58.862a.618.618,0,0,1,.091.284c-6.185.018-12.369.048-18.554.051q-19.657.013-39.313,0c-.392,0-.783-.035-1.175-.053" transform="translate(-111.594 -0.001)" fill="#373535"/>
        <path id="Path_39152" data-name="Path 39152" d="M124.468,158.212c-1.576-2.317-3.213-4.6-4.707-6.966a4.3,4.3,0,0,0-4.076-2.138c-4,.059-8-.012-12,.039-1.008.013-1.366-.234-1.364-1.308q.05-21.8,0-43.6c0-.992.342-1.219,1.267-1.208,4,.043,8-.062,12,.052a4.479,4.479,0,0,0,4.293-2.336c2.979-4.633,6.1-9.176,9.106-13.79a2.4,2.4,0,0,1,2.312-1.224q22.987.06,45.973,0a2.355,2.355,0,0,1,2.319,1.208c1.809,2.906,3.708,5.755,5.572,8.626-.682,2.184-2.132,3.941-3.328,5.824a186.022,186.022,0,0,1-12.74,17.614,4.993,4.993,0,0,1-1.722,1.581c-.222.04.062.023-.161.054-3.721.521-4.12.073-3.3-3.562,1.4-6.157,2.742-12.325,4.123-18.485.292-1.3.3-2.476-.979-3.286-1.126-.714-2.149-.544-3.489.7-5.823,5.4-11.695,10.749-17.551,16.113-4.651,4.26-9.24,8.59-13.992,12.741a25.364,25.364,0,0,0-2.278,2.263,2.344,2.344,0,0,0-.717,2.609,2.588,2.588,0,0,0,2.562,1.6c3.214.014,6.427,0,9.641.006,4.3,0,4.317.005,3.3,4.235-.828,3.449-1.33,6.976-2.463,10.352a113.549,113.549,0,0,1-11.577,9.013,48.5,48.5,0,0,1-4.338,2.928c-.51.293-1.013.8-1.691.346" transform="translate(-67.695 -56.72)" fill="#ed1c24"/>
        <path id="Path_39153" data-name="Path 39153" d="M167.766,177.442c3.6-1.755,6.678-4.284,9.875-6.635,2.481-1.824,4.915-3.712,7.369-5.571.575.55.2,1.168.09,1.74q-.6,2.982-1.312,5.939a2.716,2.716,0,0,0,1.073,3.268c1.224.786,2.27.219,3.213-.6,4.039-3.505,7.906-7.2,11.867-10.793,4.919-4.461,9.8-8.967,14.695-13.451,2.489-2.279,5.085-4.452,7.385-6.936.708-.765,1.4-1.55.924-2.688a2.728,2.728,0,0,0-2.681-1.709c-2.478-.047-4.958.007-7.436-.03-.7-.011-1.489.191-2.043-.491a189.548,189.548,0,0,0,16.565-23.23,16.385,16.385,0,0,1,1.111-1.457c1.307,1.891,2.66,3.752,3.9,5.682a3.546,3.546,0,0,0,3.363,1.809c1.407-.053,2.819.025,4.226-.025.754-.027,1.026.253.945.976a7.546,7.546,0,0,0,0,.844q0,29.921.039,59.842c0,1.517-.395,1.839-1.86,1.836q-32.123-.075-64.247-.006a2.64,2.64,0,0,1-2.594-1.375c-1.433-2.347-2.972-4.631-4.467-6.94" transform="translate(-110.993 -75.95)" fill="#d81d24"/>
        <path id="Path_39154" data-name="Path 39154" d="M469.052,179.44c0-8.116.023-16.233-.026-24.349-.007-1.167.348-1.349,1.476-1.548,3.56-.628,5.01,2.129,7.021,4.018.372.35.206.856.206,1.293q.01,20.714.028,41.428a2.483,2.483,0,0,1-.892,2.046A9.66,9.66,0,0,0,475.2,204c-1.442,2.124-3.591,1.444-5.533,1.433-.941-.005-.6-.936-.6-1.479-.022-6.876-.015-13.753-.015-20.629V179.44" transform="translate(-310.293 -101.523)" fill="#606060"/>
        <path id="Path_39155" data-name="Path 39155" d="M406.572,168.518c0,10.032-.024,20.064.029,30.1.007,1.3-.291,1.721-1.653,1.7-4.124-.067-4.125-.005-4.125-4.118q0-28.828-.034-57.656c0-1.416.351-1.778,1.755-1.747,4.027.091,4.028.025,4.028,4v27.729" transform="translate(-265.159 -90.5)" fill="#ed1c24"/>
        <path id="Path_39156" data-name="Path 39156" d="M28.286,159.862c0,7.155-.025,14.31.025,21.464.008,1.15-.254,1.537-1.475,1.533-4.29-.014-4.29.036-4.29-4.286,0-5.915-.029-11.831.022-17.746a5.8,5.8,0,0,0-1.1-3.615c-1.018-1.414-1.884-2.942-2.943-4.323a9.972,9.972,0,0,1-1.841-5.748c-.221-3.1,1.225-5.287,2.674-7.712a4.9,4.9,0,0,1,5.107-2.735c3.817.229,3.827.061,3.827,3.9v19.267" transform="translate(-11.02 -90.425)" fill="#606060"/>
        <path id="Path_39157" data-name="Path 39157" d="M219.494,23.039c-2.079.03-4.159.084-6.238.086-10.861.009-21.723-.022-32.584.037-1.411.007-1.94-.38-1.73-1.777.188-1.248-.3-2.55.271-3.775a3.387,3.387,0,0,1,1.658-.147q18.47-.012,36.94-.005c2.006,0,2.227.18,2.254,2.177.016,1.156.275,2.382-.572,3.4" transform="translate(-118.358 -11.533)" fill="#d81d24"/>
        <path id="Path_39158" data-name="Path 39158" d="M220.11,22.909c0-1.237-.071-2.479.032-3.708.111-1.327-.346-1.734-1.7-1.72-6.464.067-12.928.034-19.392.029q-9.612-.008-19.224-.031a3.406,3.406,0,0,1,1.976-.192c15.886-.006,31.773.027,47.659-.024,1.624-.005,2.252.272,2.17,2.084-.167,3.643-.048,3.659-3.758,3.645-2.589-.01-5.177-.054-7.766-.083" transform="translate(-118.975 -11.403)" fill="#ed1c24"/>
        <path id="Path_39159" data-name="Path 39159" d="M440.672,210.545c0,1.573-.036,3.148.014,4.72.025.8-.236,1.026-1.043,1.069-4.715.252-4.714.275-4.714-4.319,0-2.023.037-4.047-.016-6.069-.023-.88.269-1.129,1.15-1.165,4.61-.187,4.609-.214,4.609,4.415q0,.675,0,1.349" transform="translate(-287.736 -135.443)" fill="#e7e8e8"/>
        <path id="Path_39160" data-name="Path 39160" d="M71.008,202.425c-3.29-.048-2.78.423-2.811-2.886-.026-2.821-.005-2.821,2.843-2.821,2.869,0,2.869,0,2.869,2.943,0,2.763,0,2.763-2.9,2.763" transform="translate(-45.111 -130.148)" fill="#e7e8e8"/>
        <path id="Path_39161" data-name="Path 39161" d="M250.516,51.7c2.675,0,2.675,0,2.675,2.65,0,3.048,0,3.048-2.981,3.048-.563,0-1.127-.025-1.689,0-.718.036-1.036-.262-.991-.992.034-.561,0-1.126,0-1.689,0-3.02,0-3.02,2.982-3.02" transform="translate(-163.762 -34.205)" fill="#556775"/>
        <path id="Path_39162" data-name="Path 39162" d="M218.3,137.128c3.1.019,6.2.057,9.3.049a3.124,3.124,0,0,1,3.265,1.894c.64,1.517-.117,2.6-1.165,3.562q-16.88,15.488-33.768,30.967c-1.123,1.029-2.388,1.57-3.82.689a2.934,2.934,0,0,1-1.275-3.517c.611-2.62,1.132-5.261,1.691-7.893.991-4.376,1.949-8.759,2.995-13.122.275-1.151-.35-1.04-1.061-1.039-3.944.007-7.888-.022-11.832.016a3.075,3.075,0,0,1-3.269-1.848c-.631-1.506.1-2.6,1.153-3.57q15.439-14.166,30.884-28.326c1-.914,1.964-1.861,2.99-2.739,1.1-.939,2.346-1.413,3.712-.594a2.913,2.913,0,0,1,1.28,3.5c-1.525,6.843-2.947,13.709-4.559,20.53-.353,1.493.1,1.616,1.288,1.5.727-.069,1.462-.047,2.193-.066" transform="translate(-118.507 -73.593)" fill="#050605"/>
        <path id="Path_39163" data-name="Path 39163" d="M125.093,199.392c0,3.433-.027,6.867.018,10.3.012.935-.253,1.249-1.23,1.283-4.672.158-4.671.189-4.671-4.412,0-5.741.031-11.483-.026-17.223-.012-1.17.3-1.518,1.493-1.513,4.417.017,4.417-.029,4.417,4.3q0,3.631,0,7.261" transform="translate(-78.851 -124.265)" fill="#060708"/>
        <path id="Path_39164" data-name="Path 39164" d="M122.061,159.652c-2.8,0-2.8,0-2.8-2.81,0-2.952,0-2.952,3-2.952,2.887,0,2.887,0,2.887,2.9,0,2.865,0,2.865-3.084,2.865" transform="translate(-78.9 -101.813)" fill="#060809"/>
        <path id="Path_39165" data-name="Path 39165" d="M209.77,165.86l21.813-19.982.334.192c-.617,2.882-1.221,5.766-1.854,8.644-.481,2.19-1,4.373-1.5,6.558-.731,3.192.366,4.588,3.614,4.593,2.806,0,5.612,0,8.884,0L219.078,186l-.285-.291c1.152-5.113,2.314-10.224,3.451-15.34.675-3.041-.516-4.506-3.632-4.512-2.8-.005-5.609,0-8.842,0" transform="translate(-138.783 -96.512)" fill="#fff"/>
      </g>
    </g>
    <ellipse id="Ellipse_43" data-name="Ellipse 43" cx="108.159" cy="4.843" rx="108.159" ry="4.843" transform="translate(-4650.593 4291.1)" fill="url(#radial-gradient)"/>
  </g>
</svg>
