<svg id="Group_53930" data-name="Group 53930" xmlns="http://www.w3.org/2000/svg" xmlns:xlink="http://www.w3.org/1999/xlink" width="191.974" height="117.704" viewBox="0 0 191.974 117.704">
  <defs>
    <radialGradient id="radial-gradient" cx="0.5" cy="0.5" r="0.5" gradientUnits="objectBoundingBox">
      <stop offset="0"/>
      <stop offset="1" stop-color="#19304c" stop-opacity="0"/>
    </radialGradient>
    <clipPath id="clip-path">
      <rect id="Rectangle_51392" data-name="Rectangle 51392" width="151.139" height="113.407" fill="none"/>
    </clipPath>
  </defs>
  <ellipse id="Ellipse_29" data-name="Ellipse 29" cx="95.987" cy="4.298" rx="95.987" ry="4.298" transform="translate(0 109.108)" fill="url(#radial-gradient)"/>
  <g id="Group_53858" data-name="Group 53858" transform="translate(19.432 0)" style="isolation: isolate">
    <g id="Group_52948" data-name="Group 52948" style="mix-blend-mode: luminosity;isolation: isolate">
      <g id="Group_52948-2" data-name="Group 52948" clip-path="url(#clip-path)">
        <path id="Path_38609" data-name="Path 38609" d="M123.037,55.64A29.751,29.751,0,0,1,134,65.449a1.492,1.492,0,0,0,1.432.711c4.381-.024,8.763,0,13.145-.024a2.424,2.424,0,0,1,2.223,1.1,1.792,1.792,0,0,0,.34.541v1.581c-.254.322-.154.7-.177,1.064a6.492,6.492,0,0,1-.171,1.752q-.813,8.028-1.625,16.057c-.138,1.367-.27,2.735-.384,4.1a2.269,2.269,0,0,1-2.3,2.148c-2.9.008-5.793.02-8.689-.011a1.081,1.081,0,0,0-1.167.764,30.338,30.338,0,0,1-17.633,16.3,32.594,32.594,0,0,1-5.474,1.363,26.577,26.577,0,0,1-5.829.451c-1.477-.15-2.953-.322-4.434-.422a6.622,6.622,0,0,1-1.978-.439c-.605-.211-1.215-.41-1.833-.586l-.075.016-.071-.029a43.725,43.725,0,0,1-5.083-2.123,30.537,30.537,0,0,1-9.3-7.613,1.464,1.464,0,0,0-1.259-.6q-19.371.025-38.742,0a1.293,1.293,0,0,0-1.26.682,23.386,23.386,0,0,1-15.836,10.771,23.717,23.717,0,0,1-26.667-16A30.422,30.422,0,0,1,.035,86.6,18.7,18.7,0,0,0,.3,84.295c.278-1.6.648-3.176.919-4.774A43.237,43.237,0,0,1,8.053,64.18,44.244,44.244,0,0,1,22.927,50.686a1.24,1.24,0,0,0,.715-1.249c-.023-6.912-.015-13.823-.016-20.735,0-1.835.835-2.722,2.64-2.678.719.018.944-.17.924-.909-.053-1.961-.025-3.924-.015-5.886a2.373,2.373,0,1,1,4.714-.014c.009,2.021.022,4.042-.01,6.062-.009.568.14.745.731.745,2.1,0,2.826.765,2.827,2.845,0,5.359.015,10.719-.017,16.078,0,.761.194.985.931.805a31.114,31.114,0,0,1,5.3-.715c.743-.05.879-.344.878-1.027-.02-13.735.013-27.471-.049-41.206A2.629,2.629,0,0,1,45.252,0Q68.4.08,91.555.025A2.528,2.528,0,0,1,94.223,1.44a2.336,2.336,0,0,1-2.1,3.308c-1.306.075-1.3.074-.827,1.31,3.213,8.329,6.41,16.664,9.656,24.98a8.716,8.716,0,0,1,.61,3.307c-.032,5.8,0,11.6-.027,17.4,0,.762-.013,1.105.993.89A28.406,28.406,0,0,1,113,52.314c1.289.323,2.612.491,3.892.854a11.752,11.752,0,0,1,2.617.88c1.2.465,2.342,1.076,3.523,1.592" transform="translate(0 0)" fill="#191f21"/>
        <path id="Path_38610" data-name="Path 38610" d="M452.529,402.666q17.7,0,35.408-.02c.838,0,1.021.228.934,1.022-.486,4.421-.931,8.846-1.383,13.271-.134,1.31-.276,2.621-.354,3.935-.032.538-.225.74-.741.681a3.829,3.829,0,0,0-.439,0q-34.441,0-68.883.022c-.9,0-1.107-.223-1.1-1.1q.064-8.478.005-16.956c0-.707.206-.863.882-.862q17.836.03,35.672.014" transform="translate(-342.773 -331.792)" fill="#ed1c24"/>
        <path id="Path_38611" data-name="Path 38611" d="M314.122,45.821l.3.551a11.654,11.654,0,0,1,.706,1.847,8.524,8.524,0,0,0,.754,2.174c.662,1.683,1.333,3.363,1.976,5.054a2.475,2.475,0,0,1,.1.862c0,6.467,0,12.933.018,19.4a1.09,1.09,0,0,1-.77,1.176,23.758,23.758,0,0,0-5.417,3.166c-.4.308-.8.621-1.218.909a28.715,28.715,0,0,0-6.237,6.727,1.28,1.28,0,0,1-1.21.64q-16.957-.026-33.914,0c-.742,0-.849-.264-.847-.909q.028-11.641.012-23.282,0-18.1-.021-36.2c0-.865.238-1.049,1.07-1.047q18.012.042,36.023.019c1.42,0,1.421,0,1.954,1.362.084.216.149.439.224.658a4.282,4.282,0,0,0,.508,1.256l3.688,9.489a11.342,11.342,0,0,1,.881,2.284l1.053,2.812a3.661,3.661,0,0,0,.374,1.044" transform="translate(-221.127 -22.163)" fill="#d81d24"/>
        <path id="Path_38612" data-name="Path 38612" d="M27.029,416.8c1.979-6.921,6.379-11.616,13.281-13.578a18.089,18.089,0,0,1,17.383,3.906,18.878,18.878,0,0,1-8.035,32.635A18.947,18.947,0,0,1,27.9,428.575a7.37,7.37,0,0,1-.513-1.24v0c-.228-.482-.2-1.042-.453-1.517a15.937,15.937,0,0,1-.205-7.326c.139-.551-.014-1.164.3-1.694" transform="translate(-21.744 -331.63)" fill="#606060"/>
        <path id="Path_38613" data-name="Path 38613" d="M216.6,402.951c-.087-.382.228-.243.361-.243,3.511-.011,7.022,0,10.533-.021.67,0,.58.39.58.8q0,5.441,0,10.883a2.254,2.254,0,0,0,2.487,2.489c5.179,0,10.358.014,15.536-.014.685,0,.9.169.887.875-.047,2.076-.023,4.154-.014,6.231a2.235,2.235,0,0,0,2.356,2.353c2.75.007,5.5.051,8.25-.025a1.42,1.42,0,0,1,1.67,1.1,5.934,5.934,0,0,0,.414.867c.129.192.072.353-.132.406a2.785,2.785,0,0,1-.7.023q-16.547,0-33.094-.009c-.394,0-1.034.264-.967-.574a12.642,12.642,0,0,0,.82-4.818,19.292,19.292,0,0,0-.335-5.853,9.942,9.942,0,0,0-.181-1.192q-.511-1.445-.9-2.929a23.6,23.6,0,0,0-6.7-9.636,4.548,4.548,0,0,0-.881-.714" transform="translate(-178.474 -331.823)" fill="#d81d24"/>
        <path id="Path_38614" data-name="Path 38614" d="M57.781,302.167a39.7,39.7,0,0,1,16.343-15.321,40.68,40.68,0,0,1,15.064-4.286c.521-.047.759.046.753.62-.02,1.9-.028,3.806,0,5.708.01.6-.267.654-.747.651-2.84-.014-5.68-.021-8.519,0a2.354,2.354,0,0,0-2.2,3.577,2.381,2.381,0,0,0,2.225,1.143c2.781-.008,5.563.017,8.343-.016.663-.008.945.132.9.861a25.714,25.714,0,0,0,0,3.072c.039.691-.231.818-.859.817-5.8-.018-11.594.051-17.389-.019a24.832,24.832,0,0,0-13.189,3.572,1.6,1.6,0,0,1-.22.122c-.222.08-.45.375-.669.165s.1-.44.159-.665" transform="translate(-47.415 -232.83)" fill="#ed1c24"/>
        <path id="Path_38615" data-name="Path 38615" d="M550.641,543.79a18.7,18.7,0,0,1-15.287-6.238c-.173-.185-.5-.38-.414-.627.123-.341.514-.165.78-.165q13.7-.014,27.4,0c.268,0,.654-.175.786.161.1.258-.234.442-.4.629a18.338,18.338,0,0,1-8.278,5.366,10.654,10.654,0,0,0-1.412.355h0c-1.024.376-2.139.2-3.174.519" transform="translate(-440.795 -442.27)" fill="#e7e8e8"/>
        <path id="Path_38616" data-name="Path 38616" d="M315.681,412.216c-2.078,0-4.155-.015-6.233.01-.568.007-.84-.1-.832-.759.033-2.633.027-5.267,0-7.9-.005-.564.155-.763.741-.76q6.364.031,12.729,0c.6,0,.743.208.739.762-.021,2.633-.029,5.267,0,7.9.008.659-.264.765-.832.758-2.107-.025-4.214-.01-6.321-.01" transform="translate(-254.309 -331.923)" fill="#fff"/>
        <path id="Path_38617" data-name="Path 38617" d="M503.453,547.546l1.063.324a13.578,13.578,0,0,0,3.25.556,20.811,20.811,0,0,0,7.288-.547,23.291,23.291,0,0,0,14.825-10.669,1.207,1.207,0,0,1,1.321-.57c.515.036,1.255-.24,1.487.135.252.406-.339.915-.6,1.349a24.831,24.831,0,0,1-16.394,11.959c-10.623,2.28-19.486-1-26.426-9.369a20.827,20.827,0,0,1-2.274-3.428c-.274-.509-.2-.605.369-.666a2.721,2.721,0,0,1,2.97,1.464,21.057,21.057,0,0,0,7.662,7.189c.253.144.491.316.735.475.246.218.591.215.861.38l1.234.524a8.08,8.08,0,0,0,1.912.637c.229.114.5.1.719.256" transform="translate(-401.171 -442.154)" fill="#606060"/>
        <path id="Path_38618" data-name="Path 38618" d="M520.676,322.788c9.078-1.264,16.762,1.49,23.137,8.021a6.546,6.546,0,0,1,.462.528c.1.127.3.232.189.437-.082.152-.255.113-.4.114-.7,0-1.4-.013-2.107.006-.415.012-.623-.279-.873-.515a23.574,23.574,0,0,0-32.472-.148c-1.113,1.022-2.3.578-3.465.6-.424.007-.009-.44.137-.6a26.147,26.147,0,0,1,5.448-4.651,25.885,25.885,0,0,1,6.243-2.906c1.23-.3,2.47-.563,3.7-.878" transform="translate(-416.107 -265.74)" fill="#606060"/>
        <path id="Path_38619" data-name="Path 38619" d="M160.939,183.08c0-2.546.029-5.092-.017-7.637-.014-.771.2-1.024.985-.991,1.589.068,1.426-.146,1.427,1.405,0,4.681-.027,9.363.027,14.044a1.225,1.225,0,0,1-1.1,1.433c-1.329.336-1.319.377-1.319-.97V183.08" transform="translate(-132.604 -143.752)" fill="#fff"/>
        <path id="Path_38620" data-name="Path 38620" d="M585.323,364.95H567.7c4.468-2.89,12.144-3.185,17.623,0" transform="translate(-467.803 -298.852)" fill="#e7e8e8"/>
        <path id="Path_38621" data-name="Path 38621" d="M262.229,544.874c-.244.88.4.7.855.7q14.508.005,29.016,0c1.373,0,2.747.007,4.12-.006.287,0,.681.155.755-.345.281.133.4.322.04.462a2.23,2.23,0,0,1-.779.061q-16.671,0-33.341,0c-1.118,0-1.178-.077-.861-1.041a.129.129,0,0,1,.189-.043.179.179,0,0,1,.006.21" transform="translate(-215.788 -448.799)" fill="#694c09"/>
        <path id="Path_38622" data-name="Path 38622" d="M597.835,600.648a7.107,7.107,0,0,1-3.178.662,26.765,26.765,0,0,1-6.686-.321.927.927,0,0,1-.674-.351,5.006,5.006,0,0,1,1.711.245,22.649,22.649,0,0,0,8.311-.232,2.5,2.5,0,0,1,.515,0" transform="translate(-483.952 -494.923)" fill="#8d9298"/>
        <path id="Path_38623" data-name="Path 38623" d="M26.565,484c-.169,1.3-.373,2.594-.5,3.9a20.577,20.577,0,0,0,.513,5.211.137.137,0,0,1-.039.23,9.293,9.293,0,0,1-.664-3.12,26.246,26.246,0,0,1,.335-5.661.625.625,0,0,1,.354-.558" transform="translate(-21.279 -398.835)" fill="#1a1c20"/>
        <path id="Path_38624" data-name="Path 38624" d="M264.39,478.851a23.179,23.179,0,0,1,.67,7.211c-.27.381.239.958-.319,1.267a11.793,11.793,0,0,1,.155-2.52,45.1,45.1,0,0,0-.559-5.723.155.155,0,0,1,.053-.236" transform="translate(-217.795 -394.588)" fill="#402e06"/>
        <path id="Path_38625" data-name="Path 38625" d="M263.953,521.1c.315-.37.052-.885.319-1.267a10.375,10.375,0,0,1-.823,4.6l-.055-.2c-.133-.333.059-.594.194-.868a9.317,9.317,0,0,0,.366-2.269" transform="translate(-217.008 -428.355)" fill="#c78e0d"/>
        <path id="Path_38626" data-name="Path 38626" d="M576.935,324.189a13.169,13.169,0,0,1-3.7.878,12.054,12.054,0,0,1,3.7-.878" transform="translate(-472.366 -267.141)" fill="#8d9097"/>
        <path id="Path_38627" data-name="Path 38627" d="M624.236,574.491c1-.536,2.123-.3,3.174-.519a6.963,6.963,0,0,1-3.174.519" transform="translate(-514.391 -472.97)" fill="#727981"/>
        <path id="Path_38628" data-name="Path 38628" d="M260.617,465.808c-.018.078-.035.157-.053.235a8.963,8.963,0,0,1-.839-3.021,10.6,10.6,0,0,1,.892,2.785" transform="translate(-214.022 -381.545)" fill="#2f2206"/>
        <path id="Path_38629" data-name="Path 38629" d="M56.092,394.031l-.082.609.812-.23a3.468,3.468,0,0,1-1.242.873.5.5,0,0,1-.014-.549c.163-.244.241-.551.526-.7" transform="translate(-45.726 -324.693)" fill="#ab7302"/>
        <path id="Path_38630" data-name="Path 38630" d="M516.242,101.834a9.429,9.429,0,0,1-.88-2.284,3.756,3.756,0,0,1,.88,2.284" transform="translate(-424.675 -82.032)" fill="#362606"/>
        <path id="Path_38631" data-name="Path 38631" d="M534.379,150.421a4.661,4.661,0,0,1-.873-2.129c.195-.04.243.1.295.238.073.667.571,1.2.578,1.891" transform="translate(-439.626 -122.191)" fill="#b7830c"/>
        <path id="Path_38632" data-name="Path 38632" d="M531.051,139.7l-.295-.238c-.09-.664-.575-1.2-.587-1.892a4.445,4.445,0,0,1,.882,2.13" transform="translate(-436.876 -113.364)" fill="#362706"/>
        <path id="Path_38633" data-name="Path 38633" d="M568.235,594.538a4.162,4.162,0,0,1-1.926-.721c.713-.067,1.248.494,1.927.545a.1.1,0,0,1,.042.117c-.014.039-.029.058-.043.058" transform="translate(-466.657 -489.318)" fill="#434548"/>
        <path id="Path_38634" data-name="Path 38634" d="M508.262,329.87a2.207,2.207,0,0,1,1.218-.909,1.946,1.946,0,0,1-1.218.909" transform="translate(-418.824 -271.074)" fill="#4d3707"/>
        <path id="Path_38635" data-name="Path 38635" d="M642.254,572.2a1.759,1.759,0,0,1,1.412-.355,2.02,2.02,0,0,1-1.412.355" transform="translate(-529.238 -471.197)" fill="#727981"/>
        <path id="Path_38636" data-name="Path 38636" d="M492.026,39.746a1.35,1.35,0,0,1-.508-1.256,2.46,2.46,0,0,1,.508,1.256" transform="translate(-405.027 -31.717)" fill="#b8840c"/>
        <path id="Path_38637" data-name="Path 38637" d="M29.9,536l.039-.23a3.014,3.014,0,0,1,.347,1.429A1.8,1.8,0,0,1,29.9,536" transform="translate(-24.638 -441.488)" fill="#22252a"/>
        <path id="Path_38638" data-name="Path 38638" d="M32.085,543.875a2.43,2.43,0,0,1,.513,1.24c-.453-.3-.472-.773-.513-1.24" transform="translate(-26.439 -448.169)" fill="#22252a"/>
        <path id="Path_38639" data-name="Path 38639" d="M216.672,404.2a1.032,1.032,0,0,1,.881.714,1.655,1.655,0,0,1-.881-.714" transform="translate(-178.545 -333.076)" fill="#ab7a0b"/>
        <path id="Path_38640" data-name="Path 38640" d="M263.062,539.925c.067.318-.127.579-.194.867-.047.008-.094.018-.14.029-.03-.351-.073-.707.334-.9" transform="translate(-216.481 -444.914)" fill="#2a1e06"/>
        <path id="Path_38641" data-name="Path 38641" d="M526.668,129.553a1.032,1.032,0,0,1-.373-1.044,1.513,1.513,0,0,1,.373,1.044" transform="translate(-433.673 -105.895)" fill="#a5770b"/>
        <path id="Path_38642" data-name="Path 38642" d="M555.269,589.071a.82.82,0,0,1-.861-.379,1.014,1.014,0,0,1,.861.379" transform="translate(-456.85 -485.097)" fill="#82868c"/>
        <path id="Path_38643" data-name="Path 38643" d="M577.255,597.113c0-.059,0-.118,0-.176a.832.832,0,0,1,.7.348.7.7,0,0,1-.7-.172" transform="translate(-475.676 -491.894)" fill="#383a3c"/>
        <path id="Path_38644" data-name="Path 38644" d="M54.478,398.026l.014.549c-.074.071-.158.209-.222.2-.169-.023-.082-.153-.041-.242.079-.171.165-.339.249-.507" transform="translate(-44.638 -327.985)" fill="#7c5302"/>
        <path id="Path_38645" data-name="Path 38645" d="M319.8,87.693c-2.58,2.062-5.169,4.114-7.736,6.193a3.5,3.5,0,0,1-2.326.831c-8.342-.02-16.683-.01-25.024-.013-1.961,0-2.843-.879-2.843-2.829q0-24.321,0-48.641c0-1.951.887-2.842,2.835-2.843q14,0,28.01-.015a2.516,2.516,0,0,1,2.138.961c.409.7.48,1.545.914,2.239v0a15.955,15.955,0,0,0,.881,2.288c2.372,6.151,4.721,12.311,7.134,18.446a8.631,8.631,0,0,1,.607,3.308q-.049,7.373,0,14.746a3.074,3.074,0,0,1-1.3,2.706c-.891.661-1.73,1.39-2.592,2.09-.239.169-.46.362-.695.537" transform="translate(-232.268 -33.27)" fill="#191f21"/>
        <path id="Path_38646" data-name="Path 38646" d="M475.382,60.834a4.323,4.323,0,0,1-.881-2.288,7.7,7.7,0,0,1,.881,2.288" transform="translate(-391.004 -48.244)" fill="#533b07"/>
        <path id="Path_38647" data-name="Path 38647" d="M470.227,48.072a5.233,5.233,0,0,1-.914-2.238,5.254,5.254,0,0,1,.914,2.238" transform="translate(-386.729 -37.769)" fill="#533b07"/>
        <path id="Path_38648" data-name="Path 38648" d="M497.418,306.758a.853.853,0,0,1,.695-.537.757.757,0,0,1-.695.537" transform="translate(-409.888 -252.335)" fill="#976d0b"/>
        <path id="Path_38649" data-name="Path 38649" d="M56.59,435.024a14.625,14.625,0,0,1,6.508-4.568,13.951,13.951,0,0,1,8.6-.192,32.086,32.086,0,0,1,2.979,1.245c5.118,3.123,7.568,7.72,7.145,13.661a14.155,14.155,0,0,1-27.584,2.981,13.709,13.709,0,0,1,1.634-12.087c.257-.335.43-.728.718-1.04" transform="translate(-44.092 -354.067)"/>
        <path id="Path_38650" data-name="Path 38650" d="M159.856,434.262a13.585,13.585,0,0,1-2.979-1.245,6.917,6.917,0,0,1,2.979,1.245" transform="translate(-129.272 -356.819)" fill="#222529"/>
        <path id="Path_38651" data-name="Path 38651" d="M67.66,460.065a1.815,1.815,0,0,1-.719,1.04,1.323,1.323,0,0,1,.719-1.04" transform="translate(-55.162 -379.108)" fill="#404750"/>
        <path id="Path_38652" data-name="Path 38652" d="M403.1,76.029l4.04,10.545a17.415,17.415,0,0,0,.872,2.288q.017,7.265.04,14.529a1.026,1.026,0,0,1-.5.852q-3.207,2.569-6.4,5.155c-.494.454-1.052.828-1.575,1.246a4.81,4.81,0,0,1-4.18,1.45,49.32,49.32,0,0,0-5.269-.011c-.762.025-.99-.165-.984-.96.04-4.8.02-9.605.02-14.408q0-14.277-.016-28.553c0-.736.129-1,.942-.989q4.348.084,8.7,0a1.167,1.167,0,0,1,1.3.947c.854,2.3,1.762,4.578,2.649,6.865.225.312.209.709.368,1.045" transform="translate(-320.662 -55.352)" fill="#606060"/>
        <path id="Path_38653" data-name="Path 38653" d="M308.631,89.6c0-7.144.012-14.288-.017-21.432,0-.751.152-1,.954-.987,2.576.055,5.153.038,7.729.008.605-.007.8.162.794.783q-.024,21.651,0,43.3c0,.7-.244.816-.865.809-2.576-.031-5.153-.036-7.73,0-.69.01-.888-.177-.885-.88.026-7.2.016-14.4.016-21.608" transform="translate(-254.308 -55.36)" fill="#606060"/>
        <path id="Path_38654" data-name="Path 38654" d="M492.285,179.714a4.186,4.186,0,0,1-.872-2.288,6.738,6.738,0,0,1,.872,2.288" transform="translate(-404.94 -146.204)" fill="#2d6ca7"/>
        <path id="Path_38655" data-name="Path 38655" d="M448.424,308.381A4.289,4.289,0,0,1,450,307.135a3.105,3.105,0,0,1-1.575,1.246" transform="translate(-369.516 -253.089)" fill="#173653"/>
        <path id="Path_38656" data-name="Path 38656" d="M466.708,112.612a1.472,1.472,0,0,1-.368-1.045,1.065,1.065,0,0,1,.368,1.045" transform="translate(-384.275 -91.935)" fill="#183b5b"/>
        <path id="Path_38657" data-name="Path 38657" d="M93.434,457.123a9.4,9.4,0,0,1,6.137,9.364,9.54,9.54,0,0,1-6.727,8.524,9.427,9.427,0,0,1-11.212-5.032,17.512,17.512,0,0,1-.88-3.171c-.412-4.774,2.979-9.39,7.373-10.035a9.732,9.732,0,0,1,2.9-.241c.381.121.785.137,1.168.248h0c.4.176.843.18,1.244.343" transform="translate(-66.515 -376.188)" fill="#e7e8e8"/>
        <path id="Path_38658" data-name="Path 38658" d="M80.912,514.975a17.453,17.453,0,0,1,.88,3.171,5.866,5.866,0,0,1-.88-3.171" transform="translate(-66.674 -424.355)" fill="#aaadb0"/>
        <path id="Path_38659" data-name="Path 38659" d="M125.737,456.172c-.984-.117-1.948.2-2.929.136a6.116,6.116,0,0,1,3.559-.17.65.65,0,0,1-.63.034" transform="translate(-101.198 -375.723)" fill="#929598"/>
        <path id="Path_38660" data-name="Path 38660" d="M147.151,458.218a1.57,1.57,0,0,1-1.244-.343,1.456,1.456,0,0,1,1.244.343" transform="translate(-120.232 -377.283)" fill="#939699"/>
        <path id="Path_38661" data-name="Path 38661" d="M139.454,456.962l.63-.034a.459.459,0,0,1,.508.178,1.527,1.527,0,0,1-1.137-.144" transform="translate(-114.915 -376.513)" fill="#939699"/>
      </g>
    </g>
  </g>
</svg>
