<svg id="Group_54625" data-name="Group 54625" xmlns="http://www.w3.org/2000/svg" xmlns:xlink="http://www.w3.org/1999/xlink" width="190.328" height="128.368" viewBox="0 0 190.328 128.368">
  <defs>
    <clipPath id="clip-path">
      <rect id="Rectangle_52198" data-name="Rectangle 52198" width="161.737" height="125.482" fill="none"/>
    </clipPath>
    <radialGradient id="radial-gradient" cx="0.5" cy="0.5" r="0.5" gradientUnits="objectBoundingBox">
      <stop offset="0"/>
      <stop offset="1" stop-color="#19304c" stop-opacity="0"/>
    </radialGradient>
  </defs>
  <g id="Group_53914" data-name="Group 53914" transform="translate(15.137 0)">
    <g id="Group_53914-2" data-name="Group 53914" transform="translate(0)" clip-path="url(#clip-path)">
      <path id="Path_40991" data-name="Path 40991" d="M6.055,49.813Q34.138,34.34,62.136,18.7,77.8,10,93.464,1.295a8.7,8.7,0,0,1,6.82-.98c4.074,1.15,6.128,4.165,6.64,8.135a8.265,8.265,0,0,1-4.333,8.612q-4.94,2.925-10,5.641c-1.008.54-1.09.9-.471,1.843,3.562,5.449,7.063,10.932,10.562,16.418,3.16,4.955,1.8,10.123-3.369,12.894-3.186,1.707-6.365,3.432-9.576,5.095a1.613,1.613,0,0,0-1.011,1.694c.047,4.842.085,9.687-.009,14.525-.035,1.817-.085,3.16,2.263,3.691,1.732.392,2.7,2.08,2.879,3.969.07.733.076,1.473.076,2.206.009,3.625.006,3.565,3.578,3.644,1.308.028,1.656-.338,1.647-1.65-.054-8.261-.111-16.526.025-24.787A10.17,10.17,0,0,1,109.573,52.2q11.131-.014,22.262,0a10.384,10.384,0,0,1,10.274,8.315q1.8,8.7,3.464,17.426a2.148,2.148,0,0,0,1.353,1.722c2.825,1.381,5.591,2.9,8.46,4.181,2.939,1.312,5.265,3.122,6.352,6.258v18.637c-1.027,4.27-3.761,6.4-8.236,6.419-1.944.009-3.887.022-5.831,0a1.653,1.653,0,0,0-1.839,1.324,13,13,0,0,1-3.211,5.174,12.583,12.583,0,0,1-8.681,3.827h-.948c-1.675-.36-3.426-.1-5.072-.79a13.4,13.4,0,0,1-7.591-7.98,2.023,2.023,0,0,0-2.19-1.542q-13.785.047-27.574,0a1.98,1.98,0,0,0-2.149,1.413,14.755,14.755,0,0,1-2.629,4.453,12.2,12.2,0,0,1-9.023,4.443H75.5c-.262-.25-.591-.164-.894-.158a10.813,10.813,0,0,1-8.157-3.426,15.108,15.108,0,0,1-2.554-3.246,12.61,12.61,0,0,1-3.208,3.913,13.2,13.2,0,0,1-7.616,2.917H51.808a13.017,13.017,0,0,1-8.359-3.066,14.548,14.548,0,0,1-2.373-2.715c-.468-.657-.809-.679-1.283,0a12.742,12.742,0,0,1-10.1,5.784H28.431a.646.646,0,0,0-.427-.161,11.353,11.353,0,0,1-11.191-7.048c-1.255-2.857-2.854-3.388-5.48-3.122-4.131.414-6.757-2.576-6.713-6.545.047-4.526-.022-9.054.019-13.58.038-4.368,2.2-6.7,6.526-6.874,2.256-.092,1.934-.291,1.071-2.016C8.653,78.98,5.088,71.816,1.489,64.673A12.8,12.8,0,0,1,0,60.413V56.62c.91-3.255,3.151-5.211,6.055-6.807M78.307,83a4.867,4.867,0,0,1,3.906-4.548c.961-.205,1.242-.563,1.233-1.539-.054-4.769-.025-9.541-.025-14.566-16.352,8.719-32.5,17.335-48.66,25.947.019.12.035.24.054.36h1.511c13.413,0,26.825-.025,40.238.038,1.432.006,1.827-.382,1.71-1.754A24.829,24.829,0,0,1,78.307,83" transform="translate(0 0)" fill="#191f21"/>
      <path id="Path_40992" data-name="Path 40992" d="M247.225,91.581c.234,2.036,1.471,3.663,2.333,5.439.4.821.917.045,1.276-.155q7.7-4.291,15.365-8.642,28.99-16.358,57.98-32.715c1.725-.973,1.729-.964.628-2.681-.822-1.282-1.7-2.531-2.44-3.86-.515-.929-1-.9-1.841-.429q-14.077,7.876-28.188,15.692-21.323,11.852-42.655,23.688c-1.492.826-2.608,1.774-2.457,3.662" transform="translate(-241.956 -32.979)" fill="#d81d24"/>
      <path id="Path_40993" data-name="Path 40993" d="M251.485,309.582a13.438,13.438,0,0,1,12.751-7.321c7,.088,13.994,0,20.991.045,1.156.008,1.526-.274,1.51-1.486-.052-3.765,0-3.765-3.743-3.765q-41.668,0-83.336-.034c-1.387,0-1.747.319-1.714,1.711.1,4.259.065,8.522.016,12.782-.011.958.24,1.392,1.226,1.229a.53.53,0,0,1,.157,0c2.563.357,4.168-.135,5.311-3.056,1.791-4.578,5.726-6.987,10.7-7.324a12.536,12.536,0,0,1,11.8,5.877c.258.376.491.769.834,1.308,2.7-4.6,6.486-7.253,11.8-7.226,5.276.027,9.02,2.664,11.7,7.259" transform="translate(-187.557 -203.151)" fill="#818080"/>
      <path id="Path_40994" data-name="Path 40994" d="M77.126,212.678c-2.562-1.282-5.064-2.708-7.7-3.808-2.9-1.208-4.193-3.3-4.707-6.3-.937-5.467-2.081-10.9-3.182-16.338a5.134,5.134,0,0,0-5.429-4.488q-10.973-.076-21.947.006c-3.394.029-5.333,2.229-5.339,5.863q-.023,13.894-.006,27.787c0,2.263.041,4.527-.019,6.788-.026.976.312,1.243,1.266,1.263,4.023.086,4.022.117,4.022-3.84q0-13.42,0-26.84c0-3.9,2-5.868,5.941-5.869,4.158,0,8.316-.009,12.474,0a5.15,5.15,0,0,1,5.337,4.365,111.825,111.825,0,0,1,2.3,28.022c-.107,4.133-.007,4.136,4.183,4.136,1.684,0,3.37-.042,5.052.016.905.032,1.233-.289,1.163-1.179-.058-.732-.012-1.473-.012-2.209,0-5.216,1.424-6.772,6.605-7.38" transform="translate(75.512 -124.278)" fill="#ed1c24"/>
      <path id="Path_40995" data-name="Path 40995" d="M227.006,102.817a4.682,4.682,0,0,0-.768-2.085q-5.5-8.535-10.97-17.087c-.415-.65-.677-.964-1.538-.466q-7.421,4.285-14.935,8.409c-.929.511-.975.9-.447,1.752q5.9,9.482,11.717,19.021c.53.873.925.917,1.783.448q6.478-3.548,13.031-6.961a3.7,3.7,0,0,0,2.127-3.031" transform="translate(-129.223 -56.724)" fill="#ed1c24"/>
      <path id="Path_40996" data-name="Path 40996" d="M404.315,220.25a4.658,4.658,0,0,0,2.08-.636c4.249-2.275,8.5-4.551,12.771-6.777.838-.437.982-.76.45-1.613q-5.618-9.009-11.126-18.088c-.475-.779-.867-.944-1.719-.45q-6.6,3.823-13.271,7.512c-.8.445-1.014.744-.551,1.649,2.791,5.455,5.518,10.943,8.236,16.435a3.272,3.272,0,0,0,3.13,1.969" transform="translate(-383.678 -131.598)" fill="#ed1c24"/>
      <path id="Path_40997" data-name="Path 40997" d="M339.861,184.982c.4-.206.679-.346.954-.493,4.616-2.464,9.216-4.958,13.86-7.368.9-.465.931-.764.421-1.583q-5.737-9.2-11.362-18.477c-.515-.85-.888-1.043-1.79-.521q-6.663,3.853-13.4,7.581c-.937.518-1.126.886-.513,1.865,3.728,5.949,7.38,11.945,11.064,17.922.234.379.516.728.764,1.074" transform="translate(-298.623 -106.87)" fill="#ed1c24"/>
      <path id="Path_40998" data-name="Path 40998" d="M265.223,129.941c.193.321.379.636.571.947,3.762,6.114,7.538,12.219,11.272,18.35.49.8.827,1.1,1.795.564q6.392-3.527,12.885-6.869c1.023-.528,1.043-.938.468-1.86q-5.789-9.266-11.455-18.608c-.59-.975-.992-1.178-2.036-.567-4.157,2.434-8.379,4.756-12.564,7.141-.365.208-.957.256-.936.9" transform="translate(-216.051 -83.138)" fill="#ed1c24"/>
      <path id="Path_40999" data-name="Path 40999" d="M106.861,279.747c2.207,0,4.414-.03,6.62.015.884.018,1.315-.13,1.3-1.186-.059-4.465-.05-8.931,0-13.4.009-.923-.3-1.137-1.169-1.13-4.466.038-8.932.053-13.4-.008-1.076-.015-1.166.453-1.176,1.314-.009.89.149,1.451,1.193,1.286a1.21,1.21,0,0,1,.315,0c1.233.137,3.066-.6,3.565.319.622,1.143.191,2.857.222,4.324.01.45-.177.684-.644.671a6.48,6.48,0,0,0-.788.007c-1.236.116-2.848-.569-3.614.292-.74.831-.207,2.413-.216,3.663-.027,3.831-.01,3.831,3.852,3.831h3.941" transform="translate(15.703 -180.593)" fill="#d81d24"/>
      <path id="Path_41000" data-name="Path 41000" d="M123.871,330.466a15.735,15.735,0,0,1,2.146,4.594c.149.633.637.57,1.113.57q14.9,0,29.8,0c.509,0,1,.1,1.188-.671a13.045,13.045,0,0,1,2.17-4.489Z" transform="translate(-37.702 -226.026)" fill="#e7e8e8"/>
      <path id="Path_41001" data-name="Path 41001" d="M263.357,337.913a7.757,7.757,0,1,0-7.672,7.927,7.789,7.789,0,0,0,7.672-7.927" transform="translate(-179.948 -225.854)" fill="#606060"/>
      <path id="Path_41002" data-name="Path 41002" d="M66.03,338.2a7.766,7.766,0,0,0,7.823,7.623,7.815,7.815,0,1,0-.205-15.627,7.812,7.812,0,0,0-7.617,8" transform="translate(59.26 -225.84)" fill="#606060"/>
      <path id="Path_41003" data-name="Path 41003" d="M321.92,338.04a7.763,7.763,0,0,0,7.657,7.793A7.816,7.816,0,1,0,329.7,330.2a7.813,7.813,0,0,0-7.784,7.837" transform="translate(-277.5 -225.846)" fill="#606060"/>
      <path id="Path_41004" data-name="Path 41004" d="M412.018,337.8a7.812,7.812,0,0,0-7.859-7.6,7.818,7.818,0,1,0,.287,15.632,7.77,7.77,0,0,0,7.572-8.033" transform="translate(-375.572 -225.843)" fill="#606060"/>
      <path id="Path_41005" data-name="Path 41005" d="M108.626,225.124c2.1,0,4.2-.043,6.3.02.94.028,1.209-.3,1.053-1.181-.472-2.677-.95-5.353-1.355-8.04-.147-.976-.578-1.236-1.538-1.221q-5.433.087-10.868,0c-1.048-.018-1.354.3-1.328,1.336q.1,3.935,0,7.874c-.025,1.005.348,1.251,1.277,1.229,2.152-.053,4.305-.017,6.458-.017" transform="translate(13.833 -146.847)" fill="#606060"/>
      <path id="Path_41006" data-name="Path 41006" d="M207.054,21.354c-.007-3.091-2.414-5.979-5.811-3.978-3.476,2.047-7.033,3.96-10.587,5.87-.865.465-.953.823-.392,1.618,1.088,1.541,2.1,3.139,3.077,4.753.389.643.7.7,1.345.333,3.542-2.04,7.11-4.034,10.668-6.045a3.174,3.174,0,0,0,1.7-2.55" transform="translate(-105.335 -11.432)" fill="#d81d24"/>
      <path id="Path_41007" data-name="Path 41007" d="M15.738,330.16a15.684,15.684,0,0,1,2.171,4.7c.1.514.535.563.989.561,2.316-.011,4.635.058,6.948-.028a3.45,3.45,0,0,0,2.821-4.894c-.187-.389-.485-.339-.783-.339-3.978,0-7.955,0-12.146,0" transform="translate(127.774 -225.816)" fill="#e7e8e8"/>
      <path id="Path_41008" data-name="Path 41008" d="M233.578,264.132c-2.54,0-2.54,0-2.54,2.542,0,2.707,0,2.707,2.735,2.707,2.537,0,2.537,0,2.537-2.587,0-2.662,0-2.662-2.732-2.662" transform="translate(-147.589 -180.656)" fill="#e5e5e5"/>
      <path id="Path_41009" data-name="Path 41009" d="M16.655,299.637c0,2.668,0,2.668,2.747,2.667.471,0,.944-.028,1.413.005.739.053,1.081-.248,1.009-1a4.415,4.415,0,0,1,0-.471c.049-3.845.048-3.8-3.8-3.834-1.086-.009-1.551.253-1.379,1.375a8.346,8.346,0,0,1,.01,1.255" transform="translate(134.656 -203.142)" fill="#fff"/>
      <path id="Path_41010" data-name="Path 41010" d="M264,349.382a2.65,2.65,0,1,0,2.617-2.573A2.6,2.6,0,0,0,264,349.382" transform="translate(-190.995 -237.204)" fill="#191f21"/>
      <path id="Path_41011" data-name="Path 41011" d="M85.216,351.972a2.575,2.575,0,1,0-.054-5.149,2.575,2.575,0,0,0,.054,5.149" transform="translate(47.848 -237.214)" fill="#191f21"/>
      <path id="Path_41012" data-name="Path 41012" d="M341.15,346.819a2.576,2.576,0,1,0,2.518,2.651,2.526,2.526,0,0,0-2.518-2.651" transform="translate(-288.911 -237.21)" fill="#191f21"/>
      <path id="Path_41013" data-name="Path 41013" d="M412.813,349.477a2.517,2.517,0,0,0,2.671,2.491,2.576,2.576,0,0,0-.159-5.15,2.531,2.531,0,0,0-2.512,2.659" transform="translate(-386.701 -237.21)" fill="#191f21"/>
    </g>
  </g>
  <ellipse id="Ellipse_29" data-name="Ellipse 29" cx="95.164" cy="4.261" rx="95.164" ry="4.261" transform="translate(0 119.846)" fill="url(#radial-gradient)"/>
</svg>
