<svg id="MASAHA-Services-Rent-StationaryEquipment-Icon" xmlns="http://www.w3.org/2000/svg" xmlns:xlink="http://www.w3.org/1999/xlink" width="122" height="105" viewBox="0 0 122 105">
  <defs>
    <clipPath id="clip-path">
      <rect id="Rectangle_52598" data-name="Rectangle 52598" width="122" height="105" transform="translate(492.657 238.247)" fill="#fff" stroke="#707070" stroke-width="1"/>
    </clipPath>
    <radialGradient id="radial-gradient" cx="0.5" cy="0.5" r="0.5" gradientUnits="objectBoundingBox">
      <stop offset="0"/>
      <stop offset="1" stop-color="#19304c" stop-opacity="0"/>
    </radialGradient>
  </defs>
  <g id="Mask_Group_18911" data-name="Mask Group 18911" transform="translate(-492.657 -238.247)" clip-path="url(#clip-path)">
    <g id="Group_56565" data-name="Group 56565">
      <g id="Group_56540" data-name="Group 56540" transform="translate(519.078 244.473)">
        <path id="Path_44987" data-name="Path 44987" d="M-75.67,96.839a1.385,1.385,0,0,1,1.555-1.183q4.576-.009,9.154,0A2.791,2.791,0,0,1-62.505,97q3.255,4.925,6.543,9.829a3.491,3.491,0,0,1,.55,2.042c-.014,4.519.01,9.039-.024,13.559-.005.691.189.884.853.835a2.785,2.785,0,0,1,1.525.138,1.866,1.866,0,0,1,1.18,1.751c0,1.7.021,3.4,0,5.1a1.907,1.907,0,0,1-2.089,2.013q-4.75.018-9.5-.007a1.489,1.489,0,0,0-1.259.563,9.5,9.5,0,0,1-14.34-.048,1.348,1.348,0,0,0-1.171-.513q-15.157.019-30.313-.008a1.745,1.745,0,0,0-1.386.66,9.414,9.414,0,0,1-11.86,1.863,9.449,9.449,0,0,1-3.174-13.522c.595-.865.945-.96,1.969-.586.887.4,1.116,1.09.578,2.032a8.286,8.286,0,0,0-1.1,2.875,6.541,6.541,0,0,0,4.027,6.989,6.3,6.3,0,0,0,7.1-1.394,6.315,6.315,0,0,0,1.475-7.091,6.658,6.658,0,0,0-6.96-4.127c-1.181.168-1.716-.1-2.04-1.029.053-1.4.4-1.77,1.773-1.9a9.506,9.506,0,0,1,9.911,5.677c.153.336.26.584.716.569,1.093-.037,2.188-.029,3.281,0,.416.009.538-.125.537-.539q-.022-5.138,0-10.277c0-.372-.094-.537-.5-.637a2.466,2.466,0,0,1-2.053-2.6c-.015-.979-.017-1.958,0-2.936a2.452,2.452,0,0,1,1.9-2.465c.479-.124.649-.266.648-.779q-.023-19.257,0-38.516c0-.516-.125-.7-.671-.692q-3.67.041-7.34,0c-.5-.005-.686.151-.618.634a1.349,1.349,0,0,1,0,.345c-.192,1.532.039,2.5,1.825,3.242,3.433,1.432,4.668,5.787,3.011,9.187a7.04,7.04,0,0,1-9.143,3.2,6.906,6.906,0,0,1-3.958-7.033,6.745,6.745,0,0,1,4.735-5.875c.677-.205.846-.494.792-1.131a11.924,11.924,0,0,1,0-1.9c.042-.556-.177-.709-.692-.664a5.237,5.237,0,0,1-1.206-.017,1.261,1.261,0,0,1-1.216-1.325A1.27,1.27,0,0,1-119,61.119a3.6,3.6,0,0,1,.515-.037c1.41-.037,1.327-.042,1.434-1.4a2.163,2.163,0,0,0-1.63-2.659c-2.76-1.028-4.112-3.756-3.907-7a6.966,6.966,0,0,1,4.875-5.888c.226-.071.635.1.648-.371h.346a4.932,4.932,0,0,0,2.073,0h.172a7.434,7.434,0,0,1,3.4,1.569,7.2,7.2,0,0,1-1.934,12.138,1.416,1.416,0,0,0-1.059,1.6c.046,1.9-.08,1.731,1.739,1.732q11.4,0,22.8,0c1.246,0,1.246,0,1.25-1.239a4.138,4.138,0,0,1,0-.518,1.284,1.284,0,0,0-1-1.541A6.872,6.872,0,0,1-93.9,51.362a6.72,6.72,0,0,1,3.181-6.488,7.308,7.308,0,0,1,2.681-1.106h.518a5.709,5.709,0,0,0,1.55.089,4.4,4.4,0,0,1,1.373.291c2.932,1.226,4.73,3.308,4.817,6.586a6.807,6.807,0,0,1-4.852,6.693c-.548.192-.767.414-.714,1.008a18.913,18.913,0,0,1,.01,2.158c-.01.374.127.516.5.493a8.244,8.244,0,0,1,1.208.007,1.324,1.324,0,0,1,1.353,1.381,1.329,1.329,0,0,1-1.378,1.355c-.537.048-1.241-.247-1.569.137-.344.4-.1,1.106-.107,1.675-.016,1.514.013,1.474,1.368,2.094a6.662,6.662,0,0,1,4.151,5.793,6.545,6.545,0,0,1-3.082,6.331,6.572,6.572,0,0,1-7.031.394,6.714,6.714,0,0,1-3.766-6.571,6.937,6.937,0,0,1,4.934-6.207c.537-.161.761-.361.7-.929-.092-.876.365-2.019-.187-2.568-.511-.508-1.643-.132-2.5-.141-1.756-.019-3.512.009-5.267-.016-.488-.006-.708.062-.707.641q.028,15.283,0,30.567c0,.7.356.628.8.627q7.426-.006,14.852,0c1.22,0,1.543.244,1.86,1.351a1.226,1.226,0,0,1-.977,1.52,4.517,4.517,0,0,1-1.287.1q-6.864,0-13.728,0c-1.182,0-1.223.043-1.224,1.206q0,10.966,0,21.931c0,1.186.039,1.226,1.2,1.226,4.317,0,8.634-.012,12.951.014a1.646,1.646,0,0,0,1.7-1.014,9.82,9.82,0,0,1,14.292-3.524,7.984,7.984,0,0,1,2.836,3.083A2.129,2.129,0,0,0-60.966,123c.518-.012,1.036,0,1.554,0,.954-.013,1.008-.061,1.012-1.049.008-1.7,0-3.4,0-5.095,0-2.418-.012-4.836.007-7.254a3.138,3.138,0,0,0-.6-1.931c-1.853-2.6-3.556-5.307-5.318-7.971a2.117,2.117,0,0,0-1.963-1.1c-2.734.007-5.468.058-8.2-.024C-75.65,98.171-75.862,97.863-75.67,96.839Z" transform="translate(128.616 -43.769)" fill="#191f21"/>
        <path id="Path_44988" data-name="Path 44988" d="M-110.029,43.769a2.54,2.54,0,0,1-2.073,0Z" transform="translate(123.995 -43.769)" fill="#a09d9d"/>
        <path id="Path_44989" data-name="Path 44989" d="M-68.055,44.149l-1.36-.23c-.06-.03-.081-.063-.063-.1s.037-.053.056-.053h.691C-68.583,44.034-68.163,43.814-68.055,44.149Z" transform="translate(112.071 -43.769)" fill="#cdcbcb"/>
        <path id="Path_44990" data-name="Path 44990" d="M-70,43.769a1.487,1.487,0,0,1,.007.15c-.521-.042-1.071.214-1.562-.15Z" transform="translate(112.651 -43.769)" fill="#9d9a9a"/>
        <path id="Path_44991" data-name="Path 44991" d="M-63.278,117.457a1.448,1.448,0,0,0,1.136,1.571c2.213.11,4.428.046,6.641.032a1.581,1.581,0,0,1,1.5.789c1.65,2.6,3.406,5.13,5.1,7.7a3.938,3.938,0,0,1,.647,2.276c-.023,4.23-.007,8.46-.015,12.69a1.814,1.814,0,0,1-.243,1.323c-1.287.248-2.017-.146-2.72-1.42a8.907,8.907,0,0,0-8.884-4.794,9.035,9.035,0,0,0-7.912,5.283,1.48,1.48,0,0,1-1.541.983c-4.634-.053-9.27-.04-13.9-.009-.686.005-.848-.184-.847-.854q.037-11.572,0-23.145c0-.735.212-.9.915-.893,4.923.031,9.846.019,14.768.014,1.2,0,1.544-.273,1.83-1.383A15.627,15.627,0,0,0-63.278,117.457Z" transform="translate(116.224 -64.387)" fill="#ed1c24"/>
        <path id="Path_44992" data-name="Path 44992" d="M-120.841,148.114a1.781,1.781,0,0,0,1.892.855,6.457,6.457,0,0,1,6.81,3.214,6.484,6.484,0,0,1-.264,7.467,6.808,6.808,0,0,1-9.42,1.64,6.775,6.775,0,0,1-1.846-9.245,1.443,1.443,0,0,0-.257-2.187c.894-.439,1.579-1.213,2.522-1.579A1.1,1.1,0,0,1-120.841,148.114Z" transform="translate(127.536 -72.963)" fill="#606060"/>
        <path id="Path_44993" data-name="Path 44993" d="M-92.972,91.483c0-6.3.016-12.6-.019-18.9,0-.812.234-1.067,1.013-.983a7.406,7.406,0,0,0,1.637,0c.725-.082.848.235.848.884q-.025,19.034.005,38.067c0,.774-.223,1.035-.977.953a7.207,7.207,0,0,0-1.551,0c-.747.084-.985-.156-.975-.94.045-3.394.019-6.79.019-10.185Z" transform="translate(118.648 -51.55)" fill="#606060"/>
        <path id="Path_44994" data-name="Path 44994" d="M-52.488,162.8a6.878,6.878,0,0,1-6.838-6.787,6.933,6.933,0,0,1,6.864-6.866,6.9,6.9,0,0,1,6.791,6.851A6.841,6.841,0,0,1-52.488,162.8Z" transform="translate(109.229 -73.253)" fill="#606060"/>
        <path id="Path_44995" data-name="Path 44995" d="M-39.9,144.441c0-4.719-.009-9.437.012-14.156a2.99,2.99,0,0,0-.475-1.78q-2.76-4.106-5.474-8.243a1.089,1.089,0,0,0-1.076-.513c-1.928.014-3.856.01-5.783,0-.277,0-.579.1-.828-.123,3.047-.006,6.094-.006,9.141-.026a.817.817,0,0,1,.761.436q3.078,4.622,6.178,9.229a1.794,1.794,0,0,1,.27,1.061c-.006,4.457-.014,8.914.008,13.37,0,.583-.12.84-.752.783C-38.573,144.421-39.237,144.45-39.9,144.441Z" transform="translate(107.605 -64.987)" fill="#d81d24"/>
        <path id="Path_44996" data-name="Path 44996" d="M-102.076,159.848c.063-1.9.063-1.9,1.94-1.9h24.691c1.461,0,1.461,0,1.425,1.507.153.447-.152.555-.479.63a4.6,4.6,0,0,1-1.03.057q-12.536,0-25.072,0C-101.1,160.139-101.647,160.258-102.076,159.848Z" transform="translate(121.19 -75.717)" fill="#818080"/>
        <path id="Path_44997" data-name="Path 44997" d="M-72.1,88.464a4.228,4.228,0,0,1-4.2-4.234,4.219,4.219,0,0,1,4.17-4.177,4.252,4.252,0,0,1,4.251,4.19A4.266,4.266,0,0,1-72.1,88.464Z" transform="translate(113.977 -53.921)" fill="#ed1c24"/>
        <path id="Path_44998" data-name="Path 44998" d="M-72.083,56.107A4.189,4.189,0,0,1-76.3,51.969,4.233,4.233,0,0,1-72.1,47.7a4.252,4.252,0,0,1,4.223,4.256A4.2,4.2,0,0,1-72.083,56.107Z" transform="translate(113.977 -44.869)" fill="#ed1c24"/>
        <path id="Path_44999" data-name="Path 44999" d="M-112.324,88.463a4.186,4.186,0,0,1-4.173-4.251,4.172,4.172,0,0,1,4.175-4.158,4.21,4.21,0,0,1,4.2,4.246A4.243,4.243,0,0,1-112.324,88.463Z" transform="translate(125.225 -53.922)" fill="#ed1c24"/>
        <path id="Path_45000" data-name="Path 45000" d="M-116.5,51.893a4.239,4.239,0,0,1,4.154-4.212,4.287,4.287,0,0,1,4.218,4.258,4.18,4.18,0,0,1-4.263,4.162A4.119,4.119,0,0,1-116.5,51.893Z" transform="translate(125.225 -44.864)" fill="#ed1c24"/>
        <path id="Path_45001" data-name="Path 45001" d="M-102.169,160.433q13.667.008,27.332.017c.322,0,.654.032.723-.408.537,1.989.537,1.989-1.47,1.989h-25.731c-1.193,0-1.195,0-.992-1.113C-102.276,160.753-102.215,160.594-102.169,160.433Z" transform="translate(121.283 -76.302)" fill="#606060"/>
        <path id="Path_45002" data-name="Path 45002" d="M-89.5,144.086c0,1.613-.022,3.225.012,4.836.012.578-.113.843-.752.792a14.511,14.511,0,0,0-2.071,0c-.553.036-.668-.19-.665-.7q.028-5.009,0-10.018c0-.529.168-.717.694-.69a18.934,18.934,0,0,0,2.072,0c.595-.034.727.233.719.77C-89.517,140.746-89.5,142.417-89.5,144.086Z" transform="translate(118.644 -70.22)" fill="#606060"/>
        <path id="Path_45003" data-name="Path 45003" d="M-93.628,133.445H-95.7a1.148,1.148,0,0,1-.429-.009c-.949-.414-.247-1.23-.411-1.842-.074-.274-.239-.79.429-.784,1.7.015,3.41-.12,5.092.049,1.111.112.284,1.167.478,1.764.1.316.2.847-.5.826C-91.9,133.425-92.764,133.445-93.628,133.445Z" transform="translate(119.668 -68.113)" fill="#818080"/>
        <path id="Path_45004" data-name="Path 45004" d="M-36.58,159.291c0-1.342,0-1.348,1.335-1.34,2.1.013,4.194.036,6.291.055a.521.521,0,0,1,.072.156c.163,1.972.157,1.981-1.81,1.98-1.662,0-3.324.027-4.985-.017C-36.175,160.112-36.814,160.144-36.58,159.291Z" transform="translate(102.878 -75.717)" fill="#818080"/>
        <path id="Path_45005" data-name="Path 45005" d="M-36.708,159.313c.008.422.2.586.642.581q3.176-.029,6.352,0c.5,0,.654-.2.627-.665-.024-.4,0-.8.005-1.2a12.863,12.863,0,0,1,.112,3.13c.017.336-.272.308-.5.308-2.387,0-4.776,0-7.163.007-.368,0-.526-.072-.421-.483C-36.913,160.439-36.821,159.873-36.708,159.313Z" transform="translate(103.006 -75.739)" fill="#606060"/>
        <path id="Path_45006" data-name="Path 45006" d="M-52.822,134.863c-1.467,0-2.934.016-4.4,0a2.082,2.082,0,0,1-2.338-2.342q-.009-2.718,0-5.437a2.015,2.015,0,0,1,2.188-2.3q4.574-.039,9.147,0a2.036,2.036,0,0,1,2.182,2.236q.027,2.8,0,5.609a2.056,2.056,0,0,1-2.206,2.226C-49.772,134.884-51.3,134.862-52.822,134.863Z" transform="translate(109.295 -66.432)" fill="#050605"/>
        <path id="Path_45007" data-name="Path 45007" d="M-73.869,135.072c-.747,0-1.5.022-2.241-.006a1.307,1.307,0,0,1-1.335-1.3,1.324,1.324,0,0,1,1.255-1.391c1.551-.047,3.1-.049,4.655,0a1.344,1.344,0,0,1,1.252,1.4,1.311,1.311,0,0,1-1.342,1.288C-72.373,135.1-73.121,135.072-73.869,135.072Z" transform="translate(114.298 -68.552)" fill="#060706"/>
        <path id="Path_45008" data-name="Path 45008" d="M-73.848,124.78c.719,0,1.438-.024,2.156.006a1.334,1.334,0,0,1,1.41,1.319,1.3,1.3,0,0,1-1.272,1.362,28.645,28.645,0,0,1-4.65,0,1.244,1.244,0,0,1-1.229-1.389,1.3,1.3,0,0,1,1.342-1.291c.057-.005.115-.006.172-.006h2.071Z" transform="translate(114.295 -66.433)" fill="#070806"/>
        <path id="Path_45009" data-name="Path 45009" d="M-121.215,156.983a4.327,4.327,0,0,1,4.3-4.282,4.375,4.375,0,0,1,4.277,4.327,4.344,4.344,0,0,1-4.279,4.228A4.3,4.3,0,0,1-121.215,156.983Z" transform="translate(126.545 -74.248)" fill="#050605"/>
        <path id="Path_45010" data-name="Path 45010" d="M-55.741,156.975a4.28,4.28,0,0,1,4.284-4.274,4.321,4.321,0,0,1,4.233,4.338,4.3,4.3,0,0,1-4.251,4.225A4.282,4.282,0,0,1-55.741,156.975Z" transform="translate(108.225 -74.248)" fill="#050605"/>
        <path id="Path_45011" data-name="Path 45011" d="M-71.013,86.693a1.369,1.369,0,0,1-1.48-1.328A1.407,1.407,0,0,1-71.028,84a1.338,1.338,0,0,1,1.453,1.351A1.282,1.282,0,0,1-71.013,86.693Z" transform="translate(112.913 -55.026)" fill="#0b0a07"/>
        <path id="Path_45012" data-name="Path 45012" d="M-72.5,53a1.374,1.374,0,0,1,1.518-1.311,1.309,1.309,0,0,1,1.4,1.4,1.424,1.424,0,0,1-1.578,1.347A1.488,1.488,0,0,1-72.5,53Z" transform="translate(112.914 -45.984)" fill="#0b0b07"/>
        <path id="Path_45013" data-name="Path 45013" d="M-111.31,86.694a1.325,1.325,0,0,1-1.428-1.369,1.382,1.382,0,0,1,1.5-1.319,1.3,1.3,0,0,1,1.4,1.391A1.267,1.267,0,0,1-111.31,86.694Z" transform="translate(124.174 -55.027)" fill="#0a0a08"/>
        <path id="Path_45014" data-name="Path 45014" d="M-111.241,51.686a1.29,1.29,0,0,1,1.4,1.393,1.381,1.381,0,0,1-1.473,1.357A1.449,1.449,0,0,1-112.742,53,1.34,1.34,0,0,1-111.241,51.686Z" transform="translate(124.174 -45.984)" fill="#0a0a08"/>
        <path id="Path_45015" data-name="Path 45015" d="M-51.738,133.191c-1.124,0-2.247-.019-3.369.009-.475.012-.664-.117-.649-.624.034-1.122.026-2.246,0-3.368-.009-.443.13-.606.588-.6,2.274.018,4.55.022,6.825,0,.526-.005.619.226.61.676-.021,1.094-.027,2.189,0,3.282.014.49-.153.651-.641.639C-49.492,133.17-50.616,133.191-51.738,133.191Z" transform="translate(108.23 -67.505)" fill="#606060"/>
        <path id="Path_45016" data-name="Path 45016" d="M-115.851,159.566a1.538,1.538,0,0,1-1.515-1.451,1.548,1.548,0,0,1,1.5-1.557,1.454,1.454,0,0,1,1.483,1.541A1.457,1.457,0,0,1-115.851,159.566Z" transform="translate(125.468 -75.327)" fill="#e7e8e8"/>
        <path id="Path_45017" data-name="Path 45017" d="M-48.927,158.083a1.467,1.467,0,0,1-1.474,1.479,1.5,1.5,0,0,1-1.535-1.518,1.536,1.536,0,0,1,1.49-1.49A1.482,1.482,0,0,1-48.927,158.083Z" transform="translate(107.161 -75.326)" fill="#e7e8e8"/>
      </g>
      <ellipse id="Ellipse_57" data-name="Ellipse 57" cx="49.805" cy="2.23" rx="49.805" ry="2.23" transform="translate(503.439 334.764)" fill="url(#radial-gradient)"/>
    </g>
  </g>
</svg>
