<svg id="Group_53934" data-name="Group 53934" xmlns="http://www.w3.org/2000/svg" xmlns:xlink="http://www.w3.org/1999/xlink" width="203.454" height="147.374" viewBox="0 0 203.454 147.374">
  <defs>
    <radialGradient id="radial-gradient" cx="0.5" cy="0.5" r="0.5" gradientUnits="objectBoundingBox">
      <stop offset="0"/>
      <stop offset="1" stop-color="#19304c" stop-opacity="0"/>
    </radialGradient>
    <clipPath id="clip-path">
      <rect id="Rectangle_52426" data-name="Rectangle 52426" width="148.571" height="147.374" fill="none"/>
    </clipPath>
    <clipPath id="clip-path-2">
      <rect id="Rectangle_52425" data-name="Rectangle 52425" width="149.002" height="147.374" fill="none"/>
    </clipPath>
  </defs>
  <ellipse id="Ellipse_25" data-name="Ellipse 25" cx="101.727" cy="4.555" rx="101.727" ry="4.555" transform="translate(0 135.142)" fill="url(#radial-gradient)"/>
  <g id="Group_54833" data-name="Group 54833" transform="translate(39.041 0)">
    <g id="Group_54832" data-name="Group 54832" transform="translate(0)" clip-path="url(#clip-path)">
      <g id="Group_54831" data-name="Group 54831" transform="translate(-0.431 -0.26)">
        <g id="Group_54830" data-name="Group 54830" clip-path="url(#clip-path-2)">
          <g id="Group_53926-2" data-name="Group 53926-2" transform="translate(7.356 4.414)">
            <path id="Path_41087" data-name="Path 41087" d="M197.571,400.945q-4.746-4.707-9.457-9.454a4.057,4.057,0,0,0-3.1-1.283c-3.383.035-6.777.007-10.165.016a9.179,9.179,0,0,1-2.515-.294c-4.076-1.143-8.158-2.271-12.234-3.42-10.856-3.058-21.709-6.119-32.583-9.108-4.222-1.159-8.432-2.3-12.093-4.846a8.764,8.764,0,0,0-2.773-1.253h-1.606a15.494,15.494,0,0,0-2.18.95c-1.942,1-3.739,2.255-5.722,3.169-8.614,3.961-17.38,7.585-26.015,11.493-4.266,1.926-8.432,4.056-13.36,3.358a1.968,1.968,0,0,0-2.254,1.634v23.034c.335,1.4,1.384,1.742,2.648,1.746,5.354.023,10.709.043,16.062-.007,2.164-.022,3.064-.969,3.12-3.146.049-1.873,0-3.747.019-5.619.013-1.8.11-1.912,1.876-1.912q5.148-.015,10.309,0c1.9,0,1.958.065,1.964,1.948.01,4.685-.024,9.369.016,14.054.019,2.284.747,3.1,2.963,3.254.994.069,1.339.515,1.3,1.43-.013.4,0,.8,0,1.2v64.645c0,.4-.024.8,0,1.2.051.959-.372,1.377-1.342,1.368-1.471-.01-2.942-.059-4.413.029a2.609,2.609,0,0,0-2.78,2.427,2.394,2.394,0,0,0,0,.356c-.075,1.337-.01,2.676-.029,4.014-.019,1.618-.124,1.709-1.773,1.736-.359.007-.715,0-1.071,0-2.5.026-5-.1-7.495.065a2.457,2.457,0,0,0-2.4,2.127c-.182,1.208.306,1.951,1.652,2.515h59.427c.983-.736,1.7-1.6,1.208-2.914-.477-1.262-1.553-1.4-2.748-1.384-2.989.043-5.981-.019-8.973.035-.838.016-1.058-.209-1.03-1.03.069-1.693.032-3.383.019-5.084s-.75-2.454-2.424-2.467c-1.606-.016-3.22-.088-4.816.024-1.152.082-1.355-.3-1.355-1.384q.053-33.731.026-67.463c0-1.824,0-1.824,1.786-1.846,1.811-.022,2.5-.7,2.5-2.489q.007-6.494,0-12.984c0-1.324.329-2.738-1.208-3.825,14.581,0,28.814.013,43.047-.026,1.03,0,1,.457,1,1.189q-.02,13.519-.01,27.038c0,1.243.415,2.858-.2,3.629-.65.812-2.336.169-3.564.262h-.134c-1.795.037-2.389.75-2.539,2.518-.343,4.007.862,7.74,1.834,11.522.777,3.011.777,3.005,3.789,3.142.294.01.787-.244.822.353.049.815.672,1.217,1.159,1.72a18.173,18.173,0,0,1,2.795,3.567,1.765,1.765,0,0,1-.54,2.438c-.053.032-.106.063-.162.091-1.371.946-2.96.043-3.249-1.8-.231-1.478-1.084-2.223-2.4-2.092-1.2.118-1.9,1.03-1.877,2.458a6.484,6.484,0,0,0,6.83,6.116,6.6,6.6,0,0,0,.991-.132,6.307,6.307,0,0,0,3.782-9.881c-.635-.93-1.3-1.837-2.036-2.874,1.449.121,2.774.023,3.139-1.414,1.139-4.46,2.754-8.853,2.287-13.591a2.082,2.082,0,0,0-2.039-2.124h-.066a24.351,24.351,0,0,0-3.074,0c-.956.075-1.283-.147-1.278-1.208q.073-14.856,0-29.714c0-1.042.294-1.217,1.256-1.211,7.271.04,14.547,0,21.818.049a2.766,2.766,0,0,0,2.66-1.364v-1.6a4.4,4.4,0,0,0-1.03-1.681m-76.108-11.561c.082-2.891.029-5.783.029-8.807,11.768,3.292,23.4,6.552,35.039,9.809-.007.065-.016.128-.026.193h-1.009c-10.928,0-21.853-.013-32.781.022-.972,0-1.278-.185-1.25-1.216M102.2,381.044c0,3.074-.01,5.922.01,8.772,0,.552-.112.777-.725.774-6.84-.019-13.68-.01-20.57-.231l21.285-9.316" transform="translate(-61.514 -371.303)" fill="#131718"/>
            <path id="Path_41088" data-name="Path 41088" d="M98.694,409.613c-2.81,0-5.621-.019-8.43.013-.725.009-1.112-.047-1.1-.969.053-4.37.034-8.742.013-13.113,0-.638.088-.924.849-.949,3.448-.119,3.447-.147,3.447,3.292,0,1.74-.016,3.479,0,5.218a2.008,2.008,0,0,0,2.233,2.215c3.88.015,7.761.026,11.641-.012.822-.009,1.143.147,1.14,1.069-.012,3.224.029,3.226-3.236,3.236H98.694" transform="translate(-48.491 -360.349)" fill="#cc001b"/>
            <path id="Path_41089" data-name="Path 41089" d="M100.195,458.671c4.192,0,8.385.026,12.579-.019.983-.01,1.4.159,1.378,1.289-.062,3.014,0,3.014-2.977,3.014-7.805,0-15.612-.032-23.417.032-1.281.01-1.542-.4-1.508-1.57.076-2.745.022-2.746,2.705-2.746Z" transform="translate(-49.865 -330.162)" fill="#4d4e4e"/>
            <path id="Path_41090" data-name="Path 41090" d="M70.848,401.028c-1.783,0-3.569-.034-5.35.016-.787.022-1.122-.172-1.083-1.03.068-1.471.05-2.942,0-4.413-.022-.735.181-1.018.965-1.011,3.655.035,7.312.028,10.969,0,.668,0,.965.163.943.894q-.068,2.339,0,4.681c.022.755-.324.883-.965.871-1.828-.028-3.655-.01-5.484-.01" transform="translate(-60.149 -360.334)" fill="#606060"/>
            <path id="Path_41091" data-name="Path 41091" d="M100.341,401.028c-1.471,0-2.942-.026-4.413.013-.655.018-.959-.11-.933-.862.056-1.6.037-3.208,0-4.813-.01-.565.147-.783.746-.774,2.139.031,4.279,0,6.418.015,1,0,1.287.994,1.964,1.447a4.092,4.092,0,0,1,1.618,4.181c-.051.655-.246.819-.861.8-1.514-.037-3.03-.012-4.545-.012" transform="translate(-45.745 -360.334)" fill="#e1e2e2"/>
            <path id="Path_41092" data-name="Path 41092" d="M137.155,419.352c1.159,0,2.32.034,3.477-.013.663-.028.843.221.809.846a52.754,52.754,0,0,1-1.618,7.4c-.09.453-.463.338-.747.341q-1.94.02-3.879,0c-.281,0-.634.119-.736-.353a53.136,53.136,0,0,1-1.608-7.264c-.051-.756.193-1.011.956-.969,1.111.062,2.229.016,3.342.016" transform="translate(-27.916 -348.682)" fill="#cc001b"/>
            <path id="Path_41093" data-name="Path 41093" d="M70.861,387.32h6.314a1.083,1.083,0,0,1,.813.368c1.959,1.931,3.925,3.86,6.163,6.06-2.415,0-4.441-.009-6.472,0-.422,0-.633-.268-.883-.515l-5.943-5.915" transform="translate(-57.115 -363.759)" fill="#e4001b"/>
            <path id="Path_41094" data-name="Path 41094" d="M79.6,387.461c.45-.062.535-.085.622-.085,2.049.016,4.32-.51,6.086.207,1.717.7,2.911,2.673,4.344,4.078.637.624,1.3,1.227,2.246,2.124-2.473,0-4.573.009-6.672-.015-.182,0-.39-.191-.541-.338-1.97-1.923-3.931-3.854-6.083-5.971" transform="translate(-52.997 -363.813)" fill="#e4001b"/>
            <path id="Path_41095" data-name="Path 41095" d="M88.349,387.32h6.2a1.081,1.081,0,0,1,.843.294c1.976,1.967,3.96,3.925,6.19,6.131-2.361,0-4.35-.01-6.337.007a1.2,1.2,0,0,1-.912-.45c-1.912-1.923-3.835-3.838-5.98-5.983" transform="translate(-48.875 -363.761)" fill="#e4001b"/>
            <path id="Path_41096" data-name="Path 41096" d="M97.062,387.319c2.3,0,4.25.007,6.2,0a1.226,1.226,0,0,1,.947.374c1.956,1.933,3.925,3.854,6.178,6.056-2.44,0-4.467-.007-6.494,0-.422,0-.631-.275-.883-.521l-5.946-5.907" transform="translate(-44.771 -363.76)" fill="#e4001b"/>
            <path id="Path_41097" data-name="Path 41097" d="M119.06,393.745c-2.305,0-4.256-.007-6.2,0a1.226,1.226,0,0,1-.946-.374c-1.956-1.931-3.926-3.851-6.178-6.055,2.446,0,4.475.007,6.5,0,.422,0,.631.277.883.522,1.9,1.884,3.8,3.77,5.949,5.908" transform="translate(-40.688 -363.76)" fill="#e4001b"/>
            <path id="Path_41102" data-name="Path 41102" d="M101.432,448.4c-.2.224-.366.422-.549.6-1.066,1.071-2.152,2.124-3.2,3.216-.416.441-.7.547-1.177.049-1.066-1.133-2.171-2.23-3.3-3.3-.468-.441-.463-.735,0-1.177,1.128-1.071,2.206-2.19,3.31-3.292.294-.294.531-.6.971-.147,1.177,1.214,2.383,2.395,3.575,3.591.126.141.247.288.359.441" transform="translate(-46.749 -337.006)" fill="#e4001b"/>
            <path id="Path_41103" data-name="Path 41103" d="M101.431,438.133a6.079,6.079,0,0,1-.412.519c-1.127,1.137-2.284,2.245-3.383,3.41-.48.509-.765.362-1.177-.062-1.047-1.09-2.105-2.171-3.211-3.2-.525-.49-.5-.8.012-1.271q1.606-1.5,3.113-3.111c.5-.531.824-.63,1.365-.038.99,1.081,2.059,2.087,3.1,3.126.185.185.359.382.588.63" transform="translate(-46.747 -341.785)" fill="#e4001b"/>
            <path id="Path_41104" data-name="Path 41104" d="M97.042,423.725a37.075,37.075,0,0,1,4.306,4.223,1.338,1.338,0,0,1-.324.543c-1.122,1.14-2.282,2.246-3.383,3.411-.487.518-.772.338-1.177-.076-1.049-1.089-2.13-2.145-3.2-3.211-.318-.318-.688-.571-.169-1.068,1.219-1.168,2.4-2.381,3.6-3.57a2.2,2.2,0,0,1,.343-.25" transform="translate(-46.762 -346.612)" fill="#e4001b"/>
            <path id="Path_41105" data-name="Path 41105" d="M101.362,417.795a39.819,39.819,0,0,1-4.21,4.273,1.277,1.277,0,0,1-.547-.313c-1.177-1.155-2.32-2.336-3.5-3.48-.407-.394-.282-.647.059-.98,1.143-1.119,2.267-2.262,3.4-3.391.244-.243.471-.588.869-.179,1.252,1.264,2.514,2.518,3.767,3.78a1.107,1.107,0,0,1,.163.294" transform="translate(-46.756 -351.412)" fill="#e4001b"/>
            <path id="Path_41106" data-name="Path 41106" d="M100.748,376.568a3.037,3.037,0,0,1-.238.4,4.758,4.758,0,0,1-.466.477c-1.1.952-2.04,2.96-3.158,2.761-1.267-.225-2.251-1.98-3.383-3.045-.474-.441-.377-.719.156-.969.2-.094.39-.212.588-.321,2.9-1.649,3.445-1.618,6.086.41.129.1.269.184.421.294" transform="translate(-46.592 -369.707)" fill="#e4001b"/>
            <path id="Path_41107" data-name="Path 41107" d="M66.575,390.539c0,.665-.043,1.333.01,1.995.066.824-.043,1.256-1.087,1.259s-1.108-.459-1.081-1.268c.049-1.461.068-2.929,0-4.388-.047-.946.519-.815,1.094-.819s1.168-.106,1.083.83c-.072.791-.015,1.595-.015,2.393" transform="translate(-60.149 -363.763)" fill="#e4001b"/>
            <path id="Path_41108" data-name="Path 41108" d="M71.95,392.622c-3.222.09-3.222.09-3.13-2.98a10.873,10.873,0,0,1,3.13,2.98" transform="translate(-58.084 -362.665)" fill="#e4001b"/>
            <path id="Path_41109" data-name="Path 41109" d="M99.939,414.131c-2.655-2.587-2.635-1.637,0-4.219Z" transform="translate(-44.35 -353.118)" fill="#e4001b"/>
            <path id="Path_41110" data-name="Path 41110" d="M92.142,409.881c2.451,2.262,2.451,2.262,0,4.216Z" transform="translate(-47.088 -353.133)" fill="#e4001b"/>
            <path id="Path_41111" data-name="Path 41111" d="M92.118,424.331V420.2c2.576,1.547,2.586,1.837,0,4.129" transform="translate(-47.1 -348.272)" fill="#e4001b"/>
            <path id="Path_41112" data-name="Path 41112" d="M99.948,424.332c-2.6-2.568-2.705-1.636,0-4.219Z" transform="translate(-44.348 -348.313)" fill="#e4001b"/>
            <path id="Path_41113" data-name="Path 41113" d="M98.529,384.987H94.41c1.434-2.54,1.783-2.555,4.119,0" transform="translate(-46.02 -365.758)" fill="#e4001b"/>
            <path id="Path_41114" data-name="Path 41114" d="M92.127,434.461v-4.106c2.827,2.414,2.573,1.709,0,4.106" transform="translate(-47.095 -343.489)" fill="#e4001b"/>
            <path id="Path_41115" data-name="Path 41115" d="M99.95,430.251v4.119c-2.539-1.409-2.557-1.793,0-4.119" transform="translate(-44.311 -343.538)" fill="#e4001b"/>
            <path id="Path_41116" data-name="Path 41116" d="M99.928,383.419c-.135-.038-.228-.037-.281-.082-2.187-1.924-2.177-2.092.281-3.953Z" transform="translate(-44.308 -367.497)" fill="#e4001b"/>
            <path id="Path_41117" data-name="Path 41117" d="M92.123,444.654v-4.1c2.546,1.774,2.551,2.008,0,4.1" transform="translate(-47.097 -338.683)" fill="#e4001b"/>
            <path id="Path_41118" data-name="Path 41118" d="M99.994,440.448v4.172c-2.59-1.651-2.6-1.959,0-4.172" transform="translate(-44.306 -338.736)" fill="#e4001b"/>
            <path id="Path_41119" data-name="Path 41119" d="M92.1,379.408c.187.01.24,0,.259.018,2.512,2.549,2.439,1.48-.112,4.091a5.919,5.919,0,0,1-.147-2.059c-.026-.66,0-1.324,0-2.059" transform="translate(-47.123 -367.49)" fill="#e4001b"/>
            <path id="Path_41120" data-name="Path 41120" d="M92.09,450.609c2.764,2.7,2.715,1.742,0,4.413v-4.413" transform="translate(-47.113 -333.95)" fill="#e4001b"/>
            <path id="Path_41121" data-name="Path 41121" d="M99.953,450.631v4.119c-2.552-1.434-2.568-1.8,0-4.119" transform="translate(-44.314 -333.94)" fill="#e4001b"/>
            <path id="Path_41122" data-name="Path 41122" d="M98.538,456.335H94.409c1.412-2.537,1.789-2.554,4.129,0" transform="translate(-46.02 -332.152)" fill="#e4001b"/>
            <path id="Path_41123" data-name="Path 41123" d="M94.263,407.744H98.42c-1.753,2.548-1.883,2.551-4.157,0" transform="translate(-46.089 -354.139)" fill="#e4001b"/>
          </g>
        </g>
      </g>
    </g>
  </g>
</svg>
