<svg id="Masaha-Services-MegaMenu-Rent-Transportation-icon" xmlns="http://www.w3.org/2000/svg" xmlns:xlink="http://www.w3.org/1999/xlink" width="107" height="104" viewBox="0 0 107 104">
  <defs>
    <clipPath id="clip-path">
      <rect id="Rectangle_52539" data-name="Rectangle 52539" width="107" height="104" transform="translate(962 481)" fill="#fff" stroke="#707070" stroke-width="1"/>
    </clipPath>
    <clipPath id="clip-path-2">
      <rect id="Rectangle_52199" data-name="Rectangle 52199" width="77.649" height="73.167" fill="none"/>
    </clipPath>
    <radialGradient id="radial-gradient" cx="0.5" cy="0.5" r="0.5" gradientUnits="objectBoundingBox">
      <stop offset="0"/>
      <stop offset="1" stop-color="#19304c" stop-opacity="0"/>
    </radialGradient>
    <clipPath id="clip-path-3">
      <rect id="Rectangle_52200" data-name="Rectangle 52200" width="94.375" height="51.863" fill="#ed1c24"/>
    </clipPath>
  </defs>
  <g id="Mask_Group_18907" data-name="Mask Group 18907" transform="translate(-962 -481)" clip-path="url(#clip-path)">
    <g id="Group_53865" data-name="Group 53865" transform="translate(955.471 493.928)">
      <g id="Group_53915" data-name="Group 53915" transform="translate(19.277 10.914)" opacity="0">
        <g id="Group_53915-2" data-name="Group 53915" clip-path="url(#clip-path-2)">
          <path id="Path_41014" data-name="Path 41014" d="M0,28.813v-13.5a2.447,2.447,0,0,1,2.593-1.868,1.055,1.055,0,0,0,1.168-.883A4.4,4.4,0,0,1,8.116,9.333c.758-.013,1.517-.02,2.274,0,.551.016.771-.206.765-.758-.014-1.364-.006-2.728,0-4.092A4.959,4.959,0,0,1,12.465,1.1,3.521,3.521,0,0,1,14.711,0H62.938a4.257,4.257,0,0,1,3.556,4.487c.021,1.339.024,2.679,0,4.018-.013.628.23.859.848.832.757-.032,1.516-.022,2.274,0A4.368,4.368,0,0,1,73.862,12.5a1.146,1.146,0,0,0,1.276.953,2.311,2.311,0,0,1,2.511,2.015V28.813a2.388,2.388,0,0,1-2.439,2.035c-1.639.082-3.284.082-4.923,0a2.687,2.687,0,0,1-2.734-2.91c-.023-3.889-.017-7.779,0-11.668a2.7,2.7,0,0,1,2.628-2.856c.3-.033.786.134.849-.26.071-.446-.371-.683-.756-.829a8.6,8.6,0,0,0-3.3-.22c-.266,0-.4.185-.426.445a8.767,8.767,0,0,0-.024.984q0,24.359,0,48.718a6.781,6.781,0,0,1-.318,2.313,4.364,4.364,0,0,1-4.053,3c-1.08.046-1.082.049-1.092,1.13-.005.555.027,1.112-.024,1.666a2.923,2.923,0,0,1-2.991,2.8H52.091a3.125,3.125,0,0,1-3.006-2.916,15.333,15.333,0,0,1-.04-1.664c-.015-.962-.056-1.008-1.047-1.012-1.665-.006-3.331,0-5,0q-6.662,0-13.325,0c-1.029,0-1.061.04-1.074,1.06a13.466,13.466,0,0,1-.046,1.664,3.118,3.118,0,0,1-2.973,2.867H19.708a2.946,2.946,0,0,1-3.089-2.93c-.034-.6,0-1.21-.014-1.815-.013-.8-.053-.855-.865-.861a4.364,4.364,0,0,1-4.182-2.712,4.112,4.112,0,0,1-.389-1.608q-.075-1.776,0-3.555a1.586,1.586,0,0,1,1.4-1.625c1.041.228,1.38.688,1.471,1.994.059.96,0,1.92.033,2.88a1.7,1.7,0,0,0,1.769,1.847c.328.023.657.015.985.015q22.022,0,44.043.014c1.991,0,2.783-.384,2.751-2.735-.072-5.229-.021-10.46-.023-15.69,0-1.052,0-1.015-1.039-.974-2.045.08-4.092,0-6.138,0q-18.686-.02-37.372-.006c-1.162,0-2.324-.008-3.486.007a1.92,1.92,0,0,1-.527-.009c-.979-.109-.982-.109-.984.911-.006,2.418.021,4.837-.013,7.255-.017,1.2-.448,1.733-1.474,1.951a1.629,1.629,0,0,1-1.414-1.62c-.033-.378-.018-.758-.018-1.137q0-19.634,0-39.269c0-1.419,0-1.42-1.413-1.42-.429,0-.86-.016-1.288.018a2.91,2.91,0,0,0-1.369.4c-.241.153-.492.362-.445.653.053.332.4.232.633.254,1.978.185,2.858,1.122,2.862,3.088q.01,5.572,0,11.144c0,2.172-1.035,3.216-3.193,3.243-1.314.016-2.628.005-3.942,0a5.727,5.727,0,0,1-.606-.025A2.431,2.431,0,0,1,0,28.813" fill="#050605"/>
          <path id="Path_41015" data-name="Path 41015" d="M93.457,95.574a1.13,1.13,0,0,0,1.2,1.015c.226.017.454,0,.682,0h37.578c.3,0,.6.018.907.027a1.281,1.281,0,0,1,.261.994q.01,9.752,0,19.5a1.269,1.269,0,0,1-.26.994c-.919-.016-1.775.07-1.987,1.212a3.163,3.163,0,0,1-3-.148c-.116-.825-.676-1.039-1.408-1.039q-4.966.005-9.933,0h-.93c1.183-1,2.227-1.879,3.277-2.756q3.458-2.889,6.922-5.773c.93-.775,1.144-1.413.664-2.02s-1.165-.54-2.09.232q-5.874,4.9-11.733,9.821a1.868,1.868,0,0,1-1.352.51c-1.312-.042-2.627-.014-4.126-.014.828-.7,1.539-1.3,2.254-1.9q4.094-3.428,8.189-6.856c.767-.644.886-1.228.4-1.8-.473-.558-1.149-.537-1.861.058q-6.1,5.1-12.2,10.209a1.167,1.167,0,0,1-.815.3c-4.372-.007-8.745-.014-13.117.008-.513,0-.624-.153-.623-.636q.021-10.766.013-21.532a4.287,4.287,0,0,1,.081-.592,4.448,4.448,0,0,1,2.716-.14c.153.019.243.167.285.322" transform="translate(-76.653 -80.68)" fill="#405f84"/>
          <path id="Path_41016" data-name="Path 41016" d="M82.928,309.421q0-1.434,0-2.869c.978-.348,1.164-.6,1.166-1.659,0-2.716.018-5.433-.011-8.149-.007-.605.133-.749.705-.519a5.053,5.053,0,0,0,1.029.188,2.738,2.738,0,0,0,.9.05q19.99,0,39.98,0c.989,0,1.081.065,1.074,1.063a8.775,8.775,0,0,1-.124,2.556c-.257.375-.66.32-1.028.325-1.361.018-2.723-.022-4.084.016a4.318,4.318,0,0,0-4.119,2.894,8.546,8.546,0,0,0-.133,3.6c.085.75.77,1.189,1.694,1.2,1.89.028,3.781.007,5.672.01.378,0,.756-.007,1.134.006a1.1,1.1,0,0,1,.781.218,2.034,2.034,0,0,1-.841,2.044,3.447,3.447,0,0,1-2.333.933c-2.642.016-5.283.01-7.925,0a1.29,1.29,0,0,1-.8-.182,1.6,1.6,0,0,1-.239-.934c-.121-.893-.49-1.283-1.377-1.291q-4.883-.048-9.766,0c-.89.008-1.247.384-1.38,1.286-.05.342.005.719-.306.982a2.19,2.19,0,0,1-1.111.162q-8.064.005-16.127,0a1.719,1.719,0,0,1-1.229-.258c-.036-.824-.262-1.512-1.21-1.678" transform="translate(-70.347 -251.197)" fill="#d1b67e"/>
          <path id="Path_41017" data-name="Path 41017" d="M90.727,311.632l18.49-.006c.392.4.246.9.258,1.362.037,1.391.494,1.88,1.864,1.885q4.42.016,8.841,0c1.37,0,1.828-.494,1.864-1.885.012-.462-.133-.967.258-1.362l8.232,0c2.07,0,3.031-.727,3.571-2.7.191-.311.544-.341.836-.47a4.223,4.223,0,0,0,2.742-4.129c0-.529.019-1.058-.007-1.586a1.79,1.79,0,0,0-1.827-1.816c-.583-.044-1.211.2-1.743-.236,0-.959-.035-1.92.018-2.876.035-.628-.21-.759-.784-.753-2.65.025-5.3.011-7.951.011q-16.016,0-32.032-.005c-.317,0-.659.108-.951-.12.3-.009.605-.025.908-.025q19.974,0,39.949,0c1.819,0,3.638.013,5.457.011a5.686,5.686,0,0,0,1.13-.073c.979-.2.976-.217.976.817q0,8.338,0,16.675c0,1.818-.631,2.435-2.474,2.435H93.174c-1.878,0-2.481-.606-2.479-2.5,0-.883.021-1.767.032-2.65" transform="translate(-76.936 -251.73)" fill="#c4a66a"/>
          <path id="Path_41018" data-name="Path 41018" d="M115.586,20.387q-12.125,0-24.25.015c-.656,0-.9-.145-.846-.832.063-.88,0-1.768.023-2.651a1.884,1.884,0,0,1,1.972-1.942c.328-.012.657,0,.985,0l44.711.014c1.823,0,2.445.624,2.448,2.454,0,.707-.044,1.418.013,2.121.054.654-.2.787-.809.785q-12.124-.03-24.248-.013Z" transform="translate(-76.756 -12.7)" fill="#d1b67e"/>
          <path id="Path_41019" data-name="Path 41019" d="M93.826,70.785c-.6-.356-1.258-.1-1.886-.161-.369-.038-.743-.016-1.115-.021-.007-1.363,0-2.727-.028-4.09-.009-.443.113-.679.593-.617a1.771,1.771,0,0,0,.227,0q24.248.009,48.5.005c.6,0,.8.162.762.763-.049.729-.026,1.464-.007,2.2.01.39-.135.567-.529.53a2.766,2.766,0,0,0-.3,0c-14.771.23-29.543.092-44.314.129-.3,0-.608-.012-.909.015-.759.068-1.025.543-.987,1.249" transform="translate(-77.021 -55.89)" fill="#96a4b1"/>
          <path id="Path_41020" data-name="Path 41020" d="M376.85,126.353q0-10.746,0-21.493c2.1-.009,4.193,0,6.288-.038.533-.009.473.295.473.629q0,4.244,0,8.488c0,3.916-.013,7.831.014,11.747,0,.57-.143.72-.712.707-2.02-.045-4.041-.031-6.061-.04" transform="translate(-319.677 -88.919)" fill="#2e4e74"/>
          <path id="Path_41021" data-name="Path 41021" d="M128.847,253.755a12.8,12.8,0,0,0,3,.148,1.246,1.246,0,0,0,1.229,1.1c.968.133,1.022.161,1,1.171-.016.663.2,1.367-.246,1.979q-4.966.009-9.932.017-15.582,0-31.164,0c-1.779,0-2.624-1.048-2.288-2.81.047-.245.144-.36.388-.358.227,0,.455,0,.682,0q17.894,0,35.789,0c1.195,0,1.468-.227,1.546-1.246" transform="translate(-76.659 -215.258)" fill="#96a4b1"/>
          <path id="Path_41022" data-name="Path 41022" d="M14.972,116.525c-.008-3.528-.009-7.056-.034-10.584,0-.439.148-.565.56-.558a25.037,25.037,0,0,1,2.792.06,1.554,1.554,0,0,1,.246,1.079c0,2.693.012,5.386,0,8.079-.009,1.614-.59,2.188-2.191,2.18-.466,0-.967.111-1.37-.256" transform="translate(-12.671 -89.387)" fill="#96a4b1"/>
          <path id="Path_41023" data-name="Path 41023" d="M461.816,116.525c-.008-3.529-.009-7.057-.034-10.586,0-.438.148-.563.559-.557a24.826,24.826,0,0,1,2.793.06,1.551,1.551,0,0,1,.246,1.079c0,2.693.012,5.386,0,8.079-.009,1.614-.59,2.188-2.192,2.18-.466,0-.967.111-1.37-.255" transform="translate(-391.725 -89.387)" fill="#96a4b1"/>
          <path id="Path_41024" data-name="Path 41024" d="M15.057,116.633c.58,0,1.159.007,1.738.006a1.392,1.392,0,0,0,1.57-1.566q.011-4.761.009-9.523c1.965-.133,1.965-.133,1.965,1.764,0,3.183-.028,6.366.02,9.548.012.764-.229.931-.934.894-1.108-.058-2.222-.015-3.334-.015-1.091,0-1.091,0-1.035-1.108" transform="translate(-12.756 -89.495)" fill="#6b7d8b"/>
          <path id="Path_41025" data-name="Path 41025" d="M461.9,116.629c.579,0,1.159.007,1.738.006a1.392,1.392,0,0,0,1.571-1.566q.011-4.761.009-9.523c1.964-.135,1.964-.135,1.964,1.765q0,4.736,0,9.472c0,.953,0,.953-.99.954h-3.259c-1.09,0-1.09,0-1.034-1.108" transform="translate(-391.808 -89.491)" fill="#6b7d8b"/>
          <path id="Path_41026" data-name="Path 41026" d="M372.611,265.059c0-.675-.036-1.354.021-2.024.054-.627-.07-1.055-.773-1.127,2.292,0,4.584,0,6.876-.017.423,0,.557.149.575.57.087,1.956-.52,2.616-2.468,2.613-1.41,0-2.821-.011-4.231-.016" transform="translate(-315.445 -222.16)" fill="#8896a3"/>
          <path id="Path_41027" data-name="Path 41027" d="M344.979,447.244c-1.332.006-2.665.01-4,.02a.778.778,0,0,1-.885-.8c-.084-.7-.076-1.4-.1-2.1-.016-.457.138-.618.6-.609,1.508.029,3.017.021,4.525.028a4.123,4.123,0,0,1-.145,3.462" transform="translate(-288.414 -376.431)" fill="#6b7d8b"/>
          <path id="Path_41028" data-name="Path 41028" d="M130.742,447.252l-3.853.017c-.695,0-1-.364-1-1.035,0-.63.027-1.261-.008-1.889-.027-.487.185-.592.623-.584,1.461.025,2.921.019,4.382.024a4.383,4.383,0,0,1-.145,3.467" transform="translate(-106.782 -376.437)" fill="#6b7d8b"/>
          <path id="Path_41029" data-name="Path 41029" d="M157.932,447.279a15.76,15.76,0,0,0,.145-3.467c1.841-.067,1.841-.067,1.841,1.763,0,1.745,0,1.745-1.986,1.7" transform="translate(-133.972 -376.465)" fill="#6b7d8b"/>
          <path id="Path_41030" data-name="Path 41030" d="M372.848,447.27a17.657,17.657,0,0,0,.145-3.462c1.831-.076,1.831-.076,1.83,1.761,0,.176,0,.352,0,.528-.007.915-.257,1.174-1.146,1.184-.276,0-.553-.007-.829-.011" transform="translate(-316.283 -376.458)" fill="#6b7d8b"/>
          <path id="Path_41031" data-name="Path 41031" d="M323.258,322.72c.578.009,1.155.014,1.733.026a1.919,1.919,0,0,1,2.058,2.073,11.55,11.55,0,0,1-.07,2.555,4.5,4.5,0,0,1-3.721,3.582c-2.369.007-4.739-.036-7.105.038-1.634.051-2.607-.778-2.463-2.444a15.039,15.039,0,0,1,.1-2.258,4.512,4.512,0,0,1,4.486-3.543c1.663-.019,3.326-.021,4.988-.03" transform="translate(-266.086 -273.76)" fill="#050605"/>
          <path id="Path_41032" data-name="Path 41032" d="M117.7,330.718c-1.188,0-2.377.044-3.562-.009a4.4,4.4,0,0,1-4.2-4.411c0-.607-.007-1.213,0-1.819a1.76,1.76,0,0,1,1.582-1.905,48.1,48.1,0,0,1,8.169.087,4.231,4.231,0,0,1,3.6,4.313c.011.606.013,1.213,0,1.819a1.816,1.816,0,0,1-1.88,1.931c-1.237.038-2.476.008-3.715.008v-.014" transform="translate(-93.26 -273.523)" fill="#050605"/>
          <path id="Path_41033" data-name="Path 41033" d="M225.868,380.993c-.009.629-.008,1.259-.029,1.887a1.519,1.519,0,0,1-1.565,1.585q-4.949.028-9.9,0a1.519,1.519,0,0,1-1.564-1.585c-.021-.629-.02-1.258-.029-1.887.136-2.335.281-2.469,2.651-2.469q4.156,0,8.312,0c1.678,0,2.071.4,2.1,2.093,0,.125.017.25.027.376" transform="translate(-180.501 -321.097)" fill="#050605"/>
          <path id="Path_41034" data-name="Path 41034" d="M328.836,341.583a4.7,4.7,0,0,1,.1-1.784,1.932,1.932,0,0,1,1.667-1.414c1.708-.133,3.418-.02,5.127-.062.54-.013.483.357.419.67a3.026,3.026,0,0,1-2.1,2.47,12.483,12.483,0,0,1-5.211.12" transform="translate(-278.916 -286.992)" fill="#e5e5e5"/>
          <path id="Path_41035" data-name="Path 41035" d="M329,341.281a25.5,25.5,0,0,0,4.671-.159A3.125,3.125,0,0,0,336.1,338.7c.106-.414.042-.622-.492-.611-1.614.035-3.229,0-4.844,0a1.054,1.054,0,0,1,.657-.112c1.914,0,3.827.019,5.74-.009.507-.007.672.15.616.639a5.893,5.893,0,0,1-.134,1.491,2.108,2.108,0,0,1-2.031,1.5c-2.039.015-4.079.01-6.118,0-.2,0-.564.154-.494-.314" transform="translate(-279.077 -286.69)" fill="#e5e5e5"/>
          <path id="Path_41036" data-name="Path 41036" d="M130.121,341.649c-.958,0-1.916.007-2.874,0a2.194,2.194,0,0,1-2.32-2.311c-.023-1.311-.023-1.311,1.287-1.311,1.613,0,3.227.01,4.84,0,2.452-.018,2.808,1.58,2.67,3.354-.03.38-.3.266-.5.268-1.033.01-2.067,0-3.1,0" transform="translate(-105.97 -286.74)" fill="#e5e5e5"/>
          <path id="Path_41037" data-name="Path 41037" d="M228.344,393.644c2.425-.079,4.85-.062,7.276-.008.449.918.252,1.276-.71,1.277q-2.767,0-5.534,0c-1.244,0-1.244,0-1.031-1.27" transform="translate(-193.612 -333.878)" fill="#dddcdb"/>
          <path id="Path_41038" data-name="Path 41038" d="M227.813,393.621a5.243,5.243,0,0,1,0,.6c-.054.483.182.593.621.588,1.813-.018,3.626,0,5.439-.01,1.376-.007,1.2.183,1.216-1.19.51-.02,1.135-.294,1.06.688-.038.492-.153.639-.644.635-2.286-.018-4.571,0-6.857,0-1.09,0-1.228-.219-.834-1.319" transform="translate(-193.08 -333.856)" fill="#c4c4c4"/>
        </g>
      </g>
      <g id="Group_54624" data-name="Group 54624" transform="translate(2.693 14.711)">
        <ellipse id="Ellipse_29" data-name="Ellipse 29" cx="52.653" cy="2.581" rx="52.653" ry="2.581" transform="translate(5 49.282)" fill="url(#radial-gradient)"/>
        <g id="Group_53916" data-name="Group 53916" transform="translate(10.838)">
          <g id="Group_53916-2" data-name="Group 53916" clip-path="url(#clip-path-3)">
            <path id="Path_41039" data-name="Path 41039" d="M0,40.156V2.763C.468.83,1.348.11,3.266.094q37.18,0,74.355,0A2.2,2.2,0,0,0,78.707,0h.184a6.88,6.88,0,0,1,5.133,2.457A9.533,9.533,0,0,1,85.9,6.307c.7,2.539.5,2.026,2.764,2.081.552.013,1.1,0,1.657,0,1.409.02,1.824.3,2.3,1.653a45.219,45.219,0,0,1,1.753,5.98v1.105a1.334,1.334,0,0,1-1.359,1.132,1.646,1.646,0,0,1-1.593-1.183c-.574-1.49-1.02-3.025-1.545-4.532-.132-.38-.257-.734-.749-.829-1.363-.264-1.626.008-1.238,1.353.977,3.392,2.074,6.749,2.994,10.157a26.81,26.81,0,0,1,.811,6.654c.04,2.947.021,5.894.006,8.841-.014,2.866-1.608,4.453-4.47,4.472-1.567.01-3.133,0-4.7,0-1.292,0-1.289,0-1.669,1.208a10.777,10.777,0,0,1-6.255,6.954,7.58,7.58,0,0,1-2.973.491H69.545c-3.792.2-7.532-3.119-8.763-6.273-.056-.143-.107-.288-.157-.433-.676-1.94-.676-1.94-2.781-1.94H30.666c-1.412,0-1.4.007-1.827,1.34a10.685,10.685,0,0,1-6.508,6.936,7.136,7.136,0,0,1-2.626.37H17.652c-3.63.242-7.62-2.984-8.866-6.373-.053-.144-.1-.289-.151-.434C8,43.184,8,43.185,5.987,43.184c-.736,0-1.473.017-2.209-.006A3.555,3.555,0,0,1,0,40.156" fill="#191f21"/>
            <path id="Path_41040" data-name="Path 41040" d="M78.62,151.029c.376,1.1.7,1.325,1.987,1.325q14.008,0,28.016-.007a2.307,2.307,0,0,1,1.669.563,5.463,5.463,0,0,0,3.728,1.318c2.212-.008,4.424.015,6.635-.014.559-.007.739.151.731.721-.03,2.3-.02,4.6-.009,6.907,0,.854-.393,1.218-1.241,1.209-1.9-.02-3.81-.033-5.713.011-.59.013-.794-.212-.912-.736a10.041,10.041,0,0,0-7.807-8.016,10.337,10.337,0,0,0-12.457,8.023c-.118.621-.362.721-.9.72q-14.976-.016-29.952.007c-.555,0-.767-.2-.854-.691a10.376,10.376,0,0,0-10.421-8.337,10.578,10.578,0,0,0-9.675,7.454c-.131.465-.269.929-.4,1.393-.415.218-.632.016-.759-.362a2.562,2.562,0,0,1-.095-.819q-.013-4.047,0-8.095a1.592,1.592,0,0,1,.325-1.21c.367-.013.734-.038,1.1-.038q15.694,0,31.387.007c1.008,0,1.739-.287,2.01-1.334a5.862,5.862,0,0,1,3.609,0" transform="translate(-32.763 -122.914)" fill="#ed1c24"/>
            <path id="Path_41041" data-name="Path 41041" d="M389.286,59.143a1.869,1.869,0,0,1-1.169-2.081c.069-3.8.042-7.609.014-11.414,0-.642.09-.9.829-.886,3.346.046,6.693.025,10.04.015.451,0,.791.005.955.569,1.427,4.909,2.908,9.8,4.32,14.715a15.361,15.361,0,0,1,.665,4.792,29.32,29.32,0,0,1-4.482.073,1.953,1.953,0,0,1-1.114-.61c-1.46-1.172-2.962-2.3-4.373-3.522a5.678,5.678,0,0,0-3.9-1.368,3.571,3.571,0,0,1-1.789-.282" transform="translate(-316.461 -36.497)" fill="#fff"/>
            <path id="Path_41042" data-name="Path 41042" d="M40.151,15.621c.336-.018.672-.05,1.008-.05q34.393,0,68.785-.016a4.994,4.994,0,0,1,4.6,2.124,1.834,1.834,0,0,1,.139.337,2.071,2.071,0,0,1-1.084.095q-36.031.008-72.062,0c-1.753,0-2.229-.857-1.387-2.494" transform="translate(-32.409 -12.683)" fill="#ed1c24"/>
            <path id="Path_41043" data-name="Path 41043" d="M78.3,134.354l-3.609,0a1.577,1.577,0,0,0-1.158-1.452,3.672,3.672,0,0,0-1.007-.047q-15.513,0-31.027,0c-1.667,0-2.139-.887-1.315-2.468.4-.013.8-.036,1.194-.036,19.706,0,39.412.038,59.117-.055,2.27-.011,3.565,1.212,5.234,2.608h-1.114q-12.2,0-24.4,0c-1.341,0-1.694.275-1.914,1.45" transform="translate(-32.441 -106.239)" fill="#ed1c24"/>
            <path id="Path_41044" data-name="Path 41044" d="M284.055,49.164c1.355-.505,1.449-.646,1.459-2.057.006-.885-.306-2.072.142-2.576.516-.58,1.729-.171,2.637-.183,2-.027,3.993.007,5.989-.019.508-.006.681.127.678.66q-.032,5.847,0,11.694c0,.542-.117.746-.709.739-2.672-.032-5.344-.028-8.016,0-.546.005-.776-.111-.735-.706.052-.764-.011-1.535.018-2.3a1.433,1.433,0,0,0-1.335-1.654c-.132-.079-.287-.167-.306-.321a5.11,5.11,0,0,1,.179-3.275" transform="translate(-231.318 -36.056)" fill="#818080"/>
            <path id="Path_41045" data-name="Path 41045" d="M198.839,51.321c0-1.9.024-3.8-.014-5.7-.012-.616.117-.849.794-.839q4,.06,8,0c.636-.008.747.22.743.79q-.033,5.744,0,11.489c0,.656-.2.825-.837.818-2.606-.032-5.212-.036-7.818,0-.677.01-.907-.159-.889-.864.047-1.9.016-3.8.016-5.7" transform="translate(-162.115 -36.515)" fill="#818080"/>
            <path id="Path_41046" data-name="Path 41046" d="M104.647,51.368c0-1.961.016-3.923-.011-5.884-.007-.515.137-.676.663-.671q4.048.037,8.1,0c.487,0,.693.084.69.64q-.036,5.884,0,11.768c0,.5-.117.686-.655.681-2.7-.026-5.4-.031-8.1,0-.606.008-.7-.22-.694-.746.026-1.93.01-3.861.01-5.792" transform="translate(-85.318 -36.539)" fill="#818080"/>
            <path id="Path_41047" data-name="Path 41047" d="M23.375,57.695c-.158.366-.481.181-.718.183-2.33.015-4.661-.013-6.99.018-.6.008-.772-.152-.768-.76q.041-5.79,0-11.582c0-.608.169-.778.766-.757,1.408.051,2.819.034,4.228.045a1.82,1.82,0,0,1,.306,1.39c.01,3.113,0,6.226.006,9.339,0,1.976-.046,1.8,1.775,1.828a1.926,1.926,0,0,1,1.4.3" transform="translate(-12.148 -36.525)" fill="#606060"/>
            <path id="Path_41048" data-name="Path 41048" d="M19.927,159.474q0,4.832-.006,9.663c0,.379-.121.859.534.823-.188.321-.5.156-.743.16-1.225.018-2.45.013-3.676.005-.677,0-1.1-.274-1.1-1.035q.015-4.545,0-9.091c0-.446.155-.58.585-.571,1.469.031,2.938.033,4.407.046" transform="translate(-12.178 -129.994)" fill="#d81d24"/>
            <path id="Path_41049" data-name="Path 41049" d="M45.351,57.723c-.858,0-1.719-.039-2.573.023-.74.054-.934-.217-.928-.935.032-3.98.017-7.96.018-11.94.982-.011,1.965-.006,2.946-.039.42-.014.594.094.59.556-.03,4.112-.039,8.224-.054,12.336" transform="translate(-34.124 -36.554)" fill="#818080"/>
            <path id="Path_41050" data-name="Path 41050" d="M91.728,183.706a7.618,7.618,0,0,1,7.575,8.115,7.472,7.472,0,0,1-7.943,6.942,4.027,4.027,0,0,1-1.5-1.286c-.207-.248-.349-.539.119-.7a8.755,8.755,0,0,0,3.894-.3,5.627,5.627,0,0,0-2.9-10.785,2.522,2.522,0,0,1-.64.047c-.506-.087-.622-.359-.3-.75a3.027,3.027,0,0,1,1.693-1.289" transform="translate(-73.111 -149.789)" fill="#818080"/>
            <path id="Path_41051" data-name="Path 41051" d="M373.277,183.707a7.617,7.617,0,0,1,7.575,8.115,7.472,7.472,0,0,1-7.944,6.941,4.016,4.016,0,0,1-1.5-1.286c-.207-.248-.348-.539.12-.7a8.761,8.761,0,0,0,3.894-.3,5.628,5.628,0,0,0-2.894-10.785,2.557,2.557,0,0,1-.64.048c-.5-.085-.622-.343-.308-.747a3.333,3.333,0,0,1,1.7-1.291" transform="translate(-302.678 -149.789)" fill="#818080"/>
            <path id="Path_41052" data-name="Path 41052" d="M362.042,51.449c0,1.9-.015,3.8.009,5.693.007.552-.163.755-.736.74-2.1-.059-1.811.206-1.817-1.815-.011-3.428.017-6.857-.019-10.285-.008-.744.174-1.015.962-.991,1.6.049,1.6,0,1.6,1.608q0,2.525,0,5.051" transform="translate(-293.111 -36.52)" fill="#e5e5e5"/>
            <path id="Path_41053" data-name="Path 41053" d="M349.075,183.713c-.513.473-1.031.941-1.538,1.421-.153.144-.371.334.065.4.015.431-.365.437-.621.551a5.43,5.43,0,0,0-3.509,5.059,5.366,5.366,0,0,0,3,5.1c.306.164.731.216.783.681-.128.563.443.662.67.988a8.655,8.655,0,0,0,.776.857,7.314,7.314,0,0,1-6.891-5.457,7.577,7.577,0,0,1,7.26-9.6" transform="translate(-278.476 -149.795)" fill="#606060"/>
            <path id="Path_41054" data-name="Path 41054" d="M67.523,183.71c-.513.473-1.03.942-1.538,1.422-.154.146-.366.335.066.4.016.431-.364.437-.62.551a5.609,5.609,0,0,0-.84,9.981c.391.248.949.313,1.117.861-.127.562.442.663.67.988a8.766,8.766,0,0,0,.776.857,7.315,7.315,0,0,1-6.891-5.456,7.578,7.578,0,0,1,7.258-9.6" transform="translate(-48.905 -149.793)" fill="#606060"/>
            <path id="Path_41055" data-name="Path 41055" d="M78.357,44.917c.316.227.179.563.18.848.01,3.74-.013,7.48.022,11.219.007.754-.191,1.1-.972.964a2.3,2.3,0,0,0-.368,0c-1.225-.006-1.227-.006-1.227-1.2q0-5.288,0-10.576c0-1.3,0-1.3,1.282-1.281.184,0,.367.02.55.031.328.318.264.732.264,1.125q0,5.466,0,10.932c0-3.613,0-7.226,0-10.839,0-.42-.09-.868.263-1.216" transform="translate(-61.962 -36.596)" fill="#e7e8e8"/>
            <path id="Path_41056" data-name="Path 41056" d="M19.865,15.712c0,2.4,0,2.4,2.383,2.4H92.923c.491,0,.983-.007,1.474-.01-.225.421-.611.171-.9.172q-17.962.027-35.923.015-20.863,0-41.726-.009c-.424,0-.984.256-.982-.623,0-1.669.072-1.97.951-1.987,1.348-.025,2.7.022,4.047.038" transform="translate(-12.122 -12.774)" fill="#d81d24"/>
            <path id="Path_41057" data-name="Path 41057" d="M394.453,122.659c.919.016,1.839.006,2.756.052a6.028,6.028,0,0,1,3.537,1.736c1.475,1.228,3.008,2.388,4.493,3.6a1.444,1.444,0,0,0,1.006.335c1.287-.014,2.574-.013,3.861-.018-.153.37-.478.187-.714.189-2.172.014-4.345-.006-6.517.01a3,3,0,0,1-1.951-.661c-2.167-1.737-4.315-3.5-6.47-5.248" transform="translate(-321.628 -100.013)" fill="#e7e8e8"/>
            <path id="Path_41058" data-name="Path 41058" d="M267.891,57.749c-.656.384-1.362.119-2.044.144-.332.012-.32-.311-.321-.555,0-3.954,0-7.908-.009-11.862,0-.5.216-.643.667-.614.4.025.8.02,1.2.029.35.346.26.792.265,1.212q.067,5.261.006,10.523c0,.388-.09.8.241,1.124" transform="translate(-216.497 -36.576)" fill="#e5e5e5"/>
            <path id="Path_41059" data-name="Path 41059" d="M173.068,57.751c-.658.376-1.366.117-2.049.143-.333.012-.322-.308-.322-.554,0-3.954,0-7.909-.009-11.863,0-.5.21-.646.663-.616.4.026.8.021,1.2.029.35.346.264.793.265,1.212.005,3.51,0,7.019.006,10.529,0,.388-.089.8.251,1.12" transform="translate(-139.175 -36.576)" fill="#e5e5e5"/>
            <path id="Path_41060" data-name="Path 41060" d="M19.885,130.63c0,2.374,0,2.374,2.4,2.374q14.94,0,29.881.005c.356,0,.739-.116,1.066.138q-18.753,0-37.505.017c-.74,0-.848-.249-.835-.895.033-1.677,0-1.682,1.677-1.676,1.1,0,2.21.023,3.315.035" transform="translate(-12.143 -106.484)" fill="#d81d24"/>
            <path id="Path_41061" data-name="Path 41061" d="M276.028,57.8c-.669.032-.516-.465-.516-.831q-.006-6.014,0-12.028c.5-.1.557.185.549.578-.014.736.043,1.475-.015,2.207a1.707,1.707,0,0,0,1.32,2.009,28.756,28.756,0,0,0,.128,3.6c-1.054.186-1.424.606-1.437,1.632q-.018,1.418-.034,2.837" transform="translate(-224.634 -36.623)" fill="#e5e5e5"/>
            <path id="Path_41062" data-name="Path 41062" d="M181.2,57.8c-.66.034-.527-.452-.527-.826q0-6.017.005-12.035c.477-.1.568.157.566.566q-.031,6.147-.044,12.295" transform="translate(-147.311 -36.628)" fill="#e5e5e5"/>
            <path id="Path_41063" data-name="Path 41063" d="M86.323,45.069q0,6.015,0,12.03c0,.271.162.748-.265.747s-.267-.476-.267-.748q-.012-6.015,0-12.03h.533" transform="translate(-69.928 -36.747)" fill="#e5e5e5"/>
            <path id="Path_41064" data-name="Path 41064" d="M73.136,204.314a6.091,6.091,0,0,1-3.937-4.556,5.826,5.826,0,0,1,3.54-6.5c.252-.095.493-.222.739-.334a6.127,6.127,0,0,1,5.338,1.284,5.93,5.93,0,0,1,1.73,6.342,5.815,5.815,0,0,1-5.317,3.983,8.175,8.175,0,0,1-2.092-.216" transform="translate(-56.332 -157.184)" fill="#191f21"/>
            <path id="Path_41065" data-name="Path 41065" d="M354.686,204.315a6.113,6.113,0,0,1-3.937-4.555,5.833,5.833,0,0,1,3.541-6.5c.253-.095.493-.222.739-.334a6.109,6.109,0,0,1,5.265,1.229,5.9,5.9,0,0,1,1.8,6.4,5.812,5.812,0,0,1-5.411,3.984,8.439,8.439,0,0,1-2-.217" transform="translate(-285.902 -157.185)" fill="#191f21"/>
            <path id="Path_41066" data-name="Path 41066" d="M88.564,213.851a2.978,2.978,0,0,1-3.8-.945,3.1,3.1,0,0,1,.146-3.817,3.015,3.015,0,0,1,3.871-.647,1.494,1.494,0,0,1-.311.647,4,4,0,0,0-.168,3.836c.13.294.4.552.266.925" transform="translate(-68.633 -169.611)" fill="#e7e8e8"/>
            <path id="Path_41067" data-name="Path 41067" d="M103.753,215.742a4.279,4.279,0,0,1-.537-4.532,1.492,1.492,0,0,1,.75-.876,2.776,2.776,0,0,1,1.585,2.818,2.744,2.744,0,0,1-1.8,2.589" transform="translate(-83.821 -171.502)" fill="#e7e8e8"/>
            <path id="Path_41068" data-name="Path 41068" d="M370.13,213.853a2.978,2.978,0,0,1-3.8-.945,3.108,3.108,0,0,1,.147-3.817,3.018,3.018,0,0,1,3.871-.647,1.506,1.506,0,0,1-.313.647,4,4,0,0,0-.169,3.837c.131.294.4.552.267.925" transform="translate(-298.217 -169.612)" fill="#e7e8e8"/>
            <path id="Path_41069" data-name="Path 41069" d="M385.3,215.738a4.278,4.278,0,0,1-.537-4.534,1.483,1.483,0,0,1,.752-.875,2.782,2.782,0,0,1,1.584,2.82,2.742,2.742,0,0,1-1.8,2.589" transform="translate(-313.39 -171.498)" fill="#e7e8e8"/>
          </g>
        </g>
      </g>
    </g>
  </g>
</svg>
