<svg xmlns="http://www.w3.org/2000/svg" xmlns:xlink="http://www.w3.org/1999/xlink" width="232.013" height="152.785" viewBox="0 0 232.013 152.785">
  <defs>
    <radialGradient id="radial-gradient" cx="0.5" cy="0.5" r="0.5" gradientUnits="objectBoundingBox">
      <stop offset="0"/>
      <stop offset="1" stop-color="#19304c" stop-opacity="0"/>
    </radialGradient>
    <clipPath id="clip-path">
      <rect id="Rectangle_51389" data-name="Rectangle 51389" width="184.327" height="147.59" fill="none"/>
    </clipPath>
  </defs>
  <g id="Group_53928" data-name="Group 53928" transform="translate(12.924)">
    <ellipse id="Ellipse_25" data-name="Ellipse 25" cx="116.007" cy="5.194" rx="116.007" ry="5.194" transform="translate(-12.924 142.396)" fill="url(#radial-gradient)"/>
    <g id="Group_52953" data-name="Group 52953" transform="translate(26.783 0)" style="isolation: isolate">
      <g id="Group_52945" data-name="Group 52945" style="mix-blend-mode: luminosity;isolation: isolate">
        <g id="Group_52945-2" data-name="Group 52945" clip-path="url(#clip-path)">
          <path id="Path_38346" data-name="Path 38346" d="M136.649,108.586a23.488,23.488,0,0,1,4.278,10.041,23.1,23.1,0,0,1,.163,8.027,3.051,3.051,0,0,0-.07.862,29.042,29.042,0,0,0-.818,3.064c-.046.37-.349.623-.442.972-.623,1.3-1.191,2.619-1.9,3.874a23.08,23.08,0,0,1-8.591,8.6c-1.266.7-2.6,1.276-3.9,1.9-.357.109-.627.421-1.023.436-1.512.334-3,.76-4.544.966a23.661,23.661,0,0,1-13.267-2.089,21.549,21.549,0,0,1-4.107-2.433c-.828-.65-1.586-1.385-2.441-2a11.752,11.752,0,0,1-1.255-1.277l-1.175-1.262a21.028,21.028,0,0,1-3.488-5.952c-.273-.836-.558-1.668-.815-2.509a.914.914,0,0,0-1.02-.75q-13.843.031-27.686,0c-.882,0-.947.553-1.131,1.14a23.464,23.464,0,0,1-6.389,10.359c-.669.4-1.109,1.074-1.759,1.5-.371.174-.592.528-.915.759l0,0a7.341,7.341,0,0,0-1.286.947,27.364,27.364,0,0,1-5.565,2.62c-.95.344-1.975.387-2.9.8-1.329.021-2.618.408-3.949.415A25.49,25.49,0,0,1,25.5,142.821a21.279,21.279,0,0,0-2.51-2.272,24.242,24.242,0,0,1-5.67-8.216,9.235,9.235,0,0,1-.749-1.984,1.307,1.307,0,0,0-1.516-1.213c-3.85.074-7.7.032-11.554.029a3.266,3.266,0,0,1-3.5-3.5q0-15.44,0-30.88A7.218,7.218,0,0,1,.32,92.473a10.59,10.59,0,0,0,.407-1.646,10.2,10.2,0,0,1,1.231-2.9l.189-.212a14.041,14.041,0,0,0,1.2-1.728,15.4,15.4,0,0,1,4.923-4.14,1.523,1.523,0,0,0,.414-.291,8.487,8.487,0,0,1,2.03-.82,23.025,23.025,0,0,1,6.342-.812c5.109.042,10.219.015,15.329.01a3,3,0,0,0,1.21-.1c.264-.247.171-.572.172-.868.005-4.124-.006-8.249.015-12.373a1.7,1.7,0,0,0-.562-1.346c-1.054-1.018-2.079-2.067-3.114-3.1a4.341,4.341,0,0,1-.811-.719c-.659-.763-.288-1.3.393-1.759.348-.364.709-.715,1.066-1.07.426-.41.826-.848,1.256-1.254.457-.568.9-1.211,1.644-.327l.234.182c1.012.881,1.911,1.877,2.87,2.813.423.413.84.833,1.256,1.254a13.392,13.392,0,0,1,1.576,1.693l.4,1.019a1.87,1.87,0,0,1,.109,1.1c.009,4.6.024,9.208-.012,13.812-.006.77.2.977.969.968,3.683-.041,7.366-.025,11.049-.011.521,0,.8-.049.979-.682.53-1.846.9-3.733,1.462-5.567a.224.224,0,0,0,.013-.183c.291-1.663.864-3.26,1.137-4.927.52-1.456.773-2.985,1.212-4.463a17.48,17.48,0,0,1,.694-2.513c.117-.15-.21-.293-.007-.444a32.659,32.659,0,0,1,1.082-3.937c.137-.325.47-.467.68-.724a4.4,4.4,0,0,1,.7-.629,2.9,2.9,0,0,1,1.656-.4q12.042.008,24.085.007a3.148,3.148,0,0,1,3.347,2.776c.237,1.059.527,2.107.793,3.159.526,2.075,1.062,4.147,1.574,6.226.346,1.4.663,2.814,1.06,4.2.176.615.276,1.241.436,1.855v0c.55,1.866.933,3.776,1.493,5.641.133.443.238.619.707.61,1.326-.026,2.655-.06,3.978.009.891.046.881-.833,1.392-1.154,1.023-1.523,2.078-3.026,3.058-4.576a18.532,18.532,0,0,1,3.337-4.1,1.608,1.608,0,0,0,.587-1.327q-.033-7.723,0-15.447c.005-.767-.2-1-.972-.971-1.43.061-2.865.057-4.295,0-.738-.029-.911.231-.907.931.028,4.432-.019,8.866.04,13.3.013.982-.3,1.206-1.2,1.158-1.36-.072-2.728-.049-4.09-.006-.651.021-.889-.147-.886-.845.026-5.8.008-11.594.02-17.39a3.023,3.023,0,0,1,3.324-3.266q15.5-.01,31,.015a2.666,2.666,0,0,0,2.138-.877c1.475-1.554,3-3.067,4.543-4.55.587-.562.556-.928-.016-1.481-1.98-1.917-3.9-3.9-5.872-5.821a4.247,4.247,0,0,1-1.362-3.265c.032-8.8.015-17.6.018-26.392,0-2.526,1.156-3.682,3.671-3.686q4.041-.006,8.081,0c2.165,0,3.142.814,3.641,2.928.367,1.555.785,3.1,1.181,4.647.514,1.289.632,2.685,1.078,4,.143.421.224.621.706.619q5.312-.028,10.625,0a1.5,1.5,0,0,0,1.106-.627c3.4-3.393,6.805-6.777,10.179-10.193A4.6,4.6,0,0,1,172.856,0c2.69.045,5.381.006,8.071.016a3.112,3.112,0,0,1,3.081,2.02,5.966,5.966,0,0,1,.316,2.288c-.014,4.552-.021,9.1,0,13.657a3.809,3.809,0,0,1-1.165,2.827c-.885.893-1.771,1.785-2.667,2.663-.6.612-1.209,1.216-1.819,1.818-.478.5-.987.979-1.472,1.477-.539.552-1.094,1.088-1.637,1.637q-.716.723-1.439,1.44-.815.816-1.631,1.631-.716.723-1.439,1.439c-.548.54-1.081,1.095-1.632,1.632q-.72.718-1.438,1.438c-.538.55-1.091,1.085-1.632,1.632-.472.487-.964.954-1.438,1.439-.538.55-1.091,1.085-1.632,1.632-.472.487-.964.954-1.438,1.439-.538.55-1.091,1.085-1.632,1.632-.472.487-.964.954-1.438,1.439-.538.55-1.091,1.085-1.632,1.632q-.716.723-1.439,1.439c-.548.54-1.081,1.095-1.632,1.632q-.72.718-1.438,1.438c-.538.55-1.091,1.085-1.633,1.632q-.718.725-1.443,1.442c-.551.555-1.107,1.1-1.657,1.66-.522.514-1.026,1.044-1.559,1.547a4.817,4.817,0,0,0-2.061,5.087,11.159,11.159,0,0,1,.013,1.725,2.967,2.967,0,0,1-.986,2.371c-.958.97-1.927,1.93-2.889,2.895-.567.556-1.124,1.124-1.689,1.683-.474.492-.971.961-1.448,1.449-.538.551-1.093,1.086-1.634,1.634-.473.489-.968.956-1.443,1.444-.614.616-1.226,1.233-1.845,1.844q-1.417,1.422-2.839,2.838-.721.733-1.454,1.456c-.562.552-1.1,1.125-1.675,1.671-.526.541-1.07,1.063-1.6,1.6a4.683,4.683,0,0,0-1.929,4.552c.191,3-.046,6.026.107,9.037.618.71,1.6.541,2.356.955a2.733,2.733,0,0,0,1.189.461,23.807,23.807,0,0,1,5.583,3.394l1.262,1.174a11.68,11.68,0,0,1,1.277,1.255c.618.855,1.352,1.614,2,2.441" transform="translate(0 0)" fill="#191f21"/>
          <path id="Path_38347" data-name="Path 38347" d="M86.855,447.819a25.551,25.551,0,0,0-7.962-10.245,19.62,19.62,0,0,0-6.225-3.376,15.239,15.239,0,0,0-4.049-.966,15.02,15.02,0,0,0-6.562-.481,24.266,24.266,0,0,0-18.391,10.958,23.608,23.608,0,0,0-4.043,12.56c-.029.756-.222.992-.99.977-2.421-.048-4.844-.043-7.265,0-.728.012-1.01-.141-1.007-.947.029-8.971.016-17.943.024-26.914a9,9,0,0,1,1.835-5.314,10.381,10.381,0,0,1,1.838-1.845l1.022-.614a13.908,13.908,0,0,1,6.558-1.134q39.736.035,79.473.017c1.4,0,1.266-.156,1.271,1.242,0,1.262-.038,2.525.016,3.784.031.719-.2.921-.916.917-5.216-.027-10.433-.015-15.649-.015-1.534,0-3.068,0-4.6,0a3.191,3.191,0,0,0-3.41,3.159q0,13.2,0,26.4c0,1.143,0,1.145-1.171,1.146-2.319,0-4.638-.02-6.957.013-.651.009-.89-.155-.89-.85a21.669,21.669,0,0,0-.7-4.531,13.672,13.672,0,0,0-1.248-3.936" transform="translate(-24.138 -334.302)" fill="#ed1c24"/>
          <path id="Path_38348" data-name="Path 38348" d="M698.116,30.462c1.329,0,2.66.027,3.987-.029.725-.03.928.216.92.927-.037,3.374-.023,6.747-.027,10.121a21.839,21.839,0,0,1-2.174,2.3q-.622.634-1.256,1.257c-.393.385-.772.784-1.17,1.163-.2.237-.453.423-.654.66-.155.158-.306.319-.471.466-.31.322-.633.631-.946.949-.329.351-.686.675-1.022,1.02-.2.228-.442.409-.637.64-.154.156-.3.316-.468.462-.311.328-.641.637-.956.962-.338.36-.709.688-1.047,1.048-.48.481-.956.965-1.442,1.44q-1.1,1.107-2.206,2.2c-.409.421-.828.833-1.244,1.248s-.823.822-1.235,1.234c-.23.244-.487.46-.709.713-.191.2-.4.381-.587.583-.708.58-1.127,1.534-2.32,1.449-.805-.058-1.055-.318-1.048-1.1.03-3.342.013-6.684.013-10.025,0-1.181,0-1.182-1.13-1.183q-1.842,0-3.683,0c-1.125,0-1.128,0-1.128,1.087q0,5.013,0,10.025c0,1.118-.048,1.164-1.146,1.167q-3.068.007-6.138,0c-.264,0-.549.083-.788-.115l.006,0c-1.436-1.148-2.624-2.551-3.943-3.821-.953-.918-1.869-1.874-2.814-2.8a1.266,1.266,0,0,1-.522-1.147q0-10.841,0-21.677c0-1.135,0-1.135,1.173-1.136h.92c1.585,0,1.65-.011,1.928,1.585.177,1.016.547,1.958.818,2.936.547,1.737.919,3.52,1.37,5.283a2.971,2.971,0,0,0,2.9,2.268c5.029.011,10.058,0,15.088.006a3.134,3.134,0,0,0,1.384-.266,3.426,3.426,0,0,0,1.31-.938q5.043-5.055,10.1-10.1a4.219,4.219,0,0,1,1-.867" transform="translate(-524.831 -24.194)" fill="#ed1c24"/>
          <path id="Path_38349" data-name="Path 38349" d="M131.715,511.774a19.086,19.086,0,0,1,7.77,6.963,12.435,12.435,0,0,1,1.231,2.459,18.417,18.417,0,0,1-33.564,15.141,15.484,15.484,0,0,1-1.737-6.686.659.659,0,0,0-.1-.48,18.417,18.417,0,0,1,14.982-18.887,23.241,23.241,0,0,1,4.255-.35,29.687,29.687,0,0,1,4.071.647,18.912,18.912,0,0,1,3.095,1.193" transform="translate(-83.718 -405.427)" fill="#606060"/>
          <path id="Path_38350" data-name="Path 38350" d="M513.684,539.389a17.842,17.842,0,0,1-12.318,7.564,18.148,18.148,0,0,1-11.53-2.1,20.2,20.2,0,0,1-5.84-5.01,1.779,1.779,0,0,1-.2-.455,19.442,19.442,0,0,1-3.053-7.211,20.087,20.087,0,0,1-.285-4.743c.023-.5.036-1.013.083-1.518a15.911,15.911,0,0,1,1.622-5.16,10.8,10.8,0,0,1,1.627-2.666,18.954,18.954,0,0,1,5.431-5,17.718,17.718,0,0,1,12.469-2.4c.732.125,1.467.239,2.186.434a17.074,17.074,0,0,1,8.368,5.152,18.263,18.263,0,0,1,4.893,13.7,16.131,16.131,0,0,1-.789,4.082,3.038,3.038,0,0,0-.383,1.065,25.992,25.992,0,0,1-2.276,4.263" transform="translate(-381.966 -405.812)" fill="#606060"/>
          <path id="Path_38351" data-name="Path 38351" d="M406.461,491.708a26.384,26.384,0,0,0-2,3.926,20.632,20.632,0,0,0-1.735,7.052c-.143,2.057-.139,2.057-2.18,2.057-3.068,0-6.137-.023-9.2.016-.732.009-.908-.23-.906-.928q.033-11.25,0-22.5c0-.792.245-.96.987-.956q8.131.044,16.261-.005c.858-.007,1.009.3,1,1.056-.041,2.284-.015,4.568-.015,6.85a1.127,1.127,0,0,1-.244.849c-.7.823-1.33,1.7-1.954,2.583" transform="translate(-310.415 -381.922)" fill="#818080"/>
          <path id="Path_38352" data-name="Path 38352" d="M554.733,260.433c0-1.429.033-2.86-.015-4.287-.024-.726.147-1.026.951-1.014,2.96.045,5.921.014,8.881.024.251,0,.6-.138.724.188.094.25-.19.408-.352.57q-4.724,4.732-9.458,9.455c-.155.155-.3.442-.575.308s-.151-.425-.152-.648c-.01-1.531,0-3.063,0-4.594" transform="translate(-441.031 -202.84)" fill="#bac2c4"/>
          <path id="Path_38353" data-name="Path 38353" d="M116.044,429.109a3.146,3.146,0,0,1,3.2-3.288c6.752,0,13.5-.015,20.255.015.827,0,1.153-.188,1.1-1.069-.073-1.257-.046-2.523-.007-3.784.02-.642-.15-.979-.85-.891a5.78,5.78,0,0,1-.716,0q-40.1,0-80.2,0a10.428,10.428,0,0,0-4.742.946,2.057,2.057,0,0,1-.7.073,6.951,6.951,0,0,1,3.514-1.219,13.291,13.291,0,0,1,1.635-.034h80.92c1.367,0,1.367,0,1.368,1.383,0,1.193-.062,2.391.019,3.579.066.968-.219,1.27-1.225,1.263-6.581-.045-13.162-.026-19.744-.022-2.195,0-3.257.9-3.643,3.039-.058.092-.121.091-.188.01" transform="translate(-42.446 -333.806)" fill="#d39620"/>
          <path id="Path_38354" data-name="Path 38354" d="M407.966,488.08c0-2.456-.025-4.912,0-7.368.008-.667-.2-.881-.874-.878q-8.187.033-16.374,0c-.605,0-.839.168-.837.808q.026,11.308,0,22.617c0,.653.257.8.849.8,3.411-.019,6.822-.024,10.233,0,.678.005.843-.23.876-.884a24.913,24.913,0,0,1,1.6-7.736c.076-.2.158-.377.39-.427a30.619,30.619,0,0,0-1.736,8.54c-.026.582-.267.748-.819.745-3.616-.016-7.232-.028-10.847.005-.881.008-.779-.527-.779-1.076q0-9.568,0-19.136c0-1.194.024-2.388-.01-3.581-.017-.625.125-.924.84-.921q8.442.035,16.885,0c.605,0,.852.173.842.813-.038,2.557-.037,5.115-.049,7.673a.112.112,0,0,1-.195,0" transform="translate(-309.788 -381.302)" fill="#a28548"/>
          <path id="Path_38355" data-name="Path 38355" d="M681.063,210.033c.71.3.052.535-.077.674-1.111,1.195-2.341,2.267-3.465,3.456-2.029,2.147-4.161,4.2-6.256,6.284-1.013,1.009-1.132,1.04-2.089,0-1.132-1.225-2.318-2.392-3.545-3.52-.5-.463-.617-.957-.05-1.452,1.973-1.721,3.62-3.781,5.646-5.446a.168.168,0,0,1,.249-.008c.051.529-.372.776-.671,1.079-1.435,1.456-2.865,2.918-4.342,4.33-.591.565-.569.954.012,1.5,1.045.976,2.056,1.993,3.036,3.034.533.566.906.5,1.423-.028,3.27-3.329,6.62-6.58,9.869-9.931a.207.207,0,0,1,.26.027" transform="translate(-528.876 -166.94)" fill="#060a0e"/>
          <path id="Path_38356" data-name="Path 38356" d="M359.661,300.069q4.685-.033,9.371-.068a.552.552,0,0,1,.633.5c.1.531.261,1.052.4,1.577.032.422.619.819.055,1.267-.641-.257-.541-.889-.685-1.388-.393-1.359-.417-1.394-1.813-1.4-2.111,0-4.221.016-6.332-.009-.83-.01-1.152.318-1.15,1.144q.017,7.558,0,15.116c0,.849.344,1.13,1.157,1.127,3.676-.018,7.353-.006,11.03-.009a2.318,2.318,0,0,0,1.273-.305.381.381,0,0,1,.361,0v0a.629.629,0,0,1-.018.817h0a.856.856,0,0,1-.587.107q-6.516,0-13.032,0c-.228,0-.481.075-.671-.136l.006.007c-.211-.19-.136-.443-.136-.671q-.006-8.509,0-17.018c0-.228-.078-.482.14-.668" transform="translate(-285.83 -238.518)" fill="#6897bc"/>
          <path id="Path_38357" data-name="Path 38357" d="M695.675,132.415c2.281-.008,4.564-.051,6.845-.007.825.016,1.116-.186,1.1-1.064-.05-3.406,0-6.814-.039-10.22-.011-.82.236-1.066,1.043-1.032,1.429.06,2.862.051,4.292,0,.723-.025.934.224.927.935-.031,3.406-.021,6.813,0,10.22,0,.371-.232.95.273,1.07a1.7,1.7,0,0,0,1.732-.231c.459-.451.94-.88,1.411-1.319a.141.141,0,0,1,.017.25c-.742.812-1.326,1.8-2.717,1.647-.761-.083-.988-.333-.982-1.059.024-3.371-.017-6.743.029-10.114.013-.866-.169-1.227-1.114-1.16a31.421,31.421,0,0,1-3.676.005c-.763-.036-.993.208-.984.977.039,3.371-.013,6.743.035,10.113.013.943-.279,1.253-1.225,1.226-2.11-.061-4.222-.018-6.333-.02-.234,0-.486.037-.634-.219" transform="translate(-553.104 -95.478)" fill="#44300c"/>
          <path id="Path_38358" data-name="Path 38358" d="M293.195,299.188a8.867,8.867,0,0,1,3.608-.163c.61.017.472.65.473,1.071q.009,7.777,0,15.554c0,2.445.282,2.142-2.2,2.156-1.807.01-3.616.007-5.423,0-1.226,0-1.231-.112-.9-1.276s.571-2.356.9-3.525c.294-1.039.472-2.11.7-3.167.241-.014.308.163.376.34.123,1.261-.444,2.4-.673,3.592-.167.87-.483,1.7-.641,2.579-.1.566.021.936.7.936,1.909,0,3.817.011,5.726-.006.813-.008.919-.533.921-1.17.006-2.215,0-4.431,0-6.647q0-4.192,0-8.385c0-1.535-.055-1.575-1.628-1.591a5.963,5.963,0,0,1-1.627-.1,1.2,1.2,0,0,1-.31-.2" transform="translate(-229.426 -237.658)" fill="#1b2731"/>
          <path id="Path_38359" data-name="Path 38359" d="M664.329,34.814c-.585-.708-.5-1.635-.8-2.439a3.04,3.04,0,0,1-.219-.879c-.057-1.24-.843-1.256-1.806-1.224-1.872.062-1.873.018-1.874,1.913q0,10.631,0,21.261a.119.119,0,0,1-.206.007q-.017-11.305-.044-22.61c0-.644.246-.843.847-.805a6.867,6.867,0,0,0,1.634-.009c1.134-.205,1.591.35,1.779,1.357.15.8.356,1.592.537,2.387.134.335.462.641.156,1.042" transform="translate(-524.244 -23.84)" fill="#b37f1d"/>
          <path id="Path_38360" data-name="Path 38360" d="M682.938,49.5q-.078-.521-.156-1.042c.677.469.529,1.31.692,1.93.323,1.228.693,2.459.918,3.718a3.03,3.03,0,0,0,3.242,2.745c4.805.008,9.611-.007,14.417.014a7.285,7.285,0,0,0,1.979-.442.158.158,0,0,1,.067.16c-.014.058-.03.086-.048.086a1.853,1.853,0,0,1-1.329.421c-5.177,0-10.354.012-15.531,0a3.017,3.017,0,0,1-2.945-2.254c-.479-1.766-.874-3.555-1.3-5.334" transform="translate(-542.853 -38.529)" fill="#37270a"/>
          <path id="Path_38361" data-name="Path 38361" d="M516.907,510.532c-1.21-.141-2.429-.226-3.627-.435a15.281,15.281,0,0,0-7.779.979,18.529,18.529,0,0,0-7.341,4.961c-.452.481-.589,1.258-1.338,1.459a12.891,12.891,0,0,1,4.017-4.231,18.206,18.206,0,0,1,12.843-3.508,7.472,7.472,0,0,1,3.226.774" transform="translate(-395.003 -405.22)" fill="#273c48"/>
          <path id="Path_38362" data-name="Path 38362" d="M512.633,411.811c-.788.4-1.581.781-2.361,1.193-.58.306-.8.135-.793-.5.013-1.669,0-3.337,0-5.006,0-3.507.034-7.015-.02-10.522a4.258,4.258,0,0,1,.859-2.839c.538-.7.985-1.461,1.473-2.2a.186.186,0,0,1,.284.1c.061.8-.51,1.325-.924,1.873a5.686,5.686,0,0,0-1.132,3.711c.064,4.5.02,9,.026,13.5,0,1.185.069,1.224,1.114.769a1.956,1.956,0,0,1,1.174-.27.576.576,0,0,1,.3.191" transform="translate(-405.052 -311.593)" fill="#a69c1e"/>
          <path id="Path_38363" data-name="Path 38363" d="M786.477,42.445q-.01-.123-.019-.246c.5-.456,1.021-.892,1.5-1.37q4.82-4.8,9.629-9.614c.276-.274.481-.694.979-.647-3.2,3.229-6.386,6.47-9.607,9.677a8.35,8.35,0,0,1-2.483,2.2" transform="translate(-625.281 -24.301)" fill="#422e0c"/>
          <path id="Path_38364" data-name="Path 38364" d="M541.839,425.857c.012,3.442.015,6.884.043,10.326,0,.548-.148.791-.743.809a24.253,24.253,0,0,0-5.242.758c-.418.091-.8.388-1.266.2a.465.465,0,0,1,.074-.335,4.762,4.762,0,0,1,2.3-.748,15.741,15.741,0,0,1,3.44-.465c.773.033.872-.471.872-1.076,0-2.626-.005-5.252,0-7.878a2.962,2.962,0,0,1,.2-1.5.242.242,0,0,1,.321-.086" transform="translate(-425.059 -338.559)" fill="#bfb422"/>
          <path id="Path_38365" data-name="Path 38365" d="M530.88,392.177l-.209.006c-.474-.09-.723-.482-1.029-.786q-3.206-3.186-6.4-6.389c-.912-.911-.913-.909-1.843.038a.66.66,0,0,1-.349.193l-.213-.009a3.406,3.406,0,0,1,1.015-1.668.6.6,0,0,1,.64,0q4.032,4.006,8.062,8.012a.784.784,0,0,1,.322.6" transform="translate(-414.1 -304.878)" fill="#433f0d"/>
          <path id="Path_38366" data-name="Path 38366" d="M554.727,363.046c-.929,1.072-1.049,1.082-1.993.14q-3.184-3.18-6.365-6.365c-.94-.942-.928-1.072.145-1.99a.164.164,0,0,1,.245-.017c-.548,1.047,0,1.709.734,2.41q2.478,2.359,4.839,4.839c.7.737,1.364,1.279,2.411.735a.17.17,0,0,1-.017.249" transform="translate(-433.853 -282.06)" fill="#442f0b"/>
          <path id="Path_38367" data-name="Path 38367" d="M480.258,585.825a36.552,36.552,0,0,0-.052,4.855,19.082,19.082,0,0,0,2.663,7.659,2.145,2.145,0,0,1,.456,1,15.455,15.455,0,0,1-3.087-6.633,22.45,22.45,0,0,1-.384-5.858c.334-.263-.247-.887.4-1.025" transform="translate(-381.5 -465.765)" fill="#273b46"/>
          <path id="Path_38368" data-name="Path 38368" d="M359.277,300.334q0,9.179,0,18.358c-.348-.2-.228-.538-.228-.824q-.01-8.356,0-16.712c0-.286-.118-.626.233-.822" transform="translate(-285.446 -238.783)" fill="#293b4a"/>
          <path id="Path_38369" data-name="Path 38369" d="M659.594,144.465l.206-.007q3.268,3.288,6.533,6.577c.236.238.442.505.661.759-.318.057-.5-.161-.686-.351q-3.191-3.187-6.379-6.377a.862.862,0,0,1-.335-.6" transform="translate(-524.417 -114.852)" fill="#422e0c"/>
          <path id="Path_38370" data-name="Path 38370" d="M360.2,389.879l14.29.031c-.23.292-.557.2-.85.2q-6.308.008-12.617,0c-.285,0-.625.119-.823-.228" transform="translate(-286.383 -309.976)" fill="#293b4a"/>
          <path id="Path_38371" data-name="Path 38371" d="M411.191,311.393,411,310.159c.619.442.436,1.188.587,1.773a65.768,65.768,0,0,1,1.648,6.835c-.448-.008-.446-.415-.605-.68-.643-1.941-1.018-3.953-1.551-5.923a.747.747,0,0,1,.108-.77" transform="translate(-326.773 -246.594)" fill="#293b4a"/>
          <path id="Path_38372" data-name="Path 38372" d="M297.5,326.228l-.207-.265q.813-3.265,1.631-6.528c.022-.088.119-.156.182-.233a.926.926,0,0,1,.261.63,46.942,46.942,0,0,1-1.4,5.909.61.61,0,0,1-.466.489" transform="translate(-236.368 -253.783)" fill="#1b2731"/>
          <path id="Path_38373" data-name="Path 38373" d="M105.227,603.8a19.449,19.449,0,0,1,.58,3.341c.3,1.321.922,2.524,1.26,3.825-1.04-1.189-1.2-2.722-1.6-4.155a8.629,8.629,0,0,1-.24-3.011" transform="translate(-83.633 -480.056)" fill="#162228"/>
          <path id="Path_38374" data-name="Path 38374" d="M666.729,282.922c.582.507,1.416.949,1.531,1.684a13.015,13.015,0,0,1,0,3.625c-.082.641-.814,1.031-1.327,1.465a.16.16,0,0,1-.265-.019.751.751,0,0,1,.311-.711c1.356-1.1.837-2.587.827-3.96,0-.383-.366-.627-.61-.905-.3-.346-.755-.6-.734-1.155a.157.157,0,0,1,.264-.023" transform="translate(-529.88 -224.891)" fill="#44300c"/>
          <path id="Path_38375" data-name="Path 38375" d="M206.4,511.7c-1.3-.338-2.5-.96-3.824-1.26a19.622,19.622,0,0,1-3.341-.58,14.833,14.833,0,0,1,6.823,1.491c.139.06.229.23.342.349" transform="translate(-158.402 -405.35)" fill="#162228"/>
          <path id="Path_38376" data-name="Path 38376" d="M694.831,209.493l-.226-.011c.2-.248.485-.2.752-.2q4.166,0,8.331,0c.266,0,.549-.047.753.2l-.22.008a1.6,1.6,0,0,1-1.144.322q-3.553.018-7.105,0a1.452,1.452,0,0,1-1.139-.316" transform="translate(-552.252 -166.388)" fill="#060a0d"/>
          <path id="Path_38377" data-name="Path 38377" d="M419.109,349.15l.4.617q.628,2.651,1.258,5.3c.1.354.448.677.135,1.082-.374-.031-.512-.3-.585-.609-.4-1.719-.879-3.417-1.3-5.131-.1-.416-.268-.864.085-1.261" transform="translate(-333.046 -277.595)" fill="#5a82a2"/>
          <path id="Path_38378" data-name="Path 38378" d="M590.659,295.811q2.268-2.454,4.721-4.724a.43.43,0,0,1,.118.261,1.605,1.605,0,0,1-.607.9q-1.527,1.542-3.07,3.07a1.631,1.631,0,0,1-.9.61.422.422,0,0,1-.262-.118" transform="translate(-469.61 -231.431)" fill="#422e0c"/>
          <path id="Path_38379" data-name="Path 38379" d="M572.971,314.135l.267.02a18.2,18.2,0,0,1-4.672,4.739c-.018.014-.064-.011-.1-.017a.16.16,0,0,1-.048-.17c.021-.054.041-.081.06-.081q2.154-2.337,4.491-4.491" transform="translate(-451.922 -249.755)" fill="#422e0c"/>
          <path id="Path_38380" data-name="Path 38380" d="M480.315,565.977c-.377.246-.027.78-.4,1.026a12.036,12.036,0,0,1,1.839-6.142c-.32,1.27-.981,2.426-1.226,3.726a5.681,5.681,0,0,0-.208,1.39" transform="translate(-381.557 -445.916)" fill="#162229"/>
          <path id="Path_38381" data-name="Path 38381" d="M553.626,336.049c.007.089.014.177.021.265.061.355-.188.559-.394.771q-1.233,1.263-2.5,2.5c-.211.206-.416.457-.772.388l-.256-.019q1.855-2.044,3.9-3.9" transform="translate(-437.068 -267.178)" fill="#422e0c"/>
          <path id="Path_38382" data-name="Path 38382" d="M613.715,276.869c-.007-.089-.014-.179-.02-.268l3.668-3.674a.174.174,0,0,1,.254-.01c.007.032.033.078.019.1a12.4,12.4,0,0,1-3.921,3.856" transform="translate(-487.925 -216.945)" fill="#422e0c"/>
          <path id="Path_38383" data-name="Path 38383" d="M642.713,635.012l2.236-4.322a.148.148,0,0,1,.073.157c-.015.057-.033.086-.052.086a10.618,10.618,0,0,1-2.256,4.078" transform="translate(-510.995 -501.435)" fill="#243945"/>
          <path id="Path_38384" data-name="Path 38384" d="M642.44,262.044a1.338,1.338,0,0,1,1.371.447c.687.751,1.41,1.469,2.119,2.2a.162.162,0,0,1,.062.164c-.015.057-.032.086-.049.086-.568.076-.806-.4-1.136-.7a7.877,7.877,0,0,0-2.39-1.937.189.189,0,0,1,.024-.259" transform="translate(-510.727 -208.308)" fill="#44300c"/>
          <path id="Path_38385" data-name="Path 38385" d="M306.024,553.9a7.493,7.493,0,0,1,1.3,3.631l-.092.08c-.073.048-.122.03-.148-.053-.163-1.274-.806-2.41-1.061-3.658" transform="translate(-243.307 -440.381)" fill="#b6821d"/>
          <path id="Path_38386" data-name="Path 38386" d="M470.789,521.011c.065,0,.13,0,.2,0a12.828,12.828,0,0,1-2.326,3.009,15.4,15.4,0,0,1,2.131-3.008" transform="translate(-372.611 -414.233)" fill="#5e4d2a"/>
          <path id="Path_38387" data-name="Path 38387" d="M633.867,262.2c0,.081.007.162.01.243a3.272,3.272,0,0,1-2.015,2.029l-.27-.024a18.335,18.335,0,0,1,2.274-2.248" transform="translate(-502.155 -208.462)" fill="#412d0b"/>
          <path id="Path_38388" data-name="Path 38388" d="M635.848,339.248a16.075,16.075,0,0,1-2.039,2.032.164.164,0,0,1-.251.009,3.775,3.775,0,0,1,2.3-2.3.164.164,0,0,1,.05.172c-.02.055-.039.083-.058.083" transform="translate(-503.716 -269.519)" fill="#44300c"/>
          <path id="Path_38389" data-name="Path 38389" d="M659.247,316.1l.264.022-2.264,2.266a.42.42,0,0,1-.121-.258,3.859,3.859,0,0,1,2.122-2.031" transform="translate(-522.454 -251.319)" fill="#422e0c"/>
          <path id="Path_38390" data-name="Path 38390" d="M858.273,86.615a16.12,16.12,0,0,1,2.269-2.261c-.368,1.028-1.3,1.554-2.013,2.28a.147.147,0,0,1-.257-.019" transform="translate(-682.379 -67.066)" fill="#44300c"/>
          <path id="Path_38391" data-name="Path 38391" d="M798.348,146.513a16.919,16.919,0,0,1,2.274-2.268.143.143,0,0,1,.018.253,16.761,16.761,0,0,1-2.036,2.034.146.146,0,0,1-.256-.019" transform="translate(-634.735 -114.683)" fill="#44300c"/>
          <path id="Path_38392" data-name="Path 38392" d="M273.343,555.346a9.52,9.52,0,0,1-1.231-2.459,3.5,3.5,0,0,1,1.231,2.459" transform="translate(-216.345 -439.577)" fill="#0f171b"/>
          <path id="Path_38393" data-name="Path 38393" d="M589.729,386.707c-.007-.086-.013-.171-.019-.257a3.2,3.2,0,0,1,1.822-1.924.418.418,0,0,1,.26.122l-2.062,2.059" transform="translate(-468.854 -305.72)" fill="#422e0c"/>
          <path id="Path_38394" data-name="Path 38394" d="M41.27,429a13.119,13.119,0,0,1-1.838,1.845A3,3,0,0,1,41.27,429" transform="translate(-31.351 -341.083)" fill="#5b400f"/>
          <path id="Path_38395" data-name="Path 38395" d="M523.891,485.217l-.27-.068a1.941,1.941,0,0,1,2.245-.828c.026.033.053.065.08.1.047.078.029.128-.064.146l-1.991.654" transform="translate(-416.31 -384.999)" fill="#c0b423"/>
          <path id="Path_38396" data-name="Path 38396" d="M598.817,378.3l-.271-.022a2.738,2.738,0,0,1,1.642-1.737.425.425,0,0,1,.263.119l-1.634,1.639" transform="translate(-475.88 -299.37)" fill="#432f0c"/>
          <path id="Path_38397" data-name="Path 38397" d="M659.629,275.366l.018-.251a11.058,11.058,0,0,1,1.648,1.649l-.254.019a1.716,1.716,0,0,1-1.411-1.416" transform="translate(-524.445 -218.732)" fill="#422e0c"/>
          <path id="Path_38398" data-name="Path 38398" d="M309.255,300.233l.257.037a2.852,2.852,0,0,1-.48,2.212.189.189,0,0,1-.268-.067,5.594,5.594,0,0,1,.491-2.182" transform="translate(-245.485 -238.703)" fill="#32485a"/>
          <path id="Path_38399" data-name="Path 38399" d="M809.462,138.745c-.006-.084-.013-.169-.018-.253a6.228,6.228,0,0,1,1.413-1.417.146.146,0,0,1,.255.017l-1.65,1.653" transform="translate(-643.557 -108.93)" fill="#432f0c"/>
          <path id="Path_38400" data-name="Path 38400" d="M306.15,313.216q0-.315-.009-.63c.254-.545.042-1.236.538-1.7l.122.1c.1.838.307,1.707-.651,2.236" transform="translate(-243.401 -247.169)" fill="#32485a"/>
          <path id="Path_38401" data-name="Path 38401" d="M644.666,333.365c-.006-.085-.012-.169-.018-.253a2.072,2.072,0,0,1,1.407-1.519.42.42,0,0,1,.26.119l-1.649,1.653" transform="translate(-512.534 -263.636)" fill="#432f0c"/>
          <path id="Path_38402" data-name="Path 38402" d="M628.466,350.065l.257.018a8.516,8.516,0,0,1-1.442,1.451.417.417,0,0,1-.12-.258,1.615,1.615,0,0,1,1.306-1.211" transform="translate(-498.63 -278.322)" fill="#43300c"/>
          <path id="Path_38403" data-name="Path 38403" d="M853.329,95.387l.256.019-1.445,1.448q-.163-.115-.017-.251a4.674,4.674,0,0,1,1.2-1.217" transform="translate(-677.435 -75.838)" fill="#422e0c"/>
          <path id="Path_38404" data-name="Path 38404" d="M793.4,155.313l.256.019-1.444,1.448q-.163-.115-.016-.251a4.65,4.65,0,0,1,1.2-1.217" transform="translate(-629.791 -123.483)" fill="#422e0c"/>
          <path id="Path_38405" data-name="Path 38405" d="M847.546,101.325c.005.083.011.167.016.25l-1.011,1.007a.145.145,0,0,1-.255-.018,4.86,4.86,0,0,1,1.25-1.24" transform="translate(-672.857 -80.559)" fill="#44300c"/>
          <path id="Path_38406" data-name="Path 38406" d="M787.62,161.251c.006.083.011.167.017.25l-1.012,1.007a.144.144,0,0,1-.254-.018,4.851,4.851,0,0,1,1.249-1.24" transform="translate(-625.211 -128.204)" fill="#44300c"/>
          <path id="Path_38407" data-name="Path 38407" d="M622.821,356.015c.005.083.009.166.014.25l-1.011,1.008a.17.17,0,0,1-.255.006,1.353,1.353,0,0,1,1.252-1.263" transform="translate(-494.185 -283.052)" fill="#44300c"/>
          <path id="Path_38408" data-name="Path 38408" d="M651.794,327.3l-.255-.016a1.359,1.359,0,0,1,1.25-1.241c.005.084.01.167.015.251l-1.01,1.005" transform="translate(-518.013 -259.223)" fill="#44300c"/>
          <path id="Path_38409" data-name="Path 38409" d="M311.085,571.747a.431.431,0,0,1,.148.053c.06.54.359,1.047.216,1.614a2.381,2.381,0,0,1-.365-1.667" transform="translate(-247.307 -454.572)" fill="#4e370d"/>
          <path id="Path_38410" data-name="Path 38410" d="M816.6,133.12l-.254-.017a3.843,3.843,0,0,1,1.012-1.028.162.162,0,0,1,.27.023L816.6,133.12" transform="translate(-649.04 -104.957)" fill="#44300c"/>
          <path id="Path_38411" data-name="Path 38411" d="M428.2,379.087l-.153-1.052c.609.43.342,1.073.4,1.638a.48.48,0,0,1-.182-.025.373.373,0,0,1-.065-.561" transform="translate(-340.323 -300.56)" fill="#293b4a"/>
          <path id="Path_38412" data-name="Path 38412" d="M606.849,372.684l-.255-.016c.032-.654.472-.938,1.019-1.127a.422.422,0,0,1,.264.121l-1.028,1.022" transform="translate(-482.279 -295.397)" fill="#44300c"/>
          <path id="Path_38413" data-name="Path 38413" d="M831.315,118.122a3.861,3.861,0,0,1,1.013-1.029.161.161,0,0,1,.27.023l-1.029,1.024a.144.144,0,0,1-.254-.018" transform="translate(-660.945 -93.046)" fill="#44300c"/>
          <path id="Path_38414" data-name="Path 38414" d="M821.548,128.317l-.271-.023a4.021,4.021,0,0,1,1.054-1.037.141.141,0,0,1,.017.25l-.8.81" transform="translate(-652.965 -101.177)" fill="#44300c"/>
          <path id="Path_38415" data-name="Path 38415" d="M611.8,368.011l-.272-.022a1.074,1.074,0,0,1,1.078-1.042.155.155,0,0,1,0,.256l-.8.807" transform="translate(-486.202 -291.745)" fill="#44300c"/>
          <path id="Path_38416" data-name="Path 38416" d="M836.53,113.336l-.271-.023a4.032,4.032,0,0,1,1.054-1.037.141.141,0,0,1,.017.25l-.8.81" transform="translate(-664.876 -89.266)" fill="#44300c"/>
          <path id="Path_38417" data-name="Path 38417" d="M534.656,484.26a.487.487,0,0,1,.063-.146c.406-.047.764-.349,1.2-.227a1.277,1.277,0,0,1-1.265.373" transform="translate(-425.084 -384.695)" fill="#3c390d"/>
          <path id="Path_38418" data-name="Path 38418" d="M653.643,627.031c-.007-.081-.014-.162-.021-.243.017-.387-.051-.811.423-1.006a2.14,2.14,0,0,1-.4,1.25" transform="translate(-519.669 -497.533)" fill="#243842"/>
          <path id="Path_38419" data-name="Path 38419" d="M429.914,386.865q.009-.408.018-.816c.379.281.673.559-.018.816" transform="translate(-341.808 -306.931)" fill="#293b4a"/>
          <path id="Path_38420" data-name="Path 38420" d="M619.18,362.056l.254.018-.614.614a.172.172,0,0,1-.254.008c-.032-.44.172-.655.615-.641" transform="translate(-491.794 -287.855)" fill="#432f0c"/>
          <path id="Path_38421" data-name="Path 38421" d="M843.909,107.374l.254.018-.617.613a.143.143,0,0,1-.252-.017,1.322,1.322,0,0,1,.615-.614" transform="translate(-670.47 -85.369)" fill="#432f0c"/>
          <path id="Path_38422" data-name="Path 38422" d="M783.983,167.3l.254.018-.617.613a.143.143,0,0,1-.252-.017,1.322,1.322,0,0,1,.615-.614" transform="translate(-622.825 -133.013)" fill="#432f0c"/>
          <path id="Path_38423" data-name="Path 38423" d="M828.928,122.356l.254.018-.617.613a.143.143,0,0,1-.253-.017,1.323,1.323,0,0,1,.615-.614" transform="translate(-658.559 -97.28)" fill="#432f0c"/>
          <path id="Path_38424" data-name="Path 38424" d="M841.789,110.37l.252.017-.624.624q-.009-.125-.017-.25a.615.615,0,0,1,.388-.391" transform="translate(-668.964 -87.751)" fill="#432f0c"/>
          <path id="Path_38425" data-name="Path 38425" d="M781.863,170.3l.253.017-.624.624c-.005-.083-.011-.167-.017-.25a.615.615,0,0,1,.388-.391" transform="translate(-621.32 -135.395)" fill="#432f0c"/>
          <path id="Path_38426" data-name="Path 38426" d="M617.045,365.036l.256.019-.626.625c-.006-.085-.012-.169-.018-.254-.034-.292.1-.421.388-.39" transform="translate(-490.275 -290.221)" fill="#432f0c"/>
          <path id="Path_38427" data-name="Path 38427" d="M526.434,382.615l-.64,0c.213-.257.425-.611.64,0" transform="translate(-418.038 -303.933)" fill="#1a1905"/>
          <path id="Path_38428" data-name="Path 38428" d="M826.807,125.351l.252.017-.623.624q-.008-.125-.017-.25a.615.615,0,0,1,.388-.391" transform="translate(-657.053 -99.661)" fill="#432f0c"/>
          <path id="Path_38429" data-name="Path 38429" d="M147.559,564.394A12.287,12.287,0,1,1,159.85,552.32a12.362,12.362,0,0,1-12.291,12.075" transform="translate(-107.555 -429.188)"/>
          <path id="Path_38430" data-name="Path 38430" d="M534.4,552.214A12.282,12.282,0,1,1,522.259,539.9,12.364,12.364,0,0,1,534.4,552.214" transform="translate(-405.352 -429.253)"/>
          <path id="Path_38431" data-name="Path 38431" d="M426.069,512.885c0,.782-.023,1.565.008,2.345.021.537-.1.812-.724.8-1.562-.034-3.127-.023-4.69,0-.49.006-.755-.1-.745-.671q.04-2.4,0-4.791c-.009-.549.212-.7.725-.693,1.563.022,3.127.029,4.69,0,.594-.012.771.217.745.778-.035.746-.009,1.5-.009,2.242" transform="translate(-333.86 -405.372)" fill="#010100"/>
          <path id="Path_38432" data-name="Path 38432" d="M673.2,210.314l9.389,0c.031.406-.289.6-.523.831-3.131,3.138-6.281,6.258-9.387,9.42-.576.587-.914.574-1.46-.014-1.091-1.173-2.229-2.305-3.4-3.4-.551-.516-.575-.842-.016-1.387,1.828-1.785,3.6-3.627,5.4-5.447" transform="translate(-530.619 -167.209)" fill="#606060"/>
          <path id="Path_38433" data-name="Path 38433" d="M374.892,317.953l.065.561c-.025.432-.185.659-.687.657q-6.284-.026-12.567,0c-.543,0-.7-.212-.7-.727q.017-8.276,0-16.552c0-.6.232-.752.787-.748,2.69.019,5.381.015,8.072,0,.479,0,.631.159.809.648.291.8.119,1.753.768,2.431l1.645,6.757a31.489,31.489,0,0,0,1.256,5.2c.173.585-.112,1.348.558,1.775" transform="translate(-287.016 -239.426)" fill="#fff"/>
          <path id="Path_38434" data-name="Path 38434" d="M293.648,304.8c.515-.659.38-1.506.651-2.236l.626-2.243c.92,0,1.842.019,2.761-.022.606-.027.837.155.835.8q-.031,8.386,0,16.772c0,.648-.236.806-.837.8q-3.272-.041-6.545,0c-.664.009-.83-.183-.66-.831.483-1.842.911-3.7,1.377-5.543a2.978,2.978,0,0,0,.177-1.1,52.342,52.342,0,0,0,1.615-6.4" transform="translate(-230.899 -238.752)" fill="#606060"/>
          <path id="Path_38435" data-name="Path 38435" d="M515.266,406.165a4.675,4.675,0,0,0-2.245.829,5.491,5.491,0,0,0-1.593.665c-1.044.507-1.043.515-1.044-.693q0-5.057,0-10.114a15.187,15.187,0,0,0-.007-1.532c-.293-2.868.07-5.541,2.172-7.736.082-.085.078-.252.114-.38,1.1-1.639,1.106-1.641,2.475-.262q3.574,3.6,7.142,7.206,0,4.756,0,9.511c0,1.342,0,1.341-1.3,1.351a28.337,28.337,0,0,0-5.394.912c-.119.024-.216.16-.323.244" transform="translate(-405.71 -306.843)" fill="#818080"/>
          <path id="Path_38436" data-name="Path 38436" d="M562.369,283.9a.61.61,0,0,0-.388.39,4.047,4.047,0,0,0-1.055,1.039,3.829,3.829,0,0,0-1.012,1.027,9.293,9.293,0,0,0-1.65,1.634,12.343,12.343,0,0,0-1.811,1.824c-1.065.865-1.067.867-2.085-.151q-2.853-2.851-5.7-5.705c-1.018-1.019-1.017-1.02-.147-2.084a47.165,47.165,0,0,0,3.661-3.654c1.645-1.513,3.218-3.1,4.738-4.736,1.551-1.432,3.048-2.918,4.473-4.476q2.053-1.864,3.918-3.917a14.131,14.131,0,0,0,2.015-2.029c.462-.222.756.045,1.059.342.794.778,1.6,1.543,2.4,2.313a6.2,6.2,0,0,0,1.411,1.417,1.246,1.246,0,0,0,.237.324c1.21.835,1.382,2,1.455,3.4.074,1.423-.749,2.132-1.493,3a13.076,13.076,0,0,0-2.016,2.037,4.861,4.861,0,0,0-1.25,1.241,6.209,6.209,0,0,0-1.412,1.416,17.468,17.468,0,0,0-2.278,2.267,4.73,4.73,0,0,0-1.2,1.219,4.791,4.791,0,0,0-1.251,1.239,1.333,1.333,0,0,0-.616.614" transform="translate(-435.6 -209.087)" fill="#d81d24"/>
          <path id="Path_38437" data-name="Path 38437" d="M184.147,569.239a5.956,5.956,0,0,1,6.578,1.345.212.212,0,0,1-.015.289c-.387.088-.629-.189-.91-.364-1.479-.923-3.005-1.592-4.8-.954a.945.945,0,0,1-.792-.044.189.189,0,0,1-.064-.273" transform="translate(-146.382 -452.219)" fill="#4a4a45"/>
          <path id="Path_38438" data-name="Path 38438" d="M165.861,595.113a5.956,5.956,0,0,1-1.179-6.392.188.188,0,0,1,.273.068.823.823,0,0,1,.065.684c-.635,1.716-.06,3.226.774,4.7a1.313,1.313,0,0,1,.213.664.426.426,0,0,1-.146.28" transform="translate(-130.574 -468.042)" fill="#4b4b46"/>
          <path id="Path_38439" data-name="Path 38439" d="M166.628,574.653l-.1,0h-.1a6.133,6.133,0,0,1,3.657-3.659c0,.066,0,.131,0,.2s.028.159-.018.191a11.852,11.852,0,0,0-3.254,3.255c-.031.047-.121.036-.191.019" transform="translate(-132.323 -453.971)" fill="#444440"/>
          <path id="Path_38440" data-name="Path 38440" d="M172.182,618.9l.023-.271c.313-.09.522.1.72.285a5.882,5.882,0,0,0,2.752,1.475c.266.058.729.053.561.585a1.164,1.164,0,0,1-.63-.051,5.6,5.6,0,0,1-3.426-2.023" transform="translate(-136.895 -491.825)" fill="#4c4c48"/>
          <path id="Path_38441" data-name="Path 38441" d="M222.742,588.744a5.511,5.511,0,0,1,.283,3.553.612.612,0,0,1-.28-.427c.072-1.026-.506-1.993-.289-3.035a.2.2,0,0,1,.285-.091" transform="translate(-176.828 -468.064)" fill="#4a4a46"/>
          <path id="Path_38442" data-name="Path 38442" d="M220.152,603.378l.092.576a5.307,5.307,0,0,1-1.069,2.378.165.165,0,0,1-.265-.031,6.425,6.425,0,0,1,1.243-2.923" transform="translate(-174.046 -479.721)" fill="#4c4c48"/>
          <path id="Path_38443" data-name="Path 38443" d="M217.837,579.87h-.1l-.1,0a3.047,3.047,0,0,1-1.4-2.069l.027-.249a4.645,4.645,0,0,1,1.571,2.314" transform="translate(-171.922 -459.191)" fill="#43433f"/>
          <path id="Path_38444" data-name="Path 38444" d="M211.627,617.752l.225.008a5.693,5.693,0,0,1-2.046,1.837.354.354,0,0,1-.107-.259,3.56,3.56,0,0,1,1.929-1.585" transform="translate(-166.723 -491.149)" fill="#43433f"/>
          <path id="Path_38445" data-name="Path 38445" d="M201.485,625.63q0,.106,0,.213a4.484,4.484,0,0,1-1.763.649.61.61,0,0,1-.487.011,2.081,2.081,0,0,1,2.247-.873" transform="translate(-158.406 -497.396)" fill="#4c4c48"/>
          <path id="Path_38446" data-name="Path 38446" d="M190.93,628.739l.577.076a4.591,4.591,0,0,1-2.606,0l.762-.066a1.057,1.057,0,0,1,1.267-.008" transform="translate(-150.188 -499.719)" fill="#4a4a46"/>
          <path id="Path_38447" data-name="Path 38447" d="M540.553,592.045a6.066,6.066,0,0,1-.957-7.4.166.166,0,0,1,.266.04,2.214,2.214,0,0,1-.288,1.46,5.385,5.385,0,0,0,.679,4.643c.218.4.666.7.589,1.243a.213.213,0,0,1-.289.014" transform="translate(-428.344 -464.788)" fill="#4b4b46"/>
          <path id="Path_38448" data-name="Path 38448" d="M551.613,570.085a5.858,5.858,0,0,1,4.993-1.066.6.6,0,0,1-.406.273,8.961,8.961,0,0,0-3.958,1.006.663.663,0,0,1-.58.062.171.171,0,0,1-.047-.275" transform="translate(-438.527 -452.277)" fill="#4c4c47"/>
          <path id="Path_38449" data-name="Path 38449" d="M567.466,625a5.963,5.963,0,0,1-4.938.856.641.641,0,0,1,.412-.262,7.826,7.826,0,0,0,3.606-.685,1.178,1.178,0,0,1,.479-.1.618.618,0,0,1,.44.193" transform="translate(-447.243 -496.754)" fill="#3e3e39"/>
          <path id="Path_38450" data-name="Path 38450" d="M573.35,569.724l.577-.092a5.366,5.366,0,0,1,3.024,1.628.215.215,0,0,1-.011.283.69.69,0,0,1-.65-.19,6.35,6.35,0,0,0-2.339-1.152.7.7,0,0,1-.6-.476" transform="translate(-455.848 -452.891)" fill="#4e4e49"/>
          <path id="Path_38451" data-name="Path 38451" d="M590.573,577.823c.01-.083.02-.165.03-.248a5.809,5.809,0,0,1,1.835,3.07,1.012,1.012,0,0,1,.044.626c-.327.2-.457-.082-.506-.275a10.3,10.3,0,0,0-1.427-2.883.309.309,0,0,1,.023-.289" transform="translate(-469.501 -459.206)" fill="#43433f"/>
          <path id="Path_38452" data-name="Path 38452" d="M551.127,622.6l-.527.066a5.723,5.723,0,0,1-3.075-1.84l.249-.029c.761-.044,1.13.677,1.756.9.454.441,1.3.186,1.6.906" transform="translate(-435.315 -493.569)" fill="#444440"/>
          <path id="Path_38453" data-name="Path 38453" d="M585.075,616.983h-.4a5.421,5.421,0,0,1,2.31-2.258.348.348,0,0,1-.012.287,6.678,6.678,0,0,1-1.9,1.972" transform="translate(-464.853 -488.741)" fill="#4b4b46"/>
          <path id="Path_38454" data-name="Path 38454" d="M544.686,574.835l0,.218a2.672,2.672,0,0,1-1.626,1.835l-.212,0a5.7,5.7,0,0,1,1.834-2.05" transform="translate(-431.6 -457.027)" fill="#444440"/>
          <path id="Path_38455" data-name="Path 38455" d="M595.733,605.62c-.014-.1-.027-.2-.041-.3.015-.905-.064-1.845.886-2.405a1.369,1.369,0,0,1-.033.837,5.581,5.581,0,0,1-.813,1.871" transform="translate(-473.611 -479.351)" fill="#4a4a46"/>
          <path id="Path_38456" data-name="Path 38456" d="M598.756,595.515q-.027-.459-.056-.917a1.052,1.052,0,0,1,0-1.3q.032-.37.063-.74a5.447,5.447,0,0,1,0,2.959" transform="translate(-475.822 -471.115)" fill="#3f3f3b"/>
          <path id="Path_38457" data-name="Path 38457" d="M172.5,582.415l-1.268.008a7.4,7.4,0,0,1-4.164-2.226,6.6,6.6,0,0,1-1.006-6.119,7.474,7.474,0,0,1,3.464-3.465,6.324,6.324,0,0,1,5.037.37c.527.3,1.008.682,1.51,1.027l1.4,2.069a6.05,6.05,0,0,1-.816,5.92l-1.825,1.63-2.336.786" transform="translate(-131.755 -453.395)" fill="#fff"/>
          <path id="Path_38458" data-name="Path 38458" d="M552.425,575.393q0,.65,0,1.3-.4,1.243-.8,2.486a11.724,11.724,0,0,1-2.258,2.272l-.35.035a5.979,5.979,0,0,1-5.4,0,5.36,5.36,0,0,1-1.614-1.045,6.363,6.363,0,0,1-.994-7.368l1.626-1.836a7.983,7.983,0,0,1,4.412-1.192,6.352,6.352,0,0,1,5.372,5.346" transform="translate(-429.551 -453.213)" fill="#fff"/>
          <path id="Path_38459" data-name="Path 38459" d="M556.613,625.9a8.027,8.027,0,0,0,5.4,0,5.538,5.538,0,0,1-3.661.757c-.531-.365-1.292-.2-1.74-.758" transform="translate(-442.541 -497.629)" fill="#cbcbbe"/>
        </g>
      </g>
    </g>
  </g>
</svg>
